<svg width="1440" height="120" viewBox="0 0 1440 120" fill="none" xmlns="http://www.w3.org/2000/svg">
<rect width="1440" height="119.738" transform="matrix(1 0 0 -1 0 119.738)" fill="white"/>
<mask id="mask0_1609_8279" style="mask-type:alpha" maskUnits="userSpaceOnUse" x="0" y="0" width="1440" height="120">
<rect width="1440" height="120" transform="matrix(-1 0 0 1 1440 0)" fill="#D9D9D9"/>
</mask>
<g mask="url(#mask0_1609_8279)">
<path d="M167.746 50.7974C161.369 50.6552 161.649 51.7611 163.46 52.8117C164.631 53.4912 163.625 55.7264 164.867 56.2651C164.969 56.3094 165.126 56.2992 165.321 56.248C166.72 55.88 168.323 56.4947 169.346 57.5174C172.547 60.7176 180.234 57.9872 184.451 55.7651C184.58 55.6969 184.698 55.6153 184.808 55.5186C186.432 54.0891 187.346 52.855 187.828 51.9319C188.091 51.428 188.225 51.0168 188.275 50.7171C188.31 50.5051 188.261 50.2892 188.139 50.1121C187.401 49.0379 184.63 47.0922 177.963 46.0826C170.66 44.9766 168.109 48.765 167.746 50.7974Z" fill="url(#paint0_linear_1609_8279)"/>
<path d="M146.42 68.5079C141.689 68.4025 141.721 69.1898 142.978 69.9708C143.933 70.5641 143.226 72.7774 144.349 72.735C145.55 72.6897 146.89 73.008 147.788 73.8062C150.314 76.0525 156.031 74.0268 159.225 72.3529C159.354 72.2849 159.473 72.2029 159.583 72.1058C160.808 71.0205 161.501 70.0834 161.868 69.3806C162.049 69.0328 162.151 68.7424 162.197 68.5198C162.242 68.3095 162.193 68.0923 162.064 67.9203C161.436 67.0833 159.285 65.6392 154.279 64.8812C148.662 64.0304 146.699 66.9445 146.42 68.5079Z" fill="#FFEAA2"/>
<path d="M146.42 68.5079C141.689 68.4025 141.721 69.1898 142.978 69.9708C143.933 70.5641 143.226 72.7774 144.349 72.735C145.55 72.6897 146.89 73.008 147.788 73.8062C150.314 76.0525 156.031 74.0268 159.225 72.3529C159.354 72.2849 159.473 72.2029 159.583 72.1058C160.808 71.0205 161.501 70.0834 161.868 69.3806C162.049 69.0328 162.151 68.7424 162.197 68.5198C162.242 68.3095 162.193 68.0923 162.064 67.9203C161.436 67.0833 159.285 65.6392 154.279 64.8812C148.662 64.0304 146.699 66.9445 146.42 68.5079Z" fill="url(#paint1_linear_1609_8279)"/>
<path d="M-263 442.453C-263 642.079 177.26 803.907 720.348 803.907C1263.44 803.907 1703.7 642.079 1703.7 442.453C1703.7 242.828 1263.44 81 720.348 81C177.26 81 -263 242.828 -263 442.453Z" fill="#E9EDF0"/>
<path d="M1440 67C1084.03 67 986.593 114.039 720 114.039C453.407 114.039 294.387 89.8733 0 89.8733V120H1440L1440 67Z" fill="#F8F9FA"/>
<path d="M1333.74 47.034L1342.7 48.9448L1343.98 50.3866C1345.51 49.8006 1348.89 48.5799 1350.14 48.3846C1351.39 48.1894 1350.94 48.8289 1350.56 49.1731L1343.75 53.8768C1342.36 56.1884 1340.65 57.5452 1339.96 57.9346C1340.17 59.2392 1342.46 59.3475 1343.58 59.2386C1344.31 58.928 1346.18 58.7747 1347.88 60.6463C1348.9 61.7807 1348.96 62.6446 1348.7 63.2236C1348.41 63.8643 1347.57 63.9005 1346.87 63.8787C1346.47 63.8665 1346.08 63.8707 1345.82 63.8739C1345.22 63.8815 1342.77 64.252 1340.8 64.476C1339.22 64.6551 1336.64 63.6647 1335.54 63.1472C1334.35 64.7062 1327.68 67.2788 1324.5 68.3703C1324.13 68.8075 1322.94 69.6125 1322.39 69.9604C1318.43 72.2777 1315.09 75.8258 1313.92 77.3103C1312.91 78.0361 1312.4 77.8557 1312.27 77.6748C1312.12 77.7271 1311.82 77.5023 1311.8 76.184C1311.78 74.8657 1315.58 70.7978 1317.48 68.9286C1315.65 68.8328 1311.42 68.9223 1309.07 70.0463C1306.72 71.1703 1304.42 71.6882 1303.57 71.8067C1302.79 72.1369 1301.35 71.2571 1300.73 70.7759C1300.57 70.2234 1300.49 68.7002 1301.38 67.0277C1302.26 65.3553 1305.84 64.9514 1307.52 64.9586C1310.6 64.4741 1312.32 64.0102 1312.79 63.8388C1312.69 61.3699 1318.19 54.7888 1320.95 51.8068L1322.58 50.273C1322.96 49.9957 1324.61 49.1666 1328.15 48.0688C1331.69 46.9711 1333.35 46.9215 1333.74 47.034Z" fill="#DDEEC3"/>
<path d="M1339.26 55.889C1340.59 54.4676 1341.77 51.6008 1342.41 49.6967C1342.6 49.1431 1342.25 48.5636 1341.68 48.4473L1333.68 46.826C1333.39 46.7666 1333.09 46.7512 1332.79 46.7804L1330.93 46.9635C1330.68 46.988 1330.44 47.0437 1330.2 47.1293L1322.95 49.7619C1322.55 49.9086 1322.18 50.1403 1321.87 50.4415L1320.82 51.4801L1314.57 59.392C1312.34 62.1979 1312.49 64.2912 1312.85 64.987C1315.45 66.6986 1321.73 66.2273 1324.55 65.7777C1329.14 64.9281 1330.91 63.4717 1331.22 62.8498C1333.23 61.2438 1337.65 57.6033 1339.26 55.889Z" fill="#408572"/>
</g>
<defs>
<linearGradient id="paint0_linear_1609_8279" x1="162.444" y1="53.2603" x2="188.371" y2="51.4848" gradientUnits="userSpaceOnUse">
<stop stop-color="#FFDBA4"/>
<stop offset="1" stop-color="#FFF6D7"/>
</linearGradient>
<linearGradient id="paint1_linear_1609_8279" x1="142.342" y1="70.4025" x2="162.285" y2="69.0367" gradientUnits="userSpaceOnUse">
<stop stop-color="#A1C4FD"/>
<stop offset="1" stop-color="#C2E9FB"/>
</linearGradient>
</defs>
</svg>
