<svg width="60" height="60" viewBox="0 0 60 60" fill="none" xmlns="http://www.w3.org/2000/svg">
<rect x="0.5" y="0.5" width="59" height="59" rx="29.5" fill="white"/>
<rect x="0.5" y="0.5" width="59" height="59" rx="29.5" stroke="#3C4B91"/>
<path d="M28.75 31.4205L18.2736 15L14.8941 19.5076C13.8126 21.053 14.6688 22.9419 15.232 23.6932L22.6669 36.25C25.3705 31.8712 27.8488 31.2058 28.75 31.4205Z" fill="url(#paint0_linear_1070_6476)"/>
<path d="M31.25 31.4205L41.7264 15L45.1059 19.5076C46.1874 21.053 45.3312 22.9419 44.768 23.6932L38.125 36.25C35.4214 31.8712 32.1512 31.2058 31.25 31.4205Z" fill="url(#paint1_linear_1070_6476)"/>
<path d="M18.75 15H41.5625L36.6628 23.125H23.4375L18.75 15Z" fill="#E9EDF0"/>
<path d="M38.125 39.375C38.125 43.8623 34.4873 47.5 30 47.5C25.5127 47.5 21.875 43.8623 21.875 39.375C21.875 34.8877 25.5127 31.25 30 31.25C34.4873 31.25 38.125 34.8877 38.125 39.375Z" fill="#D9D9D9"/>
<path d="M38.125 39.375C38.125 43.8623 34.4873 47.5 30 47.5C25.5127 47.5 21.875 43.8623 21.875 39.375C21.875 34.8877 25.5127 31.25 30 31.25C34.4873 31.25 38.125 34.8877 38.125 39.375Z" fill="url(#paint2_linear_1070_6476)"/>
<path fill-rule="evenodd" clip-rule="evenodd" d="M19.9991 15.0521C19.5544 15.0521 19.1158 15.1557 18.718 15.3545C18.3203 15.5534 17.9743 15.8422 17.7074 16.198L15.0244 19.7643C14.6883 20.2134 14.4912 20.7518 14.4581 21.3118C14.425 21.872 14.5572 22.4295 14.8381 22.9152L22.4215 36.0152C22.5512 36.2393 22.4747 36.526 22.2506 36.6557C22.0266 36.7854 21.7398 36.7089 21.6101 36.4849L14.0268 23.3849C13.6538 22.7402 13.4783 22 13.5222 21.2565C13.5662 20.513 13.8275 19.7988 14.2738 19.2025L16.9574 15.6355C17.3116 15.1634 17.7709 14.7799 18.2988 14.516C18.8267 14.2521 19.4089 14.1146 19.9991 14.1146H39.9991C40.5894 14.1146 41.1715 14.2521 41.6994 14.516C42.2274 14.78 42.6866 15.1633 43.0408 15.6355L43.0412 15.636L45.7064 19.2007L45.7073 19.2019C46.156 19.796 46.4204 20.5088 46.4677 21.2519C46.515 21.9954 46.3428 22.7365 45.9725 23.383L45.9715 23.3849L38.3881 36.4849C38.2584 36.7089 37.9717 36.7854 37.7476 36.6557C37.5236 36.526 37.4471 36.2393 37.5768 36.0152L45.159 22.9171L45.1596 22.9161C45.4382 22.4292 45.5677 21.8712 45.5321 21.3114C45.4964 20.7512 45.297 20.2138 44.9585 19.766L44.957 19.7641L42.2908 16.198C42.0239 15.8422 41.678 15.5534 41.2802 15.3545C40.8824 15.1557 40.4438 15.0521 39.9991 15.0521H19.9991Z" fill="#3C4B91"/>
<path fill-rule="evenodd" clip-rule="evenodd" d="M18.2913 14.5148C18.5133 14.3816 18.8012 14.4535 18.9344 14.6755L28.7344 31.0089C28.8676 31.2309 28.7956 31.5188 28.5736 31.652C28.3516 31.7852 28.0637 31.7132 27.9305 31.4912L18.1305 15.1579C17.9973 14.9359 18.0693 14.648 18.2913 14.5148Z" fill="#3C4B91"/>
<path fill-rule="evenodd" clip-rule="evenodd" d="M41.7069 14.5148C41.9289 14.648 42.0009 14.9359 41.8677 15.1579L32.0677 31.4912C31.9345 31.7132 31.6466 31.7852 31.4246 31.652C31.2026 31.5188 31.1306 31.2309 31.2638 31.0089L41.0638 14.6755C41.197 14.4535 41.485 14.3816 41.7069 14.5148Z" fill="#3C4B91"/>
<path fill-rule="evenodd" clip-rule="evenodd" d="M22.8637 22.9167C22.8637 22.6578 23.0736 22.448 23.3324 22.448H36.6658C36.9247 22.448 37.1345 22.6578 37.1345 22.9167C37.1345 23.1756 36.9247 23.3855 36.6658 23.3855H23.3324C23.0736 23.3855 22.8637 23.1756 22.8637 22.9167Z" fill="#3C4B91"/>
<path fill-rule="evenodd" clip-rule="evenodd" d="M29.9991 31.7188C25.6556 31.7188 22.1345 35.2399 22.1345 39.5834C22.1345 43.9269 25.6556 47.448 29.9991 47.448C34.3426 47.448 37.8637 43.9269 37.8637 39.5834C37.8637 35.2399 34.3426 31.7188 29.9991 31.7188ZM21.197 39.5834C21.197 34.7221 25.1379 30.7813 29.9991 30.7813C34.8604 30.7813 38.8012 34.7221 38.8012 39.5834C38.8012 44.4446 34.8604 48.3855 29.9991 48.3855C25.1379 48.3855 21.197 44.4446 21.197 39.5834Z" fill="#3C4B91"/>
<path fill-rule="evenodd" clip-rule="evenodd" d="M28.697 37.9167C28.697 37.6578 28.9069 37.448 29.1658 37.448H29.9991C30.258 37.448 30.4679 37.6578 30.4679 37.9167V41.25C30.4679 41.5089 30.258 41.7188 29.9991 41.7188C29.7402 41.7188 29.5304 41.5089 29.5304 41.25V38.3855H29.1658C28.9069 38.3855 28.697 38.1756 28.697 37.9167Z" fill="#3C4B91"/>
<defs>
<linearGradient id="paint0_linear_1070_6476" x1="30" y1="15" x2="30" y2="36.25" gradientUnits="userSpaceOnUse">
<stop stop-color="#98BFFF"/>
<stop offset="1" stop-color="#C2E9FB"/>
</linearGradient>
<linearGradient id="paint1_linear_1070_6476" x1="30" y1="15" x2="30" y2="36.25" gradientUnits="userSpaceOnUse">
<stop stop-color="#98BFFF"/>
<stop offset="1" stop-color="#C2E9FB"/>
</linearGradient>
<linearGradient id="paint2_linear_1070_6476" x1="30" y1="31.25" x2="30" y2="47.5" gradientUnits="userSpaceOnUse">
<stop stop-color="#FFD495"/>
<stop offset="1" stop-color="#FFF5D4"/>
</linearGradient>
</defs>
</svg>
