<svg width="250" height="220" viewBox="0 0 250 220" fill="none" xmlns="http://www.w3.org/2000/svg">
<path d="M151.925 151.542C157.3 151.542 162.675 151.542 168.05 151.542C167.99 151.591 167.945 151.645 167.927 151.706C165.292 160.139 163.673 168.896 162.186 177.592C160.904 185.091 159.779 192.636 158.978 200.204C158.928 200.262 158.905 200.323 158.926 200.384C158.935 200.411 158.941 200.44 158.95 200.467C158.949 200.475 158.948 200.482 158.947 200.49C158.94 200.562 158.963 200.617 159.005 200.659C159.007 200.666 159.009 200.672 159.011 200.678C156.329 201.58 153.066 201.427 150.338 201.37C148.872 201.339 147.408 201.236 145.954 201.055C145.258 200.968 143.521 200.889 143.087 200.181C143.061 200.137 143.02 200.104 142.972 200.079C143.774 192.5 144.911 184.949 146.184 177.436C147.657 168.74 149.29 159.98 151.924 151.55C151.925 151.548 151.924 151.545 151.925 151.542ZM176.149 151.644C177.47 160.274 179.799 168.767 182.243 177.135C183.265 180.631 184.319 184.121 185.422 187.595C185.5 187.606 185.551 187.629 185.551 187.669C185.551 187.78 185.551 187.891 185.551 188.002C186.358 190.536 187.196 193.06 188.066 195.572L188.323 187.095C188.323 175.244 188.323 163.393 188.323 151.542C185.934 151.542 183.544 151.542 181.154 151.542L176.149 151.644ZM194.16 202.33C194.771 202.33 195.785 202.33 196.686 202.33C196.958 202.33 197.466 202.266 198.104 202.164C196.802 202.201 195.488 202.211 194.16 202.312C194.16 202.318 194.16 202.325 194.16 202.33ZM194.16 166.146C194.16 177.953 194.16 189.76 194.16 201.567C197.594 201.296 201.066 201.782 204.336 200.455C201.18 188.938 196.666 177.82 194.16 166.146ZM183.137 132.383C178.641 132.702 173.955 132.751 169.43 132.412C169.435 132.421 169.44 132.431 169.445 132.441C170.792 135.094 172.163 137.754 173.312 140.501C173.562 141.099 174.351 142.46 174.133 143.294C178.548 143.294 182.963 143.294 187.377 143.294C187.642 143.294 187.796 143.385 187.861 143.508C187.876 143.515 187.885 143.524 187.888 143.534C187.998 143.546 188.071 143.581 188.071 143.643C188.071 144.272 188.071 144.902 188.071 145.532C188.071 145.551 188.066 145.57 188.06 145.588C189.416 145.588 190.772 145.588 192.128 145.588C192.467 140.365 190.569 135.496 188.732 130.691C187.123 131.78 184.936 132.255 183.137 132.383ZM157.49 80.988C157.34 80.8977 157.137 80.7759 156.859 80.6091C156.714 80.5222 156.561 80.4483 156.405 80.3836C156.76 80.6175 157.105 80.8746 157.443 81.1261C157.458 81.0799 157.474 81.0337 157.49 80.988ZM186.14 92.0916C186.138 92.0911 186.136 92.0907 186.134 92.0903C186.135 92.092 186.136 92.0932 186.137 92.0953C186.138 92.0941 186.139 92.0928 186.14 92.0916ZM180.821 92.2776C180.833 92.2604 180.846 92.2448 180.859 92.228C180.729 92.2209 180.605 92.2226 180.491 92.2406L180.821 92.2776ZM180.541 131.827C182.082 131.787 183.858 131.781 185.478 131.388C186.488 131.143 187.436 130.744 188.228 130.09C188.277 130.05 188.324 130.006 188.372 129.964C188.393 129.946 188.414 129.928 188.434 129.91C188.397 129.813 188.36 129.716 188.323 129.62C188.267 129.471 188.679 129.275 189.041 129.208C190.545 126.881 188.278 123.686 187.273 121.43C187.232 121.337 187.274 121.245 187.362 121.164C181.871 121.164 176.379 121.164 170.887 121.164C170.552 121.405 169.845 121.471 169.845 121.22C169.845 112.331 169.845 103.442 169.845 94.5522C169.845 94.3682 170.058 94.225 170.306 94.1427C170.359 93.9197 170.581 93.7076 170.92 93.7076C172.169 93.7076 173.418 93.7076 174.667 93.7076C173.607 92.4712 173.113 90.8438 172.088 89.5709C171.844 89.2677 173.008 88.8557 173.227 89.1278C174.379 90.5582 174.869 92.4452 176.233 93.7076C176.856 93.7076 177.479 93.7076 178.102 93.7076C178.547 92.1398 179.988 91.3952 181.73 91.6052C182.452 91.3562 183.381 91.4452 184.231 91.7144C184.947 91.2823 185.953 91.2466 186.937 91.4767C187.403 91.2403 187.95 91.1055 188.524 91.0404C188.812 91.0076 189.077 91.0168 189.327 91.0555C188.861 90.1315 188.391 89.1996 187.91 88.2702C186.323 85.6874 184.174 82.3046 182.263 79.6907C181.606 78.9864 180.908 78.3199 180.147 77.7134C175.011 73.6192 168.537 73.8035 162.29 73.8338L162.317 73.8896L160.04 77.6853C159.402 79.122 158.813 80.5718 158.331 82.0727C158.184 82.5301 157.234 82.5935 157.147 82.1471C157.12 82.1391 157.095 82.129 157.074 82.1152C156.346 81.641 155.657 81.1005 154.918 80.6457C154.915 80.644 154.912 80.6427 154.91 80.6411C154.963 81.8157 155.166 83.1365 154.711 84.2217C154.598 84.4897 154.448 84.7253 154.268 84.9302C154.364 96.6096 156.622 109.311 162.24 119.652C162.539 119.575 162.867 119.611 162.941 119.844C162.955 119.887 162.973 119.93 162.988 119.973C163.141 119.983 163.131 120.038 163.038 120.11C163.549 121.531 164.49 122.915 165.181 124.232C166.047 125.882 166.91 127.533 167.768 129.187C168.193 130.006 168.616 130.826 169.036 131.647C172.832 131.972 176.743 131.925 180.541 131.827ZM145.036 115.857C145.517 114.89 145.919 113.884 146.261 112.889C146.32 112.715 146.636 112.59 146.93 112.545C145.243 107.078 143.449 101.636 143.176 95.8814C143.154 95.4131 144.375 95.1649 144.393 95.5555C144.793 103.993 148.462 111.758 150.273 119.914C150.277 119.933 150.276 119.951 150.275 119.97C151.616 119.97 152.958 119.97 154.299 119.97C148.812 109.607 149.675 96.8763 149.686 85.5228C149.686 85.5136 149.689 85.5052 149.69 85.4959C149.507 85.3443 149.346 85.1578 149.227 84.9147C148.836 84.1138 148.815 83.1777 148.828 82.2743L148.662 82.3982C148.584 82.5662 148.517 82.7455 148.479 82.9425C148.46 83.0361 148.328 83.1197 148.157 83.1819C147.95 83.307 147.651 83.3704 147.432 83.3213L147.409 83.3385L147.401 83.3104C147.288 83.2776 147.2 83.2138 147.167 83.1075C147.064 82.7837 147.001 82.4205 146.965 82.04C145.259 83.6501 143.158 84.897 141.429 86.4686C141.397 86.4975 141.367 86.5265 141.336 86.5555C141.24 86.6437 141.147 86.7348 141.054 86.8255C140.974 86.9045 140.893 86.983 140.816 87.0616C140.338 87.55 139.899 88.0724 139.522 88.6495C136.898 92.6644 136.541 98.1992 135.159 102.725C135.123 102.844 135.013 102.942 134.875 103.015C135.981 104.689 137.178 106.305 138.183 108.047C138.506 108.608 137.348 109.07 137.07 108.587C135.57 105.988 133.638 103.67 132.227 101.018C132.209 100.984 132.197 100.952 132.189 100.919C131.907 101.121 131.189 101.307 131.08 101.069C131.063 101.031 131.052 100.993 131.035 100.955C129.721 101.208 128.254 101.636 127 102.308C126.454 102.661 125.938 103.023 125.481 103.358C125.129 103.68 124.831 104.041 124.593 104.437C124.672 104.448 124.676 104.635 124.877 105.029C125.194 105.653 125.518 106.274 125.844 106.893C126.803 108.718 127.77 110.538 128.725 112.364C129.65 114.131 130.58 115.897 131.447 117.693C131.648 118.109 132.11 118.8 132.293 119.406C132.488 119.409 132.654 119.476 132.705 119.633C132.741 119.745 132.786 119.857 132.827 119.969C134.554 119.969 136.281 119.969 138.008 119.969L142.092 119.885C142.639 119.392 143.131 118.844 143.572 118.252L145.036 115.857ZM92.835 151.542C87.133 151.542 81.4307 151.542 75.7287 151.542C75.7287 156.23 75.7287 160.918 75.7287 165.607C77.8341 165.78 79.8982 165.55 82.0102 165.509C82.1304 165.507 82.2681 165.501 82.4109 165.496C82.3613 159.291 86.8517 152.904 93.105 151.824C93.0076 151.765 92.9173 151.704 92.8173 151.647C92.7787 151.625 92.7909 151.587 92.835 151.542ZM75.8976 151.047C77.2894 151.047 78.6811 151.047 80.0729 151.047L76.0143 150.954L75.8976 151.047ZM107.326 110.409C104.952 110.314 102.583 110.109 100.208 110.052C99.3592 113.498 97.7247 117.005 95.8743 119.991C94.7559 121.796 92.5389 125.383 89.8901 124.206C89.6604 124.104 89.5983 123.956 89.6348 123.811C88.7268 123.3 88.0078 122.379 87.4123 121.433C86.0344 119.245 84.7006 116.893 83.5541 114.574C81.8691 111.167 80.2905 107.563 76.6052 105.918C75.4566 105.405 74.2639 105.021 73.0611 104.666C74.4348 106.389 76.3738 108.843 74.2971 110.215C74.0098 110.726 73.5676 111.191 73.3005 111.641C73.3857 112.536 74.4063 113.482 74.3937 114.541C74.3769 115.954 72.4198 116.971 71.6865 117.951C71.4946 118.207 70.301 118.367 70.5744 118.002C70.5824 117.992 70.5908 117.983 70.5988 117.972C70.4951 117.995 70.3934 118.006 70.3019 118.004C70.2171 118.035 70.1331 118.055 70.0575 118.055C67.5519 118.066 64.5462 116.971 62.4354 115.646C60.9399 114.707 61.3826 112.611 60.6522 111.228C60.5766 111.085 60.4851 110.971 60.3818 110.876C59.995 110.688 59.4889 110.559 58.8245 110.489C57.5827 110.534 56.1594 110.884 55.692 109.545C55.151 107.996 55.5277 106.164 55.65 104.515C53.3489 105.58 51.113 106.859 49.3 108.454C48.4454 109.365 47.5189 110.43 46.6752 111.429C46.0234 112.382 45.4661 113.393 44.9865 114.445C44.9882 114.507 44.9579 114.566 44.9088 114.623C44.0915 116.455 43.4918 118.4 42.9912 120.349C41.817 124.921 41.1988 129.587 40.6826 134.271C40.3181 137.583 39.3988 140.987 42.9093 142.849C46.1322 144.558 50.0261 144.889 53.6102 145.075C57.3996 145.273 61.2011 145.267 64.9951 145.311C66.1547 145.324 67.3222 145.365 68.4851 145.347C66.6599 142.197 66.6486 137.374 69.0441 134.631C64.327 134.312 59.5418 134.648 54.8596 134.161C52.9382 133.961 51.9769 133.205 52.2486 131.195C52.26 131.109 52.3087 131.034 52.3784 130.969C53.2754 127.687 54.1322 124.363 54.6034 120.991C54.8986 118.878 55.7348 114.905 53.7655 113.311C53.4476 113.054 54.5715 112.578 54.8974 112.842C56.8246 114.402 56.1888 118.178 55.8948 120.282C55.3753 124.001 54.4614 127.648 53.4691 131.265C53.4665 131.274 53.4602 131.283 53.4565 131.292C53.2775 133.488 55.162 133.417 57.0384 133.436C61.4724 133.48 65.8783 133.51 70.3023 133.885C70.5488 133.906 70.6542 133.99 70.6698 134.097C73.4521 134.07 76.3062 133.871 78.9495 134.521C78.6307 132.96 78.7101 131.54 79.461 130.025C80.3467 128.238 81.261 126.331 81.0309 124.265C80.6239 120.607 77.2461 118.052 77.4515 114.289C77.4729 113.892 78.6811 113.726 78.6681 113.963C78.451 117.945 82.4546 120.536 82.266 124.502C82.1799 126.31 81.6457 127.853 80.849 129.461C80.8373 129.484 80.8293 129.506 80.8179 129.53C80.8591 129.552 80.8973 129.577 80.928 129.611C82.6688 131.554 86.2356 135.814 89.2816 135.437C89.757 134.478 90.2379 133.522 90.7234 132.57C92.1231 129.822 93.554 127.091 94.9865 124.361C95.6425 123.111 96.5429 121.791 97.0519 120.444C96.9986 120.419 97.0254 120.374 97.0964 120.321C97.1262 120.238 97.1603 120.155 97.1867 120.072C97.3295 119.623 98.5613 119.462 98.4092 119.94C98.4063 119.949 98.4021 119.959 98.3992 119.968C100.768 119.968 103.136 119.968 105.505 119.968L106.037 119.916C107.624 117.026 108.242 113.679 108.72 110.448C108.402 110.443 108.084 110.437 107.766 110.426C107.573 110.453 107.397 110.452 107.326 110.409ZM80.3371 130.727C80.1044 131.465 80.004 132.189 80.0271 132.942L80.3425 130.733C80.3413 130.731 80.3392 130.729 80.3371 130.727ZM66.1475 116.467C64.8112 115.643 63.3837 114.626 62.5194 113.786C62.6307 114.145 62.7937 114.471 63.0582 114.733C63.7638 115.431 64.9111 116.024 66.1475 116.467ZM73.4622 142.16C72.8032 142.491 72.1712 142.926 71.4732 143.174C70.7198 143.44 70.0218 143.522 69.367 143.376C69.2986 143.367 69.2322 143.351 69.1688 143.328C69.081 143.302 68.9949 143.267 68.9088 143.231C69.1486 143.975 69.467 144.674 69.8571 145.293C70.0957 145.332 70.2952 145.444 70.3002 145.588C70.8873 145.588 71.4744 145.588 72.062 145.588C72.062 145.049 72.062 144.508 72.062 143.969C72.062 143.875 72.1351 143.792 72.2442 143.725C72.2942 143.508 72.5252 143.295 72.8654 143.295C73.7078 143.295 74.5507 143.295 75.3932 143.295L75.4679 143.266C75.0623 142.372 74.5222 141.627 73.4622 142.16ZM98.1207 120.69L100.432 120.464C99.6939 120.464 98.9556 120.464 98.2177 120.464C98.1871 120.54 98.1535 120.615 98.1207 120.69ZM59.1395 146.319L64.9662 146.152C63.0284 146.13 61.0835 146.131 59.1395 146.11C59.1395 146.18 59.1395 146.249 59.1395 146.319ZM73.2786 145.532C73.2786 145.551 73.2736 145.57 73.2677 145.588C73.2854 145.588 73.303 145.588 73.3206 145.588L73.4777 144.177C73.4114 144.177 73.345 144.177 73.2786 144.177C73.2786 144.628 73.2786 145.08 73.2786 145.532ZM58.5562 151.542C58.4806 151.542 58.4331 151.534 58.4079 151.52C58.15 151.558 57.9228 151.543 57.9228 151.458C57.9228 149.67 57.9228 147.881 57.9228 146.093C55.9376 146.059 53.9545 145.991 51.9807 145.833C50.9879 156.51 58.1547 167.516 69.892 165.83C69.892 161.073 69.892 156.317 69.892 151.561L69.3477 151.542C65.7507 151.542 62.1532 151.542 58.5562 151.542Z" fill="url(#paint0_linear_1351_7879)"/>
<path d="M70.4427 92.2306C69.4268 92.2928 68.5331 91.8178 67.8171 91.1295C67.5697 90.8918 66.4501 91.3432 66.6743 91.5583C66.7386 91.62 66.8066 91.6746 66.873 91.7317C66.8579 91.7603 66.847 91.7901 66.847 91.8216C66.8545 92.6842 66.9415 93.9702 67.9229 94.2536C69.2777 94.6451 69.9988 93.2562 70.7401 92.4667C70.9324 92.2621 70.5734 92.2227 70.4427 92.2306ZM68.9808 93.3658C68.8964 93.4771 68.7998 93.5762 68.7032 93.6758C68.6973 93.6737 68.6957 93.6724 68.6894 93.6703C68.5869 93.6111 68.51 93.5019 68.4483 93.4057C68.2816 93.1449 68.1875 92.8262 68.1337 92.4969C68.5449 92.6552 68.9804 92.7472 69.4352 92.769C69.279 92.9643 69.132 93.1668 68.9808 93.3658ZM68.274 82.0468C68.3475 82.321 67.996 82.5562 67.7696 82.5986C67.2048 82.7045 66.7289 82.9522 66.2775 83.3033C66.0541 83.4772 65.6563 83.5452 65.4077 83.3869C65.1478 83.2214 65.2947 82.9434 65.4837 82.7964C66.0923 82.3231 66.7999 81.9641 67.5613 81.8213C67.7877 81.7784 68.1942 81.7486 68.274 82.0468ZM139.924 69.1932C139.036 67.6519 138.289 66.069 138.461 64.2497C138.499 63.849 139.722 63.6113 139.677 64.0931C139.52 65.7511 140.216 67.234 141.012 68.6388C141.141 68.6182 141.268 68.5939 141.386 68.5468C141.928 68.3314 142.655 68.7173 141.863 69.0319C141.51 69.1722 141.109 69.1386 140.771 69.273C140.527 69.3696 140.085 69.4729 139.924 69.1932ZM143.974 62.9381C143.981 63.4337 144.106 63.9095 144.569 64.1569C144.758 64.2577 144.241 64.4748 144.203 64.4887C143.995 64.5626 143.636 64.6802 143.421 64.5655C142.928 64.3026 142.765 63.7949 142.757 63.2644C142.752 62.9306 143.971 62.7521 143.974 62.9381ZM137.674 66.1929C137.794 66.4407 137.309 66.6549 137.157 66.6956C136.921 66.7586 136.58 66.7729 136.457 66.5188C136.274 66.1404 136.245 65.788 136.245 65.3727C136.245 65.1014 136.734 64.9565 136.93 64.9351C137.16 64.9099 137.466 64.9569 137.466 65.2391C137.467 65.5856 137.522 65.8783 137.674 66.1929ZM140.836 61.1965C141.634 60.5527 142.608 60.328 143.617 60.3494C143.862 60.3549 144.11 60.5645 143.977 60.819C143.829 61.0999 143.471 61.1864 143.181 61.1806C142.59 61.168 142.088 61.328 141.629 61.6984C141.185 62.0562 140.192 61.716 140.836 61.1965ZM136.891 63.3283C136.874 63.3455 136.838 63.3669 136.777 63.3892C136.782 63.3812 136.787 63.3745 136.792 63.3678C136.825 63.3556 136.859 63.343 136.891 63.3283ZM175.471 116.036C183.952 116.036 192.432 116.036 200.913 116.036C201.736 116.036 200.998 116.838 200.469 116.838C192.137 116.838 183.804 116.838 175.471 116.838C175.471 116.86 175.471 116.882 175.471 116.904C175.471 117.31 174.255 117.512 174.255 117.23C174.255 117.099 174.255 116.969 174.255 116.838C174.174 116.838 174.093 116.838 174.012 116.838C173.289 116.838 173.769 116.22 174.255 116.069C174.255 110.226 174.255 104.383 174.255 98.5407C174.255 98.1342 175.471 97.933 175.471 98.2148C175.471 104.156 175.471 110.096 175.471 116.036ZM190.684 104.394C191.882 105.658 192.965 107.035 194.03 108.416C195.254 106.732 196.496 105.054 197.848 103.473C197.857 103.463 197.869 103.454 197.88 103.444C197.297 103.278 196.474 103.432 195.994 103.438C195.762 103.44 195.737 103.315 195.93 103.201C196.182 103.054 196.5 102.974 196.791 102.971C197.492 102.961 199.024 102.655 199.53 103.327C200.096 104.079 199.614 105.158 199.935 105.996C200.014 106.201 198.82 106.588 198.718 106.321C198.45 105.622 198.762 104.763 198.526 104.063C197.121 105.756 195.822 107.542 194.532 109.321C194.353 109.567 193.641 109.858 193.4 109.544C192.342 108.167 191.272 106.783 190.11 105.489C188.578 107.776 187.272 110.246 185.527 112.371C185.333 112.607 184.648 112.916 184.395 112.594C183.431 111.369 183.055 109.822 182.186 108.56C180.652 110.197 179.07 111.787 177.635 113.514C177.379 113.823 176.15 113.902 176.5 113.48C178.182 111.455 180.062 109.613 181.839 107.673C182.036 107.458 182.665 107.283 182.893 107.539C183.914 108.681 184.303 110.168 185.077 111.454C186.695 109.272 187.973 106.823 189.551 104.617C189.747 104.345 190.412 104.107 190.684 104.394ZM205.936 201.158C205.547 200.903 204.444 201.451 204.983 201.804C208.252 203.951 216.991 203.187 216.442 208.718C210.21 209.443 203.93 209.288 197.666 209.277C197.618 208.463 197.419 207.637 196.748 207.111C196.236 206.709 195.526 206.765 195.011 207.147C194.628 207.431 194.36 207.874 194.16 208.355C194.16 206.346 194.16 204.338 194.16 202.33C194.16 202.324 194.16 202.318 194.16 202.312C195.488 202.211 196.802 202.2 198.104 202.163C200.293 202.101 202.449 201.95 204.581 201.137C204.888 201.351 205.808 201.055 205.709 200.688C203.212 191.433 199.8 182.446 197.222 173.231C198.971 173.485 201.09 173.107 202.681 172.996C205.995 172.765 209.358 172.563 212.305 170.895C216.705 168.404 217.618 162.829 215.566 158.506C214.934 157.172 214.333 156.149 212.835 156.094C210.789 156.019 208.719 156.2 206.678 156.315C204.057 156.463 201.437 156.638 198.816 156.783C197.629 156.849 195.381 157.374 194.25 156.893C194.224 156.882 194.193 156.876 194.16 156.872C194.16 155.096 194.16 153.319 194.16 151.542C194.963 151.542 195.766 151.542 196.569 151.542C196.534 151.58 196.513 151.622 196.513 151.667C196.513 152.208 196.513 152.749 196.513 153.289C196.513 153.888 196.513 154.487 196.513 155.086C196.513 155.626 196.513 156.167 196.513 156.707C196.513 156.904 197.729 156.729 197.729 156.381C197.729 155.841 197.729 155.3 197.729 154.759C197.729 154.161 197.729 153.562 197.729 152.963C197.729 152.489 197.729 152.016 197.729 151.542C199.355 151.542 200.98 151.542 202.606 151.542C202.639 151.542 202.686 151.533 202.743 151.519C203 151.599 203.889 151.429 203.889 151.131C203.889 149.241 203.889 147.351 203.889 145.461C203.889 145.308 203.148 145.382 202.823 145.587C200.966 145.587 199.109 145.587 197.252 145.587C197.506 145.517 197.729 145.401 197.729 145.251C197.729 143.554 197.729 141.857 197.729 140.16C197.729 139.985 197.729 139.809 197.729 139.634C197.729 138.284 197.729 136.934 197.729 135.583C198.538 135.564 199.346 135.535 200.153 135.485C203.381 135.288 208.388 135.078 210.267 131.933C211.903 129.195 212.129 126.121 212.25 123C212.353 120.323 212.53 117.652 212.396 114.972C212.177 110.587 210.863 105.911 206.549 104.149C206.549 100.841 206.549 97.5328 206.549 94.2251C206.549 94.1272 206.44 94.0785 206.289 94.0684C206.354 93.9399 206.29 93.8337 205.968 93.8337C201.326 93.8337 196.685 93.8337 192.043 93.8337C192.07 93.7434 192.064 93.6447 192.009 93.5422C188.755 87.5274 186.073 80.9838 180.582 76.6073C175.463 72.5277 168.377 72.9082 162.168 72.9414C162.33 70.9125 159.573 70.0491 157.995 69.5107C157.837 69.4569 157.646 69.488 157.474 69.5636C157.375 69.4586 157.275 69.3532 157.18 69.2448C160.708 64.1384 159.807 57.6251 155.894 53.4766C155.953 53.4514 156.005 53.4212 156.047 53.3842C163.626 46.592 144.327 38.7134 145.447 49.6759C139.934 50.3924 134.644 54.5803 134.364 60.2121C134.341 60.2549 134.34 60.2906 134.356 60.3192C134.355 60.3532 134.35 60.386 134.35 60.42C134.347 60.5115 134.374 60.5838 134.417 60.6417C134.378 60.6993 134.354 60.7639 134.348 60.8349C134.051 64.7986 135.307 69.5665 137.924 72.8499C137.94 72.8704 137.958 72.8889 137.975 72.9095C138.548 73.6188 139.181 74.2614 139.881 74.8057C141.555 76.1088 143.288 75.6926 145.235 75.5398C146.705 75.4243 147.678 75.9131 148.391 76.7115C147.876 76.9752 147.477 77.6186 147.316 78.2536C147.135 78.9642 146.986 79.8579 146.942 80.7482C144.541 83.583 140.914 85.1415 138.7 88.1326C135.877 91.9455 135.429 97.3841 134.193 101.948C133.895 101.466 133.606 100.979 133.339 100.478C133.23 100.273 132.965 100.236 132.715 100.301C132.787 100.063 132.658 99.8384 132.221 99.8972C132.148 99.9069 132.071 99.9195 131.997 99.9304C131.144 97.1078 132.469 94.396 132.981 91.5444C133.131 90.7045 133.398 87.3917 131.816 87.6664C130.485 87.8974 130.19 89.3383 129.679 90.4063C129.499 90.7834 129.274 91.1257 129.027 91.4491C127.666 90.1951 127.067 88.3993 126.07 86.8672C125.256 85.6153 123.801 84.4524 122.296 85.1844C121.725 85.4616 121.463 85.9114 121.406 86.4577C120.905 86.0268 120.324 85.7799 119.626 85.989C118.392 86.3586 118.235 87.3674 118.543 88.5479C117.925 88.4488 117.292 88.6399 116.813 89.1657C116.129 89.9158 116.581 91.1467 116.931 91.9929C116.837 91.9745 116.742 91.9619 116.645 91.9581C115.705 91.9203 114.995 92.3487 115.005 93.2936C115.024 95.1121 116.906 96.9532 118.054 98.1699C119.879 100.103 122.004 101.769 124.159 103.32C123.906 103.595 123.682 103.891 123.488 104.207C123.377 104.29 123.266 104.405 123.291 104.555C123.25 104.681 123.286 104.774 123.367 104.837C123.605 105.558 124.147 106.306 124.479 106.941C125.356 108.615 126.242 110.283 127.121 111.955C128.03 113.685 128.935 115.419 129.809 117.168C130.121 117.792 131.268 119.407 131.134 120.143C131.107 120.294 131.192 120.383 131.326 120.426C131.341 120.45 131.389 120.465 131.49 120.465C131.551 120.465 131.612 120.465 131.674 120.465C132.125 121.563 132.857 122.631 133.404 123.649C134.747 126.148 136.094 128.645 137.419 131.154C138.779 133.729 140.121 136.316 141.377 138.944C141.832 139.898 142.271 140.86 142.662 141.842C142.803 142.197 142.929 142.557 143.033 142.923C143.08 143.087 143.068 143.242 143.085 143.322C142.855 143.384 142.702 143.55 142.66 143.721C142.55 143.79 142.477 143.873 142.477 143.969C142.477 144.509 142.477 145.049 142.477 145.588C134.2 145.588 125.923 145.588 117.645 145.588C117.65 145.57 117.655 145.552 117.655 145.533C117.655 144.903 117.655 144.273 117.655 143.643C117.655 143.579 117.581 143.543 117.469 143.53C117.465 143.522 117.458 143.514 117.446 143.509C117.388 143.401 117.26 143.32 117.05 143.301C117.03 143.271 117.004 143.241 116.966 143.212C116.616 142.94 118.512 139.252 118.719 138.815C119.964 136.182 121.319 133.6 122.677 131.025C123.999 128.514 125.347 126.018 126.691 123.519C127.25 122.479 127.984 121.395 128.446 120.275C128.753 120.136 128.986 119.971 128.641 119.971C128.614 119.971 128.588 119.971 128.561 119.971C128.589 119.891 128.622 119.812 128.647 119.732C128.801 119.255 127.568 119.416 127.425 119.864C127.413 119.9 127.398 119.935 127.386 119.971C120.678 119.971 113.969 119.971 107.261 119.971C108.849 117.023 109.482 113.587 109.965 110.308C109.983 110.193 109.955 110.105 109.9 110.038C109.97 109.92 109.91 109.822 109.591 109.819C109.317 109.817 109.044 109.809 108.77 109.803C111.44 106.71 114.762 102.847 115.216 98.7133C115.351 97.482 114.7 96.8478 113.532 97.2703C113.331 97.3429 113.144 97.4391 112.971 97.5513C113.167 96.5622 113.326 95.262 112.57 94.5493C111.989 94.0004 111.246 94.1461 110.628 94.496C110.71 93.2075 110.403 92.1899 109.207 92.1345C108.38 92.0963 107.845 92.5154 107.442 93.1012C107.307 92.5351 106.998 92.1244 106.422 91.9913C102.83 91.1601 102.501 97.2472 101.269 99.62C101.002 99.4184 100.744 99.2059 100.504 98.9703C99.713 98.1926 98.8416 95.9902 97.404 96.7772C95.9148 97.5924 97.1247 100.408 97.63 101.514C98.8348 104.15 100.727 106.343 100.229 109.389C99.9658 109.146 99.1704 109.325 99.07 109.761C98.4901 112.288 97.3439 114.749 96.2155 117.068C95.604 118.324 93.518 122.946 91.4803 123.441C89.4615 123.669 87.7098 119.575 86.9833 118.218C85.61 115.653 84.2816 113.066 82.894 110.51C81.984 108.834 80.824 107.477 79.3839 106.411C79.5162 106.355 79.6304 106.273 79.6947 106.163C80.8421 104.189 80.6006 102.458 79.9379 100.352C79.1051 97.7066 76.752 95.7693 76.6831 92.8808C76.6789 92.7056 76.5898 92.5885 76.4622 92.5204C76.7469 91.1606 76.6314 89.7289 76.1178 88.3682C76.6318 88.0906 76.9951 87.5874 77.0203 86.9037C77.0556 85.9349 76.602 84.6409 75.7902 83.9291C76.0263 83.8682 76.232 83.7678 76.2535 83.6225C76.6003 81.2564 76.4576 78.2637 75.0985 76.2155C74.0037 74.5658 72.0202 75.1525 70.6162 76.0433C70.5687 76.0534 70.5225 76.063 70.4801 76.0727C67.9973 72.8276 62.8665 74.3596 59.7999 75.7707C57.8226 76.6808 56.2032 78.0797 55.1239 79.9709C53.4566 82.8922 54.1135 86.561 52.8073 89.6428C51.699 92.2571 49.3439 94.2322 47.5502 96.3653C45.84 98.3983 44.5449 100.667 43.9611 103.269C43.946 103.336 43.9346 103.403 43.9216 103.47C43.8809 103.465 43.8343 103.461 43.7805 103.462C40.5682 103.499 37.166 103.959 34.8196 106.364C32.3678 108.878 32.2729 112.963 32.2704 116.236C32.2658 122.684 30.4044 133.806 38.706 135.829C38.8652 135.868 39.105 135.804 39.3074 135.699C38.9538 138.805 38.6522 141.332 41.5853 143.299C42.3417 143.806 43.1787 144.201 44.061 144.514C43.8964 144.604 43.7784 144.729 43.783 144.877C43.9766 150.914 41.2237 158.251 47.5468 162.086C47.7106 162.185 48.0587 162.12 48.3183 161.993C47.4124 164.584 47.7702 167.46 50.0977 169.706C52.9035 172.414 57.2805 172.668 60.9275 172.92C62.6326 173.038 64.3389 173.121 66.0469 173.154C66.0011 173.198 65.9722 173.245 65.9722 173.297C65.9722 181.85 65.9722 190.403 65.9722 198.956C62.3142 198.909 58.6861 198.838 55.4212 200.775C55.3519 200.816 55.3036 200.856 55.2654 200.895C55.0622 200.87 54.8564 200.852 54.6464 200.852C51.9254 200.852 49.7117 203.066 49.7117 205.787C49.7117 208.508 51.9254 210.722 54.6464 210.722C57.1906 210.722 59.29 208.786 59.5525 206.311C59.6285 206.3 59.7049 206.279 59.7789 206.246C62.882 204.865 66.2493 205.091 69.5629 205.109C69.6612 205.109 69.7775 205.077 69.8917 205.027C69.8917 206.699 69.8917 208.372 69.8917 210.045C69.8917 210.077 69.9262 210.098 69.9791 210.111C69.8069 210.214 69.7456 210.304 70.0001 210.304C71.6917 210.304 73.3834 210.304 75.0746 210.304C75.3283 210.304 76.4609 209.809 75.8646 209.809C75.8087 209.809 75.7524 209.809 75.6966 209.809C75.715 209.78 75.7281 209.75 75.7281 209.719C75.7281 197.374 75.7281 185.029 75.7281 172.684C77.1429 172.702 78.557 172.74 79.9719 172.743C80.0156 172.743 80.0899 172.727 80.1768 172.701C79.8589 174.789 79.9383 177.001 80.0118 179.047C80.1235 182.158 80.2826 185.217 79.8698 188.317C79.6682 189.831 79.462 192.019 78.6884 193.454C78.5851 193.499 78.4961 193.556 78.4348 193.622C78.4029 193.636 78.3743 193.651 78.355 193.667C73.3477 197.671 77.481 202.636 76.8246 207.807C76.8129 207.9 76.8448 207.927 76.9321 207.962C78.5347 208.608 80.6018 208.578 82.27 208.024C83.298 209.222 84.7957 209.858 86.8573 209.924C88.8228 209.986 90.8033 209.976 92.7696 209.998C94.2828 210.016 95.7607 209.934 97.142 209.273C97.3406 209.179 97.5086 209.076 97.6535 208.968C100.171 209.139 102.741 209.581 105.265 209.412C105.994 209.363 108.347 208.897 108.479 207.89C108.854 205.046 106.711 203.479 104.816 201.7C102.36 199.394 99.9104 197.001 99.3157 193.546C99.3023 193.469 99.2011 193.435 99.0637 193.43C99.0524 193.097 99.0893 192.751 99.1868 192.388C99.1939 192.363 99.2019 192.336 99.2095 192.31C99.2317 192.234 99.2552 192.156 99.2834 192.078C99.2972 192.04 99.3052 192.004 99.3086 191.971C101.145 185.738 103.186 179.73 105.76 173.734C107.442 169.815 109.608 165.637 110.075 161.345C110.558 156.897 108.464 153.788 104.849 151.543C120.177 151.543 135.504 151.543 150.832 151.543C150.772 151.592 150.727 151.646 150.708 151.707C148.073 160.139 146.455 168.897 144.968 177.593C143.67 185.187 142.531 192.827 141.729 200.491C141.712 200.655 141.843 200.735 142.024 200.755C142.217 201.013 142.529 201.187 142.88 201.31C139.233 203.587 130.109 202.673 131.208 209.205C131.236 209.373 131.46 209.418 131.593 209.436C138.141 210.262 144.747 210.074 151.332 210.066C151.599 210.066 151.927 209.856 152.071 209.653C152.235 209.58 152.36 209.481 152.37 209.373C152.451 208.544 152.621 206.804 153.35 208.277C153.591 208.764 153.751 209.309 153.886 209.835C153.922 209.972 154.142 209.974 154.247 209.974C155.716 209.974 157.186 209.974 158.656 209.974C158.875 209.974 159.454 209.863 159.509 209.583C160.015 207.027 160.892 203.634 160.363 200.922C160.694 200.709 160.536 200.462 160.235 200.381C160.217 200.316 160.2 200.251 160.18 200.187C160.981 192.572 162.124 184.986 163.403 177.438C164.876 168.742 166.509 159.982 169.143 151.551C169.144 151.549 169.143 151.546 169.144 151.543C171.063 151.543 172.983 151.543 174.902 151.543C174.886 151.583 174.878 151.625 174.884 151.669C175.077 152.952 175.296 154.233 175.531 155.51C174.061 155.967 171.567 155.089 170.387 156.243C168.182 158.397 166.645 161.215 166.096 164.253C164.779 171.534 173.745 172.803 178.947 173.059C179.176 173.07 179.51 172.904 179.673 172.735C180.117 174.314 180.57 175.89 181.027 177.462C182.083 181.099 183.18 184.729 184.333 188.341C184.333 189.802 184.333 191.262 184.322 192.722C184.32 192.933 184.396 193.447 184.352 193.773C184.309 193.805 184.274 193.837 184.256 193.866C184.137 194.052 184.217 194.53 184.213 194.728C184.19 196.137 184.193 197.546 184.194 198.956C180.537 198.909 176.908 198.837 173.644 200.774C173.574 200.815 173.526 200.856 173.488 200.895C173.285 200.869 173.079 200.852 172.869 200.852C170.148 200.852 167.934 203.065 167.934 205.786C167.934 208.507 170.148 210.721 172.869 210.721C175.413 210.721 177.513 208.786 177.775 206.31C177.851 206.299 177.927 206.279 178.001 206.246C181.105 204.865 184.472 205.091 187.785 205.109C187.946 205.109 188.157 205.023 188.324 204.912C188.324 206.646 188.324 208.381 188.324 210.115C188.324 210.152 188.369 210.176 188.441 210.188C188.369 210.255 188.385 210.304 188.572 210.304C190.124 210.304 191.676 210.304 193.227 210.304C193.386 210.304 193.891 210.109 194.098 209.963C194.434 209.951 194.881 209.798 194.935 209.582C195.089 208.971 195.297 208.365 195.579 207.803C195.611 207.739 195.648 207.68 195.685 207.62C195.747 207.672 195.805 207.728 195.861 207.785C196.322 208.254 196.416 209.002 196.452 209.624C196.457 209.716 196.562 209.761 196.707 209.771C196.637 209.929 196.706 210.065 197.046 210.065C203.681 210.073 210.341 210.266 216.94 209.433C217.186 209.402 217.572 209.27 217.621 208.98C218.707 202.527 209.476 203.483 205.936 201.158ZM194.16 201.567C194.16 189.76 194.16 177.953 194.16 166.146C196.666 177.82 201.18 188.938 204.336 200.454C201.066 201.782 197.595 201.296 194.16 201.567ZM195.973 157.54C197.97 157.468 199.965 157.335 201.958 157.214C205.481 156.998 209.312 156.366 212.837 156.77C214.155 156.921 215.091 160.669 215.295 161.761C215.724 164.067 215.225 166.47 213.919 168.409C211.774 171.591 207.823 171.928 204.342 172.255C202.704 172.408 201.06 172.497 199.416 172.526C198.751 172.537 197.832 172.658 197.19 172.433C197.141 172.416 197.076 172.413 197.002 172.419C195.918 168.46 194.991 164.458 194.371 160.371C194.356 160.274 194.274 160.218 194.161 160.192C194.161 159.336 194.161 158.481 194.161 157.626C194.778 157.654 195.451 157.559 195.973 157.54ZM196.513 139.961C196.513 140.136 196.513 140.311 196.513 140.487C196.513 142.184 196.513 143.881 196.513 145.579C196.513 145.582 196.517 145.585 196.517 145.588C195.453 145.588 194.389 145.588 193.325 145.588C193.614 142.092 192.882 138.756 191.816 135.494C192.459 135.575 193.148 135.546 193.756 135.567C194.675 135.599 195.594 135.609 196.513 135.604C196.513 137.056 196.513 138.508 196.513 139.961ZM143.694 145.532C143.694 145.081 143.694 144.629 143.694 144.176C158.08 144.176 172.467 144.176 186.854 144.176C186.854 144.647 186.854 145.117 186.854 145.587C172.463 145.587 158.073 145.587 143.683 145.587C143.689 145.57 143.694 145.551 143.694 145.532ZM147.202 113.435C147.864 115.599 148.493 117.771 148.993 119.97C147.024 119.97 145.055 119.97 143.085 119.97C145.012 118.232 146.297 115.855 147.202 113.435ZM150.53 81.5C150.578 81.513 150.632 81.5138 150.686 81.5155C150.731 81.5453 150.78 81.5697 150.835 81.5848C150.832 82.0086 151.84 81.9229 152.027 81.5252C152.135 81.2934 152.253 81.0645 152.366 80.8339C152.576 80.8075 152.783 80.7529 152.87 80.6873C153.177 80.4564 153.437 80.3287 153.688 80.285C153.678 80.3152 153.671 80.3467 153.672 80.3799C153.683 81.55 154.074 83.5297 153.3 84.554C153.186 84.6208 153.097 84.7048 153.062 84.8026C152.853 84.979 152.591 85.1117 152.251 85.1726C149.897 85.5943 150.053 83.0623 150.066 81.4429C150.215 81.4424 150.368 81.4563 150.53 81.5ZM155.688 119.97C150.136 109.785 150.855 97.2505 150.901 85.9769C151.305 86.0273 151.726 86.0113 152.118 85.9668C152.443 85.9298 152.76 85.8513 153.06 85.7383C153.213 97.282 155.482 109.772 161.019 119.97C159.243 119.97 157.466 119.97 155.688 119.97ZM188.43 93.8412C188.306 94.2788 188.307 94.6623 188.344 95.1137C188.371 95.4342 188.428 95.7538 188.465 96.0734C188.491 96.2909 188.582 97.8175 187.652 97.2119C186.818 96.6689 186.775 94.0731 186.817 93.2016C186.861 92.26 187.441 91.7288 188.352 91.6721C189.58 91.5956 190.265 92.8425 190.663 93.8349C190.34 93.8349 190.017 93.8349 189.694 93.8349C189.666 93.8349 189.637 93.8375 189.607 93.8425C189.617 93.7866 189.629 93.7312 189.644 93.6766C189.759 93.2709 188.541 93.4507 188.43 93.8412ZM186.137 92.0954C185.86 92.423 185.669 92.8383 185.603 93.3654C185.475 94.3918 185.747 95.5803 185.943 96.5874C185.988 96.8142 186.072 97.0275 186.183 97.2203C186.131 97.2296 186.082 97.2363 186.022 97.256C184.527 97.7491 184.543 95.0407 184.475 94.1747C184.434 93.6674 184.437 93.1655 184.546 92.667C184.731 91.8166 185.462 91.9249 186.135 92.09C186.136 92.0904 186.138 92.0908 186.14 92.0912C186.139 92.0929 186.138 92.0942 186.137 92.0954ZM183.702 97.0779C183.723 97.1342 183.748 97.1855 183.774 97.2359C183.67 97.1901 183.512 97.1825 183.292 97.256C181.816 97.7491 181.828 95.1066 181.743 94.2175C181.698 93.7467 181.673 93.278 181.733 92.8073C181.858 91.8258 182.604 92.0585 183.353 92.3092C183.416 92.3306 183.505 92.3302 183.605 92.3151C183.377 92.6632 183.24 93.1117 183.233 93.6787C183.221 94.7954 183.3 96.0331 183.702 97.0779ZM180.821 92.2777C180.603 92.6011 180.475 93.0303 180.477 93.5893C180.483 94.7026 180.568 95.9314 180.934 96.9847C180.966 97.0788 181.006 97.1628 181.048 97.2422C181.025 97.2485 181.007 97.2489 180.982 97.2569C179.091 97.8843 178.198 92.6082 180.492 92.2411C180.606 92.2231 180.73 92.2214 180.859 92.2285C180.846 92.2449 180.833 92.2605 180.821 92.2777ZM188.732 130.69C190.568 135.496 192.466 140.366 192.128 145.587C190.771 145.587 189.416 145.587 188.06 145.587C188.066 145.569 188.071 145.551 188.071 145.532C188.071 144.902 188.071 144.272 188.071 143.642C188.071 143.581 187.997 143.546 187.887 143.534C187.885 143.524 187.875 143.515 187.861 143.508C187.795 143.385 187.641 143.294 187.377 143.294C182.962 143.294 178.547 143.294 174.133 143.294C174.351 142.46 173.561 141.099 173.311 140.5C172.163 137.753 170.792 135.093 169.444 132.44C169.439 132.431 169.434 132.421 169.429 132.411C173.955 132.751 178.64 132.702 183.137 132.382C184.936 132.255 187.124 131.781 188.732 130.69ZM211.184 115.549C211.288 117.62 211.159 119.696 211.063 121.765C210.923 124.788 210.936 127.796 209.725 130.631C208.147 134.324 203.251 134.365 199.802 134.576C199.112 134.618 198.421 134.642 197.73 134.656C197.73 134.619 197.73 134.581 197.73 134.543C197.73 134.389 196.986 134.464 196.662 134.67C195.943 134.673 195.224 134.667 194.506 134.65C193.736 134.632 192.416 134.689 191.798 134.488C191.697 134.456 191.585 134.456 191.474 134.479C190.932 132.917 190.331 131.37 189.744 129.828C189.823 129.743 189.902 129.657 189.974 129.566C192.033 126.994 189.659 123.693 188.517 121.163C194.122 121.163 199.727 121.163 205.332 121.163C205.332 121.182 205.332 121.201 205.332 121.22C205.332 121.548 206.549 121.332 206.549 120.894C206.549 115.709 206.549 110.524 206.549 105.339C210.109 107.279 210.989 111.64 211.184 115.549ZM205.338 94.5229C205.336 94.5325 205.333 94.5417 205.333 94.5518C205.333 97.7121 205.333 100.873 205.333 104.034C204.986 104.24 204.79 104.622 205.266 104.777C205.289 104.785 205.31 104.795 205.333 104.803C205.333 110.046 205.333 115.288 205.333 120.53C193.927 120.53 182.523 120.53 171.118 120.53C171.1 120.53 171.081 120.533 171.062 120.535C171.062 111.907 171.062 103.278 171.062 94.6501C173.362 94.6501 175.663 94.6501 177.963 94.6501C177.889 96.6727 178.902 98.5609 181.134 97.8205C181.25 97.7818 181.336 97.7323 181.408 97.6802C181.94 98.1039 182.732 98.0577 183.443 97.8205C183.734 97.7234 183.875 97.5706 183.896 97.4395C184.404 98.1396 185.366 98.0867 186.173 97.8205C186.325 97.7705 186.43 97.7037 186.506 97.634C186.787 97.8965 187.154 98.0582 187.583 98.0527C188.378 98.0422 189.081 97.8184 189.504 97.1082C189.954 96.3531 189.635 95.4044 189.577 94.5224C194.831 94.5228 200.084 94.5229 205.338 94.5229ZM187.911 88.2699C188.392 89.1989 188.861 90.1312 189.328 91.0551C189.078 91.0169 188.812 91.0077 188.524 91.04C187.95 91.1051 187.403 91.2404 186.938 91.4764C185.954 91.2462 184.947 91.2819 184.232 91.7141C183.382 91.4449 182.453 91.3558 181.73 91.6049C179.988 91.3949 178.547 92.1395 178.102 93.7073C177.479 93.7073 176.856 93.7073 176.233 93.7073C174.869 92.4453 174.379 90.5579 173.227 89.1275C173.008 88.8553 171.844 89.2673 172.088 89.5706C173.113 90.8435 173.608 92.4709 174.667 93.7073C173.418 93.7073 172.169 93.7073 170.92 93.7073C170.581 93.7073 170.36 93.9193 170.306 94.1424C170.058 94.2242 169.845 94.3679 169.845 94.5518C169.845 103.441 169.845 112.33 169.845 121.22C169.845 121.471 170.552 121.404 170.887 121.164C176.379 121.164 181.871 121.164 187.363 121.164C187.274 121.244 187.232 121.337 187.273 121.43C188.278 123.686 190.545 126.88 189.041 129.208C188.68 129.275 188.267 129.471 188.323 129.619C188.36 129.716 188.397 129.813 188.434 129.91C188.414 129.928 188.392 129.946 188.372 129.964C188.324 130.006 188.277 130.049 188.228 130.09C187.436 130.744 186.488 131.142 185.478 131.388C183.858 131.781 182.083 131.786 180.541 131.826C176.743 131.925 172.832 131.972 169.037 131.647C168.617 130.826 168.194 130.006 167.769 129.187C166.911 127.533 166.048 125.882 165.182 124.232C164.49 122.915 163.549 121.531 163.038 120.11C163.132 120.039 163.142 119.983 162.988 119.973C162.974 119.929 162.956 119.887 162.942 119.844C162.868 119.611 162.539 119.575 162.24 119.652C156.623 109.311 154.365 96.6097 154.269 84.9303C154.449 84.7254 154.599 84.4898 154.711 84.2218C155.167 83.1366 154.964 81.8158 154.91 80.6411C154.913 80.6428 154.915 80.6441 154.918 80.6458C155.658 81.1006 156.346 81.6411 157.074 82.1152C157.095 82.1291 157.12 82.1392 157.147 82.1472C157.234 82.5936 158.185 82.5302 158.332 82.0728C158.813 80.5718 159.402 79.1225 160.04 77.6854C160.131 77.4817 160.219 77.2772 160.312 77.0735C160.783 76.0387 161.548 74.9367 161.949 73.8355C162.063 73.8351 162.176 73.8347 162.29 73.8343C168.537 73.8044 175.011 73.6201 180.148 77.714C180.908 78.32 181.606 78.9865 182.264 79.6912C184.581 82.1753 186.32 85.197 187.911 88.2699ZM159.76 71.3602C161.57 72.3173 160.783 73.6066 160.106 74.8926C159.083 76.8375 158.211 78.902 157.49 80.988C157.474 81.0338 157.459 81.08 157.443 81.1262C157.106 80.8746 156.761 80.6176 156.405 80.3837C155.898 80.0498 155.37 79.7668 154.804 79.6479C154.09 79.4976 153.392 79.7046 152.761 80.0418C154.343 76.9916 156.326 74.0871 158.566 71.5127C158.608 71.4656 158.634 71.4228 158.653 71.3816C158.82 71.2682 158.928 71.1108 158.901 70.9528C159.19 71.0788 159.476 71.2107 159.76 71.3602ZM145.15 71.4224C145.192 71.4035 145.237 71.3858 145.273 71.364C145.703 71.1061 146.134 70.8483 146.579 70.6185C146.756 71.0524 146.771 71.5211 146.441 71.9163C146.158 72.2539 145.697 71.8171 145.473 71.5534C145.41 71.4786 145.283 71.4534 145.136 71.461C145.14 71.448 145.145 71.4354 145.15 71.4224ZM135.696 63.9944C136.039 63.9918 136.687 63.8629 136.703 63.6202C136.708 63.5504 136.724 63.4971 136.753 63.4337C136.761 63.4169 136.769 63.4026 136.777 63.3892C136.684 63.4232 136.534 63.4581 136.297 63.4778C136.451 63.4648 136.628 63.4274 136.792 63.3673C136.862 63.272 136.935 63.2838 136.891 63.3279C136.973 63.2909 137.05 63.2493 137.114 63.1973C137.329 63.023 136.921 63.0309 136.837 63.0381C136.448 63.0708 135.912 63.2103 135.647 63.5395C135.544 62.6072 135.513 61.6707 135.583 60.7463C135.59 60.648 135.565 60.5712 135.52 60.5094C135.557 60.4532 135.58 60.3902 135.581 60.3217C135.584 60.2453 135.592 60.1714 135.596 60.0953C137.149 58.3353 140.283 57.1593 142.581 57.4441C143.224 57.5235 143.834 58.5473 144.28 58.9526C144.694 59.3281 145.551 59.591 146.101 59.5964C146.954 59.6052 147.837 59.1781 148.551 59.8228C149.08 60.2995 149.306 61.1159 149.499 61.7752C149.54 61.9159 149.571 62.162 149.614 62.4291C149.571 62.4934 149.554 62.5623 149.581 62.6337C150.428 64.9389 149.954 67.3999 147.531 68.5095C146.258 69.0924 144.615 69.1675 143.258 69.475C141.66 69.837 139.704 70.3682 138.581 71.6525C138.046 70.8306 137.599 69.9504 137.222 69.1398C136.476 67.5326 135.942 65.7771 135.696 63.9944ZM147.444 74.7817C149.009 74.2131 150.453 73.3122 151.541 72.0712C153.722 69.5829 152.002 65.6196 151.533 62.8327C151.529 62.8075 151.52 62.7861 151.51 62.7647C152.574 60.6657 156.165 63.5966 155.383 65.5394C155.374 65.5642 155.36 65.5886 155.349 65.6129C155.192 65.9506 154.899 66.2555 154.428 66.494C154.185 66.6167 153.981 66.8905 154.149 67.1559C155.116 68.6804 156.148 70.0911 157.544 71.2292C155.19 73.9384 153.106 76.9983 151.468 80.2128C150.926 78.585 150.348 76.5422 149.041 75.5318C148.549 75.1513 148.009 74.9178 147.444 74.7817ZM148.293 79.8818C148.331 79.2905 148.409 78.7017 148.539 78.1234C148.582 77.9277 148.643 77.7362 148.721 77.551C148.803 77.6106 148.918 77.6367 149.045 77.635C149.6 78.611 149.972 79.7978 150.379 80.9229C150.191 80.9334 150.003 80.9565 149.815 80.9927C149.509 80.8961 149.019 81.0359 148.881 81.2908C148.642 81.4021 148.418 81.5382 148.215 81.6965C148.191 81.0825 148.255 80.4459 148.293 79.8818ZM141.054 86.826C141.146 86.7366 141.24 86.6463 141.336 86.556C141.367 86.5275 141.397 86.4976 141.429 86.4691C143.158 84.8971 145.259 83.6507 146.965 82.0405C147.001 82.421 147.064 82.7838 147.166 83.108C147.2 83.2143 147.289 83.2786 147.401 83.3109C147.412 83.3143 147.422 83.3185 147.433 83.321C147.653 83.3705 147.951 83.3071 148.158 83.1815C148.329 83.1198 148.462 83.0358 148.48 82.9422C148.519 82.7452 148.585 82.5659 148.664 82.3979C148.713 82.2937 148.769 82.1967 148.832 82.1064C148.831 82.1623 148.83 82.2177 148.829 82.274C148.816 83.1773 148.837 84.1135 149.228 84.9143C149.347 85.1575 149.508 85.3435 149.691 85.4956C149.69 85.5044 149.687 85.5132 149.687 85.5225C149.676 96.8764 148.813 109.607 154.301 119.969C152.959 119.969 151.618 119.969 150.276 119.969C150.277 119.951 150.278 119.933 150.274 119.913C148.464 111.758 144.795 103.992 144.395 95.5551C144.376 95.165 143.155 95.4128 143.178 95.881C143.45 101.636 145.244 107.078 146.932 112.544C146.637 112.59 146.322 112.716 146.262 112.889C145.92 113.883 145.518 114.89 145.037 115.857C144.618 116.699 144.131 117.505 143.573 118.253C143.131 118.845 142.64 119.392 142.093 119.886C142.062 119.914 142.031 119.942 142 119.969C140.67 119.969 139.34 119.969 138.009 119.969C136.282 119.969 134.555 119.969 132.829 119.969C132.787 119.858 132.742 119.746 132.706 119.634C132.655 119.477 132.489 119.41 132.294 119.406C132.111 118.8 131.649 118.11 131.448 117.693C130.581 115.897 129.651 114.131 128.726 112.364C127.771 110.538 126.804 108.718 125.845 106.894C125.519 106.274 125.195 105.654 124.878 105.03C124.677 104.636 124.673 104.448 124.594 104.437C124.832 104.041 125.13 103.68 125.482 103.358C125.922 102.955 126.441 102.608 127.001 102.308C128.255 101.637 129.722 101.208 131.037 100.956C131.053 100.993 131.064 101.031 131.081 101.069C131.19 101.307 131.908 101.121 132.19 100.92C132.198 100.952 132.21 100.985 132.228 101.019C133.639 103.671 135.571 105.988 137.071 108.588C137.349 109.07 138.507 108.608 138.184 108.048C137.179 106.306 135.982 104.689 134.876 103.015C135.014 102.942 135.123 102.844 135.16 102.726C136.542 98.1997 136.899 92.6649 139.523 88.65C139.9 88.0729 140.339 87.5505 140.817 87.0621C140.893 86.9819 140.974 86.9042 141.054 86.826ZM118.032 96.4518C117.185 95.4543 116.411 94.2843 116.222 92.9677C116.102 92.1332 117.015 93.1584 117.202 93.331C117.679 93.7711 118.066 94.3066 118.418 94.8613C118.67 95.2998 118.92 95.7395 119.149 96.1901C119.367 96.6189 120.551 96.2283 120.365 95.8642C120.299 95.7336 120.229 95.6047 120.159 95.4753C120.171 95.4535 120.177 95.4329 120.167 95.4157C119.99 95.1108 119.782 94.745 119.544 94.3675C118.885 93.2121 118.221 92.0601 117.835 90.7759C117.712 90.3647 117.663 89.946 117.753 89.5244C117.95 88.6084 119.239 90.3563 119.34 90.5554C119.843 91.5423 120.149 92.3524 120.851 93.1088C120.951 93.2785 121.037 93.4297 121.101 93.5548C121.248 93.8425 121.827 93.761 122.138 93.5662C122.438 93.4473 122.657 93.2482 122.478 93.1012C122.318 92.9694 122.173 92.8354 122.035 92.6989C121.561 91.8241 121.043 90.9728 120.588 90.0871C120.308 89.5428 120.066 88.9818 119.867 88.4035C119.825 88.2808 119.569 86.3872 119.974 86.7198C120.782 87.3829 121.483 88.2342 122.118 89.1443C122.8 90.5478 123.764 91.9236 124.112 92.6074C124.33 93.0361 125.514 92.646 125.329 92.2815C125.288 92.2021 125.243 92.1194 125.197 92.037C125.233 91.9614 125.235 91.8795 125.185 91.7951C124.647 90.8817 124.064 89.9956 123.46 89.1245C122.895 88.0561 122.499 86.9529 122.716 85.9416C122.892 85.1222 124.352 86.6085 124.543 86.8223C125.046 87.385 125.396 88.0826 125.744 88.7462C126.4 89.9972 127.017 91.2404 128.132 92.1513C128.192 92.2 128.276 92.2243 128.372 92.2319C127.316 93.4019 126.161 94.4544 126.075 96.2363C126.065 96.4354 127.274 96.2804 127.291 95.9104C127.395 93.7787 129.18 92.5431 130.406 91.0052C130.787 90.5264 131.021 89.9132 131.271 89.361C131.367 89.1447 131.467 88.9309 131.569 88.718C131.576 88.7365 131.576 88.7524 131.585 88.7722C132.449 90.8733 131.415 93.3952 130.861 95.4455C130.424 97.062 130.286 98.6029 130.743 100.151C128.732 100.562 126.507 101.319 124.907 102.616C122.419 100.795 120.032 98.807 118.032 96.4518ZM139.422 132.326C137.95 129.504 136.44 126.703 134.932 123.9C134.341 122.802 133.559 121.648 133.031 120.465C135.856 120.465 138.68 120.465 141.505 120.465C141.499 120.652 142.195 120.598 142.493 120.465C146.527 120.465 150.561 120.465 154.594 120.465C154.763 120.591 155.089 120.563 155.354 120.465C157.34 120.465 159.327 120.465 161.314 120.465C161.439 120.557 161.646 120.567 161.854 120.526C162.271 121.613 162.975 122.67 163.504 123.681C164.825 126.201 166.15 128.719 167.452 131.249C168.791 133.851 170.111 136.463 171.338 139.12C171.776 140.067 172.196 141.023 172.563 142C172.685 142.325 172.816 143.129 172.977 143.295C163.422 143.295 153.867 143.295 144.312 143.295C144.536 142.416 143.646 140.936 143.38 140.328C142.19 137.603 140.797 134.961 139.422 132.326ZM58.4081 151.52C58.4333 151.534 58.4807 151.542 58.5563 151.542C62.1534 151.542 65.7504 151.542 69.3475 151.542C69.5289 151.542 69.7103 151.542 69.8917 151.542C69.8917 151.549 69.8917 151.555 69.8917 151.561C69.8917 156.317 69.8917 161.073 69.8917 165.83C58.154 167.516 50.9876 156.51 51.9804 145.834C53.9543 145.991 55.9378 146.059 57.9226 146.093C57.9226 147.881 57.9226 149.67 57.9226 151.458C57.923 151.543 58.1502 151.558 58.4081 151.52ZM50.5727 158.397C46.8034 156.691 47.808 149.093 48.8424 145.54C49.4917 145.618 50.1355 145.68 50.7642 145.734C50.3673 149.605 51.0124 153.474 52.523 156.826C52.4852 156.841 52.45 156.857 52.4201 156.876C51.7452 157.313 51.1249 157.827 50.5727 158.397ZM76.7784 143.152C76.1808 141.745 75.3241 140.902 73.745 141.298C72.0277 141.729 70.638 143.661 68.9632 142.019C68.8775 141.935 68.7356 141.906 68.5793 141.913C68.114 139.444 68.471 136.737 69.8703 134.87C69.9228 134.884 69.9854 134.893 70.0673 134.892C74.1166 134.864 78.3436 134.344 81.7832 136.92C81.9231 137.025 82.1624 137.016 82.3817 136.944C82.2645 137.043 82.2212 137.156 82.3245 137.254C83.8999 138.747 84.6403 141.15 84.2787 143.294C84.0405 143.294 83.802 143.294 83.5635 143.294C83.6613 143.197 83.7214 143.078 83.7079 142.942C83.5009 140.865 83.3442 138.393 81.4707 137.092C81.0441 136.796 79.9668 137.389 80.5288 137.779C82.2271 138.959 82.3048 141.4 82.4913 143.268C82.4921 143.278 82.4963 143.285 82.498 143.294C82.1864 143.294 81.8748 143.294 81.5627 143.294C81.6039 143.247 81.624 143.199 81.6081 143.152C80.8013 140.777 80.9983 138.116 78.3457 136.975C78.0593 136.852 76.9472 137.302 77.3542 137.477C79.7699 138.516 79.6548 141.127 80.3343 143.294C79.9832 143.294 79.6325 143.294 79.2814 143.294C78.8938 141.855 78.7531 140.254 77.9216 138.984C77.0896 137.713 75.5055 137.571 74.1242 137.611C73.8012 137.62 72.7908 138.124 73.5971 138.101C75.2077 138.054 76.4437 138.563 77.1144 140.068C77.5642 141.078 77.7204 142.217 77.9812 143.294C77.5831 143.294 77.1849 143.294 76.7872 143.294C76.7994 143.248 76.799 143.201 76.7784 143.152ZM85.9481 143.294C85.788 143.294 85.6285 143.294 85.4684 143.294C85.9212 141.001 85.1522 138.386 83.4547 136.778C83.3106 136.641 82.9894 136.667 82.7168 136.764C82.8894 136.62 82.9524 136.434 82.7361 136.272C81.9747 135.702 81.1742 135.281 80.3477 134.962C80.1525 134.247 80.047 133.584 80.0273 132.942C80.0042 132.19 80.1046 131.466 80.3372 130.727C80.3389 130.729 80.341 130.731 80.3427 130.734C82.4434 133.071 85.6066 136.406 88.8467 136.317C88.1936 137.655 87.5612 139.002 86.9694 140.368C86.7489 140.876 85.893 142.391 85.9481 143.294ZM69.169 143.328C69.2345 143.348 69.3008 143.361 69.3672 143.376C69.413 143.383 69.4567 143.394 69.505 143.394C70.1202 143.501 70.7716 143.422 71.4734 143.173C72.1718 142.927 72.8034 142.491 73.4623 142.16C74.5223 141.628 75.0624 142.372 75.4677 143.265C75.4723 143.275 75.4765 143.284 75.4811 143.294C75.4517 143.294 75.4223 143.294 75.3934 143.294C74.5509 143.294 73.708 143.294 72.8656 143.294C72.525 143.294 72.294 143.507 72.2444 143.724C72.1352 143.792 72.0622 143.874 72.0622 143.968C72.0622 144.508 72.0622 145.048 72.0622 145.587C71.475 145.587 70.8875 145.587 70.3004 145.587C70.2958 145.443 70.0959 145.332 69.8573 145.293C69.4672 144.673 69.1488 143.974 68.909 143.23C68.9951 143.266 69.0812 143.302 69.169 143.328ZM73.2679 145.588C73.2738 145.57 73.2788 145.552 73.2788 145.532C73.2788 145.081 73.2788 144.629 73.2788 144.176C73.3452 144.176 73.4115 144.176 73.4779 144.176C87.798 144.176 102.118 144.176 116.439 144.176C116.439 144.647 116.439 145.117 116.439 145.587C102.066 145.587 87.6935 145.587 73.3212 145.587C73.3032 145.588 73.2855 145.588 73.2679 145.588ZM127.199 120.464C126.683 121.692 125.847 122.895 125.237 124.03C123.729 126.833 122.221 129.636 120.746 132.456C119.368 135.091 117.997 137.739 116.789 140.458C116.57 140.951 115.728 142.412 115.771 143.294C106.257 143.294 96.743 143.294 87.2294 143.294C87.2092 143.266 87.1836 143.238 87.1487 143.211C86.7993 142.939 88.5645 139.413 88.7585 138.989C89.2083 138.004 89.6782 137.029 90.1545 136.056C90.3523 135.932 90.4199 135.751 90.3787 135.599C91.12 134.098 91.8806 132.607 92.6449 131.119C93.9443 128.588 95.2706 126.071 96.5922 123.551C97.0756 122.629 97.6896 121.674 98.1217 120.69C98.1549 120.615 98.1881 120.54 98.2188 120.465C98.9566 120.465 99.6949 120.465 100.433 120.465C109.354 120.464 118.277 120.464 127.199 120.464ZM105.506 119.97C103.137 119.97 100.769 119.97 98.4002 119.97C98.4031 119.96 98.4073 119.951 98.4103 119.942C98.5623 119.463 97.3305 119.624 97.1877 120.073C97.1613 120.156 97.1273 120.239 97.0974 120.322C97.026 120.375 96.9996 120.421 97.0529 120.445C96.5439 121.792 95.6435 123.113 94.9875 124.362C93.5546 127.092 92.1237 129.823 90.7244 132.571C90.2389 133.524 89.758 134.48 89.2826 135.438C86.2366 135.815 82.6693 131.556 80.929 129.613C80.8983 129.578 80.8601 129.553 80.819 129.531C80.8303 129.508 80.8383 129.485 80.85 129.462C81.6467 127.854 82.1809 126.311 82.267 124.504C82.4556 120.538 78.4524 117.946 78.6691 113.964C78.6821 113.728 77.4739 113.894 77.4525 114.29C77.2471 118.054 80.6254 120.608 81.0319 124.266C81.2616 126.332 80.3477 128.239 79.462 130.026C78.7111 131.542 78.6313 132.961 78.9505 134.522C76.3076 133.873 73.4535 134.071 70.6708 134.098C70.6553 133.992 70.5498 133.907 70.3033 133.887C65.8793 133.511 61.4734 133.482 57.0394 133.437C55.163 133.419 53.2786 133.49 53.4575 131.294C53.4612 131.285 53.4671 131.276 53.4701 131.266C54.4629 127.65 55.3767 124.003 55.8958 120.284C56.1898 118.179 56.8256 114.404 54.8984 112.843C54.5725 112.579 53.4482 113.055 53.7666 113.312C55.7354 114.907 54.8996 118.879 54.6044 120.993C54.1332 124.365 53.2765 127.688 52.3794 130.97C52.3097 131.035 52.2614 131.111 52.2496 131.196C51.9779 133.206 52.9396 133.963 54.8606 134.163C59.5428 134.65 64.328 134.314 69.0451 134.632C66.6496 137.376 66.6609 142.199 68.4861 145.349C67.3232 145.366 66.1561 145.326 64.9962 145.312C61.2021 145.268 57.4006 145.274 53.6112 145.077C50.0267 144.89 46.1328 144.559 42.9103 142.85C39.4002 140.989 40.3191 137.584 40.6836 134.273C41.1998 129.587 41.818 124.922 42.9922 120.35C43.4928 118.401 44.0925 116.456 44.9098 114.624C44.9589 114.568 44.9892 114.508 44.9875 114.447C45.4671 113.395 46.024 112.383 46.6762 111.43C47.2003 110.664 47.7841 109.934 48.4472 109.256C48.7181 108.979 49.0058 108.714 49.301 108.455C51.1136 106.861 53.3499 105.582 55.651 104.516C55.5283 106.165 55.152 107.997 55.693 109.546C56.1604 110.885 57.5841 110.535 58.8255 110.49C59.4328 110.468 59.996 110.52 60.3828 110.877C60.4861 110.972 60.5776 111.086 60.6532 111.229C61.3836 112.612 60.9413 114.708 62.4364 115.647C64.5476 116.972 67.5533 118.068 70.0585 118.057C70.1336 118.056 70.2176 118.037 70.3029 118.005C70.394 118.008 70.4961 117.996 70.5998 117.974C70.5918 117.984 70.5834 117.993 70.5755 118.004C70.3025 118.369 71.496 118.208 71.6875 117.952C72.4212 116.972 74.3783 115.956 74.3947 114.543C74.4073 113.483 73.3867 112.537 73.3015 111.642C73.2574 111.178 73.4649 110.727 74.1998 110.282C74.2351 110.261 74.2649 110.238 74.2981 110.216C76.3748 108.844 74.4362 106.39 73.0621 104.668C74.2649 105.023 75.4576 105.407 76.6062 105.92C80.2919 107.565 81.8706 111.169 83.5551 114.576C84.7016 116.894 86.0354 119.246 87.4133 121.435C88.0089 122.381 88.7278 123.302 89.6358 123.812C89.5993 123.958 89.6619 124.105 89.8912 124.207C92.5399 125.384 94.7569 121.797 95.8753 119.993C97.7257 117.007 99.3598 113.5 100.209 110.054C102.584 110.11 104.953 110.316 107.327 110.41C107.398 110.454 107.574 110.454 107.768 110.428C108.086 110.438 108.403 110.445 108.721 110.45C108.243 113.681 107.625 117.029 106.039 119.918C106.037 119.921 106.036 119.925 106.034 119.928C106.026 119.943 106.023 119.956 106.016 119.97C105.846 119.97 105.676 119.97 105.506 119.97ZM74.8591 88.5983C76.1909 91.9837 74.8277 95.215 72.0172 97.4467C69.7305 99.2626 67.2715 99.4655 67.1376 102.968C67.0712 104.705 68.1102 106.289 68.7234 107.873C69.5784 110.083 70.0329 112.379 70.1437 114.712C69.3693 112.97 68.4176 111.325 67.2883 109.742C66.3602 108.441 65.3653 107.159 64.3687 105.908C63.3238 104.597 61.8955 103.696 60.9321 102.314C62.1047 100.508 62.4503 97.886 62.0396 95.8764C61.8375 94.887 61.1757 94.341 60.2723 93.9878C59.4437 93.664 58.8293 93.4494 58.6273 92.5078C58.4501 91.6801 58.752 90.8447 59.2455 90.4647C59.7692 90.5247 60.4537 90.9737 61.0131 91.4163C61.476 91.8287 61.7305 92.3109 62.0664 92.8648C62.2836 93.2226 62.9118 92.9639 63.1298 92.7644C64.6749 91.347 64.1642 89.6827 63.4985 88.0154C64.1554 87.747 64.8345 87.5329 65.4749 87.2254C65.6362 88.3035 66.3636 89.264 67.4887 89.7356C69.8124 90.7104 71.1164 88.4081 70.916 86.3414C71.294 86.3414 71.672 86.3414 72.05 86.3414C72.0605 86.3414 72.0727 86.3389 72.0832 86.3389C72.5875 87.3334 74.0788 89.9876 72.6963 90.3954C71.9521 90.6146 72.173 91.4629 72.9231 91.242C74.461 90.7885 74.6068 89.6646 74.2998 88.466C74.3388 88.4799 74.3762 88.4954 74.4161 88.508C74.5635 88.553 74.7117 88.5824 74.8591 88.5983ZM61.5864 110.373C60.7221 109.352 59.6499 109.677 58.4706 109.864C55.7728 110.29 56.7719 105.625 56.8907 103.963C57.616 103.651 58.3405 103.357 59.0531 103.08C59.1741 103.044 59.2858 103.011 59.387 102.982C59.3723 103 59.3585 103.019 59.3433 103.036C59.1581 103.247 59.6751 103.236 60.0707 103.133C60.7427 103.982 61.5591 104.664 62.3638 105.405C63.5086 106.46 64.3569 107.846 65.2931 109.079C67.2438 111.647 68.7755 114.27 69.8069 117.303C68.7368 117.209 67.3984 116.916 66.1481 116.467C64.9117 116.024 63.7644 115.431 63.0592 114.733C62.7947 114.471 62.6313 114.146 62.5204 113.786C62.1777 112.682 62.3352 111.257 61.5864 110.373ZM72.4498 85.0416C72.4225 85.2272 72.409 85.4128 72.409 85.5964C72.3696 85.6077 72.3314 85.6216 72.2948 85.6371C71.8102 85.6371 71.3251 85.6371 70.8405 85.6371C70.8228 85.6371 70.8022 85.6409 70.7838 85.6417C70.5666 84.8723 70.1105 84.2033 69.3861 83.8417C69.4063 83.8186 69.4121 83.801 69.3949 83.7918C68.1262 83.1194 66.5887 83.9736 65.9176 85.0928C65.6324 85.5678 65.4841 86.0659 65.4497 86.5556C65.2872 86.5547 65.1167 86.5988 65.0024 86.6539C64.43 86.931 63.8265 87.1322 63.2348 87.3624C62.958 86.6791 62.6968 86.0004 62.583 85.344C62.4012 84.2945 65.5912 81.9876 66.3262 81.1972C67.007 80.4656 67.6894 79.75 68.5079 79.17C69.8485 78.2196 70.8938 79.5782 71.5708 80.6726C71.5695 80.6798 71.5683 80.6873 71.572 80.6932C71.9315 81.2442 72.2217 81.8368 72.4914 82.4395C72.399 82.3962 72.3083 82.3504 72.2226 82.295C71.9874 82.1438 71.6682 82.2043 71.4225 82.3038C71.339 82.3378 70.8573 82.607 71.0882 82.7553C71.4116 82.9636 71.7484 83.103 72.1121 83.2244C72.3347 83.2987 72.5913 83.2626 72.8126 83.1727C72.908 83.3957 73.0033 83.6179 73.0995 83.8388C72.761 84.1395 72.5212 84.5578 72.4498 85.0416ZM68.1409 84.1974C69.1694 84.6561 69.5679 85.7547 69.6939 86.8038C69.7611 87.3632 69.6671 89.5773 68.7461 89.3643C67.4064 89.0544 66.6483 87.729 66.663 86.4422C66.6714 85.7249 67.2426 83.8321 68.148 84.1601C68.1316 84.1786 68.1279 84.192 68.1409 84.1974ZM72.5254 113.158C73.7979 114.951 72.5111 115.96 71.3331 117.149C71.5195 114.164 71.1886 111.278 70.2546 108.424C69.7179 106.783 68.4382 104.997 68.3311 103.255C68.3299 103.235 68.3311 103.216 68.3299 103.196C69.2609 103.546 70.2101 103.842 71.1651 104.118C71.9101 105.185 72.7055 106.212 73.4061 107.31C73.8554 108.014 74.1347 108.59 73.9814 109.454C73.8752 110.051 73.0029 110.237 72.6388 110.615C71.8874 111.394 71.9097 112.29 72.5254 113.158ZM98.1222 99.1786C98.0453 98.8296 98.0004 98.4764 97.9869 98.1195C97.9987 97.9922 98.01 97.865 98.0218 97.7373C98.5963 98.371 99.0625 99.0972 99.6773 99.7019C101.164 101.164 103.249 101.553 103.91 103.792C103.996 104.085 105.209 103.746 105.126 103.466C104.643 101.828 103.33 101.037 102.043 100.168C102.085 100.14 102.122 100.11 102.146 100.077C102.961 98.9884 103.304 97.7369 103.622 96.4325C103.777 95.7996 105.276 91.3416 106.081 93.1579C106.441 93.9693 106.342 94.9999 106.084 96.0524C105.664 97.1162 105.289 98.1984 104.958 99.2924C104.932 99.3798 104.959 99.4424 105.018 99.4852C104.997 99.5617 104.976 99.6393 104.958 99.7124C104.848 100.18 106.076 99.9913 106.177 99.5654C106.334 98.901 106.966 97.2581 107.307 95.6668C107.698 94.6619 108.179 93.7068 108.794 92.8896C110.105 93.3742 108.806 97.5664 108.285 99.3046C108.183 99.4793 108.073 99.654 107.939 99.8304C107.787 100.033 107.954 100.126 108.204 100.137C108.483 100.295 109.248 100.108 109.327 99.7754C109.358 99.6435 109.408 99.4705 109.471 99.266C109.925 98.4844 110.142 97.6894 110.28 96.7298C110.384 96.0121 110.642 95.49 111.166 94.9823C111.532 94.6278 111.842 95.8277 111.866 95.9839C112.071 97.3358 111.621 98.7897 111.174 100.178C110.997 100.658 110.852 101.138 110.724 101.573C110.718 101.592 110.723 101.608 110.731 101.623C110.694 101.757 110.66 101.89 110.628 102.022C110.518 102.49 111.746 102.301 111.847 101.875C111.924 101.546 112.011 101.219 112.1 100.893C112.544 99.8023 113.651 97.382 113.897 97.996C114.349 99.1266 113.685 100.598 113.249 101.631C111.995 104.612 109.867 107.31 107.769 109.769C105.64 109.682 103.515 109.508 101.385 109.433C101.389 109.423 101.395 109.413 101.398 109.403C102.187 105.464 99.0461 102.757 98.1222 99.1786ZM75.8041 87.2292C75.807 87.4224 75.7722 87.6106 75.7176 87.7949C75.5294 87.7668 75.2665 87.8214 75.0553 87.9108C74.3094 87.5484 73.8558 86.7656 73.6824 85.9496C73.5812 85.4721 73.6005 84.9622 73.7185 84.491C73.7534 84.352 73.8109 84.2218 73.8747 84.0941L73.9146 84.179L74.3111 84.0874C74.9587 84.4696 75.3535 85.2822 75.587 85.9546C75.7289 86.3641 75.7969 86.7966 75.8041 87.2292ZM73.0873 75.7825C72.6656 75.7901 72.2789 75.8127 71.9353 75.8455C72.3738 75.6561 72.7564 75.6473 73.0873 75.7825ZM33.5391 118.184C33.469 115.074 33.369 111.871 34.4332 108.898C35.7948 105.094 39.698 104.252 43.3232 104.211C43.4836 104.209 43.6747 104.127 43.8322 104.018C43.72 104.898 43.7486 105.779 43.867 106.665C44.0762 108.229 44.1942 108.618 43.1262 109.692C41.3552 111.473 42.3005 113.149 43.6902 114.681C43.1039 116.066 42.6281 117.505 42.1926 118.926C40.5862 124.17 39.9726 129.67 39.3746 135.101C31.9982 133.245 33.6689 123.93 33.5391 118.184ZM45.0047 144.813C45.9026 145.068 46.8328 145.254 47.766 145.395C47.0357 147.671 46.8253 150.143 46.8564 152.516C46.8858 154.746 47.2427 158.042 49.6962 158.912C49.8054 158.951 49.9738 158.92 50.1477 158.865C49.4606 159.665 48.9029 160.556 48.5111 161.495C42.5105 157.85 45.1034 150.578 45.0047 144.813ZM62.1378 172.326C58.335 172.091 54.2436 171.856 51.232 169.244C47.3372 165.864 49.1087 160.103 52.8128 157.43C55.8555 163.621 61.9203 167.868 69.8166 166.719C69.843 166.715 69.8674 166.708 69.8922 166.702C69.8922 168.651 69.8922 170.6 69.8922 172.549C69.2097 172.615 68.4349 172.529 67.8154 172.529C65.9213 172.53 64.0277 172.443 62.1378 172.326ZM54.6468 209.881C52.3891 209.881 50.5521 208.044 50.5521 205.786C50.5521 203.528 52.3891 201.691 54.6468 201.691C56.9046 201.691 58.7415 203.528 58.7415 205.786C58.7415 208.044 56.9046 209.881 54.6468 209.881ZM59.5739 205.637C59.5126 203.597 58.2103 201.868 56.3956 201.177C59.324 199.529 62.7132 199.742 65.973 199.791C65.973 199.848 65.973 199.906 65.973 199.964C65.973 200.161 67.1897 199.986 67.1897 199.639C67.1897 199.573 67.1897 199.508 67.1897 199.443C67.3329 199.274 67.3723 199.091 67.1897 199.01C67.1897 190.395 67.1897 181.781 67.1897 173.166C67.4005 173.167 67.6117 173.172 67.8226 173.172C68.4697 173.171 69.2051 173.215 69.8922 173.139C69.8922 183.567 69.8922 193.994 69.8922 204.422C66.3808 204.399 62.8652 204.264 59.5739 205.637ZM71.0773 209.808C71.0958 209.78 71.1088 209.749 71.1088 209.718C71.1088 190.326 71.1088 170.934 71.1088 151.543C72.2432 151.543 73.3775 151.543 74.5118 151.543C74.5118 156.285 74.5118 161.027 74.5118 165.769C74.2851 165.976 74.2103 166.268 74.5118 166.388C74.5118 180.862 74.5118 195.335 74.5118 209.809C73.367 209.808 72.2222 209.808 71.0773 209.808ZM92.8167 151.646C92.9166 151.704 93.0069 151.765 93.1043 151.824C86.851 152.903 82.3607 159.29 82.4102 165.496C82.2674 165.5 82.1301 165.506 82.0096 165.509C79.8975 165.55 77.8334 165.779 75.7281 165.606C75.7281 160.918 75.7281 156.23 75.7281 151.542C81.4304 151.542 87.1324 151.542 92.8343 151.542C92.7911 151.587 92.7789 151.625 92.8167 151.646ZM75.7285 172.196C75.7285 170.308 75.7285 168.42 75.7285 166.533C76.8078 166.61 77.8855 166.608 78.9736 166.565C79.5679 166.542 82.6534 165.96 83.0326 166.541C83.0784 166.611 83.1456 166.658 83.2229 166.688C83.1767 166.709 83.1359 166.732 83.1082 166.757C81.4409 168.247 80.6308 170.18 80.252 172.259C78.7439 172.246 77.2366 172.201 75.7285 172.196ZM79.6716 193.707C80.3263 192.674 80.5086 191.179 80.7572 190.013C81.3326 187.318 81.443 184.589 81.3574 181.844C81.2087 177.076 80.0613 170.489 84.0699 166.907C84.3005 166.701 84.1804 166.603 83.9557 166.578C84.1691 166.442 84.2934 166.229 84.146 166.004C84.0263 165.821 83.849 165.706 83.6466 165.628C83.5093 160.102 87.2999 153.698 93.0586 152.734C93.3983 152.677 93.6293 152.407 93.6696 152.172C97.9806 155.007 99.4539 159 98.0201 164.173C96.8744 168.307 94.6683 172.23 92.7167 176.033C89.7068 181.899 88.1428 188.184 86.3475 194.513C86.3382 194.546 86.3474 194.572 86.3676 194.593C86.3462 194.632 86.3348 194.672 86.3407 194.714C86.5343 196.094 87.0778 197.243 87.8266 198.259C87.7409 198.355 87.7128 198.466 87.7926 198.576C88.5548 199.625 89.6883 200.607 89.5947 202.02C89.4603 204.049 85.0149 200.397 84.6776 200.128C82.5005 198.386 80.664 196.35 79.6535 193.728C79.6594 193.721 79.667 193.714 79.6716 193.707ZM91.9108 188.031C91.7709 189.325 91.637 190.62 91.5089 191.916C91.2485 191.909 90.9356 191.964 90.8 192.069C89.2893 193.233 88.4238 194.74 88.2067 196.486C87.8934 195.84 87.6641 195.147 87.5578 194.389C87.5553 194.37 87.5477 194.353 87.5372 194.338C87.5418 194.328 87.5481 194.32 87.5511 194.31C89.1848 188.55 90.6761 182.932 93.117 177.536C92.6936 181.031 92.2883 184.529 91.9108 188.031ZM88.6812 209.352C84.8587 209.394 82.7 208.076 81.9562 204.185C81.8916 203.846 80.6682 204.138 80.7396 204.511C80.9802 205.77 81.3821 206.806 81.9617 207.627C80.8681 207.926 78.04 208.261 78.1076 206.985C78.1883 205.464 77.9291 204.023 77.5906 202.546C76.8864 199.475 76.3673 196.721 78.5809 194.415C80.2104 198.268 83.8423 201.359 87.3659 203.453C88.0748 203.874 89.6598 203.628 90.1772 202.97C90.6878 202.32 90.8252 201.724 90.7462 201.156C93.1245 203.079 95.8153 204.811 97.1067 207.489C98.3447 210.058 90.1394 209.335 88.6812 209.352ZM105.416 203.794C107.265 205.615 108.608 208.956 104.762 208.913C102.596 208.889 100.421 208.563 98.2591 208.427C98.2292 208.425 98.1881 208.43 98.1419 208.439C99.0411 206.909 96.6292 204.68 95.4793 203.635C93.5525 201.884 90.9978 200.291 89.3003 198.183C89.3788 198.107 89.4258 198.02 89.4153 197.923C89.2049 195.96 89.74 194.255 91.0515 192.915C90.7139 195.104 92.2384 197.183 93.6003 198.744C94.888 200.221 96.9026 202.218 98.934 202.549C100.369 202.783 101.584 201.568 101.71 200.216C102.896 201.456 104.211 202.607 105.416 203.794ZM103.176 151.646C107.47 154.116 109.582 157.64 108.706 162.595C107.964 166.794 105.892 170.838 104.217 174.728C101.794 180.354 99.9091 186.035 98.1873 191.886C98.1642 191.916 98.144 191.947 98.1318 191.982C98.0394 192.24 97.981 192.494 97.9378 192.745C97.8072 193.194 97.6753 193.641 97.5464 194.092C97.5124 194.211 97.698 194.251 97.9328 194.235C98.0608 195.009 98.3704 195.764 98.7823 196.521C99.0658 197.041 102.048 202.441 99.2939 201.706C96.5258 200.967 92.5706 196.97 92.2623 193.709C92.4274 193.625 92.5601 193.513 92.5891 193.394C92.592 193.381 92.5949 193.369 92.5979 193.357C92.6138 193.291 92.6008 193.239 92.5702 193.197C92.5261 192.825 92.6932 192.106 92.7285 191.744C92.8738 190.256 93.0338 188.77 93.1942 187.284C93.6386 183.169 94.1173 179.058 94.6284 174.951C94.6431 174.834 94.5864 174.758 94.4928 174.712C96.504 170.802 98.6601 166.762 99.5984 162.458C100.646 157.65 98.4266 154.001 94.4856 151.543C97.3889 151.543 100.292 151.543 103.195 151.543C103.15 151.587 103.138 151.625 103.176 151.646ZM167.927 151.706C165.292 160.139 163.673 168.896 162.187 177.592C160.904 185.092 159.779 192.636 158.978 200.204C158.928 200.262 158.905 200.323 158.926 200.384C158.935 200.411 158.941 200.44 158.95 200.467C158.949 200.475 158.948 200.482 158.947 200.49C158.94 200.562 158.963 200.617 159.005 200.659C159.007 200.666 159.009 200.672 159.011 200.678C156.33 201.58 153.066 201.427 150.338 201.37C148.873 201.339 147.408 201.236 145.954 201.055C145.258 200.969 143.521 200.889 143.088 200.181C143.061 200.137 143.02 200.104 142.972 200.079C143.774 192.5 144.911 184.949 146.184 177.436C147.657 168.74 149.29 159.98 151.924 151.55C151.925 151.547 151.924 151.544 151.925 151.541C157.3 151.541 162.675 151.541 168.05 151.541C167.991 151.591 167.946 151.646 167.927 151.706ZM158.379 209.368C157.661 209.368 156.943 209.368 156.225 209.368C155.744 209.368 155.263 209.368 154.782 209.368C155.325 209.368 154.9 208.797 154.699 208.261C153.717 205.646 151.565 207.268 151.199 209.278C147.411 209.287 143.622 209.334 139.834 209.231C137.74 209.175 135.649 209.038 133.563 208.829C131.778 208.65 132.163 206.963 133.064 205.846C135.468 202.865 140.691 203.724 143.756 201.711C143.834 201.66 143.887 201.612 143.924 201.565C144.059 201.589 144.19 201.612 144.303 201.635C146.134 201.991 148.024 202.081 149.884 202.135C152.845 202.223 156.259 202.307 159.172 201.382C159.611 203.889 158.876 206.937 158.379 209.368ZM80.0731 151.047C78.6817 151.047 77.2895 151.047 75.8977 151.047C70.3806 151.047 64.8634 151.047 59.3463 151.047C59.3009 151.047 59.2266 151.064 59.1397 151.09C59.1397 149.499 59.1397 147.909 59.1397 146.319C59.1397 146.249 59.1397 146.18 59.1397 146.11C61.0837 146.131 63.0286 146.13 64.9663 146.152C64.9747 146.152 64.9827 146.152 64.9911 146.152C66.3291 146.168 67.6831 146.225 69.0232 146.167C69.0333 146.18 69.0421 146.195 69.0522 146.208C69.198 146.396 69.7086 146.241 70.0215 146.083C114.217 146.083 158.411 146.083 202.607 146.083C202.624 146.083 202.647 146.08 202.673 146.075C202.673 147.732 202.673 149.39 202.673 151.047C161.806 151.048 120.94 151.047 80.0731 151.047ZM181.155 151.542C183.545 151.542 185.934 151.542 188.324 151.542C188.324 163.393 188.324 175.245 188.324 187.096C188.324 190.17 188.324 193.244 188.324 196.318C188.237 196.07 188.153 195.82 188.067 195.572C187.197 193.06 186.359 190.536 185.551 188.002C185.551 187.891 185.551 187.78 185.551 187.669C185.551 187.629 185.501 187.606 185.423 187.595C184.319 184.121 183.265 180.631 182.244 177.135C179.8 168.767 177.47 160.274 176.15 151.644C176.144 151.61 176.139 151.576 176.133 151.542C177.807 151.542 179.481 151.542 181.155 151.542ZM179.425 172.386C173.925 172.116 166.101 170.786 167.412 163.539C167.648 162.23 168.209 160.975 168.822 159.806C169.248 158.994 170.46 156.648 171.43 156.471C172.784 156.224 174.295 156.45 175.642 156.105C176.68 161.593 178.073 167.024 179.581 172.406C179.537 172.396 179.488 172.389 179.425 172.386ZM172.868 209.881C170.611 209.881 168.774 208.044 168.774 205.786C168.774 203.528 170.611 201.691 172.868 201.691C175.126 201.691 176.963 203.528 176.963 205.786C176.963 208.044 175.126 209.881 172.868 209.881ZM188.26 204.423C184.699 204.403 181.132 204.245 177.795 205.637C177.734 203.598 176.432 201.869 174.617 201.177C177.545 199.529 180.934 199.743 184.194 199.791C184.194 199.849 184.194 199.907 184.194 199.965C184.194 200.161 185.411 199.987 185.411 199.639C185.411 199.573 185.411 199.508 185.411 199.443C185.553 199.274 185.592 199.093 185.412 199.011C185.413 197.645 185.413 196.279 185.424 194.913C185.425 194.702 185.349 194.188 185.393 193.862C185.436 193.83 185.471 193.798 185.489 193.769C185.608 193.583 185.529 193.105 185.532 192.907C185.536 192.618 185.536 192.328 185.539 192.039C186.366 194.53 187.22 197.01 188.113 199.476C188.145 199.563 188.223 199.615 188.323 199.642C188.323 201.237 188.323 202.832 188.323 204.428C188.302 204.425 188.284 204.423 188.26 204.423ZM189.54 209.788C189.54 190.373 189.54 170.958 189.54 151.543C190.675 151.543 191.809 151.543 192.943 151.543C192.943 170.965 192.943 190.387 192.943 209.809C191.808 209.809 190.672 209.809 189.536 209.809C189.538 209.801 189.54 209.795 189.54 209.788ZM174.162 62.3267C175.928 62.8264 178.084 62.6261 179.895 62.6903C180.168 62.7 182.03 62.5891 182.132 62.9385C182.241 63.3127 182.111 63.8625 182.059 64.2421C181.973 64.8645 181.82 65.4844 181.653 66.0896C181.506 66.6192 182.465 66.4621 182.67 66.3113C184.14 65.2295 185.639 64.159 187.223 63.2506C188.534 62.4993 190.356 62.8617 191.83 62.8222C192.998 62.7911 194.174 62.7307 195.323 62.5106C195.391 62.4976 195.46 62.49 195.527 62.4757C199.254 61.3595 200.916 58.5562 201.37 54.8226C201.623 52.7354 201.54 50.5536 201.497 48.4546C201.459 46.5345 201.291 44.4006 200.339 42.6901C199.352 40.9166 197.916 39.9292 195.966 39.4278C194.28 38.9944 192.5 39.5307 190.794 39.5307C187.428 39.5307 184.08 39.3568 180.716 39.2787C177.267 39.1989 173.532 38.9776 171.199 41.9489C168.783 45.0256 169.397 50.1127 169.515 53.7513C169.628 57.1971 170.387 61.2578 174.162 62.3267ZM170.766 47.3833C170.875 45.4325 171.288 43.475 172.516 41.9115C173.9 40.1493 176.252 40.1925 178.276 40.1438C181.351 40.0699 184.414 40.405 187.486 40.405C188.551 40.405 189.616 40.405 190.682 40.405C192.868 40.405 194.841 39.7705 196.931 40.8086C200.568 42.6158 200.304 47.7932 200.27 51.1853C200.229 55.3753 200.088 60.2268 195.308 61.6589C192.524 62.2418 189.221 61.1885 186.688 62.5497C185.482 63.1981 184.334 63.9797 183.214 64.7864C183.568 63.351 183.661 61.9226 181.814 61.8689C179.89 61.813 177.965 61.7387 176.042 61.6459C173.661 61.5308 172.246 60.2318 171.451 58.0715C170.267 54.8554 170.577 50.7556 170.766 47.3833ZM79.3654 73.8624C81.4044 74.0988 83.4929 74.0967 85.5419 74.1694C85.8153 74.1791 87.6767 74.0682 87.7787 74.4176C87.8879 74.7918 87.7581 75.3415 87.7061 75.7212C87.6204 76.3436 87.4671 76.9635 87.2995 77.5686C87.1525 78.0982 88.1117 77.9412 88.3167 77.7904C89.7866 76.7085 91.2855 75.638 92.87 74.7296C94.1807 73.9783 96.0034 74.3407 97.4767 74.3013C98.7135 74.2681 99.9604 74.2089 101.174 73.9548C103.494 73.3551 106.466 73.1825 107.017 70.4031C107.384 68.5502 107.182 66.4323 107.144 64.5529C107.106 62.6328 106.938 60.4989 105.986 58.7884C104.999 57.0149 103.562 56.0275 101.613 55.5261C99.9683 55.1032 98.2654 55.629 96.604 55.629C93.3673 55.629 90.1499 55.4841 86.9148 55.39C83.902 55.3022 79.7686 54.8587 77.484 57.3034C74.6315 60.3557 75.1124 64.9603 75.1363 68.8207C75.1561 72.0355 76.1191 73.4861 79.3654 73.8624ZM76.4546 62.9499C76.618 60.8971 77.1854 58.8287 78.7657 57.4134C80.2327 56.0997 82.6173 56.2581 84.4546 56.2362C87.4049 56.2014 90.3464 56.5033 93.295 56.5033C94.3605 56.5033 95.4255 56.5033 96.4906 56.5033C98.64 56.5033 100.514 55.8818 102.577 56.9069C106.214 58.7141 105.95 63.8915 105.917 67.2836C105.903 68.6363 106.094 70.2376 105.461 71.4854C104.866 72.6575 102.053 72.8536 100.954 73.1375C98.1709 73.7205 94.8678 72.6672 92.335 74.0283C91.1284 74.6767 89.9802 75.4579 88.8601 76.265C89.215 74.8296 89.3078 73.4013 87.4608 73.3475C85.5361 73.2917 83.6118 73.2173 81.6887 73.1245C80.2801 73.0565 78.5427 73.1098 77.3248 72.2955C76.1758 71.5269 76.371 69.3263 76.3639 68.184C76.3534 66.4377 76.316 64.6932 76.4546 62.9499Z" fill="#3C4B91"/>
<defs>
<linearGradient id="paint0_linear_1351_7879" x1="122.317" y1="73.8239" x2="122.317" y2="202.33" gradientUnits="userSpaceOnUse">
<stop stop-color="#FFBD55"/>
<stop offset="1" stop-color="#FFF2C5"/>
</linearGradient>
</defs>
</svg>
