<svg width="500" height="396" viewBox="0 0 500 396" fill="none" xmlns="http://www.w3.org/2000/svg">
<g clip-path="url(#clip0_2032_4893)">
<mask id="mask0_2032_4893" style="mask-type:alpha" maskUnits="userSpaceOnUse" x="64" y="78" width="371" height="318">
<path d="M64 396V78H435V381.5C382.5 386 165.833 394.003 64 396Z" fill="black"/>
</mask>
<g mask="url(#mask0_2032_4893)">
<path d="M303.673 302.604C314.423 302.604 325.173 302.604 335.923 302.604C335.804 302.701 335.714 302.81 335.676 302.931C330.407 319.796 327.169 337.312 324.196 354.703C321.632 369.702 319.381 384.791 317.78 399.928C317.679 400.043 317.633 400.165 317.675 400.288C317.692 400.342 317.705 400.399 317.723 400.453C317.721 400.468 317.719 400.484 317.718 400.499C317.702 400.644 317.749 400.753 317.833 400.837C317.837 400.851 317.841 400.863 317.844 400.876C312.482 402.678 305.956 402.373 300.499 402.258C297.568 402.198 294.639 401.991 291.731 401.629C290.339 401.456 286.865 401.297 285.998 399.881C285.944 399.793 285.863 399.728 285.768 399.678C287.37 384.519 289.645 369.418 292.191 354.391C295.137 336.999 298.403 319.479 303.671 302.619C303.673 302.615 303.671 302.609 303.673 302.604ZM352.122 302.808C354.763 320.067 359.421 337.053 364.31 353.789C366.353 360.781 368.461 367.76 370.667 374.708C370.824 374.731 370.924 374.778 370.924 374.857C370.924 375.08 370.924 375.301 370.924 375.524C372.54 380.591 374.215 385.639 375.956 390.663L376.47 373.71C376.47 350.007 376.47 326.305 376.47 302.603C371.69 302.603 366.911 302.603 362.132 302.603L352.122 302.808ZM388.143 404.18C389.364 404.18 391.393 404.18 393.195 404.18C393.74 404.18 394.754 404.052 396.03 403.847C393.426 403.921 390.799 403.942 388.143 404.144C388.143 404.156 388.143 404.168 388.143 404.18ZM388.143 331.811C388.143 355.425 388.143 379.039 388.143 402.653C395.012 402.111 401.954 403.083 408.495 400.429C402.183 377.396 393.155 355.16 388.143 331.811ZM366.098 264.285C357.105 264.923 347.734 265.021 338.683 264.343C338.693 264.362 338.703 264.381 338.714 264.401C341.408 269.706 344.15 275.027 346.447 280.521C346.947 281.718 348.525 284.44 348.09 286.108C356.919 286.108 365.749 286.108 374.578 286.108C375.107 286.108 375.415 286.289 375.546 286.536C375.575 286.55 375.594 286.567 375.599 286.588C375.819 286.612 375.966 286.681 375.966 286.804C375.966 288.064 375.966 289.324 375.966 290.584C375.966 290.622 375.956 290.659 375.944 290.695C378.656 290.695 381.367 290.695 384.08 290.695C384.757 280.25 380.961 270.512 377.288 260.901C374.07 263.08 369.696 264.029 366.098 264.285ZM314.804 161.495C314.503 161.315 314.097 161.071 313.54 160.738C313.251 160.564 312.945 160.416 312.633 160.287C313.344 160.754 314.034 161.268 314.709 161.772C314.74 161.679 314.772 161.587 314.804 161.495ZM372.103 183.702C372.099 183.702 372.095 183.701 372.092 183.7C372.094 183.703 372.095 183.706 372.097 183.71C372.099 183.707 372.101 183.705 372.103 183.702ZM361.466 184.074C361.489 184.04 361.516 184.009 361.541 183.975C361.281 183.961 361.033 183.964 360.806 184.001L361.466 184.074ZM360.906 263.173C363.988 263.093 367.539 263.082 370.778 262.296C372.799 261.805 374.695 261.008 376.279 259.699C376.377 259.619 376.471 259.532 376.567 259.447C376.608 259.411 376.65 259.376 376.691 259.339C376.618 259.146 376.543 258.952 376.47 258.759C376.357 258.461 377.182 258.07 377.904 257.936C380.913 253.281 376.38 246.891 374.37 242.38C374.287 242.194 374.371 242.009 374.548 241.847C363.565 241.847 352.582 241.847 341.598 241.847C340.927 242.329 339.512 242.462 339.512 241.96C339.512 224.181 339.512 206.403 339.512 188.624C339.512 188.256 339.939 187.969 340.435 187.805C340.542 187.359 340.986 186.934 341.663 186.934C344.161 186.934 346.659 186.934 349.157 186.934C347.038 184.462 346.05 181.207 343.999 178.661C343.51 178.055 345.839 177.231 346.277 177.775C348.58 180.636 349.561 184.41 352.289 186.934C353.535 186.934 354.781 186.934 356.026 186.934C356.917 183.799 359.799 182.31 363.283 182.73C364.727 182.232 366.586 182.41 368.286 182.948C369.717 182.084 371.73 182.012 373.698 182.473C374.629 182 375.724 181.73 376.87 181.6C377.447 181.535 377.978 181.553 378.478 181.63C377.545 179.782 376.606 177.919 375.644 176.06C372.47 170.894 368.171 164.128 364.349 158.901C363.036 157.492 361.639 156.159 360.118 154.946C349.844 146.758 336.897 147.126 324.403 147.187L324.458 147.299L319.903 154.89C318.626 157.763 317.449 160.663 316.485 163.665C316.191 164.579 314.291 164.706 314.117 163.813C314.063 163.797 314.013 163.777 313.971 163.75C312.515 162.801 311.137 161.72 309.658 160.811C309.653 160.807 309.648 160.805 309.642 160.801C309.75 163.151 310.156 165.792 309.245 167.963C309.02 168.499 308.719 168.97 308.36 169.38C308.551 192.738 313.067 218.142 324.303 238.823C324.901 238.669 325.558 238.742 325.706 239.207C325.734 239.294 325.77 239.379 325.799 239.464C326.104 239.485 326.086 239.596 325.899 239.739C326.921 242.581 328.803 245.35 330.186 247.983C331.918 251.282 333.644 254.585 335.36 257.893C336.21 259.531 337.055 261.171 337.895 262.814C345.488 263.464 353.308 263.369 360.906 263.173ZM289.894 231.234C290.857 229.299 291.661 227.287 292.345 225.297C292.464 224.95 293.095 224.7 293.683 224.608C290.309 213.676 286.722 202.792 286.176 191.282C286.132 190.345 288.573 189.849 288.609 190.63C289.41 207.505 296.748 223.036 300.369 239.347C300.377 239.385 300.374 239.422 300.373 239.458C303.056 239.458 305.739 239.458 308.422 239.458C297.446 218.734 299.172 193.272 299.194 170.565C299.194 170.546 299.201 170.53 299.203 170.511C298.836 170.208 298.515 169.835 298.277 169.349C297.494 167.747 297.452 165.875 297.479 164.068L297.148 164.316C296.99 164.652 296.858 165.01 296.78 165.404C296.744 165.592 296.479 165.759 296.137 165.883C295.724 166.133 295.126 166.26 294.687 166.162L294.642 166.196L294.626 166.14C294.4 166.075 294.224 165.947 294.156 165.734C293.951 165.087 293.825 164.36 293.753 163.599C290.341 166.82 286.139 169.313 282.681 172.456C282.618 172.514 282.557 172.572 282.495 172.63C282.304 172.807 282.117 172.989 281.932 173.17C281.771 173.328 281.608 173.485 281.455 173.642C280.499 174.619 279.621 175.664 278.867 176.818C273.619 184.848 272.905 195.918 270.141 204.97C270.069 205.207 269.85 205.403 269.573 205.548C271.786 208.897 274.179 212.13 276.188 215.613C276.835 216.735 274.519 217.659 273.962 216.694C270.964 211.495 267.099 206.86 264.276 201.555C264.241 201.488 264.217 201.423 264.201 201.358C263.637 201.761 262.202 202.134 261.984 201.657C261.95 201.581 261.928 201.505 261.894 201.429C259.265 201.935 256.331 202.792 253.823 204.135C252.732 204.842 251.7 205.565 250.784 206.235C250.08 206.88 249.485 207.6 249.01 208.392C249.167 208.415 249.176 208.79 249.576 209.578C250.211 210.826 250.86 212.066 251.512 213.306C253.429 216.955 255.363 220.595 257.274 224.247C259.122 227.781 260.984 231.313 262.717 234.904C263.119 235.738 264.044 237.118 264.41 238.33C264.799 238.338 265.132 238.472 265.233 238.786C265.305 239.01 265.394 239.233 265.478 239.457C268.932 239.457 272.386 239.457 275.84 239.457L284.008 239.29C285.101 238.303 286.085 237.207 286.967 236.024L289.894 231.234ZM185.493 302.604C174.089 302.604 162.685 302.604 151.281 302.604C151.281 311.98 151.281 321.356 151.281 330.732C155.491 331.078 159.62 330.62 163.844 330.537C164.084 330.533 164.359 330.521 164.645 330.511C164.546 318.1 173.527 305.327 186.033 303.167C185.838 303.05 185.658 302.927 185.458 302.813C185.381 302.769 185.405 302.693 185.493 302.604ZM151.618 301.614C154.402 301.614 157.186 301.614 159.969 301.614L151.852 301.427L151.618 301.614ZM214.475 220.337C209.727 220.147 204.99 219.737 200.239 219.624C198.542 226.516 195.273 233.53 191.572 239.502C189.335 243.111 184.901 250.285 179.604 247.931C179.144 247.727 179.02 247.432 179.093 247.141C177.277 246.12 175.839 244.278 174.648 242.386C171.892 238.009 169.224 233.305 166.931 228.668C163.562 221.854 160.404 214.645 153.034 211.356C150.736 210.33 148.351 209.562 145.945 208.852C148.693 212.297 152.571 217.206 148.417 219.949C147.843 220.971 146.958 221.902 146.424 222.801C146.595 224.591 148.636 226.483 148.611 228.602C148.577 231.428 144.663 233.461 143.196 235.421C142.812 235.933 140.425 236.254 140.972 235.524C140.988 235.504 141.005 235.485 141.021 235.464C140.813 235.509 140.61 235.532 140.427 235.528C140.257 235.59 140.089 235.629 139.938 235.63C134.927 235.652 128.916 233.46 124.694 230.81C121.703 228.933 122.588 224.741 121.128 221.975C120.977 221.69 120.793 221.461 120.587 221.27C119.813 220.896 118.801 220.637 117.472 220.497C114.989 220.588 112.142 221.287 111.207 218.609C110.125 215.511 110.879 211.847 111.123 208.549C106.521 210.68 102.049 213.238 98.4233 216.427C96.714 218.25 94.8611 220.379 93.1736 222.377C91.87 224.283 90.7554 226.305 89.7962 228.41C89.7996 228.533 89.7391 228.652 89.6408 228.764C88.0063 232.429 86.8069 236.319 85.8057 240.217C83.4572 249.361 82.2208 258.692 81.1885 268.062C80.4594 274.685 78.6208 281.494 85.6419 285.217C92.0876 288.635 99.8755 289.296 107.044 289.67C114.622 290.065 122.225 290.053 129.814 290.141C132.133 290.168 134.468 290.249 136.793 290.214C133.143 283.914 133.12 274.268 137.911 268.781C128.477 268.144 118.907 268.816 109.542 267.842C105.7 267.442 103.777 265.928 104.32 261.908C104.343 261.738 104.441 261.588 104.58 261.457C106.374 254.892 108.088 248.246 109.03 241.502C109.621 237.275 111.293 229.33 107.354 226.141C106.719 225.626 108.966 224.676 109.618 225.203C113.472 228.324 112.201 235.876 111.613 240.084C110.574 247.521 108.746 254.816 106.761 262.05C106.756 262.068 106.744 262.086 106.736 262.104C106.378 266.496 110.147 266.354 113.9 266.391C122.768 266.48 131.58 266.539 140.428 267.29C140.921 267.332 141.132 267.5 141.163 267.712C146.727 267.66 152.436 267.262 157.722 268.561C157.085 265.439 157.243 262.6 158.745 259.569C160.517 255.995 162.345 252.181 161.885 248.049C161.071 240.734 154.315 235.624 154.726 228.097C154.769 227.304 157.186 226.971 157.159 227.445C156.725 235.408 164.732 240.592 164.355 248.524C164.183 252.139 163.115 255.226 161.521 258.44C161.498 258.487 161.482 258.532 161.459 258.579C161.541 258.623 161.618 258.673 161.679 258.742C165.161 262.628 172.294 271.147 178.386 270.394C179.337 268.476 180.299 266.563 181.27 264.658C184.07 259.164 186.931 253.701 189.796 248.241C191.108 245.742 192.909 243.101 193.927 240.407C193.82 240.358 193.874 240.267 194.016 240.161C194.076 239.994 194.144 239.829 194.197 239.663C194.482 238.766 196.946 238.444 196.642 239.4C196.636 239.418 196.627 239.437 196.622 239.456C201.359 239.456 206.096 239.456 210.833 239.456L211.898 239.352C215.071 233.571 216.306 226.877 217.263 220.415C216.627 220.404 215.991 220.393 215.356 220.371C214.969 220.425 214.616 220.424 214.475 220.337ZM160.497 260.973C160.032 262.45 159.831 263.897 159.878 265.403L160.508 260.985C160.506 260.981 160.502 260.977 160.497 260.973ZM132.118 232.453C129.446 230.806 126.591 228.771 124.862 227.092C125.085 227.81 125.411 228.461 125.94 228.985C127.351 230.38 129.646 231.566 132.118 232.453ZM146.748 283.839C145.43 284.501 144.166 285.372 142.77 285.867C141.263 286.4 139.867 286.564 138.557 286.272C138.42 286.252 138.288 286.222 138.161 286.176C137.985 286.123 137.813 286.053 137.641 285.981C138.121 287.469 138.757 288.867 139.538 290.106C140.015 290.184 140.414 290.407 140.424 290.696C141.598 290.696 142.772 290.696 143.947 290.696C143.947 289.616 143.947 288.536 143.947 287.457C143.947 287.269 144.093 287.104 144.312 286.969C144.412 286.536 144.874 286.109 145.554 286.109C147.239 286.109 148.925 286.109 150.61 286.109L150.759 286.052C149.948 284.263 148.868 282.774 146.748 283.839ZM196.065 240.899L200.687 240.448C199.211 240.448 197.735 240.448 196.259 240.448C196.197 240.599 196.13 240.749 196.065 240.899ZM118.102 292.156L129.756 291.824C125.88 291.779 121.99 291.782 118.102 291.74C118.102 291.878 118.102 292.017 118.102 292.156ZM146.381 290.584C146.381 290.622 146.37 290.659 146.359 290.695C146.394 290.695 146.429 290.695 146.465 290.695L146.779 287.873C146.646 287.873 146.513 287.873 146.381 287.873C146.381 288.776 146.381 289.68 146.381 290.584ZM116.936 302.604C116.784 302.604 116.689 302.588 116.639 302.56C116.123 302.635 115.669 302.604 115.669 302.435C115.669 298.858 115.669 295.282 115.669 291.705C111.699 291.637 107.732 291.501 103.785 291.186C101.799 312.538 116.133 334.552 139.607 331.179C139.607 321.666 139.607 312.154 139.607 302.641L138.519 302.604C131.325 302.604 124.13 302.604 116.936 302.604Z" fill="url(#paint0_linear_2032_4893)"/>
<path d="M140.708 183.98C138.676 184.105 136.889 183.155 135.456 181.778C134.962 181.303 132.722 182.206 133.171 182.636C133.299 182.759 133.436 182.868 133.568 182.982C133.538 183.04 133.516 183.099 133.516 183.162C133.531 184.887 133.705 187.459 135.668 188.026C138.378 188.809 139.82 186.031 141.302 184.452C141.687 184.043 140.969 183.964 140.708 183.98ZM137.784 186.251C137.615 186.473 137.422 186.672 137.229 186.871C137.217 186.866 137.214 186.864 137.201 186.86C136.996 186.741 136.842 186.523 136.719 186.33C136.385 185.809 136.197 185.171 136.09 184.513C136.912 184.83 137.783 185.013 138.693 185.057C138.38 185.448 138.086 185.853 137.784 186.251ZM136.37 163.613C136.517 164.161 135.814 164.631 135.362 164.716C134.232 164.928 133.28 165.424 132.377 166.126C131.93 166.473 131.135 166.61 130.638 166.293C130.118 165.962 130.412 165.406 130.79 165.112C132.007 164.165 133.422 163.447 134.945 163.162C135.398 163.076 136.211 163.016 136.37 163.613ZM279.67 137.905C277.894 134.823 276.399 131.657 276.744 128.018C276.819 127.217 279.266 126.742 279.175 127.705C278.862 131.021 280.255 133.987 281.846 136.797C282.104 136.756 282.358 136.707 282.595 136.613C283.679 136.182 285.132 136.954 283.548 137.583C282.843 137.863 282.04 137.796 281.364 138.065C280.875 138.258 279.993 138.465 279.67 137.905ZM287.77 125.395C287.785 126.386 288.033 127.338 288.961 127.833C289.338 128.034 288.304 128.469 288.227 128.496C287.812 128.644 287.093 128.879 286.664 128.65C285.678 128.124 285.351 127.109 285.335 126.048C285.326 125.38 287.765 125.023 287.77 125.395ZM275.171 131.905C275.411 132.4 274.441 132.829 274.136 132.91C273.664 133.036 272.982 133.065 272.736 132.557C272.369 131.8 272.312 131.095 272.311 130.264C272.311 129.722 273.29 129.432 273.681 129.389C274.142 129.339 274.755 129.433 274.755 129.997C274.756 130.69 274.866 131.276 275.171 131.905ZM281.494 121.912C283.091 120.624 285.038 120.175 287.056 120.218C287.545 120.229 288.043 120.648 287.776 121.157C287.48 121.719 286.764 121.892 286.185 121.88C285.002 121.855 283.999 122.175 283.08 122.916C282.192 123.631 280.206 122.951 281.494 121.912ZM273.604 126.176C273.57 126.21 273.497 126.253 273.376 126.297C273.387 126.281 273.396 126.268 273.406 126.255C273.473 126.23 273.539 126.205 273.604 126.176ZM350.765 231.591C367.726 231.591 384.687 231.591 401.648 231.591C403.294 231.591 401.819 233.196 400.761 233.196C384.096 233.196 367.43 233.196 350.765 233.196C350.765 233.24 350.765 233.283 350.765 233.327C350.765 234.14 348.332 234.542 348.332 233.979C348.332 233.717 348.332 233.456 348.332 233.195C348.17 233.195 348.008 233.195 347.846 233.195C346.4 233.195 347.361 231.959 348.332 231.656C348.332 219.971 348.332 208.286 348.332 196.6C348.332 195.787 350.765 195.385 350.765 195.949C350.765 207.83 350.765 219.711 350.765 231.591ZM381.19 208.307C383.586 210.834 385.753 213.59 387.881 216.352C390.33 212.984 392.814 209.626 395.519 206.466C395.537 206.445 395.561 206.427 395.583 206.408C394.417 206.074 392.771 206.382 391.81 206.394C391.347 206.4 391.296 206.148 391.683 205.921C392.187 205.626 392.823 205.468 393.404 205.46C394.807 205.442 397.87 204.829 398.882 206.173C400.014 207.678 399.05 209.835 399.692 211.51C399.85 211.922 397.462 212.695 397.258 212.162C396.723 210.763 397.346 209.044 396.874 207.645C394.065 211.031 391.466 214.602 388.886 218.16C388.528 218.654 387.104 219.235 386.621 218.607C384.506 215.854 382.366 213.085 380.042 210.497C376.979 215.071 374.366 220.01 370.876 224.261C370.488 224.733 369.118 225.351 368.611 224.707C366.685 222.257 365.933 219.163 364.194 216.64C361.127 219.913 357.963 223.094 355.093 226.548C354.581 227.164 352.122 227.322 352.822 226.48C356.187 222.429 359.946 218.745 363.5 214.865C363.895 214.434 365.152 214.085 365.609 214.596C367.651 216.882 368.428 219.854 369.977 222.428C373.213 218.063 375.769 213.165 378.925 208.753C379.316 208.208 380.647 207.733 381.19 208.307ZM411.695 401.836C410.916 401.324 408.711 402.42 409.788 403.128C416.327 407.421 433.804 405.893 432.706 416.955C420.243 418.404 407.682 418.095 395.155 418.074C395.058 416.445 394.661 414.793 393.319 413.74C392.294 412.936 390.875 413.05 389.845 413.813C389.078 414.381 388.542 415.266 388.143 416.228C388.143 412.212 388.143 408.196 388.143 404.179C388.143 404.167 388.143 404.155 388.143 404.143C390.798 403.941 393.427 403.92 396.03 403.846C400.409 403.721 404.72 403.42 408.985 401.794C409.599 402.22 411.438 401.628 411.241 400.895C406.246 382.384 399.423 364.411 394.267 345.981C397.764 346.489 402.002 345.733 405.183 345.51C411.813 345.048 418.539 344.645 424.431 341.309C433.232 336.326 435.058 325.176 430.955 316.531C429.689 313.864 428.488 311.818 425.493 311.708C421.401 311.557 417.26 311.919 413.178 312.149C407.936 312.446 402.697 312.795 397.455 313.085C395.081 313.217 390.585 314.267 388.322 313.305C388.27 313.283 388.209 313.272 388.143 313.264C388.143 309.71 388.143 306.156 388.143 302.603C389.749 302.603 391.354 302.603 392.96 302.603C392.89 302.68 392.848 302.764 392.848 302.854C392.848 303.935 392.848 305.017 392.848 306.098C392.848 307.295 392.848 308.492 392.848 309.69C392.848 310.771 392.848 311.852 392.848 312.933C392.848 313.326 395.281 312.977 395.281 312.281C395.281 311.2 395.281 310.118 395.281 309.037C395.281 307.841 395.281 306.643 395.281 305.445C395.281 304.498 395.281 303.55 395.281 302.603C398.532 302.603 401.783 302.603 405.034 302.603C405.099 302.603 405.195 302.585 405.308 302.556C405.823 302.717 407.601 302.377 407.601 301.781C407.601 298.001 407.601 294.222 407.601 290.442C407.601 290.135 406.119 290.282 405.469 290.693C401.754 290.693 398.04 290.693 394.325 290.693C394.835 290.553 395.281 290.32 395.281 290.022C395.281 286.627 395.281 283.233 395.281 279.839C395.281 279.488 395.281 279.137 395.281 278.786C395.281 276.087 395.281 273.386 395.281 270.686C396.897 270.647 398.513 270.588 400.128 270.49C406.585 270.095 416.598 269.674 420.356 263.385C423.628 257.909 424.08 251.761 424.321 245.519C424.528 240.165 424.882 234.824 424.614 229.464C424.176 220.692 421.548 211.341 412.92 207.816C412.92 201.201 412.92 194.585 412.92 187.969C412.92 187.774 412.702 187.676 412.4 187.656C412.531 187.399 412.402 187.186 411.758 187.186C402.474 187.186 393.191 187.186 383.908 187.186C383.962 187.006 383.95 186.808 383.84 186.603C377.333 174.574 371.968 161.487 360.986 152.734C350.748 144.575 336.576 145.336 324.159 145.402C324.483 141.344 318.969 139.617 315.812 138.54C315.496 138.433 315.114 138.495 314.771 138.646C314.572 138.436 314.373 138.225 314.182 138.009C321.239 127.796 319.436 114.769 311.61 106.472C311.727 106.422 311.833 106.361 311.915 106.287C327.074 92.7031 288.476 76.9458 290.715 98.8708C279.691 100.304 269.11 108.68 268.549 119.943C268.504 120.029 268.502 120.1 268.535 120.157C268.532 120.225 268.523 120.291 268.522 120.359C268.517 120.542 268.569 120.687 268.656 120.803C268.579 120.918 268.53 121.047 268.519 121.189C267.925 129.116 270.436 138.652 275.67 145.219C275.703 145.26 275.739 145.297 275.772 145.338C276.918 146.757 278.185 148.042 279.584 149.13C282.933 151.737 286.399 150.904 290.293 150.599C293.232 150.368 295.178 151.345 296.604 152.942C295.574 153.469 294.776 154.756 294.454 156.026C294.093 157.447 293.795 159.235 293.705 161.016C288.905 166.685 281.65 169.802 277.222 175.784C271.577 183.41 270.679 194.287 268.208 203.415C267.613 202.451 267.034 201.477 266.5 200.474C266.282 200.066 265.752 199.99 265.253 200.121C265.397 199.645 265.139 199.196 264.265 199.313C264.119 199.333 263.965 199.358 263.815 199.38C262.11 193.735 264.761 188.311 265.784 182.608C266.085 180.928 266.617 174.303 263.453 174.852C260.793 175.314 260.202 178.196 259.181 180.332C258.819 181.086 258.37 181.77 257.877 182.417C255.154 179.909 253.956 176.318 251.962 173.253C250.333 170.75 247.425 168.424 244.414 169.888C243.272 170.442 242.748 171.342 242.635 172.435C241.632 171.573 240.471 171.079 239.075 171.497C236.607 172.236 236.291 174.254 236.909 176.615C235.672 176.417 234.407 176.799 233.448 177.85C232.08 179.351 232.985 181.812 233.685 183.505C233.497 183.468 233.306 183.443 233.112 183.435C231.232 183.36 229.812 184.216 229.832 186.106C229.87 189.743 233.635 193.425 235.931 195.859C239.58 199.726 243.831 203.056 248.14 206.16C247.634 206.71 247.187 207.301 246.798 207.932C246.576 208.099 246.354 208.329 246.404 208.629C246.323 208.88 246.394 209.067 246.556 209.194C247.032 210.636 248.116 212.13 248.781 213.402C250.533 216.748 252.307 220.084 254.064 223.428C255.883 226.89 257.691 230.357 259.44 233.854C260.064 235.102 262.359 238.334 262.091 239.804C262.036 240.107 262.206 240.286 262.475 240.371C262.503 240.418 262.6 240.449 262.803 240.449C262.925 240.449 263.047 240.449 263.169 240.449C264.073 242.645 265.537 244.782 266.631 246.816C269.317 251.815 272.01 256.809 274.66 261.827C277.38 266.977 280.065 272.151 282.575 277.407C283.487 279.314 284.364 281.24 285.146 283.203C285.428 283.912 285.68 284.632 285.889 285.365C285.982 285.694 285.959 286.003 285.993 286.163C285.533 286.288 285.225 286.619 285.143 286.961C284.923 287.098 284.776 287.265 284.776 287.457C284.776 288.536 284.776 289.616 284.776 290.696C268.222 290.696 251.667 290.696 235.112 290.696C235.123 290.66 235.133 290.623 235.133 290.585C235.133 289.325 235.133 288.065 235.133 286.805C235.133 286.677 234.984 286.604 234.759 286.579C234.752 286.563 234.738 286.548 234.714 286.537C234.599 286.32 234.342 286.158 233.923 286.121C233.882 286.061 233.829 286 233.754 285.942C233.053 285.398 236.847 278.023 237.26 277.148C239.751 271.883 242.461 266.72 245.175 261.568C247.82 256.548 250.517 251.555 253.204 246.558C254.322 244.478 255.79 242.31 256.715 240.069C257.328 239.79 257.794 239.46 257.104 239.46C257.05 239.46 256.998 239.46 256.944 239.46C257.001 239.301 257.066 239.143 257.117 238.984C257.423 238.029 254.959 238.351 254.672 239.247C254.649 239.318 254.618 239.389 254.594 239.46C241.177 239.46 227.761 239.46 214.345 239.46C217.521 233.565 218.786 226.693 219.753 220.135C219.787 219.905 219.732 219.728 219.623 219.596C219.762 219.359 219.643 219.163 219.005 219.158C218.457 219.154 217.91 219.138 217.362 219.124C222.702 212.939 229.347 205.212 230.254 196.946C230.524 194.483 229.222 193.215 226.886 194.06C226.483 194.205 226.111 194.397 225.764 194.622C226.157 192.643 226.474 190.043 224.963 188.618C223.8 187.52 222.314 187.811 221.078 188.511C221.241 185.934 220.627 183.899 218.236 183.788C216.583 183.712 215.512 184.55 214.707 185.722C214.437 184.589 213.818 183.768 212.666 183.502C205.483 181.839 204.824 194.013 202.359 198.759C201.827 198.356 201.309 197.931 200.831 197.46C199.248 195.904 197.505 191.499 194.63 193.074C191.652 194.704 194.072 200.336 195.082 202.547C197.492 207.82 201.277 212.206 200.281 218.296C199.754 217.811 198.163 218.168 197.962 219.042C196.802 224.094 194.51 229.017 192.253 233.654C191.03 236.168 186.858 245.411 182.783 246.401C178.745 246.857 175.242 238.669 173.789 235.955C171.042 230.826 168.385 225.651 165.61 220.539C163.79 217.187 161.47 214.473 158.59 212.34C158.855 212.229 159.083 212.065 159.212 211.845C161.506 207.898 161.023 204.435 159.698 200.223C158.032 194.932 153.326 191.058 153.188 185.281C153.18 184.93 153.002 184.696 152.747 184.56C153.316 181.84 153.085 178.977 152.058 176.255C153.086 175.7 153.813 174.694 153.863 173.327C153.933 171.389 153.026 168.801 151.403 167.377C151.875 167.255 152.286 167.055 152.329 166.764C153.023 162.032 152.737 156.046 150.019 151.95C147.83 148.651 143.863 149.824 141.055 151.606C140.96 151.626 140.867 151.645 140.783 151.664C135.817 145.174 125.555 148.238 119.422 151.061C115.468 152.881 112.229 155.679 110.07 159.461C106.736 165.303 108.049 172.641 105.437 178.805C103.22 184.033 98.51 187.983 94.9226 192.25C91.5023 196.316 88.912 200.854 87.7444 206.057C87.7142 206.192 87.6915 206.325 87.6655 206.46C87.584 206.449 87.4908 206.442 87.3833 206.444C80.9586 206.517 74.1542 207.437 69.4615 212.248C64.5579 217.276 64.368 225.445 64.363 231.991C64.3538 244.888 60.6312 267.13 77.2343 271.178C77.5526 271.255 78.0322 271.127 78.4371 270.917C77.7298 277.129 77.1268 282.183 82.9929 286.117C84.5056 287.132 86.1796 287.921 87.9444 288.547C87.6151 288.728 87.3791 288.978 87.3883 289.273C87.7755 301.347 82.2697 316.021 94.9159 323.691C95.2434 323.889 95.9398 323.759 96.4588 323.505C94.6471 328.688 95.3627 334.439 100.018 338.931C105.629 344.347 114.383 344.854 121.677 345.359C125.087 345.595 128.5 345.76 131.916 345.828C131.825 345.915 131.767 346.009 131.767 346.112C131.767 363.219 131.767 380.325 131.767 397.431C124.451 397.338 117.194 397.194 110.665 401.068C110.526 401.15 110.43 401.231 110.353 401.31C109.947 401.259 109.535 401.223 109.115 401.223C103.673 401.223 99.2458 405.651 99.2458 411.093C99.2458 416.535 103.673 420.962 109.115 420.962C114.203 420.962 118.402 417.092 118.927 412.14C119.079 412.118 119.232 412.077 119.38 412.012C125.586 409.25 132.321 409.701 138.948 409.737C139.145 409.738 139.377 409.672 139.606 409.572C139.606 412.918 139.606 416.263 139.606 419.609C139.606 419.673 139.675 419.715 139.78 419.741C139.436 419.947 139.313 420.127 139.822 420.127C143.206 420.127 146.589 420.127 149.971 420.127C150.479 420.127 152.744 419.137 151.551 419.137C151.44 419.137 151.327 419.137 151.215 419.137C151.252 419.08 151.278 419.019 151.278 418.956C151.278 394.266 151.278 369.576 151.278 344.887C154.108 344.922 156.936 344.999 159.766 345.005C159.853 345.005 160.002 344.973 160.176 344.921C159.54 349.098 159.699 353.521 159.846 357.614C160.069 363.835 160.388 369.953 159.562 376.153C159.159 379.181 158.746 383.557 157.199 386.426C156.993 386.517 156.814 386.632 156.692 386.762C156.628 386.792 156.571 386.822 156.532 386.853C146.518 394.86 154.784 404.792 153.471 415.132C153.448 415.319 153.512 415.373 153.687 415.443C156.892 416.735 161.026 416.675 164.362 415.567C166.418 417.963 169.414 419.236 173.537 419.366C177.468 419.49 181.429 419.47 185.362 419.515C188.388 419.55 191.344 419.386 194.106 418.066C194.503 417.876 194.839 417.671 195.129 417.455C200.164 417.798 205.305 418.682 210.351 418.343C211.81 418.246 216.516 417.313 216.781 415.298C217.53 409.612 213.244 406.476 209.455 402.918C204.543 398.306 199.643 393.522 198.454 386.612C198.427 386.457 198.224 386.388 197.95 386.38C197.927 385.714 198.001 385.021 198.196 384.295C198.21 384.244 198.226 384.192 198.241 384.14C198.286 383.986 198.333 383.832 198.389 383.675C198.417 383.598 198.433 383.527 198.439 383.461C202.112 370.995 206.195 358.979 211.342 346.988C214.707 339.148 219.037 330.794 219.971 322.209C220.939 313.313 216.751 307.095 209.521 302.605C240.176 302.605 270.831 302.605 301.486 302.605C301.367 302.703 301.277 302.812 301.239 302.933C295.969 319.798 292.732 337.313 289.759 354.704C287.162 369.893 284.884 385.172 283.28 400.5C283.246 400.829 283.509 400.988 283.871 401.029C284.257 401.544 284.88 401.893 285.582 402.139C278.288 406.694 260.041 404.865 262.239 417.928C262.295 418.264 262.742 418.356 263.008 418.39C276.105 420.044 289.317 419.666 302.485 419.65C303.02 419.65 303.676 419.23 303.964 418.824C304.293 418.68 304.542 418.482 304.563 418.264C304.725 416.607 305.064 413.126 306.522 416.073C307.005 417.048 307.323 418.137 307.595 419.189C307.665 419.463 308.107 419.468 308.315 419.468C311.255 419.468 314.195 419.468 317.135 419.468C317.573 419.468 318.73 419.245 318.841 418.684C319.853 413.573 321.606 406.786 320.548 401.362C321.21 400.936 320.894 400.443 320.293 400.282C320.257 400.152 320.222 400.022 320.181 399.894C321.785 384.663 324.069 369.491 326.628 354.394C329.574 337.002 332.84 319.482 338.108 302.622C338.11 302.616 338.108 302.611 338.11 302.605C341.949 302.605 345.789 302.605 349.627 302.605C349.595 302.686 349.578 302.769 349.591 302.856C349.977 305.424 350.413 307.985 350.884 310.539C347.945 311.453 342.957 309.697 340.596 312.004C336.186 316.314 333.112 321.948 332.014 328.024C329.379 342.587 347.311 345.125 357.717 345.636C358.175 345.659 358.842 345.328 359.168 344.989C360.057 348.148 360.963 351.299 361.876 354.442C363.989 361.717 366.181 368.977 368.489 376.201C368.488 379.122 368.489 382.043 368.465 384.963C368.462 385.385 368.615 386.414 368.526 387.065C368.441 387.129 368.371 387.193 368.333 387.252C368.096 387.622 368.255 388.58 368.249 388.975C368.203 391.793 368.207 394.611 368.211 397.43C360.896 397.337 353.639 397.193 347.11 401.067C346.971 401.15 346.875 401.23 346.798 401.309C346.392 401.258 345.98 401.223 345.56 401.223C340.118 401.223 335.691 405.65 335.691 411.092C335.691 416.534 340.118 420.961 345.56 420.961C350.648 420.961 354.847 417.091 355.372 412.139C355.524 412.117 355.677 412.076 355.825 412.011C362.031 409.249 368.766 409.7 375.393 409.736C375.715 409.738 376.136 409.565 376.471 409.342C376.471 412.811 376.471 416.28 376.471 419.749C376.471 419.824 376.561 419.872 376.705 419.895C376.56 420.029 376.593 420.126 376.967 420.126C380.071 420.126 383.173 420.126 386.276 420.126C386.595 420.126 387.605 419.737 388.019 419.446C388.691 419.422 389.584 419.114 389.693 418.682C390.001 417.462 390.415 416.25 390.98 415.124C391.044 414.998 391.118 414.878 391.193 414.759C391.316 414.863 391.433 414.974 391.544 415.088C392.466 416.027 392.655 417.523 392.725 418.767C392.735 418.951 392.946 419.042 393.237 419.061C393.096 419.377 393.233 419.648 393.915 419.649C407.185 419.665 420.505 420.051 433.702 418.384C434.194 418.322 434.966 418.059 435.064 417.479C437.236 404.574 418.774 406.485 411.695 401.836ZM388.143 402.653C388.143 379.039 388.143 355.425 388.143 331.811C393.154 355.159 402.181 377.395 408.494 400.428C401.955 403.083 395.012 402.111 388.143 402.653ZM391.769 314.6C395.762 314.456 399.751 314.19 403.739 313.946C410.785 313.516 418.447 312.251 425.496 313.059C428.131 313.361 430.005 320.858 430.412 323.041C431.269 327.654 430.272 332.46 427.66 336.336C423.37 342.701 415.469 343.375 408.505 344.029C405.23 344.336 401.943 344.514 398.654 344.571C397.325 344.594 395.485 344.835 394.202 344.386C394.104 344.351 393.973 344.345 393.826 344.356C391.658 336.439 389.805 328.435 388.563 320.261C388.534 320.068 388.371 319.954 388.143 319.903C388.143 318.192 388.143 316.481 388.143 314.77C389.378 314.826 390.725 314.636 391.769 314.6ZM392.849 279.44C392.849 279.791 392.849 280.142 392.849 280.493C392.849 283.887 392.849 287.281 392.849 290.676C392.849 290.683 392.855 290.689 392.856 290.695C390.729 290.695 388.6 290.695 386.473 290.695C387.051 283.702 385.587 277.031 383.455 270.507C384.74 270.67 386.118 270.612 387.335 270.654C389.172 270.717 391.011 270.737 392.849 270.726C392.849 273.631 392.849 276.536 392.849 279.44ZM287.209 290.584C287.209 289.68 287.209 288.776 287.209 287.872C315.982 287.872 344.756 287.872 373.529 287.872C373.529 288.812 373.529 289.753 373.529 290.694C344.749 290.694 315.968 290.694 287.188 290.694C287.199 290.659 287.209 290.622 287.209 290.584ZM294.227 226.388C295.55 230.717 296.808 235.06 297.808 239.458C293.869 239.458 289.932 239.458 285.993 239.458C289.846 235.984 292.417 231.23 294.227 226.388ZM300.882 162.519C300.979 162.545 301.086 162.547 301.194 162.55C301.283 162.61 301.383 162.658 301.493 162.689C301.486 163.536 303.503 163.365 303.876 162.569C304.092 162.106 304.327 161.648 304.554 161.187C304.973 161.134 305.388 161.025 305.562 160.894C306.176 160.432 306.697 160.176 307.199 160.089C307.178 160.15 307.165 160.213 307.166 160.279C307.189 162.619 307.971 166.578 306.422 168.627C306.194 168.761 306.016 168.929 305.947 169.124C305.528 169.477 305.005 169.742 304.325 169.864C299.617 170.708 299.928 165.644 299.955 162.405C300.252 162.404 300.558 162.432 300.882 162.519ZM311.199 239.458C300.094 219.088 301.532 194.02 301.624 171.473C302.432 171.574 303.275 171.542 304.058 171.453C304.709 171.379 305.343 171.222 305.942 170.996C306.248 194.083 310.786 219.064 321.861 239.458C318.307 239.458 314.754 239.458 311.199 239.458ZM376.683 187.202C376.435 188.077 376.435 188.844 376.51 189.747C376.564 190.387 376.679 191.027 376.753 191.666C376.803 192.101 376.986 195.154 375.127 193.943C373.459 192.857 373.372 187.665 373.455 185.922C373.545 184.039 374.704 182.977 376.527 182.863C378.981 182.71 380.352 185.204 381.149 187.189C380.502 187.189 379.857 187.189 379.211 187.189C379.155 187.189 379.097 187.194 379.037 187.204C379.057 187.092 379.08 186.981 379.11 186.872C379.341 186.061 376.905 186.42 376.683 187.202ZM372.096 183.71C371.542 184.365 371.16 185.196 371.028 186.25C370.772 188.303 371.317 190.68 371.709 192.694C371.797 193.147 371.965 193.574 372.189 193.96C372.085 193.978 371.985 193.992 371.865 194.031C368.877 195.017 368.909 189.6 368.772 187.868C368.691 186.854 368.696 185.85 368.914 184.853C369.285 183.152 370.747 183.369 372.091 183.699C372.095 183.7 372.099 183.701 372.102 183.701C372.101 183.705 372.098 183.707 372.096 183.71ZM367.226 193.675C367.269 193.787 367.319 193.89 367.37 193.991C367.163 193.899 366.847 193.884 366.406 194.031C363.453 195.017 363.479 189.732 363.309 187.954C363.219 187.013 363.169 186.075 363.289 185.134C363.537 183.171 365.031 183.636 366.528 184.137C366.654 184.18 366.832 184.179 367.031 184.149C366.575 184.845 366.302 185.743 366.289 186.876C366.264 189.11 366.423 191.585 367.226 193.675ZM361.465 184.074C361.028 184.721 360.771 185.58 360.776 186.698C360.787 188.924 360.958 191.382 361.689 193.488C361.755 193.677 361.834 193.845 361.919 194.003C361.873 194.016 361.836 194.017 361.787 194.033C358.004 195.288 356.219 184.735 360.806 184.001C361.033 183.965 361.281 183.962 361.541 183.976C361.515 184.009 361.489 184.04 361.465 184.074ZM377.285 260.9C380.959 270.511 384.755 280.25 384.077 290.694C381.365 290.694 378.654 290.694 375.942 290.694C375.953 290.658 375.963 290.622 375.963 290.583C375.963 289.323 375.963 288.063 375.963 286.803C375.963 286.681 375.816 286.611 375.596 286.587C375.591 286.566 375.573 286.549 375.543 286.535C375.412 286.288 375.105 286.107 374.576 286.107C365.746 286.107 356.917 286.107 348.087 286.107C348.523 284.439 346.945 281.717 346.445 280.52C344.148 275.026 341.407 269.706 338.711 264.4C338.701 264.38 338.691 264.361 338.681 264.342C347.731 265.02 357.103 264.922 366.096 264.284C369.695 264.029 374.069 263.08 377.285 260.9ZM422.191 230.616C422.399 234.76 422.141 238.911 421.949 243.048C421.668 249.096 421.695 255.112 419.272 260.78C416.117 268.167 406.325 268.249 399.426 268.672C398.046 268.756 396.665 268.803 395.282 268.831C395.282 268.756 395.282 268.681 395.282 268.605C395.282 268.298 393.795 268.446 393.147 268.859C391.709 268.865 390.271 268.853 388.835 268.819C387.294 268.783 384.653 268.898 383.419 268.496C383.217 268.431 382.993 268.431 382.77 268.478C381.686 265.354 380.484 262.259 379.31 259.176C379.468 259.005 379.626 258.833 379.771 258.651C383.888 253.506 379.14 246.905 376.857 241.846C388.067 241.846 399.277 241.846 410.487 241.846C410.487 241.883 410.487 241.92 410.487 241.958C410.487 242.616 412.92 242.184 412.92 241.306C412.92 230.937 412.92 220.567 412.92 210.197C420.041 214.078 421.801 222.799 422.191 230.616ZM410.498 188.565C410.495 188.584 410.488 188.603 410.488 188.623C410.488 194.943 410.488 201.265 410.488 207.586C409.795 207.998 409.402 208.764 410.354 209.074C410.401 209.089 410.441 209.11 410.488 209.126C410.488 219.611 410.488 230.096 410.488 240.58C387.677 240.58 364.868 240.58 342.058 240.58C342.023 240.58 341.984 240.585 341.947 240.589C341.947 223.333 341.947 206.076 341.947 188.819C346.547 188.819 351.147 188.819 355.748 188.819C355.601 192.864 357.626 196.641 362.089 195.16C362.323 195.083 362.494 194.984 362.638 194.879C363.702 195.727 365.286 195.635 366.709 195.16C367.291 194.966 367.572 194.66 367.615 194.398C368.631 195.798 370.555 195.692 372.169 195.16C372.472 195.06 372.682 194.926 372.835 194.787C373.397 195.312 374.131 195.635 374.987 195.624C376.578 195.603 377.984 195.156 378.83 193.735C379.73 192.225 379.091 190.328 378.976 188.564C389.484 188.565 399.991 188.565 410.498 188.565ZM375.643 176.059C376.606 177.917 377.544 179.781 378.477 181.629C377.978 181.553 377.446 181.534 376.87 181.599C375.723 181.729 374.629 182 373.697 182.472C371.729 182.012 369.717 182.083 368.286 182.947C366.586 182.409 364.728 182.231 363.282 182.729C359.798 182.309 356.916 183.798 356.026 186.934C354.78 186.934 353.534 186.934 352.289 186.934C349.561 184.41 348.58 180.635 346.277 177.774C345.839 177.23 343.511 178.054 343.999 178.66C346.048 181.206 347.038 184.461 349.156 186.934C346.658 186.934 344.16 186.934 341.662 186.934C340.984 186.934 340.541 187.358 340.434 187.804C339.938 187.968 339.512 188.255 339.512 188.623C339.512 206.402 339.512 224.18 339.512 241.959C339.512 242.461 340.926 242.327 341.597 241.846C352.58 241.846 363.563 241.846 374.547 241.846C374.37 242.008 374.286 242.193 374.369 242.379C376.379 246.89 380.912 253.28 377.904 257.935C377.181 258.069 376.357 258.46 376.469 258.758C376.542 258.951 376.616 259.144 376.69 259.338C376.65 259.375 376.607 259.41 376.566 259.447C376.471 259.531 376.377 259.618 376.278 259.698C374.694 261.007 372.799 261.803 370.778 262.295C367.539 263.082 363.988 263.092 360.905 263.172C353.308 263.368 345.487 263.463 337.896 262.814C337.056 261.17 336.211 259.531 335.36 257.893C333.644 254.585 331.918 251.282 330.186 247.983C328.803 245.35 326.921 242.58 325.899 239.739C326.086 239.596 326.105 239.484 325.799 239.464C325.77 239.378 325.733 239.293 325.706 239.207C325.558 238.742 324.901 238.668 324.303 238.823C313.068 218.141 308.551 192.738 308.36 169.38C308.719 168.97 309.021 168.499 309.245 167.963C310.156 165.792 309.751 163.151 309.643 160.801C309.648 160.805 309.653 160.807 309.658 160.811C311.138 161.72 312.515 162.801 313.971 163.75C314.013 163.777 314.062 163.797 314.117 163.813C314.291 164.706 316.192 164.579 316.486 163.665C317.449 160.663 318.627 157.764 319.903 154.89C320.085 154.482 320.261 154.073 320.447 153.666C321.389 151.596 322.918 149.392 323.72 147.19C323.948 147.189 324.175 147.188 324.403 147.188C336.897 147.128 349.844 146.759 360.118 154.947C361.639 156.159 363.035 157.492 364.35 158.901C368.984 163.87 372.462 169.913 375.643 176.059ZM319.341 142.239C322.962 144.154 321.388 146.732 320.035 149.304C317.989 153.194 316.244 157.323 314.803 161.495C314.771 161.587 314.739 161.679 314.708 161.771C314.034 161.268 313.343 160.754 312.633 160.286C311.618 159.619 310.561 159.053 309.431 158.815C308.003 158.514 306.605 158.928 305.345 159.603C308.509 153.502 312.474 147.693 316.955 142.544C317.037 142.45 317.089 142.365 317.129 142.282C317.462 142.056 317.678 141.741 317.624 141.425C318.202 141.677 318.775 141.94 319.341 142.239ZM290.122 142.364C290.207 142.326 290.296 142.291 290.368 142.247C291.228 141.731 292.089 141.216 292.98 140.756C293.333 141.624 293.364 142.561 292.703 143.352C292.139 144.027 291.216 143.153 290.769 142.626C290.642 142.476 290.389 142.426 290.095 142.441C290.103 142.415 290.113 142.39 290.122 142.364ZM271.214 127.508C271.9 127.503 273.196 127.245 273.229 126.759C273.238 126.62 273.271 126.513 273.329 126.386C273.344 126.353 273.36 126.324 273.376 126.297C273.191 126.365 272.891 126.435 272.416 126.475C272.724 126.449 273.077 126.374 273.406 126.254C273.546 126.063 273.693 126.087 273.604 126.175C273.768 126.101 273.922 126.018 274.05 125.914C274.48 125.565 273.665 125.581 273.497 125.595C272.718 125.661 271.646 125.94 271.116 126.598C270.91 124.733 270.849 122.86 270.988 121.012C271.003 120.815 270.952 120.661 270.862 120.538C270.936 120.425 270.982 120.299 270.985 120.162C270.989 120.01 271.006 119.862 271.014 119.71C274.12 116.19 280.389 113.838 284.984 114.407C286.27 114.566 287.49 116.614 288.383 117.424C289.21 118.175 290.924 118.701 292.024 118.712C293.73 118.73 295.496 117.875 296.925 119.165C297.982 120.118 298.434 121.751 298.821 123.069C298.903 123.351 298.964 123.843 299.05 124.377C298.964 124.506 298.931 124.644 298.984 124.786C300.678 129.397 299.73 134.319 294.885 136.538C292.339 137.704 289.053 137.854 286.339 138.469C283.142 139.193 279.231 140.256 276.984 142.824C275.915 141.18 275.019 139.42 274.266 137.799C272.773 134.584 271.706 131.073 271.214 127.508ZM294.71 149.082C297.841 147.945 300.728 146.144 302.904 143.661C307.266 138.685 303.826 130.758 302.889 125.184C302.88 125.134 302.863 125.091 302.843 125.048C304.971 120.85 312.151 126.712 310.589 130.598C310.57 130.647 310.543 130.696 310.52 130.745C310.205 131.42 309.621 132.03 308.677 132.507C308.192 132.752 307.785 133.3 308.121 133.831C310.054 136.88 312.119 139.701 314.911 141.977C310.202 147.396 306.034 153.516 302.758 159.945C301.675 156.689 300.518 152.604 297.905 150.583C296.92 149.822 295.841 149.355 294.71 149.082ZM296.408 159.283C296.485 158.1 296.64 156.922 296.9 155.766C296.987 155.374 297.109 154.991 297.264 154.621C297.429 154.74 297.658 154.792 297.913 154.789C299.021 156.741 299.767 159.115 300.581 161.365C300.205 161.386 299.829 161.432 299.453 161.504C298.84 161.311 297.86 161.591 297.585 162.101C297.106 162.323 296.658 162.595 296.253 162.912C296.205 161.684 296.333 160.411 296.408 159.283ZM281.93 173.171C282.113 172.992 282.302 172.812 282.494 172.631C282.556 172.574 282.617 172.514 282.68 172.457C286.138 169.313 290.34 166.82 293.752 163.6C293.824 164.361 293.95 165.087 294.155 165.735C294.223 165.948 294.399 166.076 294.624 166.141C294.646 166.148 294.666 166.156 294.689 166.161C295.128 166.26 295.725 166.133 296.139 165.882C296.481 165.759 296.746 165.591 296.782 165.403C296.859 165.009 296.992 164.651 297.15 164.315C297.248 164.106 297.36 163.912 297.487 163.732C297.485 163.844 297.483 163.954 297.481 164.067C297.454 165.874 297.497 167.746 298.279 169.348C298.517 169.834 298.838 170.206 299.205 170.51C299.203 170.528 299.196 170.545 299.196 170.564C299.174 193.272 297.447 218.734 308.424 239.458C305.741 239.458 303.057 239.458 300.375 239.458C300.375 239.421 300.378 239.385 300.37 239.346C296.749 223.035 289.412 207.504 288.611 190.629C288.574 189.849 286.133 190.345 286.178 191.281C286.723 202.791 290.31 213.675 293.685 224.607C293.096 224.699 292.466 224.95 292.346 225.296C291.663 227.286 290.858 229.298 289.896 231.233C289.059 232.918 288.085 234.53 286.968 236.025C286.085 237.208 285.102 238.304 284.009 239.29C283.947 239.347 283.885 239.402 283.822 239.458C281.162 239.458 278.502 239.458 275.841 239.458C272.387 239.458 268.933 239.458 265.479 239.458C265.395 239.234 265.305 239.011 265.234 238.786C265.133 238.472 264.8 238.339 264.411 238.331C264.045 237.119 263.12 235.738 262.718 234.905C260.985 231.314 259.123 227.782 257.275 224.248C255.364 220.596 253.43 216.956 251.513 213.307C250.861 212.067 250.213 210.827 249.578 209.578C249.176 208.791 249.168 208.416 249.011 208.393C249.486 207.601 250.081 206.88 250.785 206.235C251.666 205.428 252.705 204.735 253.824 204.136C256.332 202.792 259.266 201.936 261.895 201.43C261.929 201.506 261.951 201.581 261.985 201.658C262.203 202.134 263.637 201.762 264.202 201.359C264.219 201.423 264.242 201.489 264.277 201.556C267.1 206.861 270.965 211.496 273.964 216.694C274.52 217.659 276.836 216.736 276.189 215.614C274.18 212.131 271.786 208.897 269.574 205.549C269.851 205.404 270.069 205.207 270.142 204.97C272.907 195.918 273.621 184.849 278.868 176.819C279.622 175.665 280.5 174.62 281.456 173.643C281.609 173.483 281.77 173.327 281.93 173.171ZM235.887 192.423C234.192 190.428 232.644 188.088 232.266 185.454C232.027 183.785 233.852 185.836 234.226 186.181C235.181 187.061 235.955 188.132 236.658 189.242C237.162 190.119 237.661 190.998 238.12 191.899C238.557 192.757 240.924 191.976 240.553 191.248C240.421 190.986 240.279 190.728 240.141 190.47C240.165 190.426 240.176 190.385 240.156 190.35C239.803 189.741 239.387 189.009 238.91 188.254C237.592 185.943 236.264 183.639 235.493 181.071C235.246 180.248 235.147 179.411 235.329 178.568C235.722 176.736 238.3 180.232 238.502 180.63C239.508 182.604 240.121 184.224 241.525 185.737C241.725 186.076 241.897 186.378 242.025 186.629C242.318 187.204 243.477 187.041 244.099 186.651C244.698 186.414 245.137 186.016 244.779 185.722C244.459 185.458 244.168 185.19 243.893 184.917C242.944 183.167 241.908 181.465 240.998 179.693C240.437 178.605 239.955 177.483 239.556 176.326C239.471 176.081 238.96 172.293 239.77 172.959C241.386 174.285 242.789 175.987 244.059 177.808C245.421 180.615 247.351 183.366 248.046 184.734C248.483 185.591 250.851 184.811 250.48 184.082C250.399 183.923 250.307 183.758 250.217 183.593C250.289 183.442 250.291 183.278 250.192 183.109C249.117 181.282 247.951 179.51 246.742 177.768C245.611 175.631 244.821 173.425 245.255 171.402C245.606 169.763 248.527 172.736 248.909 173.164C249.915 174.289 250.615 175.684 251.31 177.011C252.621 179.514 253.856 182 256.086 183.822C256.206 183.919 256.374 183.968 256.566 183.983C254.453 186.323 252.144 188.428 251.971 191.992C251.952 192.39 254.369 192.08 254.405 191.34C254.612 187.076 258.182 184.605 260.634 181.529C261.396 180.572 261.864 179.346 262.365 178.241C262.555 177.808 262.757 177.381 262.961 176.955C262.974 176.992 262.975 177.024 262.991 177.063C264.721 181.266 262.653 186.309 261.544 190.41C260.67 193.643 260.393 196.725 261.309 199.821C257.286 200.643 252.836 202.158 249.637 204.751C244.66 201.108 239.885 197.133 235.887 192.423ZM278.667 264.171C275.723 258.528 272.702 252.924 269.687 247.319C268.504 245.122 266.94 242.815 265.883 240.449C271.534 240.449 277.183 240.449 282.832 240.449C282.821 240.823 284.212 240.714 284.809 240.449C292.876 240.449 300.943 240.449 309.01 240.449C309.349 240.702 310 240.645 310.53 240.449C314.503 240.449 318.477 240.449 322.451 240.449C322.699 240.634 323.115 240.653 323.529 240.571C324.363 242.746 325.772 244.859 326.831 246.881C329.473 251.921 332.122 256.958 334.726 262.018C337.403 267.22 340.045 272.445 342.499 277.758C343.374 279.652 344.214 281.565 344.948 283.52C345.191 284.168 345.454 285.777 345.776 286.109C326.666 286.109 307.555 286.109 288.446 286.109C288.894 284.352 287.115 281.392 286.583 280.175C284.202 274.724 281.416 269.441 278.667 264.171ZM116.638 302.56C116.689 302.588 116.784 302.604 116.935 302.604C124.129 302.604 131.323 302.604 138.517 302.604C138.88 302.604 139.243 302.604 139.606 302.604C139.606 302.616 139.606 302.629 139.606 302.64C139.606 312.154 139.606 321.666 139.606 331.179C116.13 334.551 101.798 312.538 103.783 291.186C107.731 291.501 111.698 291.637 115.667 291.705C115.667 295.282 115.667 298.858 115.667 302.435C115.668 302.604 116.123 302.635 116.638 302.56ZM100.968 316.312C93.4292 312.902 95.4383 297.705 97.5071 290.599C98.8056 290.754 100.093 290.879 101.351 290.986C100.557 298.73 101.847 306.467 104.868 313.171C104.793 313.2 104.722 313.232 104.663 313.271C103.313 314.145 102.072 315.172 100.968 316.312ZM153.379 285.824C152.184 283.009 150.47 281.324 147.312 282.115C143.878 282.977 141.098 286.842 137.749 283.558C137.577 283.39 137.293 283.33 136.981 283.345C136.05 278.407 136.764 272.993 139.563 269.259C139.668 269.286 139.793 269.305 139.957 269.303C148.056 269.247 156.51 268.207 163.389 273.359C163.668 273.568 164.147 273.551 164.586 273.406C164.351 273.605 164.265 273.831 164.471 274.027C167.622 277.013 169.103 281.818 168.38 286.107C167.903 286.107 167.426 286.107 166.949 286.107C167.145 285.913 167.265 285.674 167.238 285.403C166.824 281.249 166.511 276.304 162.764 273.703C161.91 273.111 159.756 274.297 160.88 275.078C164.276 277.436 164.432 282.32 164.805 286.056C164.806 286.074 164.815 286.089 164.818 286.108C164.195 286.108 163.572 286.108 162.948 286.108C163.03 286.014 163.07 285.917 163.038 285.824C161.425 281.073 161.819 275.751 156.514 273.469C155.941 273.223 153.717 274.124 154.531 274.473C159.362 276.551 159.132 281.772 160.491 286.108C159.789 286.108 159.087 286.108 158.385 286.108C157.61 283.229 157.329 280.027 155.665 277.487C154.001 274.945 150.833 274.661 148.071 274.741C147.425 274.759 145.404 275.767 147.017 275.72C150.238 275.627 152.71 276.644 154.051 279.655C154.951 281.676 155.263 283.953 155.785 286.108C154.988 286.108 154.192 286.108 153.397 286.108C153.421 286.016 153.42 285.921 153.379 285.824ZM171.718 286.108C171.398 286.108 171.079 286.108 170.759 286.108C171.665 281.52 170.127 276.292 166.732 273.075C166.444 272.802 165.801 272.853 165.256 273.047C165.601 272.76 165.727 272.387 165.295 272.063C163.772 270.923 162.171 270.081 160.518 269.443C160.127 268.012 159.916 266.688 159.877 265.403C159.831 263.898 160.031 262.451 160.497 260.974C160.5 260.978 160.504 260.982 160.508 260.986C164.709 265.661 171.035 272.332 177.516 272.153C176.21 274.829 174.945 277.524 173.761 280.254C173.32 281.272 171.608 284.302 171.718 286.108ZM138.16 286.175C138.291 286.215 138.424 286.241 138.557 286.271C138.648 286.284 138.736 286.308 138.832 286.308C140.063 286.522 141.365 286.362 142.769 285.866C144.166 285.372 145.429 284.5 146.747 283.838C148.867 282.774 149.947 284.263 150.758 286.05C150.767 286.069 150.775 286.088 150.785 286.107C150.726 286.107 150.667 286.107 150.609 286.107C148.924 286.107 147.238 286.107 145.553 286.107C144.872 286.107 144.41 286.534 144.311 286.967C144.093 287.102 143.947 287.266 143.947 287.455C143.947 288.534 143.947 289.615 143.947 290.694C142.772 290.694 141.597 290.694 140.423 290.694C140.414 290.405 140.014 290.182 139.537 290.104C138.757 288.865 138.12 287.466 137.64 285.979C137.812 286.051 137.985 286.122 138.16 286.175ZM146.358 290.695C146.37 290.659 146.38 290.623 146.38 290.584C146.38 289.68 146.38 288.776 146.38 287.872C146.513 287.872 146.645 287.872 146.778 287.872C175.418 287.872 204.059 287.872 232.7 287.872C232.7 288.812 232.7 289.753 232.7 290.694C203.954 290.694 175.209 290.694 146.465 290.694C146.429 290.695 146.393 290.695 146.358 290.695ZM254.22 240.448C253.188 242.903 251.516 245.309 250.296 247.579C247.28 253.185 244.265 258.791 241.315 264.432C238.558 269.701 235.817 274.996 233.4 280.434C232.962 281.42 231.279 284.344 231.364 286.108C212.336 286.108 193.308 286.108 174.281 286.108C174.241 286.052 174.189 285.995 174.12 285.941C173.421 285.396 176.951 278.345 177.339 277.497C178.239 275.528 179.179 273.577 180.131 271.632C180.527 271.383 180.662 271.02 180.58 270.717C182.062 267.716 183.583 264.732 185.112 261.757C187.711 256.695 190.363 251.66 193.007 246.621C193.973 244.776 195.201 242.868 196.066 240.9C196.132 240.749 196.198 240.6 196.26 240.449C197.736 240.449 199.212 240.449 200.688 240.449C218.531 240.448 236.376 240.448 254.22 240.448ZM210.834 239.458C206.097 239.458 201.36 239.458 196.623 239.458C196.628 239.44 196.637 239.421 196.643 239.402C196.947 238.445 194.483 238.768 194.198 239.665C194.145 239.831 194.077 239.998 194.017 240.163C193.874 240.27 193.821 240.361 193.928 240.409C192.91 243.104 191.109 245.745 189.797 248.243C186.931 253.704 184.07 259.166 181.271 264.661C180.3 266.567 179.338 268.478 178.388 270.396C172.295 271.149 165.161 262.632 161.68 258.744C161.619 258.675 161.542 258.625 161.46 258.581C161.483 258.534 161.499 258.49 161.522 258.443C163.116 255.227 164.184 252.142 164.356 248.526C164.733 240.595 156.727 235.412 157.161 227.447C157.187 226.974 154.77 227.307 154.727 228.099C154.316 235.627 161.073 240.736 161.886 248.051C162.345 252.184 160.518 255.998 158.746 259.572C157.245 262.602 157.085 265.44 157.723 268.563C152.438 267.266 146.729 267.662 141.164 267.715C141.133 267.502 140.922 267.334 140.429 267.292C131.581 266.541 122.769 266.483 113.901 266.394C110.148 266.357 106.379 266.499 106.737 262.107C106.745 262.088 106.757 262.071 106.762 262.052C108.748 254.818 110.576 247.524 111.614 240.087C112.202 235.878 113.474 228.327 109.619 225.205C108.967 224.678 106.719 225.629 107.355 226.144C111.293 229.332 109.622 237.277 109.031 241.505C108.089 248.249 106.375 254.895 104.581 261.46C104.442 261.59 104.345 261.74 104.322 261.911C103.778 265.931 105.702 267.444 109.543 267.844C118.908 268.819 128.478 268.147 137.912 268.783C133.121 274.271 133.144 283.917 136.794 290.216C134.469 290.251 132.134 290.171 129.815 290.144C122.227 290.056 114.623 290.067 107.045 289.673C99.8757 289.3 92.0878 288.637 85.6429 285.219C78.6227 281.497 80.4605 274.686 81.1896 268.064C82.2218 258.694 83.4582 249.363 85.8067 240.219C86.8079 236.32 88.0073 232.431 89.6419 228.767C89.7401 228.654 89.8006 228.535 89.7973 228.412C90.7565 226.308 91.8702 224.286 93.1747 222.379C94.2229 220.846 95.3904 219.386 96.7167 218.032C97.2585 217.478 97.8338 216.948 98.4243 216.43C102.049 213.241 106.522 210.682 111.124 208.551C110.879 211.85 110.126 215.513 111.208 218.612C112.143 221.29 114.99 220.59 117.473 220.499C118.688 220.455 119.814 220.56 120.588 221.273C120.794 221.464 120.978 221.692 121.129 221.978C122.589 224.744 121.705 228.936 124.695 230.813C128.918 233.463 134.929 235.654 139.939 235.632C140.09 235.632 140.258 235.592 140.428 235.53C140.61 235.534 140.814 235.512 141.022 235.466C141.006 235.486 140.989 235.506 140.973 235.527C140.427 236.257 142.814 235.936 143.197 235.423C144.665 233.464 148.579 231.43 148.612 228.605C148.637 226.486 146.596 224.593 146.425 222.803C146.337 221.875 146.752 220.974 148.222 220.084C148.292 220.041 148.352 219.995 148.418 219.952C152.572 217.208 148.695 212.298 145.946 208.854C148.352 209.564 150.737 210.333 153.035 211.358C160.406 214.648 163.563 221.857 166.932 228.67C169.225 233.308 171.893 238.01 174.649 242.388C175.84 244.281 177.278 246.123 179.094 247.144C179.021 247.435 179.146 247.729 179.605 247.933C184.902 250.288 189.336 243.113 191.573 239.505C195.274 233.533 198.542 226.518 200.24 219.627C204.99 219.739 209.728 220.151 214.476 220.34C214.618 220.426 214.97 220.428 215.357 220.375C215.993 220.396 216.629 220.409 217.265 220.419C216.308 226.882 215.073 233.576 211.899 239.356C211.896 239.362 211.894 239.369 211.89 239.374C211.873 239.405 211.868 239.431 211.855 239.459C211.514 239.458 211.174 239.458 210.834 239.458ZM149.541 176.716C152.204 183.486 149.478 189.949 143.857 194.412C139.283 198.044 134.365 198.45 134.097 205.454C133.965 208.93 136.043 212.097 137.269 215.265C138.979 219.685 139.888 224.277 140.11 228.943C138.561 225.458 136.658 222.17 134.399 219.003C132.543 216.4 130.553 213.837 128.56 211.336C126.47 208.712 123.613 206.911 121.686 204.146C124.032 200.536 124.723 195.291 123.901 191.272C123.497 189.293 122.174 188.201 120.367 187.495C118.71 186.847 117.481 186.418 117.077 184.535C116.722 182.879 117.326 181.209 118.313 180.448C119.361 180.568 120.73 181.466 121.849 182.352C122.774 183.177 123.283 184.141 123.955 185.249C124.389 185.964 125.646 185.447 126.082 185.048C129.172 182.213 128.151 178.884 126.819 175.55C128.133 175.013 129.491 174.585 130.772 173.97C131.095 176.126 132.549 178.047 134.8 178.99C139.447 180.94 142.055 176.335 141.654 172.202C142.41 172.202 143.166 172.202 143.922 172.202C143.943 172.202 143.968 172.197 143.989 172.197C144.997 174.186 147.98 179.494 145.215 180.31C143.727 180.748 144.168 182.445 145.668 182.003C148.744 181.096 149.036 178.848 148.422 176.451C148.5 176.479 148.575 176.51 148.654 176.535C148.949 176.625 149.246 176.684 149.541 176.716ZM122.995 220.264C121.266 218.222 119.122 218.873 116.764 219.246C111.368 220.099 113.366 210.769 113.604 207.445C115.054 206.822 116.503 206.234 117.929 205.679C118.17 205.608 118.394 205.542 118.596 205.484C118.567 205.519 118.539 205.558 118.509 205.592C118.139 206.014 119.173 205.99 119.964 205.784C121.308 207.483 122.94 208.847 124.55 210.329C126.839 212.438 128.536 215.212 130.408 217.676C134.31 222.812 137.373 228.06 139.436 234.126C137.296 233.937 134.619 233.35 132.119 232.453C129.646 231.566 127.351 230.38 125.941 228.985C125.412 228.461 125.085 227.81 124.863 227.092C124.178 224.882 124.493 222.033 122.995 220.264ZM144.722 169.602C144.667 169.973 144.64 170.345 144.64 170.712C144.561 170.734 144.485 170.762 144.412 170.793C143.443 170.793 142.472 170.793 141.503 170.793C141.468 170.793 141.427 170.801 141.39 170.803C140.956 169.264 140.043 167.926 138.594 167.203C138.635 167.156 138.647 167.121 138.612 167.103C136.075 165.758 133 167.466 131.657 169.705C131.087 170.655 130.791 171.651 130.722 172.63C130.397 172.629 130.056 172.717 129.827 172.827C128.682 173.381 127.475 173.783 126.292 174.244C125.738 172.877 125.216 171.52 124.988 170.207C124.625 168.108 131.005 163.494 132.475 161.913C133.836 160.45 135.201 159.019 136.838 157.859C139.519 155.958 141.61 158.675 142.964 160.864C142.961 160.879 142.959 160.894 142.966 160.905C143.685 162.007 144.266 163.193 144.805 164.398C144.62 164.311 144.439 164.22 144.267 164.109C143.797 163.807 143.159 163.928 142.667 164.127C142.5 164.195 141.537 164.733 141.999 165.03C142.646 165.446 143.319 165.725 144.047 165.968C144.492 166.116 145.005 166.044 145.448 165.864C145.638 166.311 145.829 166.755 146.021 167.197C145.344 167.798 144.865 168.635 144.722 169.602ZM136.104 167.914C138.161 168.831 138.958 171.028 139.21 173.127C139.345 174.245 139.156 178.674 137.314 178.248C134.635 177.628 133.119 174.977 133.148 172.403C133.165 170.969 134.307 167.183 136.118 167.839C136.086 167.876 136.078 167.903 136.104 167.914ZM144.873 225.835C147.418 229.421 144.844 231.44 142.488 233.817C142.861 227.846 142.199 222.076 140.331 216.367C139.258 213.084 136.699 209.514 136.485 206.03C136.482 205.988 136.485 205.952 136.482 205.911C138.344 206.611 140.242 207.202 142.152 207.756C143.643 209.888 145.233 211.943 146.634 214.139C147.533 215.547 148.092 216.699 147.785 218.426C147.573 219.621 145.828 219.994 145.1 220.75C143.597 222.307 143.642 224.098 144.873 225.835ZM196.067 197.876C195.913 197.178 195.823 196.472 195.796 195.758C195.82 195.503 195.842 195.249 195.866 194.994C197.015 196.261 197.947 197.713 199.177 198.923C202.151 201.847 206.32 202.625 207.642 207.102C207.815 207.689 210.241 207.011 210.075 206.45C209.109 203.175 206.482 201.593 203.907 199.854C203.992 199.799 204.065 199.739 204.115 199.674C205.745 197.496 206.431 194.993 207.066 192.384C207.376 191.118 210.375 182.202 211.985 185.835C212.704 187.458 212.506 189.519 211.991 191.624C211.151 193.751 210.4 195.916 209.739 198.104C209.686 198.279 209.74 198.404 209.858 198.489C209.817 198.642 209.774 198.798 209.739 198.944C209.517 199.88 211.974 199.502 212.176 198.65C212.491 197.321 213.754 194.035 214.436 190.853C215.219 188.843 216.18 186.933 217.409 185.298C220.033 186.267 217.435 194.652 216.391 198.128C216.188 198.478 215.967 198.827 215.701 199.18C215.397 199.585 215.73 199.77 216.23 199.794C216.788 200.109 218.318 199.735 218.475 199.07C218.538 198.806 218.638 198.46 218.764 198.051C219.673 196.488 220.106 194.898 220.382 192.979C220.589 191.543 221.106 190.499 222.154 189.484C222.886 188.775 223.506 191.174 223.554 191.487C223.965 194.191 223.065 197.099 222.171 199.875C221.816 200.835 221.526 201.795 221.271 202.665C221.259 202.703 221.267 202.735 221.284 202.766C221.211 203.034 221.141 203.3 221.079 203.563C220.858 204.499 223.315 204.12 223.516 203.269C223.671 202.611 223.843 201.957 224.023 201.306C224.909 199.124 227.124 194.283 227.616 195.511C228.521 197.772 227.191 200.714 226.321 202.782C223.812 208.743 219.557 214.139 215.361 219.056C211.102 218.883 206.851 218.535 202.592 218.384C202.6 218.365 202.613 218.346 202.617 218.326C204.196 210.447 197.914 205.033 196.067 197.876ZM151.43 173.977C151.436 174.364 151.367 174.74 151.257 175.109C150.881 175.053 150.355 175.162 149.933 175.341C148.441 174.616 147.534 173.05 147.187 171.418C146.985 170.463 147.023 169.443 147.259 168.501C147.329 168.223 147.444 167.963 147.572 167.707L147.652 167.877L148.444 167.694C149.74 168.458 150.529 170.084 150.996 171.428C151.28 172.247 151.416 173.112 151.43 173.977ZM145.997 151.084C145.154 151.099 144.38 151.145 143.693 151.21C144.57 150.831 145.335 150.814 145.997 151.084ZM66.9005 235.887C66.7602 229.667 66.5603 223.261 68.6887 217.315C71.4118 209.707 79.2182 208.024 86.4686 207.94C86.7894 207.937 87.1716 207.773 87.4866 207.556C87.2623 209.315 87.3194 211.078 87.5563 212.849C87.9746 215.976 88.2106 216.756 86.0746 218.903C82.5326 222.465 84.4233 225.816 87.2027 228.88C86.0301 231.65 85.0785 234.529 84.2075 237.372C80.9947 247.86 79.7675 258.859 78.5715 269.721C63.8187 266.01 67.16 247.379 66.9005 235.887ZM89.8317 289.145C91.6275 289.656 93.488 290.028 95.3543 290.309C93.8937 294.86 93.4728 299.805 93.535 304.55C93.5938 309.011 94.3077 315.603 99.2147 317.343C99.4331 317.42 99.7699 317.36 100.118 317.25C98.7435 318.85 97.628 320.632 96.8444 322.509C84.8433 315.219 90.0291 300.674 89.8317 289.145ZM124.098 344.171C116.492 343.702 108.31 343.231 102.286 338.006C94.4967 331.247 98.0396 319.725 105.448 314.379C111.533 326.762 123.663 335.255 139.455 332.957C139.508 332.95 139.557 332.935 139.607 332.923C139.607 336.821 139.607 340.719 139.607 344.617C138.242 344.748 136.692 344.576 135.453 344.577C131.665 344.58 127.878 344.405 124.098 344.171ZM109.116 419.281C104.6 419.281 100.926 415.607 100.926 411.091C100.926 406.576 104.6 402.902 109.116 402.902C113.631 402.902 117.305 406.576 117.305 411.091C117.305 415.607 113.631 419.281 109.116 419.281ZM118.97 410.793C118.847 406.713 116.243 403.255 112.613 401.873C118.47 398.577 125.249 399.004 131.768 399.1C131.768 399.216 131.768 399.332 131.768 399.448C131.768 399.841 134.202 399.492 134.202 398.796C134.202 398.666 134.202 398.536 134.202 398.405C134.488 398.066 134.567 397.701 134.202 397.539C134.202 380.309 134.202 363.08 134.202 345.85C134.623 345.853 135.046 345.863 135.467 345.862C136.762 345.861 138.232 345.949 139.607 345.797C139.607 366.652 139.607 387.507 139.607 408.363C132.584 408.317 125.553 408.046 118.97 410.793ZM141.977 419.135C142.014 419.078 142.04 419.018 142.04 418.955C142.04 380.171 142.04 341.388 142.04 302.604C144.309 302.604 146.577 302.604 148.846 302.604C148.846 312.089 148.846 321.573 148.846 331.057C148.392 331.471 148.243 332.054 148.846 332.295C148.846 361.242 148.846 390.189 148.846 419.136C146.556 419.135 144.267 419.135 141.977 419.135ZM185.456 302.812C185.656 302.927 185.836 303.05 186.031 303.166C173.524 305.326 164.544 318.1 164.643 330.511C164.357 330.52 164.082 330.532 163.841 330.537C159.617 330.619 155.489 331.077 151.278 330.731C151.278 321.355 151.278 311.979 151.278 302.603C162.683 302.603 174.087 302.603 185.491 302.603C185.404 302.693 185.38 302.769 185.456 302.812ZM151.279 343.91C151.279 340.135 151.279 336.36 151.279 332.585C153.438 332.739 155.593 332.735 157.769 332.65C158.958 332.604 165.129 331.439 165.887 332.601C165.979 332.741 166.113 332.835 166.268 332.896C166.176 332.938 166.094 332.983 166.039 333.034C162.704 336.013 161.084 339.879 160.326 344.036C157.31 344.01 154.295 343.921 151.279 343.91ZM159.165 386.934C160.475 384.867 160.839 381.878 161.337 379.545C162.487 374.156 162.708 368.697 162.537 363.208C162.24 353.67 159.945 340.497 167.962 333.334C168.423 332.922 168.183 332.725 167.734 332.676C168.16 332.404 168.409 331.978 168.114 331.528C167.875 331.161 167.52 330.931 167.116 330.776C166.841 319.722 174.422 306.914 185.939 304.986C186.619 304.872 187.081 304.334 187.162 303.863C195.784 309.532 198.73 317.519 195.862 327.866C193.571 336.132 189.159 343.979 185.256 351.585C179.236 363.317 176.108 375.887 172.517 388.545C172.499 388.611 172.517 388.664 172.557 388.706C172.515 388.783 172.492 388.864 172.504 388.948C172.891 391.706 173.978 394.005 175.475 396.038C175.304 396.23 175.248 396.45 175.407 396.67C176.932 398.77 179.199 400.734 179.012 403.559C178.743 407.618 169.852 400.314 169.178 399.775C164.823 396.291 161.15 392.218 159.129 386.976C159.141 386.961 159.156 386.948 159.165 386.934ZM183.644 375.58C183.364 378.169 183.096 380.759 182.84 383.35C182.319 383.337 181.694 383.448 181.422 383.657C178.401 385.985 176.67 388.999 176.236 392.491C175.609 391.199 175.15 389.813 174.938 388.298C174.933 388.259 174.918 388.225 174.897 388.194C174.906 388.176 174.919 388.158 174.924 388.14C178.192 376.62 181.174 365.382 186.056 354.591C185.21 361.582 184.399 368.577 183.644 375.58ZM177.185 418.222C169.54 418.307 165.222 415.671 163.735 407.889C163.605 407.211 161.159 407.795 161.301 408.541C161.783 411.058 162.587 413.131 163.746 414.773C161.558 415.371 155.902 416.041 156.038 413.488C156.199 410.448 155.681 407.564 155.004 404.612C153.595 398.469 152.557 392.962 156.984 388.349C160.243 396.054 167.507 402.237 174.554 406.424C175.972 407.267 179.142 406.775 180.177 405.458C181.198 404.158 181.473 402.966 181.315 401.831C186.071 405.678 191.453 409.141 194.036 414.498C196.512 419.634 180.101 418.189 177.185 418.222ZM210.655 407.107C214.353 410.748 217.039 417.43 209.347 417.345C205.014 417.297 200.664 416.646 196.34 416.373C196.281 416.369 196.198 416.379 196.106 416.397C197.904 413.336 193.081 408.88 190.781 406.789C186.927 403.286 181.818 400.1 178.423 395.885C178.58 395.734 178.674 395.559 178.653 395.366C178.232 391.438 179.302 388.029 181.925 385.349C181.25 389.728 184.299 393.884 187.023 397.008C189.598 399.962 193.627 403.955 197.69 404.617C200.561 405.086 202.99 402.656 203.242 399.951C205.615 402.431 208.244 404.734 210.655 407.107ZM206.174 302.812C214.762 307.752 218.986 314.799 217.235 324.708C215.75 333.108 211.605 341.195 208.256 348.976C203.41 360.228 199.641 371.59 196.197 383.291C196.151 383.35 196.11 383.413 196.086 383.482C195.901 384 195.784 384.506 195.698 385.009C195.437 385.906 195.173 386.801 194.915 387.703C194.847 387.941 195.218 388.02 195.688 387.989C195.944 389.537 196.563 391.048 197.387 392.56C197.954 393.602 203.918 404.402 198.41 402.931C192.874 401.454 184.963 393.459 184.347 386.938C184.677 386.769 184.942 386.545 185 386.306C185.006 386.282 185.012 386.257 185.018 386.233C185.05 386.1 185.024 385.996 184.963 385.914C184.874 385.169 185.209 383.732 185.279 383.007C185.57 380.032 185.89 377.058 186.211 374.087C187.099 365.857 188.057 357.635 189.079 349.42C189.109 349.187 188.995 349.035 188.808 348.944C192.83 341.124 197.143 333.043 199.019 324.434C201.115 314.819 196.676 307.521 188.794 302.604C194.6 302.604 200.406 302.604 206.211 302.604C206.123 302.693 206.098 302.769 206.174 302.812ZM335.676 302.931C330.406 319.796 327.169 337.312 324.195 354.703C321.631 369.702 319.381 384.791 317.779 399.927C317.678 400.043 317.632 400.165 317.674 400.288C317.692 400.342 317.704 400.399 317.722 400.453C317.72 400.468 317.719 400.483 317.717 400.499C317.702 400.644 317.749 400.753 317.833 400.837C317.836 400.851 317.84 400.863 317.844 400.876C312.482 402.678 305.955 402.372 300.498 402.258C297.568 402.198 294.639 401.991 291.73 401.629C290.338 401.456 286.864 401.297 285.997 399.881C285.944 399.793 285.862 399.728 285.767 399.678C287.37 384.519 289.644 369.417 292.19 354.391C295.137 336.999 298.402 319.479 303.671 302.619C303.672 302.613 303.671 302.608 303.672 302.602C314.423 302.602 325.172 302.602 335.923 302.602C335.804 302.702 335.713 302.81 335.676 302.931ZM316.58 418.256C315.144 418.256 313.708 418.256 312.272 418.256C311.31 418.256 310.348 418.256 309.386 418.256C310.472 418.256 309.623 417.113 309.22 416.041C307.255 410.811 302.952 414.054 302.221 418.076C294.644 418.094 287.067 418.188 279.491 417.982C275.302 417.869 271.12 417.595 266.949 417.177C263.379 416.819 264.149 413.445 265.951 411.211C270.759 405.249 281.205 406.966 287.335 402.94C287.49 402.839 287.596 402.742 287.67 402.649C287.941 402.698 288.201 402.744 288.427 402.788C292.09 403.501 295.87 403.68 299.591 403.789C305.513 403.964 312.34 404.134 318.167 402.283C319.044 407.297 317.575 413.393 316.58 418.256ZM159.968 301.614C157.186 301.614 154.401 301.614 151.618 301.614C140.583 301.614 129.549 301.614 118.515 301.614C118.424 301.614 118.275 301.647 118.102 301.699C118.102 298.518 118.102 295.337 118.102 292.156C118.102 292.017 118.102 291.878 118.102 291.74C121.99 291.782 125.879 291.778 129.755 291.824C129.772 291.824 129.788 291.824 129.804 291.824C132.481 291.856 135.188 291.968 137.869 291.852C137.889 291.879 137.907 291.909 137.927 291.935C138.218 292.312 139.24 292 139.865 291.684C228.256 291.684 316.645 291.684 405.035 291.684C405.071 291.684 405.117 291.678 405.168 291.669C405.168 294.984 405.168 298.299 405.168 301.613C323.434 301.614 241.701 301.614 159.968 301.614ZM362.132 302.604C366.911 302.604 371.691 302.604 376.47 302.604C376.47 326.306 376.47 350.008 376.47 373.71C376.47 379.859 376.47 386.007 376.47 392.155C376.296 391.658 376.128 391.159 375.956 390.663C374.216 385.639 372.54 380.591 370.925 375.524C370.925 375.301 370.925 375.079 370.925 374.857C370.925 374.778 370.824 374.731 370.668 374.708C368.461 367.76 366.352 360.78 364.31 353.789C359.422 337.053 354.762 320.067 352.122 302.808C352.111 302.74 352.1 302.672 352.089 302.604C355.436 302.604 358.784 302.604 362.132 302.604ZM358.673 344.291C347.673 343.751 332.024 341.09 334.646 326.597C335.119 323.98 336.241 321.469 337.466 319.132C338.318 317.507 340.743 312.815 342.682 312.462C345.39 311.967 348.412 312.419 351.105 311.729C353.183 322.705 355.969 333.567 358.984 344.331C358.897 344.312 358.798 344.296 358.673 344.291ZM345.559 419.281C341.044 419.281 337.37 415.607 337.37 411.091C337.37 406.576 341.044 402.902 345.559 402.902C350.075 402.902 353.749 406.576 353.749 411.091C353.749 415.607 350.075 419.281 345.559 419.281ZM376.341 408.365C369.221 408.326 362.087 408.009 355.413 410.794C355.29 406.714 352.685 403.256 349.056 401.874C354.913 398.578 361.691 399.004 368.211 399.101C368.211 399.217 368.211 399.333 368.211 399.449C368.211 399.842 370.644 399.492 370.644 398.797C370.644 398.666 370.645 398.536 370.645 398.405C370.929 398.067 371.007 397.704 370.647 397.541C370.647 394.809 370.647 392.077 370.669 389.345C370.673 388.923 370.52 387.894 370.609 387.243C370.694 387.179 370.763 387.115 370.801 387.056C371.039 386.686 370.879 385.728 370.886 385.333C370.895 384.755 370.894 384.176 370.899 383.597C372.553 388.578 374.263 393.54 376.049 398.47C376.112 398.645 376.268 398.75 376.469 398.804C376.469 401.994 376.469 405.184 376.469 408.375C376.427 408.37 376.39 408.365 376.341 408.365ZM378.903 419.096C378.903 380.265 378.903 341.435 378.903 302.604C381.172 302.604 383.441 302.604 385.709 302.604C385.709 341.448 385.709 380.292 385.709 419.136C383.438 419.136 381.166 419.136 378.895 419.136C378.897 419.122 378.903 419.109 378.903 419.096ZM348.146 124.172C351.678 125.172 355.99 124.771 359.612 124.9C360.159 124.919 363.882 124.697 364.086 125.396C364.304 126.145 364.045 127.244 363.941 128.003C363.769 129.248 363.463 130.488 363.127 131.698C362.833 132.757 364.752 132.443 365.162 132.142C368.102 129.978 371.099 127.837 374.268 126.02C376.89 124.518 380.535 125.242 383.483 125.163C385.818 125.101 388.17 124.98 390.469 124.54C390.604 124.514 390.741 124.499 390.876 124.471C398.329 122.238 401.655 116.631 402.562 109.164C403.069 104.99 402.902 100.626 402.817 96.4283C402.74 92.5881 402.405 88.3203 400.501 84.8992C398.527 81.3522 395.653 79.3775 391.754 78.3746C388.382 77.5078 384.823 78.5804 381.41 78.5804C374.679 78.5804 367.982 78.2326 361.254 78.0764C354.356 77.9168 346.887 77.4742 342.22 83.4167C337.388 89.5702 338.616 99.7444 338.853 107.022C339.077 113.913 340.596 122.035 348.146 124.172ZM341.354 94.2856C341.572 90.3841 342.399 86.4691 344.854 83.342C347.621 79.8176 352.326 79.9041 356.375 79.8067C362.524 79.6588 368.65 80.3291 374.793 80.3291C376.924 80.3291 379.054 80.3291 381.185 80.3291C385.559 80.3291 389.505 79.06 393.684 81.1363C400.958 84.7506 400.43 95.1054 400.363 101.89C400.28 110.27 399.999 119.973 390.437 122.837C384.871 124.003 378.265 121.896 373.199 124.618C370.786 125.915 368.49 127.478 366.25 129.092C366.959 126.221 367.145 123.364 363.451 123.257C359.601 123.145 355.753 122.996 351.907 122.811C347.144 122.581 344.314 119.983 342.724 115.662C340.357 109.23 340.977 101.03 341.354 94.2856ZM158.553 147.244C162.631 147.717 166.808 147.713 170.906 147.858C171.453 147.877 175.176 147.655 175.38 148.354C175.598 149.103 175.339 150.202 175.234 150.961C175.063 152.206 174.756 153.446 174.421 154.656C174.127 155.715 176.046 155.401 176.456 155.1C179.395 152.936 182.393 150.795 185.562 148.978C188.184 147.476 191.829 148.201 194.776 148.122C197.249 148.055 199.743 147.937 202.17 147.429C206.809 146.229 212.755 145.884 213.856 140.325C214.59 136.619 214.187 132.384 214.111 128.625C214.034 124.785 213.699 120.517 211.794 117.096C209.821 113.549 206.947 111.574 203.048 110.571C199.759 109.725 196.353 110.777 193.03 110.777C186.557 110.777 180.122 110.487 173.652 110.299C167.626 110.124 159.359 109.237 154.79 114.126C149.085 120.231 150.047 129.44 150.095 137.16C150.134 143.59 152.06 146.491 158.553 147.244ZM152.732 125.419C153.058 121.313 154.193 117.176 157.354 114.346C160.288 111.719 165.057 112.035 168.732 111.992C174.632 111.922 180.515 112.526 186.412 112.526C188.543 112.526 190.673 112.526 192.803 112.526C197.102 112.526 200.851 111.283 204.977 113.333C212.251 116.947 211.723 127.302 211.656 134.086C211.629 136.792 212.01 139.994 210.745 142.49C209.555 144.834 203.928 145.226 201.73 145.794C196.164 146.96 189.558 144.853 184.492 147.576C182.079 148.872 179.783 150.435 177.543 152.049C178.252 149.178 178.438 146.322 174.744 146.214C170.894 146.102 167.046 145.954 163.2 145.768C160.383 145.632 156.908 145.739 154.472 144.11C152.174 142.573 152.564 138.172 152.55 135.887C152.529 132.395 152.454 128.905 152.732 125.419Z" fill="#3C4B91"/>
</g>
</g>
<defs>
<linearGradient id="paint0_linear_2032_4893" x1="244.457" y1="147.167" x2="244.457" y2="404.18" gradientUnits="userSpaceOnUse">
<stop stop-color="#FFBD55"/>
<stop offset="1" stop-color="#FFF2C5"/>
</linearGradient>
<clipPath id="clip0_2032_4893">
<rect width="371" height="316" fill="white" transform="translate(64 78)"/>
</clipPath>
</defs>
</svg>
