<svg width="64" height="64" viewBox="0 0 64 64" fill="none" xmlns="http://www.w3.org/2000/svg">
<path d="M14 6H50V58H14V6Z" fill="white"/>
<path d="M5 59C5 58.4477 5.44772 58 6 58H58C58.5523 58 59 58.4477 59 59C59 59.5523 58.5523 60 58 60H6C5.44771 60 5 59.5523 5 59Z" fill="url(#paint0_linear_515_2853)"/>
<path d="M58 57H51V7H54C54.2652 7 54.5196 6.89464 54.7071 6.70711C54.8946 6.51957 55 6.26522 55 6C55 5.73478 54.8946 5.48043 54.7071 5.29289C54.5196 5.10536 54.2652 5 54 5H10C9.73478 5 9.48043 5.10536 9.29289 5.29289C9.10536 5.48043 9 5.73478 9 6C9 6.26522 9.10536 6.51957 9.29289 6.70711C9.48043 6.89464 9.73478 7 10 7H13V57H6C5.73478 57 5.48043 57.1054 5.29289 57.2929C5.10536 57.4804 5 57.7348 5 58C5 58.2652 5.10536 58.5196 5.29289 58.7071C5.48043 58.8946 5.73478 59 6 59H58C58.2652 59 58.5196 58.8946 58.7071 58.7071C58.8946 58.5196 59 58.2652 59 58C59 57.7348 58.8946 57.4804 58.7071 57.2929C58.5196 57.1054 58.2652 57 58 57ZM15 7H49V57H39V46C39 45.7348 38.8946 45.4804 38.7071 45.2929C38.5196 45.1054 38.2652 45 38 45H26C25.7348 45 25.4804 45.1054 25.2929 45.2929C25.1054 45.4804 25 45.7348 25 46V57H15V7ZM37 57H27V47H37V57ZM23 16C23 15.7348 23.1054 15.4804 23.2929 15.2929C23.4804 15.1054 23.7348 15 24 15H28C28.2652 15 28.5196 15.1054 28.7071 15.2929C28.8946 15.4804 29 15.7348 29 16C29 16.2652 28.8946 16.5196 28.7071 16.7071C28.5196 16.8946 28.2652 17 28 17H24C23.7348 17 23.4804 16.8946 23.2929 16.7071C23.1054 16.5196 23 16.2652 23 16ZM35 16C35 15.7348 35.1054 15.4804 35.2929 15.2929C35.4804 15.1054 35.7348 15 36 15H40C40.2652 15 40.5196 15.1054 40.7071 15.2929C40.8946 15.4804 41 15.7348 41 16C41 16.2652 40.8946 16.5196 40.7071 16.7071C40.5196 16.8946 40.2652 17 40 17H36C35.7348 17 35.4804 16.8946 35.2929 16.7071C35.1054 16.5196 35 16.2652 35 16ZM23 26C23 25.7348 23.1054 25.4804 23.2929 25.2929C23.4804 25.1054 23.7348 25 24 25H28C28.2652 25 28.5196 25.1054 28.7071 25.2929C28.8946 25.4804 29 25.7348 29 26C29 26.2652 28.8946 26.5196 28.7071 26.7071C28.5196 26.8946 28.2652 27 28 27H24C23.7348 27 23.4804 26.8946 23.2929 26.7071C23.1054 26.5196 23 26.2652 23 26ZM35 26C35 25.7348 35.1054 25.4804 35.2929 25.2929C35.4804 25.1054 35.7348 25 36 25H40C40.2652 25 40.5196 25.1054 40.7071 25.2929C40.8946 25.4804 41 25.7348 41 26C41 26.2652 40.8946 26.5196 40.7071 26.7071C40.5196 26.8946 40.2652 27 40 27H36C35.7348 27 35.4804 26.8946 35.2929 26.7071C35.1054 26.5196 35 26.2652 35 26ZM24 37C23.7348 37 23.4804 36.8946 23.2929 36.7071C23.1054 36.5196 23 36.2652 23 36C23 35.7348 23.1054 35.4804 23.2929 35.2929C23.4804 35.1054 23.7348 35 24 35H28C28.2652 35 28.5196 35.1054 28.7071 35.2929C28.8946 35.4804 29 35.7348 29 36C29 36.2652 28.8946 36.5196 28.7071 36.7071C28.5196 36.8946 28.2652 37 28 37H24ZM35 36C35 35.7348 35.1054 35.4804 35.2929 35.2929C35.4804 35.1054 35.7348 35 36 35H40C40.2652 35 40.5196 35.1054 40.7071 35.2929C40.8946 35.4804 41 35.7348 41 36C41 36.2652 40.8946 36.5196 40.7071 36.7071C40.5196 36.8946 40.2652 37 40 37H36C35.7348 37 35.4804 36.8946 35.2929 36.7071C35.1054 36.5196 35 36.2652 35 36Z" fill="#202529"/>
<path d="M27 47H37V57H27V47Z" fill="url(#paint1_linear_515_2853)"/>
<path d="M15 7H49V10H15V7Z" fill="url(#paint2_linear_515_2853)"/>
<defs>
<linearGradient id="paint0_linear_515_2853" x1="5" y1="32.5" x2="59" y2="32.5" gradientUnits="userSpaceOnUse">
<stop stop-color="#F6C170"/>
<stop offset="1" stop-color="#FFEAA2"/>
</linearGradient>
<linearGradient id="paint1_linear_515_2853" x1="5" y1="32.5" x2="59" y2="32.5" gradientUnits="userSpaceOnUse">
<stop stop-color="#98BFFF"/>
<stop offset="1" stop-color="#C2E9FB"/>
</linearGradient>
<linearGradient id="paint2_linear_515_2853" x1="5" y1="32.5" x2="59" y2="32.5" gradientUnits="userSpaceOnUse">
<stop stop-color="#F6C170"/>
<stop offset="1" stop-color="#FFEAA2"/>
</linearGradient>
</defs>
</svg>
