<svg width="64" height="64" viewBox="0 0 64 64" fill="none" xmlns="http://www.w3.org/2000/svg">
<path d="M45.9961 40.5608C53.6761 38.2068 57.1961 43.8303 57.9961 46.9362C56.5561 48.1132 50.9961 48.0805 48.3961 47.9171C48.8761 46.7401 46.9961 42.5225 45.9961 40.5608Z" fill="url(#paint0_linear_515_2857)"/>
<path d="M17.9961 40.5608C10.3161 38.2068 6.79609 43.8303 5.99609 46.9362C7.43609 48.1132 12.9961 48.0805 15.5961 47.9171C15.1161 46.7401 16.9961 42.5225 17.9961 40.5608Z" fill="url(#paint1_linear_515_2857)"/>
<path d="M31.4628 33C19.9428 33.4159 16.3516 44.2644 15.9961 49.6367C30.9294 57.5391 43.5517 52.9293 47.9961 49.6367C47.5694 36.3273 36.7961 33 31.4628 33Z" fill="url(#paint2_linear_515_2857)"/>
<path fill-rule="evenodd" clip-rule="evenodd" d="M31.9961 10C28.1301 10 24.9961 13.134 24.9961 17C24.9961 20.866 28.1301 24 31.9961 24C35.8621 24 38.9961 20.866 38.9961 17C38.9961 13.134 35.8621 10 31.9961 10ZM22.9961 17C22.9961 12.0294 27.0255 8 31.9961 8C36.9667 8 40.9961 12.0294 40.9961 17C40.9961 21.9706 36.9667 26 31.9961 26C27.0255 26 22.9961 21.9706 22.9961 17ZM13.9961 20C11.2347 20 8.99609 22.2386 8.99609 25C8.99609 27.7614 11.2347 30 13.9961 30C16.7575 30 18.9961 27.7614 18.9961 25C18.9961 22.2386 16.7575 20 13.9961 20ZM6.99609 25C6.99609 21.134 10.1301 18 13.9961 18C17.8621 18 20.9961 21.134 20.9961 25C20.9961 28.866 17.8621 32 13.9961 32C10.1301 32 6.99609 28.866 6.99609 25ZM49.9961 20C47.2347 20 44.9961 22.2386 44.9961 25C44.9961 27.7614 47.2347 30 49.9961 30C52.7575 30 54.9961 27.7614 54.9961 25C54.9961 22.2386 52.7575 20 49.9961 20ZM42.9961 25C42.9961 21.134 46.1301 18 49.9961 18C53.8621 18 56.9961 21.134 56.9961 25C56.9961 28.866 53.8621 32 49.9961 32C46.1301 32 42.9961 28.866 42.9961 25ZM31.9961 34C26.6841 34 22.0163 36.7604 19.3497 40.9298C17.8727 43.2392 17.0111 45.9795 16.9963 48.923L16.9961 49C16.9961 49.3907 17.011 49.7776 17.0403 50.1605C21.474 52.6073 26.571 54 31.9961 54C37.4212 54 42.5182 52.6073 46.9519 50.1605C46.9812 49.7776 46.9961 49.3907 46.9961 49L46.9959 48.9227C46.9811 45.98 46.1199 43.2403 44.6435 40.9313C41.9771 36.7611 37.3087 34 31.9961 34ZM18.2133 39.0464C21.3002 34.7792 26.3233 32 31.9961 32C37.6695 32 42.693 34.7798 45.7799 39.0477C47.0385 38.3789 48.4748 38 49.9976 38C54.9682 38 58.9976 42.0294 58.9976 47C58.9976 47.2431 58.988 47.4841 58.969 47.7227C58.9376 48.1167 58.6771 48.4553 58.3043 48.5866C55.704 49.5023 52.9079 50 49.9976 50C49.6529 50 49.3098 49.993 48.9683 49.9792C48.9511 50.2832 48.9258 50.5851 48.8927 50.8848C48.8577 51.202 48.6733 51.4836 48.3964 51.6424C43.5643 54.415 37.9638 56 31.9961 56C26.0284 56 20.4279 54.415 15.5958 51.6424C15.3189 51.4836 15.1345 51.202 15.0995 50.8848C15.0664 50.5851 15.0411 50.2833 15.0239 49.9793C14.6836 49.9931 14.3416 50 13.998 50C11.0878 50 8.29163 49.5023 5.69136 48.5866C5.31854 48.4553 5.05804 48.1167 5.02669 47.7227C5.00771 47.4841 4.99805 47.2431 4.99805 47C4.99805 42.0294 9.02748 38 13.998 38C15.5199 38 16.9553 38.3784 18.2133 39.0464ZM17.1344 40.74C16.1915 40.2665 15.1268 40 13.998 40C10.1601 40 7.04364 43.0886 6.99854 46.9158C9.20447 47.6197 11.556 48 13.998 48C14.3427 48 14.6855 47.9924 15.0264 47.9774C15.1816 45.3629 15.9282 42.9058 17.1344 40.74ZM48.9659 47.9773C49.3078 47.9924 49.6518 48 49.9976 48C52.4397 48 54.7912 47.6197 56.9971 46.9158C56.952 43.0886 53.8355 40 49.9976 40C48.8678 40 47.8022 40.267 46.8586 40.7413C48.0643 42.9068 48.8106 45.3633 48.9659 47.9773Z" fill="#202529"/>
<path d="M39 17C39 20.866 35.866 24 32 24C28.134 24 25 20.866 25 17C25 13.134 28.134 10 32 10C35.866 10 39 13.134 39 17Z" fill="white"/>
<path d="M19 25C19 27.7614 16.7614 30 14 30C11.2386 30 9 27.7614 9 25C9 22.2386 11.2386 20 14 20C16.7614 20 19 22.2386 19 25Z" fill="white"/>
<path d="M55 25C55 27.7614 52.7614 30 50 30C47.2386 30 45 27.7614 45 25C45 22.2386 47.2386 20 50 20C52.7614 20 55 22.2386 55 25Z" fill="white"/>
<defs>
<linearGradient id="paint0_linear_515_2857" x1="4.99805" y1="32" x2="58.9976" y2="32" gradientUnits="userSpaceOnUse">
<stop stop-color="#F6C170"/>
<stop offset="1" stop-color="#FFEAA2"/>
</linearGradient>
<linearGradient id="paint1_linear_515_2857" x1="4.99805" y1="32" x2="58.9976" y2="32" gradientUnits="userSpaceOnUse">
<stop stop-color="#F6C170"/>
<stop offset="1" stop-color="#FFEAA2"/>
</linearGradient>
<linearGradient id="paint2_linear_515_2857" x1="4.99805" y1="32" x2="58.9976" y2="32" gradientUnits="userSpaceOnUse">
<stop stop-color="#98BFFF"/>
<stop offset="1" stop-color="#C2E9FB"/>
</linearGradient>
</defs>
</svg>
