<svg width="64" height="64" viewBox="0 0 64 64" fill="none" xmlns="http://www.w3.org/2000/svg">
<path d="M8 19C8 14.5817 11.5817 11 16 11H48C52.4183 11 56 14.5817 56 19V50C56 54.4183 52.4183 58 48 58H16C11.5817 58 8 54.4183 8 50V19Z" fill="white"/>
<path d="M22 5.66663H42V14.6666H22V5.66663Z" fill="url(#paint0_linear_515_2855)"/>
<path fill-rule="evenodd" clip-rule="evenodd" d="M25.3333 6C24.5377 6 23.7746 6.31607 23.212 6.87868C22.6494 7.44129 22.3333 8.20435 22.3333 9V11.6667C22.3333 12.4623 22.6494 13.2254 23.212 13.788C23.7746 14.3506 24.5377 14.6667 25.3333 14.6667H38.6667C39.4623 14.6667 40.2254 14.3506 40.788 13.788C41.3506 13.2254 41.6667 12.4623 41.6667 11.6667V9C41.6667 8.20435 41.3506 7.44129 40.788 6.87868C40.2254 6.31607 39.4623 6 38.6667 6H25.3333ZM21.7978 5.46447C22.7355 4.52678 24.0073 4 25.3333 4H38.6667C39.9927 4 41.2645 4.52678 42.2022 5.46447C43.1399 6.40215 43.6667 7.67392 43.6667 9V9.34692C46.1024 9.37504 48.1027 9.46585 49.7491 9.76848C51.6429 10.1166 53.1515 10.7586 54.3631 11.9702C55.7518 13.3589 56.3901 15.1337 56.6981 17.423C57 19.6679 57 22.5508 57 26.256V42.4107C57 46.1172 57 49.0007 56.6981 51.246C56.3902 53.5356 55.7518 55.3104 54.3631 56.6991C52.9755 58.0867 51.2004 58.7242 48.9111 59.0318C46.666 59.3334 43.7824 59.3334 40.0772 59.3333H23.9228C20.2176 59.3334 17.334 59.3334 15.0889 59.0318C12.7996 58.7242 11.0245 58.0867 9.63689 56.6991C8.24864 55.3093 7.60988 53.5345 7.30193 51.245C6.99997 49.0001 6.99999 46.1172 7 42.4108V26.2559C6.99999 22.5508 6.99997 19.6679 7.30193 17.423C7.60986 15.1337 8.2482 13.3589 9.63689 11.9702C10.8485 10.7586 12.3571 10.1166 14.2509 9.76848C15.8973 9.46585 17.8976 9.37504 20.3333 9.34692V9C20.3333 7.67392 20.8601 6.40215 21.7978 5.46447ZM20.3333 11.3471C17.9263 11.3757 16.0816 11.4655 14.6124 11.7355C12.9735 12.0368 11.8875 12.5481 11.0511 13.3844C10.0958 14.3397 9.56215 15.6223 9.28408 17.6896C9.00213 19.7858 9 22.5344 9 26.3333V42.3333C9 46.1336 9.00213 48.8822 9.28408 50.9784C9.56208 53.0452 10.0956 54.3281 11.0511 55.2849C12.0048 56.2386 13.2871 56.7718 15.3551 57.0496C17.4518 57.3312 20.2011 57.3333 24 57.3333H40C43.7989 57.3333 46.5482 57.3312 48.6449 57.0496C50.7129 56.7718 51.9952 56.2386 52.9489 55.2849C53.9042 54.3296 54.4379 53.0471 54.7159 50.9794C54.9979 48.8829 55 46.1336 55 42.3333V26.3333C55 22.5344 54.9979 19.7858 54.7159 17.6896C54.4379 15.6223 53.9042 14.3397 52.9489 13.3844C52.1125 12.5481 51.0265 12.0368 49.3876 11.7355C47.9184 11.4655 46.0737 11.3757 43.6667 11.3471V11.6667C43.6667 12.9928 43.1399 14.2645 42.2022 15.2022C41.2645 16.1399 39.9927 16.6667 38.6667 16.6667H25.3333C24.0073 16.6667 22.7355 16.1399 21.7978 15.2022C20.8601 14.2645 20.3333 12.9927 20.3333 11.6667V11.3471ZM17.6667 27.6667C17.6667 27.1144 18.1144 26.6667 18.6667 26.6667H20C20.5523 26.6667 21 27.1144 21 27.6667C21 28.219 20.5523 28.6667 20 28.6667H18.6667C18.1144 28.6667 17.6667 28.219 17.6667 27.6667ZM27 27.6667C27 27.1144 27.4477 26.6667 28 26.6667H45.3333C45.8856 26.6667 46.3333 27.1144 46.3333 27.6667C46.3333 28.219 45.8856 28.6667 45.3333 28.6667H28C27.4477 28.6667 27 28.219 27 27.6667ZM17.6667 37C17.6667 36.4477 18.1144 36 18.6667 36H20C20.5523 36 21 36.4477 21 37C21 37.5523 20.5523 38 20 38H18.6667C18.1144 38 17.6667 37.5523 17.6667 37ZM27 37C27 36.4477 27.4477 36 28 36H45.3333C45.8856 36 46.3333 36.4477 46.3333 37C46.3333 37.5523 45.8856 38 45.3333 38H28C27.4477 38 27 37.5523 27 37ZM17.6667 46.3333C17.6667 45.7811 18.1144 45.3333 18.6667 45.3333H20C20.5523 45.3333 21 45.7811 21 46.3333C21 46.8856 20.5523 47.3333 20 47.3333H18.6667C18.1144 47.3333 17.6667 46.8856 17.6667 46.3333ZM27 46.3333C27 45.7811 27.4477 45.3333 28 45.3333H45.3333C45.8856 45.3333 46.3333 45.7811 46.3333 46.3333C46.3333 46.8856 45.8856 47.3333 45.3333 47.3333H28C27.4477 47.3333 27 46.8856 27 46.3333Z" fill="#202529"/>
<path d="M27 27.65C27 27.0701 27.4701 26.6 28.05 26.6H45.45C46.0299 26.6 46.5 27.0701 46.5 27.65C46.5 28.2299 46.0299 28.7 45.45 28.7H28.05C27.4701 28.7 27 28.2299 27 27.65Z" fill="url(#paint1_linear_515_2855)"/>
<path d="M27 46.35C27 45.7701 27.4701 45.3 28.05 45.3H45.45C46.0299 45.3 46.5 45.7701 46.5 46.35C46.5 46.9299 46.0299 47.4 45.45 47.4H28.05C27.4701 47.4 27 46.9299 27 46.35Z" fill="url(#paint2_linear_515_2855)"/>
<path d="M27 37.05C27 36.4701 27.4701 36 28.05 36H45.45C46.0299 36 46.5 36.4701 46.5 37.05C46.5 37.6299 46.0299 38.1 45.45 38.1H28.05C27.4701 38.1 27 37.6299 27 37.05Z" fill="url(#paint3_linear_515_2855)"/>
<defs>
<linearGradient id="paint0_linear_515_2855" x1="7" y1="31.6667" x2="57" y2="31.6667" gradientUnits="userSpaceOnUse">
<stop stop-color="#98BFFF"/>
<stop offset="1" stop-color="#C2E9FB"/>
</linearGradient>
<linearGradient id="paint1_linear_515_2855" x1="7" y1="31.6667" x2="57" y2="31.6667" gradientUnits="userSpaceOnUse">
<stop stop-color="#F6C170"/>
<stop offset="1" stop-color="#FFEAA2"/>
</linearGradient>
<linearGradient id="paint2_linear_515_2855" x1="7" y1="31.6667" x2="57" y2="31.6667" gradientUnits="userSpaceOnUse">
<stop stop-color="#F6C170"/>
<stop offset="1" stop-color="#FFEAA2"/>
</linearGradient>
<linearGradient id="paint3_linear_515_2855" x1="7" y1="31.6667" x2="57" y2="31.6667" gradientUnits="userSpaceOnUse">
<stop stop-color="#F6C170"/>
<stop offset="1" stop-color="#FFEAA2"/>
</linearGradient>
</defs>
</svg>
