<svg width="64" height="64" viewBox="0 0 64 64" fill="none" xmlns="http://www.w3.org/2000/svg">
<path d="M19.0001 53.5L31 42H19.0001V53.5Z" fill="white"/>
<path d="M38.297 41L49.4965 53.2809L49.7935 41.2846L38.297 41Z" fill="white"/>
<path d="M7 17H53V22H12C9.23858 22 7 22.531 7 22V17Z" fill="white"/>
<path d="M7 22H28.5L25 42H8.95652C7.87596 42 7 40.278 7 38.1538V22Z" fill="white"/>
<path d="M57 29H27V45H53C55.2091 45 57 43.2091 57 41V29Z" fill="white"/>
<path d="M27 27C27 24.7909 28.7909 23 31 23H53C55.2091 23 57 24.7909 57 27V29H27V27Z" fill="url(#paint0_linear_515_2859)"/>
<path d="M7 17C7 12.5817 10.5817 9 15 9H45C49.4183 9 53 12.5817 53 17H7Z" fill="url(#paint1_linear_515_2859)"/>
<path fill-rule="evenodd" clip-rule="evenodd" d="M13.2303 8.08029C18.72 7.36755 24.3177 7 30.0008 7C35.6832 7 41.2804 7.36748 46.7696 8.08008C51.5914 8.70604 55 12.91 55 17.6995V22.0112C57.4 23.0933 59 25.5376 59 28.2886V39.7168C59 43.2425 56.3661 46.2703 52.8006 46.5612C52.2015 46.6101 51.6013 46.655 51 46.6958V54C51 54.4045 50.7564 54.7691 50.3827 54.9239C50.009 55.0787 49.5789 54.9931 49.2929 54.7071L41.5851 46.9994C38.0889 46.9885 34.6252 46.8406 31.1992 46.561C30.5298 46.5064 29.8907 46.3543 29.2949 46.1193L18.7071 56.7071C18.4211 56.9931 17.991 57.0787 17.6173 56.9239C17.2436 56.7691 17 56.4045 17 56V44.353C15.738 44.2267 14.4813 44.0822 13.2303 43.9198C8.40853 43.2938 5 39.0898 5 34.3004V17.6997C5 12.9103 8.40851 8.70631 13.2303 8.08029ZM27.5142 45.0716C25.963 43.7995 25 41.8518 25 39.7165V28.2886C25 24.7681 27.6263 21.7423 31.1869 21.4468C34.7522 21.1509 38.3586 21 41.9999 21C45.6413 21 49.2477 21.1509 52.8132 21.4468C52.8757 21.452 52.938 21.4581 53 21.4649V17.6995C53 13.8414 50.2659 10.5507 46.5121 10.0634C41.1081 9.36189 35.5969 9 30.0008 9C24.4041 9 18.8924 9.36196 13.4878 10.0636C9.73404 10.551 7 13.8416 7 17.6997V34.3004C7 38.1584 9.73405 41.4491 13.4878 41.9364C15.0144 42.1346 16.5494 42.3057 18.0926 42.4492C18.6068 42.497 19 42.9285 19 43.4449V53.5858L27.5142 45.0716ZM41.9999 23C38.4138 23 34.8627 23.1486 31.3523 23.44C28.8803 23.6451 27 25.7558 27 28.2886V39.7165C27 41.5811 28.0236 43.224 29.5502 44.0377C30.0945 44.3278 30.7051 44.514 31.362 44.5676C34.8693 44.8539 38.4172 45 42 45C42.2652 45 42.5196 45.1054 42.7071 45.2929L49 51.5858V45.758C49 45.2292 49.4116 44.7919 49.9394 44.7598C50.8415 44.7051 51.7411 44.6411 52.6379 44.5679C55.1144 44.3658 57 42.253 57 39.7168V28.2886C57 26.1288 55.6283 24.2705 53.6937 23.648C53.3621 23.5413 53.0123 23.4702 52.6477 23.44C49.1373 23.1486 45.586 23 41.9999 23Z" fill="#202529"/>
<defs>
<linearGradient id="paint0_linear_515_2859" x1="5" y1="32" x2="59" y2="32" gradientUnits="userSpaceOnUse">
<stop stop-color="#98BFFF"/>
<stop offset="1" stop-color="#C2E9FB"/>
</linearGradient>
<linearGradient id="paint1_linear_515_2859" x1="5" y1="32" x2="59" y2="32" gradientUnits="userSpaceOnUse">
<stop stop-color="#F6C170"/>
<stop offset="1" stop-color="#FFEAA2"/>
</linearGradient>
</defs>
</svg>
