<svg width="64" height="64" viewBox="0 0 64 64" fill="none" xmlns="http://www.w3.org/2000/svg">
<path d="M14 27H51V58H14V27Z" fill="white"/>
<path d="M12 10L7.49995 21.5C5.49995 25.5 8.66662 28.1667 10.5 29C14.5 28.6 16.1666 25.5 16.5 24C16.5 26.8 19.8333 28.5 21.5 29C25.1 29 26.6666 25.6667 27 24C27 27.2 30.3333 28.6667 32 29C36.7999 28.6 37.6666 25.5 37.5 24C37.8333 25.5 39.4 28.6 43 29C46.5999 29.4 48.1666 25.8333 48.5 24C49.7 28 53.3333 28.3333 55 28C57 27.2 57.5 24.3333 57.5 23L52 9.5C50.7999 6.7 48.1666 6 47 6H16.5C14.5 6 12.6666 8.66667 12 10Z" fill="url(#paint0_linear_515_2851)"/>
<path d="M26.345 42.6666H38.345V57.6666H26.345V42.6666Z" fill="url(#paint1_linear_515_2851)"/>
<path d="M24.6784 57C24.6784 57.5523 25.1261 58 25.6784 58C26.2306 58 26.6784 57.5523 26.6784 57H24.6784ZM38.0117 57C38.0117 57.5523 38.4594 58 39.0117 58C39.564 58 40.0117 57.5523 40.0117 57H38.0117ZM56.345 59.3333C56.8973 59.3333 57.345 58.8856 57.345 58.3333C57.345 57.781 56.8973 57.3333 56.345 57.3333V59.3333ZM24.345 57.3333C23.7927 57.3333 23.345 57.781 23.345 58.3333C23.345 58.8856 23.7927 59.3333 24.345 59.3333V57.3333ZM8.34505 57.3333C7.79277 57.3333 7.34505 57.781 7.34505 58.3333C7.34505 58.8856 7.79277 59.3333 8.34505 59.3333V57.3333ZM15.0117 59.3333C15.564 59.3333 16.0117 58.8856 16.0117 58.3333C16.0117 57.781 15.564 57.3333 15.0117 57.3333V59.3333ZM50.0117 58.3333C50.0117 58.8856 50.4594 59.3333 51.0117 59.3333C51.564 59.3333 52.0117 58.8856 52.0117 58.3333H50.0117ZM52.0117 39.6666C52.0117 39.1144 51.564 38.6666 51.0117 38.6666C50.4594 38.6666 50.0117 39.1144 50.0117 39.6666H52.0117ZM12.6784 58.3333C12.6784 58.8856 13.1261 59.3333 13.6784 59.3333C14.2307 59.3333 14.6784 58.8856 14.6784 58.3333H12.6784ZM14.6784 39.6666C14.6784 39.1144 14.2307 38.6666 13.6784 38.6666C13.1261 38.6666 12.6784 39.1144 12.6784 39.6666H14.6784ZM32.345 6C32.8973 6 33.345 5.55229 33.345 5C33.345 4.44772 32.8973 4 32.345 4V6ZM14.1717 5.79734L14.696 6.64888L14.698 6.6476L14.1717 5.79734ZM10.7317 10.896L9.83696 10.4495C9.82416 10.4751 9.81248 10.5013 9.80193 10.5279L10.7317 10.896ZM16.345 23.6666L17.345 23.6654C17.3443 23.1133 16.8964 22.6663 16.3444 22.6666C15.7923 22.667 15.345 23.1146 15.345 23.6666H16.345ZM28.0117 23.6666C28.0117 23.1144 27.564 22.6666 27.0117 22.6666C26.4594 22.6666 26.0117 23.1144 26.0117 23.6666H28.0117ZM38.6784 23.6666C38.6784 23.1144 38.2306 22.6666 37.6784 22.6666C37.1261 22.6666 36.6784 23.1144 36.6784 23.6666H38.6784ZM49.345 23.6666C49.345 23.1144 48.8973 22.6667 48.3451 22.6666C47.7928 22.6666 47.3451 23.1142 47.345 23.6665L49.345 23.6666ZM53.9584 10.896L54.8882 10.528C54.8776 10.5014 54.8659 10.4751 54.8531 10.4495L53.9584 10.896ZM50.5184 5.79734L49.992 6.64761L49.9941 6.64887L50.5184 5.79734ZM43.0117 4C42.4594 4 42.0117 4.44772 42.0117 5C42.0117 5.55229 42.4594 6 43.0117 6V4ZM26.6784 57V49H24.6784V57H26.6784ZM26.6784 49C26.6784 47.7349 26.6793 46.8533 26.7413 46.1699C26.802 45.5004 26.9149 45.1199 27.0803 44.8335L25.3484 43.8332C24.9779 44.4747 24.8227 45.1809 24.7494 45.9893C24.6774 46.784 24.6784 47.7717 24.6784 49H26.6784ZM27.0803 44.8335C27.3436 44.3775 27.7224 43.9986 28.1784 43.7353L27.1783 42.0033C26.4183 42.4421 25.7873 43.0732 25.3484 43.8332L27.0803 44.8335ZM28.1784 43.7353C28.4648 43.5699 28.8454 43.4569 29.515 43.3962C30.1983 43.3343 31.0799 43.3333 32.345 43.3333V41.3333C31.1168 41.3333 30.129 41.3324 29.3344 41.4044C28.526 41.4777 27.8199 41.6327 27.1783 42.0033L28.1784 43.7353ZM32.345 43.3333C33.6101 43.3333 34.4917 43.3343 35.1751 43.3962C35.8446 43.4569 36.2251 43.5698 36.5115 43.7352L37.5118 42.0034C36.8703 41.6328 36.1641 41.4777 35.3556 41.4044C34.561 41.3324 33.5733 41.3333 32.345 41.3333V43.3333ZM36.5115 43.7352C36.9675 43.9985 37.3464 44.3773 37.6097 44.8333L39.3417 43.8333C38.9029 43.0733 38.2718 42.4422 37.5118 42.0034L36.5115 43.7352ZM37.6097 44.8333C37.7751 45.1197 37.8881 45.5004 37.9488 46.1699C38.0107 46.8533 38.0117 47.7349 38.0117 49H40.0117C40.0117 47.7717 40.0126 46.784 39.9406 45.9893C39.8673 45.1809 39.7123 44.4748 39.3417 43.8333L37.6097 44.8333ZM38.0117 49V57H40.0117V49H38.0117ZM56.345 57.3333H24.345V59.3333H56.345V57.3333ZM8.34505 59.3333H15.0117V57.3333H8.34505V59.3333ZM52.0117 58.3333V39.6666H50.0117V58.3333H52.0117ZM14.6784 58.3333V39.6666H12.6784V58.3333H14.6784ZM32.345 4H20.2704V6H32.345V4ZM20.2704 4C18.6869 4 17.424 3.99876 16.398 4.10498C15.3489 4.2136 14.4629 4.44093 13.6454 4.94707L14.698 6.6476C15.1684 6.35641 15.7278 6.18507 16.604 6.09435C17.5034 6.00124 18.6458 6 20.2704 6V4ZM13.6474 4.9458C12.8279 5.45039 12.2276 6.14155 11.661 7.03182C11.107 7.90245 10.5438 9.03307 9.83696 10.4495L11.6265 11.3425C12.3516 9.88961 12.8631 8.86823 13.3484 8.10552C13.8212 7.36246 14.2249 6.93896 14.696 6.64888L13.6474 4.9458ZM9.80193 10.5279L6.05526 19.9919L7.91484 20.7281L11.6615 11.2641L9.80193 10.5279ZM6.05526 19.9919C5.61689 21.1014 5.16724 22.3996 5.03739 23.6924C4.90589 25.0017 5.0945 26.3968 6.03423 27.5895L7.60572 26.3524C7.08945 25.6971 6.92822 24.8795 7.02738 23.8922C7.1282 22.8884 7.48922 21.8053 7.91484 20.7281L6.05526 19.9919ZM6.03423 27.5895C6.84875 28.625 7.96545 29.3802 9.22974 29.7509L9.79247 27.8317C8.92743 27.5781 8.16302 27.061 7.60572 26.3524L6.03423 27.5895ZM9.22974 29.7509C10.494 30.1216 11.8425 30.0888 13.0872 29.657L12.4318 27.7675C11.5801 28.0629 10.6575 28.0853 9.79247 27.8317L9.22974 29.7509ZM13.0872 29.657C14.332 29.2253 15.4111 28.4161 16.1743 27.3421L14.544 26.1836C14.0218 26.9184 13.2835 27.4721 12.4318 27.7675L13.0872 29.657ZM16.1743 27.3421C16.9374 26.2681 17.3467 24.9829 17.345 23.6654L15.345 23.6679C15.3462 24.5694 15.0662 25.4488 14.544 26.1836L16.1743 27.3421ZM15.345 23.6666C15.345 25.3463 16.0123 26.9573 17.2 28.145L18.6142 26.7308C17.8016 25.9181 17.345 24.8159 17.345 23.6666H15.345ZM17.2 28.145C18.3877 29.3327 19.9986 30 21.6784 30V28C20.5291 28 19.4269 27.5434 18.6142 26.7308L17.2 28.145ZM21.6784 30C23.3581 30 24.969 29.3327 26.1567 28.145L24.7425 26.7308C23.9298 27.5434 22.8276 28 21.6784 28V30ZM26.1567 28.145C27.3444 26.9573 28.0117 25.3463 28.0117 23.6666H26.0117C26.0117 24.8159 25.5551 25.9181 24.7425 26.7308L26.1567 28.145ZM26.0117 23.6666C26.0117 25.3463 26.679 26.9573 27.8667 28.145L29.2809 26.7308C28.4682 25.9181 28.0117 24.8159 28.0117 23.6666H26.0117ZM27.8667 28.145C29.0544 29.3327 30.6653 30 32.345 30V28C31.1957 28 30.0936 27.5434 29.2809 26.7308L27.8667 28.145ZM32.345 30C34.0247 30 35.6356 29.3327 36.8234 28.145L35.4091 26.7308C34.5965 27.5434 33.4943 28 32.345 28V30ZM36.8234 28.145C38.0111 26.9573 38.6784 25.3463 38.6784 23.6666H36.6784C36.6784 24.8159 36.2218 25.9181 35.4091 26.7308L36.8234 28.145ZM36.6784 23.6666C36.6784 25.3463 37.3456 26.9573 38.5333 28.145L39.9476 26.7308C39.1349 25.9181 38.6784 24.8159 38.6784 23.6666H36.6784ZM38.5333 28.145C39.7211 29.3327 41.332 30 43.0117 30V28C41.8624 28 40.7602 27.5434 39.9476 26.7308L38.5333 28.145ZM43.0117 30C44.6914 30 46.3023 29.3327 47.49 28.145L46.0758 26.7308C45.2632 27.5434 44.161 28 43.0117 28V30ZM47.49 28.145C48.6778 26.9573 49.345 25.3463 49.345 23.6666L47.345 23.6665C47.345 24.8158 46.8885 25.9181 46.0758 26.7308L47.49 28.145ZM47.345 23.6665C47.3448 24.983 47.7549 26.2668 48.5182 27.3394L50.1477 26.1798C49.6255 25.4459 49.3449 24.5673 49.345 23.6666L47.345 23.6665ZM48.5182 27.3394C49.2814 28.412 50.36 29.2201 51.6038 29.6513L52.2589 27.7617C51.4079 27.4666 50.6699 26.9137 50.1477 26.1798L48.5182 27.3394ZM51.6038 29.6513C52.8477 30.0825 54.195 30.1154 55.4584 29.7454L54.8963 27.826C54.0318 28.0792 53.11 28.0567 52.2589 27.7617L51.6038 29.6513ZM55.4584 29.7454C56.7218 29.3754 57.8385 28.6209 58.6532 27.5868L57.0822 26.3491C56.5248 27.0566 55.7607 27.5729 54.8963 27.826L55.4584 29.7454ZM58.6532 27.5868C59.5929 26.3941 59.7815 24.9991 59.65 23.6897C59.5202 22.3969 59.0708 21.0993 58.6324 19.9898L56.7723 20.7248C57.198 21.802 57.5592 22.8857 57.66 23.8896C57.7592 24.8769 57.5985 25.6938 57.0822 26.3491L58.6532 27.5868ZM58.6324 19.9898L54.8882 10.528L53.0285 11.264L56.7723 20.7248L58.6324 19.9898ZM54.8531 10.4495C54.1462 9.03307 53.583 7.90245 53.029 7.03182C52.4625 6.14155 51.8622 5.45039 51.0426 4.9458L49.9941 6.64887C50.4652 6.93895 50.8688 7.36246 51.3417 8.10552C51.827 8.86823 52.3385 9.88961 53.0636 11.3425L54.8531 10.4495ZM51.0447 4.94707C50.2271 4.44093 49.3411 4.2136 48.292 4.10498C47.266 3.99876 46.0031 4 44.4197 4V6C46.0443 6 47.1867 6.00124 48.086 6.09435C48.9623 6.18507 49.5216 6.35642 49.992 6.64761L51.0447 4.94707ZM44.4197 4H43.0117V6H44.4197V4Z" fill="#202529"/>
<defs>
<linearGradient id="paint0_linear_515_2851" x1="5" y1="31.6667" x2="59.6874" y2="31.6667" gradientUnits="userSpaceOnUse">
<stop stop-color="#FFCA7B"/>
<stop offset="1" stop-color="#FFEAA2"/>
</linearGradient>
<linearGradient id="paint1_linear_515_2851" x1="5" y1="31.6667" x2="59.6874" y2="31.6667" gradientUnits="userSpaceOnUse">
<stop stop-color="#98BFFF"/>
<stop offset="1" stop-color="#C2E9FB"/>
</linearGradient>
</defs>
</svg>
