<svg width="375" height="120" viewBox="0 0 375 120" fill="none" xmlns="http://www.w3.org/2000/svg">
<path d="M61.4796 8.82277C35.6633 1.36298 9.73639 1.39751 0 2.34725V120H375V18.1476C362.143 23.7425 334.949 15.8164 322.959 11.154C309.184 5.55915 270 0.590925 252.168 0.0161456C239.311 -0.398288 198.682 7.26873 179.974 11.154C163.75 17.1633 134.864 18.1476 122.449 17.8886C112.883 17.9749 87.2959 16.2826 61.4796 8.82277Z" fill="#F0F8FF"/>
<path d="M61.4796 8.82277C35.6633 1.36298 9.73639 1.39751 0 2.34725V120H375V18.1476C362.143 23.7425 334.949 15.8164 322.959 11.154C309.184 5.55915 270 0.590925 252.168 0.0161456C239.311 -0.398288 198.682 7.26873 179.974 11.154C163.75 17.1633 134.864 18.1476 122.449 17.8886C112.883 17.9749 87.2959 16.2826 61.4796 8.82277Z" fill="url(#paint0_linear_373_889)"/>
<path d="M61.4796 8.82277C35.6633 1.36298 9.73639 1.39751 0 2.34725V120H375V18.1476C362.143 23.7425 334.949 15.8164 322.959 11.154C309.184 5.55915 270 0.590925 252.168 0.0161456C239.311 -0.398288 198.682 7.26873 179.974 11.154C163.75 17.1633 134.864 18.1476 122.449 17.8886C112.883 17.9749 87.2959 16.2826 61.4796 8.82277Z" fill="url(#paint1_linear_373_889)"/>
<defs>
<linearGradient id="paint0_linear_373_889" x1="0" y1="60" x2="375" y2="60" gradientUnits="userSpaceOnUse">
<stop stop-color="#DAE8FF"/>
<stop offset="1" stop-color="#E5F7FF"/>
</linearGradient>
<linearGradient id="paint1_linear_373_889" x1="0" y1="60" x2="375" y2="60" gradientUnits="userSpaceOnUse">
<stop stop-color="#D4E4FF"/>
<stop offset="1" stop-color="#EFFAFF"/>
</linearGradient>
</defs>
</svg>
