<svg width="171" height="38" viewBox="0 0 171 38" fill="none" xmlns="http://www.w3.org/2000/svg">
<path d="M22.5 17.5C22.5029 16.2121 22.2506 14.9364 21.7577 13.7466C21.2648 12.5567 20.541 11.4763 19.6282 10.5677L18.3105 9.25L17.25 10.3105L18.5677 11.6283C19.3389 12.3992 19.9506 13.3146 20.368 14.322C20.7853 15.3294 21.0001 16.4092 21.0001 17.4996C21.0001 18.5901 20.7853 19.6698 20.368 20.6773C19.9506 21.6847 19.3389 22.6 18.5677 23.371L16.5 25.4395L17.5605 26.5L19.6282 24.4323C20.541 23.5237 21.2648 22.4433 21.7577 21.2534C22.2506 20.0636 22.5029 18.7879 22.5 17.5Z" fill="black"/>
<path d="M12.75 16C13.1642 16 13.5 15.6642 13.5 15.25C13.5 14.8358 13.1642 14.5 12.75 14.5C12.3358 14.5 12 14.8358 12 15.25C12 15.6642 12.3358 16 12.75 16Z" fill="black"/>
<path d="M16.5 17.5C16.5029 16.2121 16.2506 14.9364 15.7577 13.7466C15.2648 12.5567 14.541 11.4763 13.6282 10.5677L12.3105 9.25L11.25 10.3105L12.5677 11.6283C13.3389 12.3992 13.9506 13.3146 14.368 14.322C14.7853 15.3294 15.0001 16.4092 15.0001 17.4996C15.0001 18.5901 14.7853 19.6698 14.368 20.6773C13.9506 21.6847 13.3389 22.6 12.5677 23.371L10.5 25.4395L11.5605 26.5L13.6282 24.4323C14.541 23.5237 15.2648 22.4433 15.7577 21.2534C16.2506 20.0636 16.5029 18.7879 16.5 17.5Z" fill="black"/>
<path d="M18.75 16C19.1642 16 19.5 15.6642 19.5 15.25C19.5 14.8358 19.1642 14.5 18.75 14.5C18.3358 14.5 18 14.8358 18 15.25C18 15.6642 18.3358 16 18.75 16Z" fill="black"/>
<path d="M6.75 16C7.16421 16 7.5 15.6642 7.5 15.25C7.5 14.8358 7.16421 14.5 6.75 14.5C6.33579 14.5 6 14.8358 6 15.25C6 15.6642 6.33579 16 6.75 16Z" fill="black"/>
<path d="M7.06049 25L7.62824 24.4322C8.53873 23.5219 9.26099 22.4412 9.75376 21.2518C10.2465 20.0623 10.5002 18.7874 10.5002 17.5C10.5002 16.2125 10.2465 14.9376 9.75376 13.7482C9.26099 12.5587 8.53873 11.478 7.62824 10.5677L5.99999 8.93945L4.37174 10.5677C3.46124 11.478 2.73898 12.5587 2.24621 13.7482C1.75344 14.9376 1.49982 16.2125 1.49982 17.5C1.49982 18.7874 1.75344 20.0623 2.24621 21.2518C2.73898 22.4412 3.46124 23.5219 4.37174 24.4322L4.93949 25L1.71974 28.2197C1.61488 28.3246 1.54348 28.4582 1.51455 28.6037C1.48563 28.7491 1.50048 28.8999 1.55723 29.0369C1.61398 29.174 1.71009 29.2911 1.83339 29.3735C1.9567 29.4559 2.10168 29.4999 2.24999 29.5H9.74999C9.8983 29.4999 10.0433 29.4559 10.1666 29.3735C10.2899 29.2911 10.386 29.174 10.4427 29.0369C10.4995 28.8999 10.5144 28.7491 10.4854 28.6037C10.4565 28.4582 10.3851 28.3246 10.2802 28.2197L7.06049 25ZM2.99999 17.5C2.99705 16.409 3.2105 15.3283 3.62799 14.3205C4.04549 13.3126 4.65873 12.3975 5.43224 11.6282L5.99999 11.0605L6.56774 11.6282C7.33888 12.3992 7.9506 13.3145 8.36795 14.3219C8.7853 15.3294 9.00011 16.4091 9.00011 17.4996C9.00011 18.59 8.7853 19.6698 8.36795 20.6772C7.9506 21.6846 7.33888 22.6 6.56774 23.371L5.99999 23.9395L5.43224 23.371C4.65882 22.6017 4.04563 21.6868 3.62814 20.679C3.21065 19.6713 2.99715 18.5908 2.99999 17.5ZM4.06049 28L5.99999 26.0605L7.93949 28H4.06049Z" fill="black"/>
<path d="M51.75 20L50.9062 19.5312L50.4375 19.2188C50.2917 19.1146 50.1979 19.0625 50.1562 19.0625C49.9062 18.8958 49.6667 18.6979 49.4375 18.4688C49.3333 18.3438 49.2604 18.2812 49.2188 18.2812C49.1771 18.2812 49.0312 18.3333 48.7812 18.4375C48.6562 18.5 48.5417 18.5312 48.4375 18.5312C48.2917 18.5729 48.2083 18.6042 48.1875 18.625L48.0625 18.6562C48 18.6562 47.9583 18.6667 47.9375 18.6875C47.8125 18.75 47.6667 18.7812 47.5 18.7812C47.25 18.7812 47.0625 18.8125 46.9375 18.875C46.9375 18.9167 46.8854 18.9375 46.7812 18.9375C46.7396 18.9583 46.6875 18.9688 46.625 18.9688C46.5833 18.9688 46.5417 18.9792 46.5 19L46.1875 19.0625C46.0625 19.0625 46 19.0729 46 19.0938C45.9375 19.0938 45.8854 19.1042 45.8438 19.125C45.6146 19.125 45.4375 19.1458 45.3125 19.1875C45.2917 19.2083 45.1771 19.2396 44.9688 19.2812C44.7396 19.3646 44.5938 19.3854 44.5312 19.3438C44.4688 19.3021 44.3958 19.3021 44.3125 19.3438L44.1875 19.4062H44C43.875 19.4271 43.8021 19.3958 43.7812 19.3125C43.6979 19.1875 43.5938 19.1042 43.4688 19.0625L43.2812 19.0312C43.1146 19.0104 43.0104 18.9583 42.9688 18.875C42.9688 18.6458 42.9792 18.4583 43 18.3125C43.0208 18.2917 43.0312 18.1146 43.0312 17.7812L43.0625 17.2188C43.0833 17.1354 43.0833 17.0729 43.0625 17.0312C43.0208 16.9479 43.0208 16.8646 43.0625 16.7812C43.0625 16.7396 43.0833 16.6875 43.125 16.625C43.1875 16.5625 43.2396 16.4896 43.2812 16.4062C43.3438 16.3646 43.375 16.3125 43.375 16.25C43.4167 16.2083 43.4792 16.1042 43.5625 15.9375C43.6667 15.7708 43.7812 15.5938 43.9062 15.4062C43.9479 15.3646 44.0208 15.25 44.125 15.0625L44.2188 14.9062L44.2812 14.8438C44.2812 14.8021 44.3229 14.7083 44.4062 14.5625C44.4896 14.4167 44.5521 14.3125 44.5938 14.25C44.6146 14.2083 44.6354 14.1667 44.6562 14.125C44.6979 14.0625 44.7188 14.0104 44.7188 13.9688L44.625 13.9062C44.5 13.8646 44.4062 13.8333 44.3438 13.8125C44.2812 13.7708 44.2083 13.7083 44.125 13.625C44.0208 13.5208 43.8958 13.4375 43.75 13.375L43.1562 13.1875C43.1146 13.1667 43.0625 13.1458 43 13.125C42.9583 13.0833 42.9375 13.0521 42.9375 13.0312V12.875L42.9688 12.4062C42.9688 12.1771 42.9792 12.0521 43 12.0312V10.9688C42.9792 10.9479 42.9792 10.8958 43 10.8125C43.0417 10.7292 43.0625 10.625 43.0625 10.5C43.0625 10.2708 43.0833 10.1354 43.125 10.0938L43.2188 10.0625C43.2188 10.0208 43.2396 10 43.2812 10L43.4062 9.96875C43.4062 9.92708 43.4479 9.90625 43.5312 9.90625L43.625 9.875L43.8438 9.8125C44.0729 9.75 44.375 9.71875 44.75 9.71875C44.8542 9.71875 44.9167 9.70833 44.9375 9.6875C45.1042 9.60417 45.4375 9.5625 45.9375 9.5625C46.2917 9.54167 46.4896 9.51042 46.5312 9.46875C46.5521 9.46875 46.5833 9.41667 46.625 9.3125L46.75 9C46.8125 8.89583 46.8438 8.80208 46.8438 8.71875C46.9479 8.40625 47.0208 8.22917 47.0625 8.1875C47.0833 8.16667 47.0938 8.14583 47.0938 8.125C47.0938 8.08333 47.1042 8.05208 47.125 8.03125C47.1875 7.82292 47.2604 7.65625 47.3438 7.53125C47.4062 7.40625 47.4688 7.33333 47.5312 7.3125C47.5521 7.29167 47.6042 7.28125 47.6875 7.28125C47.8542 7.28125 48.0208 7.32292 48.1875 7.40625C48.2292 7.46875 48.2812 7.5 48.3438 7.5C48.3646 7.5 48.3958 7.52083 48.4375 7.5625C48.4792 7.5625 48.5208 7.58333 48.5625 7.625C48.6458 7.64583 48.6979 7.78125 48.7188 8.03125C48.7396 8.19792 48.7396 8.4375 48.7188 8.75C48.7188 9.0625 48.7083 9.23958 48.6875 9.28125C48.6875 9.36458 48.7188 9.41667 48.7812 9.4375C48.8438 9.45833 48.9583 9.46875 49.125 9.46875L49.5938 9.5L49.75 9.53125C50.0208 9.57292 50.3125 9.64583 50.625 9.75C50.8542 9.8125 51.0312 9.89583 51.1562 10L51.5 10.2188L51.8438 10.4375C51.9062 10.6042 51.9167 10.7396 51.875 10.8438V10.9688C51.8958 11.2396 51.9062 11.3854 51.9062 11.4062C51.9062 11.4062 51.8854 11.5104 51.8438 11.7188C51.8438 11.9062 51.8229 12.0625 51.7812 12.1875C51.6979 12.3125 51.6771 12.4375 51.7188 12.5625V12.625C51.7188 12.7083 51.6562 12.8333 51.5312 13C51.4688 13.0625 51.4375 13.1042 51.4375 13.125C51.3958 13.1875 51.3333 13.2396 51.25 13.2812C51.1667 13.3229 51.0938 13.3438 51.0312 13.3438C50.9062 13.3438 50.7188 13.3854 50.4688 13.4688C50.4271 13.4896 50.3646 13.5 50.2812 13.5C50.2188 13.5 50.1562 13.5104 50.0938 13.5312C49.6979 13.5312 49.4792 13.5521 49.4375 13.5938C49.3542 13.6771 49.1979 13.7188 48.9688 13.7188C48.8229 13.7188 48.7083 13.7396 48.625 13.7812C48.5208 13.8021 48.375 13.8125 48.1875 13.8125L47.7812 13.8438C47.6562 13.8854 47.5417 13.9062 47.4375 13.9062C47.3125 13.9062 47.2292 13.9167 47.1875 13.9375C47.1667 13.9583 47.125 14.0417 47.0625 14.1875L46.875 14.5938L46.3438 15.6562C46.2812 15.7604 46.25 15.8333 46.25 15.875C46.2708 15.9167 46.3438 15.9271 46.4688 15.9062L46.75 15.875L47.1562 15.8438L47.5312 15.7812L47.9062 15.75L48.4688 15.6875C48.5104 15.6667 48.5417 15.6354 48.5625 15.5938C48.5833 15.5312 48.5938 15.4375 48.5938 15.3125C48.5729 15.2292 48.5625 15.1562 48.5625 15.0938C48.5833 15.0104 48.5938 14.9688 48.5938 14.9688L48.625 14.6562V14.375L48.875 14.25L49.0625 14.2812C49.3333 14.3438 49.6146 14.5208 49.9062 14.8125L50.1875 15.0625C50.25 15.1042 50.375 15.2188 50.5625 15.4062L51.3125 16C51.9375 16.4583 52.2917 16.7292 52.375 16.8125C52.4583 16.8958 52.5104 16.9375 52.5312 16.9375L52.7812 17.1875C53.0312 17.3958 53.1979 17.6146 53.2812 17.8438V18.1875L53.3125 18.5312C53.3333 18.5729 53.3333 18.6354 53.3125 18.7188L53.2812 18.8438V18.9062L53.25 19.2812C53.25 19.3438 53.2292 19.3958 53.1875 19.4375C53.1667 19.4583 53.1562 19.5625 53.1562 19.75C53.1562 19.9167 53.1458 20.0208 53.125 20.0625L53.0625 20.0938L52.9062 20.25C52.8229 20.3333 52.7604 20.3854 52.7188 20.4062C52.6771 20.4062 52.6042 20.3854 52.5 20.3438L52.0625 20.1562L51.75 20ZM32.9062 24.7188C32.9062 24.5938 32.9271 24.5104 32.9688 24.4688L33.0312 24.4062C33.0521 24.3854 33.0833 24.3646 33.125 24.3438C33.1667 24.3021 33.2083 24.2812 33.25 24.2812C33.2917 24.2812 33.3229 24.2708 33.3438 24.25C33.4271 24.1875 33.5208 24.125 33.625 24.0625C33.7292 24 33.8125 23.9688 33.875 23.9688L34 23.9375L34.125 23.875L34.5938 23.6875C34.6771 23.6458 34.75 23.625 34.8125 23.625L35.0625 23.5312L35.3125 23.4375C35.3542 23.4375 35.4062 23.4062 35.4688 23.3438L35.5312 23.2812V22.5938C35.5521 21.8646 35.5521 21.4896 35.5312 21.4688L35.375 21.4375C35.1667 21.375 35.0521 21.3333 35.0312 21.3125L34.8438 21.2188L34.6562 21.125C34.5729 21.0625 34.4375 21.0104 34.25 20.9688C34.1667 20.9479 34.0729 20.9167 33.9688 20.875C33.8854 20.8125 33.8229 20.7604 33.7812 20.7188C33.7396 20.6771 33.7083 20.6354 33.6875 20.5938C33.6667 20.5312 33.6667 20.4896 33.6875 20.4688C33.6875 20.3854 33.6771 20.2604 33.6562 20.0938C33.6562 19.9062 33.6458 19.75 33.625 19.625L33.5938 19.4062V19.2188C33.5729 19.1979 33.5729 19.125 33.5938 19C33.5938 18.8958 33.5833 18.8125 33.5625 18.75C33.5417 18.7083 33.5312 18.6562 33.5312 18.5938C33.5521 18.5521 33.5833 18.5104 33.625 18.4688C33.6875 18.4062 33.7396 18.3646 33.7812 18.3438L33.9375 18.2812L34.0938 18.2188C34.1562 18.2188 34.1979 18.2083 34.2188 18.1875C34.3021 18.125 34.4062 18.0729 34.5312 18.0312C34.6562 17.9896 34.75 17.9583 34.8125 17.9375L34.9688 17.875L35.3125 17.8125L35.5938 17.75C35.6354 17.7292 35.6667 17.6875 35.6875 17.625C35.7083 17.5625 35.7188 17.4583 35.7188 17.3125C35.7188 17.0417 35.7292 16.8646 35.75 16.7812V16.4688C35.75 16.4479 35.7292 16.4375 35.6875 16.4375C35.5833 16.4375 35.4271 16.3854 35.2188 16.2812C35.1979 16.2604 35.1667 16.25 35.125 16.25L35 16.1875L34.875 16.125L34.7812 16.0938C34.7396 16.0521 34.6875 16.0208 34.625 16C34.5625 15.9792 34.4688 15.9583 34.3438 15.9375C34.1562 15.8958 34 15.8646 33.875 15.8438C33.7708 15.8021 33.6875 15.75 33.625 15.6875L33.5938 15.625L33.5625 15.375L33.5312 15C33.5104 14.9167 33.5 14.8229 33.5 14.7188C33.5 14.4271 33.4792 14.2396 33.4375 14.1562C33.3958 14.0312 33.375 13.875 33.375 13.6875C33.4167 13.625 33.4167 13.5625 33.375 13.5C33.3542 13.4167 33.3542 13.3542 33.375 13.3125C33.375 13.0208 33.3646 12.8542 33.3438 12.8125C33.3229 12.7917 33.3333 12.75 33.375 12.6875L33.4688 12.5625C33.5104 12.5417 33.5417 12.5104 33.5625 12.4688C33.6042 12.4271 33.6771 12.3958 33.7812 12.375C33.8854 12.375 33.9583 12.3542 34 12.3125C34.0417 12.2708 34.0729 12.25 34.0938 12.25L34.2812 12.1875C34.6146 12.0833 34.9479 12 35.2812 11.9375L35.5625 11.9062C35.5833 11.9062 35.6042 11.9062 35.625 11.9062C35.6667 11.8854 35.7188 11.875 35.7812 11.875L36.1562 11.8125C36.3229 11.7708 36.4792 11.75 36.625 11.75C36.875 11.7083 37.25 11.7083 37.75 11.75C37.9167 11.75 38.0417 11.7708 38.125 11.8125L38.4062 11.8438C38.6146 11.8854 38.7396 11.9375 38.7812 12C38.8021 12.0208 38.9688 12.0938 39.2812 12.2188C39.3021 12.2396 39.3438 12.2708 39.4062 12.3125C39.4896 12.3333 39.5417 12.3646 39.5625 12.4062C39.6042 12.4479 39.6354 12.5104 39.6562 12.5938C39.6979 12.6771 39.7083 12.75 39.6875 12.8125L39.6562 12.9062C39.6562 12.9479 39.6875 13.0312 39.75 13.1562C39.7917 13.2396 39.8021 13.3125 39.7812 13.375C39.7604 13.4375 39.75 13.5729 39.75 13.7812C39.7708 13.9688 39.7708 14.0833 39.75 14.125C39.6875 14.25 39.6771 14.4167 39.7188 14.625C39.7396 14.7292 39.7396 14.8125 39.7188 14.875L39.625 15.0312L39.5312 15.1875L39.3438 15.3438C39.2396 15.4479 39.1667 15.5 39.125 15.5C39.0625 15.5 38.9896 15.5208 38.9062 15.5625C38.8229 15.6042 38.7396 15.6562 38.6562 15.7188L38.5 15.7812C38.4375 15.7812 38.3542 15.8125 38.25 15.875C37.9583 16 37.7604 16.0729 37.6562 16.0938C37.6146 16.0938 37.5833 16.1042 37.5625 16.125C37.5417 16.125 37.5208 16.125 37.5 16.125C37.5 16.1458 37.4688 16.1562 37.4062 16.1562C37.3646 16.1771 37.3333 16.2083 37.3125 16.25C37.3125 16.2708 37.3125 16.3229 37.3125 16.4062C37.375 17.0938 37.4062 17.4375 37.4062 17.4375L37.4375 17.4688H37.6562C37.7396 17.4479 37.9688 17.4375 38.3438 17.4375C38.5938 17.4375 38.8021 17.4583 38.9688 17.5C39.0729 17.5 39.1667 17.5208 39.25 17.5625C39.3125 17.5625 39.3854 17.5833 39.4688 17.625C39.5312 17.6875 39.5833 17.7188 39.625 17.7188L39.9062 17.8438C40.0312 17.9062 40.1042 17.9792 40.125 18.0625C40.1667 18.125 40.1875 18.1979 40.1875 18.2812C40.1667 18.3229 40.1771 18.3854 40.2188 18.4688C40.2396 18.5312 40.25 18.6875 40.25 18.9375C40.25 19.1667 40.2396 19.3125 40.2188 19.375C40.1771 19.5208 40.1771 19.6667 40.2188 19.8125L40.1875 20L40.0938 20.1562C40.0312 20.2188 40 20.2708 40 20.3125C39.9167 20.3958 39.8021 20.4583 39.6562 20.5L39.5 20.5625L39.4062 20.5938C39.3854 20.5938 39.3542 20.6146 39.3125 20.6562L39.125 20.7188C39.0625 20.7188 38.9792 20.75 38.875 20.8125C38.6875 20.875 38.5729 20.9062 38.5312 20.9062L38.2812 21C38.2396 21.0417 38.1771 21.0625 38.0938 21.0625C38.0312 21.0625 37.9583 21.0833 37.875 21.125C37.8125 21.125 37.7604 21.1458 37.7188 21.1875C37.6562 21.2083 37.6146 21.2396 37.5938 21.2812C37.5729 21.3229 37.5625 21.3958 37.5625 21.5C37.5625 22.2917 37.5729 22.6979 37.5938 22.7188C37.6562 22.7812 37.75 22.7917 37.875 22.75L38.125 22.7188C38.1667 22.6979 38.2083 22.6875 38.25 22.6875C38.3125 22.6875 38.3542 22.6771 38.375 22.6562L38.625 22.5938L38.8125 22.5625L38.9688 22.5312H39.1875C39.2292 22.5729 39.3333 22.5938 39.5 22.5938C39.6875 22.6146 39.8229 22.6562 39.9062 22.7188L40.2812 22.875L40.5625 23C40.6042 23 40.6458 23.0417 40.6875 23.125C40.7292 23.25 40.75 23.3229 40.75 23.3438C40.75 23.4896 40.7708 23.6042 40.8125 23.6875C40.875 23.7708 40.8958 23.875 40.875 24C40.875 24.0208 40.8646 24.0625 40.8438 24.125C40.8438 24.1667 40.8542 24.2292 40.875 24.3125V24.7812C40.8542 24.8438 40.8646 24.9375 40.9062 25.0625C40.9271 25.2292 40.9271 25.3333 40.9062 25.375L40.8438 25.5L40.625 25.7812C40.5 25.9062 40.3958 25.9792 40.3125 26L40.1562 26.0312C40.1146 26.0729 40.0833 26.0938 40.0625 26.0938L40 26.125L39.9375 26.1875L39.875 26.2188L39.7812 26.25C39.6979 26.2917 39.6354 26.3125 39.5938 26.3125L39.4375 26.4062L39.2812 26.4688L39.1562 26.5312L39 26.625L38.75 26.6875C38.625 26.6875 38.5417 26.7083 38.5 26.75C38.4583 26.7917 38.4062 26.8125 38.3438 26.8125L38.2812 26.875L38.2188 26.9062C38.1771 26.9062 38.1458 26.9167 38.125 26.9375C38.0833 26.9792 38.0417 27 38 27L37.8438 27.0938C37.8229 27.1146 37.7917 27.125 37.75 27.125C37.7292 27.125 37.7083 27.1354 37.6875 27.1562C37.625 27.1562 37.5208 27.2292 37.375 27.375C37.2917 27.4583 37.2188 27.5 37.1562 27.5C37.0729 27.5417 36.9688 27.5625 36.8438 27.5625C36.8021 27.5833 36.75 27.5938 36.6875 27.5938C36.625 27.5938 36.5833 27.6042 36.5625 27.625C36.5417 27.6458 36.5104 27.6562 36.4688 27.6562C36.4271 27.6562 36.3958 27.6667 36.375 27.6875L36.1875 27.75L35.9375 27.7812C35.8958 27.8021 35.8542 27.8125 35.8125 27.8125C35.7708 27.8125 35.7396 27.8229 35.7188 27.8438C35.6979 27.8646 35.5417 27.875 35.25 27.875C35.1667 27.8542 35.0625 27.8438 34.9375 27.8438C34.8125 27.8438 34.6771 27.8021 34.5312 27.7188C34.4271 27.6354 34.3333 27.5833 34.25 27.5625C34.1667 27.5417 34.0521 27.5312 33.9062 27.5312C33.6979 27.5312 33.5312 27.5104 33.4062 27.4688L33.3125 27.3438L33.2812 27.1562C33.2812 27.0521 33.2708 26.9792 33.25 26.9375C33.2083 26.6667 33.1979 26.5104 33.2188 26.4688C33.2188 26.3854 33.2083 26.3229 33.1875 26.2812L33.125 26.0312C33.0833 25.9896 33.0625 25.9375 33.0625 25.875C33.0625 25.625 33.0417 25.4583 33 25.375L32.9688 25.1562C32.9688 25.0104 32.9479 24.8646 32.9062 24.7188ZM40.2188 27.6562C40.1562 27.5521 40.1562 27.4583 40.2188 27.375C40.3646 27.1458 40.5521 26.9271 40.7812 26.7188C40.9688 26.5312 41.0625 26.4271 41.0625 26.4062L41.1562 26.2812L41.3438 26L41.7188 25.4688L41.8438 25.2812C41.8854 25.1771 41.9375 25.0729 42 24.9688C42.0625 24.8438 42.1146 24.7396 42.1562 24.6562C42.2396 24.5312 42.3125 24.3854 42.375 24.2188C42.4583 24.0521 42.5208 23.9271 42.5625 23.8438C42.5833 23.8229 42.5938 23.7917 42.5938 23.75C42.5938 23.7083 42.6042 23.6771 42.625 23.6562C42.6458 23.6354 42.6562 23.6042 42.6562 23.5625C42.6562 23.5208 42.6667 23.4896 42.6875 23.4688L42.7188 23.3125L42.7812 23.1562L42.875 22.875L42.9688 22.5938C42.9688 22.4896 43 22.375 43.0625 22.25L43.125 21.875L43.1875 21.6562L43.2188 21.5L43.2812 21.3438L43.4375 20.875L43.5 20.75L43.5938 20.625C43.6354 20.5208 43.7083 20.4479 43.8125 20.4062H43.9375C44 20.4062 44.1458 20.4688 44.375 20.5938C44.5208 20.6979 44.5938 20.7708 44.5938 20.8125L44.625 20.9375C44.6458 20.9792 44.6458 21.0312 44.625 21.0938C44.625 21.1562 44.6146 21.2083 44.5938 21.25C44.5729 21.2708 44.5625 21.3125 44.5625 21.375V21.5625C44.5417 21.625 44.5312 21.7083 44.5312 21.8125C44.5729 22.125 44.5833 22.6667 44.5625 23.4375V24.2812C44.5417 24.3021 44.5312 24.3646 44.5312 24.4688C44.5104 24.5312 44.5 24.6667 44.5 24.875C44.4792 24.9375 44.4688 25.0104 44.4688 25.0938C44.4688 25.1771 44.4583 25.2396 44.4375 25.2812L44.4062 25.5625L44.3438 25.8438L44.3125 26.1875L44.0938 27.0625C44.0104 27.375 43.9167 27.6042 43.8125 27.75L43.7188 27.9688C43.6771 28.1146 43.5938 28.2917 43.4688 28.5L43.3125 28.7188C43.2708 28.8229 43.1771 28.9583 43.0312 29.125L42.375 29.75C42.3125 29.7708 42.2292 29.8333 42.125 29.9375C41.9583 30.0625 41.8021 30.1354 41.6562 30.1562C41.5521 30.2188 41.4583 30.1771 41.375 30.0312C41.3125 29.9271 41.25 29.8646 41.1875 29.8438C41.125 29.8229 41.0104 29.8125 40.8438 29.8125C40.6354 29.7917 40.5104 29.7708 40.4688 29.75C40.4271 29.7083 40.4062 29.6146 40.4062 29.4688C40.3854 28.9479 40.3646 28.6562 40.3438 28.5938C40.3229 28.5729 40.3125 28.5 40.3125 28.375L40.2812 28.1562C40.2604 28.1146 40.25 28.0312 40.25 27.9062C40.25 27.7812 40.2396 27.6979 40.2188 27.6562ZM46.125 26.0312C46.125 24.9271 46.1771 24.0625 46.2812 23.4375L46.3438 22.625L46.4375 21.5938L46.4688 21.1875C46.4896 20.9792 46.5208 20.8542 46.5625 20.8125L46.625 20.6875L46.6875 20.5625C46.7083 20.5 46.7604 20.4583 46.8438 20.4375C46.9062 20.4375 47.0104 20.4583 47.1562 20.5C47.2396 20.5 47.3021 20.5208 47.3438 20.5625L47.4688 20.5938L47.5938 20.6562L47.7188 20.6875C47.8021 20.7083 47.875 20.7708 47.9375 20.875L48.1562 21.4688C48.1771 21.5521 48.2188 21.8646 48.2812 22.4062L48.3438 22.7812C48.3854 23.0729 48.4062 23.6042 48.4062 24.375L48.375 25.375C48.3542 25.4375 48.3438 25.5104 48.3438 25.5938C48.3438 25.6562 48.3333 25.7188 48.3125 25.7812C48.2708 26.2812 48.25 26.5417 48.25 26.5625L48.2188 26.875C48.1979 26.9375 48.1875 27 48.1875 27.0625C48.1875 27.125 48.1771 27.1771 48.1562 27.2188L48.125 27.5312C48.1042 27.5938 48.0938 27.6771 48.0938 27.7812C48.0729 27.8229 48.0625 27.8854 48.0625 27.9688C48.0625 28.0521 48.0521 28.125 48.0312 28.1875C48.0312 28.375 48.0104 28.5104 47.9688 28.5938L47.9375 28.9688C47.9375 29.0938 47.9062 29.2188 47.8438 29.3438C47.7604 29.5104 47.6875 29.6146 47.625 29.6562C47.5625 29.6771 47.5 29.6354 47.4375 29.5312C47.3125 29.4062 47.25 29.3438 47.25 29.3438L47.0938 29.2188L47.0312 29.25C46.9896 29.2917 46.9375 29.2917 46.875 29.25C46.8333 29.2292 46.7812 29.2188 46.7188 29.2188H46.625C46.5417 29.2188 46.4792 29.1979 46.4375 29.1562C46.4167 29.1146 46.3958 29.0208 46.375 28.875L46.3438 28.5938L46.3125 28L46.25 27.5V27.25C46.25 27.1875 46.2292 27.0729 46.1875 26.9062C46.1458 26.6562 46.125 26.3646 46.125 26.0312ZM48.9375 24.875C48.9583 24.8333 48.9688 24.7812 48.9688 24.7188C48.9688 24.6562 48.9792 24.5938 49 24.5312L49.0312 24.25C49.0729 24.1667 49.0938 24.0625 49.0938 23.9375C49.1771 23.6042 49.25 23.3542 49.3125 23.1875L49.4688 22.5L49.5625 22.2188C49.625 21.9896 49.6562 21.8542 49.6562 21.8125C49.6771 21.75 49.6979 21.6771 49.7188 21.5938C49.7396 21.5104 49.7708 21.4271 49.8125 21.3438C49.8333 21.2812 49.8646 21.2292 49.9062 21.1875C49.9479 21.1458 50 21.1146 50.0625 21.0938C50.0833 21.0729 50.1146 21.0625 50.1562 21.0625L50.2812 21.0938C50.3021 21.1146 50.3229 21.125 50.3438 21.125C50.3854 21.125 50.4167 21.1354 50.4375 21.1562C50.5 21.1979 50.5729 21.2396 50.6562 21.2812C50.8021 21.3646 50.8958 21.4896 50.9375 21.6562C51 21.7812 51.0521 22.0729 51.0938 22.5312C51.1146 22.7604 51.1146 23.0833 51.0938 23.5C51.0938 23.9167 51.0833 24.2708 51.0625 24.5625C51.0625 24.7917 51.0521 24.9479 51.0312 25.0312V25.625C51.0312 25.8333 51.0417 25.9479 51.0625 25.9688C51.1042 26.0104 51.2083 26.0208 51.375 26C51.625 25.9583 51.7812 25.9167 51.8438 25.875C51.8854 25.8333 51.9479 25.8125 52.0312 25.8125L52.25 25.75C52.3333 25.7083 52.3958 25.6875 52.4375 25.6875L52.5625 25.5938L52.875 25.4375L53.125 25.3438L53.4375 25.2188C53.5 25.2188 53.5729 25.1875 53.6562 25.125L53.9062 25.0625L54.0312 25C54.1354 24.9375 54.2604 24.8958 54.4062 24.875C54.4896 24.8542 54.6146 24.8021 54.7812 24.7188L55.0625 24.5625C55.0833 24.5625 55.1562 24.5312 55.2812 24.4688L55.9688 24.1562C56.0938 24.1354 56.2292 24.1354 56.375 24.1562C56.4167 24.1771 56.4896 24.1875 56.5938 24.1875L56.75 24.2188C56.75 24.2396 56.8021 24.25 56.9062 24.25C57.0312 24.25 57.1146 24.2708 57.1562 24.3125L57.3125 24.3438L57.4688 24.4688L57.6562 24.5625C57.6771 24.5625 57.8229 24.625 58.0938 24.75L58.3438 24.8438C58.4062 24.8438 58.4479 24.8646 58.4688 24.9062C58.5104 24.9479 58.5417 25.0104 58.5625 25.0938L58.6562 25.3438C58.6771 25.3854 58.6771 25.4375 58.6562 25.5C58.6562 25.6458 58.6979 25.8333 58.7812 26.0625L58.8438 26.2812L58.8125 26.4062L58.7812 26.5312V26.9688C58.8021 27.2604 58.8021 27.4167 58.7812 27.4375C58.6979 27.5833 58.6667 27.7292 58.6875 27.875C58.6875 28.0208 58.6979 28.1146 58.7188 28.1562C58.7396 28.1771 58.75 28.25 58.75 28.375C58.75 28.4583 58.7292 28.5312 58.6875 28.5938L58.5625 28.8125L58.4688 28.9688L58.4062 29.0625C58.3854 29.1042 58.3542 29.1562 58.3125 29.2188C58.2708 29.2812 58.2292 29.3229 58.1875 29.3438C58.1667 29.3646 58.125 29.375 58.0625 29.375C57.875 29.4375 57.7604 29.4896 57.7188 29.5312C57.6771 29.5729 57.6146 29.6146 57.5312 29.6562C57.4688 29.6771 57.4167 29.6875 57.375 29.6875C57.3542 29.7083 57.3333 29.7188 57.3125 29.7188C57.2917 29.7188 57.2812 29.7292 57.2812 29.75L57.1875 29.7812C57.0833 29.7812 56.9896 29.8021 56.9062 29.8438C56.8854 29.8646 56.8542 29.875 56.8125 29.875L56.5312 30.0312C56.5312 30.0521 56.5104 30.0729 56.4688 30.0938C56.4271 30.1146 56.3854 30.125 56.3438 30.125C56.3021 30.125 56.2812 30.1354 56.2812 30.1562L56.125 30.1875C56.0625 30.1875 56.0208 30.1979 56 30.2188L55.875 30.25C55.7917 30.25 55.7188 30.2708 55.6562 30.3125C55.5729 30.3542 55.5 30.375 55.4375 30.375C55.3333 30.375 55.2188 30.3958 55.0938 30.4375C55.0938 30.4583 55.0521 30.4688 54.9688 30.4688L54.7188 30.5312C54.6562 30.5521 54.5729 30.5625 54.4688 30.5625C54.1771 30.5625 53.9792 30.5729 53.875 30.5938C53.8125 30.6146 53.7292 30.625 53.625 30.625C53.5208 30.625 53.4583 30.6354 53.4375 30.6562C53.4167 30.6562 53.3854 30.6667 53.3438 30.6875C53.3229 30.6875 53.2917 30.6771 53.25 30.6562C53.2083 30.6354 53.1562 30.625 53.0938 30.625C53.0521 30.625 53 30.6146 52.9375 30.5938L52.625 30.5625L52.4375 30.5312L52.25 30.4375C52.25 30.4375 52.125 30.3854 51.875 30.2812L51.1875 30.0312L50.9375 29.9062C50.8542 29.8854 50.75 29.8438 50.625 29.7812C50.5208 29.7396 50.3229 29.6354 50.0312 29.4688C49.8021 29.2812 49.6771 29.1771 49.6562 29.1562C49.6354 29.0938 49.5521 28.9583 49.4062 28.75L49.375 28.625C49.2708 28.4167 49.2188 28.0625 49.2188 27.5625C49.1979 27.4583 49.1875 27.3438 49.1875 27.2188C49.1875 27.0938 49.1771 27 49.1562 26.9375C49.1562 26.8125 49.1458 26.7292 49.125 26.6875L49.0938 26.2188C49.0938 26.0729 49.0833 25.9688 49.0625 25.9062C49.0625 25.8229 49.0417 25.7396 49 25.6562C48.9583 25.5312 48.9375 25.3854 48.9375 25.2188V24.875ZM79.31 32C79.1642 32 78.9975 31.9375 78.81 31.8125C78.7475 31.7708 78.685 31.7396 78.6225 31.7188C78.5808 31.6979 78.5287 31.6979 78.4662 31.7188H78.185C77.9767 31.7188 77.8412 31.7292 77.7787 31.75C77.6954 31.75 77.6433 31.7396 77.6225 31.7188C77.5808 31.6771 77.5392 31.5729 77.4975 31.4062C77.4767 31.3438 77.4454 31.2917 77.4037 31.25C77.3621 31.2292 77.2683 31.1979 77.1225 31.1562L76.8725 31.0312L76.7162 30.9688L76.56 30.9062L76.0912 30.7188C76.0496 30.7188 75.9454 30.6771 75.7787 30.5938C75.6329 30.5104 75.5496 30.4583 75.5287 30.4375L75.3725 30.3438C75.2058 30.2396 75.0808 30.1562 74.9975 30.0938C74.935 30.0104 74.9037 29.8854 74.9037 29.7188L74.8412 29.4688L74.81 29.1875C74.81 29.0417 74.7996 28.9583 74.7787 28.9375V28.8125L74.7162 28.625L74.685 28.2812C74.6642 28.0938 74.6433 27.9896 74.6225 27.9688C74.6017 27.9271 74.5912 27.8646 74.5912 27.7812V27.625C74.5912 27.5 74.5704 27.4167 74.5287 27.375C74.4871 27.3333 74.4662 27.2812 74.4662 27.2188C74.4662 27.0521 74.6121 26.9688 74.9037 26.9688C75.0496 26.9688 75.2267 26.9896 75.435 27.0312C75.7267 27.0729 75.9767 27.1354 76.185 27.2188C76.3933 27.2812 76.5287 27.3229 76.5912 27.3438C76.7579 27.3854 76.8517 27.4167 76.8725 27.4375H76.935C76.9558 27.4375 76.9662 27.3854 76.9662 27.2812C76.9871 27.1562 77.0079 26.9688 77.0287 26.7188L77.06 25.9688L77.0912 25.125C77.0912 23.7917 77.1017 23.0625 77.1225 22.9375L77.1537 22.25C77.1537 21.8958 77.1433 21.7083 77.1225 21.6875L77.0912 21.5938L77.06 21.6875C77.0183 21.6875 76.9662 21.7188 76.9037 21.7812C76.7579 21.9271 76.6017 22.0417 76.435 22.125L76.0287 22.375C75.9037 22.5 75.8204 22.5729 75.7787 22.5938L75.1225 23.1875C74.9558 23.2708 74.7475 23.4271 74.4975 23.6562C74.4767 23.6979 74.435 23.7396 74.3725 23.7812C74.31 23.8229 74.2475 23.8542 74.185 23.875L74.0287 23.9375C74.0287 23.9583 73.9871 23.9896 73.9037 24.0312C73.8412 24.0729 73.7475 24.0938 73.6225 24.0938C73.4767 24.0938 73.3412 24.0521 73.2162 23.9688L73.0912 23.9062C72.9662 23.8646 72.7996 23.8438 72.5912 23.8438H72.4975C72.4558 23.8438 72.4142 23.7812 72.3725 23.6562C72.3517 23.5312 72.3308 23.3333 72.31 23.0625C72.31 22.8958 72.2996 22.8021 72.2787 22.7812C72.2371 22.6979 72.2162 22.4688 72.2162 22.0938C72.2162 21.9479 72.2058 21.8438 72.185 21.7812C72.1433 21.7396 72.1225 21.7083 72.1225 21.6875C72.1225 21.6458 72.1329 21.6042 72.1537 21.5625C72.2579 21.4167 72.4037 21.2708 72.5912 21.125C72.8204 20.9167 73.0912 20.7083 73.4037 20.5C73.4871 20.4375 73.5704 20.3854 73.6537 20.3438C73.7371 20.2812 73.81 20.2292 73.8725 20.1875C73.8933 20.1667 73.935 20.1354 73.9975 20.0938C74.06 20.0521 74.1017 20.0312 74.1225 20.0312C74.1642 20.0104 74.2058 20 74.2475 20C74.2892 19.9792 74.3204 19.9583 74.3412 19.9375L74.4975 19.8125C74.5808 19.7708 74.6537 19.7188 74.7162 19.6562C74.7996 19.5938 74.8412 19.5521 74.8412 19.5312C74.8412 19.5104 74.7475 19.4688 74.56 19.4062C74.4975 19.3854 74.435 19.3438 74.3725 19.2812C74.2267 19.2188 74.0392 19.1667 73.81 19.125C73.7683 19.1042 73.7162 19.0938 73.6537 19.0938C73.5912 19.0938 73.5392 19.0833 73.4975 19.0625L73.2475 19C73.2058 19 73.1642 18.9688 73.1225 18.9062C73.0808 18.8438 73.0496 18.7292 73.0287 18.5625L72.9975 18.25V17.9688C72.9975 17.8854 72.9767 17.7812 72.935 17.6562C72.9142 17.6146 72.9037 17.4792 72.9037 17.25C72.8829 17.1667 72.8725 17.0417 72.8725 16.875V16.7188C72.8725 16.6146 72.8517 16.5208 72.81 16.4375C72.7683 16.3958 72.7683 16.3229 72.81 16.2188C72.9142 16.1146 73.0287 16.0625 73.1537 16.0625C73.6954 16 74.0912 15.9896 74.3412 16.0312C75.0287 16.0521 75.5392 16.1146 75.8725 16.2188C76.3517 16.3021 76.6746 16.3854 76.8412 16.4688C76.9037 16.4896 76.9767 16.5208 77.06 16.5625C77.1433 16.5833 77.1954 16.5833 77.2162 16.5625C77.2371 16.5417 77.2579 16.5 77.2787 16.4375C77.2996 16.3542 77.31 16.2292 77.31 16.0625C77.31 15.6875 77.3204 15.4479 77.3412 15.3438V14.5C77.3412 14.1667 77.3308 13.9896 77.31 13.9688C77.2683 13.9479 77.1954 13.9271 77.0912 13.9062C77.0079 13.8646 76.935 13.8438 76.8725 13.8438C76.8308 13.8438 76.7996 13.8333 76.7787 13.8125H76.685C76.5808 13.8125 76.4662 13.8021 76.3412 13.7812C76.2371 13.7396 76.1642 13.7188 76.1225 13.7188C76.0808 13.6771 75.9871 13.6562 75.8412 13.6562C75.7162 13.6562 75.6017 13.6458 75.4975 13.625C75.4142 13.6042 75.3412 13.5729 75.2787 13.5312C75.2371 13.5312 75.1642 13.4792 75.06 13.375L74.81 13.2188C74.7892 13.1979 74.7162 13.1667 74.5912 13.125L74.1537 12.9688C73.9871 12.9062 73.8829 12.8542 73.8412 12.8125C73.8204 12.7708 73.8204 12.6354 73.8412 12.4062C73.8412 12.1146 73.8517 11.9583 73.8725 11.9375C73.8725 11.8542 73.8621 11.7812 73.8412 11.7188C73.8412 11.4479 73.8517 11.2812 73.8725 11.2188V11C73.8517 10.9375 73.8517 10.875 73.8725 10.8125C73.935 10.6667 73.9454 10.5312 73.9037 10.4062C73.8829 10.3854 73.8725 10.3438 73.8725 10.2812C73.8725 10.1979 73.8933 10.1458 73.935 10.125C73.9975 10.0417 74.1121 9.97917 74.2787 9.9375C74.3621 9.9375 74.4246 9.91667 74.4662 9.875C74.6121 9.8125 74.8621 9.76042 75.2162 9.71875C75.4246 9.71875 75.56 9.70833 75.6225 9.6875C76.0808 9.64583 76.4871 9.625 76.8412 9.625C77.2371 9.625 77.4454 9.61458 77.4662 9.59375L77.4975 9.40625V9.09375L77.5287 8.6875C77.5496 8.625 77.56 8.52083 77.56 8.375C77.5808 8.33333 77.5912 8.28125 77.5912 8.21875C77.5912 8.15625 77.6017 8.09375 77.6225 8.03125C77.6225 7.82292 77.6642 7.61458 77.7475 7.40625C77.7892 7.34375 77.8308 7.3125 77.8725 7.3125C77.8933 7.29167 77.9142 7.28125 77.935 7.28125C77.9767 7.28125 78.0183 7.26042 78.06 7.21875C78.1225 7.17708 78.2267 7.17708 78.3725 7.21875C78.435 7.28125 78.4975 7.3125 78.56 7.3125C78.6642 7.33333 78.7371 7.375 78.7787 7.4375C78.8412 7.5 78.8933 7.53125 78.935 7.53125L79.185 7.65625C79.2892 7.71875 79.3725 7.80208 79.435 7.90625C79.4767 8.03125 79.4975 8.125 79.4975 8.1875L79.5287 8.34375C79.5496 8.36458 79.56 8.4375 79.56 8.5625C79.5808 8.60417 79.5912 8.64583 79.5912 8.6875C79.5912 8.72917 79.6017 8.76042 79.6225 8.78125L79.685 9.40625L79.7162 9.59375C79.7162 9.61458 79.7787 9.625 79.9037 9.625C80.3829 9.625 80.9037 9.65625 81.4662 9.71875C81.6329 9.73958 81.8933 9.8125 82.2475 9.9375C82.2892 9.9375 82.3829 9.97917 82.5287 10.0625C82.5912 10.125 82.6433 10.1562 82.685 10.1562C82.7683 10.2396 82.9767 10.3542 83.31 10.5C83.3308 10.5208 83.3412 10.5521 83.3412 10.5938C83.3412 10.6146 83.3517 10.6354 83.3725 10.6562L83.4037 10.9062C83.3829 10.9688 83.3725 11.0417 83.3725 11.125C83.3725 11.1875 83.3829 11.2396 83.4037 11.2812C83.4246 11.3021 83.435 11.3438 83.435 11.4062C83.435 11.4479 83.4246 11.4896 83.4037 11.5312L83.3725 11.7812C83.3517 12.0312 83.2996 12.1979 83.2162 12.2812C83.1746 12.3646 83.1537 12.4688 83.1537 12.5938V12.8438C83.1121 12.8854 83.06 12.9479 82.9975 13.0312C82.935 13.0938 82.8725 13.1458 82.81 13.1875C82.7892 13.2083 82.7162 13.25 82.5912 13.3125L82.06 13.4688C82.06 13.4688 82.0287 13.4688 81.9662 13.4688L81.7475 13.5C81.6433 13.5 81.56 13.5104 81.4975 13.5312L81.185 13.5625C81.1225 13.5833 81.0392 13.5938 80.935 13.5938C80.9142 13.6146 80.8621 13.625 80.7787 13.625L80.0912 13.7188C80.0496 13.7188 80.0079 13.7292 79.9662 13.75C79.9454 13.7708 79.935 13.7917 79.935 13.8125C79.8933 13.8542 79.8933 13.9583 79.935 14.125L79.9662 15.8438V16.4375C79.9662 16.75 79.9662 17.0938 79.9662 17.4688C79.9871 17.8438 80.0079 18.1146 80.0287 18.2812C80.0287 18.3229 80.0496 18.3542 80.0912 18.375C80.1121 18.375 80.2475 18.25 80.4975 18C80.5183 17.9583 80.5392 17.9271 80.56 17.9062C80.6017 17.8646 80.6225 17.8333 80.6225 17.8125C80.7058 17.7292 80.7579 17.6562 80.7787 17.5938C80.9662 17.2812 81.1225 17.0625 81.2475 16.9375C81.4767 16.6458 81.6121 16.4479 81.6537 16.3438C81.6954 16.3021 81.7267 16.25 81.7475 16.1875C81.7892 16.125 81.8204 16.0729 81.8412 16.0312C81.9662 15.9062 82.0496 15.7604 82.0912 15.5938L82.1225 15.4688L82.185 15.3438C82.185 15.3229 82.2058 15.2917 82.2475 15.25C82.2892 15.25 82.3204 15.2396 82.3412 15.2188C82.3829 15.1771 82.4246 15.125 82.4662 15.0625C82.5704 14.8125 82.6537 14.6875 82.7162 14.6875L82.8412 14.6562C82.8829 14.6146 82.935 14.5938 82.9975 14.5938C83.0808 14.5938 83.1954 14.625 83.3412 14.6875C83.4454 14.7292 83.5183 14.7812 83.56 14.8438L83.7162 14.9375L84.185 15.125C84.2267 15.1458 84.2683 15.2396 84.31 15.4062L84.3412 15.5938C84.3829 15.7396 84.3829 16.0625 84.3412 16.5625C84.3412 16.7292 84.3308 16.8646 84.31 16.9688C84.2892 17.0729 84.2475 17.1979 84.185 17.3438C84.0808 17.6562 83.9246 17.9167 83.7162 18.125C83.6954 18.1667 83.6642 18.1979 83.6225 18.2188C83.6017 18.2396 83.5808 18.2708 83.56 18.3125L83.1537 18.6875C82.9662 18.8958 82.8725 19.0208 82.8725 19.0625C82.8725 19.125 82.9558 19.1771 83.1225 19.2188L83.3725 19.25C83.3933 19.2708 83.4246 19.2812 83.4662 19.2812C83.5079 19.2812 83.5392 19.2917 83.56 19.3125C83.8933 19.375 84.0912 19.4167 84.1537 19.4375L84.5287 19.5312L84.9975 19.625C85.2058 19.7292 85.3517 19.7917 85.435 19.8125C85.6017 19.8542 85.7371 19.875 85.8412 19.875L86.0912 19.9375C86.1121 19.9583 86.1642 19.9688 86.2475 19.9688L86.4037 20.0312L86.56 20.0625C86.6433 20.0625 86.7162 20.0729 86.7787 20.0938C86.8829 20.1146 86.9662 20.1562 87.0287 20.2188C87.0496 20.2604 87.0912 20.3021 87.1537 20.3438C87.2371 20.3438 87.3308 20.3854 87.435 20.4688L87.7162 20.5938C87.7996 20.6354 87.8621 20.6875 87.9037 20.75C87.9454 20.7917 87.9767 20.875 87.9975 21C88.0183 21.0625 88.0287 21.1667 88.0287 21.3125L88.0912 21.7188V22C88.0912 22.5 88.0704 22.8125 88.0287 22.9375C88.0287 22.9792 88.0183 23.0417 87.9975 23.125C87.9975 23.1875 87.9975 23.3021 87.9975 23.4688C87.9767 23.7812 87.9454 23.9896 87.9037 24.0938C87.8621 24.1354 87.81 24.2083 87.7475 24.3125C87.7058 24.3958 87.6433 24.4792 87.56 24.5625C87.5183 24.6042 87.4767 24.6354 87.435 24.6562C87.4142 24.6562 87.3725 24.6562 87.31 24.6562H87.06C86.81 24.6562 86.6017 24.6354 86.435 24.5938L86.31 24.5625L86.1225 24.5312L85.8725 24.4375C85.7683 24.4375 85.685 24.4062 85.6225 24.3438C85.6225 24.3438 85.4767 24.2812 85.185 24.1562L84.935 24.0312L84.685 23.9375L84.2162 23.75L83.9037 23.625C83.6746 23.5208 83.4142 23.3958 83.1225 23.25C82.8308 23.1042 82.6433 22.9896 82.56 22.9062L82.2162 22.6562C82.1121 22.5521 82.06 22.5 82.06 22.5L81.8412 22.4062L81.4662 22.1562C81.4246 22.1354 81.2475 22 80.935 21.75C80.935 21.75 80.8517 21.6667 80.685 21.5L80.4037 21.2812L80.2787 21.1562L80.2475 21.2188C80.2267 21.2396 80.2162 21.2812 80.2162 21.3438C80.2162 21.5104 80.2371 21.6875 80.2787 21.875C80.3204 22.375 80.3412 22.8125 80.3412 23.1875V24.0625C80.3621 24.3125 80.3725 24.6354 80.3725 25.0312C80.4142 25.5729 80.435 26.8333 80.435 28.8125C80.3933 29.6042 80.3725 29.9896 80.3725 29.9688L80.2787 30.4375L79.9662 31.3125C79.9454 31.3542 79.9037 31.4271 79.8412 31.5312C79.7996 31.6354 79.7267 31.7292 79.6225 31.8125L79.4662 32H79.31ZM63.4037 24C63.4037 23.9375 63.4142 23.9062 63.435 23.9062C63.4975 23.9062 63.56 23.875 63.6225 23.8125C63.6433 23.7917 63.6746 23.7812 63.7162 23.7812C63.7579 23.7812 63.81 23.7604 63.8725 23.7188C63.935 23.6771 63.9767 23.6354 63.9975 23.5938C64.0392 23.5521 64.1017 23.5208 64.185 23.5L64.435 23.375C64.4975 23.3125 64.5704 23.2812 64.6537 23.2812C64.6954 23.2396 64.7892 23.2188 64.935 23.2188L65.2162 23.125L65.5287 23.0938L65.7475 23.0625C65.8517 23.0625 65.935 23.0312 65.9975 22.9688L66.185 22.9375C66.3308 22.9167 66.4142 22.8438 66.435 22.7188C66.4975 22.4271 66.5287 22.0729 66.5287 21.6562V21.1562C66.4871 21.1146 66.3829 21.0729 66.2162 21.0312C65.9871 20.9688 65.8621 20.9271 65.8412 20.9062C65.7787 20.8646 65.6954 20.8333 65.5912 20.8125C65.4871 20.7708 65.3829 20.75 65.2787 20.75C65.2371 20.7292 65.1954 20.7188 65.1537 20.7188C65.1121 20.7188 65.0808 20.7083 65.06 20.6875L64.8725 20.6562L64.6225 20.5625C64.5808 20.5417 64.5496 20.4792 64.5287 20.375C64.5079 20.3333 64.4975 20.2708 64.4975 20.1875V20.0625C64.4558 19.9792 64.435 19.8125 64.435 19.5625L64.3412 19.125C64.3204 19.1042 64.31 18.9896 64.31 18.7812C64.2892 18.7396 64.2787 18.6979 64.2787 18.6562C64.2787 18.5938 64.2683 18.5521 64.2475 18.5312V18.375C64.2683 18.3542 64.2787 18.2917 64.2787 18.1875C64.2787 18.1042 64.2579 18.0417 64.2162 18C64.1537 17.9375 64.1642 17.8646 64.2475 17.7812C64.2892 17.6979 64.4662 17.5938 64.7787 17.4688L65.7787 17.375C66.2371 17.3333 66.4767 17.3021 66.4975 17.2812C66.5183 17.2604 66.5392 17.1146 66.56 16.8438L66.5912 16.5312V16.4062C66.5912 16.3646 66.5392 16.3333 66.435 16.3125C66.4142 16.3125 66.3725 16.3125 66.31 16.3125C66.2683 16.2917 66.2475 16.2917 66.2475 16.3125C66.2058 16.3125 66.1433 16.2917 66.06 16.25C65.9767 16.1875 65.8933 16.1146 65.81 16.0312C65.6433 15.9062 65.435 15.8229 65.185 15.7812L64.8725 15.75C64.7475 15.75 64.6433 15.7292 64.56 15.6875C64.3933 15.6875 64.2892 15.6354 64.2475 15.5312C64.2267 15.5312 64.2162 15.4479 64.2162 15.2812L64.185 14.8438L64.1537 14.4062V14.25C64.1329 14.2292 64.1017 14.1146 64.06 13.9062C64.0183 13.6979 63.9975 13.5104 63.9975 13.3438C63.9767 13.3021 63.9662 13.25 63.9662 13.1875C63.9662 13.125 63.9558 13.0729 63.935 13.0312C63.9142 12.9896 63.9037 12.8958 63.9037 12.75V12.5938C63.9037 12.4688 63.8725 12.3646 63.81 12.2812C63.7683 12.1979 63.7475 12.1458 63.7475 12.125C63.7475 12.0417 63.7892 11.9583 63.8725 11.875C63.9142 11.8333 63.9767 11.8021 64.06 11.7812C64.2683 11.7396 64.6121 11.7188 65.0912 11.7188C65.7996 11.7188 66.4871 11.6875 67.1537 11.625C68.1329 11.625 68.6954 11.6458 68.8412 11.6875C68.9454 11.6875 69.06 11.7083 69.185 11.75C69.31 11.7708 69.4142 11.8021 69.4975 11.8438C69.5808 11.8438 69.6433 11.8646 69.685 11.9062L69.8412 12C69.9454 12 70.0079 12.0312 70.0287 12.0938C70.1537 12.1562 70.2371 12.1875 70.2787 12.1875C70.3829 12.2292 70.4454 12.2917 70.4662 12.375C70.4662 12.4375 70.4767 12.4792 70.4975 12.5C70.5183 12.5208 70.5287 12.5729 70.5287 12.6562C70.5079 12.7604 70.5183 12.8646 70.56 12.9688L70.6537 13.1562L70.5912 13.5938C70.5912 13.9271 70.5808 14.1146 70.56 14.1562C70.5392 14.1979 70.5287 14.25 70.5287 14.3125C70.5287 14.3542 70.5392 14.4167 70.56 14.5C70.6225 14.625 70.6121 14.75 70.5287 14.875C70.4871 14.9167 70.4662 14.9688 70.4662 15.0312C70.3829 15.1979 70.2996 15.2917 70.2162 15.3125C70.1954 15.3125 70.1225 15.3438 69.9975 15.4062L69.8412 15.5L69.7475 15.5312L69.5287 15.5625L69.3412 15.625C69.3412 15.6667 69.2996 15.6875 69.2162 15.6875C69.1121 15.6875 68.9767 15.7396 68.81 15.8438L68.7162 15.875C68.6746 15.875 68.6433 15.8854 68.6225 15.9062C68.6017 15.9062 68.5912 15.9271 68.5912 15.9688L68.685 16.6562C68.685 16.8021 68.6954 16.9062 68.7162 16.9688L68.7475 17.1562L68.9975 17.1875H69.4037L69.7162 17.25L69.935 17.3125L70.06 17.375C70.1433 17.3958 70.2371 17.4479 70.3412 17.5312C70.4454 17.5938 70.5079 17.625 70.5287 17.625C70.5496 17.6458 70.5704 17.6875 70.5912 17.75C70.6329 17.8125 70.6537 17.875 70.6537 17.9375L70.685 18.1562C70.7267 18.2396 70.7475 18.3229 70.7475 18.4062L70.7787 18.6875C70.7996 18.8125 70.7996 18.9271 70.7787 19.0312C70.7371 19.1146 70.7371 19.2292 70.7787 19.375C70.7996 19.4167 70.81 19.4688 70.81 19.5312C70.81 19.5938 70.7892 19.6667 70.7475 19.75C70.6642 19.875 70.5912 19.9688 70.5287 20.0312C70.4871 20.0729 70.4246 20.1146 70.3412 20.1562C70.2371 20.2188 70.1746 20.2708 70.1537 20.3125C69.9662 20.4167 69.8517 20.4688 69.81 20.4688L69.56 20.5312C69.3933 20.6146 69.2579 20.6667 69.1537 20.6875C69.0704 20.6875 69.0183 20.6979 68.9975 20.7188C68.9767 20.7188 68.9558 20.7292 68.935 20.75C68.9142 20.75 68.9037 20.7917 68.9037 20.875L68.935 21.4062L68.9662 21.9375C68.9662 22.1458 68.9871 22.2604 69.0287 22.2812L69.4975 22.375C69.685 22.375 69.8412 22.4167 69.9662 22.5L70.2162 22.625C70.2787 22.6458 70.3621 22.6771 70.4662 22.7188C70.5912 22.7604 70.6746 22.8021 70.7162 22.8438C70.7787 22.8646 70.81 22.8854 70.81 22.9062C70.81 22.9479 70.8204 22.9792 70.8412 23C70.8621 23.0208 70.8725 23.0417 70.8725 23.0625L70.935 23.2812C70.935 23.3229 70.9454 23.375 70.9662 23.4375C70.9871 23.5 71.0079 23.5521 71.0287 23.5938L71.0912 23.7188V24C71.1121 24.125 71.1225 24.2812 71.1225 24.4688C71.1225 24.5729 71.1121 24.6562 71.0912 24.7188C71.0704 24.9062 71.0808 25.0521 71.1225 25.1562C71.1642 25.2396 71.185 25.3125 71.185 25.375C71.185 25.4792 71.1225 25.625 70.9975 25.8125C70.8933 25.875 70.8412 25.9167 70.8412 25.9375C70.7996 25.9792 70.7371 26.0521 70.6537 26.1562C70.5704 26.2396 70.4871 26.3021 70.4037 26.3438L70.2787 26.4375L70.1537 26.4688L69.9975 26.5312C69.9142 26.6146 69.7996 26.6771 69.6537 26.7188C69.5496 26.7188 69.4767 26.7396 69.435 26.7812C69.3725 26.8438 69.2162 26.9167 68.9662 27L68.7475 27.0938C68.7058 27.0938 68.6642 27.1042 68.6225 27.125C68.5808 27.1458 68.5496 27.1562 68.5287 27.1562L68.3412 27.2188L68.1537 27.25L67.9975 27.2812C67.935 27.3229 67.81 27.3646 67.6225 27.4062C67.5183 27.4062 67.4454 27.4271 67.4037 27.4688C67.2579 27.5312 67.1017 27.5625 66.935 27.5625C66.8308 27.5625 66.7267 27.5833 66.6225 27.625C66.5183 27.6875 66.2996 27.7292 65.9662 27.75C65.7162 27.75 65.4767 27.6771 65.2475 27.5312C65.1017 27.4062 64.8725 27.3438 64.56 27.3438C64.2058 27.3229 63.9662 27.2604 63.8412 27.1562C63.8204 27.1146 63.7892 26.9896 63.7475 26.7812L63.7162 26.5625C63.6954 26.5 63.685 26.4375 63.685 26.375C63.685 26.2917 63.6746 26.2083 63.6537 26.125C63.6537 25.8333 63.6329 25.625 63.5912 25.5C63.5496 25.4583 63.5287 25.2917 63.5287 25L63.4975 24.8125V24.4688C63.4975 24.3646 63.4871 24.2917 63.4662 24.25C63.4662 24.1875 63.4558 24.1458 63.435 24.125L63.4037 24ZM81.8412 7.28125C81.8621 7.23958 81.8725 7.125 81.8725 6.9375L81.9662 6.65625C81.9871 6.57292 81.9975 6.4375 81.9975 6.25L82.0287 5.875C82.0496 5.8125 82.06 5.70833 82.06 5.5625C82.06 5.4375 82.0704 5.36458 82.0912 5.34375C82.1329 5.30208 82.1537 5.21875 82.1537 5.09375L82.185 4.9375L82.1225 4.875C82.0392 4.75 82.0287 4.64583 82.0912 4.5625C82.1537 4.5 82.2371 4.45833 82.3412 4.4375H82.4975C82.6642 4.4375 82.8308 4.45833 82.9975 4.5L83.2162 4.53125L83.5287 4.625L83.685 4.65625L83.8725 4.71875L84.06 4.78125L84.3725 4.9375L84.8412 5.125L85.7162 5.75L86.06 5.96875C86.1642 5.98958 86.2579 6.04167 86.3412 6.125L86.4975 6.21875C86.7683 6.40625 86.9767 6.59375 87.1225 6.78125C87.2267 6.88542 87.3308 7.01042 87.435 7.15625C87.5392 7.28125 87.6121 7.38542 87.6537 7.46875C87.6954 7.51042 87.6954 7.60417 87.6537 7.75V8.34375L87.5912 8.75C87.5496 8.875 87.5287 8.94792 87.5287 8.96875C87.5287 9.05208 87.5183 9.10417 87.4975 9.125L87.4662 9.34375C87.4662 9.40625 87.4454 9.46875 87.4037 9.53125C87.3621 9.59375 87.3204 9.64583 87.2787 9.6875C87.2162 9.75 87.185 9.875 87.185 10.0625C87.185 10.2708 87.1433 10.4167 87.06 10.5C86.8933 10.6667 86.7683 10.7812 86.685 10.8438C86.6225 10.8854 86.5392 10.9271 86.435 10.9688C86.3725 10.9688 86.3204 10.9583 86.2787 10.9375H86.1225C86.1017 10.9375 86.0704 10.9167 86.0287 10.875L85.8725 10.8125L85.7162 10.75L85.56 10.625C85.4558 10.5833 85.3204 10.5104 85.1537 10.4062C85.1121 10.3646 85.0496 10.3229 84.9662 10.2812C84.8829 10.2188 84.7892 10.1562 84.685 10.0938C84.5392 10.0521 84.4037 9.97917 84.2787 9.875C83.9246 9.66667 83.7267 9.55208 83.685 9.53125C83.56 9.44792 83.3621 9.32292 83.0912 9.15625C82.8412 8.96875 82.685 8.83333 82.6225 8.75L82.2475 8.3125C82.1642 8.22917 82.06 8.02083 81.935 7.6875C81.8308 7.54167 81.7996 7.40625 81.8412 7.28125ZM104.776 32.0312C104.38 32.0312 104.141 32.0208 104.057 32C104.016 31.9792 103.922 31.9688 103.776 31.9688C103.443 31.9896 103.078 31.9896 102.682 31.9688C102.307 31.9688 102.016 31.9583 101.807 31.9375C101.787 31.9167 101.662 31.9062 101.432 31.9062C101.224 31.9062 101.099 31.8958 101.057 31.875L100.589 31.8438C100.172 31.8438 99.9117 31.8229 99.8075 31.7812H99.5262C99.4429 31.7604 99.3075 31.75 99.12 31.75L98.745 31.6875C98.62 31.6875 98.5471 31.6771 98.5262 31.6562L98.3387 31.625L98.0575 31.5625C97.9325 31.5625 97.8075 31.5417 97.6825 31.5C97.5783 31.5 97.4637 31.4792 97.3387 31.4375C97.2137 31.3958 97.1096 31.375 97.0262 31.375C96.9012 31.3333 96.7971 31.3125 96.7137 31.3125L96.3387 31.2188C96.2346 31.1979 96.0679 31.1667 95.8387 31.125C95.6304 31.1042 95.4846 31.0625 95.4012 31C95.2971 30.9583 95.1825 30.8542 95.0575 30.6875C94.9533 30.5625 94.8596 30.3646 94.7762 30.0938L94.6825 29.8125L94.5887 29.5C94.5471 29.2708 94.4742 29.0521 94.37 28.8438L94.2137 28.3125L94.1512 28.0312C94.1096 27.8646 94.0471 27.75 93.9637 27.6875C93.9012 27.6042 93.8492 27.4896 93.8075 27.3438C93.7658 27.1979 93.7242 26.9375 93.6825 26.5625L93.6512 26.0938C93.6096 25.4688 93.5887 25.0417 93.5887 24.8125C93.5887 24.0417 93.62 23.125 93.6825 22.0625L93.745 21.1875C93.745 20.8125 93.7658 20.5417 93.8075 20.375L93.87 19.75L93.9012 19.2812C93.9429 19.2396 93.9637 19.1042 93.9637 18.875L94.0262 18.5C94.0471 18.4792 94.0992 18.1979 94.1825 17.6562C94.2242 17.5312 94.245 17.4062 94.245 17.2812C94.2658 17.2396 94.2762 17.1875 94.2762 17.125C94.2762 17.0625 94.2867 17.0104 94.3075 16.9688L94.3387 16.6875L94.4012 16.4062C94.4221 16.3646 94.4325 16.3229 94.4325 16.2812C94.4325 16.2188 94.4429 16.1562 94.4637 16.0938C94.4637 16.0104 94.4742 15.9375 94.495 15.875C94.5158 15.8125 94.5262 15.75 94.5262 15.6875L94.62 15.25L94.6512 14.9375L94.7137 14.5L94.7762 13.9688L94.9012 13.0312C94.9012 12.8646 94.9117 12.7604 94.9325 12.7188L94.9637 12.2188L95.0262 11.7188L95.0575 11.4062L95.1825 10.4062L95.245 9.90625L95.3075 9.5C95.3283 9.47917 95.3387 9.41667 95.3387 9.3125C95.3596 9.16667 95.3908 9.05208 95.4325 8.96875C95.495 8.88542 95.6096 8.8125 95.7762 8.75L95.8075 8.5625C95.8283 8.54167 95.8387 8.52083 95.8387 8.5C95.8387 8.45833 95.8492 8.42708 95.87 8.40625L95.9637 8.15625L96.0575 7.96875C96.0992 7.92708 96.1617 7.91667 96.245 7.9375H96.4012L96.5575 7.875C96.62 7.875 96.7242 7.84375 96.87 7.78125C96.9117 7.73958 96.9742 7.71875 97.0575 7.71875C97.12 7.71875 97.1721 7.69792 97.2137 7.65625H97.4012C97.4637 7.65625 97.5992 7.625 97.8075 7.5625C98.0783 7.45833 98.2658 7.40625 98.37 7.40625L98.495 7.375C98.5575 7.35417 98.6304 7.34375 98.7137 7.34375C98.7971 7.34375 98.8492 7.33333 98.87 7.3125L98.995 7.28125C99.0367 7.23958 99.0992 7.21875 99.1825 7.21875C99.3075 7.15625 99.4012 7.125 99.4637 7.125L99.7762 7.03125C99.8179 7.01042 99.8804 7 99.9637 7C100.026 7 100.11 6.98958 100.214 6.96875C100.318 6.92708 100.391 6.89583 100.432 6.875L100.682 6.84375L101.12 6.75L101.557 6.65625C101.682 6.65625 101.787 6.63542 101.87 6.59375C101.974 6.59375 102.047 6.57292 102.089 6.53125C102.172 6.53125 102.214 6.52083 102.214 6.5L102.714 6.4375L103.276 6.34375C103.318 6.32292 103.37 6.3125 103.432 6.3125C103.516 6.3125 103.589 6.30208 103.651 6.28125C103.86 6.28125 103.985 6.27083 104.026 6.25H104.151L104.557 6.21875C104.703 6.19792 104.87 6.1875 105.057 6.1875H105.307C106.203 6.1875 106.787 6.19792 107.057 6.21875C107.349 6.21875 107.662 6.26042 107.995 6.34375C108.453 6.46875 108.787 6.57292 108.995 6.65625C109.162 6.69792 109.276 6.76042 109.339 6.84375C109.36 6.86458 109.38 6.88542 109.401 6.90625C109.443 6.92708 109.485 6.9375 109.526 6.9375C109.818 7.10417 109.964 7.21875 109.964 7.28125C109.964 7.32292 109.974 7.35417 109.995 7.375C110.016 7.4375 110.026 7.63542 110.026 7.96875V8.28125C110.005 8.34375 109.995 8.4375 109.995 8.5625C109.995 8.60417 109.974 8.6875 109.932 8.8125C109.891 8.9375 109.87 9.02083 109.87 9.0625C109.87 9.1875 109.86 9.28125 109.839 9.34375L109.714 9.5L109.651 9.625C109.651 9.625 109.599 9.64583 109.495 9.6875L109.307 9.75L108.432 9.8125H108.12C108.099 9.83333 108.057 9.83333 107.995 9.8125H107.807L107.307 9.84375C106.87 9.84375 106.61 9.86458 106.526 9.90625C106.526 9.90625 106.443 9.92708 106.276 9.96875C106.047 9.96875 105.891 9.98958 105.807 10.0312C105.766 10.0521 105.61 10.0625 105.339 10.0625C105.193 10.0625 105.078 10.0729 104.995 10.0938C104.912 10.0938 104.849 10.0938 104.807 10.0938L104.557 10.1562C104.474 10.1562 104.422 10.1667 104.401 10.1875L104.151 10.2188C103.943 10.2188 103.755 10.2396 103.589 10.2812C103.568 10.3021 103.505 10.3125 103.401 10.3125C103.297 10.3125 103.224 10.3229 103.182 10.3438L102.901 10.375L102.651 10.4375C102.568 10.4792 102.432 10.5 102.245 10.5H102.12C102.099 10.5208 102.057 10.5208 101.995 10.5L101.901 10.4688L101.495 10.5625L101.182 10.5938C101.141 10.5729 101.057 10.5625 100.932 10.5625C100.891 10.5833 100.776 10.5938 100.589 10.5938C100.401 10.5938 100.287 10.6042 100.245 10.625L99.995 10.6562H99.7762C99.7554 10.6771 99.6721 10.6875 99.5262 10.6875L99.1512 10.75C99.0887 10.7917 99.0054 10.8125 98.9012 10.8125C98.7971 10.8125 98.7346 10.8229 98.7137 10.8438L98.495 10.875L98.245 10.9375L98.0262 11L97.9012 11.0312L97.7762 11.0625H97.6825C97.6408 11.0833 97.5783 11.0938 97.495 11.0938L97.2762 11.1562H96.9012C96.7762 11.1562 96.7137 11.1667 96.7137 11.1875C96.6929 11.2917 96.6825 11.5 96.6825 11.8125C96.7033 12.1042 96.7137 12.4583 96.7137 12.875L96.745 14.4375V15.7188V18.0312C96.7033 18.1562 96.6825 18.4167 96.6825 18.8125L96.6512 19.9062C96.6304 20.3438 96.62 21.1146 96.62 22.2188V23.2188L96.6512 24.375C96.6721 25.1875 96.6929 25.6354 96.7137 25.7188L96.745 26.7188L96.7762 27.5938C96.7971 27.6562 96.8387 27.6979 96.9012 27.7188C96.9846 27.7396 97.1929 27.75 97.5262 27.75H100.776L103.182 27.6875L103.557 27.6562C103.62 27.6354 103.787 27.625 104.057 27.625L104.776 27.5625C104.818 27.5417 104.891 27.5312 104.995 27.5312C105.099 27.5104 105.193 27.5 105.276 27.5L105.62 27.4375C105.745 27.3958 105.964 27.3646 106.276 27.3438C106.339 27.3229 106.401 27.3125 106.464 27.3125C106.526 27.3125 106.578 27.3021 106.62 27.2812L107.089 27.2188L107.464 27.1562L107.651 27.125C107.901 27.0833 108.162 27.0417 108.432 27C108.578 27 108.662 26.9896 108.682 26.9688L109.932 26.9062H110.182C110.307 26.9062 110.474 26.9375 110.682 27L110.932 27.0312C111.245 27.0729 111.432 27.1146 111.495 27.1562C111.557 27.1771 111.641 27.2396 111.745 27.3438C111.807 27.4688 111.839 27.5521 111.839 27.5938C111.839 27.6562 111.86 27.7083 111.901 27.75L112.151 28.1562V28.2812L112.214 28.5C112.255 28.5833 112.276 28.6771 112.276 28.7812L112.339 29.0312C112.36 29.0729 112.37 29.1562 112.37 29.2812C112.349 29.3854 112.36 29.4792 112.401 29.5625C112.443 29.6458 112.485 29.7083 112.526 29.75C112.568 29.7917 112.589 29.8438 112.589 29.9062V30.0312C112.589 30.1562 112.578 30.2396 112.557 30.2812L112.495 30.4062C112.495 30.4271 112.485 30.4688 112.464 30.5312C112.443 30.5729 112.412 30.6146 112.37 30.6562L112.339 30.75C112.297 30.8542 112.224 30.9271 112.12 30.9688C112.037 31.0104 111.86 31.0521 111.589 31.0938C111.547 31.1146 111.495 31.125 111.432 31.125C111.391 31.125 111.349 31.1354 111.307 31.1562C111.224 31.1562 111.162 31.1667 111.12 31.1875C110.849 31.1875 110.682 31.2188 110.62 31.2812H110.495C110.432 31.2812 110.391 31.2917 110.37 31.3125C110.287 31.3125 110.214 31.3229 110.151 31.3438C109.943 31.3438 109.787 31.375 109.682 31.4375L109.464 31.4688C109.36 31.4688 109.297 31.4792 109.276 31.5L109.182 31.5312C109.182 31.5312 109.162 31.5312 109.12 31.5312C108.995 31.5938 108.88 31.625 108.776 31.625C108.714 31.625 108.662 31.6354 108.62 31.6562C108.557 31.6979 108.464 31.7188 108.339 31.7188C108.193 31.7188 108.11 31.7292 108.089 31.75C107.985 31.75 107.901 31.7604 107.839 31.7812C107.693 31.7812 107.599 31.7917 107.557 31.8125C107.516 31.8333 107.464 31.8438 107.401 31.8438C107.38 31.8229 107.349 31.8125 107.307 31.8125L107.151 31.8438L106.932 31.875C106.912 31.8958 106.87 31.9062 106.807 31.9062C106.766 31.9062 106.735 31.9167 106.714 31.9375H106.62L106.401 31.9688C105.943 32.0104 105.662 32.0312 105.557 32.0312H104.776ZM97.37 23.0625C97.37 22.1042 97.3804 21.4896 97.4012 21.2188C97.4221 20.9479 97.4846 20.7083 97.5887 20.5C97.6721 20.3125 97.7867 20.1667 97.9325 20.0625C98.0575 19.9583 98.1512 19.8229 98.2137 19.6562C98.2554 19.5312 98.2971 19.4688 98.3387 19.4688C98.4012 19.4688 98.495 19.5208 98.62 19.625L98.7137 19.6562L98.8075 19.625L99.0887 19.5625C99.2137 19.5625 99.3179 19.5417 99.4012 19.5C99.6512 19.4583 99.8283 19.4375 99.9325 19.4375C100.224 19.4167 100.557 19.4167 100.932 19.4375C101.328 19.4583 101.557 19.4896 101.62 19.5312L102.245 19.7188C102.287 19.7604 102.339 19.7812 102.401 19.7812C102.547 19.8854 102.641 20.0521 102.682 20.2812C102.807 20.6562 102.87 20.8958 102.87 21L102.932 21.25C102.974 21.3958 103.005 21.7396 103.026 22.2812C103.047 22.3854 103.057 22.75 103.057 23.375C103.057 24.0208 103.047 24.4375 103.026 24.625C102.985 25.2083 102.943 25.5625 102.901 25.6875C102.776 26.1667 102.526 26.4375 102.151 26.5C101.985 26.5417 101.714 26.5625 101.339 26.5625H100.87L100.682 26.5312C100.578 26.5312 100.318 26.5833 99.9012 26.6875L99.6512 26.75C99.4846 26.7708 99.3596 26.8229 99.2762 26.9062L99.12 26.9688C99.0575 26.9688 99.0158 26.9479 98.995 26.9062C98.9325 26.8646 98.87 26.8229 98.8075 26.7812C98.745 26.7396 98.6929 26.7188 98.6512 26.7188L98.5575 26.75H98.495H98.3075C98.2658 26.75 98.2137 26.75 98.1512 26.75C98.0887 26.75 98.0471 26.7396 98.0262 26.7188C97.9846 26.6771 97.9325 26.5 97.87 26.1875C97.87 26.0208 97.8492 25.8958 97.8075 25.8125C97.6825 25.3542 97.62 25.0729 97.62 24.9688C97.5992 24.8229 97.5575 24.7188 97.495 24.6562C97.4742 24.6562 97.4533 24.6562 97.4325 24.6562C97.4325 24.6354 97.4325 24.6146 97.4325 24.5938C97.4117 24.5521 97.3908 24.0417 97.37 23.0625ZM99.1825 23.4688C99.1825 23.6771 99.1929 23.8021 99.2137 23.8438C99.2346 23.8854 99.2867 23.9062 99.37 23.9062C99.4533 23.9062 99.5158 23.8958 99.5575 23.875C99.62 23.875 99.6721 23.8646 99.7137 23.8438C99.7762 23.8229 99.8387 23.8125 99.9012 23.8125C100.193 23.75 100.391 23.6979 100.495 23.6562C100.557 23.6146 100.61 23.4792 100.651 23.25C100.672 23.1667 100.682 22.9688 100.682 22.6562V22.2188L100.62 22.1875C100.578 22.1458 100.537 22.125 100.495 22.125C100.266 22.1667 100.13 22.1979 100.089 22.2188C100.047 22.2396 99.995 22.25 99.9325 22.25C99.8908 22.25 99.8492 22.2604 99.8075 22.2812H99.62C99.5575 22.3229 99.4846 22.3854 99.4012 22.4688C99.3387 22.5312 99.2867 22.5938 99.245 22.6562C99.2033 22.6979 99.1825 22.7917 99.1825 22.9375V23.4688ZM100.37 15.4688C100.37 15.1979 100.38 15.0312 100.401 14.9688L100.432 14.4688C100.453 14.4062 100.464 14.3333 100.464 14.25C100.464 14.1667 100.474 14.1042 100.495 14.0625V13.3438C100.495 12.5312 100.547 12.0208 100.651 11.8125C100.714 11.6875 100.797 11.5729 100.901 11.4688L100.995 11.375L101.151 11.2812L101.901 11C102.005 11 102.068 10.9896 102.089 10.9688L102.339 10.9375L102.776 10.875C102.839 10.8542 102.943 10.8438 103.089 10.8438H103.401C103.797 10.8438 104.078 10.8542 104.245 10.875L104.745 10.9688C104.766 10.9896 104.797 11 104.839 11C104.88 11 104.922 11.0104 104.964 11.0312C105.068 11.0521 105.224 11.1146 105.432 11.2188L105.839 11.4062C105.985 11.4688 106.089 11.5521 106.151 11.6562C106.193 11.7188 106.245 11.8958 106.307 12.1875L106.339 12.4688L106.37 13.125C106.37 13.5625 106.349 13.9688 106.307 14.3438L106.276 15.0312L106.245 15.8125L106.214 16.5625C106.193 16.8333 106.162 17.0417 106.12 17.1875C106.099 17.2708 106.068 17.3646 106.026 17.4688C105.985 17.5729 105.932 17.6562 105.87 17.7188C105.787 17.8021 105.672 17.8542 105.526 17.875C105.401 17.875 105.318 17.8646 105.276 17.8438H104.464C104.13 17.8438 103.943 17.8542 103.901 17.875C103.86 17.9167 103.797 17.9375 103.714 17.9375C103.589 17.9792 103.485 18 103.401 18C103.151 18.0833 103.016 18.125 102.995 18.125C102.974 18.1458 102.943 18.1562 102.901 18.1562C102.88 18.1562 102.86 18.1667 102.839 18.1875C102.755 18.2708 102.62 18.3125 102.432 18.3125C102.37 18.3125 102.297 18.3333 102.214 18.375C102.13 18.3958 102.047 18.3958 101.964 18.375L101.776 18.4062H101.651C101.61 18.3646 101.589 18.3333 101.589 18.3125C101.589 18.3125 101.516 18.2396 101.37 18.0938H101.214C101.151 18.0938 101.099 18.0833 101.057 18.0625C101.016 18.0417 100.943 18.0312 100.839 18.0312C100.714 17.9896 100.651 17.9688 100.651 17.9688C100.63 17.9062 100.61 17.8021 100.589 17.6562C100.568 17.5104 100.557 17.3542 100.557 17.1875C100.557 17 100.547 16.875 100.526 16.8125L100.495 16.3125V15.9375L100.432 15.875C100.391 15.8333 100.37 15.7708 100.37 15.6875C100.37 15.6042 100.37 15.5312 100.37 15.4688ZM102.089 14.7188C102.068 14.9271 102.078 15.0312 102.12 15.0312L102.682 14.9375L103.12 14.8438L103.432 14.8125C103.474 14.7917 103.526 14.7812 103.589 14.7812C103.672 14.7812 103.745 14.7708 103.807 14.75C104.016 14.7292 104.13 14.7083 104.151 14.6875C104.193 14.6667 104.214 14.5833 104.214 14.4375C104.214 14.3333 104.193 14.2396 104.151 14.1562C104.151 14.0938 104.11 14.0521 104.026 14.0312C103.901 13.9896 103.766 13.9688 103.62 13.9688H103.276L103.089 14C103.026 14 102.912 14.0208 102.745 14.0625L102.557 14.125C102.495 14.125 102.422 14.1562 102.339 14.2188C102.255 14.2604 102.193 14.3125 102.151 14.375C102.11 14.4167 102.089 14.5312 102.089 14.7188ZM104.682 19.8125C104.787 19.5833 104.901 19.4271 105.026 19.3438C105.172 19.2604 105.339 19.2083 105.526 19.1875L105.87 19.125C105.932 19.1042 106.047 19.0938 106.214 19.0938C106.755 19.0312 107.047 18.9896 107.089 18.9688L107.307 18.9375C107.557 18.9167 107.745 18.875 107.87 18.8125C107.953 18.7917 108.078 18.7812 108.245 18.7812C108.328 18.8021 108.464 18.8125 108.651 18.8125C108.776 18.8125 108.86 18.8229 108.901 18.8438C108.943 18.8646 108.985 18.8854 109.026 18.9062C109.068 18.9062 109.099 18.9167 109.12 18.9375C109.412 19 109.589 19.0521 109.651 19.0938C109.714 19.1354 109.787 19.2083 109.87 19.3125C109.953 19.3958 110.005 19.5 110.026 19.625L110.089 19.75C110.11 19.7708 110.172 19.9896 110.276 20.4062C110.38 20.7812 110.432 21.0312 110.432 21.1562C110.453 21.1979 110.464 21.25 110.464 21.3125C110.464 21.3542 110.474 21.3958 110.495 21.4375L110.557 22.4062L110.589 22.8438C110.589 22.9062 110.589 23.0521 110.589 23.2812C110.61 23.4896 110.61 23.6354 110.589 23.7188C110.568 24.2812 110.526 24.6667 110.464 24.875C110.38 25.1875 110.318 25.375 110.276 25.4375C110.214 25.5208 110.151 25.5729 110.089 25.5938C110.068 25.6146 110.037 25.6354 109.995 25.6562C109.974 25.6771 109.953 25.6875 109.932 25.6875C109.912 25.7292 109.797 25.75 109.589 25.75L109.307 25.7188C109.182 25.7188 109.005 25.7604 108.776 25.8438L108.495 25.9062C108.391 25.9062 108.276 25.9375 108.151 26L107.901 26.0938C107.755 26.1354 107.672 26.1667 107.651 26.1875C107.568 26.2292 107.505 26.25 107.464 26.25L107.307 26.2812L107.12 26.375C107.057 26.3958 106.995 26.4062 106.932 26.4062C106.87 26.4062 106.807 26.4062 106.745 26.4062H106.526L106.401 26.3125C106.255 26.2292 106.11 26.1875 105.964 26.1875H105.651C105.526 26.1875 105.443 26.1771 105.401 26.1562C105.38 26.1354 105.36 26.0833 105.339 26L105.276 25.8125L105.214 25.5L105.057 24.8438C105.016 24.7604 104.995 24.6875 104.995 24.625L104.964 24.5C104.964 24.5 104.943 24.4375 104.901 24.3125C104.88 24.2292 104.86 24.1562 104.839 24.0938C104.839 24.0312 104.818 23.9896 104.776 23.9688C104.735 23.9271 104.714 23.875 104.714 23.8125L104.682 23.625L104.651 23.1875L104.62 22.4375C104.599 22.0625 104.589 21.4062 104.589 20.4688L104.682 19.8125ZM106.464 21.9375C106.464 22.1875 106.474 22.3542 106.495 22.4375L106.526 22.875C106.547 23.125 106.568 23.2604 106.589 23.2812C106.61 23.3021 106.662 23.3125 106.745 23.3125L107.245 23.2812L107.776 23.2188C107.818 23.2188 107.86 23.2083 107.901 23.1875C107.964 23.1458 108.005 23.1042 108.026 23.0625L108.089 22.9062C108.151 22.7396 108.182 22.4896 108.182 22.1562C108.182 21.9479 108.141 21.8125 108.057 21.75C108.037 21.7292 107.995 21.7188 107.932 21.7188C107.912 21.7396 107.891 21.75 107.87 21.75C107.849 21.7292 107.828 21.7188 107.807 21.7188L107.526 21.6875H107.026C106.86 21.6875 106.724 21.6979 106.62 21.7188C106.537 21.7188 106.485 21.75 106.464 21.8125V21.9375ZM132.305 24.875L131.493 24.8125C131.326 24.8125 131.232 24.8021 131.211 24.7812L131.118 24.75H130.961C130.94 24.7292 130.888 24.7188 130.805 24.7188C130.701 24.7188 130.43 24.6354 129.993 24.4688C129.763 24.3854 129.586 24.3438 129.461 24.3438C129.399 24.3438 129.336 24.3125 129.274 24.25L129.118 24.125L128.993 23.9688L128.899 23.875L128.774 23.9375C128.69 24 128.618 24.0104 128.555 23.9688C128.493 23.9271 128.409 23.9167 128.305 23.9375C128.263 23.9583 128.211 23.9583 128.149 23.9375C128.107 23.9375 128.086 23.9167 128.086 23.875C128.045 23.8333 128.024 23.6146 128.024 23.2188C127.982 22.8646 127.951 22.6458 127.93 22.5625V22.3125C127.93 22.2083 127.92 22.1354 127.899 22.0938L127.868 22C127.868 21.9167 127.868 21.8542 127.868 21.8125C127.888 21.75 127.888 21.6875 127.868 21.625C127.868 21.5625 127.847 21.5104 127.805 21.4688C127.763 21.4479 127.743 21.3958 127.743 21.3125L127.774 20.625L127.805 20.3125L127.868 19.6875C127.909 19.4792 127.93 18.7917 127.93 17.625L127.961 16.9375C127.982 16.8125 127.993 16.625 127.993 16.375C128.013 16.125 128.024 15.9062 128.024 15.7188C128.003 15.6771 127.993 15.5417 127.993 15.3125L127.961 14.4375V14.2812C127.961 14.0729 127.972 13.9583 127.993 13.9375C128.013 13.9167 128.045 13.9062 128.086 13.9062L128.524 14L128.618 14.0312L128.961 13.9688L129.243 13.9062C129.326 13.9062 129.409 13.875 129.493 13.8125C129.555 13.7708 129.847 13.6979 130.368 13.5938C130.493 13.5938 130.597 13.5833 130.68 13.5625C130.763 13.5417 130.815 13.5312 130.836 13.5312C130.836 13.5104 130.909 13.5 131.055 13.5C131.159 13.5 131.232 13.4896 131.274 13.4688C131.315 13.4271 131.336 13.3854 131.336 13.3438C131.336 13.2604 131.378 13.1562 131.461 13.0312L131.524 12.9062C131.524 12.8229 131.638 12.6875 131.868 12.5L132.118 12.1875C132.326 11.9792 132.43 11.875 132.43 11.875L132.68 11.5625L132.868 11.3438C132.993 11.2188 133.065 11.1146 133.086 11.0312C133.149 10.9271 133.17 10.8646 133.149 10.8438H133.086C133.024 10.8438 132.94 10.8542 132.836 10.875C132.753 10.8958 132.67 10.9271 132.586 10.9688L132.368 11.0312C132.263 11.0312 132.149 11.0625 132.024 11.125L131.961 11.1875L131.836 11.25C131.774 11.2917 131.722 11.3229 131.68 11.3438C131.638 11.3646 131.607 11.375 131.586 11.375L131.461 11.4375L131.243 11.5312L130.93 11.7188C130.888 11.7604 130.857 11.7812 130.836 11.7812L130.711 11.8438C130.69 11.8854 130.618 11.9375 130.493 12C130.388 12.0417 130.336 12.0729 130.336 12.0938C130.295 12.1354 130.222 12.1771 130.118 12.2188L129.899 12.3438C129.815 12.4062 129.753 12.4167 129.711 12.375C129.69 12.375 129.659 12.3542 129.618 12.3125C129.618 12.2708 129.555 12.2083 129.43 12.125C129.347 12.0625 129.274 12.0312 129.211 12.0312C129.128 12.0312 129.055 12.0208 128.993 12C128.951 11.9792 128.888 11.9688 128.805 11.9688C128.784 11.9896 128.743 11.9896 128.68 11.9688C128.618 11.9271 128.576 11.8958 128.555 11.875V10.2188C128.555 9.98958 128.534 9.8125 128.493 9.6875C128.472 9.54167 128.472 9.44792 128.493 9.40625C128.493 9.32292 128.524 9.25 128.586 9.1875L128.68 9C128.701 8.97917 128.732 8.9375 128.774 8.875C128.815 8.79167 128.899 8.67708 129.024 8.53125L129.18 8.3125L129.43 7.96875L129.618 7.75L129.93 7.3125C130.013 7.22917 130.086 7.125 130.149 7C130.232 6.875 130.368 6.6875 130.555 6.4375L130.805 6.09375C130.847 5.96875 130.899 5.875 130.961 5.8125L131.055 5.75H131.211C131.524 5.79167 131.743 5.86458 131.868 5.96875C131.93 5.96875 131.961 5.98958 131.961 6.03125C132.086 6.07292 132.201 6.14583 132.305 6.25C132.368 6.3125 132.409 6.38542 132.43 6.46875L132.493 7C132.493 7.1875 132.482 7.41667 132.461 7.6875C132.44 7.9375 132.42 8.14583 132.399 8.3125V8.375C132.399 8.41667 132.482 8.42708 132.649 8.40625L133.274 8.375C133.67 8.375 133.951 8.39583 134.118 8.4375C134.555 8.5 134.982 8.70833 135.399 9.0625C135.628 9.20833 135.774 9.375 135.836 9.5625C135.878 9.6875 135.909 9.92708 135.93 10.2812C135.972 10.6354 135.972 10.8542 135.93 10.9375L135.899 11.1562C135.899 11.3854 135.868 11.5938 135.805 11.7812C135.763 11.9688 135.649 12.1979 135.461 12.4688L134.993 13.125C134.868 13.2917 134.815 13.3854 134.836 13.4062C134.857 13.4062 134.888 13.4167 134.93 13.4375C134.993 13.4375 135.097 13.4375 135.243 13.4375C135.368 13.4375 135.597 13.4583 135.93 13.5C136.201 13.5417 136.43 13.6146 136.618 13.7188L136.868 13.8438C137.097 13.9062 137.284 13.9896 137.43 14.0938C137.618 14.2396 137.743 14.4688 137.805 14.7812C137.847 15.0104 137.888 15.3229 137.93 15.7188C137.972 15.9479 137.993 16.625 137.993 17.75C137.993 17.875 137.982 18.0104 137.961 18.1562C137.961 18.2812 137.972 18.3854 137.993 18.4688C137.993 19.4688 137.961 20.2083 137.899 20.6875L137.868 21.1562L137.836 21.5625C137.815 21.625 137.805 21.7292 137.805 21.875C137.743 22.3125 137.68 22.625 137.618 22.8125L137.555 23.0312C137.451 23.4062 137.347 23.6771 137.243 23.8438L137.18 24.0312L137.211 24.125L137.243 24.25C137.222 24.2917 137.19 24.3333 137.149 24.375C137.107 24.4167 137.065 24.4479 137.024 24.4688L136.93 24.5C136.868 24.5208 136.774 24.5417 136.649 24.5625C136.524 24.5833 136.399 24.5938 136.274 24.5938C136.19 24.5938 136.138 24.6042 136.118 24.625C136.034 24.6667 135.836 24.6875 135.524 24.6875C135.003 24.6875 134.69 24.6979 134.586 24.7188C134.399 24.7188 134.243 24.7292 134.118 24.75C133.472 24.75 133.107 24.7708 133.024 24.8125L132.711 24.8438H132.43L132.305 24.875ZM118.243 25.2812C118.18 25.1771 118.149 25.0833 118.149 25C118.149 24.9167 118.201 24.8021 118.305 24.6562L118.461 24.4688L118.649 24.2812C118.836 24.1771 118.993 24.0625 119.118 23.9375L119.336 23.75L119.524 23.6562L119.649 23.5938C119.69 23.5938 119.763 23.5417 119.868 23.4375C119.909 23.4167 119.94 23.3958 119.961 23.375C120.003 23.3333 120.045 23.3125 120.086 23.3125L120.336 23.1875C120.482 23.0625 120.638 22.9688 120.805 22.9062C120.93 22.8646 121.003 22.8333 121.024 22.8125L121.243 22.7188L121.43 22.625C121.451 22.6042 121.545 22.5625 121.711 22.5C121.857 22.4167 121.972 22.375 122.055 22.375H122.274C122.586 22.375 122.805 22.4062 122.93 22.4688L123.211 22.5625C123.524 22.6458 123.69 22.7083 123.711 22.75C123.753 22.75 123.795 22.8021 123.836 22.9062C123.878 22.9688 123.899 23.0312 123.899 23.0938V23.1875C123.899 23.25 123.93 23.3646 123.993 23.5312C124.034 23.5729 124.055 23.6146 124.055 23.6562C124.076 23.6771 124.076 23.7083 124.055 23.75L124.024 23.9375C124.024 24.0625 124.045 24.1667 124.086 24.25C124.107 24.3125 124.107 24.3854 124.086 24.4688L124.055 24.5938C124.055 24.6979 124.086 24.8021 124.149 24.9062V25.0625C124.107 25.1875 124.045 25.2917 123.961 25.375L123.899 25.4688L123.524 25.8438L123.399 25.9062L123.086 26.1562L123.024 26.2188C122.982 26.2188 122.951 26.2292 122.93 26.25L122.868 26.3125C122.826 26.3333 122.774 26.3646 122.711 26.4062C122.67 26.4479 122.628 26.5 122.586 26.5625C122.545 26.6667 122.451 26.7292 122.305 26.75C122.222 26.75 122.149 26.7812 122.086 26.8438L121.993 26.9375C121.972 26.9375 121.951 26.9479 121.93 26.9688C121.93 26.9688 121.93 26.9792 121.93 27C121.888 27.0625 121.836 27.125 121.774 27.1875C121.732 27.2292 121.69 27.2604 121.649 27.2812C121.565 27.2812 121.493 27.3125 121.43 27.375C121.409 27.3958 121.388 27.4167 121.368 27.4375C121.347 27.4375 121.326 27.4479 121.305 27.4688L121.149 27.5625L120.993 27.6562L120.836 27.7812C120.836 27.8021 120.805 27.8125 120.743 27.8125L120.618 27.875L120.493 27.9375L120.368 28L120.274 28.0625L120.149 28.0938L120.024 28.0312L119.868 27.9375C119.784 27.8958 119.732 27.875 119.711 27.875C119.67 27.875 119.638 27.8646 119.618 27.8438C119.597 27.8229 119.565 27.8125 119.524 27.8125C119.503 27.8125 119.472 27.8229 119.43 27.8438C119.368 27.8854 119.305 27.8958 119.243 27.875H119.024L118.836 27.9062C118.795 27.9062 118.753 27.8542 118.711 27.75L118.68 27.4375C118.618 27.1875 118.586 27.0312 118.586 26.9688C118.586 26.8854 118.576 26.8333 118.555 26.8125L118.524 26.6562C118.524 26.5729 118.513 26.5208 118.493 26.5C118.451 26.375 118.43 26.2812 118.43 26.2188C118.409 26.1771 118.399 26.1354 118.399 26.0938C118.399 26.0312 118.388 25.9792 118.368 25.9375C118.347 25.8958 118.336 25.7917 118.336 25.625C118.315 25.4583 118.284 25.3438 118.243 25.2812ZM118.586 16.8438C118.586 16.8229 118.597 16.8021 118.618 16.7812C118.638 16.7396 118.67 16.7188 118.711 16.7188L118.805 16.6875C118.847 16.6667 118.909 16.6562 118.993 16.6562H119.149C119.17 16.6354 119.253 16.6354 119.399 16.6562C119.565 16.6562 119.68 16.6562 119.743 16.6562C119.805 16.6771 119.94 16.6875 120.149 16.6875C120.211 16.7083 120.274 16.7188 120.336 16.7188C120.42 16.7188 120.482 16.7292 120.524 16.75L121.118 16.875C121.097 16.875 121.211 16.9062 121.461 16.9688C121.711 17.0312 121.826 17.0625 121.805 17.0625C122.118 17.1042 122.336 17.1562 122.461 17.2188C122.482 17.2396 122.513 17.25 122.555 17.25L122.711 17.3438C122.732 17.3646 122.774 17.3958 122.836 17.4375C122.899 17.4792 122.982 17.5208 123.086 17.5625C123.128 17.5833 123.201 17.625 123.305 17.6875C123.43 17.75 123.513 17.8125 123.555 17.875C123.597 17.9583 123.618 18.0521 123.618 18.1562C123.597 18.2604 123.607 18.3542 123.649 18.4375C123.67 18.4792 123.69 18.5208 123.711 18.5625C123.732 18.6042 123.732 18.6667 123.711 18.75V19.2188L123.68 19.5938C123.638 19.6354 123.618 19.7292 123.618 19.875V20.0312L123.586 20.2188C123.503 20.3021 123.44 20.3542 123.399 20.375L123.149 20.5C123.086 20.5208 123.013 20.5312 122.93 20.5312C122.888 20.5312 122.826 20.5521 122.743 20.5938C122.659 20.6771 122.524 20.7188 122.336 20.7188C122.253 20.7188 122.19 20.7292 122.149 20.75C122.107 20.75 122.065 20.7812 122.024 20.8438C122.003 20.8646 121.899 20.875 121.711 20.875C121.524 20.875 121.42 20.8854 121.399 20.9062C121.357 20.9479 121.284 20.9375 121.18 20.875C121.159 20.8542 121.086 20.8438 120.961 20.8438C120.67 20.8021 120.461 20.7188 120.336 20.5938C120.274 20.5312 120.211 20.5 120.149 20.5L120.024 20.4688C119.92 20.4271 119.753 20.3854 119.524 20.3438C119.274 20.2188 119.107 20.1146 119.024 20.0312L118.899 19.9375L118.868 19.7812C118.826 19.7396 118.815 19.6875 118.836 19.625C118.857 19.5833 118.857 19.4896 118.836 19.3438C118.815 19.2812 118.805 19.2083 118.805 19.125C118.805 19.0208 118.795 18.9271 118.774 18.8438L118.743 18.4375C118.722 18.3958 118.711 18.2812 118.711 18.0938C118.69 18.0312 118.68 17.9583 118.68 17.875C118.68 17.7917 118.67 17.7292 118.649 17.6875L118.618 17.5625L118.68 17.2812C118.701 17.1979 118.69 17.1146 118.649 17.0312L118.586 16.8438ZM118.899 10.625C118.857 10.5208 118.868 10.4375 118.93 10.375C118.972 10.3333 119.024 10.3125 119.086 10.3125C119.211 10.3125 119.378 10.3438 119.586 10.4062L119.805 10.4375L120.711 10.5938C120.815 10.5938 120.888 10.6042 120.93 10.625L121.118 10.6562C121.243 10.6562 121.347 10.6875 121.43 10.75L121.743 10.8125C121.805 10.8333 121.909 10.875 122.055 10.9375C122.222 10.9792 122.368 11.0312 122.493 11.0938L122.586 11.125L122.774 11.1875C122.815 11.2292 122.868 11.2708 122.93 11.3125C122.993 11.3333 123.045 11.3542 123.086 11.375C123.232 11.4375 123.347 11.5 123.43 11.5625C123.534 11.6042 123.618 11.6667 123.68 11.75C123.743 11.8125 123.784 11.8854 123.805 11.9688C123.847 12.0312 123.868 12.125 123.868 12.25L123.899 12.5938C123.92 12.6354 123.93 12.6875 123.93 12.75C123.951 12.8125 123.951 12.9062 123.93 13.0312L123.899 13.4062L123.868 13.4688L123.836 13.5938C123.815 13.6562 123.795 13.7292 123.774 13.8125C123.774 13.8958 123.784 13.9688 123.805 14.0312C123.826 14.0521 123.836 14.125 123.836 14.25L123.774 14.2812L123.68 14.375C123.659 14.4167 123.607 14.4688 123.524 14.5312C123.461 14.5729 123.399 14.6042 123.336 14.625C123.295 14.6667 123.232 14.6667 123.149 14.625C123.045 14.6042 122.951 14.6146 122.868 14.6562C122.805 14.6979 122.711 14.7083 122.586 14.6875C122.44 14.6875 122.336 14.6771 122.274 14.6562C122.211 14.6146 122.138 14.6042 122.055 14.625L121.961 14.6562L121.774 14.5625C121.545 14.4375 121.378 14.3646 121.274 14.3438C121.19 14.3438 121.107 14.3229 121.024 14.2812L120.868 14.2188C120.847 14.1979 120.815 14.1875 120.774 14.1875C120.753 14.1875 120.732 14.1771 120.711 14.1562C120.67 14.1354 120.628 14.125 120.586 14.125C120.545 14.1042 120.513 14.0833 120.493 14.0625C120.368 14.0208 120.274 13.9792 120.211 13.9375C120.086 13.875 120.013 13.8438 119.993 13.8438C119.868 13.8021 119.763 13.7396 119.68 13.6562L119.555 13.625C119.43 13.5833 119.315 13.4688 119.211 13.2812C119.17 13.2188 119.159 13.1458 119.18 13.0625C119.18 12.9583 119.17 12.9062 119.149 12.9062L119.118 12.7812C119.118 12.6979 119.107 12.6354 119.086 12.5938C119.065 12.5312 119.065 12.4792 119.086 12.4375L119.118 12.2188C119.118 12.1354 119.097 12.0104 119.055 11.8438C119.034 11.7604 119.034 11.6771 119.055 11.5938C119.055 11.5104 119.034 11.4375 118.993 11.375C118.972 11.3333 118.951 11.1979 118.93 10.9688C118.93 10.7604 118.92 10.6458 118.899 10.625ZM124.461 29.0938C124.44 28.9688 124.44 28.875 124.461 28.8125L124.493 28.6562C124.513 28.5729 124.545 28.5 124.586 28.4375C124.649 28.3542 124.701 28.3021 124.743 28.2812C124.763 28.2604 124.795 28.2188 124.836 28.1562C124.836 28.1146 124.899 28.0312 125.024 27.9062C125.086 27.8438 125.263 27.6771 125.555 27.4062L125.68 27.1875C125.701 27.125 125.743 27.0833 125.805 27.0625L125.899 26.9375L125.961 26.8125C125.961 26.7917 125.982 26.7604 126.024 26.7188C126.065 26.6771 126.107 26.6354 126.149 26.5938C126.17 26.5521 126.201 26.5104 126.243 26.4688C126.284 26.4271 126.326 26.3646 126.368 26.2812L126.493 26.1562C126.555 26.0938 126.586 26.0625 126.586 26.0625C126.628 25.9375 126.711 25.8438 126.836 25.7812L126.993 25.6562C127.034 25.6354 127.097 25.625 127.18 25.625C127.222 25.625 127.284 25.6458 127.368 25.6875C127.68 25.9167 127.847 26.0521 127.868 26.0938C127.909 26.1562 127.94 26.3125 127.961 26.5625C127.982 26.7292 127.982 26.9479 127.961 27.2188C127.961 27.4896 127.951 27.7083 127.93 27.875L127.899 28.125C127.836 28.4167 127.753 28.6667 127.649 28.875L127.555 29.125L127.336 29.6562L127.211 29.9062L127.055 30.1875L126.993 30.2812L126.961 30.375C126.899 30.4792 126.847 30.6042 126.805 30.75C126.784 30.8542 126.711 30.9688 126.586 31.0938C126.461 31.2396 126.284 31.4271 126.055 31.6562C125.888 31.8229 125.774 31.9167 125.711 31.9375C125.649 31.9583 125.597 31.9167 125.555 31.8125L125.368 31.5625C125.326 31.5 125.284 31.4583 125.243 31.4375C125.201 31.4375 125.149 31.4479 125.086 31.4688L124.899 31.4375C124.857 31.4167 124.784 31.4062 124.68 31.4062H124.649C124.565 31.4062 124.513 31.3542 124.493 31.25C124.493 31.1458 124.493 30.9583 124.493 30.6875V29.7188C124.472 29.6354 124.461 29.5625 124.461 29.5C124.482 29.4167 124.493 29.3646 124.493 29.3438L124.461 29.0938ZM129.18 28.5312C129.243 28.2188 129.315 27.9688 129.399 27.7812L129.555 27.3438L129.618 27.2188C129.847 26.7396 129.993 26.4688 130.055 26.4062C130.097 26.3854 130.118 26.3646 130.118 26.3438C130.138 26.3021 130.159 26.2708 130.18 26.25C130.18 26.2083 130.243 26.125 130.368 26L130.524 25.8438H130.68C130.722 25.8646 130.763 25.875 130.805 25.875C130.847 25.875 130.878 25.8854 130.899 25.9062L131.055 25.9375C131.159 26 131.222 26.0417 131.243 26.0625L131.399 26.1562L131.524 26.2188L131.649 26.2812C131.753 26.3229 131.805 26.3542 131.805 26.375C131.868 26.3958 131.92 26.5208 131.961 26.75C132.003 27.1667 132.024 27.3854 132.024 27.4062C132.024 27.7396 132.003 28.0104 131.961 28.2188C131.94 28.4062 131.93 28.5312 131.93 28.5938L131.868 28.8438C131.868 29.0104 131.847 29.1562 131.805 29.2812C131.763 29.3854 131.711 29.5208 131.649 29.6875C131.524 30.0417 131.399 30.3333 131.274 30.5625C131.211 30.7083 131.149 30.8125 131.086 30.875L130.93 31.0938C130.868 31.1979 130.774 31.3021 130.649 31.4062C130.545 31.5312 130.472 31.5938 130.43 31.5938C130.388 31.5938 130.336 31.5417 130.274 31.4375C130.253 31.375 130.222 31.3229 130.18 31.2812C130.18 31.2812 130.138 31.2396 130.055 31.1562L129.993 31.0625C129.972 31.0625 129.94 31.0833 129.899 31.125C129.815 31.1875 129.753 31.1875 129.711 31.125C129.69 31.125 129.67 31.1146 129.649 31.0938C129.628 31.0938 129.586 31.0938 129.524 31.0938C129.399 31.0938 129.326 31.0833 129.305 31.0625C129.263 30.9792 129.253 30.7917 129.274 30.5V30.0938C129.253 29.9896 129.232 29.8333 129.211 29.625C129.211 29.4167 129.211 29.2396 129.211 29.0938V28.8125C129.19 28.75 129.18 28.6562 129.18 28.5312ZM129.961 17.3438C129.982 17.6771 130.013 17.8542 130.055 17.875C130.138 17.875 130.211 17.8646 130.274 17.8438C130.44 17.8021 130.649 17.7812 130.899 17.7812C130.982 17.7604 131.076 17.75 131.18 17.75C131.284 17.75 131.357 17.7396 131.399 17.7188H131.618C131.763 17.7188 131.857 17.7083 131.899 17.6875C131.94 17.6458 131.972 17.5729 131.993 17.4688V17.3438C132.013 17.3229 132.024 17.2604 132.024 17.1562L132.086 16.75C132.107 16.6875 132.097 16.6458 132.055 16.625C131.972 16.5833 131.909 16.5625 131.868 16.5625L131.68 16.5938C131.68 16.5938 131.503 16.6146 131.149 16.6562C130.628 16.6771 130.347 16.7083 130.305 16.75L130.18 16.7812C130.138 16.7812 130.097 16.7917 130.055 16.8125C130.013 16.8333 129.982 16.8646 129.961 16.9062C129.94 16.9271 129.94 17.0729 129.961 17.3438ZM130.055 20.8438C130.055 21.3229 130.065 21.5625 130.086 21.5625C130.086 21.5833 130.43 21.5938 131.118 21.5938C131.284 21.5729 131.388 21.5521 131.43 21.5312C131.493 21.4896 131.534 21.4271 131.555 21.3438L131.586 21.25C131.607 21.2292 131.618 21.1354 131.618 20.9688L131.649 20.625C131.711 20.375 131.711 20.2188 131.649 20.1562L131.618 20.0938L131.461 20.0625H130.774C130.565 20.0625 130.42 20.0625 130.336 20.0625C130.253 20.0417 130.201 20.0312 130.18 20.0312C130.118 20.0104 130.076 20.0208 130.055 20.0625V20.8438ZM133.211 16.8438C133.211 16.9896 133.222 17.0833 133.243 17.125C133.243 17.2708 133.253 17.3854 133.274 17.4688L133.305 17.625L133.493 17.6562H133.805C133.909 17.6771 133.982 17.6771 134.024 17.6562H134.243C134.305 17.6771 134.399 17.6875 134.524 17.6875C134.649 17.6875 134.763 17.6979 134.868 17.7188L135.399 17.75C135.44 17.7708 135.482 17.7812 135.524 17.7812C135.586 17.7812 135.628 17.7708 135.649 17.75C135.67 17.7292 135.68 17.6146 135.68 17.4062C135.701 17.1771 135.701 17.0104 135.68 16.9062L135.524 16.7812L135.43 16.7188H135.243C135.138 16.7396 135.045 16.7396 134.961 16.7188C134.899 16.6979 134.795 16.6875 134.649 16.6875C134.565 16.7083 134.503 16.7188 134.461 16.7188C134.42 16.6979 134.388 16.6875 134.368 16.6875L133.993 16.6562H133.68C133.638 16.6146 133.597 16.6146 133.555 16.6562H133.243C133.222 16.6771 133.211 16.7396 133.211 16.8438ZM133.274 26.875C133.253 26.8333 133.243 26.7292 133.243 26.5625C133.243 26.375 133.253 26.2292 133.274 26.125L133.305 26C133.347 25.9792 133.409 25.9792 133.493 26H133.805C133.909 26 133.993 26.0208 134.055 26.0625C134.18 26.0625 134.253 26.0833 134.274 26.125C134.315 26.1458 134.347 26.1562 134.368 26.1562C134.43 26.1979 134.503 26.2396 134.586 26.2812L134.93 26.4062L135.086 26.4688C135.128 26.4896 135.18 26.5312 135.243 26.5938C135.305 26.6354 135.357 26.6875 135.399 26.75C135.482 26.8542 135.565 27.0312 135.649 27.2812C135.753 27.5312 135.826 27.75 135.868 27.9375C135.909 28.1875 135.951 28.3542 135.993 28.4375C136.097 28.625 136.128 28.7708 136.086 28.875C136.086 29.0208 136.097 29.1458 136.118 29.25C136.138 29.3125 136.149 29.4375 136.149 29.625C136.149 29.8542 136.138 30.0104 136.118 30.0938C136.118 30.2396 136.107 30.3333 136.086 30.375C136.065 30.3958 136.055 30.4792 136.055 30.625C136.055 30.7917 136.045 30.9167 136.024 31C136.003 31.1042 135.961 31.1667 135.899 31.1875C135.836 31.25 135.805 31.2812 135.805 31.2812C135.784 31.3229 135.743 31.3438 135.68 31.3438C135.534 31.3438 135.388 31.2917 135.243 31.1875C135.055 31.0625 134.857 31 134.649 31H134.524C134.42 31 134.326 30.9792 134.243 30.9375C134.222 30.9167 134.19 30.9062 134.149 30.9062L133.993 30.8125C133.868 30.7708 133.774 30.7083 133.711 30.625C133.67 30.5208 133.628 30.3854 133.586 30.2188L133.524 29.9375C133.461 29.5 133.43 29.1042 133.43 28.75L133.399 28C133.378 27.9167 133.368 27.7604 133.368 27.5312L133.274 26.875ZM133.461 21.5C133.482 21.5208 133.493 21.5521 133.493 21.5938C133.534 21.6354 133.732 21.6667 134.086 21.6875L134.68 21.7188L135.118 21.75C135.243 21.7708 135.326 21.7812 135.368 21.7812C135.43 21.7604 135.472 21.7292 135.493 21.6875L135.555 21.5312L135.586 21.4375V20.9375C135.586 20.7917 135.576 20.6771 135.555 20.5938C135.555 20.5104 135.555 20.4479 135.555 20.4062V19.9062C135.555 19.8229 135.534 19.7812 135.493 19.7812C135.472 19.7604 135.42 19.75 135.336 19.75H134.836C134.815 19.7708 134.753 19.7812 134.649 19.7812L134.368 19.8125L133.993 19.875C133.638 19.8958 133.451 19.9479 133.43 20.0312L133.461 21.5ZM137.274 26.4375C137.315 26.1667 137.315 25.9896 137.274 25.9062C137.253 25.8646 137.253 25.8333 137.274 25.8125L137.336 25.7188L137.368 25.625C137.409 25.625 137.43 25.6146 137.43 25.5938L137.618 25.5312C137.638 25.5312 137.659 25.5312 137.68 25.5312C137.722 25.5104 137.753 25.5104 137.774 25.5312H138.024L138.524 25.625C138.565 25.6458 138.607 25.6667 138.649 25.6875C138.69 25.6875 138.722 25.6979 138.743 25.7188C138.909 25.7604 138.993 25.7917 138.993 25.8125L139.18 25.875C139.305 25.9375 139.43 26.0104 139.555 26.0938C139.701 26.1562 139.805 26.2083 139.868 26.25C139.888 26.25 140.024 26.3333 140.274 26.5C140.399 26.5417 140.607 26.6562 140.899 26.8438C141.065 26.9062 141.222 26.9896 141.368 27.0938C141.513 27.1771 141.67 27.2708 141.836 27.375C142.003 27.4583 142.097 27.5312 142.118 27.5938L142.18 27.7188L142.211 27.8438C142.232 27.8854 142.243 27.9375 142.243 28C142.243 28.125 142.253 28.2292 142.274 28.3125C142.315 28.3958 142.357 28.5312 142.399 28.7188L142.43 29.0312C142.409 29.0729 142.399 29.1146 142.399 29.1562C142.42 29.1771 142.43 29.2083 142.43 29.25L142.461 29.4375C142.44 29.5 142.44 29.5625 142.461 29.625L142.43 29.9375C142.388 30.0625 142.378 30.1771 142.399 30.2812L142.43 30.6875V30.9688L142.368 31.0312L142.274 31.1875C142.253 31.25 142.222 31.3021 142.18 31.3438C142.138 31.4062 142.097 31.4479 142.055 31.4688L141.993 31.5C141.93 31.5 141.826 31.4583 141.68 31.375L141.399 31.2812L141.211 31.1875C141.128 31.1458 141.065 31.125 141.024 31.125C140.92 31.125 140.784 31.0729 140.618 30.9688C140.576 30.9479 140.524 30.9375 140.461 30.9375L140.211 30.9688H140.055L139.961 30.9062L139.555 30.5625L139.43 30.4688L139.274 30.3438L139.055 30.1875C138.972 30.125 138.868 30.0521 138.743 29.9688C138.618 29.8646 138.503 29.7917 138.399 29.75C138.357 29.75 138.284 29.6979 138.18 29.5938L137.899 29.4062C137.774 29.3229 137.68 29.2083 137.618 29.0625C137.576 29 137.555 28.875 137.555 28.6875V28.375C137.534 28.3542 137.524 28.25 137.524 28.0625C137.524 27.8958 137.503 27.7917 137.461 27.75L137.43 27.5312C137.43 27.4479 137.409 27.3646 137.368 27.2812C137.347 27.2188 137.336 27.1042 137.336 26.9375C137.336 26.8333 137.326 26.7604 137.305 26.7188C137.305 26.6771 137.305 26.6458 137.305 26.625C137.284 26.5833 137.274 26.5208 137.274 26.4375ZM149.427 15.5C149.323 15.5 149.25 15.4896 149.209 15.4688C149.188 15.4271 149.157 15.3646 149.115 15.2812C149.094 15.2396 149.011 15.1667 148.865 15.0625C148.74 15.0208 148.667 15 148.646 15C148.563 15 148.5 14.9896 148.459 14.9688L148.24 14.9375C148.136 14.9375 148.063 14.9271 148.021 14.9062C148 14.8854 147.98 14.8125 147.959 14.6875C147.959 14.5417 147.959 14.375 147.959 14.1875C147.959 13.4583 147.938 13.0729 147.896 13.0312C147.896 12.9896 147.917 12.9375 147.959 12.875L147.99 12.6875L147.896 12.5625C147.813 12.4792 147.771 12.4375 147.771 12.4375C147.771 12.3333 147.98 12.1562 148.396 11.9062L148.74 11.625C148.823 11.5417 148.896 11.4792 148.959 11.4375C149.042 11.3958 149.136 11.3646 149.24 11.3438C149.282 11.3229 149.375 11.2708 149.521 11.1875L149.677 11.125C149.719 11.0833 149.782 11.0625 149.865 11.0625L149.99 11L150.271 10.8438L150.396 10.75C150.438 10.75 150.5 10.7083 150.584 10.625L150.771 10.5C150.917 10.5 151.042 10.4479 151.146 10.3438C151.25 10.2396 151.386 10.1458 151.552 10.0625L151.709 9.9375L151.896 9.8125L152.334 9.53125L152.459 9.46875C152.563 9.36458 152.615 9.3125 152.615 9.3125C152.657 9.29167 152.719 9.23958 152.802 9.15625L153.271 8.8125C153.271 8.8125 153.323 8.76042 153.427 8.65625L153.521 8.53125C153.542 8.51042 153.563 8.5 153.584 8.5C153.625 8.47917 153.667 8.44792 153.709 8.40625C153.73 8.40625 153.771 8.39583 153.834 8.375C153.917 8.33333 153.969 8.29167 153.99 8.25C154.032 8.20833 154.063 8.1875 154.084 8.1875C154.125 8.16667 154.157 8.14583 154.177 8.125C154.261 8.08333 154.313 8.04167 154.334 8L154.771 7.6875C154.771 7.6875 154.844 7.61458 154.99 7.46875L155.209 7.3125L155.834 6.875L156.209 6.59375C156.209 6.57292 156.24 6.53125 156.302 6.46875L156.427 6.40625C156.427 6.38542 156.521 6.33333 156.709 6.25C156.771 6.20833 156.834 6.17708 156.896 6.15625C156.959 6.11458 157 6.08333 157.021 6.0625C157.084 6 157.115 5.96875 157.115 5.96875C157.177 5.94792 157.302 5.84375 157.49 5.65625C157.511 5.61458 157.521 5.48958 157.521 5.28125C157.5 5.09375 157.5 4.98958 157.521 4.96875L157.677 4.875C157.698 4.85417 157.73 4.84375 157.771 4.84375C157.98 4.84375 158.167 4.86458 158.334 4.90625C158.521 4.92708 158.709 4.96875 158.896 5.03125C158.917 5.05208 158.98 5.0625 159.084 5.0625C159.25 5.08333 159.365 5.125 159.427 5.1875L159.865 5.4375C159.927 5.47917 160.032 5.53125 160.177 5.59375C160.323 5.65625 160.407 5.70833 160.427 5.75L160.677 5.875L161.021 6.09375C161.48 6.34375 161.813 6.52083 162.021 6.625L163.084 7.125C163.146 7.16667 163.198 7.19792 163.24 7.21875C163.302 7.21875 163.344 7.22917 163.365 7.25C163.448 7.3125 163.563 7.36458 163.709 7.40625C163.938 7.48958 164.157 7.59375 164.365 7.71875C164.573 7.82292 164.75 7.90625 164.896 7.96875C165.396 8.26042 165.771 8.4375 166.021 8.5L166.302 8.71875C166.386 8.73958 166.49 8.78125 166.615 8.84375L167.49 9.3125C167.511 9.33333 167.542 9.36458 167.584 9.40625C167.625 9.42708 167.677 9.44792 167.74 9.46875L168.052 9.6875C168.532 9.89583 168.823 10.1042 168.927 10.3125C168.927 10.3542 168.948 10.4167 168.99 10.5C169.052 10.6458 169.052 10.75 168.99 10.8125C168.969 10.8542 168.959 10.9167 168.959 11C168.959 11.0833 168.969 11.1458 168.99 11.1875C169.073 11.3333 169.073 11.4792 168.99 11.625C168.948 11.75 168.938 11.8333 168.959 11.875C168.959 12.0625 168.948 12.1771 168.927 12.2188C168.865 12.2396 168.834 12.3125 168.834 12.4375C168.834 12.6042 168.792 12.7396 168.709 12.8438L168.646 12.9062V13.5938L168.552 13.6875L168.459 13.875C168.417 13.8958 168.365 13.9375 168.302 14C168.261 14.0625 168.219 14.1042 168.177 14.125C168.094 14.2292 167.969 14.2812 167.802 14.2812C167.677 14.2812 167.594 14.2708 167.552 14.25C167.532 14.2292 167.5 14.2188 167.459 14.2188H167.365L166.959 14.1562C166.875 14.1562 166.813 14.1354 166.771 14.0938L166.677 14.0312L166.552 13.9375L166.396 13.8438C166.355 13.8229 166.313 13.8021 166.271 13.7812C166.25 13.7396 166.23 13.7188 166.209 13.7188L166.052 13.625L165.802 13.5L165.552 13.375L165.177 13.1875C164.719 12.9583 164.365 12.75 164.115 12.5625C163.865 12.4375 163.584 12.25 163.271 12L163.115 11.875L162.802 11.625L162.677 11.4688L162.146 11.0938C161.98 10.9479 161.886 10.875 161.865 10.875C161.782 10.875 161.782 10.9167 161.865 11C161.886 11.0417 161.886 11.1042 161.865 11.1875V11.8125C161.844 11.8542 161.844 11.9062 161.865 11.9688L161.896 12.0625L161.865 12.125C161.802 12.2083 161.74 12.2708 161.677 12.3125C161.636 12.3333 161.542 12.3542 161.396 12.375C161.355 12.3958 161.302 12.4062 161.24 12.4062C161.198 12.4062 161.167 12.4167 161.146 12.4375C161.105 12.4583 160.907 12.4896 160.552 12.5312C160.323 12.5521 160.094 12.5938 159.865 12.6562H159.709C159.417 12.6562 159.261 12.6667 159.24 12.6875C159.219 12.7083 159.021 12.7292 158.646 12.75L157.521 12.9062L157.334 12.875L157.115 12.8438C157.094 12.8438 156.98 12.8021 156.771 12.7188C156.605 12.6771 156.49 12.6562 156.427 12.6562C156.157 12.6146 156 12.5729 155.959 12.5312C155.917 12.5104 155.896 12.4688 155.896 12.4062L155.834 12.0312C155.813 11.9896 155.802 11.9271 155.802 11.8438L155.771 11.5625C155.75 11.5417 155.74 11.5208 155.74 11.5C155.74 11.4583 155.73 11.4271 155.709 11.4062L155.677 11.1875C155.657 11.1458 155.646 11.0938 155.646 11.0312L155.615 10.9375C155.573 10.9375 155.5 10.9792 155.396 11.0625C155.167 11.2917 155.052 11.4062 155.052 11.4062C154.907 11.5312 154.813 11.6562 154.771 11.7812C154.688 11.8229 154.49 12 154.177 12.3125C153.532 12.9375 153.136 13.2812 152.99 13.3438L152.521 13.6875C152.438 13.8125 152.25 13.9688 151.959 14.1562L151.771 14.3125C151.75 14.3333 151.709 14.3646 151.646 14.4062C151.605 14.4271 151.542 14.4479 151.459 14.4688C151.417 14.5104 151.375 14.5417 151.334 14.5625C151.313 14.5625 151.292 14.5729 151.271 14.5938C151.209 14.6562 151.105 14.7292 150.959 14.8125C150.813 14.8958 150.698 14.9479 150.615 14.9688L150.459 15.0312C150.417 15.0729 150.355 15.125 150.271 15.1875C150.188 15.2292 150.115 15.2604 150.052 15.2812L149.865 15.3438C149.844 15.4062 149.771 15.4375 149.646 15.4375L149.49 15.4688L149.427 15.5ZM153.146 18.7188L153.177 18.3438C153.177 18.3229 153.188 18.2812 153.209 18.2188C153.23 18.1562 153.24 18.0729 153.24 17.9688C153.24 17.8854 153.271 17.5625 153.334 17L153.396 16.4688C153.396 16.3854 153.407 16.3438 153.427 16.3438L153.459 16.0312C153.48 15.9479 153.49 15.8646 153.49 15.7812C153.49 15.6771 153.5 15.5938 153.521 15.5312L153.552 15.1562C153.552 15.0312 153.563 14.9375 153.584 14.875C153.625 14.75 153.667 14.6146 153.709 14.4688C153.75 14.3021 153.782 14.1875 153.802 14.125C153.802 14.1042 153.823 14.0833 153.865 14.0625C153.927 14.0417 153.98 14.0312 154.021 14.0312C154.084 14.0312 154.157 14.0521 154.24 14.0938C154.323 14.1354 154.396 14.1771 154.459 14.2188C154.542 14.2812 154.657 14.2812 154.802 14.2188L154.927 14.1562C155.011 14.1562 155.073 14.1458 155.115 14.125C155.365 14 155.74 13.875 156.24 13.75C156.657 13.7083 156.938 13.6667 157.084 13.625H157.334L157.771 13.5938C157.896 13.5938 158.105 13.5729 158.396 13.5312C158.855 13.4896 159.209 13.4688 159.459 13.4688H160.927C161.011 13.4688 161.136 13.4792 161.302 13.5C161.49 13.5 161.605 13.5208 161.646 13.5625C161.771 13.5625 161.875 13.5729 161.959 13.5938C162.313 13.6354 162.719 13.7396 163.177 13.9062C163.469 14.0104 163.688 14.1354 163.834 14.2812C163.917 14.3646 164.011 14.5104 164.115 14.7188C164.302 15.0938 164.427 15.5521 164.49 16.0938C164.552 16.4062 164.594 16.8438 164.615 17.4062C164.657 17.9688 164.657 18.3854 164.615 18.6562C164.594 18.8438 164.532 19.1146 164.427 19.4688L164.365 19.6562C164.323 19.7604 164.271 19.8854 164.209 20.0312C164.146 20.1771 164.084 20.2917 164.021 20.375C163.938 20.4583 163.834 20.5521 163.709 20.6562C163.605 20.7604 163.511 20.8333 163.427 20.875C163.302 20.9167 163.271 21.0417 163.334 21.25C163.396 21.3958 163.407 21.5312 163.365 21.6562C163.282 21.8021 163.209 21.8854 163.146 21.9062L162.802 21.9688C162.761 21.9896 162.709 22 162.646 22C162.605 22 162.563 22.0104 162.521 22.0312C162.375 22.0312 162.271 22.0521 162.209 22.0938C162.167 22.1354 162.115 22.1562 162.052 22.1562L161.865 22.1875L161.584 22.2188C161.459 22.2188 161.386 22.2292 161.365 22.25L161.177 22.2812H161.021C161 22.3021 160.948 22.3125 160.865 22.3125C160.782 22.3333 160.698 22.3438 160.615 22.3438C160.552 22.3438 160.49 22.3542 160.427 22.375C160.407 22.375 160.355 22.3854 160.271 22.4062C160.188 22.4062 160.052 22.4062 159.865 22.4062C159.511 22.4062 159.302 22.4167 159.24 22.4375H158.896L158.584 22.4688L158.209 22.5312C157.646 22.5312 157.323 22.5417 157.24 22.5625H157.115C157.094 22.5625 157.063 22.5625 157.021 22.5625C156.98 22.5417 156.907 22.5312 156.802 22.5312L156.271 22.5C156.125 22.4792 155.938 22.4688 155.709 22.4688C155.396 22.4688 155.073 22.4271 154.74 22.3438L154.459 22.25C154.313 22.2292 154.23 22.1562 154.209 22.0312L154.115 21.7188C154.032 21.4688 153.938 21.3333 153.834 21.3125C153.813 21.3125 153.761 21.1979 153.677 20.9688C153.677 20.8021 153.657 20.6354 153.615 20.4688L153.521 20.0938L153.459 19.8438L153.427 19.6562L153.396 19.4688L153.271 19.1562L153.146 18.9688V18.7188ZM154.552 29.3125L154.646 28.5312L154.709 28.1562L154.74 27.75C154.761 27.625 154.782 27.4688 154.802 27.2812C154.844 27.0938 154.865 26.9167 154.865 26.75C154.886 26.6458 154.896 26.5312 154.896 26.4062C154.917 26.3646 154.927 26.2917 154.927 26.1875C155.011 25.7292 155.063 25.4792 155.084 25.4375L155.115 25.25C155.136 25.125 155.157 25 155.177 24.875C155.198 24.75 155.219 24.6458 155.24 24.5625C155.282 24.5208 155.302 24.4271 155.302 24.2812L155.365 24.0938C155.407 24.0312 155.438 23.9583 155.459 23.875C155.48 23.7708 155.49 23.6771 155.49 23.5938C155.49 23.5312 155.511 23.4688 155.552 23.4062C155.615 23.3229 155.688 23.2292 155.771 23.125L155.959 22.9062L156.021 22.9375C156.146 22.9375 156.261 22.9896 156.365 23.0938C156.469 23.1354 156.542 23.1875 156.584 23.25C156.646 23.3125 156.698 23.3854 156.74 23.4688C156.74 23.5521 156.761 23.5938 156.802 23.5938C156.844 23.6354 156.917 23.6354 157.021 23.5938C157.146 23.5521 157.25 23.5312 157.334 23.5312L157.521 23.5C157.542 23.5 157.761 23.4479 158.177 23.3438C158.594 23.1979 159.344 23.125 160.427 23.125C160.698 23.125 161.032 23.1562 161.427 23.2188C161.49 23.2604 161.552 23.2917 161.615 23.3125C161.677 23.3125 161.73 23.3229 161.771 23.3438C161.813 23.3438 161.855 23.3542 161.896 23.375C161.959 23.3958 162.032 23.4167 162.115 23.4375C162.469 23.5417 162.667 23.6562 162.709 23.7812L162.99 24.1562L163.209 25.1562C163.23 25.1979 163.24 25.2396 163.24 25.2812C163.24 25.3229 163.25 25.3542 163.271 25.375V25.6562C163.292 25.7396 163.302 25.8333 163.302 25.9375C163.302 26.0417 163.313 26.1354 163.334 26.2188L163.365 27.1875C163.365 27.6042 163.375 27.8229 163.396 27.8438L163.334 29.5625C163.313 29.5625 163.302 29.6562 163.302 29.8438C163.282 29.9479 163.271 30.0521 163.271 30.1562C163.271 30.2604 163.261 30.3542 163.24 30.4375C163.219 30.4583 163.209 30.4896 163.209 30.5312C163.209 30.5729 163.198 30.6042 163.177 30.625C163.177 30.6458 163.125 30.8958 163.021 31.375L162.99 31.6562C163.032 31.7396 163.032 31.875 162.99 32.0625C162.927 32.1042 162.865 32.1562 162.802 32.2188C162.74 32.3021 162.688 32.3542 162.646 32.375L162.521 32.4375C162.521 32.4792 162.49 32.5 162.427 32.5L162.271 32.5938C162.188 32.6354 162.125 32.6771 162.084 32.7188L161.959 32.75C161.938 32.7708 161.896 32.7812 161.834 32.7812L161.646 32.75L161.459 32.7188C161.438 32.6771 161.386 32.6562 161.302 32.6562C160.886 32.7812 160.511 32.8229 160.177 32.7812L159.959 32.75C159.73 32.8333 159.448 32.8542 159.115 32.8125H158.802C158.761 32.8542 158.709 32.8646 158.646 32.8438C158.605 32.8229 158.584 32.8125 158.584 32.8125L158.115 32.7812H157.677C157.636 32.7604 157.563 32.75 157.459 32.75C157.313 32.75 157.23 32.7396 157.209 32.7188C157.167 32.6979 157.125 32.6979 157.084 32.7188C157.063 32.7396 157.052 32.7708 157.052 32.8125C157.052 33 157.011 33.1667 156.927 33.3125C156.823 33.375 156.771 33.4375 156.771 33.5C156.75 33.5208 156.719 33.5312 156.677 33.5312C156.594 33.5312 156.511 33.4896 156.427 33.4062C156.365 33.3438 156.323 33.3125 156.302 33.3125L156.146 33.1875L156.021 33.0938L155.959 33.1562C155.917 33.1979 155.875 33.2188 155.834 33.2188C155.813 33.2188 155.782 33.2083 155.74 33.1875C155.698 33.1667 155.594 33.1667 155.427 33.1875C155.386 33.2083 155.334 33.2188 155.271 33.2188C155.188 33.1979 155.115 32.9167 155.052 32.375L154.927 31.8438L154.865 31.6562L154.834 31.375C154.792 31.25 154.771 31.125 154.771 31C154.75 30.8125 154.719 30.6979 154.677 30.6562L154.615 30.5312C154.573 30.4479 154.542 30.3229 154.521 30.1562C154.5 29.9688 154.5 29.8021 154.521 29.6562L154.552 29.3125ZM155.209 16.7188C155.23 16.9271 155.25 17.1979 155.271 17.5312C155.292 17.8438 155.302 18.0938 155.302 18.2812C155.302 18.4271 155.313 18.5312 155.334 18.5938V18.8438C155.334 18.9896 155.334 19.1562 155.334 19.3438C155.355 19.5104 155.375 19.6354 155.396 19.7188C155.396 19.7812 155.5 19.7812 155.709 19.7188C155.792 19.6771 155.98 19.6562 156.271 19.6562L156.927 19.5938C157.198 19.5729 157.334 19.5312 157.334 19.4688L157.177 19.375C156.615 18.9167 156.292 18.5938 156.209 18.4062C156.188 18.3646 156.157 18.3229 156.115 18.2812C156.073 18.2188 156.052 18.1562 156.052 18.0938C155.99 17.6979 155.938 17.4271 155.896 17.2812L155.771 16.6562C155.771 16.6146 155.792 16.5729 155.834 16.5312C155.875 16.5104 155.927 16.5 155.99 16.5H156.271L156.834 16.6562C156.959 16.6979 157.084 16.7604 157.209 16.8438C157.5 17.1146 157.688 17.3333 157.771 17.5C157.813 17.5417 157.844 17.5833 157.865 17.625C157.907 17.6667 157.938 17.6979 157.959 17.7188C158 17.7188 158.021 17.6458 158.021 17.5C158.042 17.3542 158.052 17.25 158.052 17.1875C158.052 16.9375 158.063 16.8021 158.084 16.7812V16.375C158.146 16.2083 158.146 16.1042 158.084 16.0625C158.063 16.0417 158.032 16.0312 157.99 16.0312H157.896L157.49 16.0625C157.094 16.0625 156.834 16.0729 156.709 16.0938C156.605 16.0938 156.542 16.0938 156.521 16.0938L156.24 16.125C155.927 16.1458 155.667 16.1875 155.459 16.25C155.438 16.2708 155.407 16.2917 155.365 16.3125C155.344 16.3333 155.323 16.3438 155.302 16.3438C155.24 16.3854 155.198 16.4271 155.177 16.4688C155.177 16.5104 155.188 16.5938 155.209 16.7188ZM155.99 10.4688C155.99 10.5104 156.042 10.5104 156.146 10.4688C156.25 10.4062 156.459 10.3542 156.771 10.3125L157.302 10.2812C157.802 10.2188 158.261 10.1875 158.677 10.1875L160.802 10.2188H160.896C160.917 10.1979 160.917 10.1771 160.896 10.1562C160.813 10.0729 160.771 10.0312 160.771 10.0312L160.615 9.9375L160.427 9.78125L160.115 9.53125C159.99 9.44792 159.865 9.32292 159.74 9.15625C159.698 9.11458 159.657 9.07292 159.615 9.03125C159.594 8.98958 159.573 8.95833 159.552 8.9375C159.532 8.91667 159.49 8.88542 159.427 8.84375C159.386 8.78125 159.334 8.69792 159.271 8.59375L158.927 8.28125C158.907 8.28125 158.865 8.22917 158.802 8.125L158.615 7.9375L158.49 7.84375C158.448 7.84375 158.355 7.9375 158.209 8.125C158.167 8.20833 158.094 8.30208 157.99 8.40625L157.74 8.71875C157.74 8.71875 157.688 8.77083 157.584 8.875C157.521 8.9375 157.48 9 157.459 9.0625C157.438 9.08333 157.344 9.17708 157.177 9.34375C157.032 9.51042 156.782 9.73958 156.427 10.0312C156.282 10.1979 156.136 10.3438 155.99 10.4688ZM157.052 28.4688C157.052 29.0521 157.063 29.3646 157.084 29.4062C157.23 29.4062 157.407 29.3854 157.615 29.3438L158.709 29.2812C158.771 29.2812 158.886 29.2812 159.052 29.2812C159.219 29.2604 159.344 29.2604 159.427 29.2812C159.698 29.2812 159.834 29.2708 159.834 29.25C159.855 29.25 159.875 29.2292 159.896 29.1875C159.938 29.1458 159.959 29.1042 159.959 29.0625L160.052 28.7188C160.136 28.4896 160.157 28.3646 160.115 28.3438C160.094 28.3229 159.948 28.3229 159.677 28.3438L158.896 28.375C157.792 28.3958 157.209 28.4167 157.146 28.4375L157.052 28.4688ZM157.084 26.3125C157.084 26.375 157.094 26.4167 157.115 26.4375C157.136 26.4583 157.209 26.4583 157.334 26.4375H157.521C157.563 26.3958 157.907 26.375 158.552 26.375H160.552L160.584 26.2812L160.615 26C160.677 25.8542 160.677 25.75 160.615 25.6875C160.594 25.6458 160.552 25.625 160.49 25.625C160.448 25.6042 160.375 25.5938 160.271 25.5938C160.167 25.5938 160.063 25.5833 159.959 25.5625C159.875 25.5417 159.813 25.5312 159.771 25.5312H159.584C159.563 25.5729 159.375 25.5938 159.021 25.5938C158.98 25.5521 158.927 25.5417 158.865 25.5625C158.823 25.5833 158.802 25.5938 158.802 25.5938L158.521 25.625C158.23 25.6458 157.886 25.7083 157.49 25.8125L157.24 25.9688C157.177 26.0312 157.136 26.1042 157.115 26.1875C157.094 26.25 157.084 26.2917 157.084 26.3125ZM159.052 16.5312L159.115 16.9062C159.157 17.1146 159.188 17.2604 159.209 17.3438C159.25 17.4271 159.292 17.4375 159.334 17.375L159.396 17.3125C159.459 17.2708 159.542 17.1979 159.646 17.0938C159.75 16.9896 159.823 16.8958 159.865 16.8125C159.948 16.7083 160.052 16.6042 160.177 16.5C160.323 16.3958 160.427 16.3438 160.49 16.3438C160.552 16.3438 160.615 16.3646 160.677 16.4062C160.761 16.4271 160.834 16.4583 160.896 16.5C160.959 16.5417 161.021 16.6562 161.084 16.8438C161.146 17.0312 161.188 17.2188 161.209 17.4062L161.24 17.625C161.24 17.7083 161.209 17.8021 161.146 17.9062L161.084 18.125L161.021 18.25L160.927 18.4062C160.886 18.4896 160.813 18.5833 160.709 18.6875C160.625 18.7917 160.552 18.875 160.49 18.9375C160.49 18.9375 160.407 19 160.24 19.125C160.094 19.25 160.032 19.3229 160.052 19.3438C160.636 19.3438 161.011 19.3333 161.177 19.3125C161.365 19.3125 161.459 19.2917 161.459 19.25C161.48 19.2292 161.48 19.1875 161.459 19.125C161.459 19.0625 161.448 19.0104 161.427 18.9688L161.396 18.875L161.427 18.7812C161.573 18.5729 161.73 18.2812 161.896 17.9062C162.021 17.4479 162.094 17.1458 162.115 17C162.157 16.6458 162.188 16.4479 162.209 16.4062C162.209 16.2604 162.177 16.1771 162.115 16.1562C162.032 16.1146 161.563 16.0938 160.709 16.0938C160.271 16.0938 159.99 16.0833 159.865 16.0625C159.657 16.0625 159.521 16.0729 159.459 16.0938H159.209C159.063 16.0729 158.99 16.1042 158.99 16.1875L159.052 16.5312Z" fill="black"/>
</svg>
