<svg width="250" height="250" viewBox="0 0 250 250" fill="none" xmlns="http://www.w3.org/2000/svg">
<path d="M197.252 76.5105C196.062 80.21 194.479 83.7596 193.105 87.3919C193.042 87.297 192.974 87.1962 192.899 87.0875C193.153 86.9942 193.356 86.8657 193.316 86.7809C192.034 84.0393 189.405 82.8983 186.633 82.2242C188.759 79.5482 190.859 76.9427 192.039 73.7492L192.218 73.4779V73.2259C192.424 72.6019 192.593 71.9534 192.722 71.279C192.924 71.145 193.043 70.9413 192.916 70.7204C192.89 70.6738 192.865 70.6284 192.839 70.5822C192.834 70.4651 192.779 70.3785 192.694 70.3235C191.21 67.6408 190.713 65.559 191.818 62.5087C192.299 61.1833 192.623 59.9431 192.548 58.5178C192.346 54.6519 189.771 50.8029 187.961 47.4952C188.252 47.2298 188.561 46.9837 188.885 46.7544C190.257 46.0153 192.288 44.9418 193.966 44.1338C195.811 43.3233 198.029 42.5262 199.841 42.9558C200.034 43.0016 200.555 42.8172 200.792 42.658C202.632 53.9573 200.732 65.7009 197.252 76.5105ZM200.791 42.4363C200.765 42.4371 200.74 42.438 200.713 42.4388C200.738 42.4438 200.763 42.4476 200.787 42.4531C200.788 42.4476 200.789 42.4422 200.791 42.4363ZM174.665 43.9931C172.404 43.5761 169.534 45.1489 167.603 46.1589C165.985 47.0056 164.244 47.9265 162.959 49.257C162.938 49.2793 162.904 49.3007 162.865 49.3213C164.874 52.5916 167.813 56.5015 168.038 60.4748C168.137 62.2408 167.482 63.6334 167.133 65.3234C166.594 67.9226 167.413 69.775 168.744 71.8959C168.826 71.9488 168.882 72.0286 168.896 72.1365C168.928 72.1869 168.959 72.2365 168.992 72.2865C169.127 72.4965 169.019 72.6938 168.825 72.8278C168.303 76.6235 166.446 79.8144 164.26 82.8773C166.801 82.8101 169.594 83.6714 171.045 85.8208C171.603 84.2229 172.157 82.6244 172.664 81.0109C176.374 69.1732 178.054 56.008 175.422 43.7877C175.165 43.9112 174.817 44.0208 174.665 43.9931ZM123.444 141.597C122.654 143.118 122.479 145.146 122.511 146.926C122.803 144.96 123.213 142.786 123.444 141.597ZM125.712 131.613C129.581 129.723 133.869 128.682 138.066 127.821C140.03 127.418 142.004 127.062 144.002 126.875C144.338 126.843 144.693 126.81 145.056 126.78C144.167 124.558 142.4 123.431 140.242 123.021C140.131 123.021 140.029 123.003 139.95 122.966C137.294 122.547 134.093 123.16 131.199 124.144L128.032 125.411C126.792 125.986 125.703 126.588 124.873 127.14C124.762 127.213 124.632 127.247 124.5 127.253C122.653 129.685 120.668 132.112 118.767 134.581C118.687 135.692 118.786 136.87 119.393 137.758C120.113 134.833 123.049 132.915 125.712 131.613ZM123.217 155.327C121.641 153.31 121.354 150.196 121.325 147.763C121.298 145.396 121.397 142.501 122.969 140.571C122.954 140.568 122.938 140.566 122.925 140.562C122.048 140.255 121.054 140.02 120.158 139.632C120.096 139.662 120.03 139.69 119.96 139.711C118.482 142.477 118.152 146.159 118.202 149.15C118.25 152.066 118.52 155.976 121.042 157.908C121.1 157.952 121.086 158.011 121.03 158.072C121.569 158.219 122.111 158.352 122.655 158.471C124.31 158.833 126.376 159.376 128.106 158.986C126.362 157.962 124.732 156.758 123.055 155.629C122.943 155.552 123.039 155.433 123.217 155.327ZM148.957 127.76C145.364 126.696 141.102 127.751 137.512 128.52C133.851 129.304 130.128 130.21 126.723 131.802C123.858 133.142 120.56 135.226 120.443 138.657C120.478 138.675 120.502 138.699 120.508 138.729C121.574 139.303 122.764 139.599 123.9 139.998C124.023 140.041 124.04 140.107 123.995 140.179C124.051 140.191 124.1 140.209 124.139 140.233C126.799 140.299 129.445 140.692 131.748 142.131C133.496 143.224 134.975 144.648 136.505 146.007C136.951 145.869 137.398 145.732 137.839 145.587L148.542 141C149.113 140.693 149.68 140.377 150.245 140.051C150.276 140.033 150.328 140.014 150.393 139.997C152.968 136.802 153.885 129.22 148.957 127.76ZM147.574 126.713C147.087 126.632 146.641 126.606 146.304 126.605C146.304 126.64 146.297 126.674 146.287 126.706C146.715 126.691 147.146 126.691 147.574 126.713Z" fill="#B5E9FC"/>
<path d="M98.1303 135.615C98.4214 135.033 98.7233 134.462 99.1101 133.935C99.2932 133.686 99.5969 133.557 99.9068 133.581C100.105 133.596 100.442 133.776 100.26 134.024C99.8732 134.55 99.5713 135.121 99.2798 135.704C99.0685 136.127 97.8397 136.196 98.1303 135.615ZM99.0496 131.605C99.4957 131.618 99.8321 131.841 100.193 132.081C100.447 132.249 100.833 132.167 101.064 132.001C101.265 131.854 101.388 131.567 101.137 131.399C100.63 131.062 100.105 130.774 99.481 130.755C99.1895 130.747 98.8317 130.836 98.686 131.121C98.5553 131.378 98.7993 131.598 99.0496 131.605ZM94.2549 130.044C94.5816 130.044 94.9083 130.044 95.2346 130.044C95.5311 130.044 95.8457 129.983 96.0952 129.814C96.2791 129.689 96.2619 129.516 96.0158 129.516C95.689 129.516 95.3619 129.516 95.036 129.516C94.7395 129.516 94.4249 129.577 94.1751 129.747C93.9915 129.871 94.0088 130.044 94.2549 130.044ZM191.667 93.6208C190.307 96.0701 189.207 98.5206 188.788 101.317C188.78 101.376 188.755 101.43 188.722 101.479C188.265 103.318 187.077 104.917 186.105 106.556C184.592 109.109 183.403 111.827 181.764 114.311C178.077 119.897 175.062 125.83 171.518 131.49C168.946 135.598 165.822 139.325 161.447 141.588C155.904 144.456 150.74 147.817 145.612 151.349C145.666 151.371 145.72 151.394 145.775 151.416C147.353 152.052 149.109 152.581 150.438 153.696C152.615 155.525 153.836 158.079 154.237 160.878C154.952 165.879 154.19 171.149 153.891 176.163C153.6 181.04 153.209 185.939 153.158 190.828C153.186 190.856 153.206 190.89 153.211 190.933C153.613 194.627 159.284 201.873 154.574 204.641C154.298 205.921 153.668 207.011 152.456 207.638C152.229 207.756 151.997 207.738 151.829 207.651C151.433 207.933 150.888 208.011 150.159 207.814C150.04 207.883 149.907 207.938 149.755 207.971C148.079 208.34 146.822 206.789 146.393 205.339C145.767 203.231 145.865 199.77 143.679 198.602C141.995 200 138.434 202.913 137.3 201.267C136.455 200.039 138.139 197.933 138.964 197.178C140.536 195.737 142.875 194.55 143.592 192.422C143.625 192.324 143.713 192.24 143.826 192.174C144.922 187.432 141.414 182.785 141.352 178.053C141.305 174.422 141.071 170.789 140.848 167.164C140.785 166.126 140.419 166.033 139.541 165.324C137.977 164.059 136.367 162.765 134.608 161.777C132.767 160.742 130.678 160.336 128.8 159.37C126.01 160.226 122.716 159.502 119.816 158.604C119.878 158.735 119.915 158.81 119.915 158.81L119.027 158.353C118.564 158.202 118.112 158.05 117.679 157.903C115.802 157.268 113.835 156.583 112.182 155.463C109.784 153.838 108.045 151.509 105.288 150.43C105.005 150.318 105.287 150.095 105.632 149.96C105.168 150.108 104.708 150.258 104.259 150.391C102.312 150.969 100.362 151.559 98.371 151.971C96.24 152.412 92.0097 153.408 90.8182 150.803C90.7897 150.741 90.8619 150.664 90.982 150.592C90.1497 150.635 89.2849 150.431 88.4794 150.247C87.9948 150.541 87.4081 150.625 86.7147 150.396C84.7106 149.734 84.163 146.702 84.7837 144.24C84.7304 144.238 84.6816 144.23 84.6426 144.214C82.8262 143.446 80.7948 143.137 78.8264 143.181C76.4267 143.234 74.5066 144.039 72.3837 145.055C70.2679 146.067 68.3633 146.476 66.0648 146.757C61.2402 147.349 55.2418 148.151 54.658 154.056C54.6584 154.063 54.6605 154.069 54.6605 154.076C54.6441 155.641 54.3544 160.555 51.5137 159.647C49.7284 159.077 50.2151 156.839 50.6683 155.384C48.9939 155.958 47.7407 156.752 46.2733 157.849C45.2658 158.602 43.5746 159.941 42.182 159.336C41.2282 158.922 41.2417 157.89 41.9968 157.26C42.9459 156.468 43.8912 155.671 44.845 154.884C44.003 155.271 43.155 155.642 42.2954 155.978C41.0552 156.463 38.5757 157.771 37.5455 156.324C36.8563 155.356 37.7135 154.384 39.1498 153.503C38.1587 153.533 36.761 153.383 37.3355 152.327C37.7643 151.539 38.7924 150.976 39.823 150.551C39.3329 150.465 38.9679 150.237 38.8138 149.796C38.3938 148.6 39.6714 148.187 40.5823 147.892C42.2865 147.34 44.0109 146.896 45.6757 146.279C45.6824 146.133 45.8193 145.957 46.1267 145.853C53.2347 143.436 59.1933 138.634 66.1261 135.828C72.1896 133.374 78.6488 133.994 84.9786 134.822C85.464 132.66 86.1751 130.495 87.8125 128.931C89.3689 127.446 91.5444 127.226 93.5833 127.463C93.6946 127.438 93.8021 127.432 93.8891 127.456C93.9626 127.476 94.0407 127.496 94.1184 127.515C94.3871 127.279 94.6673 127.055 94.9566 126.841C94.8487 126.794 94.7655 126.712 94.7374 126.586C93.7047 121.964 96.251 118.132 100.395 116.152C102.755 115.023 105.385 114.126 108.014 113.981C110.56 113.839 113.742 114.919 116.073 113.737C116.697 113.455 117.365 114.092 116.617 114.471C115.171 115.122 113.823 116.081 113.005 117.36C116.942 116.514 121.941 117.234 125.551 118.765C126.427 117.586 127.302 116.408 128.178 115.229C128.191 114.935 128.768 114.56 129.153 114.668C130.396 115.012 132.066 115.499 131.779 117.096C131.564 118.294 130.443 119.368 129.736 120.313C128.444 122.041 127.141 123.761 125.841 125.483C129.634 123.44 135.512 121.406 140.115 122.007C141.262 119.191 140.669 115.835 142.304 113.238C143.734 110.966 145.908 109.489 147.818 107.66C147.835 107.62 147.857 107.58 147.888 107.537C151.048 103.145 155.363 99.0686 157.577 94.0777C158.17 92.741 157.895 91.2349 158.448 89.8587C159.165 88.0759 160.274 86.491 161.414 84.9556C164.265 81.1191 167.118 77.3474 167.646 72.4573C166.611 70.8484 165.522 69.058 165.665 67.0812C165.802 65.204 166.748 63.4968 166.818 61.625C166.98 57.3291 163.79 53.1991 161.67 49.7214C161.478 49.4068 161.806 49.1225 162.164 49.0351C164.022 47.2557 166.599 46 168.914 45.0068C170.884 44.1614 173.255 43.1501 175.461 43.4726C175.683 43.0934 176.532 42.9561 176.63 43.4134C179.248 55.5115 177.699 68.5583 174.086 80.3052C172.656 84.9539 170.764 89.4707 169.55 94.1882C168.37 98.773 167.371 103.515 166.899 108.241C168.273 107.145 169.518 105.901 170.692 104.461C172.293 102.497 173.853 100.526 175.699 98.7856C175.699 98.7045 175.732 98.6117 175.815 98.5071C177.416 96.5131 179.649 94.5027 180.533 92.0535C180.969 90.8477 180.843 89.537 181.305 88.3304C181.667 87.3838 182.134 86.4977 182.716 85.6678C183.465 84.6007 184.273 83.5764 185.087 82.5609C185.08 82.5596 185.074 82.558 185.067 82.5563C184.911 82.5214 185.066 82.4026 185.301 82.2934C188.074 78.84 190.856 75.46 191.578 70.8647C190.656 69.2638 189.665 67.476 189.855 65.5824C190.05 63.6429 191.124 61.9458 191.293 60.0224C191.67 55.7412 188.698 51.4437 186.761 47.8727C186.576 47.5316 186.951 47.2339 187.324 47.1654C189.242 45.5872 191.75 44.5079 194.024 43.6646C196.048 42.9141 198.514 41.9738 200.714 42.4408C200.739 42.4458 200.763 42.4496 200.788 42.455C200.789 42.4492 200.79 42.4437 200.792 42.4378C200.912 41.9708 201.917 41.765 201.999 42.2652C203.831 53.4171 202.088 65.0242 198.707 75.7234C197.468 79.6442 195.777 83.3588 194.369 87.2158C193.566 89.4135 192.805 91.5709 191.667 93.6208ZM122.969 140.57C122.955 140.568 122.939 140.566 122.926 140.562C122.049 140.255 121.055 140.019 120.159 139.631C120.097 139.662 120.031 139.689 119.961 139.71C118.482 142.477 118.152 146.159 118.202 149.15C118.251 152.065 118.521 155.975 121.043 157.908C121.101 157.951 121.087 158.01 121.031 158.072C121.57 158.218 122.111 158.352 122.656 158.47C124.311 158.832 126.377 159.376 128.107 158.986C126.363 157.961 124.733 156.757 123.056 155.629C122.943 155.552 123.04 155.433 123.218 155.328C121.642 153.311 121.355 150.197 121.326 147.764C121.298 145.397 121.398 142.501 122.969 140.57ZM164.261 82.8767C166.802 82.8095 169.595 83.6709 171.046 85.8203C171.604 84.2223 172.158 82.6239 172.664 81.0104C176.375 69.1723 178.055 56.0075 175.423 43.7872C175.165 43.9107 174.818 44.0207 174.666 43.9926C172.405 43.5755 169.535 45.1483 167.604 46.1583C165.985 47.005 164.244 47.926 162.96 49.2565C162.938 49.2787 162.904 49.3001 162.865 49.3207C164.874 52.591 167.813 56.5009 168.038 60.4743C168.138 62.2402 167.483 63.6329 167.133 65.3228C166.595 67.922 167.413 69.7745 168.744 71.8953C168.826 71.9483 168.883 72.0281 168.897 72.136C168.929 72.1864 168.959 72.2359 168.993 72.2859C169.128 72.4959 169.02 72.6933 168.825 72.8273C168.304 76.6234 166.446 79.8143 164.261 82.8767ZM152.456 129.14C152.727 129.521 152.95 129.933 153.131 130.369C152.996 129.896 152.777 129.479 152.456 129.14ZM146.287 126.706C146.715 126.692 147.146 126.691 147.574 126.714C147.087 126.632 146.641 126.606 146.304 126.605C146.304 126.64 146.298 126.674 146.287 126.706ZM137.513 128.52C133.851 129.304 130.128 130.21 126.724 131.802C123.859 133.142 120.561 135.226 120.443 138.657C120.478 138.675 120.502 138.699 120.509 138.729C121.574 139.303 122.765 139.599 123.901 139.998C124.024 140.041 124.041 140.107 123.995 140.179C124.051 140.191 124.1 140.209 124.139 140.233C126.8 140.299 129.445 140.692 131.748 142.131C133.496 143.224 134.975 144.648 136.506 146.007C136.952 145.869 137.398 145.732 137.84 145.587C138.143 145.487 138.442 145.379 138.742 145.275L148.385 141.082C148.437 141.054 148.49 141.028 148.543 141C149.113 140.693 149.68 140.376 150.245 140.051C150.276 140.032 150.329 140.014 150.393 139.997C152.97 136.803 153.886 129.22 148.958 127.761C145.365 126.696 141.103 127.751 137.513 128.52ZM188.885 46.7539C188.561 46.9832 188.252 47.2293 187.961 47.4947C189.772 50.8019 192.346 54.6514 192.548 58.5172C192.624 59.9426 192.298 61.1828 191.818 62.5082C190.713 65.5588 191.21 67.6402 192.694 70.323C192.78 70.378 192.834 70.4645 192.839 70.5817C192.865 70.6279 192.889 70.6732 192.916 70.7199C193.043 70.9408 192.924 71.144 192.722 71.2784C192.593 71.9529 192.424 72.6013 192.218 73.2254C192.16 73.4009 192.103 73.5765 192.039 73.7487C190.859 76.9421 188.759 79.5476 186.633 82.2237C189.406 82.8977 192.034 84.0388 193.316 86.7803C193.356 86.8652 193.152 86.9937 192.899 87.0869C192.898 87.0873 192.896 87.0882 192.894 87.0886C192.964 87.1999 193.031 87.3078 193.097 87.4132C193.1 87.4052 193.102 87.3985 193.105 87.3914C194.479 83.7591 196.062 80.2095 197.252 76.51C200.732 65.7004 202.633 53.9568 200.792 42.6571C200.555 42.8162 200.034 43.001 199.84 42.9548C198.028 42.5256 195.81 43.3223 193.965 44.1328C193.508 44.334 193.072 44.5356 192.672 44.7199C191.396 45.3079 190.052 45.9274 188.885 46.7539ZM128.033 125.412C126.793 125.987 125.704 126.588 124.873 127.14C124.763 127.213 124.633 127.247 124.501 127.253C122.653 129.685 120.668 132.112 118.768 134.581C118.687 135.693 118.786 136.87 119.393 137.759C120.114 134.833 123.05 132.915 125.714 131.613C129.582 129.723 133.87 128.682 138.068 127.821C140.031 127.418 142.005 127.062 144.003 126.875C144.34 126.843 144.694 126.81 145.058 126.78C144.168 124.557 142.401 123.431 140.244 123.021C140.132 123.021 140.03 123.003 139.951 122.966C137.295 122.547 134.094 123.159 131.2 124.143C130.08 124.524 129.01 124.959 128.033 125.412ZM126.274 119.184C126.277 119.268 126.199 119.36 126.082 119.442C121.324 125.849 116.564 132.257 111.806 138.664C112.587 138.744 113.38 139.032 113.917 139.565C116.386 135.805 119.397 132.295 122.094 128.722C123.914 126.309 125.738 123.897 127.556 121.482C128.037 120.842 128.52 120.204 128.996 119.56C129.497 118.883 130.171 118.194 130.46 117.393C130.864 116.272 129.821 115.879 128.917 115.625C128.036 116.811 127.155 117.997 126.274 119.184ZM93.6249 146.665C99.263 147.013 107.402 150.991 110.556 144.139C110.559 144.133 110.564 144.129 110.566 144.123C110.088 144.031 109.65 143.821 109.302 143.501C105.809 148.409 98.2328 145.479 93.3053 144.717C93.2583 144.71 93.2402 144.694 93.241 144.674C93.2116 144.672 93.181 144.674 93.152 144.669C92.9592 144.643 92.9319 144.629 92.8303 144.821C92.7287 145.014 92.6905 145.262 92.7173 145.477C92.7803 145.967 92.9949 146.371 93.3431 146.711C93.4435 146.678 93.5409 146.659 93.6249 146.665ZM90.305 135.719C90.654 135.325 91.0093 134.938 91.3856 134.567C91.6762 134.281 91.9795 134.036 92.2965 133.824C92.218 133.766 92.192 133.675 92.2575 133.544C92.5632 132.923 92.8295 132.286 93.2373 131.724C93.4099 131.486 93.7572 131.38 94.0398 131.389C94.2259 131.395 94.5463 131.519 94.3724 131.758C94.0717 132.172 93.8479 132.628 93.6287 133.088C93.7038 133.059 93.7857 133.039 93.8748 133.035C93.9936 133.029 94.1074 133.029 94.2166 133.032C94.3128 133.014 94.4094 132.993 94.5093 132.979C94.8084 132.937 94.9629 133.03 95.0083 133.169C96.1334 133.545 96.5244 134.658 96.4211 136.123C96.3299 137.417 96.0326 138.683 95.9213 139.974C95.7777 141.644 96.8435 144.014 98.9405 142.939C101.783 141.481 104.59 137.563 104.492 134.278C104.35 129.482 98.3773 129.23 94.4375 128.477C92.4834 130.414 91.1718 133.002 90.305 135.719ZM101.204 142.406C100.55 142.956 99.6951 143.454 98.8182 143.727C99.533 143.904 100.234 144.143 100.959 144.228C102.863 144.449 104.244 142.782 105.106 141.391C106.006 139.938 107.074 138.268 107.539 136.614C108.192 134.295 107.732 132.806 105.596 131.676C105.405 131.575 105.21 131.483 105.017 131.388C105.332 131.871 105.55 132.428 105.636 133.077C106.1 136.582 103.798 140.229 101.204 142.406ZM89.13 140.998C91.1559 141.017 93.7614 141.271 93.9936 143.756C94.0024 143.852 93.9701 143.939 93.9134 144.015C94.0705 144.043 94.1322 144.144 94.1142 144.257C94.191 144.241 94.2586 144.234 94.3052 144.241C98.8817 144.949 106.021 148.122 108.723 142.665C108.66 142.513 108.609 142.352 108.574 142.18C108.415 141.386 108.547 140.648 108.904 140.029C108.711 140.031 108.547 139.961 108.483 139.809L108.481 139.809L108.482 139.806C108.473 139.784 108.46 139.767 108.456 139.743C108.325 138.986 108.316 138.082 108.43 137.15C108.122 137.857 107.759 138.532 107.452 139.122C106.271 141.396 104.988 143.363 102.579 144.404C100.688 145.221 98.8338 144.235 96.9422 144C96.8671 143.991 96.8843 143.953 96.9536 143.903C96.1031 143.755 95.3665 143.224 94.9457 142.112C94.3397 140.51 96.2329 134.65 94.2864 133.889C93.981 133.943 93.6984 134.033 93.4334 134.154C93.5989 134.259 93.6547 134.435 93.4514 134.663C92.6732 135.538 92.0496 136.736 91.8589 137.899C91.7963 138.284 91.6817 138.888 91.9748 139.214C92.2957 139.572 93.0453 139.13 93.3607 138.979C93.997 138.676 94.6626 139.391 93.9134 139.748C92.6695 140.342 90.5822 140.712 90.5591 138.735C90.5486 137.848 90.8182 136.915 91.2344 136.06C90.7288 136.679 90.2437 137.335 89.7041 137.907C89.4596 138.95 89.2728 139.989 89.13 140.998ZM102.906 126.836C102.913 126.85 102.918 126.864 102.925 126.878C102.948 126.854 102.963 126.84 102.963 126.84C102.963 126.84 102.94 126.839 102.906 126.836ZM110.951 139.393C110.863 139.399 110.79 139.393 110.727 139.382C109.938 139.832 109.583 140.817 109.76 141.7C109.917 142.483 110.501 143.538 111.46 143.434C114.279 143.128 113.626 139.235 110.951 139.393ZM95.2393 127.75C97.636 128.185 100.994 128.506 103.248 129.796C105.037 130.312 107.07 131.056 108.277 132.351C108.88 132.998 109.1 133.743 109.094 134.522C109.424 133.701 109.863 132.954 110.417 132.381C109.355 132.427 108.275 132.196 107.503 131.449C106.469 130.45 106.537 129.123 107.047 127.932C104.963 128.448 101.944 128.76 101.626 126.845C101.61 126.849 101.601 126.856 101.584 126.859C100.459 127.111 97.7221 127.836 97.1022 126.499C96.5781 126.778 96.0868 127.095 95.624 127.445V127.8L95.5534 127.5C95.448 127.582 95.3426 127.665 95.2393 127.75ZM86.0365 137.858C86.7853 137.878 87.5341 137.899 88.2837 137.92C88.3833 137.829 88.4735 137.731 88.5689 137.637C89.4181 134.216 90.8728 130.85 93.2423 128.356C90.9161 128.089 88.7575 128.629 87.5723 130.868C86.6887 132.537 85.9 134.716 85.9033 136.632C85.8739 137.051 85.9185 137.46 86.0365 137.858ZM85.0474 143.404C85.5972 141.991 86.5795 140.93 87.9293 140.909C88.0191 140.296 88.125 139.676 88.2505 139.054C87.9167 139.225 87.5542 139.351 87.1544 139.415C84.8383 139.788 84.412 137.571 84.7904 135.706C84.8001 135.659 84.8102 135.61 84.8202 135.563C81.0527 135.063 77.1801 134.504 73.3714 134.812C69.7605 135.105 66.5314 136.204 63.3195 137.841C58.5091 140.295 53.9777 143.3 49.0136 145.417C47.3413 146.358 45.5493 147.022 43.7115 147.564C43.2197 147.709 39.0116 148.598 40.0943 149.555C40.4651 149.882 40.9909 149.958 41.5906 149.896C41.6318 149.882 41.6742 149.867 41.7137 149.853C43.0748 149.355 44.4649 148.895 45.8785 148.552C46.1952 148.455 46.4867 148.385 46.7319 148.367C46.7403 148.367 46.7454 148.367 46.7533 148.367C46.9356 148.329 47.1162 148.284 47.2997 148.251C48.1321 148.101 47.6038 148.616 47.1158 148.723C47.0028 148.853 46.7895 148.972 46.5517 148.99C45.7206 149.053 43.0442 150.268 41.0531 150.538C40.1077 150.892 39.1376 151.344 38.6101 152.03C37.8937 152.96 39.3434 153.016 40.2232 152.908C42.7695 151.626 46.1687 150.614 46.9205 150.226C47.5345 149.91 48.1985 150.564 47.4597 150.945C46.4472 151.466 37.3431 154.49 38.7764 155.949C39.5467 156.733 43.4146 154.567 44.2348 154.188C45.4569 153.622 46.671 153.037 47.8654 152.415C48.1917 152.245 48.5302 152.352 48.6663 152.546C48.7188 152.591 48.7427 152.65 48.7276 152.718C48.7339 152.856 48.6436 153.009 48.4047 153.133C48.3223 153.176 48.2383 153.217 48.1569 153.26C46.6719 154.406 45.2356 155.613 43.7976 156.817C43.4604 157.099 42.1001 157.968 42.8191 158.54C43.6015 159.163 44.9298 157.881 45.5064 157.44C47.3262 156.049 48.9422 155.148 51.1609 154.508C51.4881 154.414 51.6955 154.497 51.7695 154.633C51.9437 154.661 52.0563 154.75 52.0013 154.915C51.693 155.851 51.0425 157.642 51.7191 158.535C52.501 159.566 52.9869 157.889 53.126 157.255C53.3464 156.248 53.4275 155.233 53.438 154.204C53.438 154.174 53.4443 154.145 53.454 154.117C54.094 148.269 60.0739 146.868 65.025 146.238C66.4163 146.062 67.8509 145.967 69.2196 145.646C71.3363 145.149 73.1283 143.74 75.1966 143.098C78.2985 142.133 81.9754 142.264 85.0474 143.404ZM87.4732 149.549C88.7234 149.625 88.8998 146.754 88.8923 145.956C88.8809 144.783 88.7625 142.971 87.5996 142.321C87.3942 142.207 87.3808 142.055 87.4681 141.916C85.4762 142.656 85.0143 149.401 87.4732 149.549ZM91.5028 150.123C91.5452 150.123 91.5733 150.124 91.5948 150.126C91.5977 150.118 91.6044 150.108 91.6179 150.096C92.3075 149.419 92.2142 148.075 92.2176 147.192C91.6422 146.632 91.284 145.742 91.6145 144.965C91.8274 144.465 92.2751 144.192 92.7745 144.067C92.5699 141.982 90.5423 141.819 88.8259 141.804C90.5335 143.223 90.6343 147.823 89.0871 149.708C89.1018 149.709 89.1165 149.709 89.1287 149.712C89.6738 149.83 90.2194 149.961 90.7708 150.046C91.0123 150.084 91.2571 150.124 91.5028 150.123ZM105.93 149.37L105.984 149.098L108.364 148.487C108.364 148.487 110.354 148.022 113.969 146.159C114.778 145.742 115.394 145.346 115.877 144.981C116.189 144.635 116.491 144.272 116.782 143.891C116.871 143.777 117.021 143.705 117.183 143.672C117.526 143.152 117.517 142.836 117.517 142.836C117.517 142.836 117.52 143.094 117.525 143.52C117.849 141.95 118.371 140.437 119.211 139.122C119.068 139.025 118.929 138.923 118.8 138.81C117.983 138.095 117.651 137.174 117.555 136.184C116.476 137.636 115.441 139.106 114.505 140.603C114.532 140.717 114.553 140.835 114.563 140.961C114.694 142.654 113.262 143.829 111.7 144.123C108.138 151.572 99.7581 147.843 93.4313 147.355C93.4204 148.492 93.3192 149.784 92.1928 150.305C92.1147 150.341 92.0357 150.373 91.9564 150.402C91.9912 150.419 92.0185 150.442 92.034 150.474C93.4246 153.512 99.2768 151.391 101.544 150.751C102.963 150.351 104.439 149.801 105.93 149.37ZM144.621 151.985C144.248 152.093 143.776 151.921 143.781 151.659C142.587 151.194 141.402 150.717 140.303 150.113C139.927 149.907 139.564 149.688 139.211 149.46L138.757 149.271L138.604 149.038C137.528 148.283 136.536 147.447 135.553 146.592C135.537 146.579 135.521 146.565 135.504 146.55C134.516 145.689 133.53 144.816 132.46 144.003C129.793 141.976 127.006 141.23 123.688 141.177C123.601 141.313 123.52 141.452 123.445 141.597C122.655 143.118 122.479 145.146 122.511 146.926C122.521 147.495 122.552 148.04 122.59 148.533C122.762 150.734 123.056 153.445 124.607 155.154C124.697 155.253 124.679 155.357 124.601 155.451C126.76 156.933 128.874 158.583 131.329 159.539C133.296 160.305 135.127 160.843 136.892 162.038C138.466 163.104 139.976 164.264 141.431 165.488C142.102 166.053 142.026 166.213 142.081 167.114C142.311 170.907 142.235 174.772 142.586 178.549C143.015 183.161 146.311 187.784 144.911 192.48C144.881 192.582 144.77 192.668 144.628 192.734C143.304 195.587 139.238 196.536 138.514 199.639C138.422 200.033 138.131 201.154 138.899 200.822C139.513 200.557 140.082 200.205 140.633 199.826C141.433 199.273 142.201 198.678 142.972 198.086C143.027 197.922 143.264 197.752 143.511 197.673C143.543 197.649 143.573 197.625 143.605 197.601C143.981 197.318 144.852 197.491 144.515 197.899C145.807 198.574 146.442 199.838 146.783 201.304C147.165 202.944 147.202 205.994 148.877 206.938C149.165 207.1 149.327 207.293 149.423 207.229C149.425 207.228 149.426 207.227 149.428 207.226C149.459 207.201 149.483 207.15 149.501 207.058C149.572 206.705 149.595 206.353 149.561 205.992C149.48 205.153 149.317 204.327 149.109 203.511C148.779 202.218 148.302 200.956 148.003 199.657C147.885 199.145 149.105 198.828 149.22 199.331C149.504 200.567 151.495 205.16 150.725 207.118C151.425 207.256 151.583 206.591 151.634 205.801C151.696 204.816 151.597 203.822 151.441 202.85C151.211 201.418 150.877 200.012 150.522 198.607C150.431 198.247 151.65 197.928 151.739 198.281C152.086 199.656 153.204 204.015 152.591 206.375C154.428 204.421 153.182 199.671 152.621 197.558C152.467 196.977 153.684 196.651 153.838 197.232C154.27 198.861 154.85 201.267 154.73 203.411C156.546 200.651 152.892 194.98 152.115 191.914C151.992 191.845 151.908 191.728 151.909 191.554C151.928 186.796 152.307 182.026 152.589 177.278C152.861 172.688 153.524 167.916 153.234 163.315C153.033 160.126 152.243 156.445 149.505 154.43C148.049 153.358 146.344 152.657 144.621 151.985ZM107.038 187.765C106.866 190.027 104.808 191.94 103.194 193.324C101.229 195.008 98.9921 196.701 96.5781 197.694C92.3633 199.428 86.5786 197.201 85.2587 192.765C84.9118 193.123 84.5137 193.422 84.0475 193.602C83.3495 193.87 82.4323 193.968 81.8443 193.403C81.3744 192.952 81.2837 192.227 81.4911 191.627C81.757 190.86 82.3235 190.266 82.9791 189.805C82.0039 189.576 80.9838 189.142 80.2951 188.423C79.574 187.668 79.3749 186.456 80.2199 185.679C80.9137 185.042 82.1543 185.134 83.0177 185.186C83.8892 185.239 84.7694 185.336 85.6283 185.511C85.808 181.017 92.5876 178.231 96.4593 179.324C98.9127 180.016 101.324 181.62 103.322 183.155C104.573 184.116 107.181 185.895 107.038 187.765ZM102.894 188.247C103.151 188.112 103.462 188.046 103.749 188.108C104.39 188.246 105.038 188.106 105.623 187.827C105.675 187.802 105.731 187.779 105.789 187.757C105.623 186.038 103.242 184.485 101.992 183.593C100.32 182.397 98.5285 181.2 96.5962 180.466C93.2276 179.188 87.062 181.413 86.8667 185.442C90.0216 183.351 94.2192 181.954 97.9455 182.603C98.2748 182.661 97.2282 183.119 96.9443 183.07C93.6123 182.489 89.8813 183.9 87.2157 185.868C87.1456 185.92 86.9927 185.966 86.8218 186C86.7282 186.184 86.493 186.298 86.2548 186.318C86.1028 186.474 85.8647 186.575 85.6199 186.518C84.3444 186.216 82.6116 185.839 81.3202 186.153C80.3291 186.394 81.1808 187.741 81.6566 188.072C82.2752 188.502 82.9787 188.813 83.7212 188.954C83.9849 189.005 84.0979 189.132 84.1113 189.278C84.2188 189.274 84.3251 189.283 84.4192 189.329C84.6762 189.455 84.4864 189.714 84.3142 189.811C83.6485 190.185 82.9484 190.717 82.7086 191.478C82.57 191.918 82.5524 192.461 82.88 192.828C83.0219 192.987 83.1887 193.087 83.3436 193.114C83.4238 193.128 83.376 193.134 83.504 193.113C83.3088 193.146 83.6712 193.052 83.5082 193.115C83.5658 193.092 83.6229 193.07 83.6787 193.043C83.6309 193.067 83.8085 192.964 83.8329 192.947C83.8984 192.903 83.961 192.855 84.0206 192.803C84.1647 192.676 84.3045 192.543 84.4255 192.393C84.6489 192.118 84.837 191.821 85.0134 191.517C85.0122 191.501 85.0088 191.485 85.0075 191.469C84.979 191.152 85.2826 190.918 85.5942 190.845C86.0016 190.698 86.5862 190.731 86.3926 191.112C86.3485 191.198 86.2998 191.286 86.2528 191.373C86.8684 196.253 92.8534 198.678 97.0065 196.443C98.919 195.414 100.748 194.162 102.371 192.716C103.487 191.721 105.517 190.021 105.771 188.309C104.81 188.677 103.78 188.845 102.759 188.625C102.472 188.562 102.792 188.301 102.894 188.247ZM99.9165 185.59C99.9165 186.149 99.9165 186.71 99.9165 187.269C99.9165 187.451 101.133 187.281 101.133 186.944C101.133 186.384 101.133 185.823 101.133 185.264C101.134 185.082 99.9165 185.252 99.9165 185.59ZM185.41 176.302C185.53 178.12 183.126 179.647 181.834 180.47C179.771 181.786 177.561 182.971 175.233 183.748C171.793 184.895 165.037 184.238 163.617 180.182C163.233 180.479 162.806 180.716 162.329 180.859C161.686 181.053 160.865 181.111 160.282 180.71C159.779 180.363 159.658 179.796 159.919 179.251C160.161 178.745 160.616 178.367 161.117 178.075C160.194 177.893 159.25 177.567 158.541 176.97C157.911 176.439 157.863 175.404 158.61 174.916C159.377 174.416 160.403 174.478 161.279 174.511C162.194 174.545 163.113 174.617 164.019 174.752C164.318 170.877 171.836 169.635 174.705 170.23C177.067 170.719 179.334 171.804 181.452 172.926C182.569 173.518 185.307 174.754 185.41 176.302ZM183.744 177.729C182.904 177.992 182.022 178.089 181.147 177.901C180.858 177.839 181.178 177.577 181.28 177.524C181.538 177.389 181.848 177.323 182.135 177.385C182.777 177.523 183.425 177.383 184.01 177.104C184.044 177.087 184.085 177.072 184.123 177.057C184.172 176.905 184.197 176.751 184.186 176.598C184.093 175.186 180.86 173.814 179.859 173.322C178.323 172.567 176.732 171.829 175.08 171.362C172.604 170.662 165.275 171.352 165.252 174.93C168.295 173.43 171.729 172.779 175.105 172.728C175.923 172.716 175.019 173.342 174.613 173.348C171.513 173.395 168.331 173.971 165.567 175.423C165.425 175.498 165.165 175.527 164.949 175.511C164.827 175.569 164.682 175.6 164.543 175.596C164.394 175.704 164.201 175.769 164.006 175.735C162.642 175.501 161.127 175.302 159.747 175.466C158.977 175.558 159.349 176.265 159.952 176.588C160.616 176.943 161.364 177.148 162.107 177.251C162.347 177.284 162.463 177.386 162.493 177.509C162.643 177.5 162.791 177.525 162.886 177.625C163.078 177.827 162.712 178.059 162.563 178.12C162.006 178.347 161.351 178.656 161.076 179.231C160.927 179.539 160.995 179.899 161.258 180.116C161.568 180.373 161.874 180.336 162.163 180.24C162.6 180.094 163.044 179.674 163.393 179.245C163.34 178.841 163.842 178.571 164.218 178.6C164.297 178.587 164.375 178.58 164.446 178.582C164.636 178.587 164.947 178.707 164.778 178.946C164.736 179.007 164.69 179.064 164.646 179.123C165.428 183.489 172.31 183.946 175.581 182.633C177.459 181.88 179.325 180.984 181.011 179.86C181.664 179.427 183.036 178.63 183.744 177.729ZM178.303 174.866C178.303 175.425 178.303 175.986 178.303 176.546C178.303 176.727 179.52 176.557 179.52 176.22C179.52 175.66 179.52 175.1 179.52 174.54C179.52 174.358 178.303 174.529 178.303 174.866ZM217.585 151.291C217.705 153.108 215.301 154.636 214.01 155.459C211.946 156.774 209.737 157.96 207.408 158.737C203.968 159.884 197.212 159.227 195.793 155.171C195.409 155.467 194.981 155.704 194.505 155.848C193.862 156.042 193.04 156.099 192.458 155.699C191.954 155.352 191.833 154.785 192.094 154.239C192.336 153.734 192.792 153.356 193.293 153.063C192.369 152.881 191.425 152.556 190.716 151.959C190.086 151.428 190.039 150.393 190.785 149.905C191.552 149.405 192.578 149.466 193.455 149.499C194.368 149.533 195.288 149.606 196.195 149.74C196.494 145.866 204.011 144.624 206.879 145.218C209.242 145.708 211.509 146.792 213.627 147.915C214.745 148.506 217.483 149.742 217.585 151.291ZM215.919 152.718C215.08 152.981 214.197 153.078 213.323 152.889C213.034 152.828 213.353 152.566 213.455 152.513C213.713 152.378 214.024 152.312 214.31 152.373C214.953 152.512 215.601 152.372 216.185 152.093C216.22 152.076 216.26 152.061 216.298 152.045C216.347 151.893 216.372 151.74 216.362 151.587C216.269 150.175 213.035 148.803 212.035 148.311C210.498 147.555 208.907 146.818 207.255 146.351C204.815 145.66 197.654 146.32 197.43 149.767C200.191 148.583 202.987 147.668 205.991 147.256C206.819 147.143 206.551 148.052 205.882 148.144C202.792 148.567 199.94 149.583 197.106 150.857C196.794 150.997 196.468 150.903 196.317 150.73C196.273 150.732 196.227 150.731 196.182 150.724C194.818 150.489 193.302 150.29 191.923 150.454C191.152 150.546 191.525 151.253 192.128 151.576C192.792 151.931 193.54 152.136 194.282 152.239C194.523 152.273 194.639 152.374 194.668 152.498C194.819 152.488 194.967 152.514 195.062 152.614C195.254 152.816 194.888 153.047 194.738 153.108C194.182 153.335 193.527 153.644 193.252 154.219C193.104 154.528 193.171 154.888 193.434 155.105C193.744 155.361 194.05 155.324 194.339 155.229C194.776 155.083 195.22 154.663 195.569 154.234C195.516 153.829 196.018 153.56 196.394 153.588C196.473 153.575 196.551 153.569 196.622 153.571C196.812 153.576 197.123 153.695 196.954 153.935C196.912 153.996 196.866 154.053 196.822 154.112C197.604 158.478 204.485 158.935 207.757 157.622C209.635 156.869 211.5 155.972 213.187 154.849C213.839 154.415 215.211 153.619 215.919 152.718ZM210.479 149.854C210.479 150.414 210.479 150.974 210.479 151.534C210.479 151.716 211.695 151.545 211.695 151.208C211.695 150.648 211.695 150.088 211.695 149.528C211.695 149.347 210.479 149.517 210.479 149.854ZM37.6685 123.541C37.9352 123.642 38.2527 123.535 38.4992 123.421C38.5551 123.431 38.5954 123.456 38.6412 123.497C38.8335 123.668 39.2342 123.555 39.4375 123.475C39.5446 123.432 39.9725 123.219 39.7785 123.046C39.2464 122.573 38.3472 122.872 37.7933 123.132C37.6454 123.201 37.4073 123.442 37.6685 123.541ZM36.1596 130.142C35.4204 130.387 34.5679 130.554 33.9279 130.266C33.0195 129.857 33.9048 128.992 34.4512 128.545C33.418 128.514 31.9183 128.129 32.5689 126.857C33.0556 125.905 34.203 125.521 35.305 125.444C35.1424 125.18 34.9984 124.894 34.8695 124.589C34.8548 124.553 34.8371 124.52 34.8224 124.484C34.8128 124.445 34.8094 124.408 34.8002 124.37C33.9388 120.577 37.5195 118.242 40.6671 118.37C42.2693 115.967 47.7218 109.449 48.7112 113.759C52.4649 113.353 58.3521 114.732 57.4642 119.507C57.45 119.583 57.4088 119.65 57.3525 119.71C58.0753 120.292 58.7338 120.956 59.3104 121.702C59.9303 120.064 61.0567 118.707 62.7378 117.949C64.1124 117.329 66.4713 116.653 67.9589 117.274C69.2541 117.815 68.1655 119.785 67.6825 120.54C66.4944 122.397 64.8435 123.881 62.931 124.953C65.0754 125.734 70.1939 129.737 67.4142 131.005C65.0594 132.079 62.0856 130.898 59.7018 130.043C57.3559 132.215 54.3598 133.801 51.2546 134.553C49.3445 135.016 46.9209 135.501 45.0861 134.515C44.5842 134.69 44.0559 134.81 43.5141 134.863C40.6319 135.146 36.8479 132.981 36.1596 130.142ZM41.7696 118.526C41.8804 118.553 41.99 118.582 42.0984 118.616C42.1106 118.608 42.1198 118.601 42.1337 118.592C46.4585 115.972 52.1575 116.258 56.3068 118.953C56.4668 115.091 51.2075 114.173 48.1086 114.661C47.9351 114.689 47.5958 114.624 47.5609 114.405C47.154 111.86 44.9097 114.517 44.0517 115.511C43.234 116.456 42.4167 117.447 41.7696 118.526ZM36.0382 124.158C36.8156 126.092 38.5942 127.473 40.7452 126.752C42.402 126.197 44.0277 124.545 43.7237 122.65C43.4091 120.69 42.1664 119.663 40.7612 119.387C40.6352 119.392 40.5176 119.375 40.4277 119.336C37.9852 119.065 35.2424 120.963 36.0382 124.158ZM36.0916 129.796C35.958 128.902 36.1327 127.951 36.7408 126.994C36.7425 126.992 36.7455 126.989 36.7471 126.987C36.3385 126.707 35.9702 126.357 35.6489 125.94C34.8699 125.825 33.6011 125.968 33.6654 127.065C33.72 127.994 34.7325 128.167 35.4889 128.089C35.5679 128.081 35.9878 128.081 35.7661 128.25C35.4818 128.467 34.4617 129.16 34.7892 129.649C35.0605 130.054 35.667 129.944 36.0916 129.796ZM43.1697 134.07C46.9654 133.698 49.6024 130.085 46.4195 127.101C46.0083 126.716 47.1586 126.223 47.5374 126.58C50.3017 129.17 48.9926 132.354 46.3539 133.924C48.0767 134.554 50.4764 133.887 52.0479 133.365C54.6773 132.489 57.0892 131.168 59.0979 129.244C59.3969 128.957 59.8921 129.054 60.0538 129.309C61.9491 129.96 64.5697 131.237 66.5839 130.813C67.9799 130.52 65.5986 127.884 65.2681 127.585C64.3249 126.732 62.9721 125.487 61.64 125.371C61.4645 125.356 61.425 125.305 61.4619 125.24C61.375 125.176 61.401 125.078 61.6585 124.948C63.3258 124.103 64.8498 122.925 65.9657 121.411C66.5007 120.686 67.6359 119.226 67.3046 118.209C66.9186 117.023 63.731 118.056 63.0246 118.473C61.3477 119.461 60.4842 121.047 60.1243 122.916C60.121 122.931 60.1164 122.946 60.1138 122.962C60.1117 122.974 60.105 122.985 60.1004 122.997C59.9752 123.318 59.0232 123.499 58.9123 123.225C58.9085 123.22 58.9035 123.216 58.9001 123.211C55.7638 117.915 48.2304 115.583 42.8585 118.837C42.8291 118.855 42.7918 118.871 42.7514 118.885C43.9303 119.478 44.8026 120.592 44.9412 122.324C45.1394 124.797 43.3108 126.93 40.9662 127.575C39.7747 127.901 38.6588 127.856 37.6904 127.487C36.2197 130.566 39.9721 134.384 43.1697 134.07ZM96.6546 190.211C95.797 191.414 94.3645 192.415 92.8778 192.603C92.5867 192.64 91.6258 192.76 91.6258 192.252C91.6258 191.722 92.4334 191.359 92.8173 191.181C93.5737 190.833 92.9004 190.162 92.2747 190.451C91.5418 190.788 90.7179 191.291 90.447 192.101C90.2089 192.816 90.7813 193.319 91.4322 193.459C93.7253 193.954 96.3803 192.399 97.6763 190.581C98.1274 189.947 96.9838 189.75 96.6546 190.211ZM174.943 179.138C174.023 179.727 172.893 179.758 171.841 179.645C171.563 179.615 170.596 179.616 170.904 179.144C171.226 178.652 171.902 178.452 172.426 178.271C173.24 177.989 172.481 177.708 171.976 177.883C170.975 178.229 169.942 178.683 169.497 179.708C169.461 179.793 169.54 179.858 169.609 179.882C171.656 180.568 174.06 180.433 175.898 179.256C176.439 178.908 175.207 178.969 174.943 179.138ZM206.795 152.465C205.822 153.137 204.756 153.704 203.673 154.176C203.401 154.294 202.822 154.61 202.52 154.542C202.405 154.516 203.189 153.247 203.226 153.195C203.674 152.564 202.529 152.393 202.209 152.842C201.836 153.369 201.029 154.321 201.388 155.026C201.67 155.581 202.538 155.422 203.013 155.311C204.625 154.931 206.249 153.946 207.6 153.012C208.28 152.542 207.281 152.129 206.795 152.465Z" fill="#242A47"/>
</svg>
