<svg width="250" height="250" viewBox="0 0 250 250" fill="none" xmlns="http://www.w3.org/2000/svg">
<path d="M224.999 199C140.999 291.5 44.999 232 22.499 192.5H40.499C38.3324 190.166 35.699 183.8 42.499 177C49.299 170.2 55.999 171.833 58.499 173.5C59.699 166.7 67.6657 162.333 71.499 161C91.099 155.4 99.3324 166 100.999 172C102.999 175.6 108.499 177.833 110.999 178.5C117.799 178.9 123.832 186 125.999 189.5C131.199 183.5 148.499 189.666 156.499 193.5C167.299 187.9 179.332 191.167 183.999 193.5C188.399 198.7 213.166 199.333 224.999 199Z" fill="#D8F4FF"/>
<path d="M212.748 143.971L212.734 143.998C212.734 143.989 212.735 143.978 212.735 143.969C212.742 143.97 212.748 143.971 212.748 143.971ZM211.071 144.076C202.177 143.189 193.439 141.277 184.764 139.177C180.888 138.24 176.96 137.448 173.222 136.046C169.861 134.785 166.379 133.264 162.786 132.843C155.231 131.958 152.066 139.959 147.183 144.207C172.364 150.168 197.86 155.118 205.445 156.563C206.68 154.28 207.888 151.981 209.039 149.655C209.656 148.406 210.277 147.155 210.823 145.873C211.011 145.431 211.217 144.985 211.356 144.525C211.529 143.953 211.594 144.129 211.071 144.076ZM157.123 132.942C157.574 132.693 158.038 132.491 158.512 132.335C157.98 132.468 157.532 132.671 157.123 132.942ZM66.0351 160.971C66.0351 160.971 66.0376 160.971 66.7738 160.866C65.9284 159.803 65.1603 158.685 64.4673 157.518C65.3934 159.628 66.0351 160.971 66.0351 160.971ZM202.941 165.088C202.99 165.198 203.019 165.33 203.021 165.482C203.085 165.345 203.14 165.226 203.186 165.126C203.143 165.118 203.104 165.112 203.059 165.104C203.021 165.099 202.981 165.093 202.941 165.088ZM122.781 172.521C101.39 164.735 80.5702 155.394 60.7409 144.201C62.1428 150.113 64.2859 155.975 68.1085 160.675C69.1974 160.519 70.8626 160.281 73.3997 159.919C79.5577 158.164 86.9454 158.176 92.741 160.729C96.3565 162.322 99.0935 164.785 100.532 168.502C101.373 170.674 102.192 172.935 103.974 174.537C105.885 176.255 108.292 176.913 110.701 177.631C115.112 178.944 119.229 181.3 122.515 184.552C123.783 185.805 124.839 187.407 125.998 188.856C128.566 187.466 131.188 186.668 133.846 186.405C134.337 186.311 134.832 186.23 135.327 186.169C136.999 185.96 138.601 186.238 139.997 186.7C141.663 187.015 143.339 187.509 145.019 188.172C148.587 189.58 152.071 191.38 155.662 192.752C161.214 191.119 166.871 189.522 172.724 189.952C176.153 190.204 179.178 191.401 182.206 192.67C183.941 193.269 185.091 193.728 185.091 193.728C185.091 193.728 184.901 193.553 185.036 193.061C185.05 192.239 187.693 189.571 188.036 189.138C188.925 188.016 189.812 186.889 190.688 185.755C167.389 186.195 144.541 180.443 122.781 172.521ZM164.726 164.075C164.718 164.073 164.711 164.069 164.703 164.067C164.508 164.021 164.307 163.997 164.105 163.997C163.211 163.997 162.302 164.447 161.481 165.212C161.57 165.148 161.66 165.084 161.751 165.026C161.932 164.9 162.117 164.78 162.311 164.673C163.089 164.243 163.938 164.029 164.726 164.075ZM148.881 164.609C148.924 163.491 148.796 162.428 148.492 161.497C148.477 161.449 148.457 161.407 148.441 161.361C148.476 161.521 148.51 161.68 148.542 161.842C148.641 162.221 148.705 162.619 148.738 163.029C148.809 163.551 148.857 164.08 148.881 164.609ZM177.886 170.938C177.716 171.353 177.57 171.791 177.451 172.248C177.498 172.253 177.545 172.259 177.591 172.264C177.667 171.819 177.762 171.374 177.886 170.938ZM142.65 173.031C142.844 173.077 143.045 173.101 143.247 173.101C144.222 173.101 145.216 172.571 146.093 171.673C145.717 171.919 145.3 172.132 144.831 172.306C143.662 172.738 141.708 172.865 140.969 171.579C140.965 171.575 140.96 171.571 140.956 171.567C140.66 171.232 140.438 170.878 140.272 170.514C140.747 171.834 141.566 172.772 142.65 173.031ZM97.1645 165.097C95.8026 163.608 94.1496 162.446 92.321 161.571C97.1906 164.557 99.9338 169.32 100.681 172.309C101.244 174.562 102.942 175.807 105.096 176.664C104.265 176.236 103.5 175.71 102.846 175.022C100.098 172.128 99.7994 167.976 97.1645 165.097ZM57.314 130.565C57.3723 132.997 57.5298 135.45 57.8461 137.664C58.1447 139.755 58.7641 142.165 59.5322 144.625C59.195 143.206 58.9019 141.784 58.6444 140.377C58.0506 137.126 57.6205 133.851 57.314 130.565ZM142.594 160.164C141.676 161.109 140.89 162.459 140.388 164.03C140.806 163.131 141.299 162.277 141.949 161.576C142.104 161.071 142.312 160.591 142.594 160.164ZM146.105 158.821C146.11 158.817 146.117 158.815 146.123 158.812C146.099 158.806 146.077 158.795 146.054 158.789C145.859 158.743 145.658 158.719 145.456 158.719C145.128 158.719 144.798 158.785 144.472 158.899C144.502 158.896 144.531 158.892 144.561 158.89C144.945 158.797 145.343 158.763 145.763 158.762C145.882 158.762 145.996 158.786 146.105 158.821ZM184.296 169.664C184.363 169.675 184.427 169.696 184.489 169.723C184.471 169.662 184.457 169.597 184.437 169.537C184.027 168.284 183.301 167.474 182.391 167.257C182.228 167.218 182.061 167.198 181.892 167.198C181.487 167.198 181.078 167.312 180.678 167.514C181.647 167.257 182.725 167.465 183.487 168.257C183.855 168.639 184.121 169.123 184.296 169.664ZM185.478 173.499C185.434 173.78 185.381 174.061 185.314 174.343C184.498 177.76 182.263 180.241 180.001 180.241C179.767 180.241 179.534 180.214 179.308 180.16C178.103 179.872 177.162 178.864 176.659 177.323C176.232 176.015 176.164 174.447 176.457 172.852C173.685 172.54 170.926 172.149 168.174 171.696C168.132 171.927 168.085 172.158 168.03 172.389C167.085 176.347 164.505 179.219 161.897 179.219C161.629 179.219 161.362 179.188 161.104 179.126C160.356 178.947 159.712 178.512 159.185 177.895C157.857 176.626 157.421 174.62 157.635 172.531C157.658 171.71 157.765 170.854 157.973 169.986C158 169.871 158.034 169.76 158.064 169.646C157.976 169.663 157.898 169.668 157.843 169.656C154.969 169.018 152.106 168.334 149.251 167.617C149.248 167.617 149.248 167.616 149.245 167.615C148.208 171.308 145.743 173.941 143.248 173.941C142.98 173.941 142.714 173.909 142.455 173.848C139.682 173.185 138.278 169.085 139.324 164.707C139.348 164.607 139.377 164.51 139.403 164.41C139.233 164.628 138.75 164.833 138.492 164.756C110.516 156.555 83.7419 144.566 58.4907 130.046C58.778 133.2 59.1841 136.34 59.7532 139.452C59.964 140.606 60.1971 141.769 60.4532 142.934C60.5805 142.923 60.7027 142.939 60.8001 142.994C80.8046 154.358 101.852 163.851 123.479 171.682C145.192 179.544 167.927 185.34 191.176 184.832C191.255 184.831 191.322 184.84 191.383 184.854C192.42 183.492 193.434 182.112 194.397 180.699C196.096 178.206 197.702 175.607 199.065 172.899C198.945 172.987 198.781 173.058 198.608 173.075C194.239 173.514 189.864 173.636 185.478 173.499ZM201.674 165.211C201.764 165.101 201.853 165.014 201.942 164.943C197.757 164.344 193.581 163.679 189.414 162.965C174.672 160.44 160.003 157.399 145.526 153.633C134.996 150.894 124.536 147.808 114.324 144.041C105.125 140.649 96.2158 136.583 87.3906 132.322C78.467 128.014 69.612 123.554 60.8644 118.899C59.8703 118.37 58.8784 117.837 57.8876 117.302C57.9317 121.14 58.0729 124.987 58.3841 128.818C83.8775 143.574 110.932 155.76 139.225 164.055C139.362 164.095 139.432 164.151 139.456 164.214C140.491 160.516 142.958 157.879 145.455 157.879C145.723 157.879 145.99 157.91 146.249 157.972C147.63 158.302 148.71 159.461 149.29 161.235C149.846 162.939 149.878 165.025 149.38 167.111C149.359 167.199 149.333 167.283 149.31 167.37C149.56 167.207 150.038 167.04 150.235 167.089C152.9 167.758 155.573 168.395 158.254 168.996C159.364 165.561 161.72 163.157 164.104 163.157C164.372 163.157 164.64 163.188 164.898 163.25C166.279 163.58 167.359 164.739 167.939 166.514C168.368 167.826 168.482 169.367 168.285 170.958C171.05 171.425 173.824 171.824 176.608 172.149C177.445 168.788 179.654 166.358 181.892 166.358C182.126 166.358 182.36 166.386 182.586 166.44C183.791 166.727 184.731 167.735 185.235 169.276C185.583 170.342 185.69 171.581 185.561 172.867C189.981 173.022 194.391 172.922 198.794 172.48C199.052 172.453 199.187 172.494 199.235 172.564C199.695 171.632 200.126 170.689 200.52 169.731C200.931 168.734 201.334 167.723 201.61 166.679C201.696 166.351 201.791 166.016 201.829 165.677C201.841 165.566 201.848 165.496 201.854 165.452C201.662 165.435 201.551 165.362 201.674 165.211ZM144.776 189.318L147.337 190.126C146.218 189.629 145.084 189.134 143.932 188.684C144.47 189.056 144.776 189.318 144.776 189.318ZM139.834 168.308C139.852 168.578 139.878 168.842 139.918 169.096C139.9 168.845 139.9 168.593 139.921 168.338C139.891 168.33 139.863 168.318 139.834 168.308ZM156.744 193.097C156.744 193.097 158.081 192.541 160.048 191.896C158.783 192.224 157.524 192.581 156.269 192.948L156.744 193.097ZM177.457 177.062C177.533 177.295 177.624 177.507 177.721 177.708C177.272 176.478 177.271 175.049 177.394 173.782C177.428 173.435 177.471 173.077 177.522 172.718C177.457 172.753 177.39 172.784 177.322 172.812C177.013 174.337 177.056 175.834 177.457 177.062ZM201.889 165.454C201.937 165.63 202.092 166.066 202.798 165.2C202.665 165.363 202.193 165.471 201.889 165.454Z" fill="#BAAEA9"/>
<path d="M143.266 170.455C143.422 170.492 143.583 170.511 143.745 170.511C145.264 170.511 146.759 168.872 147.298 166.614C147.58 165.435 147.56 164.252 147.244 163.284C146.904 162.244 146.263 161.563 145.438 161.366C145.281 161.329 145.12 161.309 144.957 161.309C143.438 161.309 141.944 162.948 141.405 165.206C140.796 167.754 141.613 170.06 143.266 170.455ZM142.222 165.401C142.658 163.578 143.859 162.149 144.958 162.149C145.054 162.149 145.15 162.161 145.242 162.183C145.773 162.31 146.2 162.793 146.446 163.544C146.715 164.368 146.727 165.388 146.481 166.419C146.007 168.402 144.608 169.914 143.461 169.638C142.307 169.362 141.739 167.422 142.222 165.401ZM164.088 166.644C163.931 166.607 163.769 166.587 163.607 166.587C162.088 166.587 160.594 168.226 160.055 170.484C159.446 173.032 160.263 175.338 161.915 175.733C162.072 175.77 162.232 175.789 162.394 175.789C163.913 175.789 165.408 174.15 165.947 171.892C166.229 170.713 166.21 169.53 165.894 168.562C165.554 167.522 164.913 166.841 164.088 166.644ZM165.131 171.697C164.657 173.68 163.254 175.193 162.111 174.916C160.956 174.64 160.389 172.7 160.872 170.679C161.308 168.856 162.509 167.427 163.607 167.427C163.704 167.427 163.8 167.439 163.893 167.461C164.423 167.587 164.85 168.071 165.096 168.823C165.365 169.646 165.377 170.667 165.131 171.697ZM180.003 177.252C180.141 177.285 180.284 177.301 180.427 177.301C181.756 177.301 183.061 175.878 183.53 173.917C183.774 172.895 183.758 171.87 183.483 171.03C183.185 170.119 182.62 169.521 181.892 169.347C181.753 169.314 181.61 169.297 181.467 169.297C180.137 169.297 178.833 170.721 178.364 172.683C177.835 174.898 178.555 176.905 180.003 177.252ZM179.181 172.878C179.549 171.341 180.552 170.137 181.467 170.137C181.545 170.137 181.622 170.146 181.697 170.164C182.13 170.268 182.481 170.668 182.684 171.292C182.912 171.986 182.922 172.85 182.713 173.722C182.315 175.389 181.149 176.659 180.198 176.435C179.241 176.206 178.775 174.577 179.181 172.878ZM226.913 198.748C213.874 198.755 200.92 198.892 188.334 195.03C186.211 194.379 184.208 193.508 182.207 192.669C179.178 191.4 176.154 190.203 172.724 189.951C166.871 189.521 161.214 191.118 155.662 192.751C152.071 191.378 148.588 189.578 145.02 188.171C143.34 187.508 141.664 187.014 139.997 186.699C137.931 186.31 135.878 186.204 133.847 186.405C131.188 186.668 128.566 187.465 125.999 188.856C124.84 187.406 123.783 185.805 122.516 184.551C119.229 181.299 115.113 178.944 110.702 177.631C108.293 176.913 105.886 176.254 103.974 174.537C102.192 172.935 101.374 170.673 100.533 168.502C99.0944 164.784 96.3575 162.321 92.7415 160.728C86.9464 158.176 79.5582 158.164 73.4002 159.919C72.8589 160.073 72.3238 160.235 71.8039 160.417C70.8947 160.733 69.8964 161.113 68.8662 161.555C68.6088 161.265 68.3526 160.974 68.109 160.675C64.286 155.975 62.1429 150.113 60.7415 144.201C80.5708 155.393 101.391 164.734 122.781 172.521C144.541 180.442 167.389 186.195 190.688 185.754C189.812 186.888 188.925 188.015 188.037 189.137C187.694 189.57 185.05 192.238 185.036 193.06C185.036 193.103 185.036 193.145 185.051 193.177C185.152 193.405 185.549 193.332 185.731 193.282C185.744 193.279 185.757 193.275 185.77 193.272C186.142 193.171 186.281 192.98 186.233 192.845C186.245 192.847 186.256 192.849 186.268 192.851C186.155 192.597 187.821 190.815 187.99 190.601C189.189 189.086 190.393 187.573 191.576 186.045C194.38 182.424 197.033 178.688 199.232 174.663C200.74 171.901 202.311 168.949 202.983 165.844C203.011 165.714 203.023 165.593 203.022 165.481C203.019 165.33 202.99 165.198 202.942 165.087C202.981 165.093 203.021 165.098 203.06 165.104C203.105 165.111 203.144 165.118 203.187 165.125C204.211 165.298 204.769 165.389 204.769 165.389L204.897 165.026C205.287 164.842 205.613 164.48 205.915 163.819C206.42 162.711 206.739 161.512 207.081 160.346C207.257 159.748 207.429 159.149 207.612 158.553C207.722 158.195 208.171 157.54 207.758 157.724C208.353 157.459 208.072 157.149 207.66 157.132L207.71 156.989C207.71 156.989 207.302 156.913 206.543 156.77C207.962 154.151 209.337 151.507 210.647 148.831C211.184 147.735 212.719 145.488 212.735 143.998C212.735 143.988 212.735 143.978 212.735 143.968C212.735 143.832 212.727 143.7 212.698 143.578C212.659 143.411 212.457 143.346 212.309 143.332C209.372 143.062 206.454 142.674 203.549 142.201C203.549 142.191 203.549 142.18 203.549 142.17C203.549 142.151 203.53 142.137 203.495 142.127C203.184 141.432 203.338 139.896 203.264 139.216C202.956 136.38 202.519 133.558 202.015 130.751C200.201 120.639 197.295 110.728 193.601 101.148C189.867 91.4623 185.017 82.711 178.754 74.4363C176.199 71.0614 173.47 67.8062 170.52 64.7686C168.665 62.8573 166.484 60.5059 163.928 59.511C164.283 59.1301 164.645 58.7567 165.015 58.3905C165.032 58.4081 165.051 58.4245 165.068 58.4421C165.286 58.6647 166.4 58.2179 166.215 58.0297C162.225 53.9464 155.872 52.3123 150.432 51.3854C145.12 50.4803 139.257 50.2779 134.115 52.1195C133.297 52.4122 134.074 52.5542 134.534 52.3895C139.895 50.4698 146.179 51.141 151.637 52.269C156.06 53.1828 160.979 54.7141 164.418 57.8197C164.052 58.1725 163.693 58.532 163.341 58.8986C163.252 58.7382 163.165 58.5761 163.074 58.4169C162.87 58.0591 161.713 58.4892 161.857 58.7424C162.065 59.1074 162.268 59.4744 162.468 59.844C157.342 65.5262 153.78 72.6548 151.708 79.9749C148.655 78.0522 144.919 77.038 141.27 76.3812C141.271 76.3774 141.273 76.3736 141.274 76.3703C141.404 76.0297 140.76 76.0238 140.35 76.2233C139.247 76.0406 138.157 75.8848 137.104 75.7428C131.976 75.052 126.5 74.7899 121.376 75.8503C123.656 67.5043 127.667 59.2699 133.755 53.0527C134.253 52.5445 133.057 52.5777 132.782 52.8599C126.558 59.2149 122.438 67.6004 120.124 76.1376C120.032 76.1607 119.94 76.1809 119.848 76.2048C119.139 76.3925 119.239 76.7621 119.947 76.5748C119.967 76.5693 119.987 76.566 120.007 76.5605C120.002 76.5773 119.998 76.5937 119.993 76.6105C119.878 77.0481 121.102 76.8641 121.209 76.4555C121.226 76.3934 121.244 76.3312 121.261 76.269C126.455 75.1843 132.064 75.6261 137.245 76.3698C138.122 76.4958 139.024 76.6348 139.937 76.7948C138.781 79.8069 137.548 82.7882 136.506 85.8431C136.345 86.3168 137.576 86.1619 137.729 85.7133C138.732 82.771 139.913 79.8959 141.031 76.9969C142.009 77.1867 142.992 77.4067 143.964 77.6659C143.699 77.7226 143.439 77.8465 143.384 78.0107C142.395 80.95 141.296 83.8516 140.404 86.8229C140.4 86.8372 140.401 86.8494 140.4 86.8624C133.663 86.0586 126.751 85.7264 120.069 86.6499C119.7 86.7007 119.271 86.9938 119.449 87.0845C119.18 87.0698 118.831 87.1307 118.689 87.2471C109.857 94.4827 103.366 104.69 99.8332 115.5C99.6975 115.915 100.917 115.749 101.049 115.345C104.537 104.674 110.945 94.5827 119.663 87.4398C119.883 87.2601 119.81 87.1555 119.629 87.1097C119.687 87.1093 119.755 87.1047 119.841 87.0929C127.914 85.9775 136.369 86.8288 144.385 88.0039C151.127 88.9925 158.815 90.1675 164.843 93.6117C156.244 100.449 151.473 111.147 147.954 121.308C141.765 117.906 134.006 116.784 127.167 115.782C119.066 114.594 110.575 113.853 102.424 114.979C101.935 115.047 101.338 115.541 102.196 115.422C110.27 114.307 118.725 115.159 126.74 116.334C127.584 116.458 128.444 116.585 129.313 116.718C129.141 116.802 129.007 116.933 128.982 117.101C127.94 124.126 127.606 131.158 127.723 138.252C123.58 136.71 119.471 135.07 115.379 133.39C109.938 131.157 104.538 128.821 99.1759 126.398C99.2855 126.319 99.3443 126.229 99.3006 126.147C97.3297 122.484 97.3482 118.115 95.0598 114.603C95.0535 114.593 95.0434 114.586 95.035 114.577C95.6427 114.415 96.2185 114.193 96.7317 113.867C98.9663 112.448 98.2062 109.715 97.4687 107.625C95.5721 102.251 92.6496 93.6802 86.2866 92.3556C86.1698 92.3308 86.051 92.3451 85.9422 92.3825C85.967 92.1288 85.9687 91.868 85.9355 91.5984C85.7914 90.4279 84.6747 89.7413 83.6462 89.4486C83.537 89.4175 83.4132 89.4259 83.2909 89.4586C83.4136 89.2549 83.5509 89.0508 83.7181 88.8455C83.7823 88.7665 83.8499 88.6867 83.9184 88.6065C84.0964 88.6191 84.285 88.591 84.4232 88.5061C85.9544 87.5654 87.785 86.2622 87.7598 84.2619C87.7414 82.774 86.4953 81.5237 85.4739 80.5515C87.2353 79.4818 89.7152 77.7814 88.2168 75.634C87.4667 74.5589 86.0161 73.8269 84.9309 73.1613C83.2431 72.126 81.6144 70.93 79.877 69.9896C75.7928 67.7798 67.0675 71.5276 71.2558 76.563C70.864 76.6252 70.4743 76.6991 70.0879 76.7995C69.9573 76.8331 69.8636 76.8759 69.7872 76.9196C69.0854 76.9154 68.1682 77.088 68.0301 77.8255C67.6676 79.7603 69.3593 79.0413 70.1652 80.1748C70.2542 80.3003 70.4575 80.3285 70.67 80.2961C69.9174 82.8416 68.2493 85.4748 69.2438 87.9862C69.7057 89.1533 70.8363 89.7081 71.9732 89.9849C72.8131 90.1894 73.485 90.3427 73.9995 90.6283C69.1757 90.7883 65.5216 94.6159 62.704 98.2801C62.2563 96.8203 61.2719 95.4655 60.0267 95.0363C60.3127 94.9514 60.5651 94.7788 60.5222 94.5785C60.1237 92.7197 58.6307 90.8828 56.5329 91.5669C54.2059 92.3262 54.979 94.8128 56.0349 96.3399C56.1272 96.4734 56.3834 96.4822 56.6329 96.4196C55.4889 98.3641 56.5964 101.51 58.642 102.43C57.8453 102.93 57.1322 103.536 56.5363 104.259C55.6602 103.641 54.8001 103.006 53.961 102.347C53.9547 102.342 53.9468 102.34 53.94 102.335C53.951 102.317 53.9606 102.298 53.9715 102.279C54.3096 101.707 53.0711 101.724 52.8133 102.161C49.2675 108.171 50.5828 115.585 51.7285 122.088C51.7923 122.45 52.3652 122.429 52.7032 122.206C52.7234 122.213 52.7473 122.219 52.7717 122.225C52.77 122.255 52.7692 122.284 52.7679 122.313C52.319 122.429 51.7579 122.847 52.3181 122.967C52.4701 123 52.61 123.002 52.7402 122.982C52.4874 129.055 53.1555 135.262 54.1034 141.133C55.4011 149.174 57.5909 158.381 63.0908 164.72C60.2476 166.749 58.002 169.371 57.7366 172.647C46.6317 167.104 31.2293 183.534 39.0815 192.18C33.8974 192.18 28.7137 192.18 23.53 192.18C22.8144 192.18 22.6132 193.126 23.4363 193.126C28.982 193.126 34.5278 193.126 40.073 193.126C40.4456 193.435 40.8525 193.731 41.2989 194.012C41.6542 194.236 42.7735 193.726 42.2623 193.405C41.7374 193.074 41.275 192.717 40.8622 192.34C40.8433 192.323 40.8231 192.306 40.8046 192.289C36.3693 188.17 38.3344 181.56 42.1868 177.264C44.442 174.749 47.5061 172.777 50.8671 172.213C54.7313 171.563 58.1637 173.443 60.5701 176.358C60.8515 176.7 62.0203 176.263 61.6977 175.872C60.7587 174.735 59.744 173.85 58.6807 173.18C58.8222 173.102 58.9247 172.997 58.9285 172.877C59.0343 169.768 60.9632 167.245 63.5729 165.268C63.6296 165.33 63.6813 165.396 63.7388 165.456C64.0655 165.803 65.2246 165.34 64.8626 164.956C64.7488 164.836 64.6455 164.706 64.5346 164.583C67.6588 162.491 71.4851 161.095 74.359 160.345C79.8871 158.903 86.8825 158.968 92.322 161.572C94.1505 162.447 95.804 163.609 97.1655 165.098C99.8004 167.977 100.099 172.129 102.847 175.023C103.5 175.711 104.266 176.238 105.097 176.666C107.659 177.986 110.853 178.357 113.372 179.533C117.54 181.48 121.413 184.456 124.186 188.145C124.505 188.569 124.806 188.975 125.102 189.363C124.713 189.623 125.036 189.757 125.403 189.755C126.912 191.686 128.359 193.06 131.277 193.366C131.763 193.416 132.564 192.732 131.742 192.646C129.42 192.403 127.817 191.027 126.408 189.356C129.97 187.351 133.745 186.455 137.853 187.004C139.941 187.283 141.963 187.917 143.932 188.685C145.085 189.135 146.219 189.63 147.337 190.128C147.35 190.134 147.364 190.139 147.376 190.145C153.384 192.817 159.341 195.83 166.103 195.442C166.521 195.418 167.403 194.746 166.587 194.793C162.933 195.002 159.527 194.181 156.22 192.963C156.237 192.958 156.254 192.954 156.27 192.949C157.524 192.582 158.784 192.225 160.049 191.897C165.025 190.61 170.083 189.804 175.238 190.904C177.904 191.473 180.401 192.685 182.883 193.771C185.416 194.88 188.018 195.759 190.68 196.503C202.122 199.703 214.358 199.231 226.118 199.225C226.36 199.224 227.5 198.748 226.913 198.748ZM52.8725 120.745C52.8523 120.835 52.8343 120.927 52.8137 121.016C52.765 120.739 52.7163 120.459 52.6675 120.179L53.0497 118.956C52.9808 119.55 52.9212 120.146 52.8725 120.745ZM194.396 180.699C193.433 182.112 192.419 183.492 191.382 184.854C191.322 184.84 191.255 184.831 191.175 184.833C167.927 185.341 145.191 179.544 123.478 171.682C101.852 163.851 80.8039 154.358 60.7994 142.994C60.702 142.939 60.5798 142.923 60.4525 142.934C60.1963 141.77 59.9633 140.606 59.7524 139.453C59.1838 136.34 58.7773 133.2 58.49 130.046C83.7411 144.566 110.516 156.556 138.491 164.757C138.75 164.833 139.232 164.627 139.403 164.411C139.377 164.51 139.347 164.607 139.323 164.708C138.277 169.085 139.682 173.185 142.455 173.848C142.713 173.909 142.98 173.941 143.247 173.941C145.742 173.941 148.207 171.309 149.244 167.616C149.247 167.616 149.248 167.617 149.25 167.618C152.106 168.335 154.968 169.019 157.842 169.656C157.897 169.668 157.976 169.663 158.064 169.647C158.033 169.76 158 169.871 157.972 169.986C157.765 170.854 157.657 171.71 157.634 172.531C157.572 174.735 158.144 176.679 159.184 177.895C159.711 178.512 160.356 178.947 161.103 179.126C161.362 179.188 161.628 179.219 161.896 179.219C164.504 179.219 167.083 176.347 168.029 172.39C168.085 172.158 168.131 171.927 168.173 171.696C170.924 172.15 173.684 172.54 176.456 172.852C176.164 174.448 176.231 176.015 176.658 177.323C177.161 178.864 178.102 179.872 179.307 180.16C179.533 180.214 179.766 180.241 180 180.241C182.262 180.241 184.497 177.761 185.314 174.343C185.381 174.061 185.433 173.78 185.478 173.5C189.863 173.637 194.238 173.514 198.606 173.076C198.779 173.058 198.943 172.987 199.063 172.899C197.701 175.608 196.095 178.206 194.396 180.699ZM140.14 164.903C140.212 164.604 140.297 164.315 140.388 164.03C140.89 162.459 141.676 161.109 142.594 160.164C143.18 159.56 143.82 159.124 144.471 158.898C144.798 158.785 145.128 158.718 145.455 158.718C145.657 158.718 145.859 158.742 146.053 158.789C146.077 158.794 146.099 158.805 146.122 158.811C147.142 159.086 147.958 159.986 148.441 161.361C148.457 161.407 148.476 161.449 148.492 161.496C148.796 162.427 148.924 163.491 148.881 164.608C148.853 165.36 148.75 166.136 148.563 166.915C148.096 168.87 147.185 170.556 146.093 171.672C145.216 172.57 144.222 173.1 143.247 173.1C143.045 173.1 142.844 173.076 142.65 173.03C141.566 172.771 140.747 171.833 140.273 170.513C140.116 170.077 139.994 169.605 139.917 169.096C139.879 168.841 139.852 168.577 139.834 168.307C139.764 167.25 139.857 166.09 140.14 164.903ZM167.345 171.561C167.306 171.772 167.264 171.983 167.213 172.194C166.371 175.721 164.085 178.379 161.898 178.379C161.696 178.379 161.494 178.355 161.3 178.309C158.978 177.754 157.852 174.108 158.79 170.182C159.288 168.096 160.293 166.32 161.482 165.212C162.303 164.447 163.212 163.997 164.105 163.997C164.307 163.997 164.509 164.021 164.704 164.067C164.712 164.069 164.719 164.073 164.727 164.075C165.803 164.342 166.66 165.299 167.142 166.775C167.558 168.046 167.645 169.562 167.414 171.128C167.133 171.289 166.969 171.496 167.345 171.561ZM177.659 172.272C177.636 172.27 177.614 172.267 177.592 172.264C177.545 172.259 177.499 172.253 177.452 172.247C177.571 171.791 177.716 171.352 177.887 170.938C178.554 169.318 179.58 168.067 180.679 167.514C181.079 167.313 181.488 167.198 181.893 167.198C182.061 167.198 182.229 167.218 182.392 167.257C183.302 167.474 184.028 168.284 184.438 169.537C184.458 169.598 184.472 169.662 184.49 169.723C184.787 170.738 184.851 171.919 184.682 173.144C184.548 173.258 184.497 173.376 184.639 173.438C184.6 173.674 184.554 173.91 184.498 174.147C183.782 177.142 181.849 179.401 180.001 179.401C179.833 179.401 179.665 179.381 179.504 179.342C178.763 179.166 178.147 178.59 177.721 177.708C177.624 177.507 177.534 177.295 177.458 177.062C177.056 175.834 177.014 174.337 177.323 172.812C177.391 172.785 177.458 172.753 177.523 172.718C177.841 172.548 178.063 172.317 177.659 172.272ZM201.889 165.454C202.193 165.471 202.665 165.363 202.798 165.2C202.092 166.066 201.937 165.63 201.889 165.454ZM211.071 144.076C211.594 144.128 211.529 143.953 211.356 144.524C211.217 144.985 211.012 145.431 210.823 145.872C210.277 147.154 209.656 148.405 209.039 149.654C207.889 151.981 206.68 154.28 205.445 156.562C197.861 155.118 172.365 150.167 147.184 144.206C152.066 139.959 155.231 131.957 162.786 132.842C166.38 133.264 169.862 134.785 173.222 136.045C176.96 137.447 180.888 138.239 184.764 139.177C193.439 141.277 202.177 143.189 211.071 144.076ZM201.95 138.748C201.982 139.013 202.017 139.278 202.046 139.543C202.107 140.091 202.018 141.19 202.142 141.961C197.874 141.227 193.634 140.326 189.412 139.347C185.752 138.498 182.107 137.59 178.458 136.698C176.376 136.19 174.382 135.448 172.383 134.7C172.485 134.639 172.557 134.568 172.569 134.49C172.807 132.953 173.008 131.408 173.178 129.857C173.233 129.831 173.279 129.804 173.305 129.777C177.618 125.184 185.17 125.889 190.647 127.61C195.669 129.188 201.31 132.889 201.44 138.704C201.442 138.783 201.683 138.791 201.95 138.748ZM169.037 64.8324C172.259 68.0544 175.151 71.6128 177.899 75.2418C184.203 83.5707 188.908 92.4618 192.662 102.198C196.263 111.537 198.997 121.231 200.797 131.078C200.957 131.954 201.104 132.832 201.246 133.711C198.826 129.848 193.736 127.579 189.485 126.556C184.361 125.322 177.595 125.394 173.275 128.9C174.279 118.923 173.969 108.703 173.19 98.7849C172.186 85.9893 170.203 72.2789 164.29 60.6768C166.07 61.778 167.63 63.4242 169.037 64.8324ZM135.353 117.792C139.704 118.708 144.008 120.014 147.659 122.202C147.848 122.315 148.319 122.157 148.6 122.001C148.783 121.933 148.935 121.83 148.979 121.702C152.459 111.547 157.143 100.752 165.728 93.8746C166.112 93.7801 166.558 93.5227 166.451 93.4589C166.391 93.4236 166.33 93.3921 166.27 93.3572C166.265 93.2816 166.162 93.2363 166.02 93.2161C159.764 89.6279 151.806 88.4772 144.811 87.4512C143.614 87.2756 142.408 87.1118 141.196 86.9606C141.401 86.893 141.576 86.7859 141.616 86.6532C142.508 83.6819 143.606 80.7804 144.596 77.841C147.172 78.578 149.645 79.6137 151.697 81.1634C151.964 81.3654 153.017 80.8816 152.844 80.751C152.659 80.6115 152.467 80.4813 152.276 80.3499C152.552 80.2936 152.826 80.1575 152.878 79.9744C154.829 73.0092 158.138 66.1839 162.896 60.6625C168.864 72.1857 170.846 85.781 171.927 98.5329C172.926 110.325 173.19 122.594 171.41 134.337C171.113 134.226 170.817 134.117 170.519 134.009C166.896 132.691 162.367 131.066 158.513 132.336C158.039 132.491 157.575 132.693 157.124 132.943C157.072 132.971 157.02 132.998 156.968 133.028C152.452 135.663 150.024 140.585 146.138 143.941C146.132 143.946 146.129 143.95 146.124 143.955C144.439 143.554 142.757 143.149 141.082 142.74C138.9 142.097 136.733 141.41 134.578 140.685C134.177 133.039 134.493 125.396 135.353 117.792ZM130.215 117.007C130.223 116.949 130.217 116.902 130.205 116.858C131.523 117.067 132.858 117.296 134.195 117.557C134.172 117.597 134.154 117.639 134.149 117.686C133.29 125.187 132.978 132.721 133.329 140.262C131.832 139.748 130.34 139.221 128.855 138.676C128.92 138.603 128.96 138.517 128.958 138.418C128.829 131.235 129.159 124.118 130.215 117.007ZM145.526 153.633C160.003 157.399 174.673 160.44 189.415 162.965C193.581 163.679 197.757 164.344 201.942 164.943C201.854 165.013 201.764 165.101 201.675 165.211C201.552 165.362 201.662 165.435 201.855 165.452C201.849 165.496 201.842 165.567 201.83 165.677C201.792 166.016 201.697 166.351 201.611 166.679C201.335 167.723 200.932 168.735 200.521 169.731C200.127 170.689 199.696 171.633 199.236 172.564C199.188 172.494 199.053 172.454 198.795 172.48C194.392 172.923 189.982 173.022 185.562 172.868C185.691 171.582 185.584 170.342 185.236 169.276C184.732 167.735 183.792 166.728 182.587 166.44C182.361 166.386 182.127 166.359 181.893 166.359C179.655 166.359 177.447 168.788 176.609 172.149C173.824 171.824 171.051 171.425 168.286 170.959C168.483 169.367 168.369 167.827 167.94 166.514C167.36 164.739 166.28 163.58 164.899 163.25C164.64 163.189 164.373 163.157 164.105 163.157C161.722 163.157 159.365 165.561 158.255 168.996C155.574 168.395 152.901 167.759 150.235 167.089C150.039 167.04 149.561 167.207 149.311 167.37C149.334 167.283 149.36 167.199 149.381 167.111C149.879 165.026 149.847 162.939 149.291 161.236C148.711 159.461 147.631 158.302 146.25 157.972C145.991 157.91 145.724 157.879 145.456 157.879C142.959 157.879 140.492 160.516 139.457 164.215C139.433 164.152 139.363 164.095 139.226 164.055C110.933 155.76 83.8781 143.574 58.385 128.819C58.0738 124.988 57.9331 121.14 57.8886 117.302C58.8793 117.837 59.8713 118.37 60.8654 118.899C69.6129 123.555 78.468 128.014 87.3915 132.322C96.2168 136.584 105.126 140.649 114.325 144.042C124.537 147.808 134.996 150.894 145.526 153.633ZM93.9246 115.06C96.0282 118.29 96.1353 122.284 97.7203 125.739C92.8104 123.502 87.935 121.19 83.0982 118.802C83.1196 118.757 83.1339 118.71 83.1335 118.658C83.1221 117.376 83.0175 116.093 82.8134 114.834C83.6941 115.771 85.1174 115.989 86.45 115.805C86.4831 115.837 86.5696 115.855 86.7389 115.846C87.7115 115.796 88.6615 115.504 89.6102 115.258C89.6799 115.27 89.7652 115.269 89.8677 115.252C91.12 115.044 92.579 115.02 93.9586 114.801C93.8893 114.882 93.8666 114.971 93.9246 115.06ZM90.5493 113.312C90.2603 113.136 89.9664 112.966 89.6842 112.78C89.1378 112.421 88.8954 111.469 88.633 110.904C88.5822 110.795 88.5301 110.694 88.4776 110.598C88.5779 110.581 88.6703 110.552 88.7409 110.509C90.0382 109.725 92.5122 107.812 93.862 109.196C95.4067 110.779 92.2372 112.612 91.0104 112.951C90.7173 113.032 90.5745 113.179 90.5493 113.312ZM87.9774 112.44C88.3247 113.147 88.8438 113.39 89.4922 113.79C89.761 113.956 90.0193 114.133 90.265 114.332C90.1671 114.344 90.0705 114.357 89.9781 114.373C89.6787 114.422 89.4599 114.637 89.386 114.844C88.8938 114.996 88.4016 115.157 87.9001 115.255C87.7624 115.184 87.426 115.17 87.1757 115.249C85.4798 115.792 83.7823 114.791 83.2922 113.123C83.1062 112.49 83.191 111.825 83.4627 111.233C83.8999 110.28 85.4319 109.42 86.4542 109.924C87.2643 110.323 87.6082 111.69 87.9774 112.44ZM82.9491 90.2893C85.0573 90.8899 85.0452 92.7525 83.9549 94.3555C83.5156 95.0014 84.6533 95.2152 84.9788 94.736C85.3135 94.2442 85.5932 93.7369 85.7683 93.2014C85.7982 93.2111 85.8271 93.2212 85.8624 93.2283C91.317 94.3643 93.8498 101.841 95.6267 106.349C96.3214 108.111 98.1365 111.617 96.1723 113.166C95.0934 114.016 93.24 114.111 91.6244 114.214C91.5547 114.065 91.4064 113.898 91.1624 113.717C91.1015 113.671 91.0377 113.63 90.9751 113.587C91.0365 113.582 91.0994 113.575 91.1729 113.555C92.9448 113.064 96.743 110.968 94.9926 108.719C93.4005 106.674 89.7833 109.051 88.1265 110.066C87.5486 109.362 86.8178 109.237 85.6655 109.395C84.1111 109.607 82.5766 110.495 82.1251 111.876C81.8198 110.884 81.4418 109.925 80.9857 109.01C81.058 109.015 81.1365 109.012 81.2243 108.994C82.7462 108.691 84.2489 108.005 85.6125 107.286C86.4113 106.865 88.1542 105.99 88.0895 104.867C87.998 103.271 85.4727 102.755 84.2636 102.789C82.4216 102.842 80.6926 103.992 79.2055 104.965C78.5138 105.418 79.5402 105.733 79.9908 105.439C81.0092 104.772 82.0294 104.133 83.1977 103.762C84.1313 103.465 85.0309 103.556 85.8834 104.028C86.4172 104.324 87.1421 104.907 86.6679 105.521C85.55 106.971 82.7643 107.91 81.026 108.256C80.8639 108.288 80.7547 108.35 80.677 108.422C79.9602 107.114 79.0744 105.911 78.0052 104.86C78.1446 104.822 78.2698 104.753 78.3466 104.651C78.6721 104.214 78.6902 103.417 78.791 102.906C79.0467 101.604 79.2533 100.288 79.3323 98.963C79.3466 98.7261 79.3625 98.4548 79.3466 98.1877C79.4931 98.1516 79.6238 98.0924 79.6952 98.0143C81.0991 96.4684 82.6022 94.9615 82.4497 92.7378C82.7706 92.6563 83.0801 92.4862 83.0293 92.3371C82.7677 91.5707 82.745 90.9092 82.926 90.2809C82.9344 90.2835 82.9403 90.2868 82.9491 90.2893ZM73.3351 94.9972C74.0999 95.6545 73.669 97.6716 73.5619 98.5103C73.4292 99.5434 73.2356 100.634 72.8795 101.626C72.0727 101.33 71.1941 101.084 70.2723 100.9C70.2761 100.054 70.3038 99.2154 70.4314 98.3754C70.528 97.7392 70.72 97.1323 71.0001 96.5536C71.2353 96.0669 72.6451 94.4042 73.3351 94.9972ZM73.7387 94.1455C73.6707 94.1451 73.606 94.1493 73.5396 94.1514C73.5459 94.1048 73.5317 94.059 73.4863 94.0166C73.1004 93.6554 72.8853 93.1855 72.9328 92.6517C72.9727 92.201 73.2205 91.7382 73.7169 91.8042C74.0121 91.8436 74.3485 91.7748 74.5774 91.5732C74.6299 91.5274 74.6589 91.4757 74.6748 91.4245C74.7168 91.4216 74.7592 91.4157 74.8017 91.4052C75.0121 91.7681 75.154 92.2464 75.2275 92.8982C75.0998 92.9893 75.0419 93.0876 75.1288 93.1619C75.1544 93.1838 75.1813 93.1997 75.2069 93.2207C75.0713 94.324 75.086 95.3134 75.7025 96.2878C76.2081 97.0866 77.946 97.391 78.0913 98.2587C78.282 99.3989 77.9502 100.742 77.7675 101.864C77.6705 102.462 77.5537 103.056 77.4328 103.65C77.4147 103.74 77.3269 104.009 77.2824 104.194C76.2972 103.351 75.1738 102.628 73.905 102.05C73.9155 102.033 73.9273 102.017 73.9348 101.998C74.3989 100.836 76.2363 94.156 73.7387 94.1455ZM81.2394 93.2232C81.281 94.9241 80.2084 96.1668 79.111 97.3667C79.0526 97.2781 78.9854 97.1953 78.8972 97.1273C78.1656 96.5633 77.4483 96.4944 76.8188 95.7611C76.3824 95.253 76.3173 94.56 76.3564 93.8872C77.1762 94.1951 78.0623 94.2207 79.0043 94.0426C79.6074 93.9284 80.1882 93.7163 80.7535 93.4819C80.9021 93.4202 81.0685 93.3245 81.2394 93.2232ZM86.4516 83.9616C86.8519 85.2543 85.9876 86.3063 84.9767 87.1026C85.0615 86.8989 85.122 86.6864 85.1409 86.4605C85.2472 85.1926 84.8721 84.3925 83.5375 84.616C82.7937 84.7403 82.4989 85.1338 82.2385 85.6382C81.194 84.3526 80.4566 82.0483 80.6884 80.4595C81.0416 80.4578 81.3973 80.4498 81.7585 80.4339C82.1784 80.4158 82.4833 80.0794 82.3788 79.8745C82.8542 80.1521 83.3132 80.4381 83.7487 80.7274C83.8096 80.7678 83.9024 80.7787 84.0082 80.7711C84.0267 80.8287 84.0927 80.8728 84.1859 80.9026C84.1909 80.9085 84.1935 80.9139 84.1993 80.9194C85.1182 81.7917 86.0674 82.7211 86.4516 83.9616ZM82.1293 79.7317C82.068 79.7216 81.9983 79.7153 81.9134 79.7191C79.57 79.8199 77.4336 79.6217 75.2132 78.7616C73.8189 78.2211 72.394 77.4093 70.9073 77.0674C74.6584 76.3871 78.8082 77.836 82.1293 79.7317ZM73.821 79.1967C75.7311 79.9967 77.5987 80.3491 79.5553 80.4356C79.5116 80.4826 79.4818 80.5343 79.4734 80.5897C79.2344 82.1646 79.8384 84.3031 80.8119 85.723C80.8072 85.7276 80.8014 85.7318 80.7976 85.7369C78.5814 88.5906 73.4943 83.2338 70.2261 85.0527C70.6469 82.7689 72.0756 80.1559 72.205 78.4449C72.7703 78.7087 73.3183 78.9862 73.821 79.1967ZM72.4628 76.1846C70.8959 74.3674 71.129 72.2911 73.092 70.8733C75.7462 68.9557 78.5952 70.3113 80.9353 71.8783C82.8017 73.1281 84.8923 74.0999 86.5932 75.582C88.701 77.4189 86.4348 79.1227 84.7163 80.1895C81.2167 77.9006 76.7688 76.154 72.4717 76.4307C72.525 76.3509 72.533 76.2661 72.4628 76.1846ZM70.5894 79.2324C70.3445 79.1316 70.0997 79.0291 69.8561 78.9249C69.5991 78.8157 68.7238 77.6314 69.4399 77.6331C70.1391 77.6352 70.8766 77.8725 71.6002 78.1778C71.3041 78.2358 71.0093 78.3853 70.9997 78.557C70.9841 78.8275 70.9425 79.0996 70.8909 79.3722C70.7935 79.3235 70.6922 79.279 70.5894 79.2324ZM71.2449 88.693C70.2126 87.9127 69.9955 86.7662 70.1572 85.4857C70.4272 85.4551 70.7359 85.3811 70.8413 85.2925C71.688 84.5786 73.6173 85.5752 74.477 85.9023C75.6555 86.3504 76.8188 86.8153 78.0724 87.0039C79.2164 87.1757 80.3482 86.9229 81.236 86.2656C81.2482 86.2786 81.2595 86.2942 81.2717 86.3076C81.3834 86.4298 81.6249 86.4382 81.8609 86.3828C81.8462 86.4092 81.8345 86.4348 81.8189 86.4617C81.7051 86.6616 82.8416 86.5785 83.0226 86.2606C83.2195 85.9153 83.3556 85.5571 83.5131 85.1938C83.548 85.1136 83.9209 86.1593 83.9373 86.274C84.0607 87.1501 83.456 87.9064 82.934 88.5271C81.9029 89.7543 81.2978 90.8353 81.7316 92.3972C81.3608 92.5471 81.0059 92.7525 80.6544 92.9238C79.2168 93.6226 77.7671 93.844 76.4593 92.8638C76.4568 92.818 76.4479 92.776 76.429 92.7411C76.4463 92.705 76.4563 92.6676 76.4526 92.6282C76.0704 88.9925 73.4859 90.388 71.2449 88.693ZM63.6044 98.6766C65.8395 95.7284 68.749 92.2981 72.5082 91.5518C72.2923 91.7013 72.1004 91.8882 71.9517 92.1267C71.5003 92.8507 71.6956 93.7654 72.2445 94.3685C69.7687 95.1862 69.1409 98.1256 69.0552 100.696C67.0364 100.42 64.8832 100.435 62.8707 100.828C63.0013 100.254 62.9925 99.6043 62.8686 98.9491C63.1525 98.9374 63.4801 98.8404 63.6044 98.6766ZM57.1201 95.801C56.6207 95.0673 56.1562 94.1955 56.1806 93.2846C56.1907 92.91 56.3557 92.2531 56.7664 92.1196C57.241 91.9646 57.8092 92.3422 58.1452 92.6353C58.8046 93.2102 59.1254 94.0686 59.3043 94.9015C58.7067 94.8767 58.0675 95.0665 57.4115 95.552C57.3061 95.6293 57.2108 95.7137 57.1201 95.801ZM57.703 96.5498C58.4543 94.5113 60.4454 96.3335 61.0581 97.4372C61.6452 98.4947 61.9384 99.8781 61.6448 101.061C61.6394 101.083 61.6394 101.102 61.6415 101.121C60.9338 101.323 60.2535 101.579 59.6122 101.892C57.7101 101.156 57.055 98.3083 57.703 96.5498ZM57.4955 104.65C60.0036 101.544 64.879 100.907 69.1153 101.63C69.2396 101.78 69.5075 101.808 69.7553 101.75C71.2067 102.049 72.562 102.507 73.6934 103.077C79.4436 105.971 81.7035 112.177 81.8853 118.202C80.5057 117.516 79.1282 116.828 77.7545 116.13C77.0871 115.79 76.4152 115.452 75.742 115.112C75.1263 114.786 74.5224 114.464 73.9248 114.144C74.0663 114.071 74.1662 113.978 74.1625 113.87C74.1142 112.358 73.6354 111.181 72.8748 110.299C73.7492 109.285 74.7966 108.419 75.902 107.67C76.1086 107.53 76.2216 107.228 75.9738 107.065C75.8533 106.987 75.71 106.965 75.5664 106.978C75.0058 106.389 74.3922 105.866 73.7244 105.399C73.5514 105.278 73.1571 105.356 72.8937 105.506C72.9265 105.265 72.9584 105.024 72.9886 104.783C73.0395 104.379 71.8236 104.616 71.7795 104.965C71.6111 106.307 71.4171 107.633 71.0358 108.925C70.3143 108.581 69.5096 108.357 68.665 108.244C68.9275 108.223 69.1934 108.094 69.2635 107.869C69.6318 106.686 69.6818 105.495 69.6868 104.269C70.0623 104.147 70.4608 103.924 70.2257 103.868C69.9867 103.812 69.7477 103.767 69.5088 103.725C69.3849 103.649 69.2135 103.628 69.0434 103.652C67.107 103.375 65.1789 103.523 63.2512 103.994C62.5893 104.157 62.6385 104.489 63.2096 104.402C63.2 104.42 63.1945 104.437 63.2012 104.453C63.7787 105.789 64.4309 107.084 65.1495 108.35C65.1503 108.351 65.1524 108.352 65.1533 108.354C64.6883 108.498 64.286 108.963 65.068 108.83C68.8003 108.194 72.4309 109.702 72.8921 113.593C69.1396 111.582 65.7799 109.735 62.9539 108.159C62.7523 107.655 62.4974 107.166 62.25 106.685C61.9682 106.136 61.6872 105.523 61.2668 105.065C61.0758 104.856 59.9654 105.3 60.1161 105.464C60.5096 105.893 60.7671 106.5 61.0329 107.011C61.0506 107.045 61.0686 107.08 61.0863 107.114C60.3954 106.726 59.7407 106.356 59.1351 106.013C58.5186 105.614 57.9109 105.205 57.3074 104.792C57.3825 104.755 57.4481 104.709 57.4955 104.65ZM72.819 106.036C73.4393 106.477 74.0062 106.987 74.5245 107.544C74.5274 107.547 74.532 107.549 74.5354 107.553C73.6871 108.168 72.8811 108.857 72.1697 109.626C72.113 109.581 72.055 109.537 71.9963 109.494C72.003 109.483 72.0114 109.471 72.0156 109.46C72.4145 108.343 72.6451 107.198 72.819 106.036ZM66.3674 108.023C65.656 106.77 65.01 105.488 64.4364 104.165C65.7761 103.953 67.1133 103.956 68.4551 104.187C68.4546 105.376 68.4567 106.58 68.0993 107.727C68.0208 107.978 68.1401 108.134 68.3282 108.204C67.6231 108.133 66.8961 108.137 66.1717 108.206C66.3057 108.135 66.3909 108.065 66.3674 108.023ZM54.4197 114.573L55.0551 114.961C54.7052 115.002 54.428 115.206 54.2021 115.566C54.1702 115.569 54.1378 115.574 54.1055 115.58L54.4197 114.573ZM64.071 164.056C58.7084 157.755 56.6463 148.732 55.3201 140.808C54.2668 134.513 53.5957 127.81 54.0455 121.316C54.3777 120.193 54.4671 118.823 54.5826 118.261C54.7229 117.579 54.8757 116.9 55.0647 116.23C55.1 116.104 55.1403 115.981 55.1857 115.859C55.2436 115.897 55.3919 115.94 55.6875 116.103C56.0113 116.282 56.3368 116.457 56.661 116.634C56.6934 120.706 56.8395 124.781 57.1646 128.84C56.9827 128.975 56.9126 129.144 57.1339 129.272C57.1562 129.284 57.1789 129.297 57.2011 129.31C57.236 129.729 57.2746 130.147 57.3137 130.565C57.6198 133.851 58.0499 137.126 58.6441 140.377C58.9012 141.784 59.1947 143.206 59.532 144.625C60.5987 149.111 62.1232 153.573 64.4666 157.518C65.1596 158.684 65.9277 159.802 66.7731 160.866C67.0927 161.267 67.4236 161.661 67.7667 162.045C66.5245 162.623 65.2629 163.292 64.071 164.056ZM72.1873 83.1704C71.9572 82.6266 72.4574 82.0802 72.806 81.7219C72.9983 81.5241 73.3553 81.4431 73.6186 81.4254C73.7421 81.417 74.107 81.4469 73.9122 81.6472C73.632 81.9361 73.1331 82.4644 73.4359 82.9008C73.7068 83.291 74.3052 83.3968 74.7336 83.4862C75.015 83.5455 74.6866 83.7781 74.5904 83.8256C74.3397 83.9486 74.0172 84.0335 73.7383 83.9751C73.2423 83.8709 72.415 83.7076 72.1873 83.1704ZM75.9578 82.3145C75.9578 82.0222 75.9578 81.7295 75.9578 81.4372C75.9578 81.1352 76.3875 80.9614 76.6277 80.9437C76.8982 80.9236 77.1909 81.0403 77.1909 81.3461C77.1909 81.6384 77.1909 81.9311 77.1909 82.2234C77.1909 82.5258 76.7612 82.6992 76.521 82.7169C76.2505 82.737 75.9578 82.6203 75.9578 82.3145ZM76.8717 88.9249C76.2972 88.9211 75.8579 88.6955 75.4194 88.3327C75.1809 88.1349 76.2808 87.6658 76.5605 87.8972C76.7218 88.0307 77.1333 88.3558 77.3206 88.3684C77.3509 88.3587 77.3916 88.3453 77.4219 88.3323C77.5033 88.2966 77.5848 88.2609 77.6688 88.2315C77.8708 88.1592 78.2635 88.032 78.46 88.1895C78.6515 88.3428 78.1963 88.5528 78.1102 88.5834C77.7045 88.7275 77.316 88.9278 76.8717 88.9249ZM76.3824 109.978C76.4001 109.974 76.4206 109.97 76.4412 109.966C76.6399 109.603 77.3631 109.426 77.5474 109.799C77.9934 110.702 78.35 111.629 78.6024 112.605C78.7435 113.151 77.623 113.47 77.4088 112.987C76.7629 113.274 76.0338 113.353 75.3254 113.195C75.0763 113.14 75.0154 112.936 75.2094 112.763C75.4245 112.572 75.7873 112.47 76.07 112.533C76.5294 112.634 76.8683 112.57 77.2077 112.304C77.0376 111.749 76.8309 111.206 76.5899 110.676C76.584 110.678 76.5769 110.681 76.5714 110.683C75.8625 110.873 75.2359 111.272 74.5862 111.602C74.3695 111.712 73.9529 111.768 73.7719 111.557C73.5779 111.329 73.9092 111.096 74.081 111.009C74.8369 110.625 75.5572 110.201 76.3824 109.978Z" fill="#242A47"/>
<path d="M172.999 129.5C176.199 88.3 168.332 66.3333 163.999 60.5C188.799 81.7 198.999 117.667 200.999 133C186.599 121.8 176.332 126 172.999 129.5Z" fill="#FFEAA2"/>
</svg>
