<svg width="250" height="250" viewBox="0 0 250 250" fill="none" xmlns="http://www.w3.org/2000/svg">
<rect width="250" height="250" transform="translate(-0.000976562)" fill="white"/>
<ellipse cx="189.499" cy="62.5" rx="11" ry="10.5" fill="#FFEAA2"/>
<path d="M166.999 221.857C122.669 264.934 57.528 233.181 29.999 211.5L40.999 202L41.0527 201.97C42.7377 201.034 49.1259 197.485 52.499 192C56.7616 185.069 63.999 180.5 72.999 181.5C80.3025 182.311 102.499 177 111.999 166.5C115.94 162.144 118.513 161.079 137.161 157.88C152.08 155.321 151.547 158.946 149.416 161.079C152.968 161.079 158.474 163.105 152.08 171.209C145.686 179.312 147.64 186.314 149.416 188.802C148.564 191.361 154.389 198.399 157.408 201.597C154.425 211.407 162.559 219.191 166.999 221.857Z" fill="#E3F7DF"/>
<path d="M145.739 80.7241C145.72 80.7367 145.7 80.7505 145.68 80.7635L145.813 79.4608C145.788 79.8816 145.765 80.3028 145.739 80.7241ZM155.111 79.4503C156.145 79.9051 157.516 80.7383 158.653 80.1533C160.682 79.1084 161.98 76.6525 163.043 74.5644C162.894 74.6362 162.734 74.7025 162.55 74.7525C162.364 74.8033 162.185 74.8344 162.007 74.8491C159.973 75.238 158.048 74.3468 156.33 72.5208C153.959 70.0005 151.21 65.3935 147.61 67.7046C147.432 71.801 147.223 75.8957 146.98 79.9891C149.541 78.6284 152.221 78.1795 155.111 79.4503ZM87.9217 123.978C89.5394 125.571 92.3108 125.89 94.4711 126.148C97.0044 126.45 99.5599 126.344 102.087 126.014C103.401 125.842 104.722 125.651 106.009 125.325C106.633 125.167 107.953 125.004 108.365 124.413C108.365 124.408 108.363 124.404 108.363 124.4C108.363 117.639 108.504 110.907 111.397 104.668C110.473 104.538 109.537 104.458 108.585 104.443C107.988 104.433 109.125 103.949 109.376 103.953C116.221 104.067 122.22 107.298 128.793 108.712C131.09 109.206 133.746 109.644 136.052 108.981C138.424 108.298 139.122 106.557 139.02 104.297C138.933 102.371 138.397 99.1738 135.753 99.4367C132.779 99.7323 129.809 99.9982 126.824 99.7034C121.5 99.178 117.423 95.2269 112.322 94.0161C112.259 94.0514 112.187 94.0817 112.099 94.1027C109.999 94.5923 108.316 93.3013 106.242 93.0372C105.467 92.9389 104.701 92.7583 103.932 92.6067C104.173 92.9343 104.363 93.3396 104.549 93.8162C104.58 93.8956 104.556 93.9628 104.499 94.0187C107.474 94.8384 106.753 99.9491 103.722 101.335C103.733 101.379 103.734 101.43 103.717 101.49C102.73 104.836 102.934 108.46 102.088 111.852C101.454 114.397 100.377 117.367 97.471 117.906C96.7545 118.039 96.1695 117.997 95.6878 117.825C93.5338 117.793 91.0702 117.444 88.8104 116.781C88.3858 118.741 86.4249 122.503 87.9217 123.978ZM117.317 106.071C116.223 105.732 115.124 105.42 114.011 105.161L117.317 106.071ZM95.3816 88.5254C93.5829 91.1171 98.2526 91.4518 99.3684 91.4736C100.806 91.5018 102.205 91.3607 103.629 91.6311C105.123 91.9146 106.63 92.125 108.119 92.4219C108.86 92.5698 109.534 92.9452 110.239 93.1741C110.455 93.1749 110.669 93.1808 110.882 93.1913C108.888 92.0335 107.112 90.5661 105.154 89.3414C103.909 88.5628 102.587 87.7754 101.137 87.4495C100.223 87.2445 98.9556 87.0904 97.7998 87.2534C97.3068 87.3646 96.8553 87.4944 96.4526 87.6414C96.025 87.848 95.6542 88.1328 95.3816 88.5254Z" fill="#B5E9FC"/>
<path d="M113.473 80.3411C113.482 80.6691 113.58 80.977 113.683 81.2861C113.802 81.6447 112.593 81.995 112.466 81.6115C112.363 81.3029 112.265 80.995 112.256 80.6666C112.244 80.2357 113.464 80.0106 113.473 80.3411ZM110.194 84.2905C110.638 84.7181 111.21 84.8802 111.816 84.7542C112.027 84.7101 112.428 84.6332 112.522 84.3964C112.612 84.1708 112.111 84.2145 112.023 84.233C112.006 84.2364 111.999 84.2393 111.989 84.2418C111.979 84.2401 111.974 84.2389 111.96 84.2376C111.89 84.2309 111.807 84.1944 111.745 84.1637C111.591 84.0873 111.458 83.9739 111.336 83.8563C111.082 83.6127 109.958 84.0629 110.194 84.2905ZM112.394 77.8566C111.686 77.8725 110.95 78.2266 110.603 78.8612C110.456 79.1316 110.732 79.3408 110.973 79.3689C111.274 79.4046 111.617 79.2706 111.766 78.9972C111.894 78.7629 112.066 78.7465 112.285 78.7419C112.55 78.7356 112.92 78.5449 112.956 78.2522C112.994 77.9372 112.63 77.8511 112.394 77.8566ZM165.024 218.547C165.216 218.921 164.031 219.309 163.808 218.872C162.324 215.979 160.144 213.567 158.625 210.729C157.425 208.486 156.957 206.108 156.322 203.671C155.547 200.693 154.389 198.146 152.619 195.616C151.193 193.578 149.61 191.548 148.654 189.23C146.355 183.654 147.246 178.74 150.128 173.609C151.211 171.68 152.541 169.588 152.831 167.351C153.202 164.483 151.582 162.782 149.096 161.618C148.572 161.372 149.672 160.837 150.054 161.007C149.439 157.499 144.151 157.597 140.208 158.019C140.174 158.347 140.143 158.676 140.109 159.005C140.062 159.452 138.832 159.672 138.888 159.142C138.922 158.816 138.953 158.488 138.986 158.162C138.545 158.218 138.134 158.273 137.765 158.321C137.766 158.551 137.751 158.787 137.723 159.028C137.675 159.441 136.96 159.638 136.64 159.444C133.538 159.64 130.436 159.836 127.334 160.032C127.14 160.044 126.91 160.076 126.669 160.102C121.639 161.498 116.843 162.391 112.81 166.039C109.458 169.07 106.184 171.77 102.147 173.87C97.3388 176.37 92.3823 178.215 87.2654 179.626C87.236 179.697 87.2108 179.765 87.1755 179.837C87.0172 180.161 85.8619 180.263 85.9719 180.038C85.9845 180.013 85.9916 179.989 86.0034 179.964C83.3895 180.646 80.7336 181.222 78.0344 181.718C77.9232 181.821 77.761 181.895 77.562 181.895C72.8121 181.9 67.7624 181.819 63.2313 183.455C58.1732 185.282 55.1834 188.949 52.0546 193.106C49.0166 197.142 45.1159 199.328 41.0632 202.168C36.0706 205.667 32.6075 210.437 29.2045 215.407C28.9235 215.818 27.6808 215.827 28.047 215.292C31.3724 210.434 34.7951 205.487 39.6848 202.061C41.9254 200.491 44.3637 199.211 46.5081 197.499C48.8339 195.643 50.442 193.477 52.1991 191.108C54.9923 187.342 58.51 184.177 63.0209 182.668C65.4605 181.852 67.9837 181.45 70.5325 181.25C70.1075 180.278 70.4897 178.767 70.6564 177.891C70.9945 176.118 71.4884 174.361 71.6879 172.564C71.6916 172.532 71.6996 172.501 71.7118 172.47C72.8478 165.743 74.0913 158.751 77.4893 152.759C81.2355 146.153 84.536 139.335 86.013 131.859C85.8908 131.841 85.7699 131.795 85.654 131.708C85.3516 131.482 85.1492 131.157 84.9837 130.809C84.255 131.955 83.2438 132.78 81.7235 132.362C81.1573 132.776 80.4258 133.014 79.8105 132.769C79.1566 133.234 78.3843 133.175 77.9026 132.304C77.9017 132.303 77.9005 132.301 77.8996 132.299C77.8845 132.272 77.8681 132.247 77.8534 132.218C77.8156 132.143 77.8194 132.07 77.8488 132.003C77.853 130.81 78.1621 129.746 78.6505 128.76C78.6056 128.752 78.5775 128.738 78.5787 128.718C78.7446 126.039 77.5977 124.546 75.0497 123.837C73.0969 123.293 71.1045 122.881 69.6691 121.334C67.6011 119.105 68.8342 115.702 68.7737 113.024C68.7321 111.174 68.3453 109.663 67.0447 108.299C66.1064 107.315 65.0502 106.403 64.2258 105.317C62.5132 103.059 61.9723 100.452 61.5057 97.7199C61.1584 95.686 60.706 92.9608 58.2333 92.5623C50.5142 91.3175 47.0608 99.1999 46.2276 105.439C46.1902 105.72 45.2541 105.956 45.0441 105.803C41.6058 103.298 36.6501 100.73 32.7331 103.769C29.593 106.205 27.8392 110.125 26.6309 113.81C23.7684 122.538 22.9478 132.021 22.9221 141.17C39.5966 141.17 56.2707 141.17 72.9452 141.17C73.7675 141.17 72.9112 141.844 72.4673 141.844C54.1994 141.844 35.9316 141.844 17.6641 141.844C16.8418 141.844 17.6981 141.17 18.142 141.17C19.3306 141.17 20.5191 141.17 21.7076 141.17C21.7479 131.109 22.524 119.966 26.7136 110.712C28.3309 107.139 30.6567 103.675 34.5381 102.381C38.3052 101.125 42.0262 102.605 45.1755 104.695C46.0638 99.559 48.5508 93.8163 54.055 92.4955C56.0498 92.0167 59.51 91.2759 61.126 93.0608C62.782 94.8893 62.6597 97.7082 63.2007 99.9827C63.5749 101.557 64.0981 103.217 65.0901 104.525C66.2287 106.026 67.8077 107.175 68.89 108.709C71.2595 112.068 68.5435 116.032 69.9832 119.49C71.1625 122.322 73.8641 122.679 76.4675 123.513C78.4485 124.149 79.4997 125.223 79.7509 126.984C80.3182 126.212 80.9574 125.473 81.5937 124.74C81.6504 124.675 81.7289 124.627 81.8171 124.59C81.7705 124.549 81.7205 124.51 81.6764 124.467C78.6766 121.552 82.5416 117.721 83.5928 114.772C83.6377 114.645 83.7868 114.543 83.9665 114.474C80.726 111.467 85.3209 106.166 86.0794 102.816C86.0706 102.816 86.0613 102.815 86.0521 102.815C85.9173 102.816 85.6624 102.802 85.6964 102.607C86.2831 99.239 86.4834 94.873 89.233 92.4228C90.8755 90.9592 92.4818 91.0277 94.3343 91.1151C93.5717 90.5628 93.2663 89.7703 94.0534 88.636C95.8236 86.0851 99.7595 85.8448 102.467 86.8322C104.513 87.5785 106.29 88.7767 108.051 90.0076C108.022 89.9211 108.046 89.8119 108.158 89.6796C109.329 88.2966 110.203 87.1064 112.141 86.9636C113.196 86.886 115.22 87.4773 115.385 85.9015C115.461 85.1712 115.406 84.4367 115.398 83.7038C115.395 83.4162 115.764 83.2276 116.098 83.2171C116.121 83.2003 116.143 83.1856 116.166 83.1738C116.455 83.0231 116.866 82.703 116.827 82.3234C116.785 81.9101 116.498 81.9589 116.195 82.0487C116.044 82.0932 115.625 82.1575 115.527 81.9568C115.472 81.9248 115.429 81.8807 115.406 81.8211C114.799 80.2248 114.545 78.5399 114.146 76.8865C114.113 76.7537 114.201 76.6324 114.342 76.5387C113.244 76.3716 112.137 75.9789 111.115 75.5908C110.611 76.5526 109.626 77.0687 108.585 77.4811C108.57 77.4933 108.556 77.5042 108.541 77.5152C109.062 79.0787 109.054 80.3004 108.191 81.8119C108.161 81.8639 108.116 81.9101 108.06 81.9505C108.079 82.0088 108.103 82.0609 108.118 82.1252C108.208 82.5103 106.987 82.8223 106.901 82.4506C106.894 82.4204 106.885 82.3889 106.877 82.3574L106.833 82.3927C106.833 82.3927 106.741 81.7182 105.871 81.9988C105.773 82.134 105.697 82.286 105.656 82.4196C105.51 82.895 105.551 83.4204 105.816 83.8504C105.9 83.9877 106.023 84.1452 106.168 84.2439C106.206 84.1847 106.241 84.1242 106.273 84.0549C106.39 83.8084 106.723 83.7051 106.972 83.6694C107.064 83.6564 107.6 83.6387 107.484 83.8811C107.248 84.3787 106.78 84.7811 106.251 84.918C106.242 84.9314 106.236 84.9444 106.225 84.9587C105.626 85.7533 104.999 86.4223 104.228 87.0455C104.034 87.2022 103.286 87.3689 103.226 86.9662C102.84 84.4329 100.931 83.6501 99.7087 81.6401C98.8163 80.1736 98.4316 78.2564 98.9238 76.6042C99.6457 74.1806 102.439 73.5141 104.682 73.8685C105.629 71.4546 107.962 70.5403 110.563 70.9624C111.554 71.1228 111.934 71.4558 112.889 70.812C113.432 70.4458 114.067 69.9313 114.725 69.7709C115.686 69.5361 116.826 69.4635 117.683 70.0871C119.386 71.3286 120.059 74.0857 118.274 75.6085C117.401 76.3539 116.407 76.6236 115.376 76.6223C115.756 78.2094 116.011 79.8246 116.575 81.3617C117.17 81.2722 117.924 81.3008 118.032 81.9131C118.157 82.6211 117.468 83.212 116.912 83.5022C116.828 83.5459 116.73 83.5837 116.629 83.6156C116.644 84.9121 116.94 86.6529 115.56 87.3836C114.715 87.8313 113.781 87.9237 112.837 87.8649C110.861 87.7435 110.271 88.7162 109.171 90.0156C109 90.2172 108.626 90.2797 108.354 90.2193C109.773 91.2137 111.191 92.2154 112.74 93.0032C112.964 93.117 112.948 93.2766 112.818 93.4186C115.503 93.9112 117.971 95.0897 120.435 96.3987C122.329 97.4045 124.285 98.6388 126.422 99.0202C128.59 99.4074 130.778 99.417 132.969 99.252C134.911 99.1054 138.054 98.1286 139.313 100.276C139.436 100.485 139.542 100.708 139.642 100.937C140.273 99.908 141.287 99.1575 142.324 98.4952C142.542 98.3558 143.092 98.1832 143.278 98.4809C143.416 98.7014 143.935 99.9034 144.294 100.273C144.845 94.0977 145.304 87.9119 145.682 81.7224C145.204 81.7711 144.68 81.4457 145.221 81.0706C145.373 80.9648 145.527 80.864 145.68 80.7636C145.7 80.751 145.72 80.7372 145.74 80.7241C145.765 80.3029 145.788 79.8817 145.813 79.4609C146.026 75.7828 146.213 72.1038 146.375 68.424C145.991 68.4753 145.603 68.4144 145.929 68.128C146.087 67.989 146.246 67.8609 146.406 67.7387C146.477 66.0785 146.545 64.418 146.606 62.7574C146.62 62.3971 147.831 62.2404 147.823 62.4311C147.767 63.9446 147.706 65.4578 147.642 66.971C149.887 65.8765 152.191 66.388 154.218 68.4597C156.587 70.8809 159.651 76.2515 163.526 73.6224C163.543 73.5884 163.562 73.5523 163.579 73.5183C163.821 73.0559 165.055 73.042 164.74 73.6455C163.291 76.4165 160.764 82.0324 156.694 81.1235C155.396 80.8333 154.267 80.0736 152.986 79.7259C150.782 79.127 148.766 79.8783 146.92 81.0177C146.532 87.4319 146.059 93.8415 145.485 100.241C146.08 100.154 146.672 100.084 147.286 100.136C147.968 100.194 148.738 100.491 148.94 101.194C149.019 101.471 148.909 101.741 148.717 101.985C148.76 102.031 148.788 102.089 148.786 102.167C148.773 102.904 148.591 103.625 148.202 104.238C148.212 104.263 148.221 104.287 148.225 104.316C148.374 105.337 147.954 106.071 147.179 106.709C147.134 106.746 147.084 106.773 147.032 106.796C146.997 106.84 146.951 106.887 146.884 106.937C146.159 107.476 145.405 107.82 144.629 108.034C143.194 124.412 141.965 140.809 140.293 157.166C144.671 156.714 150.785 156.612 151.305 160.871C151.336 161.122 151.12 161.32 150.862 161.419C152.421 162.275 153.91 163.532 154.087 165.407C154.27 167.356 153.598 169.202 152.735 170.924C151.393 173.601 149.558 176.046 148.892 179.018C148.178 182.203 148.379 185.288 149.625 188.31C150.817 191.199 152.759 193.552 154.438 196.151C155.9 198.414 156.889 200.727 157.539 203.347C158.227 206.127 158.74 209.112 160.499 211.468C162.187 213.726 163.737 216.034 165.024 218.547ZM146.98 79.9896C149.54 78.6285 152.221 78.1795 155.111 79.4504C156.145 79.9052 157.516 80.7384 158.652 80.1534C160.681 79.1085 161.979 76.6525 163.043 74.5644C163.048 74.5556 163.052 74.5464 163.057 74.5376C162.704 74.6808 162.354 74.7832 162.007 74.8496C159.973 75.2385 158.048 74.3473 156.33 72.5213C153.958 70.001 151.21 65.394 147.609 67.7051C147.432 71.8015 147.222 75.8962 146.98 79.9896ZM140.058 102.229C140.289 103.23 140.349 104.292 140.246 105.251C140.157 106.078 139.89 106.759 139.493 107.32C141.806 107.597 144.098 107.995 146.11 106.5C146.128 106.486 146.15 106.474 146.171 106.462C146.186 106.372 146.247 106.273 146.375 106.167C146.793 105.822 147.021 105.431 147.026 104.929C146.766 104.898 146.604 104.766 146.846 104.507C147.24 104.087 147.434 103.515 147.517 102.94C147.034 103.166 146.146 102.845 146.803 102.415C147.878 101.71 147.579 100.784 146.261 100.923C145.875 100.965 145.494 101.023 145.111 101.086C144.669 101.157 144.197 101.27 143.751 101.178C143.084 101.041 142.713 100.134 142.397 99.4582C141.509 100.081 140.697 100.821 140.391 101.901C140.352 102.04 140.22 102.151 140.058 102.229ZM95.1461 111.446C94.984 113.048 94.8043 118.559 98.0355 116.873C100.637 115.516 101.078 111.364 101.434 108.789C101.758 106.44 101.804 103.953 102.464 101.664C102.412 101.669 102.362 101.678 102.31 101.68C101.247 101.731 100.496 101.455 100.005 100.98C99.938 100.989 99.87 100.989 99.8036 100.976C99.3114 100.878 98.8322 100.801 98.3438 100.798C98.3467 100.853 98.3488 100.909 98.3535 100.962C98.4249 101.789 99.2938 103.945 98.5034 104.645C97.9688 105.119 97.2095 105.162 96.4816 105.096C95.884 107.171 95.3637 109.298 95.1461 111.446ZM102.677 100.837C105.713 100.458 106.44 94.272 102.799 94.7969C100.35 95.6407 99.0846 101.287 102.677 100.837ZM102.135 94.1997C99.9166 94.634 98.5672 97.6897 98.3635 99.9558C98.7171 99.942 99.0674 99.9647 99.4172 100.008C98.8091 98.1269 100.095 95.211 102.135 94.1997ZM128.792 108.712C131.089 109.206 133.746 109.644 136.052 108.98C138.423 108.298 139.122 106.557 139.02 104.297C138.933 102.371 138.396 99.1734 135.752 99.4363C132.779 99.732 129.808 99.9978 126.824 99.703C121.5 99.1776 117.423 95.2266 112.322 94.0158C112.259 94.0511 112.187 94.0813 112.098 94.1023C109.998 94.592 108.316 93.301 106.241 93.0368C105.466 92.9386 104.701 92.758 103.932 92.6064C104.173 92.9339 104.362 93.3392 104.549 93.8159C104.58 93.8953 104.556 93.9625 104.499 94.0183C107.474 94.8381 106.752 99.9487 103.722 101.335C103.733 101.379 103.734 101.43 103.716 101.489C102.73 104.835 102.934 108.46 102.088 111.852C101.453 114.397 100.376 117.367 97.4707 117.906C96.7542 118.039 96.1692 117.997 95.6875 117.825C93.5334 117.793 91.0699 117.443 88.8101 116.781C88.3863 118.742 86.425 122.504 87.9218 123.979C89.5395 125.572 92.3109 125.891 94.4712 126.149C97.0045 126.451 99.56 126.345 102.087 126.015C103.401 125.843 104.722 125.652 106.009 125.326C106.633 125.168 107.953 125.005 108.365 124.414C108.365 124.409 108.363 124.405 108.363 124.401C108.363 117.64 108.504 110.907 111.397 104.669C110.473 104.539 109.537 104.459 108.585 104.444C107.988 104.434 109.125 103.95 109.376 103.954C116.221 104.067 122.22 107.297 128.792 108.712ZM96.4518 87.6415C96.0247 87.8481 95.6539 88.1333 95.3813 88.5255C93.5826 91.1171 98.2522 91.4519 99.3681 91.4737C100.806 91.5018 102.205 91.3607 103.629 91.6312C105.123 91.9147 106.629 92.1251 108.119 92.422C108.86 92.5698 109.533 92.9453 110.239 93.1742C110.455 93.175 110.669 93.1809 110.882 93.1914C108.888 92.0335 107.112 90.5662 105.154 89.3415C103.909 88.5629 102.586 87.7754 101.137 87.4495C100.223 87.2446 98.9553 87.0905 97.7995 87.2534C97.3186 87.3206 96.8596 87.4437 96.4518 87.6415ZM89.5463 102.546C90.5252 102.76 91.4735 103.11 92.4239 103.422C93.6674 103.83 94.9084 104.178 96.2057 104.367C96.6433 104.431 97.5152 104.722 97.5438 104.376C97.6555 103.024 97.007 101.719 97.1553 100.343C97.3098 98.9068 97.7252 97.4469 98.5445 96.2379C99.6583 94.5941 101.228 93.5425 103.083 93.537C102.827 92.9747 102.506 92.5295 101.844 92.3519C100.875 92.3237 99.9115 92.3997 98.941 92.3359C98.2468 92.2906 96.8466 92.1431 95.6526 91.7496C95.6241 91.7547 95.5968 91.7576 95.572 91.758C94.6455 91.7748 93.7531 91.6682 92.8313 91.6089C90.9355 91.4863 89.5941 92.8411 88.8428 94.4593C87.842 96.6133 87.4876 98.9131 87.1071 101.238C86.8685 102.694 88.4535 102.309 89.5463 102.546ZM85.8976 114.625C88.3993 115.981 91.6709 116.886 94.7178 117.158C92.5646 114.656 94.6678 107.182 95.3242 104.932C92.5768 104.47 89.9826 103.188 87.223 102.883C86.2638 106.272 81.3946 112.182 85.8976 114.625ZM83.1232 124.252C84.1131 124.951 85.7825 125.816 86.5674 124.355C86.5695 124.35 86.5724 124.347 86.575 124.343C86.5762 124.34 86.5796 124.338 86.5808 124.336C86.6002 124.301 86.6224 124.266 86.6527 124.235C85.3125 122.074 87.3691 118.836 87.653 116.591C87.6602 116.535 87.69 116.482 87.7341 116.434C86.6501 116.054 85.6351 115.601 84.759 115.068C84.7242 115.047 84.6952 115.024 84.6616 115.002C83.7801 117.118 81.9616 119.107 81.7541 121.398C81.6441 122.605 82.1279 123.55 83.1232 124.252ZM80.7714 132.358C80.6954 132.373 80.6987 132.407 80.7714 132.358V132.358ZM86.2583 130.614C86.2663 130.598 86.278 130.584 86.289 130.569C86.3213 130.464 86.3528 130.359 86.3776 130.25C86.4775 129.814 86.585 129.374 86.6157 128.927C86.6938 127.79 86.6606 126.643 86.5951 125.501C85.4121 126.139 83.7994 125.865 82.5689 125.138C80.8314 127.137 79.0915 129.129 79.081 131.91C79.1121 131.966 79.1642 132.032 79.2125 132.095C79.2171 132.087 79.2217 132.083 79.2267 132.076C79.5039 131.653 79.7206 131.194 79.9226 130.732C80.2603 129.959 80.5156 129.072 81.0389 128.398C81.3543 127.992 82.5143 128.112 82.0456 128.714C81.6949 129.166 81.5147 129.816 81.2943 130.336C81.0528 130.907 80.813 131.506 80.4757 132.033C80.5715 132.138 80.687 132.256 80.8184 132.322C80.8352 132.307 80.852 132.293 80.873 132.272C80.9331 132.213 80.9906 132.153 81.0456 132.09C81.3719 131.703 81.6319 131.259 81.8654 130.811C82.2325 130.107 82.5181 129.359 82.9015 128.664C83.0699 128.359 84.1899 128.288 84.1013 128.448C83.5012 129.534 83.1215 130.748 82.3526 131.736C82.4328 131.739 82.5122 131.75 82.589 131.774C83.8275 132.158 84.6658 129.19 84.9946 128.359C85.1454 127.978 86.3515 127.831 86.2083 128.193C86.0592 128.57 85.8959 128.988 85.7115 129.41C85.7434 129.439 85.7716 129.471 85.79 129.513C85.9408 129.851 86.066 130.265 86.2583 130.614ZM72.9163 172.419C72.9163 172.433 72.9188 172.446 72.9171 172.461C72.8995 172.619 72.8776 172.776 72.8558 172.933C72.9473 172.954 73.0305 172.993 73.0927 173.055C74.8758 174.849 78.5078 173.795 80.4657 172.608C80.4682 172.554 80.4816 172.495 80.5152 172.428C83.7796 165.944 86.5397 159.211 90.4824 153.09C92.5562 149.869 94.6581 146.67 96.5224 143.32C97.6143 141.358 99.2963 138.908 99.5298 136.582C97.7957 136.249 96.086 135.781 94.42 135.139C93.8791 134.931 94.9777 134.36 95.3788 134.514C96.9092 135.103 98.4794 135.534 100.073 135.845C100.305 135.792 100.556 135.825 100.692 135.965C106.012 136.892 111.579 136.445 116.852 135.464C117.046 135.428 117.301 135.477 117.387 135.672C119.698 140.933 121.519 146.433 123.401 151.858C123.707 152.743 124.013 153.628 124.316 154.514C124.396 154.748 124.395 154.854 124.382 154.897C124.413 154.879 124.482 154.861 124.634 154.88C127.016 155.171 130.283 155.144 130.754 152.204C127.131 145.287 128.068 136.692 123.998 129.969C121.118 125.214 114.401 125.126 109.337 124.695C109.321 124.704 109.306 124.713 109.291 124.721C108.208 125.906 105.374 126.157 104.085 126.375C100.848 126.923 97.5173 127.238 94.2424 126.877C92.4953 126.685 89.626 126.469 87.834 125.37C87.9562 127.158 88.0146 129.024 87.4246 130.7C86.1319 138.146 83.0191 145.004 79.3368 151.553C75.6788 158.06 74.1531 165.094 72.9163 172.419ZM86.2331 179.293C86.8626 176.239 81.0839 175.447 78.3746 174.459C76.4058 175.05 74.2308 175.156 72.6525 174.127C72.4417 175.206 72.1746 176.275 71.9688 177.354C71.7874 178.305 71.1633 180.328 71.9344 181.159C73.8499 181.06 75.7737 181.051 77.6817 181.049C77.7888 181.049 77.8765 181.063 77.9483 181.088C80.7214 180.584 83.4936 180 86.2331 179.293ZM125.111 159.858C125.035 159.795 124.967 159.72 124.911 159.628C124.198 158.472 124.209 156.99 124.365 155.662C124.069 155.625 123.783 155.582 123.511 155.531C123.405 155.51 123.304 155.442 123.269 155.338C121.097 148.951 118.985 142.469 116.289 136.279C111.191 137.197 105.869 137.578 100.736 136.789C100.404 139.125 98.8003 141.534 97.6941 143.491C96.0029 146.484 94.1844 149.399 92.3025 152.275C88.0873 158.717 85.1374 165.745 81.6869 172.598C81.6844 172.604 81.6798 172.608 81.6768 172.613C81.7533 172.735 81.7197 172.889 81.4795 173.045C80.9251 173.404 80.2628 173.748 79.5468 174.043C82.2875 175.033 88.0503 175.812 87.4699 178.963C93.7191 177.258 99.7683 174.876 105.209 171.285C109.032 168.762 111.951 165.006 116.012 162.849C118.878 161.327 122.002 160.652 125.111 159.858ZM129.579 159.208C131.892 159.062 134.205 158.916 136.517 158.77C136.526 158.572 136.52 158.39 136.499 158.223C136.495 158.189 136.489 158.155 136.483 158.122C136.318 157.131 135.6 156.691 134.38 156.347C132.918 155.934 131.513 155.482 130.158 154.809C128.897 155.586 127.18 155.813 125.576 155.756C125.521 156.878 125.518 159.464 126.139 159.425C126.426 159.407 126.714 159.389 127.001 159.371C127.043 159.368 127.086 159.365 127.128 159.362C127.945 159.312 128.762 159.26 129.579 159.208ZM139.073 157.303C140.741 140.978 141.969 124.612 143.4 108.265C141.943 108.428 140.423 108.246 138.875 108.065C138.856 108.063 138.842 108.059 138.826 108.057C136.777 109.849 133.007 109.889 130.469 109.635C125.902 109.178 121.66 107.417 117.316 106.071C116.223 105.733 115.123 105.421 114.01 105.162C113.525 105.049 113.037 104.946 112.546 104.856C109.733 110.949 109.6 117.512 109.597 124.104C114.397 124.546 121.889 124.48 124.844 129.051C129.25 135.865 128.247 144.71 131.94 151.819C131.956 151.849 131.97 151.88 131.986 151.91C131.988 151.914 131.987 151.919 131.988 151.922C131.991 151.938 131.989 151.957 131.988 151.974C131.988 151.985 131.99 151.995 131.988 152.007C131.865 152.866 131.529 153.545 131.049 154.075C132.803 154.918 134.745 155.178 136.472 156.037C137.148 156.374 137.504 156.881 137.661 157.48C138.081 157.428 138.555 157.366 139.073 157.303ZM238.118 145.127C214.81 145.127 191.503 145.127 168.196 145.127C167.373 145.127 167.58 144.19 168.292 144.19C171.88 144.19 175.468 144.19 179.056 144.19C179.315 141.145 180.8 138.617 183.096 136.553C184.456 135.331 185.93 134.263 187.43 133.221C188.153 132.72 189.157 131.642 190.145 131.691C191.708 131.768 192.633 133.225 194.039 133.724C196.37 134.554 195.729 129.479 196.427 128.59C198.33 126.166 200.822 124.148 202.861 121.826C204.015 120.513 204.839 119.237 205.044 117.44C205.271 115.45 205.037 113.438 205.275 111.451C205.676 108.108 207.807 105.042 211.347 104.658C214.472 104.319 217.407 106.733 219.402 108.845C222.07 111.669 224.378 115.002 225.99 118.545C227.036 120.844 227.509 123.286 227.898 125.773C228.323 128.5 228.392 132.024 230.023 134.337C232.351 137.636 234.8 139.962 233.713 144.19C235.213 144.19 236.714 144.19 238.214 144.19C239.038 144.19 238.83 145.127 238.118 145.127ZM180.253 144.19C197.687 144.19 215.122 144.19 232.556 144.19C233.268 141.207 232.264 139.054 230.326 136.662C228.706 134.661 227.873 133.041 227.396 130.458C226.854 127.532 226.581 124.534 225.799 121.656C224.765 117.852 222.425 114.209 219.941 111.197C217.862 108.676 212.785 102.996 209.148 106.041C205.031 109.487 207.455 114.297 205.954 118.672C204.947 121.607 202.088 123.889 199.98 126.043C199.181 126.86 197.526 128.021 197.308 129.224C197.056 130.61 197.391 132.703 196.169 133.716C195.3 134.436 194.134 134.78 193.058 134.263C192.379 133.937 191.775 133.519 191.159 133.089C190.088 132.343 189.903 132.298 188.833 133.041C184.798 135.841 180.561 138.906 180.253 144.19ZM220.769 156.297C215.309 156.297 209.85 156.297 204.391 156.297C203.956 156.297 203.087 156.956 203.909 156.956C209.369 156.956 214.828 156.956 220.287 156.956C220.722 156.956 221.59 156.297 220.769 156.297ZM191.783 159.411C186.743 159.411 181.704 159.411 176.665 159.411C176.183 159.411 175.378 160.142 176.202 160.142C181.241 160.142 186.281 160.142 191.32 160.142C191.802 160.142 192.606 159.411 191.783 159.411ZM196.637 167.489C193.907 167.489 191.177 167.489 188.448 167.489C187.73 167.489 187.533 168.443 188.356 168.443C191.086 168.443 193.816 168.443 196.545 168.443C197.263 168.442 197.46 167.489 196.637 167.489ZM216.995 168.288C215.525 168.288 214.055 168.288 212.585 168.288C212.179 168.288 211.273 168.904 212.092 168.904C213.562 168.904 215.032 168.904 216.502 168.904C216.908 168.904 217.814 168.288 216.995 168.288ZM45.2205 154.969C50.2601 154.969 55.2993 154.969 60.3386 154.969C60.5729 154.969 61.7178 154.506 61.1369 154.506C56.0973 154.506 51.0581 154.506 46.0188 154.506C45.7845 154.506 44.6397 154.969 45.2205 154.969ZM80.6677 141.258C80.9503 141.258 81.3089 141.175 81.4673 140.912C81.6147 140.667 81.343 140.5 81.1229 140.5C80.283 140.5 79.443 140.5 78.6031 140.5C78.3204 140.5 77.9618 140.583 77.8035 140.846C77.656 141.091 77.9278 141.258 78.1478 141.258C78.9882 141.258 79.8277 141.258 80.6677 141.258ZM51.9732 149.253C45.4636 149.253 38.9545 149.253 32.4454 149.253C31.7503 149.253 31.511 150.142 32.3366 150.142C38.8462 150.142 45.3553 150.142 51.8644 150.142C52.5595 150.142 52.7988 149.253 51.9732 149.253ZM70.1335 147.627C70.8311 147.627 71.0659 146.73 70.2402 146.73C67.9304 146.73 65.6205 146.73 63.3111 146.73C62.6135 146.73 62.3788 147.627 63.2044 147.627C65.5139 147.627 67.8237 147.627 70.1335 147.627ZM178.832 59.9499C180.154 55.266 184.278 51.5345 189.25 51.624C189.266 51.6227 189.281 51.6198 189.298 51.6194C191.248 51.5958 193.268 51.8134 195.059 52.642C200.063 54.9569 202.801 60.8772 200.75 66.1482C198.381 72.2357 191.192 73.7619 185.403 72.0337C179.921 70.3962 177.285 65.4339 178.832 59.9499ZM188.646 71.6822C191.87 71.9594 195.445 71.5638 197.747 69.0192C199.347 67.2507 200.225 64.927 200.176 62.5344C200.051 56.4268 195.11 52.4286 189.187 52.4996C189.151 52.5 189.121 52.4967 189.089 52.4942C189.07 52.495 189.05 52.4979 189.03 52.4971C184.035 52.3014 180.2 57.0336 179.674 61.7003C179.031 67.4081 183.136 71.2076 188.646 71.6822Z" fill="#202529"/>
</svg>
