<svg width="1440" height="70" viewBox="0 0 1440 70" fill="none" xmlns="http://www.w3.org/2000/svg">
<path d="M236.082 17.0275C136.947 2.63047 37.3878 2.69712 0 4.53007V69.5H1440V35.024C1390.63 45.8218 1286.2 30.5249 1240.16 21.5267C1187.27 10.7289 1036.9 2.69724 968.327 0.0311601C918.955 -0.768673 762.939 14.0282 691.102 21.5267C628.8 33.1243 517.878 35.0239 470.204 34.524C433.469 34.6906 335.216 31.4245 236.082 17.0275Z" fill="#F0F8FF"/>
<path d="M236.082 17.0275C136.947 2.63047 37.3878 2.69712 0 4.53007V69.5H1440V35.024C1390.63 45.8218 1286.2 30.5249 1240.16 21.5267C1187.27 10.7289 1036.9 2.69724 968.327 0.0311601C918.955 -0.768673 762.939 14.0282 691.102 21.5267C628.8 33.1243 517.878 35.0239 470.204 34.524C433.469 34.6906 335.216 31.4245 236.082 17.0275Z" fill="url(#paint0_linear_680_11366)"/>
<path d="M236.082 17.0275C136.947 2.63047 37.3878 2.69712 0 4.53007V69.5H1440V35.024C1390.63 45.8218 1286.2 30.5249 1240.16 21.5267C1187.27 10.7289 1036.9 2.69724 968.327 0.0311601C918.955 -0.768673 762.939 14.0282 691.102 21.5267C628.8 33.1243 517.878 35.0239 470.204 34.524C433.469 34.6906 335.216 31.4245 236.082 17.0275Z" fill="url(#paint1_linear_680_11366)"/>
<defs>
<linearGradient id="paint0_linear_680_11366" x1="0" y1="52.75" x2="1440" y2="52.75" gradientUnits="userSpaceOnUse">
<stop stop-color="#DAE8FF"/>
<stop offset="1" stop-color="#E5F7FF"/>
</linearGradient>
<linearGradient id="paint1_linear_680_11366" x1="0" y1="34.75" x2="1440" y2="34.75" gradientUnits="userSpaceOnUse">
<stop stop-color="#D4E4FF"/>
<stop offset="1" stop-color="#EFFAFF"/>
</linearGradient>
</defs>
</svg>
