<svg width="200" height="176" viewBox="0 0 200 176" fill="none" xmlns="http://www.w3.org/2000/svg">
<path d="M105.289 103.84C103.037 103.84 100.786 103.84 98.5346 103.84C98.245 103.796 97.8398 103.958 97.8398 104.212C97.8398 105.147 97.8398 106.082 97.8398 107.018C97.5162 107.117 97.2155 107.249 96.936 107.407C95.0179 98.7811 93.1889 89.2666 96.8977 80.8833C97.8925 81.4837 98.2268 82.9516 98.4503 83.9787C98.4573 84.0106 98.4765 84.0348 98.502 84.0546C98.42 84.191 98.4603 84.3264 98.756 84.3557C101.702 84.6449 101.858 81.5603 101.845 79.2747C102.643 79.5969 103.482 79.8563 104.371 80.0377C102.323 88.0984 103.754 95.8393 105.289 103.84ZM63.8279 138.808C62.5552 139.665 61.1945 140.373 59.6856 140.756C59.0832 140.909 58.9008 140.238 59.5056 140.084C61.6192 139.547 63.3999 138.3 65.0737 136.949C65.0465 136.363 64.9662 135.721 64.823 135.064C64.819 135.056 64.818 135.047 64.818 135.038C64.3201 132.774 63.1069 130.37 60.9892 129.755C60.9613 129.747 60.9469 129.736 60.9388 129.723C58.8111 130.899 55.9956 131.437 53.7479 131.368L53.7066 131.375C53.7029 131.399 53.6938 131.426 53.6723 131.458C51.7099 134.343 53.1502 137.591 53.6236 140.683C53.9818 143.02 53.4586 145.022 52.951 147.274C56.7267 148.58 61.4979 150.074 64.7921 147.337C64.8311 147.207 64.9554 147.112 65.1036 147.062C65.2366 146.937 65.3663 146.803 65.4937 146.663C65.4836 146.632 65.4765 146.599 65.4762 146.561C65.451 143.772 64.8506 141.355 63.8279 138.808ZM150.917 40.0636C146.633 40.0636 142.349 40.0636 138.065 40.0636C138.061 40.4627 138.052 40.8679 138.043 41.2768C138.079 42.3401 138.121 43.43 138.065 44.5018C138.133 45.504 138.286 46.4884 138.608 47.4171C139.649 50.4244 142.574 51.3399 145.566 51.0527C151.56 50.4775 150.953 44.6154 150.917 40.0636ZM150.266 39.1312C149.695 38.4405 149.119 37.7541 148.542 37.0687C146.917 35.1388 145.285 33.2147 143.651 31.2922C141.281 28.5026 138.907 25.716 136.53 22.9325C133.645 22.9325 130.761 22.9325 127.877 22.9325C129.612 25.7359 131.341 28.5433 133.059 31.3571C134.24 33.2903 135.42 35.2242 136.574 37.1732C136.834 37.6109 137.901 38.9051 137.984 39.5882C142.22 39.5882 146.455 39.5882 150.69 39.5882C150.539 39.4158 150.36 39.2448 150.266 39.1312ZM109.804 39.5206C109.835 39.5176 109.866 39.5169 109.895 39.5176C109.928 39.5156 109.96 39.5156 109.991 39.5183C109.92 39.4958 109.858 39.4827 109.803 39.481L109.804 39.5206ZM119.924 31.1672C118.727 28.4169 117.521 25.672 116.301 22.9325C113.734 22.9325 111.168 22.9325 108.601 22.9325C109.072 26.3833 109.518 29.8381 109.91 33.2983C110.123 35.1835 110.4 37.0986 110.423 38.9989C110.425 39.1766 110.398 39.3923 110.335 39.5882C114.696 39.5882 119.057 39.5882 123.418 39.5882C123.449 39.5751 123.481 39.5633 123.516 39.5532C123.369 38.8181 122.582 37.4046 122.426 37.0273C121.612 35.0656 120.771 33.1149 119.924 31.1672ZM123.147 40.0636C118.863 40.0636 114.579 40.0636 110.295 40.0636C110.291 40.4644 110.282 40.8716 110.273 41.2828C110.309 42.3435 110.351 43.4311 110.295 44.4995C110.363 45.5027 110.516 46.4878 110.838 47.4171C111.879 50.4244 114.804 51.3399 117.796 51.0527C122.325 50.6183 123.084 47.1651 123.17 43.5396C123.16 42.997 123.164 42.4537 123.174 41.9141C123.166 41.2845 123.152 40.6629 123.147 40.0636ZM95.6754 39.5757L95.708 39.3748C95.7013 39.1054 95.7299 38.8144 95.7416 38.6C95.8468 36.6826 96.0813 34.7686 96.3037 32.8616C96.6904 29.5478 97.1154 26.2378 97.567 22.9321C94.3332 22.9321 91.0994 22.9321 87.8657 22.9321C86.9521 25.6505 86.052 28.3739 85.1698 31.1024C84.5502 33.0181 83.932 34.9352 83.3568 36.8647C83.1603 37.5232 82.9614 38.1824 82.7938 38.849C82.743 39.0503 82.6889 39.2522 82.654 39.4571C82.6439 39.5153 82.6382 39.5552 82.6342 39.5875C86.972 39.5875 91.3094 39.5875 95.6472 39.5875C95.6566 39.5838 95.6653 39.5794 95.6754 39.5757ZM82.357 39.5334L82.3543 39.5458C82.3852 39.5569 82.4141 39.57 82.438 39.5878C82.4826 39.5878 82.5273 39.5878 82.5723 39.5878C82.5357 39.5512 82.4722 39.5183 82.357 39.5334ZM95.4029 41.9124C95.3949 41.2835 95.3808 40.6623 95.3761 40.0636C91.0924 40.0636 86.8087 40.0636 82.5246 40.0636C82.5206 40.4614 82.5119 40.8645 82.5025 41.2721C82.5384 42.3371 82.5814 43.4294 82.5253 44.5028C82.5935 45.5044 82.7464 46.4888 83.0679 47.4171C84.1091 50.4244 87.0338 51.3399 90.0263 51.0527C94.5539 50.6183 95.3139 47.1661 95.3996 43.5416C95.3892 42.9976 95.3939 42.4527 95.4029 41.9124ZM67.6059 40.076C67.5555 40.0777 67.5031 40.075 67.4574 40.0636C63.2258 40.0636 58.9945 40.0636 54.7626 40.0636L54.7512 40.3347C54.7152 42.6701 54.5304 45.202 55.2971 47.4171C56.338 50.4244 59.2626 51.3399 62.2552 51.0527C66.7855 50.6179 67.5441 47.1617 67.6291 43.5342C67.6194 42.996 67.6234 42.4574 67.6328 41.9229C67.6248 41.2946 67.6106 40.6744 67.6059 40.076ZM62.5172 31.1007C60.83 33.0867 59.1427 35.0733 57.4658 37.0687C56.9666 37.6627 55.6331 38.8063 55.2968 39.5878C59.3282 39.5878 63.3595 39.5878 67.3906 39.5878C67.6285 38.8235 68.6344 37.5911 68.8857 37.1691C70.0152 35.2722 71.1626 33.3854 72.314 31.5009C74.0621 28.639 75.8192 25.7832 77.5844 22.9325C74.8815 22.9325 72.1786 22.9325 69.4753 22.9325C67.1527 25.6525 64.8328 28.3749 62.5172 31.1007Z" fill="url(#paint0_linear_1098_4712)"/>
<path d="M88.9782 77.9172C87.2778 77.8436 87.2953 76.1473 87.295 74.8155C87.295 74.4748 88.2683 74.3068 88.2683 74.5551C88.2686 75.3991 88.1232 77.3743 89.374 77.4287C90.0288 77.4566 89.3048 77.9317 88.9782 77.9172ZM93.8431 76.2071C93.9234 75.9104 92.9545 76.0573 92.8752 76.3496C92.7613 76.7695 92.4764 77.416 91.964 77.4304C91.7483 77.4364 91.4614 77.5067 91.3176 77.6824C91.1728 77.8588 91.4409 77.9189 91.5672 77.9152C92.639 77.8856 93.5582 77.257 93.8431 76.2071ZM90.6588 72.3639C90.6588 72.2436 89.6851 72.3723 89.6854 72.6243C89.6854 73.056 89.6828 73.6063 90.1101 73.8486C90.2704 73.9396 90.5788 73.8297 90.7327 73.7767C90.7629 73.7662 91.1684 73.6073 91.031 73.5297C90.6396 73.3076 90.6591 72.7556 90.6588 72.3639ZM86.0686 74.1002C86.0156 73.9144 85.9608 73.7336 85.8782 73.5589C85.7169 73.2162 84.7647 73.5237 84.9048 73.8193C85.0641 74.157 85.0839 74.5911 85.3382 74.877C85.567 75.1337 86.4974 74.7805 86.2417 74.493C86.1426 74.3824 86.1086 74.2406 86.0686 74.1002ZM88.3721 71.1124C88.5945 71.0989 88.8546 71.0284 89.0219 70.8728C89.2198 70.689 89.4597 70.7142 89.7667 70.7139C89.9747 70.7139 90.2673 70.6275 90.4165 70.4743C90.5775 70.3097 90.2761 70.2892 90.1797 70.2892C89.454 70.2899 88.6862 70.4159 88.1356 70.9269C87.9666 71.0838 88.2821 71.1181 88.3721 71.1124ZM85.8859 71.6654C85.9124 71.4063 85.6322 71.323 85.43 71.323C85.098 71.323 84.7657 71.323 84.4338 71.323C84.2134 71.323 83.9251 71.4913 83.9009 71.7296C83.8744 71.9886 84.1546 72.0719 84.3569 72.0719C84.6888 72.0719 85.0211 72.0719 85.353 72.0719C85.5734 72.0719 85.8617 71.9036 85.8859 71.6654ZM56.0078 121.552C56.2178 121.59 56.5431 121.529 56.6963 121.368C57.1203 120.923 57.3259 120.381 57.591 119.838C57.6891 119.637 57.255 119.635 57.175 119.646C56.9617 119.674 56.7188 119.764 56.6193 119.967C56.411 120.394 56.2548 120.876 55.9205 121.227C55.7878 121.366 55.7915 121.513 56.0078 121.552ZM58.2421 122.669C58.3113 122.825 58.4178 122.886 58.5855 122.902C58.8106 122.925 59.0877 122.843 59.2739 122.718C59.4348 122.609 59.3945 122.5 59.2104 122.48C59.3139 122.491 59.2658 122.5 59.2319 122.44C59.1996 122.384 59.1788 122.32 59.1553 122.26C59.1069 122.136 59.0474 122.023 58.9574 121.923C58.7817 121.73 57.8705 122.075 58.0425 122.265C58.1443 122.377 58.182 122.533 58.2421 122.669ZM57.3249 126.149C58.4652 126.791 59.712 126.843 60.81 126.083C61.3542 125.706 60.5466 125.418 60.174 125.675C59.4876 126.151 58.7719 125.998 58.0812 125.609C57.7327 125.413 56.8649 125.89 57.3249 126.149ZM52.4072 127.645C51.875 127.488 51.1795 127.648 50.9635 128.216C50.7646 128.738 51.7413 128.721 51.8931 128.322C51.8928 128.323 51.8972 128.315 51.9029 128.304C52.1263 128.348 52.3806 128.284 52.5322 128.11C52.6756 127.945 52.6273 127.711 52.4072 127.645ZM177.122 162.818C176.065 163.007 174.902 162.714 174.226 161.945C171.884 163.709 170.342 166.251 167.348 167.034C167.28 167.051 167.218 167.057 167.161 167.055C166.52 167.675 165.817 168.234 165.054 168.717C166.561 169.418 167.547 170.628 168.114 172.138C171.739 170.861 177.334 172.848 176.837 177.448C176.798 177.804 175.815 177.979 175.86 177.557C176.278 173.695 171.503 171.399 168.314 172.652C168.306 172.656 168.297 172.658 168.289 172.66C168.426 173.117 168.531 173.597 168.603 174.095C168.649 174.419 167.67 174.638 167.629 174.356C167.316 172.179 166.365 170.011 164.26 169.115C164.114 169.121 163.987 169.066 163.914 168.982C163.904 168.979 163.894 168.974 163.884 168.971C161.759 168.265 159.49 168.596 157.41 169.303C156.996 169.445 156.392 169.191 157.043 168.969C157.987 168.648 158.993 168.37 160.015 168.209C159.966 168.177 159.933 168.132 159.926 168.068C159.613 165.017 155.332 161.581 152.844 164.755C152.609 165.055 151.677 165.008 152.047 164.536C153.119 163.169 154.598 162.738 156.042 162.947C155.475 161.872 154.703 160.939 153.794 160.222C153.673 160.205 153.583 160.151 153.566 160.05C151.668 158.66 149.226 158.191 146.823 159.261C146.76 159.289 146.696 159.305 146.634 159.311C146.634 164.922 146.634 170.533 146.634 176.145C146.634 176.371 145.986 176.505 145.747 176.462C119.65 176.466 93.5539 176.837 67.4566 176.857C67.34 176.932 67.2046 176.985 67.085 176.985C64.29 176.985 61.495 176.985 58.6997 176.985C58.525 177.054 58.311 177.06 58.1672 176.982C57.8883 176.964 57.8866 176.814 58.0069 176.664C58.0072 175.215 58.0163 173.765 58.2055 172.326C58.2297 172.143 58.4104 172.014 58.611 171.96C58.5962 169.814 58.1346 167.741 57.7811 165.653C56.3193 167.364 54.8343 169.054 53.5502 170.906C55.5496 172.415 56.5246 174.942 55.1504 177.223C55.1115 177.288 55.0409 177.341 54.9559 177.381C55.0486 177.649 54.3538 177.949 54.0881 177.773C51.6815 176.175 49.2749 174.577 46.8686 172.979C46.8323 172.955 46.7957 172.93 46.7591 172.906C46.7406 172.894 46.7221 172.882 46.7037 172.869C46.4849 172.723 46.6103 172.54 46.8256 172.421C47.6141 171.235 48.4104 170.051 49.3508 168.979C49.4781 168.833 49.7231 168.782 49.9284 168.808C51.7688 165.952 52.5698 162.573 54.4587 159.735C54.5282 159.63 54.6414 159.568 54.7647 159.54C54.7933 159.509 54.8255 159.481 54.8615 159.457C54.8628 159.445 54.8642 159.433 54.8655 159.42C54.8558 159.417 54.8457 159.415 54.8363 159.411C51.1563 157.766 47.7341 159.574 46.0089 162.971C47.4872 162.668 49.0132 163.034 50.1185 164.444C50.3927 164.794 49.4577 165.15 49.2205 164.847C46.7702 161.722 42.5187 164.702 42.1915 167.889C42.1774 168.025 42.0413 168.133 41.8753 168.196C43.0052 168.288 44.1607 168.537 45.2815 168.918C45.6463 169.042 44.7627 169.445 44.4973 169.355C42.5305 168.686 40.0396 168.13 38.0227 168.92C35.7549 169.808 34.8118 171.87 34.4839 174.156C34.4419 174.448 33.4672 174.631 33.5152 174.296C33.5992 173.711 33.7282 173.175 33.8969 172.681C33.7887 172.703 33.6869 172.705 33.6154 172.677C30.4743 171.442 25.8382 173.526 26.2531 177.372C26.2958 177.766 25.3181 177.988 25.2798 177.632C24.7849 173.047 30.4441 170.843 34.1294 172.092C34.5037 171.241 35.0073 170.541 35.6134 169.981C34.7033 169.93 33.7864 169.749 32.9411 169.407C31.1271 168.671 29.8222 167.627 28.7014 166.025C27.6588 164.536 28.2885 162.931 28.1739 161.288C27.9794 158.502 25.5123 156.802 23.7168 154.913C22.3027 153.424 20.0046 151.183 20.2855 148.896C20.5556 146.694 23.1195 145.229 25.1296 144.895C30.143 144.064 31.3616 150.391 33.0284 153.766C33.6355 154.995 34.4429 156.037 35.7397 156.611C36.7262 157.048 38.0949 157.282 38.7924 158.19C40.7505 160.737 40.0664 164.713 38.9023 167.632C40.3346 166.487 41.3942 164.973 41.1036 162.997C40.8879 161.532 40.3097 160.184 39.7096 158.841C38.8008 156.808 37.0571 154.071 38.7138 152.038C39.587 150.966 40.5452 149.203 39.802 147.809C39.1267 146.541 37.722 145.678 36.8488 144.539C35.6023 142.914 34.7237 140.908 34.3216 138.902C33.9906 137.252 33.7622 135.004 35.0701 133.684C36.413 132.329 38.4296 132.443 40.1447 132.865C42.5547 133.458 44.3595 136.055 45.4871 138.08C46.8693 140.563 47.972 143.337 48.2643 146.186C50.8026 145.444 51.4483 148.137 51.2293 150.487C50.9699 153.275 50.1719 156.384 48.7094 158.959C50.5392 157.947 52.7163 157.703 54.929 158.541C55.0302 154.807 53.1295 151.472 52.2127 147.876C52.1908 147.869 52.1683 147.861 52.1465 147.853C51.923 147.776 51.8911 147.639 51.9593 147.508C52.2442 146.259 52.6686 145 52.7778 143.72C52.9196 142.058 52.5671 140.517 52.213 138.907C51.6533 136.361 51.2205 133.735 52.7721 131.454C52.8033 131.408 52.8624 131.368 52.936 131.334C52.8661 131.328 52.7959 131.323 52.728 131.313C49.4738 132.675 46.0435 130.577 44.4808 127.629C42.7109 124.288 43.19 120.577 46.5636 118.56C47.9998 115.173 51.2192 112.014 55.2217 112.979C56.3049 113.239 57.9216 113.955 57.9841 115.284C58.0153 115.949 57.7801 116.443 57.4028 116.836C57.6209 116.825 57.8268 116.831 58.0156 116.864C58.0156 95.0789 58.0156 73.2939 58.0156 51.5091C58.0156 51.4389 58.0781 51.3778 58.1709 51.3277C56.6761 50.899 55.3571 50.0466 54.6697 48.5398C53.4833 45.9397 53.7632 42.846 53.7803 40.0517C53.5861 40.0157 53.6533 39.8971 53.8065 39.7883C53.8905 39.6193 54.1916 39.5064 54.4341 39.5175C54.8702 38.7347 55.9605 37.8245 56.4174 37.2812C58.0765 35.3074 59.7446 33.3412 61.414 31.3764C63.8714 28.484 66.3324 25.5943 68.7975 22.7079C68.8455 22.6518 68.9537 22.6031 69.0793 22.5682C69.2053 22.5043 69.3458 22.4573 69.4439 22.4573C79.0414 22.4573 88.6389 22.4573 98.2367 22.4573C98.268 22.4573 98.2992 22.4573 98.3304 22.4573C101.608 22.4573 104.884 22.4573 108.161 22.4573C108.255 22.4442 108.343 22.4435 108.412 22.4573C111.221 22.4573 114.03 22.4573 116.838 22.4573C116.912 22.4573 116.986 22.4573 117.059 22.4573C123.721 22.4573 130.383 22.4573 137.045 22.4573C137.196 22.4344 137.332 22.4465 137.392 22.5167C139.857 25.4031 142.318 28.2922 144.776 31.1853C146.445 33.1504 148.114 35.1159 149.773 37.0901C150.305 37.7244 151.719 38.8687 151.915 39.7103C151.925 39.7533 151.917 39.792 151.896 39.8269C151.913 42.4667 152.304 45.4263 151.258 47.9253C150.389 50.0033 148.657 51.0418 146.636 51.4604C146.636 70.176 146.636 88.8922 146.636 107.608C146.636 124.589 146.636 141.569 146.636 158.55C149.068 157.555 151.531 157.827 153.558 159.003C153.368 155.735 151.298 153.268 149.831 150.377C148.432 147.623 148.237 144.878 148.938 141.902C149.835 138.091 152.355 131.303 157.51 132.841C159.62 133.47 161.572 135.486 160.952 137.805C160.251 140.427 158.24 142.447 157.299 144.968C156.78 146.361 156.513 147.92 157.142 149.332C157.858 150.94 159.391 151.844 160.343 153.267C162.828 156.978 160.172 160.653 159.318 164.397C159.306 164.45 159.27 164.497 159.221 164.54C160.13 165.407 160.773 166.55 160.902 167.808C160.915 167.932 160.836 168.04 160.72 168.118C161.84 168.004 162.968 168.046 164.043 168.344C164.113 168.363 164.178 168.388 164.246 168.409C165.85 167.469 167.181 166.175 168.202 164.665C166.143 161.98 164.584 158.325 164.462 154.916C163.85 154.835 163.273 154.564 162.842 154.049C161.971 153.009 161.913 151.62 162.891 150.657C162.924 150.598 163.004 150.537 163.15 150.477C164.477 149.939 166.171 150.131 167.239 151.144C168.305 152.156 168.114 153.464 166.926 154.289C166.493 154.59 165.978 154.8 165.449 154.892C165.618 157.982 166.947 161.265 168.745 163.787C171.303 159.304 171.348 153.345 168.138 149.17C167.032 149.519 165.751 149.356 164.987 148.392C164.142 147.326 164.118 145.941 165.143 144.992C165.226 144.915 165.409 144.863 165.586 144.847C165.626 144.821 165.674 144.796 165.737 144.77C167.029 144.249 168.732 144.418 169.685 145.534C170.657 146.671 170.201 147.981 169.031 148.748C170.804 151.049 171.613 153.808 171.601 156.583C173.281 154.452 173.678 151.649 174.836 149.206C174.864 149.148 174.91 149.1 174.966 149.059C174.794 148.933 174.633 148.786 174.492 148.607C173.646 147.541 173.622 146.156 174.647 145.207C174.706 145.153 174.812 145.112 174.931 145.086C174.974 145.054 175.034 145.022 175.112 144.991C176.406 144.468 178.073 144.644 179.071 145.698C180.149 146.838 179.729 148.228 178.457 149.016C177.657 149.51 176.616 149.699 175.721 149.43C174.425 152.223 174.043 155.429 171.727 157.647C171.679 157.692 171.617 157.725 171.548 157.75C171.289 160.747 170.094 163.686 168.144 166.005C170.373 164.989 171.773 162.788 173.759 161.353C173.783 161.335 173.809 161.321 173.835 161.308C173.753 161.108 173.694 160.891 173.667 160.652C173.518 159.306 174.222 158.217 175.462 157.798C175.592 157.639 176.008 157.447 176.199 157.47C178.952 157.807 180.571 162.205 177.122 162.818ZM178.108 148.549C179.903 146.929 177.295 144.65 175.491 145.378C175.452 145.394 175.411 145.404 175.37 145.413C173.733 147.05 176.235 150.239 178.108 148.549ZM167.981 148.726C168.056 148.599 168.242 148.498 168.433 148.463C169.285 147.817 169.59 146.755 168.778 145.911C168.111 145.218 167.057 144.778 166.117 145.157C166.032 145.191 165.942 145.207 165.856 145.208C164.471 146.624 166.204 149.441 167.981 148.726ZM164.981 154.398C165.118 154.372 165.251 154.376 165.336 154.419C165.689 154.399 166.05 154.259 166.391 153.955C168.223 152.318 165.384 150.274 163.656 150.82C162.456 152.052 163.565 154.152 164.981 154.398ZM36.1698 169.529C36.2296 169.485 36.2891 169.443 36.3502 169.401C31.3552 163.179 28.5858 155.572 24.7473 148.653C24.6075 148.401 25.5442 148.073 25.7206 148.392C29.5181 155.236 32.2624 162.76 37.1807 168.93C37.2856 168.88 37.3911 168.832 37.4986 168.787C37.4992 168.785 37.4986 168.784 37.4996 168.782C38.2599 167.182 38.8042 165.411 38.9402 163.638C39.0639 162.027 39.0468 159.467 37.6615 158.317C35.985 156.926 33.7232 156.963 32.5087 154.879C30.9393 152.187 29.3703 144.03 24.7997 145.374C21.9378 146.216 20.3698 148.548 21.9704 151.244C23.2723 153.437 25.2378 155.124 26.9755 156.956C27.5799 157.593 28.2451 158.255 28.6695 159.034C29.3824 160.344 29.0528 161.766 29.0293 163.172C28.9688 166.852 32.8006 169.3 36.1698 169.529ZM39.1109 168.314C39.0877 168.283 39.0763 168.249 39.0793 168.211C39.0044 168.264 38.9292 168.316 38.8526 168.368C38.9382 168.35 39.0239 168.33 39.1109 168.314ZM41.2682 168.163C41.2266 168.121 41.2031 168.064 41.2108 167.988C41.237 167.733 41.287 167.481 41.3559 167.234C40.9813 167.567 40.5822 167.885 40.1578 168.184C40.5224 168.159 40.8933 168.152 41.2682 168.163ZM44.9284 163.313C44.9052 163.252 44.9079 163.177 44.9515 163.085C45.4451 162.042 46.0918 161.124 46.8518 160.364C48.5206 158.141 49.4751 155.211 49.9707 152.559C50.2364 151.138 51.0438 145.482 48.0099 146.891C47.8645 146.958 47.7096 146.965 47.5849 146.934C47.4415 146.931 47.3309 146.889 47.3232 146.793C47.1021 143.996 46.0865 141.169 44.7281 138.729C43.3711 136.291 41.408 133.458 38.3882 133.135C32.7153 132.528 35.6238 141.078 37.3077 143.549C38.4242 145.188 41.1661 146.653 40.9709 148.875C40.772 151.141 38.4195 152.496 39.1734 154.813C40.0184 157.408 41.833 159.984 42.0763 162.737C42.2389 164.58 41.542 165.978 40.3984 167.12C48.6903 160.097 44.9032 144.793 39.1291 137.308C38.8452 136.94 39.7782 136.576 40.0248 136.896C45.1437 143.531 48.5267 155.75 44.1519 163.714C44.4026 163.561 44.6626 163.428 44.9284 163.313ZM141.449 51.3197C139.967 50.8883 138.661 50.0366 137.978 48.5398C137.811 48.1736 137.676 47.7969 137.562 47.4129C137.504 47.5856 137.441 47.7566 137.371 47.925C136.271 50.5533 133.793 51.5233 131.092 51.6721C128.455 51.8176 125.301 51.1866 124.093 48.5395C123.926 48.1732 123.791 47.7966 123.677 47.4129C123.619 47.5853 123.556 47.7563 123.486 47.9246C122.386 50.553 119.908 51.5229 117.207 51.6718C114.57 51.8172 111.416 51.1863 110.208 48.5391C110.041 48.1729 109.906 47.7963 109.792 47.4123C109.734 47.5849 109.671 47.7556 109.6 47.9243C108.5 50.5526 106.023 51.5226 103.322 51.6714C100.685 51.8169 97.5308 51.1859 96.3227 48.5388C96.1557 48.1726 96.0203 47.7959 95.9064 47.4126C95.8486 47.5853 95.7858 47.7556 95.7152 47.924C94.6156 50.5523 92.1374 51.5223 89.4371 51.6711C86.7997 51.8166 83.6459 51.1856 82.4378 48.5385C82.2704 48.1722 82.135 47.7956 82.0211 47.4116C81.9634 47.5843 81.9002 47.7553 81.8296 47.9236C80.7293 50.552 78.2515 51.5219 75.5513 51.6708C72.9138 51.8162 69.7604 51.1853 68.5522 48.5381C68.3849 48.1719 68.2495 47.7953 68.1356 47.4113C68.0778 47.5839 68.0146 47.755 67.9441 47.9233C67.0813 49.9852 65.3692 51.0237 63.3684 51.4483C63.3684 74.4217 63.3684 97.3951 63.3684 120.369C63.3684 120.37 63.3681 120.37 63.3681 120.371C63.8408 120.371 64.3139 120.371 64.7869 120.371C64.793 117.668 64.8413 114.963 64.8817 112.26C64.9169 109.893 66.1221 107.702 68.3577 107.016C68.3577 106.081 68.3577 105.146 68.3577 104.21C68.3577 103.955 68.7629 103.794 69.0525 103.838C71.4937 103.838 73.9345 103.838 76.3757 103.838C76.4359 103.838 76.496 103.838 76.5565 103.838C76.5736 103.838 76.5864 103.84 76.6018 103.841C76.79 103.852 76.8592 103.923 76.8511 104.016C76.8632 104.047 76.8723 104.08 76.8723 104.12C76.8723 105.057 76.8723 105.994 76.8723 106.931C77.1539 106.996 77.4183 107.083 77.6608 107.195C77.6548 107.109 77.7059 107.013 77.8426 106.916C78.9977 106.097 80.0926 105.521 81.0492 104.413C82.1693 103.117 83.2085 101.713 83.8737 100.122C85.0291 97.3575 85.725 93.9483 85.9527 90.9487C86.1348 88.5469 86.2353 86.2461 87.1377 84.3781C82.5422 85.5294 80.7327 79.5971 80.1088 75.8711C79.2289 70.6161 79.6959 63.9705 84.6172 60.7391C87.6236 58.7652 91.2289 58.7679 94.6824 59.2988C96.5175 59.581 98.3785 60.2744 99.6391 61.6859C100.859 63.0513 101.866 65.0829 103.731 65.6685C107.334 66.7988 114.9 66.1305 116.234 70.8144C116.976 73.4195 115.842 76.5266 113.822 78.2505C113.56 78.4743 113.281 78.6772 112.989 78.8613C117.517 79.5729 119.877 83.5862 121.111 87.8272C122.991 94.2927 124.824 100.799 126.164 107.402C126.442 107.245 126.741 107.115 127.062 107.017C127.062 106.081 127.062 105.146 127.062 104.211C127.062 103.956 127.467 103.795 127.757 103.839C130.198 103.839 132.639 103.839 135.08 103.839C135.14 103.839 135.2 103.839 135.261 103.839C135.278 103.839 135.291 103.841 135.306 103.842C135.495 103.852 135.564 103.923 135.555 104.017C135.567 104.048 135.576 104.081 135.576 104.12C135.576 105.056 135.576 105.992 135.576 106.928C135.576 106.929 135.575 106.93 135.575 106.931C138.092 107.508 139.023 110.105 139.058 112.494C139.096 115.119 139.143 117.746 139.148 120.372C139.858 120.372 140.568 120.372 141.278 120.372C141.278 97.4173 141.278 74.4624 141.278 51.5078C141.277 51.4349 141.348 51.3711 141.449 51.3197ZM69.3394 104.494C69.3394 105.212 69.3394 105.93 69.3394 106.648C71.5232 106.648 73.7067 106.648 75.8903 106.648C75.8903 105.93 75.8903 105.212 75.8903 104.494C73.7064 104.494 71.5229 104.494 69.3394 104.494ZM65.8335 113.705C65.8335 113.714 65.8335 113.723 65.8331 113.732C65.9148 113.676 66.0146 113.634 66.1258 113.621C67.5362 113.455 68.6231 114.115 69.1684 115.325C69.8659 115.014 70.6635 114.836 71.367 114.95C72.3242 113.364 74.6317 113.029 76.3348 113.367C77.2906 112.897 78.4497 112.786 79.3841 113.163C79.3364 110.898 78.8378 108.113 76.3368 107.486C76.1869 107.498 76.0441 107.467 75.9618 107.382C75.9222 107.36 75.902 107.333 75.9 107.302C73.6839 107.302 71.4678 107.302 69.2514 107.302C69.1082 107.448 68.82 107.521 68.609 107.475C65.9356 108.105 65.8647 111.497 65.8335 113.705ZM128.043 104.494C128.043 105.212 128.043 105.93 128.043 106.648C130.227 106.648 132.41 106.648 134.594 106.648C134.594 105.93 134.594 105.212 134.594 104.494C132.41 104.494 130.227 104.494 128.043 104.494ZM124.545 113.239C126.243 111.882 128.737 111.414 130.802 111.321C133.166 111.215 136.02 111.363 138.074 112.741C137.969 110.485 137.352 107.888 134.788 107.423C134.66 107.4 134.608 107.355 134.604 107.302C132.33 107.302 130.056 107.302 127.781 107.302C127.697 107.362 127.596 107.41 127.487 107.43C124.825 107.912 124.59 110.995 124.545 113.239ZM94.2799 114.758C94.2729 114.266 94.2658 113.774 94.2588 113.282C94.2255 110.997 93.7528 108.123 91.2081 107.486C91.0576 107.497 90.9144 107.466 90.8325 107.381C90.7932 107.359 90.7737 107.332 90.7713 107.302C88.5552 107.302 86.3391 107.302 84.1227 107.302C83.9796 107.447 83.6913 107.52 83.4803 107.474C80.8066 108.104 80.7357 111.497 80.7045 113.705C80.695 114.374 80.6856 115.044 80.6759 115.714C81.584 115.37 82.5349 114.935 83.4682 114.972C83.7951 114.984 84.0955 115.064 84.3767 115.188C85.1128 114.255 85.8355 113.311 86.5756 112.381C86.7268 112.192 87.0383 112.111 87.2641 112.197C88.1541 112.537 89.0719 113.105 89.7869 113.744C90.2381 113.516 90.6977 113.306 91.1762 113.134C91.3468 113.072 91.669 112.978 91.8199 113.141C92.3393 113.7 92.7831 114.378 93.0751 115.088C93.4682 114.956 93.8693 114.846 94.2799 114.758ZM84.2107 104.494C84.2107 105.212 84.2107 105.93 84.2107 106.648C86.3942 106.648 88.5777 106.648 90.7612 106.648C90.7612 105.93 90.7612 105.212 90.7612 104.494C88.5777 104.494 86.3942 104.494 84.2107 104.494ZM96.9358 107.407C97.2157 107.249 97.5164 107.117 97.8396 107.018C97.8396 106.083 97.8396 105.148 97.8396 104.212C97.8396 103.957 98.2448 103.796 98.5344 103.84C100.785 103.84 103.037 103.84 105.289 103.84C103.754 95.8396 102.323 88.0983 104.371 80.0376C103.482 79.8561 102.643 79.5964 101.844 79.2746C101.858 81.5602 101.702 84.6448 98.7558 84.3555C98.4601 84.3263 98.4198 84.1912 98.5018 84.0545C98.4759 84.0347 98.4568 84.0105 98.4501 83.9786C98.2266 82.9515 97.8923 81.4836 96.8975 80.8832C93.1883 89.2665 95.0174 98.7814 96.9358 107.407ZM98.8213 106.648C101.005 106.648 103.189 106.648 105.372 106.648C105.372 105.93 105.372 105.212 105.372 104.494C103.189 104.494 101.005 104.494 98.8213 104.494C98.8213 105.211 98.8213 105.93 98.8213 106.648ZM91.916 80.9094C93.3735 80.5372 95.1034 79.7681 96.6412 80.0806C98.4558 80.4502 99.0629 82.0612 99.4234 83.7179C99.4247 83.7246 99.4234 83.731 99.4237 83.7373C101.131 83.5677 100.914 80.349 100.866 78.8381C95.9242 76.4158 92.6272 71.4779 89.1633 67.0255C87.8621 69.1993 85.5946 70.3544 83.1205 70.7136C83.5387 74.9092 86.0314 81.4 90.8654 81.0798C90.8943 81.0778 90.9239 81.0737 90.9531 81.0714C91.2645 81.0455 91.5847 80.9941 91.916 80.9094ZM95.354 112.36C99.8148 112.36 104.276 112.36 108.736 112.36C108.771 112.36 108.801 112.363 108.831 112.367C108.68 110.286 108.033 108.041 105.819 107.486C105.669 107.498 105.525 107.467 105.443 107.382C105.404 107.36 105.384 107.333 105.382 107.302C103.166 107.302 100.95 107.302 98.7333 107.302C98.5902 107.448 98.3019 107.521 98.0909 107.475C95.9202 107.986 95.4629 110.316 95.354 112.36ZM113.433 104.494C113.433 105.324 113.433 106.154 113.433 106.984C115.616 106.984 117.8 106.984 119.983 106.984C119.983 106.154 119.983 105.324 119.983 104.494C117.8 104.494 115.616 104.494 113.433 104.494ZM110.131 110.82C111.446 110.178 112.906 110.108 114.334 110.614C117.233 111.642 120.29 114.317 123.175 111.727C123.211 111.695 123.281 111.665 123.366 111.639C123.127 109.849 122.44 108.094 120.629 107.535C120.524 107.597 120.406 107.638 120.299 107.638C117.788 107.638 115.277 107.638 112.766 107.638C112.599 107.638 112.512 107.596 112.482 107.533C111.008 107.988 110.391 109.342 110.131 110.82ZM125.301 108.035C125.275 108.009 125.256 107.978 125.248 107.939C124.007 101.762 122.297 95.6907 120.578 89.6334C119.288 85.0907 117.365 79.8709 111.998 79.3938C110.078 80.264 107.784 80.4723 105.771 80.256C105.611 80.2388 105.456 80.2153 105.299 80.1935C103.316 88.2566 104.811 96.0176 106.35 104.036C106.356 104.065 106.357 104.094 106.354 104.121V104.121C106.354 105.058 106.354 105.995 106.354 106.932C107.967 107.303 108.928 108.5 109.418 109.945C109.957 108.569 110.981 107.468 112.451 107.018C112.451 106.082 112.451 105.147 112.451 104.212C112.451 103.957 112.856 103.796 113.146 103.84C113.467 103.84 113.787 103.84 114.108 103.84C112.685 99.0055 111.701 94.1136 110.8 89.158C110.716 88.6967 111.692 88.4474 111.774 88.8969C112.688 93.9305 113.686 98.8993 115.146 103.809C115.15 103.819 115.149 103.83 115.151 103.84C116.923 103.84 118.696 103.84 120.469 103.84C120.529 103.84 120.589 103.84 120.65 103.84C120.666 103.84 120.679 103.842 120.694 103.843C120.884 103.853 120.953 103.925 120.944 104.018C120.956 104.049 120.965 104.082 120.965 104.122C120.965 105.059 120.965 105.996 120.965 106.933C122.578 107.303 123.538 108.5 124.029 109.945C124.316 109.21 124.743 108.556 125.301 108.035ZM87.1441 87.5167C86.9469 89.6673 86.8135 91.7158 86.4382 93.8496C85.9259 96.7642 85.394 99.6771 83.7645 102.209C82.9054 103.543 81.9086 104.775 80.774 105.886C80.0816 106.564 79.2766 106.837 78.4957 107.391C78.403 107.457 78.2905 107.486 78.1783 107.49C79.1408 108.137 79.7389 109.179 80.0577 110.341C80.5469 108.783 81.6207 107.51 83.229 107.017C83.229 106.082 83.229 105.147 83.229 104.211C83.229 103.957 83.6342 103.796 83.9238 103.839C86.365 103.839 88.8055 103.839 91.2467 103.839C91.3072 103.839 91.3673 103.839 91.4278 103.839C91.4446 103.839 91.4574 103.841 91.4725 103.843C91.6617 103.853 91.7309 103.924 91.7221 104.018C91.7342 104.048 91.743 104.081 91.743 104.121C91.743 105.058 91.743 105.995 91.743 106.932C92.0615 107.005 92.3551 107.11 92.6239 107.243C91.2813 101.353 88.6896 95.3621 90.4891 89.3135C90.561 89.0716 91.5044 88.951 91.4483 89.1388C89.541 95.5503 92.6249 101.924 93.8458 108.152C93.8485 108.166 93.8472 108.18 93.8431 108.193C94.2712 108.691 94.5857 109.293 94.8064 109.944C95.089 109.223 95.5059 108.578 96.0495 108.061C94.0709 99.2 92.1035 89.3518 96.0636 80.7391C96.0848 80.6931 96.1311 80.6527 96.1906 80.6178C95.3208 80.4273 94.4267 80.6685 93.5673 80.9094C92.8661 81.106 92.1545 81.318 91.4359 81.4624C91.4181 81.5575 91.3388 81.6519 91.1688 81.7228C88.5928 82.7963 87.3931 84.8031 87.1441 87.5167ZM65.7602 120.373C70.3295 120.373 74.8991 120.373 79.4684 120.373C79.4634 118.241 79.4298 116.11 79.3978 113.978C79.2772 113.995 79.1606 113.984 79.0763 113.93C77.8073 113.115 75.7693 113.979 75.5247 115.478C75.4572 115.892 74.4647 116.032 74.541 115.563C74.6488 114.9 75.0157 114.336 75.521 113.9C74.2416 113.714 72.7633 114.013 72.1569 115.242C72.4761 115.445 72.7452 115.749 72.93 116.187C73.018 116.395 72.0668 116.71 71.9566 116.448C71.4651 115.281 70.3309 115.102 69.3149 115.703C69.3243 115.732 69.3354 115.759 69.3444 115.788C69.461 116.168 68.49 116.437 68.3711 116.049C68.0311 114.939 67.2489 114.087 66.0125 114.233C65.9383 114.241 65.8778 114.24 65.8261 114.234C65.7965 116.28 65.7639 118.326 65.7602 120.373ZM80.6309 120.373C85.177 120.373 89.7231 120.373 94.2688 120.373C94.2719 119.024 94.2846 117.675 94.3031 116.326C94.2977 115.957 94.2923 115.588 94.287 115.219C93.355 115.414 92.4888 115.755 91.6627 116.239C91.3754 116.407 90.5052 116.329 91.0713 115.997C91.4221 115.792 91.7809 115.611 92.1461 115.449C91.9005 114.818 91.5236 114.229 91.0801 113.713C90.6467 113.896 90.227 114.107 89.8121 114.328C89.7503 114.376 89.6777 114.416 89.5998 114.443C89.0945 114.716 88.5939 115 88.0825 115.263C87.769 115.424 86.8975 115.28 87.4804 114.981C87.9636 114.734 88.4373 114.467 88.9137 114.206C88.3839 113.754 87.7509 113.34 87.1129 113.043C86.4376 113.9 85.7717 114.764 85.0943 115.619C85.5093 115.934 85.8812 116.324 86.2343 116.696C86.58 117.062 85.6598 117.465 85.345 117.133C84.6313 116.379 83.7988 115.455 82.6649 115.806C81.9906 116.015 81.3351 116.272 80.6648 116.492C80.6473 117.786 80.6332 119.079 80.6309 120.373ZM108.879 120.373C108.882 119.025 108.896 117.677 108.914 116.328C108.9 115.313 108.884 114.298 108.87 113.283C108.869 113.212 108.866 113.139 108.864 113.067C108.803 113.09 108.735 113.104 108.659 113.104C104.214 113.104 99.7704 113.104 95.3265 113.104C95.3214 113.311 95.3181 113.514 95.3151 113.705C95.303 114.551 95.2909 115.397 95.2794 116.244C95.2979 117.62 95.312 118.996 95.3144 120.373C99.8363 120.373 104.358 120.373 108.879 120.373ZM123.491 120.373C123.494 119.024 123.507 117.676 123.525 116.327C123.517 115.722 123.508 115.117 123.499 114.512C123.467 114.474 123.463 114.423 123.496 114.358C123.491 113.999 123.486 113.641 123.481 113.283C123.476 112.916 123.457 112.533 123.423 112.146C122.025 113.142 120.318 113.583 118.599 113.099C116.104 112.397 112.767 109.503 110.21 111.208C110.182 111.227 110.129 111.246 110.063 111.265C109.953 112.113 109.937 112.974 109.927 113.705C109.915 114.552 109.902 115.4 109.891 116.247C109.909 117.623 109.923 118.998 109.926 120.373C114.447 120.373 118.969 120.373 123.491 120.373ZM138.172 120.373C138.166 118.178 138.131 115.984 138.099 113.789C138.022 113.779 137.953 113.755 137.905 113.71C136.236 112.162 133.533 111.852 131.355 111.9C129.082 111.949 126.026 112.3 124.53 114.251C124.52 114.915 124.511 115.579 124.502 116.243C124.52 117.62 124.534 118.996 124.537 120.373C129.081 120.373 133.627 120.373 138.172 120.373ZM62.2553 51.0526C66.7856 50.6178 67.5443 47.1616 67.6293 43.5341C67.6195 42.9958 67.6236 42.4573 67.633 41.9227C67.6249 41.2945 67.6108 40.6743 67.6061 40.0759C67.5557 40.0776 67.5033 40.0749 67.4576 40.0634C63.226 40.0634 58.9947 40.0634 54.7627 40.0634C54.76 40.0634 54.757 40.0634 54.7543 40.0634C54.7536 40.1535 54.7526 40.2435 54.7513 40.3346C54.7153 42.67 54.5306 45.2019 55.2973 47.417C56.3381 50.4243 59.2628 51.3398 62.2553 51.0526ZM108.601 22.9323C109.072 26.3832 109.517 29.838 109.91 33.2982C110.123 35.1834 110.4 37.0985 110.423 38.9987C110.425 39.1765 110.398 39.3922 110.335 39.588C114.696 39.588 119.056 39.588 123.417 39.588C123.449 39.5749 123.481 39.5632 123.516 39.5531C123.368 38.818 122.582 37.4045 122.425 37.0272C121.611 35.0655 120.77 33.1148 119.923 31.1671C118.727 28.4168 117.52 25.6719 116.3 22.9323C113.734 22.9323 111.167 22.9323 108.601 22.9323ZM127.877 22.9323C129.612 25.7357 131.341 28.5432 133.059 31.357C134.24 33.2902 135.42 35.224 136.574 37.173C136.833 37.6108 137.9 38.905 137.984 39.588C142.219 39.588 146.455 39.588 150.69 39.588C150.539 39.416 150.36 39.245 150.266 39.1314C149.695 38.4407 149.119 37.7543 148.541 37.0689C146.916 35.139 145.284 33.2149 143.65 31.2924C141.28 28.5028 138.907 25.7163 136.529 22.9327C133.645 22.9324 130.761 22.9323 127.877 22.9323ZM150.917 40.0634C146.633 40.0634 142.349 40.0634 138.065 40.0634C138.061 40.4626 138.052 40.8678 138.043 41.2767C138.078 42.34 138.121 43.4299 138.065 44.5017C138.133 45.5039 138.286 46.4883 138.608 47.417C139.649 50.4243 142.573 51.3398 145.566 51.0526C151.56 50.4774 150.953 44.6153 150.917 40.0634ZM124.18 40.0634C124.176 40.4612 124.167 40.8641 124.158 41.272C124.194 42.337 124.237 43.4293 124.18 44.5027C124.248 45.5046 124.402 46.4887 124.723 47.417C125.764 50.4243 128.688 51.3398 131.681 51.0526C136.211 50.6178 136.97 47.1616 137.054 43.5344C137.045 42.9962 137.049 42.458 137.058 41.9231C137.05 41.2901 137.036 40.6659 137.031 40.0634C132.748 40.0634 128.464 40.0634 124.18 40.0634ZM96.6425 39.5877C96.5844 39.5575 96.4843 39.537 96.321 39.5867L96.322 39.5877C96.4292 39.5877 96.536 39.5877 96.6425 39.5877ZM82.5244 40.0634C82.5204 40.4612 82.5117 40.8644 82.5023 41.272C82.5382 42.337 82.5812 43.4293 82.5251 44.5027C82.5933 45.5042 82.7462 46.4887 83.0677 47.417C84.1089 50.4243 87.0336 51.3398 90.0261 51.0526C94.5537 50.6181 95.3137 47.166 95.3994 43.5415C95.3893 42.9975 95.3937 42.4529 95.4031 41.9123C95.395 41.2834 95.3809 40.6622 95.3762 40.0634C91.0922 40.0634 86.8081 40.0634 82.5244 40.0634ZM96.4097 44.5034C96.4779 45.5049 96.6307 46.489 96.9523 47.417C97.9935 50.4243 100.918 51.3398 103.911 51.0526C108.444 50.6178 109.201 47.1566 109.285 43.5267C109.275 42.9945 109.279 42.462 109.288 41.9338C109.28 41.2972 109.266 40.6692 109.261 40.0638C104.977 40.0638 100.693 40.0638 96.409 40.0638C96.405 40.4616 96.3962 40.8648 96.3868 41.2723C96.4231 42.3373 96.4658 43.4299 96.4097 44.5034ZM109.53 39.5877C109.531 39.5877 109.532 39.5877 109.532 39.5877C109.617 39.5524 109.711 39.5286 109.804 39.5205C109.836 39.5175 109.866 39.5168 109.895 39.5175C109.928 39.5155 109.96 39.5155 109.991 39.5182C109.921 39.4956 109.858 39.4825 109.803 39.4809C109.672 39.4772 109.586 39.5262 109.53 39.5877ZM110.295 40.0634C110.291 40.4643 110.282 40.8715 110.272 41.2827C110.308 42.3434 110.351 43.4309 110.295 44.4993C110.363 45.5026 110.516 46.4876 110.838 47.417C111.879 50.4243 114.803 51.3398 117.796 51.0526C122.325 50.6181 123.084 47.165 123.17 43.5395C123.16 42.9969 123.164 42.4536 123.174 41.914C123.165 41.2844 123.151 40.6628 123.147 40.0634C118.863 40.0634 114.579 40.0634 110.295 40.0634ZM107.592 22.9323C104.566 22.9323 101.54 22.9323 98.5139 22.9323C98.1581 25.5395 97.8198 28.1487 97.5029 30.7606C97.2678 32.6992 97.0353 34.6394 96.8559 36.5841C96.7863 37.3377 96.71 38.0946 96.6906 38.8516C96.6852 39.0525 96.6748 39.2571 96.6942 39.4573C96.7003 39.5172 96.706 39.5591 96.7104 39.588C100.956 39.588 105.202 39.588 109.448 39.588C109.449 39.5645 109.45 39.5444 109.45 39.5158C109.451 39.2709 109.445 39.027 109.431 38.7827C109.395 38.1168 109.34 37.4519 109.277 36.7877C109.092 34.8434 108.866 32.9028 108.629 30.9642C108.303 28.2848 107.958 25.6071 107.592 22.9323ZM87.8655 22.9323C86.9519 25.6507 86.0519 28.3742 85.1696 31.1026C84.55 33.0184 83.9318 34.9354 83.3567 36.865C83.1601 37.5235 82.9612 38.1827 82.7936 38.8492C82.7428 39.0505 82.6887 39.2524 82.6538 39.4573C82.6437 39.5155 82.638 39.5555 82.634 39.5877C86.9718 39.5877 91.3092 39.5877 95.647 39.5877C95.6564 39.5837 95.6655 39.5793 95.6752 39.5756C95.6897 39.5699 95.7048 39.5659 95.7199 39.5608C95.7135 39.5007 95.7095 39.4389 95.7078 39.3747C95.7011 39.1052 95.7297 38.8143 95.7414 38.5999C95.8466 36.6825 96.0811 34.7685 96.3035 32.8615C96.6902 29.5477 97.1152 26.2377 97.5668 22.932C94.333 22.9323 91.0992 22.9323 87.8655 22.9323ZM82.3568 39.5333C82.3491 39.5343 82.3393 39.5373 82.3316 39.5387C82.339 39.541 82.3467 39.5434 82.3541 39.5457C82.385 39.5568 82.4139 39.5699 82.4378 39.5877C82.4824 39.5877 82.5271 39.5877 82.5722 39.5877C82.5355 39.5511 82.472 39.5182 82.3568 39.5333ZM68.6392 40.0634C68.6352 40.4626 68.6264 40.8681 68.6167 41.2773C68.653 42.3404 68.6957 43.4299 68.6395 44.5014C68.7077 45.5036 68.8606 46.4883 69.1821 47.417C70.223 50.4243 73.1477 51.3398 76.1402 51.0526C80.6688 50.6181 81.4288 47.165 81.5145 43.5398C81.5044 42.9965 81.5088 42.4529 81.5182 41.913C81.5101 41.2837 81.496 40.6625 81.4913 40.0634C77.2073 40.0634 72.9232 40.0634 68.6392 40.0634ZM62.5171 31.1006C60.8298 33.0866 59.1425 35.0732 57.4656 37.0686C56.9664 37.6626 55.6329 38.8062 55.2966 39.5877C59.328 39.5877 63.3593 39.5877 67.3904 39.5877C67.6283 38.8234 68.6342 37.591 68.8855 37.169C70.015 35.2721 71.1624 33.3852 72.3138 31.5008C74.0619 28.6389 75.819 25.7831 77.5842 22.9323C74.8813 22.9323 72.1784 22.9323 69.4751 22.9323C67.1525 25.6524 64.8326 28.3748 62.5171 31.1006ZM117.389 22.9323C118.614 25.685 119.829 28.4427 121.028 31.2068C121.894 33.2048 122.762 35.2035 123.585 37.2194C123.747 37.6159 124.536 38.9625 124.515 39.5877C128.664 39.5877 132.813 39.5877 136.963 39.5877C136.7 38.8469 135.595 37.4227 135.35 37.0128C134.162 35.0208 132.955 33.0402 131.745 31.0616C130.086 28.3473 128.418 25.6373 126.743 22.9323C123.625 22.9323 120.507 22.9323 117.389 22.9323ZM86.9476 22.9323C84.119 22.9323 81.2901 22.9323 78.4615 22.9323C76.8162 25.5896 75.1773 28.2512 73.5475 30.9182C72.3071 32.9475 71.0666 34.9774 69.8521 37.0225C69.6088 37.4317 68.4897 38.8744 68.3352 39.5185C68.4205 39.5245 68.4971 39.5467 68.5525 39.588C72.9424 39.588 77.3323 39.588 81.7221 39.588C81.7393 39.3498 81.8055 39.072 81.8673 38.8408C82.382 36.912 82.9982 35.0083 83.6059 33.1071C84.6925 29.7063 85.81 26.3156 86.9476 22.9323ZM58.7884 117.138C59.9704 117.816 60.5032 119.446 61.3321 120.633C61.663 120.474 62.0343 120.346 62.3954 120.314C62.3954 97.4116 62.3954 74.5101 62.3954 51.6079C62.1545 51.6358 61.912 51.6587 61.6667 51.6721C60.7999 51.7201 59.878 51.6812 58.9869 51.5172C58.9869 73.3234 58.9869 95.1296 58.9869 116.936C58.9866 117.016 58.904 117.085 58.7884 117.138ZM56.8364 117.294C56.2044 117.707 55.4155 117.991 54.7325 118.287C55.1316 118.278 55.6279 118.336 55.6675 118.705C55.7189 119.182 55.2875 119.596 54.9341 119.85C54.0615 120.476 52.8661 120.565 51.7638 120.453C52.387 121.108 53.0775 121.77 53.3184 122.639C53.701 124.02 53.7249 125.559 53.2068 126.904C53.1433 127.069 52.8107 127.177 52.551 127.193C52.3585 127.262 52.1559 127.298 52.0635 127.234C51.7433 127.011 51.3341 126.755 50.9887 127.081C50.7871 127.271 50.607 127.497 50.5015 127.756C50.2889 128.277 50.2327 128.946 50.6191 129.412C51.2954 130.226 53.0805 130.433 53.3399 129.157C53.3849 128.935 54.335 128.788 54.2974 128.975C54.1361 129.769 53.2512 130.264 52.2809 130.419C52.6367 130.602 53.0042 130.76 53.4084 130.774C53.4551 130.776 53.5082 130.786 53.5572 130.804C58.1756 131.278 65.2882 128.575 62.4146 122.863C62.4075 122.849 62.4025 122.836 62.3954 122.822C62.3914 122.814 62.3911 122.805 62.389 122.797C62.3759 122.748 62.3958 122.699 62.4391 122.652C62.6783 122.25 63.0019 121.534 62.6383 121.108C62.6088 121.073 62.5762 121.051 62.5443 121.026C62.4656 121.026 62.3867 121.026 62.3081 121.026C62.1549 121.026 62.0709 120.99 62.0346 120.936C61.8092 120.993 61.5814 121.135 61.3952 121.255C61.2111 121.374 60.9104 121.447 60.7045 121.341C60.6504 121.313 60.6211 121.279 60.6087 121.241C59.6885 120.056 58.9174 117.066 57.0259 117.287C56.9486 117.297 56.8871 117.298 56.8364 117.294ZM68.1651 126.778C66.4856 127.838 64.6266 128.601 63.2932 130.12C63.2834 130.131 63.2717 130.14 63.2606 130.15C64.5272 131.166 65.3272 132.866 65.734 134.542C66.4829 134.193 67.7267 132.814 68.2102 132.325C69.5752 130.944 70.8583 129.49 72.1112 128.007C72.0823 127.918 72.1253 127.813 72.2913 127.707C73.2384 127.102 74.4029 126.502 75.139 125.631C75.7774 124.875 75.564 124.037 74.5114 123.81C73.9678 123.692 74.2876 122.759 74.0054 122.749C73.2538 122.72 72.4764 123.498 72.0547 124.033C71.9284 124.193 71.669 124.247 71.4594 124.213C71.2313 124.265 71.0001 124.251 70.9608 124.116C70.8674 123.794 70.7236 123.28 70.4447 122.978C69.972 124.356 69.4583 125.962 68.1651 126.778ZM53.6234 140.683C53.9816 143.02 53.4585 145.022 52.9508 147.275C56.7265 148.58 61.4977 150.074 64.7919 147.338C64.8309 147.208 64.9552 147.113 65.1034 147.062C65.2364 146.937 65.3661 146.803 65.4935 146.663C65.4834 146.632 65.4763 146.599 65.476 146.561C65.4508 143.772 64.8507 141.356 63.8277 138.808C62.555 139.665 61.1943 140.373 59.6854 140.756C59.083 140.909 58.9006 140.238 59.5054 140.084C61.619 139.547 63.3997 138.301 65.0735 136.949C65.0463 136.363 64.966 135.721 64.8229 135.064C64.8212 135.055 64.8198 135.047 64.8178 135.039C64.3199 132.774 63.1067 130.371 60.989 129.756C60.9611 129.748 60.9467 129.736 60.9386 129.723C58.8109 130.899 55.9954 131.438 53.7477 131.368C53.734 131.368 53.7209 131.367 53.7074 131.367C53.7071 131.37 53.7067 131.373 53.7064 131.375C53.7027 131.4 53.6936 131.427 53.6721 131.458C51.7094 134.343 53.1497 137.592 53.6234 140.683ZM55.8234 159.501C58.7709 160.186 61.6657 160.733 64.6401 159.888C65.48 156.079 64.9052 152.141 64.7946 148.274C61.4859 150.453 57.1361 149.499 53.361 148.264C54.4335 152.007 56.3546 155.5 55.8234 159.501ZM52.7183 171.378C52.6995 171.369 52.681 171.361 52.6622 171.352C52.515 171.357 52.4112 171.342 52.4321 171.311C52.4435 171.294 52.4556 171.278 52.467 171.261C51.5713 170.821 50.7347 170.257 49.9058 169.702C49.8806 169.697 49.8565 169.69 49.8329 169.682C49.0807 170.593 48.4107 171.566 47.7563 172.548C49.9529 174.008 52.1498 175.467 54.3471 176.926C55.4145 174.897 54.5013 172.69 52.7183 171.378ZM57.6635 164.925C57.4599 163.591 57.3272 162.247 57.4153 160.869C57.42 160.793 57.4821 160.729 57.5725 160.678C56.788 160.532 56.0005 160.356 55.2086 160.171C53.3469 163.027 52.5453 166.409 50.6672 169.258C51.3899 169.741 52.1179 170.248 52.8856 170.667C54.3058 168.691 55.9413 166.887 57.5066 165.025C57.5406 164.985 57.596 164.952 57.6635 164.925ZM59.584 172.08C60.3833 172.082 61.1936 172.087 61.9923 172.016C62.0571 168.31 62.8967 164.673 62.9757 160.966C61.4372 161.155 59.9119 161.057 58.3808 160.816C58.1957 164.656 59.6562 168.244 59.584 172.08ZM58.9947 176.362C61.5898 176.362 64.1848 176.362 66.7799 176.362C66.7779 176.349 66.7739 176.337 66.7732 176.323C66.6973 174.022 64.756 172.605 62.6118 172.435C62.4371 172.485 62.2412 172.473 62.1162 172.384C61.1406 172.503 60.1484 172.506 59.1664 172.505C59.0168 173.785 58.9964 175.073 58.9947 176.362ZM67.7297 176.484C93.7067 176.468 119.682 176.101 145.659 176.09C145.659 157.409 145.659 138.728 145.659 120.046C145.659 97.2349 145.659 74.4241 145.659 51.6133C145.434 51.6385 145.207 51.6597 144.977 51.6721C144.095 51.7208 143.157 51.6792 142.251 51.5081C142.251 74.462 142.251 97.4163 142.251 120.37C142.251 120.403 142.237 120.433 142.213 120.462C142.337 120.64 141.92 121.026 141.589 121.026C115.629 121.026 89.6686 121.026 63.7088 121.026C63.8798 121.53 63.6503 122.158 63.3933 122.614C64.9509 125.718 63.7115 127.967 61.4651 129.41C61.5975 129.372 61.7208 129.354 61.788 129.373C62.0642 129.453 62.3215 129.569 62.5688 129.702C63.5871 128.581 64.7839 127.875 66.1019 127.141C67.0994 126.586 68.1342 126.034 68.6644 124.967C69.0397 124.211 69.3085 123.422 69.5857 122.626C69.634 122.488 69.7664 122.396 69.9179 122.352C70.0577 122.285 70.221 122.247 70.3524 122.251C70.7874 122.266 71.1993 122.396 71.4591 122.769C71.5599 122.914 71.6395 123.067 71.7094 123.224C72.3551 122.594 73.1786 122.108 74.075 122.027C74.4419 121.993 74.794 122.122 75.0231 122.409C75.1141 122.522 75.1488 122.704 75.1508 122.844C75.1588 122.944 75.1524 123.043 75.137 123.141C76.0629 123.36 76.9288 124.389 76.365 125.347C75.6164 126.618 74.1428 127.39 72.939 128.158C72.9021 128.182 72.8611 128.199 72.8188 128.213C71.2383 130.083 69.6156 131.968 67.7663 133.577C67.1861 134.081 66.5528 134.645 65.821 134.93C65.9635 135.617 66.0435 136.292 66.0582 136.904C66.0582 136.912 66.0552 136.92 66.0535 136.928C66.0814 137.022 66.0441 137.136 65.895 137.258C65.4941 137.585 65.0849 137.903 64.669 138.211C65.7837 140.904 66.4171 143.462 66.4594 146.374C66.5881 146.453 66.6331 146.59 66.4782 146.773C66.2504 147.043 66.0139 147.289 65.77 147.514C65.8214 151.699 66.5568 155.982 65.5677 160.107C65.5523 160.172 65.5166 160.228 65.4696 160.278C65.4122 160.367 65.3137 160.445 65.1676 160.491C64.7661 160.62 64.3663 160.722 63.9671 160.805C63.9019 164.492 63.0721 168.107 62.9857 171.79C65.4609 171.974 67.6682 173.588 67.7556 176.23C67.7576 176.298 67.7277 176.36 67.6787 176.413C67.7065 176.432 67.723 176.456 67.7297 176.484ZM158.489 163.945C159.449 160.523 161.944 156.588 159.221 153.366C157.573 151.416 155.418 149.817 155.831 146.958C156.175 144.578 157.617 142.618 158.786 140.582C159.964 138.529 160.917 136.087 158.643 134.372C153.103 130.194 150.128 139.366 149.589 143.508C149.162 146.803 150.3 149.392 151.977 152.149C153.418 154.518 154.649 156.842 154.542 159.674C155.107 160.119 155.625 160.639 156.082 161.228C159.583 156.527 153.852 153.506 151.98 149.548C149.464 144.231 153.569 140.063 156.511 136.011C156.72 135.724 157.71 135.678 157.428 136.067C155.717 138.422 153.398 140.732 152.519 143.574C151.626 146.463 152.489 149.061 154.346 151.336C155.634 152.914 157.379 154.507 158.008 156.504C158.628 158.475 157.939 160.133 156.69 161.686C156.647 161.74 156.579 161.782 156.5 161.813C156.751 162.193 156.98 162.595 157.182 163.019C157.221 163.102 157.215 163.18 157.179 163.248C157.637 163.423 158.079 163.658 158.489 163.945ZM176.047 158.111C175.99 158.145 175.923 158.177 175.833 158.199C174.778 158.466 174.411 159.771 174.707 160.724C175.041 161.797 176.404 162.915 177.56 162.168C179.243 161.08 177.509 158.692 176.047 158.111Z" fill="#3C4B91"/>
<defs>
<linearGradient id="paint0_linear_1098_4712" x1="101.81" y1="22.9321" x2="101.81" y2="148.874" gradientUnits="userSpaceOnUse">
<stop stop-color="#FFBD55"/>
<stop offset="1" stop-color="#FFF2C5"/>
</linearGradient>
</defs>
</svg>
