<svg width="160" height="154" viewBox="0 0 160 154" fill="none" xmlns="http://www.w3.org/2000/svg">
<path d="M68.9782 55.9172C67.2778 55.8436 67.2953 54.1473 67.295 52.8155C67.295 52.4748 68.2683 52.3068 68.2683 52.5551C68.2686 53.3991 68.1232 55.3743 69.374 55.4287C70.0288 55.4566 69.3048 55.9317 68.9782 55.9172ZM73.8431 54.2071C73.9234 53.9104 72.9545 54.0573 72.8752 54.3496C72.7613 54.7695 72.4764 55.416 71.964 55.4304C71.7483 55.4364 71.4614 55.5067 71.3176 55.6824C71.1728 55.8588 71.4409 55.9189 71.5672 55.9152C72.639 55.8856 73.5582 55.257 73.8431 54.2071ZM70.6588 50.3639C70.6588 50.2436 69.6851 50.3723 69.6854 50.6243C69.6854 51.056 69.6828 51.6063 70.1101 51.8486C70.2704 51.9396 70.5788 51.8297 70.7327 51.7767C70.7629 51.7662 71.1684 51.6073 71.031 51.5297C70.6396 51.3076 70.6591 50.7556 70.6588 50.3639ZM66.0686 52.1002C66.0156 51.9144 65.9608 51.7336 65.8782 51.5589C65.7169 51.2162 64.7647 51.5237 64.9048 51.8193C65.0641 52.157 65.0839 52.5911 65.3382 52.877C65.567 53.1337 66.4974 52.7805 66.2417 52.493C66.1426 52.3824 66.1086 52.2406 66.0686 52.1002ZM68.3721 49.1124C68.5945 49.0989 68.8546 49.0284 69.0219 48.8728C69.2198 48.689 69.4597 48.7142 69.7667 48.7139C69.9747 48.7139 70.2673 48.6275 70.4165 48.4743C70.5775 48.3097 70.2761 48.2892 70.1797 48.2892C69.454 48.2899 68.6862 48.4159 68.1356 48.9269C67.9666 49.0838 68.2821 49.1181 68.3721 49.1124ZM65.8859 49.6654C65.9124 49.4063 65.6322 49.323 65.43 49.323C65.098 49.323 64.7657 49.323 64.4338 49.323C64.2134 49.323 63.9251 49.4913 63.9009 49.7296C63.8744 49.9886 64.1546 50.0719 64.3569 50.0719C64.6888 50.0719 65.0211 50.0719 65.353 50.0719C65.5734 50.0719 65.8617 49.9036 65.8859 49.6654ZM36.0078 99.5522C36.2178 99.5905 36.5431 99.5286 36.6963 99.3677C37.1203 98.9229 37.3259 98.3813 37.591 97.838C37.6891 97.6371 37.255 97.6351 37.175 97.6458C36.9617 97.6744 36.7188 97.7641 36.6193 97.9674C36.411 98.3944 36.2548 98.8755 35.9205 99.2266C35.7878 99.3657 35.7915 99.5128 36.0078 99.5522ZM38.2421 100.669C38.3113 100.825 38.4178 100.886 38.5855 100.902C38.8106 100.925 39.0877 100.843 39.2739 100.718C39.4348 100.609 39.3945 100.5 39.2104 100.48C39.3139 100.491 39.2658 100.5 39.2319 100.44C39.1996 100.384 39.1788 100.32 39.1553 100.26C39.1069 100.136 39.0474 100.023 38.9574 99.9234C38.7817 99.7299 37.8705 100.075 38.0425 100.265C38.1443 100.377 38.182 100.533 38.2421 100.669ZM37.3249 104.149C38.4652 104.791 39.712 104.843 40.81 104.083C41.3542 103.706 40.5466 103.418 40.174 103.675C39.4876 104.151 38.7719 103.998 38.0812 103.609C37.7327 103.413 36.8649 103.89 37.3249 104.149ZM32.4072 105.645C31.875 105.488 31.1795 105.648 30.9635 106.216C30.7646 106.738 31.7413 106.721 31.8931 106.322C31.8928 106.323 31.8972 106.315 31.9029 106.304C32.1263 106.348 32.3806 106.284 32.5322 106.11C32.6756 105.945 32.6273 105.711 32.4072 105.645ZM157.122 140.818C156.065 141.007 154.902 140.714 154.226 139.945C151.884 141.709 150.342 144.251 147.348 145.034C147.28 145.051 147.218 145.057 147.161 145.055C146.52 145.675 145.817 146.234 145.054 146.717C146.561 147.418 147.547 148.628 148.114 150.138C151.739 148.861 157.334 150.848 156.837 155.448C156.798 155.804 155.815 155.979 155.86 155.557C156.278 151.695 151.503 149.399 148.314 150.652C148.306 150.656 148.297 150.658 148.289 150.66C148.426 151.117 148.531 151.597 148.603 152.095C148.649 152.419 147.67 152.638 147.629 152.356C147.316 150.179 146.365 148.011 144.26 147.115C144.114 147.121 143.987 147.066 143.914 146.982C143.904 146.979 143.894 146.974 143.884 146.971C141.759 146.265 139.49 146.596 137.41 147.303C136.996 147.445 136.392 147.191 137.043 146.969C137.987 146.648 138.993 146.37 140.015 146.209C139.966 146.177 139.933 146.132 139.926 146.068C139.613 143.017 135.332 139.581 132.844 142.755C132.609 143.055 131.677 143.008 132.047 142.536C133.119 141.169 134.598 140.738 136.042 140.947C135.475 139.872 134.703 138.939 133.794 138.222C133.673 138.205 133.583 138.151 133.566 138.05C131.668 136.66 129.226 136.191 126.823 137.261C126.76 137.289 126.696 137.305 126.634 137.311C126.634 142.922 126.634 148.533 126.634 154.145C126.634 154.371 125.986 154.505 125.747 154.462C99.6498 154.466 73.5539 154.837 47.4566 154.857C47.34 154.932 47.2046 154.985 47.085 154.985C44.29 154.985 41.495 154.985 38.6997 154.985C38.525 155.054 38.311 155.06 38.1672 154.982C37.8883 154.964 37.8866 154.814 38.0069 154.664C38.0072 153.215 38.0163 151.765 38.2055 150.326C38.2297 150.143 38.4104 150.014 38.611 149.96C38.5962 147.814 38.1346 145.741 37.7811 143.653C36.3193 145.364 34.8343 147.054 33.5502 148.906C35.5496 150.415 36.5246 152.942 35.1504 155.223C35.1115 155.288 35.0409 155.341 34.9559 155.381C35.0486 155.649 34.3538 155.949 34.0881 155.773C31.6815 154.175 29.2749 152.577 26.8686 150.979C26.8323 150.955 26.7957 150.93 26.7591 150.906C26.7406 150.894 26.7221 150.882 26.7037 150.869C26.4849 150.723 26.6103 150.54 26.8256 150.421C27.6141 149.235 28.4104 148.051 29.3508 146.979C29.4781 146.833 29.7231 146.782 29.9284 146.808C31.7688 143.952 32.5698 140.573 34.4587 137.735C34.5282 137.63 34.6414 137.568 34.7647 137.54C34.7933 137.509 34.8255 137.481 34.8615 137.457C34.8628 137.445 34.8642 137.433 34.8655 137.42C34.8558 137.417 34.8457 137.415 34.8363 137.411C31.1563 135.766 27.7341 137.574 26.0089 140.971C27.4872 140.668 29.0132 141.034 30.1185 142.444C30.3927 142.794 29.4577 143.15 29.2205 142.847C26.7702 139.722 22.5187 142.702 22.1915 145.889C22.1774 146.025 22.0413 146.133 21.8753 146.196C23.0052 146.288 24.1607 146.537 25.2815 146.918C25.6463 147.042 24.7627 147.445 24.4973 147.355C22.5305 146.686 20.0396 146.13 18.0227 146.92C15.7549 147.808 14.8118 149.87 14.4839 152.156C14.4419 152.448 13.4672 152.631 13.5152 152.296C13.5992 151.711 13.7282 151.175 13.8969 150.681C13.7887 150.703 13.6869 150.705 13.6154 150.677C10.4743 149.442 5.83818 151.526 6.25311 155.372C6.29578 155.766 5.31809 155.988 5.27979 155.632C4.78489 151.047 10.4441 148.843 14.1294 150.092C14.5037 149.241 15.0073 148.541 15.6134 147.981C14.7033 147.93 13.7864 147.749 12.9411 147.407C11.1271 146.671 9.82219 145.627 8.70137 144.025C7.65884 142.536 8.28846 140.931 8.17389 139.288C7.97936 136.502 5.51228 134.802 3.71683 132.913C2.3027 131.424 0.00462183 129.183 0.285498 126.896C0.555623 124.694 3.11946 123.229 5.1296 122.895C10.143 122.064 11.3616 128.391 13.0284 131.766C13.6355 132.995 14.4429 134.037 15.7397 134.611C16.7262 135.048 18.0949 135.282 18.7924 136.19C20.7505 138.737 20.0664 142.713 18.9023 145.632C20.3346 144.487 21.3942 142.973 21.1036 140.997C20.8879 139.532 20.3097 138.184 19.7096 136.841C18.8008 134.808 17.0571 132.071 18.7138 130.038C19.587 128.966 20.5452 127.203 19.802 125.809C19.1267 124.541 17.722 123.678 16.8488 122.539C15.6023 120.914 14.7237 118.908 14.3216 116.902C13.9906 115.252 13.7622 113.004 15.0701 111.684C16.413 110.329 18.4296 110.443 20.1447 110.865C22.5547 111.458 24.3595 114.055 25.4871 116.08C26.8693 118.563 27.972 121.337 28.2643 124.186C30.8026 123.444 31.4483 126.137 31.2293 128.487C30.9699 131.275 30.1719 134.384 28.7094 136.959C30.5392 135.947 32.7163 135.703 34.929 136.541C35.0302 132.807 33.1295 129.472 32.2127 125.876C32.1908 125.869 32.1683 125.861 32.1465 125.853C31.923 125.776 31.8911 125.639 31.9593 125.508C32.2442 124.259 32.6686 123 32.7778 121.72C32.9196 120.058 32.5671 118.517 32.213 116.907C31.6533 114.361 31.2205 111.735 32.7721 109.454C32.8033 109.408 32.8624 109.368 32.936 109.334C32.8661 109.328 32.7959 109.323 32.728 109.313C29.4738 110.675 26.0435 108.577 24.4808 105.629C22.7109 102.288 23.19 98.5768 26.5636 96.56C27.9998 93.1733 31.2192 90.0145 35.2217 90.9787C36.3049 91.2394 37.9216 91.9554 37.9841 93.2835C38.0153 93.9487 37.7801 94.4433 37.4028 94.8357C37.6209 94.825 37.8268 94.8314 38.0156 94.8636C38.0156 73.0789 38.0156 51.2939 38.0156 29.5091C38.0156 29.4389 38.0781 29.3778 38.1709 29.3277C36.6761 28.899 35.3571 28.0466 34.6697 26.5398C33.4833 23.9397 33.7632 20.846 33.7803 18.0517C33.5861 18.0157 33.6533 17.8971 33.8065 17.7883C33.8905 17.6193 34.1916 17.5064 34.4341 17.5175C34.8702 16.7347 35.9605 15.8245 36.4174 15.2812C38.0765 13.3074 39.7446 11.3412 41.414 9.37644C43.8714 6.48402 46.3324 3.59429 48.7975 0.707917C48.8455 0.651809 48.9537 0.603092 49.0793 0.56815C49.2053 0.504315 49.3458 0.45728 49.4439 0.45728C59.0414 0.45728 68.6389 0.45728 78.2367 0.45728C78.268 0.45728 78.2992 0.45728 78.3304 0.45728C81.6076 0.45728 84.8843 0.45728 88.1615 0.45728C88.2549 0.444177 88.3425 0.443505 88.4118 0.45728C91.2205 0.45728 94.0296 0.45728 96.8384 0.45728C96.9119 0.45728 96.9855 0.45728 97.0591 0.45728C103.721 0.45728 110.383 0.45728 117.045 0.45728C117.196 0.434434 117.332 0.446527 117.392 0.516746C119.857 3.40312 122.318 6.29218 124.776 9.18527C126.445 11.1504 128.114 13.1159 129.773 15.0901C130.305 15.7244 131.719 16.8687 131.915 17.7103C131.925 17.7533 131.917 17.792 131.896 17.8269C131.913 20.4667 132.304 23.4263 131.258 25.9253C130.389 28.0033 128.657 29.0418 126.636 29.4604C126.636 48.176 126.636 66.8922 126.636 85.6085C126.636 102.589 126.636 119.569 126.636 136.55C129.068 135.555 131.531 135.827 133.558 137.003C133.368 133.735 131.298 131.268 129.831 128.377C128.432 125.623 128.237 122.878 128.938 119.902C129.835 116.091 132.355 109.303 137.51 110.841C139.62 111.47 141.572 113.486 140.952 115.805C140.251 118.427 138.24 120.447 137.299 122.968C136.78 124.361 136.513 125.92 137.142 127.332C137.858 128.94 139.391 129.844 140.343 131.267C142.828 134.978 140.172 138.653 139.318 142.397C139.306 142.45 139.27 142.497 139.221 142.54C140.13 143.407 140.773 144.55 140.902 145.808C140.915 145.932 140.836 146.04 140.72 146.118C141.84 146.004 142.968 146.046 144.043 146.344C144.113 146.363 144.178 146.388 144.246 146.409C145.85 145.469 147.181 144.175 148.202 142.665C146.143 139.98 144.584 136.325 144.462 132.916C143.85 132.835 143.273 132.564 142.842 132.049C141.971 131.009 141.913 129.62 142.891 128.657C142.924 128.598 143.004 128.537 143.15 128.477C144.477 127.939 146.171 128.131 147.239 129.144C148.305 130.156 148.114 131.464 146.926 132.289C146.493 132.59 145.978 132.8 145.449 132.892C145.618 135.982 146.947 139.265 148.745 141.787C151.303 137.304 151.348 131.345 148.138 127.17C147.032 127.519 145.751 127.356 144.987 126.392C144.142 125.326 144.118 123.941 145.143 122.992C145.226 122.915 145.409 122.863 145.586 122.847C145.626 122.821 145.674 122.796 145.737 122.77C147.029 122.249 148.732 122.418 149.685 123.534C150.657 124.671 150.201 125.981 149.031 126.748C150.804 129.049 151.613 131.808 151.601 134.583C153.281 132.452 153.678 129.649 154.836 127.206C154.864 127.148 154.91 127.1 154.966 127.059C154.794 126.933 154.633 126.786 154.492 126.607C153.646 125.541 153.622 124.156 154.647 123.207C154.706 123.153 154.812 123.112 154.931 123.086C154.974 123.054 155.034 123.022 155.112 122.991C156.406 122.468 158.073 122.644 159.071 123.698C160.149 124.838 159.729 126.228 158.457 127.016C157.657 127.51 156.616 127.699 155.721 127.43C154.425 130.223 154.043 133.429 151.727 135.647C151.679 135.692 151.617 135.725 151.548 135.75C151.289 138.747 150.094 141.686 148.144 144.005C150.373 142.989 151.773 140.788 153.759 139.353C153.783 139.335 153.809 139.321 153.835 139.308C153.753 139.108 153.694 138.891 153.667 138.652C153.518 137.306 154.222 136.217 155.462 135.798C155.592 135.639 156.008 135.447 156.199 135.47C158.952 135.807 160.571 140.205 157.122 140.818ZM158.108 126.549C159.903 124.929 157.295 122.65 155.491 123.378C155.452 123.394 155.411 123.404 155.37 123.413C153.733 125.05 156.235 128.239 158.108 126.549ZM147.981 126.726C148.056 126.599 148.242 126.498 148.433 126.463C149.285 125.817 149.59 124.755 148.778 123.911C148.111 123.218 147.057 122.778 146.117 123.157C146.032 123.191 145.942 123.207 145.856 123.208C144.471 124.624 146.204 127.441 147.981 126.726ZM144.981 132.398C145.118 132.372 145.251 132.376 145.336 132.419C145.689 132.399 146.05 132.259 146.391 131.955C148.223 130.318 145.384 128.274 143.656 128.82C142.456 130.052 143.565 132.152 144.981 132.398ZM16.1698 147.529C16.2296 147.485 16.2891 147.443 16.3502 147.401C11.3552 141.179 8.58579 133.572 4.74726 126.653C4.6075 126.401 5.5442 126.073 5.72059 126.392C9.51813 133.236 12.2624 140.76 17.1807 146.93C17.2856 146.88 17.3911 146.832 17.4986 146.787C17.4992 146.785 17.4986 146.784 17.4996 146.782C18.2599 145.182 18.8042 143.411 18.9402 141.638C19.0639 140.027 19.0468 137.467 17.6615 136.317C15.985 134.926 13.7232 134.963 12.5087 132.879C10.9393 130.187 9.3703 122.03 4.79968 123.374C1.93783 124.216 0.369828 126.548 1.97042 129.244C3.27233 131.437 5.23779 133.124 6.97546 134.956C7.57988 135.593 8.24511 136.255 8.66945 137.034C9.38239 138.344 9.0528 139.766 9.02928 141.172C8.96881 144.852 12.8006 147.3 16.1698 147.529ZM19.1109 146.314C19.0877 146.283 19.0763 146.249 19.0793 146.211C19.0044 146.264 18.9292 146.316 18.8526 146.368C18.9382 146.35 19.0239 146.33 19.1109 146.314ZM21.2682 146.163C21.2266 146.121 21.2031 146.064 21.2108 145.988C21.237 145.733 21.287 145.481 21.3559 145.234C20.9813 145.567 20.5822 145.885 20.1578 146.184C20.5224 146.159 20.8933 146.152 21.2682 146.163ZM24.9284 141.313C24.9052 141.252 24.9079 141.177 24.9515 141.085C25.4451 140.042 26.0918 139.124 26.8518 138.364C28.5206 136.141 29.4751 133.211 29.9707 130.559C30.2364 129.138 31.0438 123.482 28.0099 124.891C27.8645 124.958 27.7096 124.965 27.5849 124.934C27.4415 124.931 27.3309 124.889 27.3232 124.793C27.1021 121.996 26.0865 119.169 24.7281 116.729C23.3711 114.291 21.408 111.458 18.3882 111.135C12.7153 110.528 15.6238 119.078 17.3077 121.549C18.4242 123.188 21.1661 124.653 20.9709 126.875C20.772 129.141 18.4195 130.496 19.1734 132.813C20.0184 135.408 21.833 137.984 22.0763 140.737C22.2389 142.58 21.542 143.978 20.3984 145.12C28.6903 138.097 24.9032 122.793 19.1291 115.308C18.8452 114.94 19.7782 114.576 20.0248 114.896C25.1437 121.531 28.5267 133.75 24.1519 141.714C24.4026 141.561 24.6626 141.428 24.9284 141.313ZM121.449 29.3197C119.967 28.8883 118.661 28.0366 117.978 26.5398C117.811 26.1736 117.676 25.7969 117.562 25.4129C117.504 25.5856 117.441 25.7566 117.371 25.925C116.271 28.5533 113.793 29.5233 111.092 29.6721C108.455 29.8176 105.301 29.1866 104.093 26.5395C103.926 26.1732 103.791 25.7966 103.677 25.4129C103.619 25.5853 103.556 25.7563 103.486 25.9246C102.386 28.553 99.9079 29.5229 97.2073 29.6718C94.5699 29.8172 91.416 29.1863 90.2082 26.5391C90.0412 26.1729 89.9058 25.7963 89.7919 25.4123C89.7338 25.5849 89.671 25.7556 89.6004 25.9243C88.5005 28.5526 86.0226 29.5226 83.3221 29.6714C80.6846 29.8169 77.5308 29.1859 76.3227 26.5388C76.1557 26.1726 76.0203 25.7959 75.9064 25.4126C75.8486 25.5853 75.7858 25.7556 75.7152 25.924C74.6156 28.5523 72.1374 29.5223 69.4371 29.6711C66.7997 29.8166 63.6459 29.1856 62.4378 26.5385C62.2704 26.1722 62.135 25.7956 62.0211 25.4116C61.9634 25.5843 61.9002 25.7553 61.8296 25.9236C60.7293 28.552 58.2515 29.5219 55.5513 29.6708C52.9138 29.8162 49.7604 29.1853 48.5522 26.5381C48.3849 26.1719 48.2495 25.7953 48.1356 25.4113C48.0778 25.5839 48.0146 25.755 47.9441 25.9233C47.0813 27.9852 45.3692 29.0237 43.3684 29.4483C43.3684 52.4217 43.3684 75.3951 43.3684 98.3685C43.3684 98.3695 43.3681 98.3702 43.3681 98.3712C43.8408 98.3712 44.3139 98.3712 44.7869 98.3712C44.793 95.6676 44.8413 92.9633 44.8817 90.2597C44.9169 87.8934 46.1221 85.7015 48.3577 85.0161C48.3577 84.0808 48.3577 83.1458 48.3577 82.2101C48.3577 81.9554 48.7629 81.7945 49.0525 81.8381C51.4937 81.8381 53.9345 81.8381 56.3757 81.8381C56.4359 81.8381 56.496 81.8381 56.5565 81.8381C56.5736 81.8381 56.5864 81.8401 56.6018 81.8412C56.79 81.8516 56.8592 81.9228 56.8511 82.0162C56.8632 82.0471 56.8723 82.0804 56.8723 82.12C56.8723 83.0571 56.8723 83.9941 56.8723 84.9311C57.1539 84.996 57.4183 85.0827 57.6608 85.1949C57.6548 85.1092 57.7059 85.0128 57.8426 84.916C58.9977 84.0972 60.0926 83.5207 61.0492 82.4133C62.1693 81.1171 63.2085 79.7134 63.8737 78.1222C65.0291 75.3575 65.725 71.9483 65.9527 68.9487C66.1348 66.5469 66.2353 64.2461 67.1377 62.3781C62.5422 63.5294 60.7327 57.5971 60.1088 53.8711C59.2289 48.6161 59.6959 41.9705 64.6172 38.7391C67.6236 36.7652 71.2289 36.7679 74.6824 37.2988C76.5175 37.581 78.3785 38.2744 79.6391 39.6859C80.8593 41.0513 81.8659 43.0829 83.7313 43.6685C87.3339 44.7988 94.9005 44.1305 96.2343 48.8144C96.9758 51.4195 95.8415 54.5266 93.822 56.2505C93.5599 56.4743 93.2814 56.6772 92.9894 56.8613C97.5171 57.5729 99.8769 61.5862 101.111 65.8272C102.991 72.2927 104.824 78.7989 106.164 85.4018C106.442 85.2449 106.741 85.1149 107.062 85.0168C107.062 84.0811 107.062 83.1464 107.062 82.2107C107.062 81.9561 107.467 81.7951 107.757 81.8388C110.198 81.8388 112.639 81.8388 115.08 81.8388C115.14 81.8388 115.2 81.8388 115.261 81.8388C115.278 81.8388 115.291 81.8408 115.306 81.8418C115.495 81.8519 115.564 81.9235 115.555 82.0169C115.567 82.0478 115.576 82.0807 115.576 82.1204C115.576 83.056 115.576 83.9924 115.576 84.9281C115.576 84.9295 115.575 84.9301 115.575 84.9315C118.092 85.5083 119.023 88.1054 119.058 90.4936C119.096 93.1189 119.143 95.7459 119.148 98.3719C119.858 98.3719 120.568 98.3719 121.278 98.3719C121.278 75.4173 121.278 52.4624 121.278 29.5078C121.277 29.4349 121.348 29.3711 121.449 29.3197ZM49.3394 82.4936C49.3394 83.2116 49.3394 83.9296 49.3394 84.6479C51.5232 84.6479 53.7067 84.6479 55.8903 84.6479C55.8903 83.9299 55.8903 83.212 55.8903 82.4936C53.7064 82.4936 51.5229 82.4936 49.3394 82.4936ZM45.8335 91.7054C45.8335 91.7138 45.8335 91.7232 45.8331 91.7316C45.9148 91.6762 46.0146 91.6339 46.1258 91.6208C47.5362 91.4548 48.6231 92.1153 49.1684 93.3252C49.8659 93.0144 50.6635 92.8363 51.367 92.9502C52.3242 91.3637 54.6317 91.0291 56.3348 91.3671C57.2906 90.8971 58.4497 90.7862 59.3841 91.1628C59.3364 88.8977 58.8378 86.1128 56.3368 85.4862C56.1869 85.4979 56.0441 85.467 55.9618 85.3824C55.9222 85.3602 55.902 85.333 55.9 85.3024C53.6839 85.3024 51.4678 85.3024 49.2514 85.3024C49.1082 85.4479 48.82 85.5208 48.609 85.4751C45.9356 86.105 45.8647 89.4971 45.8335 91.7054ZM108.043 82.4936C108.043 83.2116 108.043 83.9299 108.043 84.6479C110.227 84.6479 112.41 84.6479 114.594 84.6479C114.594 83.9296 114.594 83.212 114.594 82.4936C112.41 82.4936 110.227 82.4936 108.043 82.4936ZM104.545 91.2394C106.243 89.8818 108.737 89.4137 110.802 89.3213C113.166 89.2152 116.02 89.3627 118.074 90.7405C117.969 88.4848 117.352 85.8877 114.788 85.423C114.66 85.4002 114.608 85.3555 114.604 85.3024C112.33 85.3024 110.056 85.3024 107.781 85.3024C107.697 85.3622 107.596 85.4099 107.487 85.4297C104.825 85.9115 104.59 88.9951 104.545 91.2394ZM74.2799 92.7577C74.2729 92.2658 74.2658 91.774 74.2588 91.2824C74.2255 88.9968 73.7528 86.1232 71.2081 85.4855C71.0576 85.4973 70.9144 85.4663 70.8325 85.381C70.7932 85.3588 70.7737 85.3319 70.7713 85.3017C68.5552 85.3017 66.3391 85.3017 64.1227 85.3017C63.9796 85.4472 63.6913 85.5201 63.4803 85.4744C60.8066 86.1044 60.7357 89.4971 60.7045 91.7051C60.695 92.3744 60.6856 93.0436 60.6759 93.7136C61.584 93.3702 62.5349 92.9348 63.4682 92.9717C63.7951 92.9845 64.0955 93.0645 64.3767 93.1884C65.1128 92.2551 65.8355 91.311 66.5756 90.3813C66.7268 90.1919 67.0383 90.1109 67.2641 90.1969C68.1541 90.5369 69.0719 91.1047 69.7869 91.7444C70.2381 91.5163 70.6977 91.3056 71.1762 91.1339C71.3468 91.0721 71.669 90.9781 71.8199 91.1407C72.3393 91.6997 72.7831 92.3784 73.0751 93.0883C73.4682 92.9559 73.8693 92.8457 74.2799 92.7577ZM64.2107 82.4936C64.2107 83.2116 64.2107 83.9296 64.2107 84.6479C66.3942 84.6479 68.5777 84.6479 70.7612 84.6479C70.7612 83.9299 70.7612 83.212 70.7612 82.4936C68.5777 82.4936 66.3942 82.4936 64.2107 82.4936ZM76.9358 85.4069C77.2157 85.2486 77.5164 85.1173 77.8396 85.0182C77.8396 84.0828 77.8396 83.1478 77.8396 82.2121C77.8396 81.9574 78.2448 81.7965 78.5344 81.8402C80.7854 81.8402 83.0368 81.8402 85.2885 81.8402C83.7538 73.8396 82.3225 66.0983 84.371 58.0376C83.482 57.8561 82.6427 57.5964 81.8444 57.2746C81.8579 59.5602 81.7016 62.6448 78.7558 62.3555C78.4601 62.3263 78.4198 62.1912 78.5018 62.0545C78.4759 62.0347 78.4568 62.0105 78.4501 61.9786C78.2266 60.9515 77.8923 59.4836 76.8975 58.8832C73.1883 67.2665 75.0174 76.7814 76.9358 85.4069ZM78.8213 84.6479C81.0048 84.6479 83.1887 84.6479 85.3722 84.6479C85.3722 83.9299 85.3722 83.212 85.3722 82.4936C83.1887 82.4936 81.0048 82.4936 78.8213 82.4936C78.8213 83.2113 78.8213 83.9296 78.8213 84.6479ZM71.916 58.9094C73.3735 58.5372 75.1034 57.7681 76.6412 58.0806C78.4558 58.4502 79.0629 60.0612 79.4234 61.7179C79.4247 61.7246 79.4234 61.731 79.4237 61.7373C81.1311 61.5677 80.9144 58.349 80.8657 56.8381C75.9242 54.4158 72.6272 49.4779 69.1633 45.0255C67.8621 47.1993 65.5946 48.3544 63.1205 48.7136C63.5387 52.9092 66.0314 59.4 70.8654 59.0798C70.8943 59.0778 70.9239 59.0737 70.9531 59.0714C71.2645 59.0455 71.5847 58.9941 71.916 58.9094ZM75.354 90.3595C79.8148 90.3595 84.2759 90.3595 88.7363 90.3595C88.7706 90.3595 88.8011 90.3629 88.831 90.3666C88.6802 88.2855 88.0328 86.0405 85.819 85.4862C85.6685 85.4979 85.5254 85.467 85.4434 85.3817C85.4041 85.3595 85.3843 85.3326 85.3823 85.3024C83.1658 85.3024 80.9497 85.3024 78.7333 85.3024C78.5902 85.4479 78.3019 85.5208 78.0909 85.4751C75.9202 85.9861 75.4629 88.3164 75.354 90.3595ZM93.4326 82.4936C93.4326 83.3238 93.4326 84.1537 93.4326 84.9839C95.6161 84.9839 97.7996 84.9839 99.9831 84.9839C99.9831 84.1537 99.9831 83.3238 99.9831 82.4936C97.7996 82.4936 95.6164 82.4936 93.4326 82.4936ZM90.1309 88.8201C91.446 88.1777 92.9061 88.1081 94.3343 88.6141C97.2335 89.6415 100.29 92.3166 103.175 89.7272C103.211 89.695 103.281 89.6647 103.366 89.6385C103.127 87.8488 102.44 86.0943 100.629 85.5352C100.524 85.597 100.406 85.6384 100.299 85.6384C97.7878 85.6384 95.2774 85.6384 92.7663 85.6384C92.5987 85.6384 92.512 85.5957 92.4821 85.5325C91.0075 85.9878 90.391 87.3418 90.1309 88.8201ZM105.301 86.0355C105.275 86.0093 105.256 85.978 105.248 85.9387C104.007 79.7618 102.297 73.6907 100.578 67.6334C99.2883 63.0907 97.3648 57.8709 91.9983 57.3938C90.0775 58.264 87.7841 58.4723 85.771 58.256C85.6111 58.2388 85.4558 58.2153 85.2989 58.1935C83.316 66.2566 84.8111 74.0176 86.3502 82.036C86.3559 82.0653 86.3569 82.0938 86.3542 82.121V82.1214C86.3542 83.0584 86.3542 83.9954 86.3542 84.9325C87.9673 85.3027 88.9281 86.5002 89.4183 87.9445C89.9569 86.569 90.9813 85.4684 92.4512 85.0178C92.4512 84.0825 92.4512 83.1474 92.4512 82.2117C92.4512 81.9571 92.8564 81.7961 93.146 81.8398C93.4665 81.8398 93.787 81.8398 94.1076 81.8398C92.6847 77.0055 91.701 72.1136 90.7999 67.158C90.7162 66.6967 91.6919 66.4474 91.7735 66.8969C92.6884 71.9305 93.6862 76.8993 95.1464 81.8086C95.1497 81.8193 95.1494 81.8297 95.1511 81.8402C96.9234 81.8402 98.696 81.8402 100.469 81.8402C100.529 81.8402 100.589 81.8402 100.65 81.8402C100.666 81.8402 100.679 81.8422 100.694 81.8432C100.884 81.8533 100.953 81.9248 100.944 82.0182C100.956 82.0491 100.965 82.0821 100.965 82.1217C100.965 83.0587 100.965 83.9958 100.965 84.9328C102.578 85.3031 103.538 86.5005 104.029 87.9448C104.316 87.2104 104.743 86.5563 105.301 86.0355ZM67.1441 65.5167C66.9469 67.6673 66.8135 69.7158 66.4382 71.8496C65.9259 74.7642 65.394 77.6771 63.7645 80.2086C62.9054 81.5428 61.9086 82.7752 60.774 83.8859C60.0816 84.5639 59.2766 84.8374 58.4957 85.3911C58.403 85.4566 58.2905 85.4862 58.1783 85.4902C59.1408 86.1366 59.7389 87.1788 60.0577 88.3406C60.5469 86.7827 61.6207 85.5104 63.229 85.0175C63.229 84.0821 63.229 83.1471 63.229 82.2114C63.229 81.9567 63.6342 81.7958 63.9238 81.8395C66.365 81.8395 68.8055 81.8395 71.2467 81.8395C71.3072 81.8395 71.3673 81.8395 71.4278 81.8395C71.4446 81.8395 71.4574 81.8415 71.4725 81.8425C71.6617 81.8526 71.7309 81.9241 71.7221 82.0175C71.7342 82.0485 71.743 82.0814 71.743 82.121C71.743 83.0581 71.743 83.9951 71.743 84.9321C72.0615 85.0054 72.3551 85.1099 72.6239 85.2433C71.2813 79.3533 68.6896 73.3621 70.4891 67.3135C70.561 67.0716 71.5044 66.951 71.4483 67.1388C69.541 73.5503 72.6249 79.9241 73.8458 86.1521C73.8485 86.1658 73.8472 86.1796 73.8431 86.1934C74.2712 86.6913 74.5857 87.2931 74.8064 87.9442C75.089 87.2228 75.5059 86.5781 76.0495 86.0614C74.0709 77.2 72.1035 67.3518 76.0636 58.7391C76.0848 58.6931 76.1311 58.6527 76.1906 58.6178C75.3208 58.4273 74.4267 58.6685 73.5673 58.9094C72.8661 59.106 72.1545 59.318 71.4359 59.4624C71.4181 59.5575 71.3388 59.6519 71.1688 59.7228C68.5928 60.7963 67.3931 62.8031 67.1441 65.5167ZM45.7602 98.3729C50.3295 98.3729 54.8991 98.3729 59.4684 98.3729C59.4634 96.2411 59.4298 94.1097 59.3978 91.9782C59.2772 91.9954 59.1606 91.9836 59.0763 91.9295C57.8073 91.1151 55.7693 91.9789 55.5247 93.4781C55.4572 93.8923 54.4647 94.0321 54.541 93.5627C54.6488 92.9005 55.0157 92.3361 55.521 91.9C54.2416 91.7138 52.7633 92.0132 52.1569 93.2415C52.4761 93.4448 52.7452 93.7488 52.93 94.1866C53.018 94.3953 52.0668 94.7097 51.9566 94.4477C51.4651 93.2808 50.3309 93.1021 49.3149 93.7028C49.3243 93.7317 49.3354 93.7589 49.3444 93.7881C49.461 94.1685 48.49 94.4373 48.3711 94.0485C48.0311 92.9388 47.2489 92.0871 46.0125 92.2329C45.9383 92.2413 45.8778 92.2403 45.8261 92.2336C45.7965 94.2804 45.7639 96.3265 45.7602 98.3729ZM60.6309 98.3729C65.177 98.3729 69.7231 98.3729 74.2688 98.3729C74.2719 97.0239 74.2846 95.6753 74.3031 94.326C74.2977 93.9568 74.2923 93.5879 74.287 93.2187C73.355 93.4135 72.4888 93.7545 71.6627 94.2387C71.3754 94.407 70.5052 94.3294 71.0713 93.9971C71.4221 93.7918 71.7809 93.6108 72.1461 93.4488C71.9005 92.8179 71.5236 92.2285 71.0801 91.7128C70.6467 91.8959 70.227 92.1066 69.8121 92.3277C69.7503 92.3764 69.6777 92.416 69.5998 92.4426C69.0945 92.7164 68.5939 93.0003 68.0825 93.2627C67.769 93.4236 66.8975 93.2802 67.4804 92.9811C67.9636 92.7335 68.4373 92.4674 68.9137 92.2064C68.3839 91.7538 67.7509 91.3396 67.1129 91.0425C66.4376 91.8996 65.7717 92.7638 65.0943 93.6188C65.5093 93.9343 65.8812 94.324 66.2343 94.6963C66.58 95.0618 65.6598 95.4647 65.345 95.1327C64.6313 94.3788 63.7988 93.4549 62.6649 93.806C61.9906 94.0146 61.3351 94.272 60.6648 94.4917C60.6473 95.7855 60.6332 97.0794 60.6309 98.3729ZM88.8794 98.3729C88.8825 97.0246 88.8956 95.6767 88.9137 94.3284C88.8996 93.3131 88.8841 92.2978 88.8697 91.2828C88.8687 91.2119 88.8657 91.139 88.8636 91.0667C88.8028 91.0899 88.7346 91.104 88.6587 91.104C84.2144 91.104 79.7704 91.104 75.3265 91.104C75.3214 91.3107 75.3181 91.5136 75.3151 91.7051C75.303 92.5514 75.2909 93.3974 75.2794 94.2441C75.2979 95.6202 75.312 96.9964 75.3144 98.3729C79.8363 98.3729 84.3579 98.3729 88.8794 98.3729ZM103.491 98.3729C103.494 97.0243 103.507 95.6757 103.525 94.3267C103.517 93.7216 103.508 93.1165 103.499 92.5118C103.467 92.4738 103.463 92.4227 103.496 92.3576C103.491 91.9994 103.486 91.6409 103.481 91.2828C103.476 90.9156 103.457 90.5329 103.423 90.1465C102.025 91.1423 100.318 91.5831 98.5989 91.0993C96.1043 90.3968 92.7673 87.503 90.2099 89.2081C90.1817 89.2269 90.1286 89.2464 90.0634 89.2652C89.9525 90.1132 89.9371 90.9743 89.9267 91.7054C89.9146 92.5524 89.9025 93.4001 89.8907 94.2474C89.9092 95.6226 89.9233 96.9977 89.9257 98.3729C94.4472 98.3729 98.9688 98.3729 103.491 98.3729ZM118.172 98.3729C118.166 96.1783 118.131 93.9837 118.099 91.7894C118.022 91.7794 117.953 91.7548 117.905 91.7105C116.236 90.162 113.533 89.8522 111.355 89.8999C109.082 89.9493 106.026 90.3 104.53 92.2507C104.52 92.9149 104.511 93.5792 104.502 94.2434C104.52 95.6202 104.534 96.9961 104.537 98.3729C109.081 98.3729 113.627 98.3729 118.172 98.3729ZM42.2553 29.0526C46.7856 28.6178 47.5443 25.1616 47.6293 21.5341C47.6195 20.9958 47.6236 20.4573 47.633 19.9227C47.6249 19.2945 47.6108 18.6743 47.6061 18.0759C47.5557 18.0776 47.5033 18.0749 47.4576 18.0634C43.226 18.0634 38.9947 18.0634 34.7627 18.0634C34.76 18.0634 34.757 18.0634 34.7543 18.0634C34.7536 18.1535 34.7526 18.2435 34.7513 18.3346C34.7153 20.67 34.5306 23.2019 35.2973 25.417C36.3381 28.4243 39.2628 29.3398 42.2553 29.0526ZM88.6006 0.932349C89.0716 4.38316 89.5175 7.83801 89.9095 11.2982C90.1232 13.1834 90.4001 15.0985 90.4226 16.9987C90.4249 17.1765 90.398 17.3922 90.3352 17.588C94.6959 17.588 99.0565 17.588 103.417 17.588C103.449 17.5749 103.481 17.5632 103.516 17.5531C103.368 16.818 102.582 15.4045 102.425 15.0272C101.611 13.0655 100.77 11.1148 99.9233 9.16713C98.7272 6.41683 97.5204 3.6719 96.3005 0.932349C93.734 0.932349 91.1674 0.932349 88.6006 0.932349ZM107.877 0.932349C109.612 3.73574 111.341 6.54315 113.059 9.35696C114.24 11.2902 115.42 13.224 116.574 15.173C116.833 15.6108 117.9 16.905 117.984 17.588C122.219 17.588 126.455 17.588 130.69 17.588C130.539 17.416 130.36 17.245 130.266 17.1314C129.695 16.4407 129.119 15.7543 128.541 15.0689C126.916 13.139 125.284 11.2149 123.65 9.29245C121.28 6.50284 118.907 3.71625 116.529 0.932687C113.645 0.932351 110.761 0.932349 107.877 0.932349ZM130.917 18.0634C126.633 18.0634 122.349 18.0634 118.065 18.0634C118.061 18.4626 118.052 18.8678 118.043 19.2767C118.078 20.34 118.121 21.4299 118.065 22.5017C118.133 23.5039 118.286 24.4883 118.608 25.417C119.649 28.4243 122.573 29.3398 125.566 29.0526C131.56 28.4774 130.953 22.6153 130.917 18.0634ZM104.18 18.0634C104.176 18.4612 104.167 18.8641 104.158 19.272C104.194 20.337 104.237 21.4293 104.18 22.5027C104.248 23.5046 104.402 24.4887 104.723 25.417C105.764 28.4243 108.688 29.3398 111.681 29.0526C116.211 28.6178 116.97 25.1616 117.054 21.5344C117.045 20.9962 117.049 20.458 117.058 19.9231C117.05 19.2901 117.036 18.6659 117.031 18.0634C112.748 18.0634 108.464 18.0634 104.18 18.0634ZM76.6425 17.5877C76.5844 17.5575 76.4843 17.537 76.321 17.5867L76.322 17.5877C76.4292 17.5877 76.536 17.5877 76.6425 17.5877ZM62.5244 18.0634C62.5204 18.4612 62.5117 18.8644 62.5023 19.272C62.5382 20.337 62.5812 21.4293 62.5251 22.5027C62.5933 23.5042 62.7462 24.4887 63.0677 25.417C64.1089 28.4243 67.0336 29.3398 70.0261 29.0526C74.5537 28.6181 75.3137 25.166 75.3994 21.5415C75.3893 20.9975 75.3937 20.4529 75.4031 19.9123C75.395 19.2834 75.3809 18.6622 75.3762 18.0634C71.0922 18.0634 66.8081 18.0634 62.5244 18.0634ZM76.4097 22.5034C76.4779 23.5049 76.6307 24.489 76.9523 25.417C77.9935 28.4243 80.9181 29.3398 83.9107 29.0526C88.4443 28.6178 89.2006 25.1566 89.2846 21.5267C89.2752 20.9945 89.2789 20.462 89.2883 19.9338C89.2803 19.2972 89.2658 18.6692 89.2611 18.0638C84.9771 18.0638 80.693 18.0638 76.409 18.0638C76.405 18.4616 76.3962 18.8648 76.3868 19.2723C76.4231 20.3373 76.4658 21.4299 76.4097 22.5034ZM89.5302 17.5877C89.5309 17.5877 89.5316 17.5877 89.5322 17.5877C89.6169 17.5524 89.7113 17.5286 89.8044 17.5205C89.8356 17.5175 89.8659 17.5168 89.8954 17.5175C89.9283 17.5155 89.9599 17.5155 89.9908 17.5182C89.9206 17.4956 89.8578 17.4825 89.8034 17.4809C89.672 17.4772 89.5863 17.5262 89.5302 17.5877ZM90.2952 18.0634C90.2912 18.4643 90.2821 18.8715 90.2724 19.2827C90.3083 20.3434 90.351 21.4309 90.2952 22.4993C90.3631 23.5026 90.516 24.4876 90.8375 25.417C91.8787 28.4243 94.8034 29.3398 97.7959 29.0526C102.325 28.6181 103.084 25.165 103.17 21.5395C103.16 20.9969 103.164 20.4536 103.174 19.914C103.165 19.2844 103.151 18.6628 103.147 18.0634C98.8626 18.0634 94.5789 18.0634 90.2952 18.0634ZM87.5916 0.932349C84.5658 0.932349 81.5397 0.932349 78.5139 0.932349C78.1581 3.53953 77.8198 6.14872 77.5029 8.7606C77.2678 10.6992 77.0353 12.6394 76.8559 14.5841C76.7863 15.3377 76.71 16.0946 76.6906 16.8516C76.6852 17.0525 76.6748 17.2571 76.6942 17.4573C76.7003 17.5172 76.706 17.5591 76.7104 17.588C80.9564 17.588 85.2022 17.588 89.4482 17.588C89.4489 17.5645 89.4499 17.5444 89.4499 17.5158C89.4513 17.2709 89.4445 17.027 89.4311 16.7827C89.3948 16.1168 89.3401 15.4519 89.2766 14.7877C89.0918 12.8434 88.866 10.9028 88.6295 8.9642C88.3026 6.28479 87.9575 3.60706 87.5916 0.932349ZM67.8655 0.932349C66.9519 3.65073 66.0519 6.37416 65.1696 9.10262C64.55 11.0184 63.9318 12.9354 63.3567 14.865C63.1601 15.5235 62.9612 16.1827 62.7936 16.8492C62.7428 17.0505 62.6887 17.2524 62.6538 17.4573C62.6437 17.5155 62.638 17.5555 62.634 17.5877C66.9718 17.5877 71.3092 17.5877 75.647 17.5877C75.6564 17.5837 75.6655 17.5793 75.6752 17.5756C75.6897 17.5699 75.7048 17.5659 75.7199 17.5608C75.7135 17.5007 75.7095 17.4389 75.7078 17.3747C75.7011 17.1052 75.7297 16.8143 75.7414 16.5999C75.8466 14.6825 76.0811 12.7685 76.3035 10.8615C76.6902 7.54772 77.1152 4.23768 77.5668 0.932013C74.333 0.932349 71.0992 0.932349 67.8655 0.932349ZM62.3568 17.5333C62.3491 17.5343 62.3393 17.5373 62.3316 17.5387C62.339 17.541 62.3467 17.5434 62.3541 17.5457C62.385 17.5568 62.4139 17.5699 62.4378 17.5877C62.4824 17.5877 62.5271 17.5877 62.5722 17.5877C62.5355 17.5511 62.472 17.5182 62.3568 17.5333ZM48.6392 18.0634C48.6352 18.4626 48.6264 18.8681 48.6167 19.2773C48.653 20.3404 48.6957 21.4299 48.6395 22.5014C48.7077 23.5036 48.8606 24.4883 49.1821 25.417C50.223 28.4243 53.1477 29.3398 56.1402 29.0526C60.6688 28.6181 61.4288 25.165 61.5145 21.5398C61.5044 20.9965 61.5088 20.4529 61.5182 19.913C61.5101 19.2837 61.496 18.6625 61.4913 18.0634C57.2073 18.0634 52.9232 18.0634 48.6392 18.0634ZM42.5171 9.10061C40.8298 11.0866 39.1425 13.0732 37.4656 15.0686C36.9664 15.6626 35.6329 16.8062 35.2966 17.5877C39.328 17.5877 43.3593 17.5877 47.3904 17.5877C47.6283 16.8234 48.6342 15.591 48.8855 15.169C50.015 13.2721 51.1624 11.3852 52.3138 9.50075C54.0619 6.63891 55.819 3.78311 57.5842 0.932349C54.8813 0.932349 52.1784 0.932349 49.4751 0.932349C47.1525 3.65241 44.8326 6.37483 42.5171 9.10061ZM97.3894 0.932349C98.6143 3.685 99.8286 6.4427 101.028 9.20678C101.894 11.2048 102.762 13.2035 103.585 15.2194C103.747 15.6159 104.536 16.9625 104.515 17.5877C108.664 17.5877 112.813 17.5877 116.963 17.5877C116.7 16.8469 115.595 15.4227 115.35 15.0128C114.162 13.0208 112.955 11.0402 111.745 9.06163C110.086 6.34728 108.418 3.63729 106.743 0.932349C103.625 0.932349 100.507 0.932349 97.3894 0.932349ZM66.9476 0.932349C64.119 0.932349 61.2901 0.932349 58.4615 0.932349C56.8162 3.58959 55.1773 6.25119 53.5475 8.91817C52.3071 10.9475 51.0666 12.9774 49.8521 15.0225C49.6088 15.4317 48.4897 16.8744 48.3352 17.5185C48.4205 17.5245 48.4971 17.5467 48.5525 17.588C52.9424 17.588 57.3323 17.588 61.7221 17.588C61.7393 17.3498 61.8055 17.072 61.8673 16.8408C62.382 14.912 62.9982 13.0083 63.6059 11.1071C64.6925 7.7063 65.81 4.31563 66.9476 0.932349ZM38.7884 95.1381C39.9704 95.8158 40.5032 97.4456 41.3321 98.6333C41.663 98.4743 42.0343 98.346 42.3954 98.3137C42.3954 75.4116 42.3954 52.5101 42.3954 29.6079C42.1545 29.6358 41.912 29.6587 41.6667 29.6721C40.7999 29.7201 39.878 29.6812 38.9869 29.5172C38.9869 51.3234 38.9869 73.1296 38.9869 94.9362C38.9866 95.0165 38.904 95.0847 38.7884 95.1381ZM36.8364 95.294C36.2044 95.7069 35.4155 95.9908 34.7325 96.2868C35.1316 96.2781 35.6279 96.3355 35.6675 96.7051C35.7189 97.1818 35.2875 97.5961 34.9341 97.8498C34.0615 98.476 32.8661 98.5651 31.7638 98.4525C32.387 99.1083 33.0775 99.7695 33.3184 100.639C33.701 102.02 33.7249 103.559 33.2068 104.904C33.1433 105.069 32.8107 105.177 32.551 105.193C32.3585 105.262 32.1559 105.298 32.0635 105.234C31.7433 105.011 31.3341 104.755 30.9887 105.081C30.7871 105.271 30.607 105.497 30.5015 105.756C30.2889 106.277 30.2327 106.946 30.6191 107.412C31.2954 108.226 33.0805 108.433 33.3399 107.157C33.3849 106.935 34.335 106.788 34.2974 106.975C34.1361 107.769 33.2512 108.264 32.2809 108.419C32.6367 108.602 33.0042 108.76 33.4084 108.774C33.4551 108.776 33.5082 108.786 33.5572 108.804C38.1756 109.278 45.2882 106.575 42.4146 100.863C42.4075 100.849 42.4025 100.836 42.3954 100.822C42.3914 100.814 42.3911 100.805 42.389 100.797C42.3759 100.748 42.3958 100.699 42.4391 100.652C42.6783 100.25 43.0019 99.5337 42.6383 99.1083C42.6088 99.0734 42.5762 99.0512 42.5443 99.0264C42.4656 99.0264 42.3867 99.0264 42.3081 99.0264C42.1549 99.0264 42.0709 98.9904 42.0346 98.9356C41.8092 98.9928 41.5814 99.1352 41.3952 99.2551C41.2111 99.3741 40.9104 99.4467 40.7045 99.3408C40.6504 99.3129 40.6211 99.2787 40.6087 99.2414C39.6885 98.0564 38.9174 95.0662 37.0259 95.2869C36.9486 95.2967 36.8871 95.2977 36.8364 95.294ZM48.1651 104.778C46.4856 105.838 44.6266 106.601 43.2932 108.12C43.2834 108.131 43.2717 108.14 43.2606 108.15C44.5272 109.166 45.3272 110.866 45.734 112.542C46.4829 112.193 47.7267 110.814 48.2102 110.325C49.5752 108.944 50.8583 107.49 52.1112 106.007C52.0823 105.918 52.1253 105.813 52.2913 105.707C53.2384 105.102 54.4029 104.502 55.139 103.631C55.7774 102.875 55.564 102.037 54.5114 101.81C53.9678 101.692 54.2876 100.759 54.0054 100.749C53.2538 100.72 52.4764 101.498 52.0547 102.033C51.9284 102.193 51.669 102.247 51.4594 102.213C51.2313 102.265 51.0001 102.251 50.9608 102.116C50.8674 101.794 50.7236 101.28 50.4447 100.978C49.972 102.356 49.4583 103.962 48.1651 104.778ZM33.6234 118.683C33.9816 121.02 33.4585 123.022 32.9508 125.275C36.7265 126.58 41.4977 128.074 44.7919 125.338C44.8309 125.208 44.9552 125.113 45.1034 125.062C45.2364 124.937 45.3661 124.803 45.4935 124.663C45.4834 124.632 45.4763 124.599 45.476 124.561C45.4508 121.772 44.8507 119.356 43.8277 116.808C42.555 117.665 41.1943 118.373 39.6854 118.756C39.083 118.909 38.9006 118.238 39.5054 118.084C41.619 117.547 43.3997 116.301 45.0735 114.949C45.0463 114.363 44.966 113.721 44.8229 113.064C44.8212 113.055 44.8198 113.047 44.8178 113.039C44.3199 110.774 43.1067 108.371 40.989 107.756C40.9611 107.748 40.9467 107.736 40.9386 107.723C38.8109 108.899 35.9954 109.438 33.7477 109.368C33.734 109.368 33.7209 109.367 33.7074 109.367C33.7071 109.37 33.7067 109.373 33.7064 109.375C33.7027 109.4 33.6936 109.427 33.6721 109.458C31.7094 112.343 33.1497 115.592 33.6234 118.683ZM35.8234 137.501C38.7709 138.186 41.6657 138.733 44.6401 137.888C45.48 134.079 44.9052 130.141 44.7946 126.274C41.4859 128.453 37.1361 127.499 33.361 126.264C34.4335 130.007 36.3546 133.5 35.8234 137.501ZM32.7183 149.378C32.6995 149.369 32.681 149.361 32.6622 149.352C32.515 149.357 32.4112 149.342 32.4321 149.311C32.4435 149.294 32.4556 149.278 32.467 149.261C31.5713 148.821 30.7347 148.257 29.9058 147.702C29.8806 147.697 29.8565 147.69 29.8329 147.682C29.0807 148.593 28.4107 149.566 27.7563 150.548C29.9529 152.008 32.1498 153.467 34.3471 154.926C35.4145 152.897 34.5013 150.69 32.7183 149.378ZM37.6635 142.925C37.4599 141.591 37.3272 140.247 37.4153 138.869C37.42 138.793 37.4821 138.729 37.5725 138.678C36.788 138.532 36.0005 138.356 35.2086 138.171C33.3469 141.027 32.5453 144.409 30.6672 147.258C31.3899 147.741 32.1179 148.248 32.8856 148.667C34.3058 146.691 35.9413 144.887 37.5066 143.025C37.5406 142.985 37.596 142.952 37.6635 142.925ZM39.584 150.08C40.3833 150.082 41.1936 150.087 41.9923 150.016C42.0571 146.31 42.8967 142.673 42.9757 138.966C41.4372 139.155 39.9119 139.057 38.3808 138.816C38.1957 142.656 39.6562 146.244 39.584 150.08ZM38.9947 154.362C41.5898 154.362 44.1848 154.362 46.7799 154.362C46.7779 154.349 46.7739 154.337 46.7732 154.323C46.6973 152.022 44.756 150.605 42.6118 150.435C42.4371 150.485 42.2412 150.473 42.1162 150.384C41.1406 150.503 40.1484 150.506 39.1664 150.505C39.0168 151.785 38.9964 153.073 38.9947 154.362ZM47.7297 154.484C73.7067 154.468 99.6821 154.101 125.659 154.09C125.659 135.409 125.659 116.728 125.659 98.046C125.659 75.2349 125.659 52.4241 125.659 29.6133C125.434 29.6385 125.207 29.6597 124.977 29.6721C124.095 29.7208 123.157 29.6792 122.251 29.5081C122.251 52.462 122.251 75.4163 122.251 98.3702C122.251 98.4031 122.237 98.4334 122.213 98.4619C122.337 98.6403 121.92 99.0264 121.589 99.0264C95.6289 99.0264 69.6686 99.0264 43.7088 99.0264C43.8798 99.5303 43.6503 100.158 43.3933 100.614C44.9509 103.718 43.7115 105.967 41.4651 107.41C41.5975 107.372 41.7208 107.354 41.788 107.373C42.0642 107.453 42.3215 107.569 42.5688 107.702C43.5871 106.581 44.7839 105.875 46.1019 105.141C47.0994 104.586 48.1342 104.034 48.6644 102.967C49.0397 102.211 49.3085 101.422 49.5857 100.626C49.634 100.488 49.7664 100.396 49.9179 100.352C50.0577 100.285 50.221 100.247 50.3524 100.251C50.7874 100.266 51.1993 100.396 51.4591 100.769C51.5599 100.914 51.6395 101.067 51.7094 101.224C52.3551 100.594 53.1786 100.108 54.075 100.027C54.4419 99.9933 54.794 100.122 55.0231 100.409C55.1141 100.522 55.1488 100.704 55.1508 100.844C55.1588 100.944 55.1524 101.043 55.137 101.141C56.0629 101.36 56.9288 102.389 56.365 103.347C55.6164 104.618 54.1428 105.39 52.939 106.158C52.9021 106.182 52.8611 106.199 52.8188 106.213C51.2383 108.083 49.6156 109.968 47.7663 111.577C47.1861 112.081 46.5528 112.645 45.821 112.93C45.9635 113.617 46.0435 114.292 46.0582 114.904C46.0582 114.912 46.0552 114.92 46.0535 114.928C46.0814 115.022 46.0441 115.136 45.895 115.258C45.4941 115.585 45.0849 115.903 44.669 116.211C45.7837 118.904 46.4171 121.462 46.4594 124.374C46.5881 124.453 46.6331 124.59 46.4782 124.773C46.2504 125.043 46.0139 125.289 45.77 125.514C45.8214 129.699 46.5568 133.982 45.5677 138.107C45.5523 138.172 45.5166 138.228 45.4696 138.278C45.4122 138.367 45.3137 138.445 45.1676 138.491C44.7661 138.62 44.3663 138.722 43.9671 138.805C43.9019 142.492 43.0721 146.107 42.9857 149.79C45.4609 149.974 47.6682 151.588 47.7556 154.23C47.7576 154.298 47.7277 154.36 47.6787 154.413C47.7065 154.432 47.723 154.456 47.7297 154.484ZM138.489 141.945C139.449 138.523 141.944 134.588 139.221 131.366C137.573 129.416 135.418 127.817 135.831 124.958C136.175 122.578 137.617 120.618 138.786 118.582C139.964 116.529 140.917 114.087 138.643 112.372C133.103 108.194 130.128 117.366 129.589 121.508C129.162 124.803 130.3 127.392 131.977 130.149C133.418 132.518 134.649 134.842 134.542 137.674C135.107 138.119 135.625 138.639 136.082 139.228C139.583 134.527 133.852 131.506 131.98 127.548C129.464 122.231 133.569 118.063 136.511 114.011C136.72 113.724 137.71 113.678 137.428 114.067C135.717 116.422 133.398 118.732 132.519 121.574C131.626 124.463 132.489 127.061 134.346 129.336C135.634 130.914 137.379 132.507 138.008 134.504C138.628 136.475 137.939 138.133 136.69 139.686C136.647 139.74 136.579 139.782 136.5 139.813C136.751 140.193 136.98 140.595 137.182 141.019C137.221 141.102 137.215 141.18 137.179 141.248C137.637 141.423 138.079 141.658 138.489 141.945ZM156.047 136.111C155.99 136.145 155.923 136.177 155.833 136.199C154.778 136.466 154.411 137.771 154.707 138.724C155.041 139.797 156.404 140.915 157.56 140.168C159.243 139.08 157.509 136.692 156.047 136.111Z" fill="#3C4B91"/>
</svg>
