<svg width="61" height="60" viewBox="0 0 61 60" fill="none" xmlns="http://www.w3.org/2000/svg">
<path d="M0.5 30C0.5 13.4315 13.9315 0 30.5 0C47.0685 0 60.5 13.4315 60.5 30C60.5 46.5685 47.0685 60 30.5 60C13.9315 60 0.5 46.5685 0.5 30Z" fill="#F8F9FA"/>
<g clip-path="url(#clip0_1878_2670)">
<path d="M22.1084 45.2755C22.1084 44.235 22.9432 43.3915 23.9731 43.3915H35.1614C36.1913 43.3915 37.0261 44.235 37.0261 45.2755C37.0261 46.3159 36.1913 47.1594 35.1614 47.1594H23.9731C22.9432 47.1594 22.1084 46.3159 22.1084 45.2755Z" fill="url(#paint0_linear_1878_2670)"/>
<path d="M16.5142 22.6682H22.1084V30.204H20.2436C18.1839 30.204 16.5142 28.517 16.5142 26.4361V22.6682Z" fill="#D9D9D9"/>
<path d="M16.5142 22.6682H22.1084V30.204H20.2436C18.1839 30.204 16.5142 28.517 16.5142 26.4361V22.6682Z" fill="url(#paint1_linear_1878_2670)"/>
<path d="M42.6203 23.2962C42.6203 22.9494 42.342 22.6682 41.9987 22.6682H37.0261V30.204H38.8909C40.9506 30.204 42.6203 28.517 42.6203 26.4361V23.2962Z" fill="#D9D9D9"/>
<path d="M42.6203 23.2962C42.6203 22.9494 42.342 22.6682 41.9987 22.6682H37.0261V30.204H38.8909C40.9506 30.204 42.6203 28.517 42.6203 26.4361V23.2962Z" fill="url(#paint2_linear_1878_2670)"/>
<path fill-rule="evenodd" clip-rule="evenodd" d="M23.8843 18.848C23.5055 18.848 23.1423 19 22.8744 19.2706C22.6066 19.5412 22.4561 19.9082 22.4561 20.2909V29.8601C22.4561 31.7655 23.2054 33.5929 24.5389 34.9402C25.8725 36.2875 27.6813 37.0445 29.5673 37.0445C31.4532 37.0445 33.262 36.2875 34.5956 34.9402C35.9292 33.5929 36.6784 31.7655 36.6784 29.8601V20.2909C36.6784 19.9082 36.5279 19.5412 36.2601 19.2706C35.9922 19 35.629 18.848 35.2502 18.848H23.8843ZM37.6107 21.7337V20.2909C37.6107 19.6584 37.362 19.0518 36.9193 18.6046C36.4767 18.1573 35.8763 17.9061 35.2502 17.9061H23.8843C23.2582 17.9061 22.6578 18.1573 22.2152 18.6046C21.7725 19.0518 21.5238 19.6584 21.5238 20.2909V21.7337H18.2013C17.5753 21.7337 16.9749 21.985 16.5322 22.4322C16.0895 22.8795 15.8408 23.4861 15.8408 24.1186V26.0324C15.8408 27.1725 16.2891 28.2659 17.087 29.072C17.885 29.8782 18.9672 30.3311 20.0956 30.3311H21.5373C21.6512 32.3146 22.4815 34.1937 23.8797 35.6063C25.2779 37.0189 27.1378 37.8577 29.1011 37.9728V42.786H23.8843C23.2582 42.786 22.6578 43.0372 22.2152 43.4845C21.7725 43.9317 21.5238 44.5383 21.5238 45.1708C21.5238 45.8033 21.7725 46.4099 22.2152 46.8571C22.6578 47.3044 23.2582 47.5556 23.8843 47.5556H35.2502C35.8763 47.5556 36.4767 47.3044 36.9193 46.8571C37.362 46.4099 37.6107 45.8033 37.6107 45.1708C37.6107 44.5383 37.362 43.9317 36.9193 43.4845C36.4767 43.0372 35.8763 42.786 35.2502 42.786H30.0334V37.9728C31.9967 37.8577 33.8567 37.0189 35.2548 35.6063C36.653 34.1937 37.4833 32.3146 37.5972 30.3311H39.0389C40.1673 30.3311 41.2495 29.8782 42.0475 29.072C42.8454 28.2659 43.2937 27.1725 43.2937 26.0324V24.1186C43.2937 23.4861 43.045 22.8795 42.6023 22.4322C42.1596 21.985 41.5592 21.7337 40.9332 21.7337H37.6107ZM37.6107 22.6757V29.3891H39.0389C39.92 29.3891 40.7651 29.0354 41.3882 28.4059C42.0113 27.7764 42.3613 26.9227 42.3613 26.0324V24.1186C42.3613 23.7359 42.2109 23.3689 41.943 23.0983C41.6752 22.8277 41.312 22.6757 40.9332 22.6757H37.6107ZM23.8843 43.7279C23.5055 43.7279 23.1423 43.88 22.8744 44.1506C22.6066 44.4211 22.4561 44.7881 22.4561 45.1708C22.4561 45.5535 22.6066 45.9205 22.8744 46.1911C23.1423 46.4616 23.5055 46.6137 23.8843 46.6137H35.2502C35.629 46.6137 35.9922 46.4616 36.2601 46.1911C36.5279 45.9205 36.6784 45.5535 36.6784 45.1708C36.6784 44.7881 36.5279 44.4211 36.2601 44.1506C35.9922 43.88 35.629 43.7279 35.2502 43.7279H23.8843ZM21.5238 29.3891V22.6757H18.2013C17.8226 22.6757 17.4593 22.8277 17.1915 23.0983C16.9236 23.3689 16.7732 23.7359 16.7732 24.1186V26.0324C16.7732 26.9227 17.1232 27.7764 17.7463 28.4059C18.3694 29.0354 19.2145 29.3891 20.0956 29.3891H21.5238Z" fill="#202529"/>
<path d="M39.453 17.7921C39.556 17.8656 39.6791 17.9049 39.8051 17.9046C39.9312 17.9042 40.0541 17.8643 40.1567 17.7903C40.2608 17.7136 40.3397 17.6073 40.3829 17.4844L40.6442 16.6737C40.7114 16.4705 40.8242 16.2857 40.9738 16.1339C41.1239 15.9826 41.3065 15.8684 41.5075 15.8003L42.3205 15.534C42.4092 15.5017 42.4893 15.4492 42.5547 15.3806C42.6201 15.312 42.669 15.2291 42.6975 15.1383C42.7219 15.0608 42.7308 14.9792 42.7237 14.8982C42.7166 14.8172 42.6936 14.7385 42.6562 14.6665C42.6187 14.5946 42.5675 14.5308 42.5054 14.479C42.4434 14.4272 42.3718 14.3884 42.2948 14.3648L41.4911 14.1008C41.2899 14.0331 41.1069 13.9191 40.9568 13.7678C40.8067 13.6164 40.6934 13.4318 40.6261 13.2286L40.3619 12.409C40.3274 12.3113 40.2691 12.224 40.1923 12.1552C40.1155 12.0864 40.0228 12.0383 39.9227 12.0153C39.8226 11.9923 39.7184 11.9953 39.6198 12.0238C39.5211 12.0524 39.4312 12.1057 39.3583 12.1787C39.2907 12.246 39.2395 12.3283 39.2087 12.419L38.9416 13.2457C38.8752 13.4438 38.7649 13.6239 38.619 13.7722C38.4731 13.9205 38.2955 14.0331 38.0999 14.1014L37.2869 14.3659C37.1985 14.3987 37.1187 14.4513 37.0535 14.5199C36.9883 14.5884 36.9394 14.6711 36.9105 14.7616C36.8824 14.8524 36.8754 14.9485 36.89 15.0426C36.9046 15.1366 36.9404 15.2259 36.9946 15.3037C37.0695 15.41 37.1753 15.4897 37.2968 15.5316L38.0999 15.7944C38.3022 15.8622 38.4859 15.977 38.6362 16.1297C38.7866 16.2823 38.8994 16.4684 38.9655 16.6731L39.2297 17.4945C39.2718 17.6149 39.3501 17.7189 39.453 17.7921ZM43.04 20.1789C43.119 20.2358 43.2135 20.2665 43.3104 20.2667C43.4074 20.2669 43.502 20.2366 43.5812 20.1801C43.6632 20.1223 43.7246 20.0396 43.7566 19.9439L43.9015 19.4939C43.9322 19.4003 43.9841 19.3152 44.0531 19.2455C44.1221 19.1758 44.2063 19.1234 44.299 19.0924L44.7502 18.9436C44.8316 18.916 44.9038 18.866 44.9586 18.7992C45.0134 18.7325 45.0488 18.6516 45.0606 18.5657C45.0774 18.4541 45.0539 18.3402 44.9945 18.2447C44.935 18.1492 44.8436 18.0784 44.7368 18.0454L44.2902 17.8984C44.1979 17.8671 44.114 17.8147 44.045 17.7453C43.9761 17.6758 43.924 17.5912 43.8928 17.498L43.7455 17.0416C43.7135 16.9486 43.6537 16.8681 43.5742 16.8113C43.4844 16.7459 43.3744 16.715 43.2641 16.7242C43.1537 16.7334 43.0502 16.7821 42.9722 16.8614C42.9203 16.9136 42.8813 16.9773 42.8582 17.0475L42.7139 17.4974C42.684 17.59 42.6334 17.6743 42.566 17.7439C42.4986 17.8134 42.4162 17.8663 42.3252 17.8984L41.8734 18.0472C41.7804 18.079 41.6997 18.1397 41.6428 18.2204C41.5858 18.3012 41.5555 18.398 41.556 18.4972C41.5565 18.5963 41.5879 18.6928 41.6457 18.7729C41.7035 18.853 41.7848 18.9127 41.878 18.9436L42.324 19.0894C42.4169 19.1213 42.5017 19.1739 42.5707 19.2436C42.6402 19.3138 42.6917 19.3989 42.7215 19.4928L42.8693 19.9498C42.9014 20.0422 42.961 20.1223 43.04 20.1789Z" fill="url(#paint3_linear_1878_2670)"/>
<path d="M37.5547 22.6875H40.7667C41.6987 22.6875 42.4542 23.443 42.4542 24.375V24.538C42.4542 27.2439 40.2606 29.4375 37.5547 29.4375V22.6875Z" fill="#D9D9D9"/>
<path d="M37.5547 22.6875H40.7667C41.6987 22.6875 42.4542 23.443 42.4542 24.375V24.538C42.4542 27.2439 40.2606 29.4375 37.5547 29.4375V22.6875Z" fill="url(#paint4_linear_1878_2670)"/>
<path d="M21.5195 22.6875H18.3632C17.4312 22.6875 16.6757 23.443 16.6757 24.375V24.5937C16.6757 27.2688 18.8444 29.4375 21.5195 29.4375V22.6875Z" fill="#D9D9D9"/>
<path d="M21.5195 22.6875H18.3632C17.4312 22.6875 16.6757 23.443 16.6757 24.375V24.5937C16.6757 27.2688 18.8444 29.4375 21.5195 29.4375V22.6875Z" fill="url(#paint5_linear_1878_2670)"/>
<rect x="22.4658" y="43.725" width="14.1975" height="2.86875" rx="1.43438" fill="#D9D9D9"/>
<rect x="22.4658" y="43.725" width="14.1975" height="2.86875" rx="1.43438" fill="url(#paint6_linear_1878_2670)"/>
</g>
<defs>
<linearGradient id="paint0_linear_1878_2670" x1="30.4534" y1="12" x2="30.4534" y2="47.5556" gradientUnits="userSpaceOnUse">
<stop stop-color="#98BFFF"/>
<stop offset="1" stop-color="#C2E9FB"/>
</linearGradient>
<linearGradient id="paint1_linear_1878_2670" x1="41.9346" y1="12" x2="41.9346" y2="22.9402" gradientUnits="userSpaceOnUse">
<stop stop-color="#FFCA7B"/>
<stop offset="1" stop-color="#FFEAA2"/>
</linearGradient>
<linearGradient id="paint2_linear_1878_2670" x1="41.9346" y1="12" x2="41.9346" y2="22.9402" gradientUnits="userSpaceOnUse">
<stop stop-color="#FFCA7B"/>
<stop offset="1" stop-color="#FFEAA2"/>
</linearGradient>
<linearGradient id="paint3_linear_1878_2670" x1="40.9742" y1="12" x2="40.9742" y2="20.2667" gradientUnits="userSpaceOnUse">
<stop stop-color="#FFCA7B"/>
<stop offset="1" stop-color="#FFEAA2"/>
</linearGradient>
<linearGradient id="paint4_linear_1878_2670" x1="40.0044" y1="22.6875" x2="40.0044" y2="29.4375" gradientUnits="userSpaceOnUse">
<stop stop-color="#FFCA7B"/>
<stop offset="1" stop-color="#FFEAA2"/>
</linearGradient>
<linearGradient id="paint5_linear_1878_2670" x1="19.0976" y1="22.6875" x2="19.0976" y2="29.4375" gradientUnits="userSpaceOnUse">
<stop stop-color="#FFCA7B"/>
<stop offset="1" stop-color="#FFEAA2"/>
</linearGradient>
<linearGradient id="paint6_linear_1878_2670" x1="29.5646" y1="43.725" x2="29.5646" y2="46.5937" gradientUnits="userSpaceOnUse">
<stop stop-color="#98BFFF"/>
<stop offset="1" stop-color="#C2E9FB"/>
</linearGradient>
<clipPath id="clip0_1878_2670">
<rect width="35.6329" height="36" fill="white" transform="translate(12.5 12)"/>
</clipPath>
</defs>
</svg>
