<svg width="250" height="188" viewBox="0 0 250 188" fill="none" xmlns="http://www.w3.org/2000/svg">
<path d="M44.1638 155.428L50.6036 157.668L48.9237 194.626L37.1645 194.065L43.8841 156.548L44.1638 155.428ZM83.9211 95.7922C77.4817 88.7926 68.522 87.3928 68.522 87.3928C68.522 87.3928 70.482 91.5925 72.7217 93.8326C74.9614 96.0728 77.4813 101.392 80.0011 107.551C82.5209 113.711 85.8807 128.27 85.8807 128.27L95.6803 119.031V116.231C95.6803 116.231 90.3605 102.792 83.9211 95.7922ZM63.4824 87.9531L62.9226 92.7126C62.9226 92.7126 61.5224 93.2724 60.1226 93.5525C58.7229 93.8326 55.3631 92.7126 55.3631 92.7126L52.8433 89.0727L45.5635 91.8726C45.5635 91.8726 46.4035 93.5525 48.0833 95.2324C49.7632 96.9123 52.5632 102.232 52.5632 102.232L56.203 107.832C56.203 107.832 59.2827 107.832 62.3623 107.832C65.442 107.832 72.4416 102.512 72.4416 102.512C72.4416 102.512 70.482 98.8723 69.362 95.5125C68.2419 92.1528 63.4824 87.9531 63.4824 87.9531ZM43.8836 97.7518L39.4042 94.9523C39.4042 94.9523 29.3249 100.272 26.525 107.551C23.7251 114.831 22.8851 126.31 22.8851 126.31C22.8851 126.31 22.3249 134.71 23.7251 136.949C25.1252 139.189 27.6451 141.989 27.6451 141.989C27.6451 141.989 36.8844 141.149 41.6439 139.469C46.4035 137.789 51.1634 134.989 51.1634 134.989L49.2034 130.51C49.2034 130.51 50.8833 131.07 52.5632 125.19C54.243 119.311 50.6032 109.231 50.6032 109.231L43.8836 97.7518Z" fill="url(#paint0_linear_1098_4731)"/>
<path d="M198.65 132.907C199.026 133.509 199.745 133.84 200.443 134.074C200.719 133.613 200.929 133.099 200.835 132.568C200.725 131.95 200.398 131.435 200.057 130.918C199.957 130.767 201.073 130.288 201.274 130.592C201.623 131.122 202.066 131.743 202.067 132.407C202.068 133.182 201.708 133.814 201.266 134.428C201.073 134.696 200.477 134.864 200.166 134.772C199.305 134.517 197.572 134.078 197.34 133.011C197.119 131.992 198.221 131.23 198.939 130.736C199.155 130.587 200.376 130.428 199.872 130.775C199.28 131.182 198.108 132.04 198.65 132.907ZM155.864 135.103C156.098 135.337 155.757 135.639 155.581 135.746C154.767 136.243 153.796 136.622 152.829 136.63C152.172 136.635 151.411 136.539 150.915 136.06C149.535 134.727 151.908 133.325 152.935 132.903C152.975 132.887 153.018 132.873 153.063 132.86C153.116 132.843 153.17 132.832 153.224 132.826C153.426 132.799 153.638 132.831 153.764 133.003C154.465 133.703 155.164 134.403 155.864 135.103ZM154.434 135.328C153.946 134.84 153.457 134.351 152.968 133.862C152.538 134.056 152.086 134.311 151.876 134.683C151.72 134.961 151.702 135.239 151.936 135.423C152.631 135.97 153.636 135.708 154.434 135.328ZM180.793 156.617C180.181 156.33 179.757 155.771 179.893 155.072C179.979 154.635 180.238 154.23 180.524 153.896C181.017 153.32 181.612 152.857 182.233 152.428C182.425 152.295 182.755 152.225 183.001 152.287C183.245 152.228 183.494 152.234 183.592 152.36C184.177 153.107 184.792 154.031 184.738 155.025C184.694 155.833 184.03 156.413 183.302 156.659C182.505 156.929 181.573 156.983 180.793 156.617ZM181.606 155.962C181.737 156.038 181.876 156.098 182.019 156.143C182.033 156.147 182.047 156.151 182.062 156.153C182.099 156.162 182.136 156.171 182.174 156.179C182.246 156.192 182.319 156.203 182.393 156.211C182.404 156.211 182.415 156.212 182.426 156.213C182.466 156.214 182.505 156.215 182.544 156.215C182.576 156.215 182.609 156.214 182.641 156.213C182.643 156.213 182.643 156.213 182.645 156.213C182.684 156.209 182.779 156.192 182.829 156.183C182.854 156.177 182.878 156.171 182.902 156.164C182.928 156.154 182.963 156.141 182.994 156.128C183.029 156.11 183.08 156.082 183.112 156.062C183.12 156.056 183.128 156.051 183.136 156.044C183.164 156.021 183.192 155.997 183.218 155.972C183.227 155.964 183.225 155.966 183.23 155.962C183.253 155.936 183.275 155.909 183.296 155.882C183.322 155.848 183.346 155.813 183.368 155.776C183.375 155.766 183.386 155.744 183.395 155.725C183.424 155.663 183.45 155.6 183.469 155.533C183.493 155.448 183.51 155.361 183.518 155.273C183.521 155.238 183.523 155.203 183.525 155.167C183.523 155.155 183.522 155.082 183.521 155.066C183.506 154.847 183.458 154.631 183.388 154.424C183.212 153.909 182.932 153.462 182.611 153.031C182.575 153.059 182.538 153.086 182.503 153.114C182.358 153.228 182.215 153.347 182.079 153.471C182.013 153.532 181.947 153.593 181.882 153.657C181.856 153.683 181.83 153.708 181.804 153.735C181.795 153.744 181.797 153.742 181.793 153.747C181.79 153.75 181.792 153.748 181.786 153.754C181.691 153.858 181.599 153.964 181.514 154.077C181.441 154.175 181.37 154.276 181.308 154.382C181.299 154.399 181.258 154.476 181.252 154.484C181.237 154.517 181.221 154.55 181.207 154.584C181.143 154.743 181.094 154.911 181.087 155.083C181.087 155.089 181.087 155.086 181.086 155.088C181.087 155.091 181.087 155.09 181.087 155.093C181.087 155.111 181.088 155.129 181.089 155.147C181.092 155.181 181.095 155.216 181.101 155.251C181.113 155.316 181.129 155.382 181.153 155.445C181.167 155.482 181.182 155.517 181.199 155.551C181.205 155.562 181.211 155.573 181.217 155.584C181.252 155.638 181.292 155.69 181.336 155.738C181.386 155.791 181.439 155.842 181.497 155.887C181.523 155.907 181.548 155.927 181.575 155.945C181.586 155.95 181.596 155.957 181.606 155.962ZM205.888 154.099C206.611 154.292 207.411 154.458 207.926 154.936C208.719 155.672 207.947 156.959 207.541 157.683C207.365 157.998 206.931 158.088 206.606 158.016C205.898 157.858 205.111 157.534 204.923 156.752C204.764 156.093 204.827 155.406 204.73 154.735C204.654 154.71 204.58 154.684 204.506 154.656C203.812 154.387 204.717 153.738 205.194 153.884C205.493 153.804 205.821 153.851 205.888 154.099ZM206.746 155.421C206.517 155.289 206.267 155.192 206.009 155.109C206.025 155.435 206.034 155.762 206.078 156.091C206.144 156.586 206.356 156.862 206.696 157.038C206.997 156.472 207.283 155.729 206.746 155.421ZM179.449 170.185C179.336 170.17 179.225 170.125 179.114 170.08C179.118 170.088 179.122 170.096 179.126 170.104C179.223 170.162 179.322 170.219 179.422 170.274C179.673 170.409 179.93 170.536 180.196 170.64C180.561 170.782 180.94 170.916 181.332 170.962C181.464 170.978 181.611 171.004 181.744 170.984C181.751 170.983 181.753 170.983 181.759 170.982C181.891 170.83 181.928 170.632 181.889 170.435C181.717 169.578 180.979 168.908 180.357 168.353C180.103 168.127 181.221 167.667 181.496 167.912C182.239 168.573 184.115 170.466 182.459 171.248C180.91 171.981 179.195 171.285 177.837 170.453C177.796 170.418 177.785 170.376 177.803 170.325C178.017 169.761 178.456 169.445 179.062 169.381C179.306 169.356 179.549 169.372 179.78 169.46C179.862 169.491 179.943 169.525 180.024 169.556C180.032 169.559 180.034 169.56 180.041 169.562C180.187 169.527 180.339 169.514 180.471 169.528C180.72 169.556 180.747 169.718 180.562 169.866C180.271 170.098 179.822 170.237 179.449 170.185ZM180.158 169.601C180.175 169.604 180.176 169.604 180.158 169.601V169.601ZM179.611 169.759C179.658 169.721 179.715 169.69 179.773 169.661C179.72 169.685 179.666 169.715 179.611 169.759ZM64.3053 68.8248C65.4535 69.8202 66.5681 70.9906 67.01 72.4811C67.6739 74.7195 65.1478 74.8644 63.5763 74.7447C63.2525 74.72 62.1589 75.2848 62.8119 75.3344C64.5586 75.4671 67.2057 75.5104 68.1623 73.6881C69.14 71.8272 66.6379 69.4115 65.4426 68.3755C65.1533 68.1239 64.0328 68.588 64.3053 68.8248ZM60.7104 62.1977C61.644 62.1977 62.5772 62.1977 63.5108 62.1977C63.78 62.1977 64.1441 62.1015 64.3171 61.8769C64.4935 61.6484 64.168 61.5636 63.9988 61.5636C63.0652 61.5636 62.132 61.5636 61.1984 61.5636C60.9292 61.5636 60.5651 61.6597 60.3921 61.8844C60.2157 62.1125 60.5411 62.1977 60.7104 62.1977ZM51.4971 65.2022C51.7642 65.2702 52.1102 65.1698 52.3488 65.051C53.3403 64.5554 54.3327 64.0481 55.4087 63.7608C55.5183 63.7319 56.0155 63.5924 55.9635 63.398C55.911 63.2027 55.4108 63.3316 55.3012 63.3606C54.0161 63.7037 52.8267 64.2778 51.6416 64.87C51.5387 64.9212 51.2237 65.1325 51.4971 65.2022ZM54.1862 66.8031C54.1862 67.5494 54.1862 68.2961 54.1862 69.0424C54.1862 69.3876 55.4032 69.1671 55.4032 68.7169C55.4032 67.9702 55.4032 67.2235 55.4032 66.4768C55.4036 66.132 54.1862 66.3529 54.1862 66.8031ZM64.0882 64.345C64.1726 64.0515 63.7212 63.9717 63.5372 63.9885C63.2508 64.0145 62.9442 64.1644 62.8602 64.4555C62.6007 65.3555 63.1559 66.0186 63.7548 66.6183C64.1164 66.9808 65.2709 66.499 64.8736 66.1009C64.3725 65.599 63.8686 65.1043 64.0882 64.345ZM110.216 167.57C111 166.63 112.367 166.318 113.508 166.708C113.699 166.773 113.784 166.937 113.761 167.104C114.422 167.932 114.441 169.084 113.7 169.885C113.006 170.632 111.837 171.083 110.887 170.528C109.904 169.955 109.45 168.487 110.216 167.57ZM111.857 169.821C112.259 169.952 112.683 169.603 112.861 169.252C113.166 168.654 113.03 168.083 112.604 167.584C112.576 167.551 112.556 167.518 112.542 167.485C112.012 167.408 111.378 167.578 111.15 168.092C110.904 168.645 111.244 169.62 111.857 169.821ZM108.55 166.439C110.074 164.613 112.705 164.02 114.921 164.778C115.258 164.893 115.246 165.116 115.087 165.306C115.101 165.319 115.116 165.329 115.128 165.343C116.594 167.058 116.732 169.49 115.146 171.199C113.894 172.55 111.752 173.46 110.012 172.445C108.05 171.301 106.989 168.309 108.55 166.439ZM111.18 171.831C112.551 172.279 114.016 171.325 114.636 170.108C115.394 168.62 115.08 167.129 114.015 165.882C113.912 165.762 113.909 165.64 113.968 165.533C112.306 165.085 110.034 165.576 109.276 167.281C108.604 168.795 109.517 171.288 111.18 171.831ZM55.5582 78.4804C56.1672 78.4048 56.5514 77.6535 55.7115 77.7576C53.8745 77.9848 52.5961 76.9773 52.3236 75.1567C52.2564 74.7086 51.0343 74.9988 51.1065 75.4822C51.4538 77.7996 53.3647 78.7525 55.5582 78.4804ZM229.422 198.357C209.188 198.356 188.955 198.281 168.721 198.211C153.702 198.16 138.684 198.103 123.665 198.039C117.02 198.011 110.224 198.385 103.585 197.949C103.535 197.954 103.528 197.957 103.568 197.947C103.52 197.944 103.471 197.942 103.423 197.94C103.423 198.062 103.423 198.184 103.423 198.306C103.423 198.762 102.2 198.999 102.2 198.435C102.2 190.647 102.2 182.86 102.2 175.072C101.113 172.318 100.294 169.452 99.5824 166.727C98.4842 162.524 97.5947 158.345 97.517 153.981C97.4368 149.439 97.7938 144.908 97.8534 140.368C97.3306 140.62 96.8249 140.898 96.3495 141.218C95.0472 142.095 94.2681 143.402 93.219 144.541C92.8129 144.982 92.3946 145.419 91.9688 145.855C92.0234 145.887 92.065 145.931 92.0826 145.992C96.7048 161.501 96.2911 177.666 96.2823 193.677C96.2823 193.861 96.0253 194.016 95.7477 194.08C89.042 201.745 77.5373 201.956 68.1985 200.573C61.6394 199.602 54.4743 198.107 48.4443 195.209C47.8618 194.93 48.9445 194.321 49.3892 194.535C54.7779 197.124 61.707 198.668 67.7151 199.597C76.8667 201.013 88.3146 201.299 94.8901 193.592C94.935 193.539 94.9964 193.496 95.0657 193.462C95.0791 177.798 95.4256 162.001 91.0092 146.818C85.534 152.175 78.6708 156.923 71.7027 159.693C64.9336 162.384 57.1885 160.987 50.4245 158.547C51.8919 170.269 49.5896 181.972 49.5337 193.707C49.5312 194.262 48.2969 194.442 48.2998 193.798C48.3565 181.972 50.7399 170.169 49.1482 158.358C49.1352 158.261 49.1595 158.172 49.2066 158.093C48.8399 157.952 48.4758 157.809 48.1163 157.663C46.8871 157.164 45.6444 156.62 44.4042 156.037C44.3437 156.158 44.2123 156.272 43.9771 156.329C44.5218 156.197 44.2648 156.166 44.1085 156.773C43.9851 157.255 43.8797 157.741 43.7843 158.229C43.4874 159.745 43.2371 161.271 42.996 162.798C42.3333 166.995 41.7336 171.203 41.1074 175.406C40.4514 179.808 39.8009 184.216 38.9899 188.593C38.5633 190.896 38.3079 193.662 37.174 195.76C36.9451 196.183 35.7125 196.238 36.0224 195.664C37.3844 193.144 37.6108 189.653 38.0895 186.884C38.8929 182.231 39.5817 177.559 40.2709 172.889C40.8861 168.718 41.4665 164.539 42.1851 160.385C42.3484 159.441 42.4257 156.237 43.5974 155.654C37.2084 152.541 31.0042 148.227 27.3563 142.208C27.353 142.203 27.3526 142.198 27.3496 142.193C27.1266 142.253 26.9019 142.265 26.7873 142.179C22.9315 139.247 22.1995 133.415 22.0311 128.926C21.8291 123.539 22.3108 117.915 23.866 112.734C26.7201 103.225 35.1497 96.2985 44.277 92.1643C44.2312 92.1235 44.1871 92.0815 44.1409 92.0412C43.9788 91.9005 45.051 91.4281 45.2899 91.6351C45.3109 91.6536 45.3311 91.6725 45.3517 91.691C47.7312 90.6755 50.1435 89.8498 52.5063 89.2148C52.34 89.0229 52.1636 88.8423 51.9607 88.6949C50.6765 87.7592 49.128 87.1734 47.6615 86.5976C45.1555 85.6136 43.7394 84.3793 42.5975 82.0065C40.249 82.5856 37.6717 81.7011 37.2832 79.2384C37.266 79.2405 37.2487 79.2439 37.2319 79.2451C37.6221 86.425 32.215 91.0963 25.9352 93.5577C25.7512 93.6296 25.0969 93.766 25.0679 93.4015C24.6253 87.8075 27.7692 81.3454 33.099 79.0956C32.5972 78.7954 32.1906 78.3158 31.963 77.6173C31.4162 75.94 32.3758 74.7002 33.9012 74.3181C32.0294 69.6186 26.4689 64.5533 21.1282 65.6314C23.2889 69.3233 25.9465 75.5952 30.9576 75.2731C31.7723 75.2206 30.8933 75.8988 30.4746 75.9261C24.8663 76.286 22.2029 69.7358 19.7906 65.7523C19.6213 65.4722 20.0816 65.2988 20.2815 65.237C25.0587 63.776 30.0807 66.5511 33.099 70.4757C32.1511 66.7913 32.0537 62.8823 33.6089 59.331C35.2174 55.6584 38.1815 52.7173 41.8029 51.0063C48.6501 47.7713 57.5825 48.1111 62.7439 54.1742C62.9241 54.1666 63.0929 54.2124 63.192 54.3354C65.4401 57.1287 67.4736 60.1428 69.1589 63.3094C70.7771 66.3491 72.4175 69.7215 72.6346 73.2152C72.8879 77.2898 70.3277 79.7134 67.7865 82.5465C66.5257 83.9526 65.2259 85.5544 64.2411 87.2061C73.3813 85.706 82.3418 91.0812 87.5255 98.3588C89.8022 101.554 91.8613 104.941 93.6134 108.453C94.7822 110.795 96.2886 113.594 96.5477 116.343C97.2188 114.962 98.0092 113.35 99.2578 112.537C99.7802 112.198 100.676 111.977 101.437 112.074C102.18 105.922 103.482 99.8602 106.092 94.2784C105.799 93.6921 105.503 93.108 105.204 92.5259C105.053 92.4956 104.926 92.4196 104.864 92.2827C104.528 91.5263 104.2 90.7637 103.88 89.9955C103.758 89.765 103.637 89.5332 103.514 89.3039C103.463 89.2073 103.458 89.114 103.484 89.0284C101.801 84.8518 100.418 80.5181 99.6782 76.0899C98.821 70.9579 98.59 65.3643 101.254 60.6997C101.426 60.399 102.155 60.1021 102.392 60.4981C105.936 66.4159 107.384 73.1064 107.856 79.8911C109.984 72.694 115.07 67.1492 121.613 62.8134C121.807 62.684 122.649 62.4669 122.601 62.928C122.022 68.6321 119.495 74.1177 116.751 79.0835C114.561 83.0459 112.106 86.8764 109.362 90.4827C108.635 91.6641 107.975 92.8715 107.388 94.105C109.985 99.3286 112.284 104.718 113.709 110.346C113.819 110.229 113.988 110.144 114.202 110.144C117.553 110.144 120.905 110.144 124.256 110.144C124.215 110.029 124.173 109.916 124.139 109.792C123.488 107.365 124.043 104.815 124.637 102.434C124.738 102.032 125.252 101.9 125.608 101.989C128.7 102.761 129.739 105.722 131.579 107.958C133.558 105.686 135.062 102.996 138.21 102.218C138.428 102.165 138.854 102.155 138.924 102.447C139.585 105.227 139.487 108.195 138.23 110.333C140.375 110.399 142.511 110.619 144.655 110.702C144.51 110.427 144.388 110.126 144.298 109.792C143.647 107.365 144.202 104.815 144.796 102.434C144.897 102.032 145.411 101.9 145.767 101.989C148.859 102.761 149.898 105.722 151.738 107.958C153.717 105.686 155.221 102.996 158.369 102.218C158.587 102.165 159.013 102.155 159.083 102.447C159.775 105.354 159.634 108.464 158.208 110.619C160.344 110.562 162.471 110.328 164.606 110.243C164.551 110.098 164.499 109.95 164.457 109.792C163.806 107.365 164.361 104.815 164.955 102.434C165.056 102.032 165.57 101.9 165.926 101.989C169.018 102.761 170.057 105.722 171.897 107.958C173.876 105.686 175.38 102.996 178.528 102.218C178.746 102.165 179.172 102.155 179.242 102.447C179.889 105.165 179.807 108.061 178.628 110.187C180.667 110.187 182.707 110.187 184.747 110.187C184.7 110.059 184.653 109.931 184.616 109.793C183.965 107.366 184.52 104.815 185.114 102.434C185.214 102.032 185.728 101.9 186.085 101.989C189.176 102.761 190.216 105.723 192.056 107.958C194.035 105.686 195.538 102.997 198.687 102.219C198.905 102.165 199.33 102.155 199.4 102.447C200.047 105.166 199.965 108.061 198.786 110.188C201.445 110.188 204.105 110.188 206.764 110.188C207.587 110.188 206.867 111.009 206.326 111.009C203.633 111.009 200.941 111.009 198.248 111.009C197.304 112.217 195.894 113.061 193.925 113.298C194.119 113.841 194.302 114.388 194.476 114.938C194.585 114.849 194.735 114.787 194.917 114.787C197.552 114.787 200.188 114.787 202.824 114.787C203.312 114.787 203.42 115.087 203.288 115.333C203.302 115.347 203.316 115.362 203.326 115.381C203.391 115.5 203.377 115.613 203.319 115.713C203.507 115.592 203.407 115.803 203.55 116.362C203.723 117.038 203.905 117.713 204.088 118.386C207.128 129.533 210.396 140.622 213.656 151.706C215.344 157.443 217.04 163.177 218.795 168.895C219.365 170.751 219.935 172.608 220.543 174.452C220.727 175.011 220.91 175.571 221.115 176.123C221.54 177.266 221.16 175.843 220.323 176.804C220.648 176.431 221.822 176.533 221.326 177.103C219.988 178.638 218.878 173.393 218.719 172.893C215.1 161.438 211.784 149.882 208.447 138.342C206.869 132.886 205.297 127.428 203.769 121.958C203.322 120.36 202.873 118.763 202.454 117.158C202.355 116.782 202.045 116.099 202.173 115.648C199.716 115.648 197.258 115.648 194.8 115.648C194.761 115.648 194.727 115.644 194.693 115.641C194.88 116.263 195.058 116.888 195.232 117.508C195.516 118.527 195.87 119.599 196.121 120.676C197.847 119.869 199.941 120.105 201.652 121.705C201.955 121.988 200.815 122.446 200.519 122.169C199.599 121.309 198.136 120.366 196.813 120.944C196.607 121.035 196.421 121.145 196.245 121.264C196.331 121.716 196.395 122.167 196.42 122.614C196.444 123.022 195.221 123.253 195.203 122.94C195.193 122.756 195.172 122.571 195.151 122.386C194.916 122.74 194.72 123.127 194.553 123.534C194.543 123.558 194.529 123.58 194.513 123.601C195.614 123.786 196.651 124.38 197.455 125.495C197.69 125.821 196.515 126.214 196.316 125.938C194.861 123.922 192.633 123.487 190.724 125.278C190.672 125.327 190.573 125.371 190.455 125.405C190.029 128.432 188.305 130.921 184.685 131.357C185.182 132.743 185.6 134.162 185.992 135.567C186.372 136.931 186.875 138.39 187.088 139.828C188.184 138.915 189.458 138.251 190.902 137.931C191.65 137.766 191.868 138.534 191.109 138.701C189.249 139.112 187.805 140.181 186.632 141.636C189.305 142.604 190.329 145.337 192.055 147.435C194.034 145.164 195.537 142.474 198.686 141.696C198.904 141.642 199.33 141.633 199.399 141.924C200.546 146.739 199.41 152.115 193.924 152.775C194.421 154.162 194.839 155.581 195.231 156.986C195.653 158.499 196.225 160.13 196.385 161.718C197.72 160.58 199.22 159.703 200.972 159.312C201.727 159.144 201.963 159.987 201.198 160.157C199.379 160.563 197.872 161.565 196.555 162.858C196.183 163.224 195.099 163.044 195.474 162.561C195.321 162.555 195.208 162.511 195.203 162.418C195.096 160.551 194.391 158.586 193.87 156.808C193.31 154.894 192.721 152.961 191.923 151.126C191.8 151.456 191.684 151.787 191.565 152.118C191.557 152.162 191.541 152.207 191.517 152.251C190.44 155.282 189.514 158.36 188.605 161.45C189.607 161.807 190.579 162.273 191.483 162.773C191.498 162.782 191.508 162.792 191.521 162.8C193.844 162.529 196.087 163.267 197.074 165.871C197.264 166.373 196.055 166.72 195.857 166.197C194.574 162.809 190.997 163.231 188.328 164.687C187.737 165.01 187.074 164.419 187.804 164.021C188.481 163.651 189.221 163.34 189.979 163.118C189.439 162.831 188.867 162.554 188.278 162.313C187.952 162.564 187.099 162.645 187.187 162.345C187.224 162.215 187.263 162.086 187.3 161.957C185.552 161.406 183.723 161.318 182.156 162.48C181.728 162.796 180.711 162.521 181.377 162.028C183.272 160.625 185.443 160.57 187.546 161.122C188.389 158.263 189.252 155.416 190.245 152.608C187.845 152.606 185.317 151.886 184.616 149.27C183.965 146.843 184.519 144.293 185.114 141.911C185.159 141.728 185.294 141.603 185.458 141.528C185.46 141.524 185.461 141.522 185.463 141.519C185.621 141.314 185.787 141.117 185.957 140.925C185.836 139.08 185.145 137.144 184.631 135.389C184.071 133.475 183.482 131.542 182.684 129.708C182.561 130.037 182.445 130.368 182.326 130.699C182.318 130.743 182.302 130.788 182.278 130.832C181.189 133.896 180.255 137.009 179.336 140.132C179.355 140.149 179.374 140.163 179.392 140.179C179.524 140.299 179.41 140.447 179.21 140.561C179.192 140.622 179.174 140.683 179.156 140.745C179.05 141.105 177.843 141.28 177.947 140.926C177.99 140.782 178.032 140.639 178.074 140.495C176.361 139.073 174.236 139.231 172.186 139.874C172.061 139.913 171.959 139.921 171.87 139.917C171.741 140.136 170.847 140.452 170.658 140.159C170.273 139.561 169.722 138.905 168.983 138.75C168.036 138.551 167.335 139.316 166.783 139.969C166.715 140.05 166.535 140.12 166.338 140.165C166.45 140.67 166.534 141.175 166.578 141.676C169.173 142.677 170.192 145.366 171.896 147.436C173.875 145.164 175.378 142.474 178.527 141.696C178.745 141.643 179.171 141.633 179.24 141.925C180.387 146.74 179.251 152.115 173.765 152.776C174.262 154.162 174.68 155.581 175.072 156.986C175.484 158.463 176.041 160.052 176.215 161.605C177.503 161.102 178.974 160.97 180.479 161.159C181.097 161.237 179.963 161.704 179.693 161.67C178.371 161.504 177.219 161.642 176.256 162.131C176.228 162.33 175.91 162.48 175.605 162.538C174.945 163.035 174.396 163.738 173.967 164.67C173.821 164.987 172.668 165.09 172.766 164.879C173.306 163.704 174.087 162.828 175.025 162.213C174.881 160.407 174.213 158.522 173.711 156.808C173.151 154.894 172.562 152.961 171.764 151.126C171.641 151.456 171.525 151.787 171.406 152.118C171.398 152.162 171.382 152.207 171.358 152.251C170.272 155.305 169.34 158.407 168.426 161.522C169.993 161.548 171.542 162.247 172.677 163.718C172.9 164.006 171.735 164.409 171.536 164.151C170.616 162.959 169.44 162.253 168.242 162.144C168.24 162.151 168.238 162.157 168.236 162.164C168.13 162.524 166.923 162.699 167.027 162.345C167.037 162.31 167.048 162.276 167.058 162.241C166.209 162.456 165.388 162.992 164.682 163.907C164.489 164.158 163.298 164.316 163.571 163.962C164.546 162.7 165.86 161.909 167.237 161.631C168.128 158.601 169.034 155.583 170.085 152.609C167.686 152.607 165.157 151.887 164.456 149.27C163.943 147.356 164.18 145.367 164.594 143.443C164.293 143.652 163.634 143.786 163.518 143.52C163.242 142.882 162.774 142.087 162 141.983C161.221 141.879 160.525 142.271 159.872 142.65C159.734 142.73 159.471 142.768 159.254 142.759C160.082 147.342 158.777 152.153 153.606 152.776C154.103 154.163 154.521 155.581 154.913 156.987C155.256 158.218 155.703 159.528 155.943 160.829C157.742 158.746 161.709 159.743 163.421 161.978C163.824 162.504 162.674 163.004 162.312 162.532C160.905 160.695 157.05 159.36 156.381 162.472C157.298 162.438 158.234 162.65 159.143 163.188C159.695 163.516 158.597 164.081 158.191 163.841C155.839 162.446 153.576 163.916 152.027 165.758C151.714 166.13 150.543 166.047 151.028 165.47C152.112 164.18 153.555 163.11 155.115 162.677C155.122 162.637 155.132 162.6 155.14 162.561C154.995 162.552 154.889 162.508 154.885 162.418C154.778 160.551 154.072 158.586 153.552 156.808C152.991 154.894 152.403 152.961 151.604 151.126C151.482 151.456 151.365 151.787 151.247 152.118C151.239 152.162 151.222 152.207 151.199 152.251C150.038 155.515 149.054 158.835 148.077 162.164C148.057 162.231 147.998 162.293 147.916 162.345C148.95 162.249 150.01 162.279 151.078 162.415C151.702 162.494 150.571 162.969 150.295 162.934C147.852 162.624 145.615 162.857 143.597 164.383C143.375 164.55 142.157 164.704 142.658 164.325C143.964 163.338 145.406 162.756 146.92 162.481C146.873 162.45 146.85 162.406 146.868 162.345C147.312 160.832 147.757 159.321 148.219 157.817C148.046 157.881 147.873 157.922 147.78 157.911C145.366 157.602 142.545 157.679 141.21 160.058C141.027 160.384 139.879 160.476 140.005 160.251C141.637 157.34 145.357 156.985 148.367 157.337C148.859 155.752 149.373 154.174 149.926 152.608C147.526 152.606 144.998 151.886 144.297 149.269C143.726 147.138 144.083 144.913 144.581 142.789C142.659 142.258 140.941 142.459 139.422 143.899C139.382 143.937 139.328 143.969 139.265 143.996C139.656 148.172 138.153 152.208 133.447 152.774C133.944 154.161 134.362 155.58 134.754 156.985C135.151 158.41 135.687 159.94 135.882 161.44C137.397 161.602 138.83 162.294 139.904 163.66C140.304 164.169 139.151 164.663 138.793 164.207C137.946 163.131 136.856 162.563 135.699 162.396C135.347 162.587 134.739 162.637 134.726 162.417C134.725 162.394 134.721 162.372 134.72 162.349C133.524 162.403 132.312 162.843 131.259 163.577C131.494 163.758 131.723 163.947 131.944 164.153C132.094 164.293 131.013 164.759 130.794 164.553C129.78 163.603 128.6 162.926 127.333 162.503C126.996 162.573 126.653 162.54 126.71 162.344C126.713 162.336 126.715 162.328 126.718 162.32C125.43 161.981 124.066 161.894 122.701 162.055C121.908 162.149 122.954 161.644 123.24 161.611C124.47 161.465 125.708 161.488 126.901 161.697C127.798 158.644 128.71 155.603 129.769 152.606C127.369 152.605 124.841 151.884 124.14 149.268C123.489 146.841 124.044 144.291 124.638 141.91C124.738 141.508 125.252 141.376 125.609 141.465C128.7 142.237 129.74 145.198 131.58 147.434C133.145 145.637 134.414 143.58 136.433 142.413C134.496 139.791 131.508 138.71 128.939 141.43C128.569 141.821 127.397 141.635 127.922 141.079C128.289 140.69 128.67 140.36 129.061 140.081C128.547 137.961 126.798 136.913 124.674 136.873C124.084 136.862 125.225 136.391 125.469 136.396C127.623 136.436 129.53 137.353 130.19 139.432C132.617 138.359 135.247 139.148 137.151 141.38C137.993 138.521 138.857 135.675 139.849 132.867C137.449 132.866 134.921 132.145 134.22 129.529C134.02 128.785 133.935 128.03 133.928 127.272C132.835 127.337 132.099 127.985 131.52 129.098C131.326 129.472 130.102 129.589 130.382 129.052C131.173 127.532 132.429 126.704 133.947 126.557C134.021 125.139 134.335 123.72 134.673 122.353C134.473 120.665 133.862 118.923 133.395 117.328C133.224 116.742 133.049 116.153 132.868 115.567C132.864 115.567 132.861 115.567 132.858 115.567C132.365 115.567 132.466 115.316 132.724 115.114C132.351 113.939 131.939 112.776 131.448 111.647C131.326 111.977 131.209 112.308 131.091 112.639C131.083 112.683 131.066 112.727 131.043 112.771C129.975 115.775 129.056 118.824 128.156 121.886C130.736 121.642 133.128 122.98 133.239 126.391C133.252 126.792 132.031 127.008 132.022 126.718C131.932 123.962 130.132 122.316 127.991 122.445C127.967 122.524 127.944 122.604 127.921 122.684C127.815 123.044 126.608 123.219 126.712 122.865C126.727 122.814 126.742 122.763 126.757 122.712C126.211 122.913 125.662 123.227 125.127 123.668C125.099 123.691 125.058 123.712 125.01 123.732C125.546 124.432 125.924 125.323 126.1 126.391C126.168 126.806 124.944 127.092 124.883 126.717C124.446 124.057 122.562 121.988 119.686 122.629C118.959 122.791 118.801 122.244 119.538 122.08C121.583 121.624 123.371 122.057 124.582 123.251C125.307 122.731 126.112 122.348 126.933 122.116C127.819 119.098 128.723 116.091 129.77 113.128C127.815 113.127 125.777 112.644 124.709 111.049C121.173 111.049 117.637 111.049 114.1 111.049C114.01 111.049 113.934 111.037 113.869 111.017C114.168 112.264 114.422 113.521 114.628 114.791C114.63 114.791 114.63 114.791 114.632 114.791C119.25 114.791 123.868 114.791 128.486 114.791C129.314 114.791 129.046 115.639 128.366 115.639C123.831 115.639 119.295 115.639 114.76 115.639C114.829 116.123 114.887 116.61 114.942 117.098C116.242 116.999 117.721 117.286 118.437 118.503C119.109 119.648 118.985 120.949 118.425 122.086C120.271 123.116 120.177 125.09 119.077 126.668C119.594 127.026 120.019 127.521 119.993 128.189C119.956 129.162 119.234 129.927 118.529 130.519C118.493 130.55 118.45 130.575 118.408 130.601C119.166 131.559 119.012 132.455 118.431 133.21C120.109 138.701 120.844 144.303 121.247 150.018C121.514 153.799 121.807 157.589 121.607 161.381C121.301 167.189 119.892 172.662 117.098 177.385C151.747 177.385 186.397 177.385 221.046 177.385C221.869 177.385 221.14 178.197 220.605 178.197C185.936 178.197 151.267 178.197 116.598 178.197C114.89 180.875 112.712 183.294 110.01 185.375C110.054 185.452 110.095 185.53 110.142 185.607C110.305 185.874 109.153 186.305 108.925 185.934C108.908 185.907 108.895 185.879 108.879 185.853C108.573 185.857 108.352 185.782 108.637 185.57C108.656 185.556 108.675 185.541 108.695 185.526C108.575 185.306 108.462 185.084 108.364 184.859C106.291 182.885 104.701 180.466 103.426 177.855C103.426 184.302 103.426 190.749 103.426 197.196C103.71 197.106 103.996 197.124 104.295 197.124C104.404 197.124 104.484 197.138 104.542 197.164C107.8 197.333 111.12 197.169 114.373 197.184C123.065 197.224 131.758 197.259 140.451 197.293C169.681 197.408 198.91 197.537 228.141 197.542C228.017 197.059 228.139 196.206 228.132 195.862C228.092 194.147 228.056 192.433 228.01 190.72C227.909 186.96 227.949 183.109 227.423 179.379C227.03 176.588 225.561 173.659 224.702 170.98C220.83 158.923 217.082 146.826 213.345 134.727C211.66 129.271 209.978 123.813 208.324 118.346C207.822 116.688 207.319 115.029 206.832 113.366C206.684 112.858 206.257 112.024 206.339 111.475C206.381 111.195 206.769 111.021 207.017 111.013C207.179 111.007 207.435 111.01 207.527 111.179C207.569 111.254 207.577 111.327 207.565 111.395C207.546 111.813 208.145 113.367 208.325 113.973C208.995 116.229 209.679 118.48 210.364 120.731C212.428 127.505 214.517 134.271 216.616 141.035C220.078 152.195 223.502 163.373 227.158 174.472C227.968 176.932 228.672 178.674 228.851 181.291C229.072 184.525 229.166 187.768 229.248 191.008C229.286 192.501 229.318 193.993 229.353 195.486C229.36 195.819 229.31 197.205 229.366 197.274C229.441 197.366 229.447 197.458 229.412 197.544C229.563 197.544 229.715 197.545 229.866 197.545C230.686 197.545 229.957 198.357 229.422 198.357ZM148.293 121.955C148.512 121.902 148.933 121.894 149.002 122.185C149.414 123.914 149.531 125.717 149.257 127.347C150.736 126.131 152.581 125.738 154.401 126.572C154.442 126.591 154.477 126.612 154.507 126.633C154.52 125.434 154.723 124.229 154.985 123.051C154.927 123.027 154.888 122.992 154.885 122.939C154.779 121.073 154.073 119.108 153.552 117.329C152.992 115.415 152.404 113.483 151.605 111.648C151.483 111.978 151.366 112.309 151.248 112.64C151.24 112.684 151.223 112.728 151.2 112.772C150.125 115.798 149.2 118.871 148.293 121.955ZM171.764 111.648C171.642 111.977 171.525 112.308 171.407 112.639C171.399 112.683 171.382 112.728 171.359 112.772C170.321 115.692 169.424 118.656 168.547 121.632C168.654 121.6 168.757 121.563 168.868 121.536C169.086 121.482 169.512 121.472 169.581 121.764C169.9 123.102 170.04 124.482 169.962 125.793C171.698 125.077 173.506 125.241 175.109 126.253C175.111 126.255 175.112 126.256 175.114 126.257C175.035 125.202 175.13 124.137 175.309 123.082C175.159 123.074 175.05 123.031 175.044 122.939C174.938 121.072 174.232 119.107 173.711 117.329C173.151 115.415 172.563 113.482 171.764 111.648ZM190.55 112.284C190.705 111.857 190.865 111.432 191.027 111.007C189.654 111.007 188.281 111.007 186.908 111.007C187.669 111.804 188.834 112.287 190.55 112.284ZM187.752 120.948C188.298 119.106 188.857 117.27 189.457 115.447C184.463 115.447 179.469 115.447 174.475 115.447C174.684 116.134 174.882 116.822 175.073 117.507C175.335 118.447 175.655 119.434 175.9 120.427C176.038 120.078 176.509 119.962 176.845 120.046C179.937 120.818 180.976 123.78 182.816 126.015C184.402 124.194 185.685 122.106 187.752 120.948ZM168.458 122.516C168.392 122.541 168.328 122.571 168.262 122.598C168.254 122.627 168.245 122.656 168.237 122.685C168.174 122.899 167.726 123.046 167.392 123.058C165.474 124.292 164.287 126.533 162.719 128.181C162.605 128.3 162.405 128.365 162.205 128.382C161.955 128.447 161.683 128.434 161.539 128.28C159.745 126.361 158.824 123.47 156.352 122.373C155.399 126.599 155.223 131.612 160.731 131.604C160.977 130.928 161.229 130.253 161.493 129.582C161.611 129.281 162.525 128.976 162.706 129.328C163.118 130.133 163.48 130.967 163.808 131.816C168.732 131.444 169.282 126.458 168.458 122.516ZM160.427 132.448C158.027 132.447 155.499 131.726 154.798 129.11C154.625 128.468 154.54 127.817 154.514 127.163C154.315 127.364 153.951 127.496 153.695 127.379C152.321 126.749 151.041 126.945 149.936 127.989C149.748 128.168 149.364 128.211 149.089 128.148C148.433 130.679 146.713 132.652 143.527 133.035C144.025 134.422 144.443 135.841 144.835 137.246C145.216 138.612 145.72 140.075 145.932 141.516C148.892 142.353 149.932 145.24 151.737 147.434C153.148 145.815 154.32 143.986 156.016 142.785C156.014 142.782 156.011 142.78 156.009 142.777C154.764 140.519 152.062 139.72 149.827 141.095C149.346 141.39 148.327 141.007 149.03 140.575C151.728 138.916 155.397 139.262 157.07 142.163C157.184 142.109 157.301 142.06 157.419 142.012C158.362 138.8 159.314 135.6 160.427 132.448ZM169.236 115.636C164.282 115.636 159.328 115.636 154.374 115.636C154.562 116.26 154.74 116.885 154.914 117.507C155.252 118.719 155.689 120.007 155.932 121.288C156.047 121.276 156.163 121.28 156.266 121.306C159.358 122.079 160.397 125.04 162.237 127.275C163.837 125.438 165.13 123.33 167.23 122.179C167.874 119.988 168.528 117.803 169.236 115.636ZM149.146 115.426C149 115.508 148.837 115.568 148.704 115.568C143.867 115.568 139.031 115.568 134.195 115.568C134.39 116.214 134.575 116.862 134.755 117.507C135.136 118.874 135.641 120.336 135.853 121.778C138.813 122.615 139.853 125.502 141.658 127.695C143.345 125.758 144.69 123.521 147 122.42C147.689 120.077 148.385 117.74 149.146 115.426ZM140.153 132.023C140.399 131.347 140.651 130.672 140.915 130.001C141.034 129.7 141.947 129.395 142.128 129.747C142.541 130.553 142.902 131.386 143.23 132.235C148.153 131.865 148.704 126.879 147.88 122.936C145.292 123.915 143.98 126.669 142.141 128.601C142.027 128.72 141.827 128.785 141.627 128.802C141.377 128.867 141.104 128.854 140.96 128.7C139.184 126.798 138.263 123.942 135.841 122.823C135.815 122.846 135.785 122.867 135.752 122.888C135.482 124.108 135.28 125.389 135.261 126.593C135.346 126.605 135.432 126.615 135.518 126.631C135.781 126.678 135.824 126.919 135.641 127.09C135.538 127.186 135.408 127.251 135.27 127.291C135.4 129.924 136.583 132.028 140.153 132.023ZM134.615 161.427C134.374 159.866 133.824 158.273 133.394 156.806C132.834 154.892 132.246 152.96 131.447 151.125C131.325 151.454 131.208 151.785 131.089 152.116C131.081 152.16 131.065 152.205 131.042 152.249C129.906 155.442 128.94 158.688 127.984 161.944C128.838 162.186 129.658 162.535 130.423 163.001C131.672 162.109 133.146 161.543 134.615 161.427ZM137.801 142.675C137.79 142.679 137.779 142.683 137.769 142.688C137.637 142.838 137.399 142.943 137.172 142.961C134.99 144.115 133.746 146.571 132.061 148.339C131.947 148.458 131.748 148.523 131.547 148.54C131.298 148.606 131.025 148.593 130.881 148.439C129.087 146.519 128.166 143.629 125.695 142.532C124.742 146.758 124.566 151.771 130.074 151.762C130.32 151.086 130.572 150.411 130.835 149.741C130.954 149.439 131.868 149.134 132.049 149.487C132.461 150.292 132.822 151.126 133.15 151.974C138.074 151.603 138.625 146.617 137.801 142.675ZM144.734 141.94C144.517 140.299 143.926 138.613 143.474 137.068C142.913 135.153 142.325 133.221 141.526 131.386C141.404 131.716 141.287 132.047 141.169 132.378C141.161 132.422 141.144 132.466 141.121 132.51C140.045 135.536 139.121 138.609 138.214 141.693C138.433 141.641 138.854 141.632 138.923 141.923C139.013 142.298 139.087 142.677 139.147 143.057C140.796 141.843 142.728 141.521 144.734 141.94ZM157.959 142.675C155.372 143.653 154.06 146.408 152.22 148.339C152.106 148.458 151.907 148.523 151.706 148.54C151.456 148.606 151.184 148.593 151.04 148.439C149.263 146.537 148.342 143.68 145.92 142.562C145.894 142.585 145.864 142.606 145.832 142.627C144.898 146.833 144.767 151.77 150.233 151.762C150.479 151.086 150.731 150.411 150.994 149.74C151.113 149.439 152.027 149.134 152.208 149.486C152.62 150.292 152.981 151.125 153.309 151.974C158.233 151.603 158.783 146.617 157.959 142.675ZM165.313 141.519C165.095 139.879 164.505 138.193 164.052 136.648C163.492 134.733 162.903 132.801 162.105 130.966C161.982 131.296 161.866 131.627 161.747 131.958C161.739 132.002 161.723 132.046 161.699 132.09C160.578 135.245 159.621 138.45 158.677 141.667C158.859 141.677 159.039 141.742 159.082 141.923C159.117 142.068 159.149 142.214 159.179 142.36C161.122 141.244 163.563 140.712 164.676 143.073C164.765 142.681 164.859 142.293 164.955 141.909C165.002 141.721 165.142 141.594 165.313 141.519ZM166.012 142.531C165.059 146.757 164.884 151.77 170.391 151.762C170.637 151.086 170.889 150.411 171.153 149.74C171.271 149.439 172.185 149.134 172.366 149.486C172.779 150.292 173.14 151.125 173.468 151.974C178.391 151.604 178.942 146.618 178.118 142.675C175.53 143.654 174.218 146.408 172.378 148.34C172.265 148.459 172.065 148.524 171.864 148.541C171.615 148.606 171.342 148.593 171.198 148.439C169.405 146.519 168.484 143.628 166.012 142.531ZM178.381 139.45C179.2 136.676 180.042 133.913 181.005 131.188C178.606 131.187 176.078 130.466 175.376 127.85C175.267 127.441 175.193 127.03 175.147 126.616C174.929 126.837 174.374 127.003 174.144 126.858C172.923 126.086 171.616 125.782 170.251 126.401C170.136 126.453 170.015 126.475 169.901 126.475C169.522 129.587 167.801 132.171 164.105 132.615C164.603 134.002 165.021 135.421 165.413 136.826C165.653 137.688 165.942 138.589 166.178 139.498C167.828 137.969 170.149 137.595 171.64 139.51C171.714 139.421 171.839 139.336 172.027 139.277C174.148 138.612 176.466 138.37 178.381 139.45ZM186.171 142.531C185.218 146.757 185.042 151.77 190.55 151.762C190.796 151.086 191.048 150.411 191.312 149.74C191.43 149.439 192.344 149.134 192.525 149.486C192.937 150.292 193.298 151.125 193.626 151.974C198.55 151.604 199.1 146.618 198.276 142.675C195.689 143.654 194.377 146.408 192.537 148.34C192.423 148.459 192.224 148.524 192.023 148.541C191.773 148.606 191.501 148.593 191.357 148.439C189.564 146.519 188.643 143.628 186.171 142.531ZM189.037 121.256C188.951 121.288 188.868 121.325 188.785 121.362C188.654 121.803 188.525 122.244 188.395 122.685C188.289 123.045 187.082 123.22 187.186 122.867C187.248 122.654 187.311 122.442 187.373 122.23C185.792 123.508 184.697 125.452 183.297 126.921C183.183 127.04 182.984 127.105 182.783 127.122C182.534 127.187 182.261 127.174 182.117 127.021C180.323 125.101 179.402 122.21 176.93 121.113C175.978 125.339 175.802 130.352 181.31 130.344C181.556 129.668 181.808 128.993 182.071 128.322C182.19 128.021 183.104 127.716 183.285 128.068C183.697 128.873 184.058 129.707 184.386 130.556C189.31 130.184 189.861 125.198 189.037 121.256ZM194.996 121.395C194.723 120.015 194.249 118.622 193.87 117.329C193.31 115.415 192.721 113.482 191.923 111.648C191.8 111.977 191.684 112.308 191.565 112.639C191.557 112.683 191.541 112.728 191.517 112.772C190.624 115.284 189.835 117.83 189.074 120.387C189.197 120.348 189.318 120.308 189.446 120.276C189.665 120.222 190.09 120.212 190.16 120.504C190.482 121.856 190.622 123.251 190.539 124.575C191.431 123.98 192.424 123.621 193.408 123.551C193.798 122.668 194.346 121.942 194.996 121.395ZM197.014 111.007C195.677 111.007 194.341 111.007 193.004 111.007C193.226 111.496 193.432 111.994 193.626 112.496C195.14 112.382 196.24 111.83 197.014 111.007ZM186.316 110.186C187.999 110.186 189.682 110.186 191.365 110.186C191.587 109.914 192.359 109.686 192.525 110.008C192.555 110.067 192.582 110.127 192.611 110.186C194.285 110.186 195.958 110.186 197.632 110.186C198.769 108.292 198.77 105.558 198.276 103.197C195.689 104.176 194.377 106.93 192.537 108.861C192.423 108.981 192.224 109.046 192.023 109.063C191.773 109.128 191.501 109.115 191.357 108.961C189.563 107.042 188.642 104.151 186.17 103.054C185.606 105.558 185.315 108.337 186.316 110.186ZM178.088 111.007C177.145 112.216 175.735 113.059 173.765 113.296C173.99 113.923 174.199 114.557 174.396 115.193C174.634 115.086 174.94 114.985 175.049 114.985C179.902 114.985 184.755 114.985 189.607 114.985C189.814 114.365 190.027 113.747 190.245 113.13C188.272 113.128 186.216 112.636 185.157 111.007C182.8 111.007 180.444 111.007 178.088 111.007ZM166.012 103.054C165.059 107.28 164.884 112.293 170.391 112.285C170.637 111.608 170.889 110.934 171.153 110.263C171.271 109.962 172.185 109.656 172.366 110.009C172.779 110.814 173.14 111.648 173.468 112.497C174.989 112.382 176.09 111.826 176.865 110.998C176.276 110.905 176.938 110.187 177.444 110.187C177.453 110.187 177.464 110.187 177.473 110.187C178.61 108.292 178.611 105.558 178.118 103.198C175.53 104.177 174.218 106.931 172.378 108.862C172.265 108.982 172.065 109.047 171.864 109.063C171.615 109.129 171.342 109.116 171.198 108.962C169.405 107.042 168.484 104.151 166.012 103.054ZM157.601 111.391C156.669 112.393 155.36 113.085 153.607 113.296C153.785 113.794 153.954 114.294 154.114 114.797C159.247 114.797 164.379 114.797 169.512 114.797C169.699 114.24 169.89 113.684 170.086 113.129C168.105 113.128 166.042 112.632 164.985 110.987C162.519 111.034 160.067 111.336 157.601 111.391ZM145.854 103.054C144.901 107.28 144.725 112.293 150.233 112.285C150.479 111.608 150.731 110.934 150.994 110.263C151.113 109.962 152.027 109.656 152.208 110.009C152.62 110.814 152.981 111.648 153.309 112.497C158.233 112.126 158.783 107.14 157.959 103.198C155.372 104.177 154.06 106.931 152.22 108.862C152.106 108.982 151.907 109.047 151.706 109.063C151.456 109.129 151.184 109.116 151.04 108.962C149.246 107.042 148.325 104.151 145.854 103.054ZM137.847 110.903C136.904 112.167 135.473 113.052 133.448 113.296C133.634 113.815 133.81 114.339 133.976 114.865C139.042 114.865 144.108 114.865 149.174 114.865C149.234 114.865 149.283 114.87 149.326 114.876C149.521 114.292 149.722 113.71 149.928 113.129C148.075 113.128 146.149 112.694 145.043 111.293C142.639 111.249 140.248 110.984 137.847 110.903ZM125.815 110.143C125.902 110.143 125.99 110.143 126.077 110.143C126.716 110.143 126.722 110.687 126.366 110.932C127.125 111.772 128.306 112.288 130.074 112.285C130.32 111.608 130.572 110.934 130.835 110.263C130.954 109.962 131.868 109.656 132.049 110.009C132.461 110.814 132.822 111.648 133.15 112.497C134.752 112.376 135.89 111.768 136.669 110.865C136.321 110.798 136.681 110.524 137.03 110.388C138.292 108.49 138.311 105.644 137.8 103.198C135.213 104.177 133.901 106.931 132.061 108.862C131.947 108.982 131.748 109.047 131.547 109.063C131.297 109.129 131.025 109.116 130.881 108.962C129.087 107.043 128.166 104.152 125.694 103.055C125.135 105.538 124.842 108.294 125.815 110.143ZM106.592 92.525C107.017 92.0034 107.437 91.4759 107.85 90.9434C108.072 90.5667 108.297 90.1908 108.534 89.8196C108.604 89.7104 108.737 89.6289 108.891 89.5773C111.379 86.2326 113.634 82.699 115.616 79.0478C118.164 74.3512 120.549 69.2898 121.278 63.9406C113.825 69.1877 108.642 76.1731 108.043 85.606C108.017 86.0252 106.792 86.2654 106.825 85.7539C106.829 85.693 106.835 85.6333 106.84 85.5724C106.827 85.5355 106.819 85.4956 106.819 85.4502C106.789 77.378 105.77 69.1386 101.823 61.994C99.7135 66.6271 100.116 72.1271 101.128 77.0008C102.031 81.3521 103.418 85.5796 105.112 89.6827C105.611 90.6255 106.105 91.5721 106.592 92.525ZM102.547 114.025C102.486 115.471 103.911 116.094 105.088 116.539C107.86 117.589 110.842 118 113.795 118.056C113.024 110.126 110.189 102.688 106.726 95.5694C104.405 100.985 103.25 106.816 102.58 112.722C102.729 113.102 102.561 113.688 102.547 114.025ZM68.3005 87.7474C79.1085 98.4193 81.7631 113.421 86.7557 127.218C89.2142 124.879 91.645 122.512 94.0602 120.103C94.5751 119.494 95.0593 118.863 95.502 118.208C95.3962 118.161 95.3302 118.076 95.3416 117.945C95.6137 114.859 93.7478 111.429 92.3967 108.779C90.7059 105.461 88.8009 102.221 86.6394 99.1866C82.3767 93.2024 75.6991 88.2716 68.3005 87.7474ZM35.9943 79.2359C35.4164 79.4417 34.8104 79.5261 34.2418 79.4656C34.1918 79.4984 34.1326 79.5303 34.0553 79.5593C29.0581 81.4097 26.0603 87.3943 26.2564 92.5725C31.8572 90.1551 36.51 85.824 35.9943 79.2359ZM36.5138 78.582C35.8087 77.3024 35.3954 75.9068 35.2316 74.4613C35.1002 74.7216 34.4169 74.922 34.1351 74.7628C31.803 75.1719 33.469 79.8713 35.6768 78.8449C35.8553 78.7622 36.0783 78.682 36.2916 78.6757C36.3605 78.6366 36.4361 78.6055 36.5138 78.582ZM35.2052 74.2147C35.201 74.169 35.1943 74.1232 35.1905 74.0774C35.1796 74.082 35.1682 74.0862 35.1573 74.0909C35.1728 74.1324 35.1901 74.1732 35.2052 74.2147ZM45.2265 65.4046C45.2265 65.4038 45.2265 65.4033 45.2265 65.4029C45.1837 64.9603 45.8632 64.6827 46.2256 64.8108C52.0918 61.4241 58.6941 59.3129 65.3821 59.2357C64.2995 57.6893 63.1727 56.2308 62.0955 54.8911C61.9548 54.9011 61.8368 54.8818 61.783 54.8159C56.8051 48.7335 47.4985 47.9301 40.9991 52.0474C33.5358 56.7763 32.3149 65.2715 35.2467 73.0489C35.3937 72.9128 35.6785 72.8204 35.925 72.7936C38.6653 70.0054 41.8109 67.4906 45.2265 65.4046ZM42.9276 74.5007C43.2375 74.5411 43.5441 74.599 43.8456 74.6696C44.0031 74.4881 44.1417 74.284 44.2702 74.0673C43.8372 74.2567 43.3753 74.397 42.9276 74.5007ZM38.313 75.6779L37.725 75.9135L37.7821 76.3692C37.932 76.1092 38.1122 75.8812 38.313 75.6779ZM55.3633 92.142C55.4872 92.1298 55.5918 92.1416 55.6485 92.1924C57.296 93.6808 59.786 93.6245 61.7628 92.8627C61.7486 92.822 61.7381 92.7783 61.7385 92.727C61.7544 91.2466 61.7679 89.6369 62.4289 88.2712C62.4428 88.2422 62.4587 88.2145 62.473 88.1859C62.3668 88.1107 62.2651 88.0297 62.1563 87.9579C61.6751 87.6391 62.5343 87.1704 62.985 87.2704C63.546 86.3657 64.2113 85.5262 64.8227 84.6539C67.0981 81.4076 71.5221 78.5866 71.4402 74.2269C71.3482 69.3212 68.8633 64.3652 65.9277 60.0281C65.876 60.0399 65.824 60.0487 65.774 60.0479C59.0444 59.9546 52.3702 62.1192 46.491 65.6028C46.7292 68.4494 46.7619 72.6693 44.8771 74.9778C45.4113 75.2458 44.5478 75.8342 44.098 75.7035C43.7726 75.827 43.3614 75.7023 43.2808 75.4679C41.0323 74.9316 38.3768 75.3184 38.4683 78.2578C38.5431 80.6613 40.5044 82.0333 42.7785 81.1644C43.0536 81.059 43.495 80.9826 43.6449 81.3164C44.3769 82.9497 45.2441 84.4423 46.924 85.2276C48.3847 85.9101 49.9163 86.4094 51.361 87.1322C53.6356 88.2686 54.3924 89.8834 55.3633 92.142ZM45.8014 92.0967C50.5925 96.4366 53.7158 101.886 57.0835 107.354C57.0982 107.379 57.0747 107.413 57.0277 107.451C62.3991 107.411 67.3808 106.082 71.4222 102.302C69.712 97.5756 67.3904 92.2235 63.4268 88.9171C63.0442 90.1018 62.9837 91.3357 62.9703 92.6292C62.9669 92.9387 62.5549 93.1315 62.208 93.1197C59.9288 94.0159 56.7816 94.4015 54.7393 92.7959C54.4995 92.8161 54.2689 92.7531 54.1866 92.5612C53.8015 91.6628 53.4365 90.5449 52.8448 89.6579C50.5064 90.2773 48.1327 91.0921 45.8014 92.0967ZM40.291 94.8912C43.5386 95.8063 45.8665 99.0094 47.5132 101.755C49.4451 104.976 51.1065 108.496 52.0582 112.141C53.5176 117.728 55.84 127.604 49.6425 131.245C50.335 132.37 51.0511 133.461 51.7638 134.512C51.8074 134.577 51.6512 134.683 51.6235 134.701C51.1653 135.008 50.6979 135.305 50.2233 135.597C50.3758 135.56 50.5169 135.549 50.6088 135.59C60.3249 139.961 72.2831 140.558 80.622 132.942C82.5707 131.163 84.4862 129.369 86.3878 127.565C86.0543 127.695 85.6113 127.745 85.5432 127.558C80.4885 113.595 77.867 98.3798 66.6769 87.7038C65.7899 87.7197 64.8946 87.8008 63.9933 87.9532C68.3106 91.2916 70.8073 96.9259 72.6237 101.935C72.7585 101.984 72.8215 102.075 72.7257 102.215C72.7375 102.248 72.7501 102.281 72.7619 102.314C72.8673 102.608 72.4154 102.855 72.0282 102.871C67.3165 107.067 61.3756 108.365 55.1218 108.158C54.297 108.131 55.1059 107.42 55.5868 107.436C55.6304 107.437 55.6737 107.437 55.7174 107.438C52.4433 102.111 49.3825 96.8176 44.7293 92.5725C43.219 93.2654 41.7328 94.039 40.291 94.8912ZM28.0296 141.418C32.3032 141.676 36.6272 140.885 40.6652 139.501C41.6786 139.154 51.0355 135.581 50.2237 134.362C46.4171 128.647 42.553 121.778 42.9876 114.68C43.0107 114.307 44.2169 114.159 44.2047 114.354C43.8561 120.045 46.2588 125.599 49.2103 130.533C54.6351 126.859 52.2098 116.807 50.6114 111.664C49.5425 108.225 48.0584 104.835 46.1051 101.805C44.4869 99.2941 42.3934 96.3178 39.3171 95.5791C39.2785 95.5698 39.247 95.5581 39.218 95.5463C32.2725 99.9153 26.5529 106.164 24.6576 114.116C23.4599 119.14 22.9269 124.445 23.3041 129.603C23.6014 133.675 24.3128 138.726 27.6558 141.504C27.8099 141.449 27.954 141.413 28.0296 141.418ZM98.7001 139.124C104.297 136.727 110.816 136.374 116.418 134.095C116.448 134.084 116.477 134.075 116.508 134.067C116.766 133.879 116.996 133.672 117.186 133.449C117.185 133.446 117.184 133.443 117.183 133.44C117.148 133.326 117.259 133.212 117.425 133.124C117.822 132.485 117.861 131.744 117.221 130.969C117.138 130.869 117.277 130.742 117.484 130.641C117.398 130.538 117.399 130.392 117.539 130.274C118.063 129.834 118.735 129.23 118.764 128.485C118.794 127.692 118.149 127.248 117.507 126.936C117.08 126.73 117.689 126.342 118.153 126.284C118.904 125.075 118.875 123.657 117.653 122.835C117.279 122.922 116.856 122.904 116.941 122.77C118.284 120.639 117.597 117.84 115.005 117.669C115.016 117.778 115.032 117.886 115.042 117.996C115.076 118.367 114.568 118.617 114.198 118.6C114.033 118.721 113.821 118.815 113.645 118.813C109.755 118.771 105.161 118.286 101.913 115.95C101.288 115.5 101.337 114.924 101.41 114.338C101.284 114.281 101.202 114.176 101.219 114.011C101.253 113.685 101.29 113.36 101.327 113.035C100.603 111.538 98.4947 114.948 98.3166 115.266C97.9853 115.86 97.6695 116.46 97.3642 117.068C97.3129 117.17 97.1911 117.252 97.0441 117.309C97.1525 117.376 97.1915 117.489 97.0907 117.653C95.6276 120.052 93.5735 122.12 91.5917 124.091C90.22 125.456 88.7783 127.187 87.1102 128.21C87.0131 128.269 86.8918 128.3 86.7679 128.309C83.6819 131.216 80.5679 134.213 76.8503 136.254C68.3597 140.913 58.0692 139.863 49.5077 136.023C43.298 139.686 35.8435 142.08 28.6528 141.98C33.3817 149.55 42.301 154.618 50.4875 157.556C54.8787 159.132 59.5504 160.354 64.2461 160.365C68.6302 160.375 72.3906 158.806 76.151 156.653C80.4406 154.196 84.5534 151.336 88.2739 148.076C89.7572 146.776 91.2225 145.432 92.516 143.939C93.4084 142.911 94.1195 141.743 95.2681 140.969C96.1118 140.401 96.9921 139.914 97.8992 139.485C98.0101 139.278 98.3973 139.142 98.7001 139.124ZM120.449 158.772C120.464 150.555 119.712 142.041 117.395 134.162C117.345 134.197 117.295 134.231 117.244 134.265C117.319 134.399 117.253 134.567 116.927 134.699C116.182 135.002 115.421 135.269 114.65 135.5C110.59 136.718 106.415 137.509 102.361 138.747C101.281 139.077 100.157 139.418 99.0726 139.841C99.0167 144.446 98.5913 149.051 98.7345 153.654C98.8093 156.052 99.0894 158.388 99.5098 160.707C103.346 155.208 117.348 152.658 120.449 158.772ZM100.655 165.846C101.316 168.379 102.05 171.036 102.993 173.62C103.228 173.627 103.423 173.723 103.423 173.948C103.423 174.216 103.423 174.483 103.423 174.751C104.51 177.507 105.865 180.143 107.671 182.407C107.397 180.511 107.636 178.539 108.085 176.619C108.173 176.244 109.39 176.048 109.297 176.446C108.664 179.146 108.466 181.923 109.543 184.449C109.622 184.523 109.697 184.599 109.777 184.672C116.667 178.99 119.832 170.852 120.363 162.097C120.09 162.142 119.839 162.117 119.842 161.997C120.015 152.606 102.626 155.085 100.055 161.738C100.019 161.834 99.9004 161.912 99.7521 161.971C100.015 163.264 100.317 164.553 100.655 165.846Z" fill="#3C4B91"/>
<line x1="203.889" y1="85.5068" x2="209.514" y2="62.3818" stroke="#3C4B91"/>
<line x1="213.988" y1="87.1834" x2="230.863" y2="66.5584" stroke="#3C4B91"/>
<line x1="219.257" y1="94.5141" x2="239.882" y2="89.5141" stroke="#3C4B91"/>
<defs>
<linearGradient id="paint0_linear_1098_4731" x1="59.2273" y1="87.3928" x2="59.2273" y2="194.626" gradientUnits="userSpaceOnUse">
<stop stop-color="#FFBD55"/>
<stop offset="1" stop-color="#FFF2C5"/>
</linearGradient>
</defs>
</svg>
