<svg width="343" height="527" viewBox="0 0 343 527" fill="none" xmlns="http://www.w3.org/2000/svg">
<g clip-path="url(#clip0_1102_6746)">
<rect width="343" height="527" rx="20" fill="white"/>
<g clip-path="url(#clip1_1102_6746)">
<path d="M371.5 -4H-28.5V528H371.5V-4Z" fill="white"/>
<path d="M127.5 51.3836C127.5 37.1935 139.013 25.6902 153.214 25.6902C167.416 25.6902 178.929 37.1935 178.929 51.3836C178.929 65.5738 167.416 77.077 153.214 77.077C139.013 77.077 127.5 65.5738 127.5 51.3836Z" fill="#F8F9FA"/>
<path d="M157.785 39.9652C157.785 39.3652 157.667 38.7711 157.437 38.2168C157.208 37.6625 156.871 37.1589 156.447 36.7346C156.022 36.3104 155.518 35.9739 154.963 35.7443C154.409 35.5146 153.815 35.3965 153.214 35.3965C152.613 35.3965 152.019 35.5146 151.465 35.7443C150.91 35.9739 150.406 36.3104 149.981 36.7346C149.557 37.1589 149.22 37.6625 148.991 38.2168C148.761 38.7711 148.643 39.3652 148.643 39.9652H153.214H157.785Z" fill="url(#paint0_linear_1102_6746)"/>
<path d="M155.5 57.6642H150.929V62.2329H155.5V57.6642Z" fill="#D9D9D9"/>
<path d="M155.5 57.6642H150.929V62.2329H155.5V57.6642Z" fill="url(#paint1_linear_1102_6746)"/>
<path d="M164.357 62.0892H161.357V40.678H162.643C162.756 40.678 162.865 40.6329 162.945 40.5525C163.026 40.4723 163.071 40.3633 163.071 40.2498C163.071 40.1362 163.026 40.0273 162.945 39.947C162.865 39.8666 162.756 39.8215 162.643 39.8215H143.785C143.672 39.8215 143.563 39.8666 143.483 39.947C143.402 40.0273 143.357 40.1362 143.357 40.2498C143.357 40.3633 143.402 40.4723 143.483 40.5525C143.563 40.6329 143.672 40.678 143.785 40.678H145.071V62.0892H142.071C141.957 62.0892 141.848 62.1343 141.768 62.2148C141.688 62.2947 141.643 62.4038 141.643 62.5174C141.643 62.631 141.688 62.7401 141.768 62.82C141.848 62.9005 141.957 62.9456 142.071 62.9456H164.357C164.471 62.9456 164.58 62.9005 164.66 62.82C164.74 62.7401 164.785 62.631 164.785 62.5174C164.785 62.4038 164.74 62.2947 164.66 62.2148C164.58 62.1343 164.471 62.0892 164.357 62.0892ZM145.928 40.678H160.5V62.0892H156.214V57.3787C156.214 57.2651 156.169 57.156 156.088 57.0761C156.008 56.9956 155.899 56.9505 155.785 56.9505H150.643C150.529 56.9505 150.42 56.9956 150.34 57.0761C150.259 57.156 150.214 57.2651 150.214 57.3787V62.0892H145.928V40.678ZM155.357 62.0892H151.071V57.8069H155.357V62.0892ZM149.357 44.532C149.357 44.4184 149.402 44.3095 149.483 44.2292C149.563 44.1489 149.672 44.1038 149.785 44.1038H151.5C151.613 44.1038 151.723 44.1489 151.803 44.2292C151.883 44.3095 151.928 44.4184 151.928 44.532C151.928 44.6456 151.883 44.7545 151.803 44.8348C151.723 44.9151 151.613 44.9602 151.5 44.9602H149.785C149.672 44.9602 149.563 44.9151 149.483 44.8348C149.402 44.7545 149.357 44.6456 149.357 44.532ZM154.5 44.532C154.5 44.4184 154.545 44.3095 154.625 44.2292C154.705 44.1489 154.815 44.1038 154.928 44.1038H156.643C156.756 44.1038 156.865 44.1489 156.945 44.2292C157.026 44.3095 157.071 44.4184 157.071 44.532C157.071 44.6456 157.026 44.7545 156.945 44.8348C156.865 44.9151 156.756 44.9602 156.643 44.9602H154.928C154.815 44.9602 154.705 44.9151 154.625 44.8348C154.545 44.7545 154.5 44.6456 154.5 44.532ZM149.357 48.8142C149.357 48.7007 149.402 48.5917 149.483 48.5114C149.563 48.4311 149.672 48.386 149.785 48.386H151.5C151.613 48.386 151.723 48.4311 151.803 48.5114C151.883 48.5917 151.928 48.7007 151.928 48.8142C151.928 48.9278 151.883 49.0367 151.803 49.117C151.723 49.1973 151.613 49.2424 151.5 49.2424H149.785C149.672 49.2424 149.563 49.1973 149.483 49.117C149.402 49.0367 149.357 48.9278 149.357 48.8142ZM154.5 48.8142C154.5 48.7007 154.545 48.5917 154.625 48.5114C154.705 48.4311 154.815 48.386 154.928 48.386H156.643C156.756 48.386 156.865 48.4311 156.945 48.5114C157.026 48.5917 157.071 48.7007 157.071 48.8142C157.071 48.9278 157.026 49.0367 156.945 49.117C156.865 49.1973 156.756 49.2424 156.643 49.2424H154.928C154.815 49.2424 154.705 49.1973 154.625 49.117C154.545 49.0367 154.5 48.9278 154.5 48.8142ZM149.785 53.5247C149.672 53.5247 149.563 53.4796 149.483 53.3991C149.402 53.3191 149.357 53.2101 149.357 53.0965C149.357 52.9829 149.402 52.874 149.483 52.7937C149.563 52.7133 149.672 52.6682 149.785 52.6682H151.5C151.613 52.6682 151.723 52.7133 151.803 52.7937C151.883 52.874 151.928 52.9829 151.928 53.0965C151.928 53.2101 151.883 53.3191 151.803 53.3991C151.723 53.4796 151.613 53.5247 151.5 53.5247H149.785ZM154.5 53.0965C154.5 52.9829 154.545 52.874 154.625 52.7937C154.705 52.7133 154.815 52.6682 154.928 52.6682H156.643C156.756 52.6682 156.865 52.7133 156.945 52.7937C157.026 52.874 157.071 52.9829 157.071 53.0965C157.071 53.2101 157.026 53.3191 156.945 53.3991C156.865 53.4796 156.756 53.5247 156.643 53.5247H154.928C154.815 53.5247 154.705 53.4796 154.625 53.3991C154.545 53.3191 154.5 53.2101 154.5 53.0965Z" fill="black"/>
<path d="M130.222 87.4661V88.4733H134.15V87.4661H130.222ZM129.422 86.8746H135.006V89.0568H129.422V86.8746ZM130.798 85.9713H133.622V86.5948H130.798V85.9713ZM131.782 87.0744H132.558V88.7611H131.782V87.0744ZM130.502 87.642L131.166 87.4581C131.31 87.7299 131.438 88.0816 131.486 88.3214L130.782 88.5293C130.75 88.2895 130.638 87.9138 130.502 87.642ZM133.15 87.4262L133.942 87.618C133.774 87.9617 133.606 88.2975 133.478 88.5213L132.822 88.3454C132.942 88.0816 133.086 87.69 133.15 87.4262ZM129.862 89.3206H134.598V92.0384H133.614V89.9441H130.806V92.0704H129.862V89.3206ZM130.406 90.2639H134.022V90.8953H130.406V90.2639ZM130.406 91.2231H134.022V91.8466H130.406V91.2231ZM132.046 84.4926L132.894 84.8043C132.006 85.9314 130.478 86.7227 128.918 87.1944C128.822 87.0025 128.574 86.6188 128.414 86.451C129.894 86.0912 131.318 85.4198 132.046 84.4926ZM132.678 84.8603C133.39 85.5477 134.774 86.1232 136.11 86.395C135.91 86.5629 135.638 86.9066 135.502 87.1224C134.158 86.7787 132.79 86.0433 131.966 85.148L132.678 84.8603ZM138.998 85.5637V86.0753H142.246V85.5637H138.998ZM138.038 84.8203H143.27V86.8267H138.038V84.8203ZM138.63 88.7291V89.0648H142.558V88.7291H138.63ZM138.63 89.6803V90.024H142.558V89.6803H138.63ZM138.63 87.7779V88.1136H142.558V87.7779H138.63ZM137.67 87.1224H143.558V90.6715H137.67V87.1224ZM139.222 90.5117L140.078 91.1112C139.438 91.4869 138.398 91.8785 137.582 92.0704C137.406 91.8705 137.086 91.5668 136.854 91.3829C137.694 91.1991 138.718 90.8234 139.222 90.5117ZM140.982 91.1591L141.822 90.5516C142.67 90.7754 143.742 91.1511 144.406 91.4069L143.566 92.0864C142.942 91.7986 141.838 91.3989 140.982 91.1591ZM147.726 87.2583L152.598 86.6108L152.734 87.5221L147.87 88.1776L147.726 87.2583ZM150.742 85.0681L151.462 84.6204C151.878 85.0041 152.382 85.5397 152.606 85.9154L151.838 86.411C151.638 86.0433 151.15 85.4758 150.742 85.0681ZM147.286 84.6284L148.198 84.9322C147.598 86.347 146.622 87.8258 145.622 88.7451C145.526 88.5133 145.254 88.0017 145.086 87.7699C145.95 87.0265 146.79 85.8355 147.286 84.6284ZM146.454 86.9226L147.438 85.9474L147.446 85.9634V92.0544H146.454V86.9226ZM149.222 84.6844H150.198C150.254 88.1056 150.718 90.7595 151.686 90.8953C151.87 90.9113 151.974 90.4957 152.03 89.6164C152.214 89.8162 152.646 90.072 152.822 90.1599C152.614 91.7107 152.182 92.0784 151.734 92.0544C149.838 91.8785 149.366 89.0409 149.222 84.6844ZM154.206 85.14H160.67V85.9554H154.206V85.14ZM154.598 86.379H160.358V87.1384H154.598V86.379ZM153.862 87.586H160.95V88.3934H153.862V87.586ZM156.902 84.5645H157.878V88.2335H156.902V84.5645ZM156.774 87.7939L157.606 88.1696C156.798 89.1608 155.462 90.032 154.206 90.4957C154.062 90.2639 153.782 89.9121 153.574 89.7203C154.79 89.3446 156.11 88.5852 156.774 87.7939ZM158.118 88.0736C158.606 89.5125 159.622 90.5916 161.23 91.0392C161.014 91.2391 160.734 91.6228 160.598 91.8865C158.87 91.295 157.862 90.056 157.254 88.2895L158.118 88.0736ZM160.054 88.5453L160.854 89.1368C160.262 89.5684 159.566 90.0081 159.022 90.2798L158.414 89.7763C158.934 89.4645 159.638 88.9529 160.054 88.5453ZM155.294 92.0704L155.19 91.2471L155.59 90.9353L158.03 90.2639C158.054 90.5276 158.134 90.9113 158.19 91.1192C155.902 91.7986 155.526 91.9185 155.294 92.0704ZM155.294 92.0704C155.23 91.8386 155.046 91.4149 154.894 91.2151C155.07 91.1192 155.294 90.9273 155.294 90.5756V89.1608H156.294V91.2391C156.294 91.2391 155.294 91.7586 155.294 92.0704ZM162.262 86.7147H169.382V87.7059H162.262V86.7147ZM166.366 87.1144C166.846 88.9449 167.862 90.4637 169.558 91.1351C169.318 91.351 168.998 91.7666 168.838 92.0464C167.006 91.1911 166.006 89.5364 165.398 87.3382L166.366 87.1144ZM165.262 84.5645H166.318C166.278 87.0025 166.262 90.3918 162.83 92.0464C162.678 91.7826 162.382 91.4389 162.102 91.2311C165.382 89.7683 165.238 86.7307 165.262 84.5645ZM172.222 87.4661V88.4733H176.15V87.4661H172.222ZM171.422 86.8746H177.006V89.0568H171.422V86.8746ZM172.798 85.9713H175.622V86.5948H172.798V85.9713ZM173.782 87.0744H174.558V88.7611H173.782V87.0744ZM172.502 87.642L173.166 87.4581C173.31 87.7299 173.438 88.0816 173.486 88.3214L172.782 88.5293C172.75 88.2895 172.638 87.9138 172.502 87.642ZM175.15 87.4262L175.942 87.618C175.774 87.9617 175.606 88.2975 175.478 88.5213L174.822 88.3454C174.942 88.0816 175.086 87.69 175.15 87.4262ZM171.862 89.3206H176.598V92.0384H175.614V89.9441H172.806V92.0704H171.862V89.3206ZM172.406 90.2639H176.022V90.8953H172.406V90.2639ZM172.406 91.2231H176.022V91.8466H172.406V91.2231ZM174.046 84.4926L174.894 84.8043C174.006 85.9314 172.478 86.7227 170.918 87.1944C170.822 87.0025 170.574 86.6188 170.414 86.451C171.894 86.0912 173.318 85.4198 174.046 84.4926ZM174.678 84.8603C175.39 85.5477 176.774 86.1232 178.11 86.395C177.91 86.5629 177.638 86.9066 177.502 87.1224C176.158 86.7787 174.79 86.0433 173.966 85.148L174.678 84.8603Z" fill="#202529"/>
<path d="M88.0713 147.876C88.0713 133.686 99.5839 122.183 113.786 122.183C127.987 122.183 139.5 133.686 139.5 147.876C139.5 162.067 127.987 173.57 113.786 173.57C99.5839 173.57 88.0713 162.067 88.0713 147.876Z" fill="#F8F9FA"/>
<path d="M111.5 145.593C113.709 145.593 115.5 143.803 115.5 141.596C115.5 139.389 113.709 137.599 111.5 137.599C109.291 137.599 107.5 139.389 107.5 141.596C107.5 143.803 109.291 145.593 111.5 145.593Z" fill="url(#paint2_linear_1102_6746)"/>
<path d="M118.357 157.583C120.251 157.583 121.786 156.049 121.786 154.157C121.786 152.265 120.251 150.731 118.357 150.731C116.464 150.731 114.929 152.265 114.929 154.157C114.929 156.049 116.464 157.583 118.357 157.583Z" fill="url(#paint3_linear_1102_6746)"/>
<path d="M104.643 157.583V155.299C104.643 154.087 105.124 152.926 105.981 152.069C106.839 151.213 108.001 150.731 109.214 150.731H110.928M120.871 156.669L122.928 158.725M106.928 141.596C106.928 142.807 107.41 143.969 108.267 144.826C109.124 145.682 110.287 146.164 111.5 146.164C112.712 146.164 113.875 145.682 114.732 144.826C115.589 143.969 116.071 142.807 116.071 141.596C116.071 140.384 115.589 139.222 114.732 138.366C113.875 137.51 112.712 137.028 111.5 137.028C110.287 137.028 109.124 137.51 108.267 138.366C107.41 139.222 106.928 140.384 106.928 141.596ZM114.928 154.157C114.928 155.066 115.289 155.937 115.932 156.58C116.576 157.222 117.448 157.583 118.357 157.583C119.266 157.583 120.138 157.222 120.781 156.58C121.424 155.937 121.785 155.066 121.785 154.157C121.785 153.249 121.424 152.377 120.781 151.735C120.138 151.092 119.266 150.731 118.357 150.731C117.448 150.731 116.576 151.092 115.932 151.735C115.289 152.377 114.928 153.249 114.928 154.157Z" stroke="black" stroke-width="0.8" stroke-linecap="round" stroke-linejoin="round"/>
<path d="M101.906 184.559H105.546V185.286H101.906V184.559ZM106.018 184.223H108.77V185.022H106.018V184.223ZM106.306 181.065L107.138 181.233C106.906 182.28 106.474 183.296 105.962 183.943C105.818 183.807 105.466 183.551 105.266 183.431C105.77 182.872 106.122 181.977 106.306 181.065ZM101.906 181.337H105.482V182.057H102.778V184.862H101.906V181.337ZM102.338 182.448H105.298V184.119H102.338V183.503H104.514V183.064H102.338V182.448ZM103.458 181.601H104.226V182.752H103.458V181.601ZM103.458 183.703H104.226V184.87H103.458V183.703ZM106.386 182.216H108.962V183.016H106.034L106.386 182.216ZM101.714 187.516H109.042V188.347H101.714V187.516ZM102.57 185.694H108.218V187.94H107.274V186.437H106.578V187.94H105.706V186.437H105.018V187.94H104.138V186.437H103.458V187.94H102.57V185.694ZM113.266 181.057H114.242V187.652C114.242 188.124 114.122 188.316 113.818 188.451C113.506 188.571 113.074 188.587 112.394 188.587C112.346 188.363 112.194 188.028 112.074 187.836C112.458 187.852 112.93 187.844 113.066 187.844C113.218 187.836 113.266 187.788 113.266 187.652V181.057ZM110.266 181.577H117.306V182.336H110.266V181.577ZM112.002 183.264V183.647H115.538V183.264H112.002ZM111.09 182.656H116.522V184.255H111.09V182.656ZM110.89 184.607H116.658V187.732H115.682V185.262H110.89V184.607ZM110.082 185.598H117.49V186.325H110.082V185.598ZM110.826 186.701H116.202V187.396H110.826V186.701ZM120.194 183.959V184.966H124.122V183.959H120.194ZM119.394 183.368H124.978V185.55H119.394V183.368ZM120.77 182.464H123.594V183.088H120.77V182.464ZM121.754 183.567H122.53V185.254H121.754V183.567ZM120.474 184.135L121.138 183.951C121.282 184.223 121.41 184.575 121.458 184.814L120.754 185.022C120.722 184.782 120.61 184.407 120.474 184.135ZM123.122 183.919L123.914 184.111C123.746 184.455 123.578 184.79 123.45 185.014L122.794 184.838C122.914 184.575 123.058 184.183 123.122 183.919ZM119.834 185.814H124.57V188.531H123.586V186.437H120.778V188.563H119.834V185.814ZM120.378 186.757H123.994V187.388H120.378V186.757ZM120.378 187.716H123.994V188.339H120.378V187.716ZM122.018 180.985L122.866 181.297C121.978 182.424 120.45 183.216 118.89 183.687C118.794 183.495 118.546 183.112 118.386 182.944C119.866 182.584 121.29 181.913 122.018 180.985ZM122.65 181.353C123.362 182.041 124.746 182.616 126.082 182.888C125.882 183.056 125.61 183.4 125.474 183.615C124.13 183.272 122.762 182.536 121.938 181.641L122.65 181.353Z" fill="#202529"/>
<path d="M166.929 147.876C166.929 133.686 178.441 122.183 192.643 122.183C206.845 122.183 218.357 133.686 218.357 147.876C218.357 162.067 206.845 173.57 192.643 173.57C178.441 173.57 166.929 162.067 166.929 147.876Z" fill="#F8F9FA"/>
<path d="M198.642 151.543C201.933 150.534 203.442 152.943 203.784 154.273C203.167 154.777 200.784 154.763 199.67 154.693C199.876 154.189 199.07 152.383 198.642 151.543Z" fill="url(#paint4_linear_1102_6746)"/>
<path d="M186.641 151.543C183.349 150.534 181.841 152.943 181.498 154.273C182.115 154.777 184.498 154.763 185.612 154.693C185.407 154.189 186.212 152.383 186.641 151.543Z" fill="url(#paint5_linear_1102_6746)"/>
<path d="M192.413 148.305C187.476 148.483 185.936 153.128 185.784 155.429C192.184 158.813 197.593 156.839 199.498 155.429C199.316 149.729 194.698 148.305 192.413 148.305Z" fill="url(#paint6_linear_1102_6746)"/>
<path fill-rule="evenodd" clip-rule="evenodd" d="M192.641 138.456C190.984 138.456 189.641 139.798 189.641 141.453C189.641 143.108 190.984 144.451 192.641 144.451C194.298 144.451 195.641 143.108 195.641 141.453C195.641 139.798 194.298 138.456 192.641 138.456ZM188.784 141.453C188.784 139.325 190.511 137.599 192.641 137.599C194.771 137.599 196.498 139.325 196.498 141.453C196.498 143.582 194.771 145.307 192.641 145.307C190.511 145.307 188.784 143.582 188.784 141.453ZM184.927 142.738C183.743 142.738 182.784 143.696 182.784 144.879C182.784 146.061 183.743 147.02 184.927 147.02C186.11 147.02 187.07 146.061 187.07 144.879C187.07 143.696 186.11 142.738 184.927 142.738ZM181.927 144.879C181.927 143.224 183.27 141.881 184.927 141.881C186.583 141.881 187.927 143.224 187.927 144.879C187.927 146.534 186.583 147.876 184.927 147.876C183.27 147.876 181.927 146.534 181.927 144.879ZM200.355 142.738C199.172 142.738 198.213 143.696 198.213 144.879C198.213 146.061 199.172 147.02 200.355 147.02C201.539 147.02 202.498 146.061 202.498 144.879C202.498 143.696 201.539 142.738 200.355 142.738ZM197.355 144.879C197.355 143.224 198.698 141.881 200.355 141.881C202.012 141.881 203.355 143.224 203.355 144.879C203.355 146.534 202.012 147.876 200.355 147.876C198.698 147.876 197.355 146.534 197.355 144.879ZM192.641 148.733C190.365 148.733 188.364 149.915 187.221 151.7C186.588 152.689 186.219 153.863 186.213 155.123V155.156C186.213 155.324 186.219 155.489 186.231 155.653C188.131 156.701 190.316 157.297 192.641 157.297C194.966 157.297 197.15 156.701 199.05 155.653C199.063 155.489 199.07 155.324 199.07 155.156L199.069 155.123C199.063 153.863 198.694 152.69 198.061 151.701C196.918 149.915 194.918 148.733 192.641 148.733ZM186.734 150.894C188.057 149.066 190.21 147.876 192.641 147.876C195.073 147.876 197.225 149.067 198.548 150.895C199.087 150.608 199.703 150.446 200.356 150.446C202.486 150.446 204.213 152.171 204.213 154.3C204.213 154.404 204.209 154.507 204.201 154.609C204.187 154.778 204.075 154.923 203.916 154.979C202.802 155.372 201.603 155.584 200.356 155.584C200.208 155.584 200.061 155.582 199.915 155.575C199.907 155.706 199.897 155.835 199.882 155.964C199.867 156.099 199.788 156.22 199.67 156.288C197.599 157.475 195.198 158.154 192.641 158.154C190.083 158.154 187.683 157.475 185.612 156.288C185.494 156.22 185.414 156.099 185.399 155.964C185.385 155.835 185.374 155.706 185.367 155.575C185.221 155.582 185.075 155.584 184.927 155.584C183.68 155.584 182.482 155.372 181.367 154.979C181.207 154.923 181.096 154.778 181.083 154.609C181.074 154.507 181.07 154.404 181.07 154.3C181.07 152.171 182.797 150.446 184.927 150.446C185.579 150.446 186.195 150.608 186.734 150.894ZM186.271 151.619C185.867 151.416 185.411 151.302 184.927 151.302C183.283 151.302 181.947 152.625 181.927 154.264C182.873 154.565 183.881 154.728 184.927 154.728C185.075 154.728 185.222 154.725 185.368 154.718C185.435 153.599 185.755 152.546 186.271 151.619ZM199.914 154.718C200.06 154.725 200.207 154.728 200.356 154.728C201.402 154.728 202.41 154.565 203.355 154.264C203.337 152.625 202.001 151.302 200.356 151.302C199.871 151.302 199.415 151.416 199.01 151.62C199.527 152.547 199.847 153.599 199.914 154.718Z" fill="#202529"/>
<path d="M195.643 141.453C195.643 143.108 194.299 144.451 192.643 144.451C190.985 144.451 189.643 143.108 189.643 141.453C189.643 139.798 190.985 138.456 192.643 138.456C194.299 138.456 195.643 139.798 195.643 141.453Z" fill="white"/>
<path d="M187.072 144.879C187.072 146.062 186.112 147.021 184.929 147.021C183.745 147.021 182.786 146.062 182.786 144.879C182.786 143.697 183.745 142.738 184.929 142.738C186.112 142.738 187.072 143.697 187.072 144.879Z" fill="white"/>
<path d="M202.5 144.879C202.5 146.062 201.54 147.021 200.357 147.021C199.173 147.021 198.214 146.062 198.214 144.879C198.214 143.697 199.173 142.738 200.357 142.738C201.54 142.738 202.5 143.697 202.5 144.879Z" fill="white"/>
<path d="M184.347 183.631V184.319H186.771V183.631H184.347ZM184.347 182.208V182.88H186.771V182.208H184.347ZM183.483 181.393H187.683V185.126H183.483V181.393ZM183.427 185.814H187.771V186.677H183.427V185.814ZM182.867 187.444H188.035V188.308H182.867V187.444ZM180.523 181.513H183.179V182.408H180.523V181.513ZM180.603 183.815H183.043V184.702H180.603V183.815ZM180.435 186.853C181.123 186.677 182.147 186.357 183.107 186.045L183.275 186.965C182.379 187.268 181.419 187.58 180.651 187.828L180.435 186.853ZM181.411 181.865H182.323V186.781L181.411 186.925V181.865ZM185.171 181.737H185.979V184.75H186.067V187.852H185.083V184.75H185.171V181.737ZM192.123 181.057H193.099V187.652C193.099 188.124 192.979 188.316 192.675 188.451C192.363 188.571 191.931 188.587 191.251 188.587C191.203 188.363 191.051 188.028 190.931 187.836C191.315 187.852 191.787 187.844 191.923 187.844C192.075 187.836 192.123 187.788 192.123 187.652V181.057ZM189.123 181.577H196.163V182.336H189.123V181.577ZM190.859 183.264V183.647H194.395V183.264H190.859ZM189.947 182.656H195.379V184.255H189.947V182.656ZM189.747 184.607H195.515V187.732H194.539V185.262H189.747V184.607ZM188.939 185.598H196.347V186.325H188.939V185.598ZM189.683 186.701H195.059V187.396H189.683V186.701ZM199.051 183.959V184.966H202.979V183.959H199.051ZM198.251 183.368H203.835V185.55H198.251V183.368ZM199.627 182.464H202.451V183.088H199.627V182.464ZM200.611 183.567H201.387V185.254H200.611V183.567ZM199.331 184.135L199.995 183.951C200.139 184.223 200.267 184.575 200.315 184.814L199.611 185.022C199.579 184.782 199.467 184.407 199.331 184.135ZM201.979 183.919L202.771 184.111C202.603 184.455 202.435 184.79 202.307 185.014L201.651 184.838C201.771 184.575 201.915 184.183 201.979 183.919ZM198.691 185.814H203.427V188.531H202.443V186.437H199.635V188.563H198.691V185.814ZM199.235 186.757H202.851V187.388H199.235V186.757ZM199.235 187.716H202.851V188.339H199.235V187.716ZM200.875 180.985L201.723 181.297C200.835 182.424 199.307 183.216 197.747 183.687C197.651 183.495 197.403 183.112 197.243 182.944C198.723 182.584 200.147 181.913 200.875 180.985ZM201.507 181.353C202.219 182.041 203.603 182.616 204.939 182.888C204.739 183.056 204.467 183.4 204.331 183.615C202.987 183.272 201.619 182.536 200.795 181.641L201.507 181.353Z" fill="#202529"/>
<path d="M153.5 100.486V105.625" stroke="#A9B6C0" stroke-width="0.8"/>
<path d="M113.5 105.625V110.764" stroke="#A9B6C0" stroke-width="0.8"/>
<path d="M193.5 105.625V110.764" stroke="#A9B6C0" stroke-width="0.8"/>
<path d="M113.214 105.911H193.214" stroke="#A9B6C0" stroke-width="0.8"/>
<path d="M239.214 402.527V407.665" stroke="#A9B6C0" stroke-width="0.8"/>
<path d="M48.3574 407.665V412.804" stroke="#A9B6C0" stroke-width="0.8"/>
<path d="M128.929 407.665V412.804" stroke="#A9B6C0" stroke-width="0.8"/>
<path d="M211.214 408.236V413.375" stroke="#A9B6C0" stroke-width="0.8"/>
<path d="M294.643 407.665V412.804" stroke="#A9B6C0" stroke-width="0.8"/>
<path d="M48.0713 407.951H294.357" stroke="#A9B6C0" stroke-width="0.8"/>
<path d="M195.786 201.547V206.686" stroke="#A9B6C0" stroke-width="0.8"/>
<path d="M155.785 206.686V211.824" stroke="#A9B6C0" stroke-width="0.8"/>
<path d="M235.786 206.686V211.824" stroke="#A9B6C0" stroke-width="0.8"/>
<path d="M155.5 206.971H235.5" stroke="#A9B6C0" stroke-width="0.8"/>
<path d="M128.643 248.937C128.643 234.747 140.155 223.244 154.357 223.244C168.559 223.244 180.071 234.747 180.071 248.937C180.071 263.127 168.559 274.631 154.357 274.631C140.155 274.631 128.643 263.127 128.643 248.937Z" fill="#F8F9FA"/>
<path d="M149.785 248.937C152.31 248.937 154.357 246.892 154.357 244.369C154.357 241.847 152.31 239.802 149.785 239.802C147.261 239.802 145.214 241.847 145.214 244.369C145.214 246.892 147.261 248.937 149.785 248.937Z" fill="url(#paint7_linear_1102_6746)"/>
<path d="M161.215 245.511C163.108 245.511 164.643 243.978 164.643 242.086C164.643 240.194 163.108 238.66 161.215 238.66C159.321 238.66 157.786 240.194 157.786 242.086C157.786 243.978 159.321 245.511 161.215 245.511Z" fill="url(#paint8_linear_1102_6746)"/>
<path d="M161.215 245.511C163.108 245.511 164.643 243.978 164.643 242.086C164.643 240.194 163.108 238.66 161.215 238.66C159.321 238.66 157.786 240.194 157.786 242.086C157.786 243.978 159.321 245.511 161.215 245.511Z" fill="url(#paint9_linear_1102_6746)"/>
<path d="M141.786 258.073V256.931C141.786 254.811 142.629 252.778 144.13 251.279C145.63 249.779 147.664 248.937 149.786 248.937C151.908 248.937 153.943 249.779 155.443 251.279C156.943 252.778 157.786 254.811 157.786 256.931V258.073" stroke="black" stroke-width="0.8" stroke-linecap="round"/>
<path d="M155.5 251.221C155.5 249.707 156.102 248.254 157.174 247.184C158.245 246.113 159.699 245.511 161.214 245.511C161.965 245.511 162.708 245.659 163.401 245.946C164.094 246.233 164.724 246.653 165.255 247.184C165.786 247.714 166.206 248.343 166.494 249.036C166.781 249.729 166.929 250.471 166.929 251.221V251.792" stroke="black" stroke-width="0.8" stroke-linecap="round"/>
<path d="M149.785 248.937C150.998 248.937 152.161 248.456 153.018 247.6C153.875 246.743 154.357 245.581 154.357 244.37C154.357 243.158 153.875 241.996 153.018 241.14C152.161 240.283 150.998 239.802 149.785 239.802C148.573 239.802 147.41 240.283 146.553 241.14C145.696 241.996 145.214 243.158 145.214 244.37C145.214 245.581 145.696 246.743 146.553 247.6C147.41 248.456 148.573 248.937 149.785 248.937ZM161.214 245.511C162.123 245.511 162.995 245.151 163.638 244.508C164.281 243.865 164.642 242.994 164.642 242.086C164.642 241.177 164.281 240.306 163.638 239.663C162.995 239.021 162.123 238.66 161.214 238.66C160.305 238.66 159.433 239.021 158.789 239.663C158.146 240.306 157.785 241.177 157.785 242.086C157.785 242.994 158.146 243.865 158.789 244.508C159.433 245.151 160.305 245.511 161.214 245.511Z" stroke="black" stroke-width="0.8" stroke-linecap="round" stroke-linejoin="round"/>
<path d="M141.349 286.075H142.341V289.624H141.349V286.075ZM140.541 285.1V285.595H142.925V285.1H140.541ZM139.621 284.42H143.909V286.275H139.621V284.42ZM138.853 286.754H144.237V287.61H139.821V289.272H138.853V286.754ZM143.781 286.754H144.765V288.401C144.765 288.833 144.677 289.08 144.357 289.216C144.037 289.352 143.605 289.36 143.029 289.36C142.981 289.096 142.845 288.729 142.717 288.489C143.077 288.505 143.509 288.505 143.621 288.505C143.741 288.497 143.781 288.473 143.781 288.385V286.754ZM141.245 282.11H142.237V283.581H141.245V282.11ZM138.317 283.213H145.221V285.148H144.269V284.037H139.237V285.148H138.317V283.213ZM138.957 282.51L139.829 282.166C140.061 282.422 140.301 282.774 140.413 283.021L139.493 283.429C139.405 283.173 139.173 282.782 138.957 282.51ZM143.637 282.174L144.669 282.486C144.381 282.822 144.093 283.133 143.869 283.341L143.061 283.053C143.261 282.806 143.501 282.438 143.637 282.174ZM146.581 282.478H149.205V283.285H146.581V282.478ZM149.781 286.594H153.037V287.394H149.781V286.594ZM146.469 284.924H149.445V285.763H146.469V284.924ZM147.773 285.268H148.685V288.593C148.685 289.024 148.613 289.28 148.333 289.432C148.061 289.576 147.701 289.592 147.197 289.592C147.173 289.336 147.045 288.937 146.925 288.681C147.221 288.697 147.549 288.697 147.645 288.697C147.741 288.689 147.773 288.665 147.773 288.577V285.268ZM152.725 286.594H153.693C153.693 286.594 153.685 286.834 153.669 286.962C153.533 288.345 153.397 288.969 153.165 289.216C152.989 289.408 152.813 289.472 152.581 289.504C152.381 289.528 152.045 289.536 151.677 289.52C151.661 289.256 151.565 288.881 151.421 288.641C151.709 288.665 151.973 288.673 152.101 288.673C152.221 288.673 152.293 288.665 152.365 288.585C152.509 288.449 152.629 287.945 152.725 286.722V286.594ZM151.029 285.883H151.981C151.853 287.522 151.517 288.881 149.621 289.632C149.517 289.4 149.269 289.064 149.069 288.889C150.725 288.281 150.917 287.186 151.029 285.883ZM146.765 284.148L147.365 283.533C148.013 283.765 148.893 284.18 149.349 284.5L148.701 285.188C148.293 284.868 147.429 284.412 146.765 284.148ZM149.213 284.924H149.341L149.469 284.884L150.045 285.076C149.917 285.803 149.709 286.626 149.493 287.17L148.853 286.866C148.997 286.403 149.141 285.659 149.213 285.06V284.924ZM152.421 283.317L153.421 283.469C152.877 284.956 151.685 285.723 150.117 286.171C150.005 285.955 149.709 285.563 149.517 285.371C150.989 285.076 152.053 284.46 152.421 283.317ZM150.821 282.11L151.717 282.358C151.317 283.221 150.669 284.053 150.069 284.572C149.885 284.42 149.509 284.156 149.285 284.037C149.909 283.581 150.501 282.854 150.821 282.11ZM150.933 283.525C151.485 284.436 152.605 285.1 154.005 285.363C153.797 285.555 153.525 285.931 153.397 286.179C151.917 285.803 150.805 284.972 150.133 283.781L150.933 283.525ZM147.685 285.212L148.301 285.451C147.997 286.515 147.461 287.722 146.781 288.337C146.693 288.065 146.485 287.666 146.333 287.41C146.917 286.914 147.437 286.011 147.685 285.212ZM150.797 282.925H153.789V283.717H150.413L150.797 282.925ZM148.973 282.478H149.181L149.325 282.446L149.941 282.83C149.581 283.413 148.949 284.053 148.373 284.452C148.205 284.308 147.933 284.108 147.749 283.997C148.245 283.645 148.757 283.053 148.973 282.646V282.478ZM155.077 285.619H158.717V286.347H155.077V285.619ZM159.189 285.284H161.941V286.083H159.189V285.284ZM159.477 282.126L160.309 282.294C160.077 283.341 159.645 284.356 159.133 285.004C158.989 284.868 158.637 284.612 158.437 284.492C158.941 283.933 159.293 283.037 159.477 282.126ZM155.077 282.398H158.653V283.117H155.949V285.923H155.077V282.398ZM155.509 283.509H158.469V285.18H155.509V284.564H157.685V284.124H155.509V283.509ZM156.629 282.662H157.397V283.813H156.629V282.662ZM156.629 284.764H157.397V285.931H156.629V284.764ZM159.557 283.277H162.133V284.077H159.205L159.557 283.277ZM154.885 288.577H162.213V289.408H154.885V288.577ZM155.741 286.754H161.389V289.001H160.445V287.498H159.749V289.001H158.877V287.498H158.189V289.001H157.309V287.498H156.629V289.001H155.741V286.754ZM166.437 282.118H167.413V288.713C167.413 289.184 167.293 289.376 166.989 289.512C166.677 289.632 166.245 289.648 165.565 289.648C165.517 289.424 165.365 289.088 165.245 288.897C165.629 288.913 166.101 288.905 166.237 288.905C166.389 288.897 166.437 288.849 166.437 288.713V282.118ZM163.437 282.638H170.477V283.397H163.437V282.638ZM165.173 284.324V284.708H168.709V284.324H165.173ZM164.261 283.717H169.693V285.315H164.261V283.717ZM164.061 285.667H169.829V288.793H168.853V286.323H164.061V285.667ZM163.253 286.658H170.661V287.386H163.253V286.658ZM163.997 287.762H169.373V288.457H163.997V287.762Z" fill="#202529"/>
<path d="M213.214 248.937C213.214 234.747 224.726 223.244 238.928 223.244C253.13 223.244 264.642 234.747 264.642 248.937C264.642 263.127 253.13 274.631 238.928 274.631C224.726 274.631 213.214 263.127 213.214 248.937Z" fill="#F8F9FA"/>
<path d="M237.983 245.757L235.5 248.253L240.783 253.502L243.267 251.006L237.983 245.757Z" fill="#D9D9D9"/>
<path d="M237.983 245.757L235.5 248.253L240.783 253.502L243.267 251.006L237.983 245.757Z" fill="url(#paint10_linear_1102_6746)"/>
<path d="M229.214 257.502H249.214C249.214 259.078 247.934 260.357 246.357 260.357H231.5C230.237 260.357 229.214 259.334 229.214 258.073V257.502Z" fill="#D9D9D9"/>
<path d="M229.214 257.502H249.214C249.214 259.078 247.934 260.357 246.357 260.357H231.5C230.237 260.357 229.214 259.334 229.214 258.073V257.502Z" fill="url(#paint11_linear_1102_6746)"/>
<path d="M227.902 250.894C227.498 248.27 227.296 246.959 227.793 245.796C228.289 244.633 229.391 243.837 231.593 242.247L233.239 241.058C235.978 239.079 237.349 238.089 238.929 238.089C240.51 238.089 241.88 239.079 244.619 241.058L246.265 242.247C248.467 243.837 249.568 244.633 250.065 245.796C250.561 246.959 250.36 248.27 249.957 250.893L249.613 253.131C249.041 256.849 248.754 258.709 247.419 259.819C246.085 260.928 244.134 260.927 240.231 260.927H237.626C233.723 260.927 231.773 260.927 230.438 259.819C229.103 258.709 228.817 256.849 228.245 253.13L227.902 250.894Z" stroke="black" stroke-width="0.8" stroke-linecap="round" stroke-linejoin="round"/>
<path d="M238.072 250.936C239.428 252.291 241.215 253.668 241.215 253.668L243.664 251.221C243.664 251.221 242.286 249.436 240.929 248.081C239.572 246.725 237.786 245.348 237.786 245.348L235.337 247.795C235.337 247.795 236.715 249.58 238.072 250.936ZM238.072 250.936L233.786 255.218M244.072 250.813L240.807 254.076M238.194 244.94L234.929 248.203" stroke="black" stroke-width="0.8" stroke-linecap="round" stroke-linejoin="round"/>
<path d="M230.633 284.692V285.38H233.057V284.692H230.633ZM230.633 283.269V283.941H233.057V283.269H230.633ZM229.769 282.454H233.969V286.187H229.769V282.454ZM229.713 286.875H234.057V287.738H229.713V286.875ZM229.153 288.505H234.321V289.369H229.153V288.505ZM226.809 282.574H229.465V283.469H226.809V282.574ZM226.889 284.876H229.329V285.763H226.889V284.876ZM226.721 287.914C227.409 287.738 228.433 287.418 229.393 287.106L229.561 288.026C228.665 288.329 227.705 288.641 226.937 288.889L226.721 287.914ZM227.697 282.926H228.609V287.842L227.697 287.986V282.926ZM231.457 282.798H232.265V285.811H232.353V288.913H231.369V285.811H231.457V282.798ZM238.409 282.118H239.385V288.713C239.385 289.185 239.265 289.377 238.961 289.512C238.649 289.632 238.217 289.648 237.537 289.648C237.489 289.424 237.337 289.089 237.217 288.897C237.601 288.913 238.073 288.905 238.209 288.905C238.361 288.897 238.409 288.849 238.409 288.713V282.118ZM235.409 282.638H242.449V283.397H235.409V282.638ZM237.145 284.325V284.708H240.681V284.325H237.145ZM236.233 283.717H241.665V285.316H236.233V283.717ZM236.033 285.668H241.801V288.793H240.825V286.323H236.033V285.668ZM235.225 286.659H242.633V287.386H235.225V286.659ZM235.969 287.762H241.345V288.457H235.969V287.762ZM243.697 285.939H250.953V286.787H243.697V285.939ZM245.569 283.613H249.889V284.357H245.569V283.613ZM245.569 284.772H249.889V285.516H245.569V284.772ZM247.665 286.131C248.185 287.522 249.305 288.417 251.129 288.745C250.921 288.953 250.649 289.353 250.521 289.608C248.553 289.161 247.441 288.082 246.785 286.347L247.665 286.131ZM249.937 286.683L250.705 287.218C250.121 287.642 249.393 288.066 248.833 288.329L248.193 287.834C248.745 287.554 249.489 287.066 249.937 286.683ZM245.041 282.39H250.113V283.182H246.025V286.251H245.041V282.39ZM244.865 289.64L244.809 288.897L245.209 288.601L247.577 288.138C247.529 288.393 247.497 288.793 247.497 288.993C245.409 289.448 245.073 289.528 244.865 289.64ZM244.873 286.499H245.817V288.881L244.865 289.656C244.809 289.424 244.625 288.929 244.465 288.697C244.649 288.601 244.873 288.417 244.873 288.09V286.499Z" fill="#202529"/>
<path d="M213.214 349.998C213.214 335.807 224.726 324.304 238.928 324.304C253.13 324.304 264.642 335.807 264.642 349.998C264.642 364.188 253.13 375.691 238.928 375.691C224.726 375.691 213.214 364.188 213.214 349.998Z" fill="#F8F9FA"/>
<path d="M242.357 358.562H235.5V361.417H242.357V358.562Z" fill="#D9D9D9"/>
<path d="M242.357 358.562H235.5V361.417H242.357V358.562Z" fill="url(#paint12_linear_1102_6746)"/>
<path d="M237.979 343.235C238.402 342.478 238.613 342.1 238.928 342.1C239.244 342.1 239.455 342.478 239.877 343.235L239.987 343.431C240.107 343.646 240.167 343.753 240.26 343.824C240.353 343.895 240.47 343.921 240.703 343.974L240.915 344.022C241.735 344.207 242.145 344.3 242.243 344.614C242.34 344.927 242.061 345.253 241.502 345.907L241.357 346.076C241.198 346.261 241.119 346.354 241.083 346.468C241.047 346.583 241.059 346.707 241.083 346.955L241.105 347.18C241.19 348.052 241.232 348.487 240.977 348.681C240.721 348.875 240.337 348.698 239.57 348.345L239.371 348.254C239.153 348.153 239.044 348.103 238.928 348.103C238.813 348.103 238.703 348.153 238.486 348.254L238.287 348.345C237.519 348.698 237.135 348.874 236.88 348.681C236.625 348.487 236.667 348.052 236.751 347.18L236.773 346.955C236.797 346.707 236.809 346.583 236.773 346.469C236.738 346.354 236.658 346.261 236.499 346.076L236.355 345.907C235.796 345.254 235.517 344.927 235.614 344.614C235.711 344.3 236.122 344.207 236.942 344.022L237.154 343.974C237.387 343.921 237.503 343.895 237.597 343.824C237.69 343.753 237.75 343.646 237.87 343.431L237.979 343.235Z" fill="black"/>
<path d="M237.979 343.235C238.402 342.478 238.613 342.1 238.928 342.1C239.244 342.1 239.455 342.478 239.877 343.235L239.987 343.431C240.107 343.646 240.167 343.753 240.26 343.824C240.353 343.895 240.47 343.921 240.703 343.974L240.915 344.022C241.735 344.207 242.145 344.3 242.243 344.614C242.34 344.927 242.061 345.253 241.502 345.907L241.357 346.076C241.198 346.261 241.119 346.354 241.083 346.468C241.047 346.583 241.059 346.707 241.083 346.955L241.105 347.18C241.19 348.052 241.232 348.487 240.977 348.681C240.721 348.875 240.337 348.698 239.57 348.345L239.371 348.254C239.153 348.153 239.044 348.103 238.928 348.103C238.813 348.103 238.703 348.153 238.486 348.254L238.287 348.345C237.519 348.698 237.135 348.874 236.88 348.681C236.625 348.487 236.667 348.052 236.751 347.18L236.773 346.955C236.797 346.707 236.809 346.583 236.773 346.469C236.738 346.354 236.658 346.261 236.499 346.076L236.355 345.907C235.796 345.254 235.517 344.927 235.614 344.614C235.711 344.3 236.122 344.207 236.942 344.022L237.154 343.974C237.387 343.921 237.503 343.895 237.597 343.824C237.69 343.753 237.75 343.646 237.87 343.431L237.979 343.235Z" fill="url(#paint13_linear_1102_6746)"/>
<path d="M238.929 354.566V357.992" stroke="black" stroke-width="0.8" stroke-linecap="round"/>
<path d="M242.929 361.417H234.929L235.317 359.48C235.369 359.222 235.509 358.989 235.713 358.821C235.917 358.654 236.173 358.562 236.437 358.562H241.42C241.684 358.562 241.94 358.654 242.144 358.821C242.349 358.989 242.488 359.222 242.54 359.48L242.929 361.417Z" stroke="black" stroke-width="0.8" stroke-linecap="round" stroke-linejoin="round"/>
<path d="M246.929 342.005L248.013 342.365C249.145 342.742 249.71 342.931 250.034 343.379C250.357 343.828 250.357 344.424 250.357 345.615V345.699C250.357 346.681 250.357 347.173 250.121 347.575C249.884 347.977 249.453 348.215 248.594 348.694L245.214 350.569M230.929 342.005L229.844 342.365C228.713 342.742 228.147 342.931 227.823 343.379C227.5 343.828 227.5 344.425 227.5 345.615V345.699C227.5 346.681 227.5 347.173 227.737 347.575C227.973 347.977 228.404 348.215 229.263 348.694L232.643 350.569M237.953 343.173C238.387 342.393 238.604 342.005 238.929 342.005C239.253 342.005 239.47 342.393 239.905 343.173L240.017 343.374C240.14 343.595 240.202 343.705 240.298 343.778C240.395 343.851 240.515 343.878 240.755 343.932L240.972 343.982C241.815 344.173 242.237 344.268 242.338 344.59C242.438 344.913 242.15 345.249 241.575 345.92L241.427 346.094C241.263 346.284 241.181 346.379 241.145 346.498C241.108 346.617 241.121 346.744 241.145 346.998L241.167 347.23C241.254 348.126 241.298 348.575 241.036 348.774C240.773 348.973 240.378 348.791 239.588 348.428L239.385 348.334C239.159 348.231 239.047 348.18 238.929 348.18C238.81 348.18 238.698 348.231 238.473 348.334L238.269 348.428C237.479 348.792 237.084 348.973 236.821 348.774C236.558 348.575 236.603 348.126 236.69 347.23L236.713 346.998C236.737 346.744 236.749 346.617 236.713 346.498C236.676 346.38 236.594 346.284 236.43 346.094L236.282 345.92C235.707 345.249 235.419 344.913 235.519 344.59C235.62 344.268 236.042 344.173 236.885 343.982L237.102 343.932C237.342 343.878 237.462 343.852 237.559 343.778C237.655 343.705 237.717 343.595 237.841 343.374L237.953 343.173Z" stroke="black" stroke-width="0.8"/>
<path d="M245.785 361.417H232.071M244.643 339.099C245.489 339.26 245.992 339.438 246.425 339.973C246.971 340.642 246.942 341.365 246.884 342.811C246.678 348.01 245.512 354.566 238.929 354.566C232.347 354.566 231.18 348.011 230.972 342.811C230.915 341.365 230.886 340.641 231.429 339.973C231.973 339.304 232.623 339.194 233.925 338.975C235.579 338.704 237.252 338.571 238.928 338.579C239.749 338.579 240.512 338.607 241.214 338.656" stroke="black" stroke-width="0.8" stroke-linecap="round"/>
<path d="M228.705 386.528L229.337 386.344C229.529 386.848 229.729 387.503 229.785 387.903L229.121 388.127C229.057 387.719 228.881 387.04 228.705 386.528ZM227.953 388.559L228.577 388.407C228.673 388.942 228.761 389.622 228.793 390.085L228.137 390.245C228.121 389.782 228.041 389.086 227.953 388.559ZM227.161 388.455L227.833 388.567C227.761 389.278 227.609 390.029 227.425 390.509C227.281 390.429 226.953 390.333 226.777 390.285C226.985 389.814 227.097 389.11 227.161 388.455ZM227.001 386.352C226.953 386.184 226.817 385.777 226.713 385.553C226.873 385.513 227.009 385.361 227.161 385.121C227.321 384.89 227.809 384.002 228.081 383.155L228.913 383.499C228.553 384.354 228.009 385.273 227.505 385.905V385.921C227.505 385.921 227.001 386.192 227.001 386.352ZM227.001 386.352L226.977 385.745L227.345 385.497L228.721 385.409C228.681 385.617 228.641 385.929 228.641 386.105C227.401 386.224 227.153 386.28 227.001 386.352ZM227.057 388.215C227.017 388.047 226.881 387.647 226.785 387.431C226.977 387.383 227.153 387.192 227.393 386.896C227.649 386.608 228.465 385.433 228.937 384.338L229.697 384.746C229.113 385.849 228.305 386.984 227.529 387.783V387.807C227.529 387.807 227.057 388.063 227.057 388.215ZM227.057 388.215L227.009 387.559L227.361 387.312L229.345 386.96C229.313 387.176 229.321 387.487 229.329 387.655C227.529 388.023 227.241 388.103 227.057 388.215ZM228.729 388.399L229.329 388.223C229.449 388.63 229.585 389.158 229.633 389.51L229.001 389.702C228.961 389.35 228.833 388.806 228.729 388.399ZM233.009 388.519L233.649 388.263C233.881 388.814 234.169 389.51 234.313 389.965L233.641 390.269C233.513 389.798 233.225 389.07 233.009 388.519ZM230.617 388.359H231.417V389.646C231.417 389.845 231.449 389.869 231.689 389.869C231.793 389.869 232.257 389.869 232.393 389.869C232.593 389.869 232.641 389.774 232.673 389.134C232.825 389.254 233.137 389.358 233.353 389.406C233.273 390.301 233.065 390.541 232.481 390.541C232.321 390.541 231.721 390.541 231.569 390.541C230.801 390.541 230.617 390.325 230.617 389.646V388.359ZM229.929 388.327L230.585 388.559C230.465 389.142 230.281 389.909 230.033 390.405L229.361 390.085C229.617 389.622 229.825 388.902 229.929 388.327ZM231.385 383.107L232.361 383.259C232.185 383.627 231.993 383.97 231.849 384.218L231.113 384.05C231.217 383.77 231.337 383.379 231.385 383.107ZM231.897 384.722L232.473 384.818C232.177 385.353 231.721 385.849 231.033 386.248C230.961 386.121 230.785 385.913 230.665 385.833C231.265 385.521 231.681 385.097 231.897 384.722ZM230.881 385.081L231.353 384.77C232.001 385.321 232.721 386.129 233.041 386.656L232.537 387.024C232.209 386.464 231.505 385.641 230.881 385.081ZM232.545 385.209L233.121 385.313C232.737 385.969 232.137 386.584 231.249 387.072C231.177 386.936 231.017 386.744 230.897 386.656C231.697 386.256 232.257 385.697 232.545 385.209ZM230.753 384.674V387.088H233.057V384.674H230.753ZM229.921 383.914H233.929V387.863H229.921V383.914ZM231.505 388.119L232.129 387.831C232.369 388.215 232.705 388.742 232.865 389.054L232.217 389.39C232.073 389.062 231.753 388.519 231.505 388.119ZM236.521 383.179H237.449V385.529H236.521V383.179ZM236.521 387.575H237.449V390.685H236.521V387.575ZM236.329 386.976V387.344H237.649V386.976H236.329ZM236.329 385.945V386.296H237.649V385.945H236.329ZM235.489 385.217H238.529V388.071H235.489V385.217ZM235.265 383.938H238.729V384.778H235.265V383.938ZM240.161 386.192H241.113V390.677H240.161V386.192ZM239.153 385.985H241.985V386.864H239.153V385.985ZM238.809 387.839H242.449V388.718H238.809V387.839ZM235.185 388.511H238.777V389.366H235.185V388.511ZM240.369 383.051L241.169 383.291C240.681 384.562 239.865 385.689 238.849 386.32C238.713 386.097 238.433 385.769 238.241 385.601C239.169 385.097 239.969 384.09 240.369 383.051ZM240.913 383.667C241.305 384.41 242.073 385.217 242.777 385.641C242.593 385.793 242.321 386.089 242.185 386.296C241.465 385.777 240.713 384.818 240.257 383.906L240.913 383.667ZM246.809 383.179H247.785V389.774C247.785 390.245 247.665 390.437 247.361 390.573C247.049 390.693 246.617 390.709 245.937 390.709C245.889 390.485 245.737 390.149 245.617 389.957C246.001 389.973 246.473 389.965 246.609 389.965C246.761 389.957 246.809 389.909 246.809 389.774V383.179ZM243.809 383.698H250.849V384.458H243.809V383.698ZM245.545 385.385V385.769H249.081V385.385H245.545ZM244.633 384.778H250.065V386.376H244.633V384.778ZM244.433 386.728H250.201V389.853H249.225V387.384H244.433V386.728ZM243.625 387.719H251.033V388.447H243.625V387.719ZM244.369 388.822H249.745V389.518H244.369V388.822Z" fill="#202529"/>
<path d="M238.643 301.466V314.027" stroke="#A9B6C0" stroke-width="0.8"/>
<path d="M24.0713 451.059C24.0713 436.868 35.5839 425.365 49.7856 425.365C63.9873 425.365 75.4998 436.868 75.4998 451.059C75.4998 465.249 63.9873 476.752 49.7856 476.752C35.5839 476.752 24.0713 465.249 24.0713 451.059Z" fill="#F8F9FA"/>
<path d="M52.5381 451.95C52.9598 451.878 53.3918 451.902 53.8026 452.019C54.2141 452.137 54.5935 452.345 54.9135 452.628L54.9312 452.644L54.9472 452.63C55.2524 452.362 55.6112 452.162 56.0004 452.044C56.3889 451.926 56.7981 451.892 57.2009 451.945L57.3181 451.962C57.8261 452.049 58.3004 452.272 58.6918 452.607C59.0826 452.943 59.3764 453.377 59.5404 453.865C59.7044 454.353 59.7335 454.876 59.6243 455.379C59.5152 455.883 59.2718 456.347 58.9198 456.724L58.8341 456.811L58.8112 456.831L55.2638 460.342C55.1821 460.423 55.0735 460.471 54.9586 460.479C54.8438 460.486 54.7301 460.451 54.6386 460.381L54.5941 460.342L51.0255 456.81C50.6478 456.443 50.3792 455.978 50.2489 455.467C50.1192 454.956 50.1335 454.42 50.2901 453.917C50.4466 453.414 50.7392 452.964 51.1364 452.617C51.5329 452.269 52.0181 452.039 52.5381 451.95Z" fill="black"/>
<path d="M52.5381 451.95C52.9598 451.878 53.3918 451.902 53.8026 452.019C54.2141 452.137 54.5935 452.345 54.9135 452.628L54.9312 452.644L54.9472 452.63C55.2524 452.362 55.6112 452.162 56.0004 452.044C56.3889 451.926 56.7981 451.892 57.2009 451.945L57.3181 451.962C57.8261 452.049 58.3004 452.272 58.6918 452.607C59.0826 452.943 59.3764 453.377 59.5404 453.865C59.7044 454.353 59.7335 454.876 59.6243 455.379C59.5152 455.883 59.2718 456.347 58.9198 456.724L58.8341 456.811L58.8112 456.831L55.2638 460.342C55.1821 460.423 55.0735 460.471 54.9586 460.479C54.8438 460.486 54.7301 460.451 54.6386 460.381L54.5941 460.342L51.0255 456.81C50.6478 456.443 50.3792 455.978 50.2489 455.467C50.1192 454.956 50.1335 454.42 50.2901 453.917C50.4466 453.414 50.7392 452.964 51.1364 452.617C51.5329 452.269 52.0181 452.039 52.5381 451.95Z" fill="url(#paint14_linear_1102_6746)"/>
<path d="M48.0714 448.775C50.5962 448.775 52.6429 446.73 52.6429 444.207C52.6429 441.684 50.5962 439.639 48.0714 439.639C45.5467 439.639 43.5 441.684 43.5 444.207C43.5 446.73 45.5467 448.775 48.0714 448.775Z" fill="url(#paint15_linear_1102_6746)"/>
<path d="M47.9288 448.775C49.1414 448.775 50.3043 448.293 51.1614 447.437C52.0186 446.581 52.5003 445.419 52.5003 444.207C52.5003 442.996 52.0186 441.834 51.1614 440.977C50.3043 440.121 49.1414 439.639 47.9288 439.639C46.7163 439.639 45.5534 440.121 44.6963 440.977C43.8391 441.834 43.3574 442.996 43.3574 444.207C43.3574 445.419 43.8391 446.581 44.6963 447.437C45.5534 448.293 46.7163 448.775 47.9288 448.775Z" stroke="black" stroke-width="0.8" stroke-linecap="round" stroke-linejoin="round"/>
<path d="M59.3575 454.804C59.3575 455.491 59.0855 456.15 58.6009 456.638C57.4855 457.762 56.4032 458.933 55.2455 460.016C55.1163 460.134 54.9466 460.197 54.7712 460.194C54.5963 460.191 54.4295 460.12 54.3049 459.997L50.97 456.639C50.4849 456.151 50.2129 455.492 50.2129 454.804C50.2129 454.116 50.4849 453.457 50.97 452.969C51.2123 452.725 51.4998 452.532 51.8169 452.4C52.134 452.268 52.474 452.2 52.8175 452.2C53.1609 452.2 53.5015 452.268 53.818 452.4C54.1352 452.532 54.4232 452.725 54.6649 452.969L54.786 453.091L54.9072 452.969C55.2706 452.603 55.7346 452.353 56.2403 452.251C56.7466 452.149 57.2712 452.199 57.7483 452.396C58.2249 452.593 58.6329 452.927 58.9192 453.356C59.206 453.784 59.3586 454.289 59.3575 454.804Z" stroke="black" stroke-width="0.8" stroke-linejoin="round"/>
<path d="M39.9287 457.91V456.768C39.9287 455.419 40.2699 454.093 40.9207 452.911C41.5716 451.73 42.511 450.732 43.6516 450.011C44.7927 449.29 46.0973 448.869 47.4447 448.788C48.7916 448.706 50.1378 448.966 51.3573 449.544" stroke="black" stroke-width="0.8" stroke-linecap="round" stroke-linejoin="round"/>
<path d="M41.0336 485.246H45.0976V486.07H41.0336V485.246ZM41.6736 487.884H44.5056V488.66H41.6736V487.884ZM41.6736 489.187H44.5056V489.987H41.6736V489.187ZM42.5936 484.247H43.4336V491.689H42.5936V484.247ZM41.1456 486.557H44.3136V487.373H41.9936V491.737H41.1456V486.557ZM44.0416 486.557H44.9216V490.81C44.9216 491.186 44.8736 491.425 44.6576 491.577C44.4336 491.713 44.1536 491.737 43.7696 491.737C43.7456 491.489 43.6576 491.114 43.5536 490.882C43.7216 490.89 43.8976 490.89 43.9616 490.89C44.0256 490.89 44.0416 490.866 44.0416 490.786V486.557ZM43.5936 484.639L44.1136 484.207C44.4256 484.407 44.8096 484.719 44.9936 484.935L44.4496 485.414C44.2736 485.199 43.9056 484.863 43.5936 484.639ZM37.7216 485.007H40.8896V485.83H37.7216V485.007ZM37.6016 489.643H40.9936V490.474H37.6016V489.643ZM38.8976 484.247H39.7536V486.573H38.8976V484.247ZM39.0096 486.589H39.6416V488.812H39.7536V491.745H38.8976V488.812H39.0096V486.589ZM38.5536 488.02V488.5H40.1216V488.02H38.5536ZM38.5536 486.925V487.389H40.1216V486.925H38.5536ZM37.8736 486.262H40.8176V489.163H37.8736V486.262ZM46.1536 489.475H53.4096V490.202H46.1536V489.475ZM48.2896 484.895H53.3616V485.542H48.2896V484.895ZM50.7936 489.179H51.7216V490.826C51.7216 491.258 51.6416 491.473 51.3136 491.601C50.9936 491.729 50.5696 491.737 49.9696 491.737C49.9296 491.489 49.7936 491.146 49.6736 490.914C50.0656 490.93 50.5136 490.922 50.6416 490.922C50.7536 490.922 50.7936 490.898 50.7936 490.802V489.179ZM47.5456 490.546L48.2016 490.019C48.5776 490.274 49.0496 490.666 49.2816 490.938L48.5776 491.521C48.3776 491.25 47.9216 490.826 47.5456 490.546ZM49.1776 484.375L49.9376 484.183C50.0976 484.407 50.2736 484.727 50.3456 484.943L49.5376 485.167C49.4816 484.951 49.3216 484.623 49.1776 484.375ZM49.6176 486.869V487.117H51.9216V486.869H49.6176ZM49.6176 487.525V487.788H51.9216V487.525H49.6176ZM49.6176 486.222V486.461H51.9216V486.222H49.6176ZM48.8256 485.798H52.7536V488.204H48.8256V485.798ZM50.3856 485.159L51.3376 485.223C51.2096 485.526 51.0816 485.782 50.9776 485.982L50.2176 485.886C50.2816 485.654 50.3616 485.358 50.3856 485.159ZM51.6336 484.215L52.5376 484.359C52.3456 484.679 52.1536 484.951 52.0016 485.151L51.2416 484.999C51.3776 484.767 51.5456 484.439 51.6336 484.215ZM46.7296 484.431L47.5296 484.271C47.6896 484.511 47.8496 484.847 47.9376 485.063L47.1216 485.27C47.0416 485.047 46.8736 484.687 46.7296 484.431ZM46.3536 485.286H47.9936V486.03H46.3536V485.286ZM48.0496 487.541C48.4336 488.364 49.2256 488.444 50.5376 488.444C51.4176 488.444 52.7216 488.404 53.6176 488.308C53.4976 488.492 53.3856 488.876 53.3456 489.115C52.5296 489.155 51.4736 489.187 50.5376 489.187C48.8896 489.187 48.0416 489.003 47.5376 487.78L48.0496 487.541ZM47.7856 486.605H48.1056L48.2416 486.581L48.5536 486.821C48.2016 487.996 47.4736 488.852 46.6416 489.315C46.5536 489.131 46.3136 488.788 46.1616 488.66C46.9056 488.292 47.5296 487.597 47.7856 486.733V486.605ZM46.5536 487.477V486.789L46.8976 486.605H48.0576L48.0496 487.349H47.0416C46.8576 487.349 46.6176 487.405 46.5536 487.477ZM46.5536 487.469C46.5056 487.285 46.3536 486.917 46.2736 486.765C46.3856 486.733 46.5216 486.685 46.6656 486.549C46.8736 486.366 47.4976 485.662 47.7296 485.342V485.31L47.9616 485.223L48.4816 485.486C48.1456 485.902 47.5456 486.597 47.1296 486.997C47.1296 486.997 46.5536 487.277 46.5536 487.469ZM55.4016 484.519H57.0336V485.382H55.4016V484.519ZM54.8496 484.519H55.7056V487.421C55.7056 488.692 55.6336 490.554 55.1696 491.745C55.0016 491.609 54.6096 491.393 54.3936 491.322C54.8256 490.21 54.8496 488.604 54.8496 487.429V484.519ZM56.5136 484.519H57.3776V490.682C57.3776 491.09 57.3136 491.354 57.0736 491.505C56.8416 491.657 56.5296 491.681 56.0496 491.681C56.0256 491.441 55.9296 491.026 55.8176 490.786C56.0656 490.794 56.3136 490.794 56.4016 490.794C56.4816 490.786 56.5136 490.754 56.5136 490.658V484.519ZM58.4816 484.527H60.7296V485.414H58.4816V484.527ZM57.6496 487.708H60.9296V488.604H57.6496V487.708ZM60.7456 487.708H60.9296L61.0976 487.676L61.7136 487.9C61.1536 490.043 59.7456 491.154 57.8416 491.697C57.7456 491.457 57.5216 491.074 57.3456 490.874C59.0256 490.49 60.3216 489.475 60.7456 487.852V487.708ZM58.6576 488.476C59.2096 489.667 60.3616 490.546 61.9456 490.898C61.7296 491.098 61.4576 491.481 61.3216 491.729C59.6496 491.266 58.5136 490.226 57.8256 488.732L58.6576 488.476ZM58.3456 484.527H59.2176V485.414C59.2176 486.182 58.9936 487.061 57.9296 487.597C57.8176 487.421 57.4816 487.069 57.3136 486.941C58.2336 486.509 58.3456 485.926 58.3456 485.39V484.527ZM60.1616 484.527H61.0576V486.286C61.0576 486.517 61.0736 486.605 61.1696 486.605C61.2496 486.605 61.4096 486.605 61.4816 486.605C61.5936 486.605 61.7776 486.581 61.8816 486.549C61.8976 486.781 61.9216 487.101 61.9456 487.309C61.8336 487.357 61.6576 487.365 61.4976 487.365C61.3856 487.365 61.1856 487.365 61.0816 487.365C60.3136 487.365 60.1616 487.045 60.1616 486.278V484.527ZM55.5456 488.572C55.9216 488.452 56.4416 488.252 57.0016 488.036L57.1376 488.676C56.7056 488.947 56.2896 489.211 55.8976 489.459L55.5456 488.572ZM55.3696 486.629L55.9296 486.214C56.2336 486.501 56.6016 486.877 56.7776 487.125L56.2016 487.605C56.0256 487.349 55.6656 486.925 55.3696 486.629Z" fill="#202529"/>
<path d="M102.929 451.059C102.929 436.868 114.441 425.365 128.643 425.365C142.845 425.365 154.357 436.868 154.357 451.059C154.357 465.249 142.845 476.752 128.643 476.752C114.441 476.752 102.929 465.249 102.929 451.059Z" fill="#F8F9FA"/>
<mask id="mask0_1102_6746" style="mask-type:luminance" maskUnits="userSpaceOnUse" x="114" y="437" width="29" height="28">
<path d="M142.357 437.356H114.929V464.762H142.357V437.356Z" fill="white"/>
</mask>
<g mask="url(#mask0_1102_6746)">
<path d="M117.786 452.771H124.643V454.485C124.643 455.746 123.62 456.769 122.358 456.769H120.072C118.81 456.769 117.786 455.746 117.786 454.485V452.771Z" fill="#D9D9D9"/>
<path d="M117.786 452.771H124.643V454.485C124.643 455.746 123.62 456.769 122.358 456.769H120.072C118.81 456.769 117.786 455.746 117.786 454.485V452.771Z" fill="url(#paint16_linear_1102_6746)"/>
<path d="M132.643 452.2H139.5V453.914C139.5 455.175 138.476 456.198 137.214 456.198H134.928C133.666 456.198 132.643 455.175 132.643 453.914V452.2Z" fill="#D9D9D9"/>
<path d="M132.643 452.2H139.5V453.914C139.5 455.175 138.476 456.198 137.214 456.198H134.928C133.666 456.198 132.643 455.175 132.643 453.914V452.2Z" fill="url(#paint17_linear_1102_6746)"/>
<path d="M128.643 443.065V462.478M128.643 462.478H125.215M128.643 462.478H132.072M138.929 452.2L136.072 446.491L133.215 452.2M124.072 452.2L121.215 446.491L118.357 452.2" stroke="black" stroke-width="0.8" stroke-linecap="round" stroke-linejoin="round"/>
<path d="M119.5 446.491H120.698C122.142 446.491 123.544 445.887 124.67 444.778C126.993 442.494 130.293 442.494 132.616 444.778C133.742 445.887 135.144 446.491 136.588 446.491H137.786M136.072 456.768C137.62 456.768 138.968 455.816 139.668 454.41C140.046 453.651 140.235 453.272 139.891 452.736C139.546 452.2 138.974 452.2 137.832 452.2H134.309C133.168 452.2 132.596 452.2 132.252 452.736C131.907 453.272 132.096 453.651 132.474 454.41C133.176 455.816 134.523 456.768 136.072 456.768ZM121.214 456.768C122.763 456.768 124.11 455.816 124.811 454.41C125.189 453.651 125.378 453.272 125.034 452.736C124.689 452.2 124.117 452.2 122.974 452.2H119.453C118.312 452.2 117.74 452.2 117.396 452.736C117.051 453.272 117.24 453.651 117.618 454.41C118.318 455.816 119.666 456.768 121.214 456.768Z" stroke="black" stroke-width="0.8" stroke-linecap="round" stroke-linejoin="round"/>
<path d="M130.357 441.353C130.357 441.807 130.177 442.243 129.855 442.564C129.534 442.885 129.098 443.066 128.643 443.066C128.188 443.066 127.752 442.885 127.431 442.564C127.109 442.243 126.929 441.807 126.929 441.353C126.929 440.898 127.109 440.462 127.431 440.141C127.752 439.82 128.188 439.639 128.643 439.639C129.098 439.639 129.534 439.82 129.855 440.141C130.177 440.462 130.357 440.898 130.357 441.353Z" stroke="black" stroke-width="0.8" stroke-linecap="round" stroke-linejoin="round"/>
<path d="M128.643 442.495C129.274 442.495 129.786 441.983 129.786 441.352C129.786 440.722 129.274 440.21 128.643 440.21C128.012 440.21 127.5 440.722 127.5 441.352C127.5 441.983 128.012 442.495 128.643 442.495Z" fill="#D9D9D9"/>
<path d="M128.643 442.495C129.274 442.495 129.786 441.983 129.786 441.352C129.786 440.722 129.274 440.21 128.643 440.21C128.012 440.21 127.5 440.722 127.5 441.352C127.5 441.983 128.012 442.495 128.643 442.495Z" fill="url(#paint18_linear_1102_6746)"/>
</g>
<path d="M118.25 487.141V488.148H122.178V487.141H118.25ZM117.45 486.55H123.034V488.732H117.45V486.55ZM118.826 485.646H121.65V486.27H118.826V485.646ZM119.81 486.749H120.586V488.436H119.81V486.749ZM118.53 487.317L119.194 487.133C119.338 487.405 119.466 487.757 119.514 487.996L118.81 488.204C118.778 487.964 118.666 487.589 118.53 487.317ZM121.178 487.101L121.97 487.293C121.802 487.637 121.634 487.972 121.506 488.196L120.85 488.02C120.97 487.757 121.114 487.365 121.178 487.101ZM117.89 488.996H122.626V491.713H121.642V489.619H118.834V491.745H117.89V488.996ZM118.434 489.939H122.05V490.57H118.434V489.939ZM118.434 490.898H122.05V491.522H118.434V490.898ZM120.074 484.167L120.922 484.479C120.034 485.606 118.506 486.398 116.946 486.869C116.85 486.677 116.602 486.294 116.442 486.126C117.922 485.766 119.346 485.095 120.074 484.167ZM120.706 484.535C121.418 485.223 122.802 485.798 124.138 486.07C123.938 486.238 123.666 486.582 123.53 486.797C122.186 486.454 120.818 485.718 119.994 484.823L120.706 484.535ZM125.066 484.599H127.69V485.406H125.066V484.599ZM128.266 488.716H131.522V489.515H128.266V488.716ZM124.954 487.045H127.93V487.884H124.954V487.045ZM126.258 487.389H127.17V490.714C127.17 491.146 127.098 491.402 126.818 491.553C126.546 491.697 126.186 491.713 125.682 491.713C125.658 491.458 125.53 491.058 125.41 490.802C125.706 490.818 126.034 490.818 126.13 490.818C126.226 490.81 126.258 490.786 126.258 490.698V487.389ZM131.21 488.716H132.178C132.178 488.716 132.17 488.956 132.154 489.084C132.018 490.466 131.882 491.09 131.65 491.338C131.474 491.53 131.298 491.593 131.066 491.625C130.866 491.649 130.53 491.657 130.162 491.641C130.146 491.378 130.05 491.002 129.906 490.762C130.194 490.786 130.458 490.794 130.586 490.794C130.706 490.794 130.778 490.786 130.85 490.706C130.994 490.57 131.114 490.067 131.21 488.844V488.716ZM129.514 488.004H130.466C130.338 489.643 130.002 491.002 128.106 491.753C128.002 491.522 127.754 491.186 127.554 491.01C129.21 490.402 129.402 489.307 129.514 488.004ZM125.25 486.27L125.85 485.654C126.498 485.886 127.378 486.302 127.834 486.622L127.186 487.309C126.778 486.989 125.914 486.534 125.25 486.27ZM127.698 487.045H127.826L127.954 487.005L128.53 487.197C128.402 487.924 128.194 488.748 127.978 489.291L127.338 488.988C127.482 488.524 127.626 487.781 127.698 487.181V487.045ZM130.906 485.438L131.906 485.59C131.362 487.077 130.17 487.844 128.602 488.292C128.49 488.076 128.194 487.685 128.002 487.493C129.474 487.197 130.538 486.582 130.906 485.438ZM129.306 484.231L130.202 484.479C129.802 485.343 129.154 486.174 128.554 486.693C128.37 486.542 127.994 486.278 127.77 486.158C128.394 485.702 128.986 484.975 129.306 484.231ZM129.418 485.646C129.97 486.558 131.09 487.221 132.49 487.485C132.282 487.677 132.01 488.052 131.882 488.3C130.402 487.924 129.29 487.093 128.618 485.902L129.418 485.646ZM126.17 487.333L126.786 487.573C126.482 488.636 125.946 489.843 125.266 490.458C125.178 490.187 124.97 489.787 124.818 489.531C125.402 489.036 125.922 488.132 126.17 487.333ZM129.282 485.047H132.274V485.838H128.898L129.282 485.047ZM127.458 484.599H127.666L127.81 484.567L128.426 484.951C128.066 485.534 127.434 486.174 126.858 486.574C126.69 486.43 126.418 486.23 126.234 486.118C126.73 485.766 127.242 485.175 127.458 484.767V484.599ZM134.258 484.519H135.89V485.383H134.258V484.519ZM133.706 484.519H134.562V487.421C134.562 488.692 134.49 490.554 134.026 491.745C133.858 491.609 133.466 491.394 133.25 491.322C133.682 490.211 133.706 488.604 133.706 487.429V484.519ZM135.37 484.519H136.234V490.682C136.234 491.09 136.17 491.354 135.93 491.506C135.698 491.657 135.386 491.681 134.906 491.681C134.882 491.442 134.786 491.026 134.674 490.786C134.922 490.794 135.17 490.794 135.258 490.794C135.338 490.786 135.37 490.754 135.37 490.658V484.519ZM137.338 484.527H139.586V485.414H137.338V484.527ZM136.506 487.709H139.786V488.604H136.506V487.709ZM139.602 487.709H139.786L139.954 487.677L140.57 487.9C140.01 490.043 138.602 491.154 136.698 491.697C136.602 491.458 136.378 491.074 136.202 490.874C137.882 490.49 139.178 489.475 139.602 487.853V487.709ZM137.514 488.476C138.066 489.667 139.218 490.546 140.802 490.898C140.586 491.098 140.314 491.482 140.178 491.729C138.506 491.266 137.37 490.227 136.682 488.732L137.514 488.476ZM137.202 484.527H138.074V485.414C138.074 486.182 137.85 487.061 136.786 487.597C136.674 487.421 136.338 487.069 136.17 486.941C137.09 486.51 137.202 485.926 137.202 485.391V484.527ZM139.018 484.527H139.914V486.286C139.914 486.518 139.93 486.606 140.026 486.606C140.106 486.606 140.266 486.606 140.338 486.606C140.45 486.606 140.634 486.582 140.738 486.55C140.754 486.781 140.778 487.101 140.802 487.309C140.69 487.357 140.514 487.365 140.354 487.365C140.242 487.365 140.042 487.365 139.938 487.365C139.17 487.365 139.018 487.045 139.018 486.278V484.527ZM134.402 488.572C134.778 488.452 135.298 488.252 135.858 488.036L135.994 488.676C135.562 488.948 135.146 489.211 134.754 489.459L134.402 488.572ZM134.226 486.629L134.786 486.214C135.09 486.502 135.458 486.877 135.634 487.125L135.058 487.605C134.882 487.349 134.522 486.925 134.226 486.629Z" fill="#202529"/>
<path d="M185.214 451.059C185.214 436.868 196.726 425.365 210.928 425.365C225.13 425.365 236.642 436.868 236.642 451.059C236.642 465.249 225.13 476.752 210.928 476.752C196.726 476.752 185.214 465.249 185.214 451.059Z" fill="#F8F9FA"/>
<path d="M213.214 441.923C213.214 441.608 212.958 441.352 212.643 441.352C212.327 441.352 212.071 441.608 212.071 441.923V459.623C212.071 459.938 212.327 460.194 212.643 460.194C212.958 460.194 213.214 459.938 213.214 459.623V441.923Z" fill="#D9D9D9"/>
<path d="M213.214 441.923C213.214 441.608 212.958 441.352 212.643 441.352C212.327 441.352 212.071 441.608 212.071 441.923V459.623C212.071 459.938 212.327 460.194 212.643 460.194C212.958 460.194 213.214 459.938 213.214 459.623V441.923Z" fill="url(#paint19_linear_1102_6746)"/>
<path d="M200.071 449.346C200.071 448.084 201.095 447.062 202.357 447.062H205.1V455.626H202.357C201.095 455.626 200.071 454.604 200.071 453.342V449.346Z" fill="#D9D9D9"/>
<path d="M200.071 449.346C200.071 448.084 201.095 447.062 202.357 447.062H205.1V455.626H202.357C201.095 455.626 200.071 454.604 200.071 453.342V449.346Z" fill="url(#paint20_linear_1102_6746)"/>
<path d="M219.058 443.791C220.013 444.745 220.771 445.879 221.288 447.125C221.805 448.372 222.071 449.709 222.071 451.058C222.071 452.408 221.805 453.744 221.288 454.991C220.771 456.238 220.013 457.371 219.058 458.326M216.029 446.819C217.154 447.944 217.786 449.468 217.786 451.058C217.786 452.648 217.154 454.173 216.029 455.297M204.928 446.776L210.322 441.386C210.442 441.266 210.595 441.185 210.761 441.152C210.927 441.119 211.099 441.136 211.256 441.201C211.413 441.266 211.546 441.375 211.641 441.516C211.735 441.657 211.785 441.822 211.785 441.991V460.125C211.785 460.294 211.735 460.46 211.641 460.6C211.546 460.741 211.413 460.851 211.256 460.915C211.099 460.981 210.927 460.997 210.761 460.965C210.595 460.931 210.442 460.85 210.322 460.73L204.928 455.341H202.368C201.362 455.341 200.421 454.762 200.153 453.794C199.908 452.903 199.784 451.983 199.785 451.058C199.785 450.111 199.913 449.194 200.153 448.322C200.421 447.354 201.362 446.776 202.368 446.776H204.928Z" stroke="black" stroke-width="0.8" stroke-linecap="round" stroke-linejoin="round"/>
<path d="M198.704 488.3C199.36 488.156 200.336 487.892 201.272 487.637L201.4 488.5C200.552 488.756 199.632 489.019 198.912 489.219L198.704 488.3ZM198.792 485.718H201.408V486.597H198.792V485.718ZM199.688 484.247H200.616V490.65C200.616 491.114 200.536 491.37 200.28 491.521C200.024 491.681 199.672 491.713 199.144 491.713C199.128 491.457 199.008 491.05 198.888 490.778C199.168 490.794 199.456 490.794 199.552 490.786C199.648 490.786 199.688 490.762 199.688 490.65V484.247ZM202.248 487.213H205.984V488.052H202.248V487.213ZM202.264 488.78H205.968V489.619H202.264V488.78ZM202.312 490.378H206.256V491.258H202.312V490.378ZM202.544 484.287L203.448 484.527C202.992 485.862 202.256 487.221 201.48 488.068C201.336 487.892 201 487.525 200.8 487.357C201.528 486.637 202.176 485.47 202.544 484.287ZM202.904 485.622H206.08V486.493H202.904V491.753H201.984V486.374L202.72 485.622H202.904ZM203.896 486.078H204.792V490.85H203.896V486.078ZM203.656 484.631L204.488 484.303C204.704 484.647 204.928 485.103 205.024 485.414L204.16 485.79C204.08 485.478 203.864 484.991 203.656 484.631ZM208.4 484.815H214.584V485.622H208.4V484.815ZM208.992 486.006H214.312V486.533H208.992V486.006ZM207.832 484.815H208.752V487.245C208.752 488.556 208.64 490.474 207.912 491.697C207.744 491.553 207.336 491.314 207.104 491.226C207.784 490.091 207.832 488.436 207.832 487.245V484.815ZM211.2 488.252H212.088V490.226H211.2V488.252ZM210.032 489.523V489.875H213.208V489.523H210.032ZM210.032 488.668V489.003H213.208V488.668H210.032ZM209.168 488.116H214.12V490.426H209.168V488.116ZM212.024 490.914L212.4 490.298C213.168 490.562 214.04 490.898 214.568 491.122L214.12 491.785C213.616 491.545 212.784 491.194 212.024 490.914ZM210.656 490.298L211.352 490.914C210.656 491.21 209.728 491.561 209.072 491.785C208.952 491.601 208.736 491.314 208.568 491.138C209.208 490.93 210.136 490.57 210.656 490.298ZM210.672 484.383L211.664 484.183C211.784 484.471 211.912 484.863 211.976 485.111L210.936 485.358C210.896 485.095 210.776 484.687 210.672 484.383ZM209.928 485.702H210.84V486.813H212.36V485.702H213.328V487.213H209.928V485.702ZM208.904 487.389H214.568V487.924H208.904V487.389ZM216.544 484.519H218.176V485.382H216.544V484.519ZM215.992 484.519H216.848V487.421C216.848 488.692 216.776 490.554 216.312 491.745C216.144 491.609 215.752 491.393 215.536 491.322C215.968 490.21 215.992 488.604 215.992 487.429V484.519ZM217.656 484.519H218.52V490.682C218.52 491.09 218.456 491.354 218.216 491.505C217.984 491.657 217.672 491.681 217.192 491.681C217.168 491.441 217.072 491.026 216.96 490.786C217.208 490.794 217.456 490.794 217.544 490.794C217.624 490.786 217.656 490.754 217.656 490.658V484.519ZM219.624 484.527H221.872V485.414H219.624V484.527ZM218.792 487.708H222.072V488.604H218.792V487.708ZM221.888 487.708H222.072L222.24 487.676L222.856 487.9C222.296 490.043 220.888 491.154 218.984 491.697C218.888 491.457 218.664 491.074 218.488 490.874C220.168 490.49 221.464 489.475 221.888 487.852V487.708ZM219.8 488.476C220.352 489.667 221.504 490.546 223.088 490.898C222.872 491.098 222.6 491.481 222.464 491.729C220.792 491.266 219.656 490.226 218.968 488.732L219.8 488.476ZM219.488 484.527H220.36V485.414C220.36 486.182 220.136 487.061 219.072 487.597C218.96 487.421 218.624 487.069 218.456 486.941C219.376 486.509 219.488 485.926 219.488 485.39V484.527ZM221.304 484.527H222.2V486.286C222.2 486.517 222.216 486.605 222.312 486.605C222.392 486.605 222.552 486.605 222.624 486.605C222.736 486.605 222.92 486.581 223.024 486.549C223.04 486.781 223.064 487.101 223.088 487.309C222.976 487.357 222.8 487.365 222.64 487.365C222.528 487.365 222.328 487.365 222.224 487.365C221.456 487.365 221.304 487.045 221.304 486.278V484.527ZM216.688 488.572C217.064 488.452 217.584 488.252 218.144 488.036L218.28 488.676C217.848 488.947 217.432 489.211 217.04 489.459L216.688 488.572ZM216.512 486.629L217.072 486.214C217.376 486.501 217.744 486.877 217.92 487.125L217.344 487.605C217.168 487.349 216.808 486.925 216.512 486.629Z" fill="#202529"/>
<path d="M267.5 451.059C267.5 436.868 279.013 425.365 293.214 425.365C307.416 425.365 318.929 436.868 318.929 451.059C318.929 465.249 307.416 476.752 293.214 476.752C279.013 476.752 267.5 465.249 267.5 451.059Z" fill="#F8F9FA"/>
<path d="M293.214 459.052C293.845 459.052 294.357 458.541 294.357 457.91C294.357 457.279 293.845 456.768 293.214 456.768C292.583 456.768 292.071 457.279 292.071 457.91C292.071 458.541 292.583 459.052 293.214 459.052Z" fill="#D9D9D9"/>
<path d="M293.214 459.052C293.845 459.052 294.357 458.541 294.357 457.91C294.357 457.279 293.845 456.768 293.214 456.768C292.583 456.768 292.071 457.279 292.071 457.91C292.071 458.541 292.583 459.052 293.214 459.052Z" fill="url(#paint21_linear_1102_6746)"/>
<path d="M293.214 449.917C293.845 449.917 294.357 449.406 294.357 448.775C294.357 448.144 293.845 447.633 293.214 447.633C292.583 447.633 292.071 448.144 292.071 448.775C292.071 449.406 292.583 449.917 293.214 449.917Z" fill="#D9D9D9"/>
<path d="M293.214 449.917C293.845 449.917 294.357 449.406 294.357 448.775C294.357 448.144 293.845 447.633 293.214 447.633C292.583 447.633 292.071 448.144 292.071 448.775C292.071 449.406 292.583 449.917 293.214 449.917Z" fill="url(#paint22_linear_1102_6746)"/>
<path d="M288.643 441.924C288.643 440.662 289.666 439.639 290.928 439.639H295.5C296.762 439.639 297.785 440.662 297.785 441.924V444.208H288.643V441.924Z" fill="#D9D9D9"/>
<path d="M288.643 441.924C288.643 440.662 289.666 439.639 290.928 439.639H295.5C296.762 439.639 297.785 440.662 297.785 441.924V444.208H288.643V441.924Z" fill="url(#paint23_linear_1102_6746)"/>
<path d="M297.786 444.207C297.786 442.053 297.786 440.978 297.116 440.309C296.447 439.639 295.37 439.639 293.215 439.639C291.059 439.639 289.983 439.639 289.313 440.309C288.643 440.978 288.643 442.053 288.643 444.207M281.786 453.343C281.786 449.036 281.786 446.883 283.126 445.545C284.464 444.207 286.619 444.207 290.929 444.207H295.5C299.81 444.207 301.966 444.207 303.304 445.545C304.643 446.883 304.643 449.036 304.643 453.343C304.643 457.649 304.643 459.802 303.304 461.14C301.966 462.478 299.81 462.478 295.5 462.478H290.929C286.619 462.478 284.464 462.478 283.126 461.14C281.786 459.802 281.786 457.649 281.786 453.343Z" stroke="black" stroke-width="0.8"/>
<path d="M293.214 457.148C294.477 457.148 295.5 456.296 295.5 455.246C295.5 454.195 294.477 453.342 293.214 453.342C291.952 453.342 290.929 452.49 290.929 451.439C290.929 450.388 291.952 449.536 293.214 449.536M293.214 457.148C291.952 457.148 290.929 456.296 290.929 455.246M293.214 457.148V457.91M293.214 449.536V448.775M293.214 449.536C294.477 449.536 295.5 450.388 295.5 451.439" stroke="black" stroke-width="0.8" stroke-linecap="round"/>
<path d="M283.878 486.686H287.91V487.437H283.878V486.686ZM283.878 487.853H287.91V488.604H283.878V487.853ZM284.35 490.722H287.438V491.482H284.35V490.722ZM283.318 485.487H288.494V486.262H283.318V485.487ZM283.758 489.052H288.014V491.706H287.166V489.811H284.566V491.73H283.758V489.052ZM285.126 484.527L285.934 484.216C286.158 484.551 286.398 484.991 286.518 485.287L285.678 485.654C285.574 485.351 285.326 484.879 285.126 484.527ZM282.686 484.272L283.542 484.535C283.07 485.878 282.302 487.301 281.486 488.212C281.406 487.997 281.158 487.501 280.998 487.277C281.67 486.542 282.31 485.407 282.686 484.272ZM282.078 486.486L282.95 485.614V485.622V491.769H282.078V486.486ZM290.894 484.775H295.806V485.686H290.894V484.775ZM290.894 486.614H295.822V487.509H290.894V486.614ZM290.878 488.5H295.854V489.403H290.878V488.5ZM290.342 484.775H291.294V487.653C291.294 488.924 291.134 490.722 290.15 491.793C289.998 491.61 289.606 491.29 289.398 491.17C290.27 490.203 290.342 488.772 290.342 487.645V484.775ZM295.47 484.775H296.422V490.618C296.422 491.13 296.31 491.386 295.99 491.538C295.654 491.69 295.174 491.706 294.446 491.698C294.406 491.442 294.262 491.026 294.134 490.778C294.59 490.81 295.118 490.802 295.262 490.802C295.414 490.794 295.47 490.746 295.47 490.61V484.775ZM292.806 485.135H293.782V491.65H292.806V485.135ZM302.486 484.615H304.582V485.479H303.326V491.706H302.486V484.615ZM304.382 484.615H304.558L304.694 484.583L305.358 484.991C305.094 485.766 304.758 486.694 304.454 487.381C305.094 488.1 305.214 488.74 305.214 489.268C305.214 489.843 305.094 490.235 304.798 490.443C304.646 490.546 304.47 490.602 304.262 490.634C304.086 490.658 303.862 490.658 303.638 490.65C303.63 490.411 303.55 490.019 303.414 489.763C303.59 489.779 303.742 489.779 303.862 489.779C303.966 489.779 304.07 489.755 304.158 489.699C304.294 489.619 304.342 489.419 304.342 489.156C304.342 488.716 304.174 488.132 303.558 487.493C303.862 486.71 304.214 485.503 304.382 484.935V484.615ZM298.15 485.119H302.022V485.974H298.15V485.119ZM297.95 487.269H302.198V488.14H297.95V487.269ZM298.566 486.142L299.382 485.942C299.598 486.318 299.782 486.806 299.854 487.133L298.998 487.365C298.934 487.037 298.75 486.526 298.566 486.142ZM300.798 485.918L301.742 486.118C301.518 486.654 301.278 487.229 301.07 487.613L300.262 487.413C300.462 487.005 300.686 486.374 300.798 485.918ZM298.814 490.538H301.398V491.378H298.814V490.538ZM298.31 488.716H301.894V491.69H300.942V489.571H299.214V491.73H298.31V488.716ZM299.406 484.415L300.278 484.176C300.446 484.519 300.63 484.975 300.71 485.263L299.774 485.543C299.718 485.247 299.558 484.775 299.406 484.415Z" fill="#202529"/>
</g>
</g>
<defs>
<linearGradient id="paint0_linear_1102_6746" x1="153.214" y1="35.3965" x2="153.214" y2="44.5338" gradientUnits="userSpaceOnUse">
<stop stop-color="#FFCA7B"/>
<stop offset="1" stop-color="#FFEAA2"/>
</linearGradient>
<linearGradient id="paint1_linear_1102_6746" x1="153.214" y1="57.6642" x2="153.214" y2="62.2329" gradientUnits="userSpaceOnUse">
<stop stop-color="#98BFFF"/>
<stop offset="1" stop-color="#C2E9FB"/>
</linearGradient>
<linearGradient id="paint2_linear_1102_6746" x1="111.5" y1="137.599" x2="111.5" y2="145.593" gradientUnits="userSpaceOnUse">
<stop stop-color="#FFCA7B"/>
<stop offset="1" stop-color="#FFEAA2"/>
</linearGradient>
<linearGradient id="paint3_linear_1102_6746" x1="118.357" y1="150.731" x2="118.357" y2="157.583" gradientUnits="userSpaceOnUse">
<stop stop-color="#98BFFF"/>
<stop offset="1" stop-color="#C2E9FB"/>
</linearGradient>
<linearGradient id="paint4_linear_1102_6746" x1="181.071" y1="147.876" x2="204.214" y2="147.876" gradientUnits="userSpaceOnUse">
<stop stop-color="#F6C170"/>
<stop offset="1" stop-color="#FFEAA2"/>
</linearGradient>
<linearGradient id="paint5_linear_1102_6746" x1="181.07" y1="147.876" x2="204.213" y2="147.876" gradientUnits="userSpaceOnUse">
<stop stop-color="#F6C170"/>
<stop offset="1" stop-color="#FFEAA2"/>
</linearGradient>
<linearGradient id="paint6_linear_1102_6746" x1="181.07" y1="147.876" x2="204.213" y2="147.876" gradientUnits="userSpaceOnUse">
<stop stop-color="#98BFFF"/>
<stop offset="1" stop-color="#C2E9FB"/>
</linearGradient>
<linearGradient id="paint7_linear_1102_6746" x1="149.785" y1="239.802" x2="149.785" y2="248.937" gradientUnits="userSpaceOnUse">
<stop stop-color="#98BFFF"/>
<stop offset="1" stop-color="#C2E9FB"/>
</linearGradient>
<linearGradient id="paint8_linear_1102_6746" x1="161.215" y1="238.66" x2="161.215" y2="245.511" gradientUnits="userSpaceOnUse">
<stop stop-color="#98BFFF"/>
<stop offset="1" stop-color="#C2E9FB"/>
</linearGradient>
<linearGradient id="paint9_linear_1102_6746" x1="161.215" y1="238.66" x2="161.215" y2="245.511" gradientUnits="userSpaceOnUse">
<stop stop-color="#FFCA7B"/>
<stop offset="1" stop-color="#FFEAA2"/>
</linearGradient>
<linearGradient id="paint10_linear_1102_6746" x1="236.742" y1="247.005" x2="242.021" y2="252.258" gradientUnits="userSpaceOnUse">
<stop stop-color="#98BFFF"/>
<stop offset="1" stop-color="#C2E9FB"/>
</linearGradient>
<linearGradient id="paint11_linear_1102_6746" x1="239.214" y1="257.502" x2="239.214" y2="260.357" gradientUnits="userSpaceOnUse">
<stop stop-color="#FFCA7B"/>
<stop offset="1" stop-color="#FFEAA2"/>
</linearGradient>
<linearGradient id="paint12_linear_1102_6746" x1="238.929" y1="358.562" x2="238.929" y2="361.417" gradientUnits="userSpaceOnUse">
<stop stop-color="#98BFFF"/>
<stop offset="1" stop-color="#C2E9FB"/>
</linearGradient>
<linearGradient id="paint13_linear_1102_6746" x1="238.928" y1="342.1" x2="238.928" y2="348.761" gradientUnits="userSpaceOnUse">
<stop stop-color="#FFCA7B"/>
<stop offset="1" stop-color="#FFEAA2"/>
</linearGradient>
<linearGradient id="paint14_linear_1102_6746" x1="54.9249" y1="451.91" x2="54.9249" y2="460.479" gradientUnits="userSpaceOnUse">
<stop stop-color="#FFCA7B"/>
<stop offset="1" stop-color="#FFEAA2"/>
</linearGradient>
<linearGradient id="paint15_linear_1102_6746" x1="48.0714" y1="439.639" x2="48.0714" y2="448.775" gradientUnits="userSpaceOnUse">
<stop stop-color="#98BFFF"/>
<stop offset="1" stop-color="#C2E9FB"/>
</linearGradient>
<linearGradient id="paint16_linear_1102_6746" x1="121.215" y1="452.771" x2="121.215" y2="456.769" gradientUnits="userSpaceOnUse">
<stop stop-color="#98BFFF"/>
<stop offset="1" stop-color="#C2E9FB"/>
</linearGradient>
<linearGradient id="paint17_linear_1102_6746" x1="136.071" y1="452.2" x2="136.071" y2="456.198" gradientUnits="userSpaceOnUse">
<stop stop-color="#98BFFF"/>
<stop offset="1" stop-color="#C2E9FB"/>
</linearGradient>
<linearGradient id="paint18_linear_1102_6746" x1="128.643" y1="440.21" x2="128.643" y2="442.495" gradientUnits="userSpaceOnUse">
<stop stop-color="#FFCA7B"/>
<stop offset="1" stop-color="#FFEAA2"/>
</linearGradient>
<linearGradient id="paint19_linear_1102_6746" x1="212.643" y1="441.352" x2="212.643" y2="460.194" gradientUnits="userSpaceOnUse">
<stop stop-color="#FFCA7B"/>
<stop offset="1" stop-color="#FFEAA2"/>
</linearGradient>
<linearGradient id="paint20_linear_1102_6746" x1="202.586" y1="447.062" x2="202.586" y2="455.626" gradientUnits="userSpaceOnUse">
<stop stop-color="#98BFFF"/>
<stop offset="1" stop-color="#C2E9FB"/>
</linearGradient>
<linearGradient id="paint21_linear_1102_6746" x1="293.214" y1="456.768" x2="293.214" y2="459.052" gradientUnits="userSpaceOnUse">
<stop stop-color="#FFCA7B"/>
<stop offset="1" stop-color="#FFEAA2"/>
</linearGradient>
<linearGradient id="paint22_linear_1102_6746" x1="293.214" y1="447.633" x2="293.214" y2="449.917" gradientUnits="userSpaceOnUse">
<stop stop-color="#FFCA7B"/>
<stop offset="1" stop-color="#FFEAA2"/>
</linearGradient>
<linearGradient id="paint23_linear_1102_6746" x1="293.214" y1="439.639" x2="293.214" y2="444.208" gradientUnits="userSpaceOnUse">
<stop stop-color="#98BFFF"/>
<stop offset="1" stop-color="#C2E9FB"/>
</linearGradient>
<clipPath id="clip0_1102_6746">
<rect width="343" height="527" rx="20" fill="white"/>
</clipPath>
<clipPath id="clip1_1102_6746">
<rect width="400" height="527" fill="white" transform="translate(-28.5 -4)"/>
</clipPath>
</defs>
</svg>
