<svg width="1120" height="923" viewBox="0 0 1120 923" fill="none" xmlns="http://www.w3.org/2000/svg">
<rect width="1120" height="923" rx="20" fill="white"/>
<g clip-path="url(#clip0_1806_4089)">
<path d="M910 0H210V923H910V0Z" fill="white"/>
<path d="M483 97C483 72.1472 503.147 52 528 52C552.853 52 573 72.1472 573 97C573 121.853 552.853 142 528 142C503.147 142 483 121.853 483 97Z" fill="#F8F9FA"/>
<path d="M536 77C536 75.9494 535.793 74.9091 535.391 73.9385C534.989 72.9679 534.4 72.086 533.657 71.3431C532.914 70.6003 532.032 70.011 531.061 69.609C530.091 69.2069 529.051 69 528 69C526.949 69 525.909 69.2069 524.939 69.609C523.968 70.011 523.086 70.6003 522.343 71.3431C521.6 72.086 521.011 72.9679 520.609 73.9385C520.207 74.9091 520 75.9494 520 77H528H536Z" fill="url(#paint0_linear_1806_4089)"/>
<path d="M532 108H524V116H532V108Z" fill="#D9D9D9"/>
<path d="M532 108H524V116H532V108Z" fill="url(#paint1_linear_1806_4089)"/>
<path d="M547.5 115.75H542.25V78.25H544.5C544.699 78.25 544.89 78.171 545.03 78.0303C545.171 77.8897 545.25 77.6989 545.25 77.5C545.25 77.3011 545.171 77.1103 545.03 76.9697C544.89 76.829 544.699 76.75 544.5 76.75H511.5C511.301 76.75 511.11 76.829 510.97 76.9697C510.829 77.1103 510.75 77.3011 510.75 77.5C510.75 77.6989 510.829 77.8897 510.97 78.0303C511.11 78.171 511.301 78.25 511.5 78.25H513.75V115.75H508.5C508.301 115.75 508.11 115.829 507.97 115.97C507.829 116.11 507.75 116.301 507.75 116.5C507.75 116.699 507.829 116.89 507.97 117.03C508.11 117.171 508.301 117.25 508.5 117.25H547.5C547.699 117.25 547.89 117.171 548.03 117.03C548.171 116.89 548.25 116.699 548.25 116.5C548.25 116.301 548.171 116.11 548.03 115.97C547.89 115.829 547.699 115.75 547.5 115.75ZM515.25 78.25H540.75V115.75H533.25V107.5C533.25 107.301 533.171 107.11 533.03 106.97C532.89 106.829 532.699 106.75 532.5 106.75H523.5C523.301 106.75 523.11 106.829 522.97 106.97C522.829 107.11 522.75 107.301 522.75 107.5V115.75H515.25V78.25ZM531.75 115.75H524.25V108.25H531.75V115.75ZM521.25 85C521.25 84.8011 521.329 84.6103 521.47 84.4697C521.61 84.329 521.801 84.25 522 84.25H525C525.199 84.25 525.39 84.329 525.53 84.4697C525.671 84.6103 525.75 84.8011 525.75 85C525.75 85.1989 525.671 85.3897 525.53 85.5303C525.39 85.671 525.199 85.75 525 85.75H522C521.801 85.75 521.61 85.671 521.47 85.5303C521.329 85.3897 521.25 85.1989 521.25 85ZM530.25 85C530.25 84.8011 530.329 84.6103 530.47 84.4697C530.61 84.329 530.801 84.25 531 84.25H534C534.199 84.25 534.39 84.329 534.53 84.4697C534.671 84.6103 534.75 84.8011 534.75 85C534.75 85.1989 534.671 85.3897 534.53 85.5303C534.39 85.671 534.199 85.75 534 85.75H531C530.801 85.75 530.61 85.671 530.47 85.5303C530.329 85.3897 530.25 85.1989 530.25 85ZM521.25 92.5C521.25 92.3011 521.329 92.1103 521.47 91.9697C521.61 91.829 521.801 91.75 522 91.75H525C525.199 91.75 525.39 91.829 525.53 91.9697C525.671 92.1103 525.75 92.3011 525.75 92.5C525.75 92.6989 525.671 92.8897 525.53 93.0303C525.39 93.171 525.199 93.25 525 93.25H522C521.801 93.25 521.61 93.171 521.47 93.0303C521.329 92.8897 521.25 92.6989 521.25 92.5ZM530.25 92.5C530.25 92.3011 530.329 92.1103 530.47 91.9697C530.61 91.829 530.801 91.75 531 91.75H534C534.199 91.75 534.39 91.829 534.53 91.9697C534.671 92.1103 534.75 92.3011 534.75 92.5C534.75 92.6989 534.671 92.8897 534.53 93.0303C534.39 93.171 534.199 93.25 534 93.25H531C530.801 93.25 530.61 93.171 530.47 93.0303C530.329 92.8897 530.25 92.6989 530.25 92.5ZM522 100.75C521.801 100.75 521.61 100.671 521.47 100.53C521.329 100.39 521.25 100.199 521.25 100C521.25 99.8011 521.329 99.6103 521.47 99.4697C521.61 99.329 521.801 99.25 522 99.25H525C525.199 99.25 525.39 99.329 525.53 99.4697C525.671 99.6103 525.75 99.8011 525.75 100C525.75 100.199 525.671 100.39 525.53 100.53C525.39 100.671 525.199 100.75 525 100.75H522ZM530.25 100C530.25 99.8011 530.329 99.6103 530.47 99.4697C530.61 99.329 530.801 99.25 531 99.25H534C534.199 99.25 534.39 99.329 534.53 99.4697C534.671 99.6103 534.75 99.8011 534.75 100C534.75 100.199 534.671 100.39 534.53 100.53C534.39 100.671 534.199 100.75 534 100.75H531C530.801 100.75 530.61 100.671 530.47 100.53C530.329 100.39 530.25 100.199 530.25 100Z" fill="black"/>
<path d="M487.764 160.196V161.96H494.638V160.196H487.764ZM486.364 159.16H496.136V162.982H486.364V159.16ZM488.772 157.578H493.714V158.67H488.772V157.578ZM490.494 159.51H491.852V162.464H490.494V159.51ZM488.254 160.504L489.416 160.182C489.668 160.658 489.892 161.274 489.976 161.694L488.744 162.058C488.688 161.638 488.492 160.98 488.254 160.504ZM492.888 160.126L494.274 160.462C493.98 161.064 493.686 161.652 493.462 162.044L492.314 161.736C492.524 161.274 492.776 160.588 492.888 160.126ZM487.134 163.444H495.422V168.204H493.7V164.536H488.786V168.26H487.134V163.444ZM488.086 165.096H494.414V166.202H488.086V165.096ZM488.086 166.776H494.414V167.868H488.086V166.776ZM490.956 154.988L492.44 155.534C490.886 157.508 488.212 158.894 485.482 159.72C485.314 159.384 484.88 158.712 484.6 158.418C487.19 157.788 489.682 156.612 490.956 154.988ZM492.062 155.632C493.308 156.836 495.73 157.844 498.068 158.32C497.718 158.614 497.242 159.216 497.004 159.594C494.652 158.992 492.258 157.704 490.816 156.136L492.062 155.632ZM503.122 156.864V157.76H508.806V156.864H503.122ZM501.442 155.562H510.598V159.076H501.442V155.562ZM502.478 162.408V162.996H509.352V162.408H502.478ZM502.478 164.074V164.676H509.352V164.074H502.478ZM502.478 160.742V161.33H509.352V160.742H502.478ZM500.798 159.594H511.102V165.81H500.798V159.594ZM503.514 165.53L505.012 166.58C503.892 167.238 502.072 167.924 500.644 168.26C500.336 167.91 499.776 167.378 499.37 167.056C500.84 166.734 502.632 166.076 503.514 165.53ZM506.594 166.664L508.064 165.6C509.548 165.992 511.424 166.65 512.586 167.098L511.116 168.288C510.024 167.784 508.092 167.084 506.594 166.664ZM518.396 159.832L526.922 158.698L527.16 160.294L518.648 161.442L518.396 159.832ZM523.674 155.996L524.934 155.212C525.662 155.884 526.544 156.822 526.936 157.48L525.592 158.348C525.242 157.704 524.388 156.71 523.674 155.996ZM517.626 155.226L519.222 155.758C518.172 158.236 516.464 160.826 514.714 162.436C514.546 162.03 514.07 161.134 513.776 160.728C515.288 159.426 516.758 157.34 517.626 155.226ZM516.17 159.244L517.892 157.536L517.906 157.564V168.232H516.17V159.244ZM521.014 155.324H522.722C522.82 161.316 523.632 165.964 525.326 166.202C525.648 166.23 525.83 165.502 525.928 163.962C526.25 164.312 527.006 164.76 527.314 164.914C526.95 167.63 526.194 168.274 525.41 168.232C522.092 167.924 521.266 162.954 521.014 155.324ZM529.736 156.122H541.048V157.55H529.736V156.122ZM530.422 158.292H540.502V159.622H530.422V158.292ZM529.134 160.406H541.538V161.82H529.134V160.406ZM534.454 155.114H536.162V161.54H534.454V155.114ZM534.23 160.77L535.686 161.428C534.272 163.164 531.934 164.69 529.736 165.502C529.484 165.096 528.994 164.48 528.63 164.144C530.758 163.486 533.068 162.156 534.23 160.77ZM536.582 161.26C537.436 163.78 539.214 165.67 542.028 166.454C541.65 166.804 541.16 167.476 540.922 167.938C537.898 166.902 536.134 164.732 535.07 161.638L536.582 161.26ZM539.97 162.086L541.37 163.122C540.334 163.878 539.116 164.648 538.164 165.124L537.1 164.242C538.01 163.696 539.242 162.8 539.97 162.086ZM531.64 168.26L531.458 166.818L532.158 166.272L536.428 165.096C536.47 165.558 536.61 166.23 536.708 166.594C532.704 167.784 532.046 167.994 531.64 168.26ZM531.64 168.26C531.528 167.854 531.206 167.112 530.94 166.762C531.248 166.594 531.64 166.258 531.64 165.642V163.164H533.39V166.804C533.39 166.804 531.64 167.714 531.64 168.26ZM543.834 158.88H556.294V160.616H543.834V158.88ZM551.016 159.58C551.856 162.786 553.634 165.446 556.602 166.622C556.182 167 555.622 167.728 555.342 168.218C552.136 166.72 550.386 163.822 549.322 159.972L551.016 159.58ZM549.084 155.114H550.932C550.862 159.384 550.834 165.32 544.828 168.218C544.562 167.756 544.044 167.154 543.554 166.79C549.294 164.228 549.042 158.908 549.084 155.114ZM561.264 160.196V161.96H568.138V160.196H561.264ZM559.864 159.16H569.636V162.982H559.864V159.16ZM562.272 157.578H567.214V158.67H562.272V157.578ZM563.994 159.51H565.352V162.464H563.994V159.51ZM561.754 160.504L562.916 160.182C563.168 160.658 563.392 161.274 563.476 161.694L562.244 162.058C562.188 161.638 561.992 160.98 561.754 160.504ZM566.388 160.126L567.774 160.462C567.48 161.064 567.186 161.652 566.962 162.044L565.814 161.736C566.024 161.274 566.276 160.588 566.388 160.126ZM560.634 163.444H568.922V168.204H567.2V164.536H562.286V168.26H560.634V163.444ZM561.586 165.096H567.914V166.202H561.586V165.096ZM561.586 166.776H567.914V167.868H561.586V166.776ZM564.456 154.988L565.94 155.534C564.386 157.508 561.712 158.894 558.982 159.72C558.814 159.384 558.38 158.712 558.1 158.418C560.69 157.788 563.182 156.612 564.456 154.988ZM565.562 155.632C566.808 156.836 569.23 157.844 571.568 158.32C571.218 158.614 570.742 159.216 570.504 159.594C568.152 158.992 565.758 157.704 564.316 156.136L565.562 155.632Z" fill="#202529"/>
<path d="M414 266C414 241.147 434.147 221 459 221C483.853 221 504 241.147 504 266C504 290.853 483.853 311 459 311C434.147 311 414 290.853 414 266Z" fill="#F8F9FA"/>
<path d="M455 262C458.866 262 462 258.866 462 255C462 251.134 458.866 248 455 248C451.134 248 448 251.134 448 255C448 258.866 451.134 262 455 262Z" fill="url(#paint2_linear_1806_4089)"/>
<path d="M467 283C470.314 283 473 280.314 473 277C473 273.686 470.314 271 467 271C463.686 271 461 273.686 461 277C461 280.314 463.686 283 467 283Z" fill="url(#paint3_linear_1806_4089)"/>
<path d="M443 283V279C443 276.878 443.843 274.843 445.343 273.343C446.843 271.843 448.878 271 451 271H454M471.4 281.4L475 285M447 255C447 257.122 447.843 259.157 449.343 260.657C450.843 262.157 452.878 263 455 263C457.122 263 459.157 262.157 460.657 260.657C462.157 259.157 463 257.122 463 255C463 252.878 462.157 250.843 460.657 249.343C459.157 247.843 457.122 247 455 247C452.878 247 450.843 247.843 449.343 249.343C447.843 250.843 447 252.878 447 255ZM461 277C461 278.591 461.632 280.117 462.757 281.243C463.883 282.368 465.409 283 467 283C468.591 283 470.117 282.368 471.243 281.243C472.368 280.117 473 278.591 473 277C473 275.409 472.368 273.883 471.243 272.757C470.117 271.632 468.591 271 467 271C465.409 271 463.883 271.632 462.757 272.757C461.632 273.883 461 275.409 461 277Z" stroke="black" stroke-width="1.5" stroke-linecap="round" stroke-linejoin="round"/>
<path d="M438.21 330.246H444.58V331.52H438.21V330.246ZM445.406 329.658H450.222V331.058H445.406V329.658ZM445.91 324.128L447.366 324.422C446.96 326.256 446.204 328.034 445.308 329.168C445.056 328.93 444.44 328.482 444.09 328.272C444.972 327.292 445.588 325.724 445.91 324.128ZM438.21 324.604H444.468V325.864H439.736V330.778H438.21V324.604ZM438.966 326.55H444.146V329.476H438.966V328.398H442.774V327.628H438.966V326.55ZM440.926 325.066H442.27V327.082H440.926V325.066ZM440.926 328.748H442.27V330.792H440.926V328.748ZM446.05 326.144H450.558V327.544H445.434L446.05 326.144ZM437.874 335.426H450.698V336.882H437.874V335.426ZM439.372 332.234H449.256V336.168H447.604V333.536H446.386V336.168H444.86V333.536H443.656V336.168H442.116V333.536H440.926V336.168H439.372V332.234ZM458.09 324.114H459.798V335.664C459.798 336.49 459.588 336.826 459.056 337.064C458.51 337.274 457.754 337.302 456.564 337.302C456.48 336.91 456.214 336.322 456.004 335.986C456.676 336.014 457.502 336 457.74 336C458.006 335.986 458.09 335.902 458.09 335.664V324.114ZM452.84 325.024H465.16V326.354H452.84V325.024ZM455.878 327.978V328.65H462.066V327.978H455.878ZM454.282 326.914H463.788V329.714H454.282V326.914ZM453.932 330.33H464.026V335.804H462.318V331.478H453.932V330.33ZM452.518 332.066H465.482V333.34H452.518V332.066ZM453.82 333.998H463.228V335.216H453.82V333.998ZM470.214 329.196V330.96H477.088V329.196H470.214ZM468.814 328.16H478.586V331.982H468.814V328.16ZM471.222 326.578H476.164V327.67H471.222V326.578ZM472.944 328.51H474.302V331.464H472.944V328.51ZM470.704 329.504L471.866 329.182C472.118 329.658 472.342 330.274 472.426 330.694L471.194 331.058C471.138 330.638 470.942 329.98 470.704 329.504ZM475.338 329.126L476.724 329.462C476.43 330.064 476.136 330.652 475.912 331.044L474.764 330.736C474.974 330.274 475.226 329.588 475.338 329.126ZM469.584 332.444H477.872V337.204H476.15V333.536H471.236V337.26H469.584V332.444ZM470.536 334.096H476.864V335.202H470.536V334.096ZM470.536 335.776H476.864V336.868H470.536V335.776ZM473.406 323.988L474.89 324.534C473.336 326.508 470.662 327.894 467.932 328.72C467.764 328.384 467.33 327.712 467.05 327.418C469.64 326.788 472.132 325.612 473.406 323.988ZM474.512 324.632C475.758 325.836 478.18 326.844 480.518 327.32C480.168 327.614 479.692 328.216 479.454 328.594C477.102 327.992 474.708 326.704 473.266 325.136L474.512 324.632Z" fill="#202529"/>
<path d="M552 266C552 241.147 572.147 221 597 221C621.853 221 642 241.147 642 266C642 290.853 621.853 311 597 311C572.147 311 552 290.853 552 266Z" fill="#F8F9FA"/>
<path d="M607.497 272.421C613.257 270.655 615.897 274.873 616.497 277.202C615.417 278.085 611.247 278.06 609.297 277.938C609.657 277.055 608.247 273.892 607.497 272.421Z" fill="url(#paint4_linear_1806_4089)"/>
<path d="M586.497 272.421C580.737 270.655 578.097 274.873 577.497 277.202C578.577 278.085 582.747 278.06 584.697 277.938C584.337 277.055 585.747 273.892 586.497 272.421Z" fill="url(#paint5_linear_1806_4089)"/>
<path d="M596.597 266.75C587.957 267.062 585.263 275.198 584.997 279.227C596.197 285.154 605.663 281.697 608.997 279.227C608.677 269.245 600.597 266.75 596.597 266.75Z" fill="url(#paint6_linear_1806_4089)"/>
<path fill-rule="evenodd" clip-rule="evenodd" d="M596.997 249.5C594.097 249.5 591.747 251.851 591.747 254.75C591.747 257.649 594.097 260 596.997 260C599.896 260 602.247 257.649 602.247 254.75C602.247 251.851 599.896 249.5 596.997 249.5ZM590.247 254.75C590.247 251.022 593.269 248 596.997 248C600.725 248 603.747 251.022 603.747 254.75C603.747 258.478 600.725 261.5 596.997 261.5C593.269 261.5 590.247 258.478 590.247 254.75ZM583.497 257C581.426 257 579.747 258.679 579.747 260.75C579.747 262.821 581.426 264.5 583.497 264.5C585.568 264.5 587.247 262.821 587.247 260.75C587.247 258.679 585.568 257 583.497 257ZM578.247 260.75C578.247 257.851 580.597 255.5 583.497 255.5C586.396 255.5 588.747 257.851 588.747 260.75C588.747 263.649 586.396 266 583.497 266C580.597 266 578.247 263.649 578.247 260.75ZM610.497 257C608.426 257 606.747 258.679 606.747 260.75C606.747 262.821 608.426 264.5 610.497 264.5C612.568 264.5 614.247 262.821 614.247 260.75C614.247 258.679 612.568 257 610.497 257ZM605.247 260.75C605.247 257.851 607.597 255.5 610.497 255.5C613.396 255.5 615.747 257.851 615.747 260.75C615.747 263.649 613.396 266 610.497 266C607.597 266 605.247 263.649 605.247 260.75ZM596.997 267.5C593.013 267.5 589.512 269.57 587.512 272.697C586.404 274.429 585.758 276.485 585.747 278.692V278.75C585.747 279.043 585.758 279.333 585.78 279.62C589.105 281.455 592.928 282.5 596.997 282.5C601.065 282.5 604.888 281.455 608.213 279.62C608.235 279.333 608.247 279.043 608.247 278.75L608.246 278.692C608.235 276.485 607.589 274.43 606.482 272.698C604.482 269.571 600.981 267.5 596.997 267.5ZM586.66 271.285C588.975 268.084 592.742 266 596.997 266C601.252 266 605.019 268.085 607.334 271.286C608.278 270.784 609.356 270.5 610.498 270.5C614.226 270.5 617.248 273.522 617.248 277.25C617.248 277.432 617.24 277.613 617.226 277.792C617.203 278.088 617.007 278.341 616.728 278.44C614.778 279.127 612.68 279.5 610.498 279.5C610.239 279.5 609.982 279.495 609.726 279.484C609.713 279.712 609.694 279.939 609.669 280.164C609.643 280.402 609.504 280.613 609.297 280.732C605.673 282.811 601.472 284 596.997 284C592.521 284 588.32 282.811 584.696 280.732C584.489 280.613 584.35 280.402 584.324 280.164C584.299 279.939 584.28 279.712 584.267 279.484C584.012 279.495 583.756 279.5 583.498 279.5C581.315 279.5 579.218 279.127 577.268 278.44C576.988 278.341 576.793 278.088 576.77 277.792C576.755 277.613 576.748 277.432 576.748 277.25C576.748 273.522 579.77 270.5 583.498 270.5C584.639 270.5 585.716 270.784 586.66 271.285ZM585.85 272.555C585.143 272.2 584.345 272 583.498 272C580.62 272 578.282 274.316 578.248 277.187C579.903 277.715 581.666 278 583.498 278C583.757 278 584.014 277.994 584.269 277.983C584.386 276.022 584.946 274.179 585.85 272.555ZM609.724 277.983C609.98 277.994 610.238 278 610.498 278C612.329 278 614.093 277.715 615.747 277.187C615.714 274.316 613.376 272 610.498 272C609.65 272 608.851 272.2 608.143 272.556C609.048 274.18 609.607 276.022 609.724 277.983Z" fill="#202529"/>
<path d="M602.25 254.75C602.25 257.649 599.899 260 597 260C594.1 260 591.75 257.649 591.75 254.75C591.75 251.851 594.1 249.5 597 249.5C599.899 249.5 602.25 251.851 602.25 254.75Z" fill="white"/>
<path d="M587.25 260.75C587.25 262.821 585.571 264.5 583.5 264.5C581.428 264.5 579.75 262.821 579.75 260.75C579.75 258.679 581.428 257 583.5 257C585.571 257 587.25 258.679 587.25 260.75Z" fill="white"/>
<path d="M614.25 260.75C614.25 262.821 612.571 264.5 610.5 264.5C608.428 264.5 606.75 262.821 606.75 260.75C606.75 258.679 608.428 257 610.5 257C612.571 257 614.25 258.679 614.25 260.75Z" fill="white"/>
<path d="M582.482 328.622V329.826H586.724V328.622H582.482ZM582.482 326.13V327.306H586.724V326.13H582.482ZM580.97 324.702H588.32V331.24H580.97V324.702ZM580.872 332.444H588.474V333.956H580.872V332.444ZM579.892 335.3H588.936V336.812H579.892V335.3ZM575.79 324.912H580.438V326.48H575.79V324.912ZM575.93 328.944H580.2V330.498H575.93V328.944ZM575.636 334.264C576.84 333.956 578.632 333.396 580.312 332.85L580.606 334.46C579.038 334.992 577.358 335.538 576.014 335.972L575.636 334.264ZM577.344 325.528H578.94V334.138L577.344 334.39V325.528ZM583.924 325.304H585.338V330.582H585.492V336.014H583.77V330.582H583.924V325.304ZM596.09 324.114H597.798V335.664C597.798 336.49 597.588 336.826 597.056 337.064C596.51 337.274 595.754 337.302 594.564 337.302C594.48 336.91 594.214 336.322 594.004 335.986C594.676 336.014 595.502 336 595.74 336C596.006 335.986 596.09 335.902 596.09 335.664V324.114ZM590.84 325.024H603.16V326.354H590.84V325.024ZM593.878 327.978V328.65H600.066V327.978H593.878ZM592.282 326.914H601.788V329.714H592.282V326.914ZM591.932 330.33H602.026V335.804H600.318V331.478H591.932V330.33ZM590.518 332.066H603.482V333.34H590.518V332.066ZM591.82 333.998H601.228V335.216H591.82V333.998ZM608.214 329.196V330.96H615.088V329.196H608.214ZM606.814 328.16H616.586V331.982H606.814V328.16ZM609.222 326.578H614.164V327.67H609.222V326.578ZM610.944 328.51H612.302V331.464H610.944V328.51ZM608.704 329.504L609.866 329.182C610.118 329.658 610.342 330.274 610.426 330.694L609.194 331.058C609.138 330.638 608.942 329.98 608.704 329.504ZM613.338 329.126L614.724 329.462C614.43 330.064 614.136 330.652 613.912 331.044L612.764 330.736C612.974 330.274 613.226 329.588 613.338 329.126ZM607.584 332.444H615.872V337.204H614.15V333.536H609.236V337.26H607.584V332.444ZM608.536 334.096H614.864V335.202H608.536V334.096ZM608.536 335.776H614.864V336.868H608.536V335.776ZM611.406 323.988L612.89 324.534C611.336 326.508 608.662 327.894 605.932 328.72C605.764 328.384 605.33 327.712 605.05 327.418C607.64 326.788 610.132 325.612 611.406 323.988ZM612.512 324.632C613.758 325.836 616.18 326.844 618.518 327.32C618.168 327.614 617.692 328.216 617.454 328.594C615.102 327.992 612.708 326.704 611.266 325.136L612.512 324.632Z" fill="#202529"/>
<path d="M528.5 183V192" stroke="#A9B6C0"/>
<path d="M458.5 192V201" stroke="#A9B6C0"/>
<path d="M598.5 192V201" stroke="#A9B6C0"/>
<path d="M458 192.5H598" stroke="#A9B6C0"/>
<path d="M678.5 712V721" stroke="#A9B6C0"/>
<path d="M344.5 721V730" stroke="#A9B6C0"/>
<path d="M485.5 721V730" stroke="#A9B6C0"/>
<path d="M629.5 722V731" stroke="#A9B6C0"/>
<path d="M775.5 721V730" stroke="#A9B6C0"/>
<path d="M344 721.5H775" stroke="#A9B6C0"/>
<path d="M602.5 360V369" stroke="#A9B6C0"/>
<path d="M532.5 369V378" stroke="#A9B6C0"/>
<path d="M672.5 369V378" stroke="#A9B6C0"/>
<path d="M532 369.5H672" stroke="#A9B6C0"/>
<path d="M485 443C485 418.147 505.147 398 530 398C554.853 398 575 418.147 575 443C575 467.853 554.853 488 530 488C505.147 488 485 467.853 485 443Z" fill="#F8F9FA"/>
<path d="M522 443C526.418 443 530 439.418 530 435C530 430.582 526.418 427 522 427C517.582 427 514 430.582 514 435C514 439.418 517.582 443 522 443Z" fill="url(#paint7_linear_1806_4089)"/>
<path d="M542 437C545.314 437 548 434.314 548 431C548 427.686 545.314 425 542 425C538.686 425 536 427.686 536 431C536 434.314 538.686 437 542 437Z" fill="url(#paint8_linear_1806_4089)"/>
<path d="M542 437C545.314 437 548 434.314 548 431C548 427.686 545.314 425 542 425C538.686 425 536 427.686 536 431C536 434.314 538.686 437 542 437Z" fill="url(#paint9_linear_1806_4089)"/>
<path d="M508 459V457C508 453.287 509.475 449.726 512.101 447.101C514.726 444.475 518.287 443 522 443C525.713 443 529.274 444.475 531.899 447.101C534.525 449.726 536 453.287 536 457V459" stroke="black" stroke-width="1.5" stroke-linecap="round"/>
<path d="M532 447C532 444.348 533.054 441.804 534.929 439.929C536.804 438.054 539.348 437 542 437C543.313 437 544.614 437.259 545.827 437.761C547.04 438.264 548.142 439 549.071 439.929C550 440.858 550.736 441.96 551.239 443.173C551.741 444.386 552 445.687 552 447V448" stroke="black" stroke-width="1.5" stroke-linecap="round"/>
<path d="M522 443C524.122 443 526.157 442.157 527.657 440.657C529.157 439.157 530 437.122 530 435C530 432.878 529.157 430.843 527.657 429.343C526.157 427.843 524.122 427 522 427C519.878 427 517.843 427.843 516.343 429.343C514.843 430.843 514 432.878 514 435C514 437.122 514.843 439.157 516.343 440.657C517.843 442.157 519.878 443 522 443ZM542 437C543.591 437 545.117 436.368 546.243 435.243C547.368 434.117 548 432.591 548 431C548 429.409 547.368 427.883 546.243 426.757C545.117 425.632 543.591 425 542 425C540.409 425 538.883 425.632 537.757 426.757C536.632 427.883 536 429.409 536 431C536 432.591 536.632 434.117 537.757 435.243C538.883 436.368 540.409 437 542 437Z" stroke="black" stroke-width="1.5" stroke-linecap="round" stroke-linejoin="round"/>
<path d="M507.236 508.044H508.972V514.26H507.236V508.044ZM505.822 506.336V507.204H509.994V506.336H505.822ZM504.212 505.146H511.716V508.394H504.212V505.146ZM502.868 509.234H512.29V510.732H504.562V513.644H502.868V509.234ZM511.492 509.234H513.214V512.118C513.214 512.874 513.06 513.308 512.5 513.546C511.94 513.784 511.184 513.798 510.176 513.798C510.092 513.336 509.854 512.692 509.63 512.272C510.26 512.3 511.016 512.3 511.212 512.3C511.422 512.286 511.492 512.244 511.492 512.09V509.234ZM507.054 501.1H508.79V503.676H507.054V501.1ZM501.93 503.032H514.012V506.42H512.346V504.474H503.54V506.42H501.93V503.032ZM503.05 501.8L504.576 501.198C504.982 501.646 505.402 502.262 505.598 502.696L503.988 503.41C503.834 502.962 503.428 502.276 503.05 501.8ZM511.24 501.212L513.046 501.758C512.542 502.346 512.038 502.892 511.646 503.256L510.232 502.752C510.582 502.318 511.002 501.674 511.24 501.212ZM516.392 501.744H520.984V503.158H516.392V501.744ZM521.992 508.954H527.69V510.354H521.992V508.954ZM516.196 506.028H521.404V507.498H516.196V506.028ZM518.478 506.63H520.074V512.454C520.074 513.21 519.948 513.658 519.458 513.924C518.982 514.176 518.352 514.204 517.47 514.204C517.428 513.756 517.204 513.056 516.994 512.608C517.512 512.636 518.086 512.636 518.254 512.636C518.422 512.622 518.478 512.58 518.478 512.426V506.63ZM527.144 508.954H528.838C528.838 508.954 528.824 509.374 528.796 509.598C528.558 512.02 528.32 513.112 527.914 513.546C527.606 513.882 527.298 513.994 526.892 514.05C526.542 514.092 525.954 514.106 525.31 514.078C525.282 513.616 525.114 512.958 524.862 512.538C525.366 512.58 525.828 512.594 526.052 512.594C526.262 512.594 526.388 512.58 526.514 512.44C526.766 512.202 526.976 511.32 527.144 509.178V508.954ZM524.176 507.708H525.842C525.618 510.578 525.03 512.958 521.712 514.274C521.53 513.868 521.096 513.28 520.746 512.972C523.644 511.908 523.98 509.99 524.176 507.708ZM516.714 504.67L517.764 503.592C518.898 503.998 520.438 504.726 521.236 505.286L520.102 506.49C519.388 505.93 517.876 505.132 516.714 504.67ZM520.998 506.028H521.222L521.446 505.958L522.454 506.294C522.23 507.568 521.866 509.01 521.488 509.962L520.368 509.43C520.62 508.618 520.872 507.316 520.998 506.266V506.028ZM526.612 503.214L528.362 503.48C527.41 506.084 525.324 507.428 522.58 508.212C522.384 507.834 521.866 507.148 521.53 506.812C524.106 506.294 525.968 505.216 526.612 503.214ZM523.812 501.1L525.38 501.534C524.68 503.046 523.546 504.502 522.496 505.412C522.174 505.146 521.516 504.684 521.124 504.474C522.216 503.676 523.252 502.402 523.812 501.1ZM524.008 503.578C524.974 505.174 526.934 506.336 529.384 506.798C529.02 507.134 528.544 507.792 528.32 508.226C525.73 507.568 523.784 506.112 522.608 504.026L524.008 503.578ZM518.324 506.532L519.402 506.952C518.87 508.814 517.932 510.928 516.742 512.006C516.588 511.53 516.224 510.83 515.958 510.382C516.98 509.514 517.89 507.932 518.324 506.532ZM523.77 502.528H529.006V503.914H523.098L523.77 502.528ZM520.578 501.744H520.942L521.194 501.688L522.272 502.36C521.642 503.382 520.536 504.502 519.528 505.202C519.234 504.95 518.758 504.6 518.436 504.404C519.304 503.788 520.2 502.752 520.578 502.038V501.744ZM531.26 507.246H537.63V508.52H531.26V507.246ZM538.456 506.658H543.272V508.058H538.456V506.658ZM538.96 501.128L540.416 501.422C540.01 503.256 539.254 505.034 538.358 506.168C538.106 505.93 537.49 505.482 537.14 505.272C538.022 504.292 538.638 502.724 538.96 501.128ZM531.26 501.604H537.518V502.864H532.786V507.778H531.26V501.604ZM532.016 503.55H537.196V506.476H532.016V505.398H535.824V504.628H532.016V503.55ZM533.976 502.066H535.32V504.082H533.976V502.066ZM533.976 505.748H535.32V507.792H533.976V505.748ZM539.1 503.144H543.608V504.544H538.484L539.1 503.144ZM530.924 512.426H543.748V513.882H530.924V512.426ZM532.422 509.234H542.306V513.168H540.654V510.536H539.436V513.168H537.91V510.536H536.706V513.168H535.166V510.536H533.976V513.168H532.422V509.234ZM551.14 501.114H552.848V512.664C552.848 513.49 552.638 513.826 552.106 514.064C551.56 514.274 550.804 514.302 549.614 514.302C549.53 513.91 549.264 513.322 549.054 512.986C549.726 513.014 550.552 513 550.79 513C551.056 512.986 551.14 512.902 551.14 512.664V501.114ZM545.89 502.024H558.21V503.354H545.89V502.024ZM548.928 504.978V505.65H555.116V504.978H548.928ZM547.332 503.914H556.838V506.714H547.332V503.914ZM546.982 507.33H557.076V512.804H555.368V508.478H546.982V507.33ZM545.568 509.066H558.532V510.34H545.568V509.066ZM546.87 510.998H556.278V512.216H546.87V510.998Z" fill="#202529"/>
<path d="M633 443C633 418.147 653.147 398 678 398C702.853 398 723 418.147 723 443C723 467.853 702.853 488 678 488C653.147 488 633 467.853 633 443Z" fill="#F8F9FA"/>
<path d="M676.345 437.43L672 441.801L681.245 450.993L685.59 446.622L676.345 437.43Z" fill="#D9D9D9"/>
<path d="M676.345 437.43L672 441.801L681.245 450.993L685.59 446.622L676.345 437.43Z" fill="url(#paint10_linear_1806_4089)"/>
<path d="M661 458H696C696 460.761 693.761 463 691 463H665C662.791 463 661 461.209 661 459V458Z" fill="#D9D9D9"/>
<path d="M661 458H696C696 460.761 693.761 463 691 463H665C662.791 463 661 461.209 661 459V458Z" fill="url(#paint11_linear_1806_4089)"/>
<path d="M658.703 446.428C657.997 441.832 657.643 439.536 658.513 437.498C659.381 435.462 661.309 434.068 665.163 431.282L668.043 429.2C672.837 425.734 675.235 424 678.001 424C680.767 424 683.165 425.734 687.959 429.2L690.839 431.282C694.693 434.068 696.619 435.462 697.489 437.498C698.357 439.536 698.005 441.832 697.299 446.426L696.697 450.346C695.697 456.858 695.195 460.114 692.859 462.058C690.523 464.002 687.109 464 680.279 464H675.721C668.891 464 665.477 464 663.141 462.058C660.805 460.114 660.305 456.858 659.303 450.344L658.703 446.428Z" stroke="black" stroke-width="1.5" stroke-linecap="round" stroke-linejoin="round"/>
<path d="M676.501 446.5C678.875 448.874 682.001 451.286 682.001 451.286L686.287 447C686.287 447 683.875 443.874 681.501 441.5C679.127 439.126 676.001 436.714 676.001 436.714L671.715 441C671.715 441 674.127 444.126 676.501 446.5ZM676.501 446.5L669.001 454M687.001 446.286L681.287 452M676.715 436L671.001 441.714" stroke="black" stroke-width="1.5" stroke-linecap="round" stroke-linejoin="round"/>
<path d="M663.482 505.622V506.826H667.724V505.622H663.482ZM663.482 503.13V504.306H667.724V503.13H663.482ZM661.97 501.702H669.32V508.24H661.97V501.702ZM661.872 509.444H669.474V510.956H661.872V509.444ZM660.892 512.3H669.936V513.812H660.892V512.3ZM656.79 501.912H661.438V503.48H656.79V501.912ZM656.93 505.944H661.2V507.498H656.93V505.944ZM656.636 511.264C657.84 510.956 659.632 510.396 661.312 509.85L661.606 511.46C660.038 511.992 658.358 512.538 657.014 512.972L656.636 511.264ZM658.344 502.528H659.94V511.138L658.344 511.39V502.528ZM664.924 502.304H666.338V507.582H666.492V513.014H664.77V507.582H664.924V502.304ZM677.09 501.114H678.798V512.664C678.798 513.49 678.588 513.826 678.056 514.064C677.51 514.274 676.754 514.302 675.564 514.302C675.48 513.91 675.214 513.322 675.004 512.986C675.676 513.014 676.502 513 676.74 513C677.006 512.986 677.09 512.902 677.09 512.664V501.114ZM671.84 502.024H684.16V503.354H671.84V502.024ZM674.878 504.978V505.65H681.066V504.978H674.878ZM673.282 503.914H682.788V506.714H673.282V503.914ZM672.932 507.33H683.026V512.804H681.318V508.478H672.932V507.33ZM671.518 509.066H684.482V510.34H671.518V509.066ZM672.82 510.998H682.228V512.216H672.82V510.998ZM686.344 507.806H699.042V509.29H686.344V507.806ZM689.62 503.732H697.18V505.034H689.62V503.732ZM689.62 505.762H697.18V507.064H689.62V505.762ZM693.288 508.142C694.198 510.578 696.158 512.146 699.35 512.72C698.986 513.084 698.51 513.784 698.286 514.232C694.842 513.448 692.896 511.558 691.748 508.52L693.288 508.142ZM697.264 509.108L698.608 510.046C697.586 510.788 696.312 511.53 695.332 511.992L694.212 511.124C695.178 510.634 696.48 509.78 697.264 509.108ZM688.696 501.59H697.572V502.976H690.418V508.352H688.696V501.59ZM688.388 514.288L688.29 512.986L688.99 512.468L693.134 511.656C693.05 512.104 692.994 512.804 692.994 513.154C689.34 513.952 688.752 514.092 688.388 514.288ZM688.402 508.786H690.054V512.958L688.388 514.316C688.29 513.91 687.968 513.042 687.688 512.636C688.01 512.468 688.402 512.146 688.402 511.572V508.786Z" fill="#202529"/>
<path d="M633 620C633 595.147 653.147 575 678 575C702.853 575 723 595.147 723 620C723 644.853 702.853 665 678 665C653.147 665 633 644.853 633 620Z" fill="#F8F9FA"/>
<path d="M684 635H672V640H684V635Z" fill="#D9D9D9"/>
<path d="M684 635H672V640H684V635Z" fill="url(#paint12_linear_1806_4089)"/>
<path d="M676.34 608.155C677.079 606.829 677.448 606.167 678 606.167C678.553 606.167 678.922 606.829 679.661 608.155L679.853 608.498C680.063 608.874 680.168 609.063 680.331 609.187C680.494 609.311 680.698 609.357 681.107 609.45L681.478 609.534C682.913 609.858 683.63 610.021 683.801 610.57C683.971 611.118 683.482 611.69 682.504 612.834L682.251 613.13C681.973 613.455 681.834 613.617 681.771 613.818C681.709 614.019 681.73 614.236 681.772 614.67L681.81 615.065C681.958 616.591 682.032 617.354 681.585 617.693C681.138 618.033 680.466 617.723 679.123 617.105L678.775 616.945C678.394 616.769 678.203 616.681 678 616.681C677.798 616.681 677.607 616.769 677.226 616.945L676.878 617.105C675.535 617.723 674.863 618.032 674.416 617.694C673.969 617.354 674.043 616.591 674.191 615.065L674.229 614.67C674.271 614.236 674.292 614.019 674.229 613.819C674.167 613.617 674.028 613.455 673.75 613.13L673.497 612.834C672.519 611.691 672.03 611.118 672.2 610.57C672.371 610.021 673.089 609.858 674.524 609.534L674.895 609.45C675.303 609.357 675.506 609.311 675.67 609.187C675.833 609.063 675.938 608.874 676.148 608.498L676.34 608.155Z" fill="black"/>
<path d="M676.34 608.155C677.079 606.829 677.448 606.167 678 606.167C678.553 606.167 678.922 606.829 679.661 608.155L679.853 608.498C680.063 608.874 680.168 609.063 680.331 609.187C680.494 609.311 680.698 609.357 681.107 609.45L681.478 609.534C682.913 609.858 683.63 610.021 683.801 610.57C683.971 611.118 683.482 611.69 682.504 612.834L682.251 613.13C681.973 613.455 681.834 613.617 681.771 613.818C681.709 614.019 681.73 614.236 681.772 614.67L681.81 615.065C681.958 616.591 682.032 617.354 681.585 617.693C681.138 618.033 680.466 617.723 679.123 617.105L678.775 616.945C678.394 616.769 678.203 616.681 678 616.681C677.798 616.681 677.607 616.769 677.226 616.945L676.878 617.105C675.535 617.723 674.863 618.032 674.416 617.694C673.969 617.354 674.043 616.591 674.191 615.065L674.229 614.67C674.271 614.236 674.292 614.019 674.229 613.819C674.167 613.617 674.028 613.455 673.75 613.13L673.497 612.834C672.519 611.691 672.03 611.118 672.2 610.57C672.371 610.021 673.089 609.858 674.524 609.534L674.895 609.45C675.303 609.357 675.506 609.311 675.67 609.187C675.833 609.063 675.938 608.874 676.148 608.498L676.34 608.155Z" fill="url(#paint13_linear_1806_4089)"/>
<path d="M678 628V634" stroke="black" stroke-width="1.5" stroke-linecap="round"/>
<path d="M685 640H671L671.68 636.608C671.771 636.155 672.015 635.747 672.373 635.454C672.73 635.161 673.178 635 673.64 635H682.36C682.822 635 683.27 635.161 683.627 635.454C683.985 635.747 684.229 636.155 684.32 636.608L685 640Z" stroke="black" stroke-width="1.5" stroke-linecap="round" stroke-linejoin="round"/>
<path d="M692 606L693.898 606.632C695.878 607.292 696.868 607.622 697.434 608.408C698 609.194 698 610.238 698 612.324V612.47C698 614.19 698 615.052 697.586 615.756C697.172 616.46 696.418 616.878 694.914 617.716L689 621M664 606L662.102 606.632C660.122 607.292 659.132 607.622 658.566 608.408C658 609.194 658 610.24 658 612.324V612.47C658 614.19 658 615.052 658.414 615.756C658.828 616.46 659.582 616.878 661.086 617.716L667 621M676.292 608.046C677.052 606.68 677.432 606 678 606C678.568 606 678.948 606.68 679.708 608.046L679.904 608.398C680.12 608.786 680.228 608.978 680.396 609.106C680.566 609.234 680.776 609.282 681.196 609.376L681.576 609.464C683.052 609.798 683.79 609.964 683.966 610.528C684.142 611.094 683.638 611.682 682.632 612.858L682.372 613.162C682.086 613.496 681.942 613.662 681.878 613.87C681.814 614.078 681.836 614.3 681.878 614.746L681.918 615.152C682.07 616.722 682.146 617.508 681.688 617.856C681.228 618.204 680.536 617.886 679.154 617.25L678.798 617.086C678.404 616.906 678.208 616.816 678 616.816C677.792 616.816 677.596 616.906 677.202 617.086L676.846 617.25C675.464 617.888 674.772 618.204 674.312 617.856C673.852 617.508 673.93 616.722 674.082 615.152L674.122 614.746C674.164 614.3 674.186 614.078 674.122 613.87C674.058 613.664 673.914 613.496 673.628 613.162L673.368 612.858C672.362 611.682 671.858 611.094 672.034 610.528C672.21 609.964 672.948 609.798 674.424 609.464L674.804 609.376C675.224 609.282 675.434 609.236 675.604 609.106C675.772 608.978 675.88 608.786 676.096 608.398L676.292 608.046Z" stroke="black" stroke-width="1.5"/>
<path d="M690 640H666M688 600.912C689.482 601.194 690.362 601.506 691.12 602.442C692.074 603.614 692.024 604.88 691.922 607.412C691.562 616.518 689.522 628 678.002 628C666.482 628 664.44 616.52 664.076 607.412C663.976 604.88 663.926 603.612 664.876 602.442C665.828 601.27 666.966 601.078 669.244 600.694C672.138 600.22 675.067 599.987 678 600C679.436 600 680.772 600.05 682 600.136" stroke="black" stroke-width="1.5" stroke-linecap="round"/>
<path d="M660.108 683.98L661.214 683.658C661.55 684.54 661.9 685.688 661.998 686.388L660.836 686.78C660.724 686.066 660.416 684.876 660.108 683.98ZM658.792 687.536L659.884 687.27C660.052 688.208 660.206 689.398 660.262 690.21L659.114 690.49C659.086 689.678 658.946 688.46 658.792 687.536ZM657.406 687.354L658.582 687.55C658.456 688.796 658.19 690.112 657.868 690.952C657.616 690.812 657.042 690.644 656.734 690.56C657.098 689.734 657.294 688.502 657.406 687.354ZM657.126 683.672C657.042 683.378 656.804 682.664 656.622 682.272C656.902 682.202 657.14 681.936 657.406 681.516C657.686 681.11 658.54 679.556 659.016 678.072L660.472 678.674C659.842 680.172 658.89 681.782 658.008 682.888V682.916C658.008 682.916 657.126 683.392 657.126 683.672ZM657.126 683.672L657.084 682.608L657.728 682.174L660.136 682.02C660.066 682.384 659.996 682.93 659.996 683.238C657.826 683.448 657.392 683.546 657.126 683.672ZM657.224 686.934C657.154 686.64 656.916 685.94 656.748 685.562C657.084 685.478 657.392 685.142 657.812 684.624C658.26 684.12 659.688 682.062 660.514 680.144L661.844 680.858C660.822 682.79 659.408 684.778 658.05 686.178V686.22C658.05 686.22 657.224 686.668 657.224 686.934ZM657.224 686.934L657.14 685.786L657.756 685.352L661.228 684.736C661.172 685.114 661.186 685.66 661.2 685.954C658.05 686.598 657.546 686.738 657.224 686.934ZM660.15 687.256L661.2 686.948C661.41 687.662 661.648 688.586 661.732 689.202L660.626 689.538C660.556 688.922 660.332 687.97 660.15 687.256ZM667.64 687.466L668.76 687.018C669.166 687.984 669.67 689.202 669.922 690L668.746 690.532C668.522 689.706 668.018 688.432 667.64 687.466ZM663.454 687.186H664.854V689.44C664.854 689.79 664.91 689.832 665.33 689.832C665.512 689.832 666.324 689.832 666.562 689.832C666.912 689.832 666.996 689.664 667.052 688.544C667.318 688.754 667.864 688.936 668.242 689.02C668.102 690.588 667.738 691.008 666.716 691.008C666.436 691.008 665.386 691.008 665.12 691.008C663.776 691.008 663.454 690.63 663.454 689.44V687.186ZM662.25 687.13L663.398 687.536C663.188 688.558 662.866 689.902 662.432 690.77L661.256 690.21C661.704 689.398 662.068 688.138 662.25 687.13ZM664.798 677.988L666.506 678.254C666.198 678.898 665.862 679.5 665.61 679.934L664.322 679.64C664.504 679.15 664.714 678.464 664.798 677.988ZM665.694 680.816L666.702 680.984C666.184 681.922 665.386 682.79 664.182 683.49C664.056 683.266 663.748 682.902 663.538 682.762C664.588 682.216 665.316 681.474 665.694 680.816ZM663.916 681.446L664.742 680.9C665.876 681.866 667.136 683.28 667.696 684.204L666.814 684.848C666.24 683.868 665.008 682.426 663.916 681.446ZM666.828 681.67L667.836 681.852C667.164 683 666.114 684.078 664.56 684.932C664.434 684.694 664.154 684.358 663.944 684.204C665.344 683.504 666.324 682.524 666.828 681.67ZM663.692 680.732V684.96H667.724V680.732H663.692ZM662.236 679.402H669.25V686.318H662.236V679.402ZM665.008 686.766L666.1 686.262C666.52 686.934 667.108 687.858 667.388 688.404L666.254 688.992C666.002 688.418 665.442 687.466 665.008 686.766ZM673.786 678.114H675.41V682.23H673.786V678.114ZM673.786 685.814H675.41V691.26H673.786V685.814ZM673.45 684.764V685.408H675.76V684.764H673.45ZM673.45 682.958V683.574H675.76V682.958H673.45ZM671.98 681.684H677.3V686.682H671.98V681.684ZM671.588 679.444H677.65V680.914H671.588V679.444ZM680.156 683.392H681.822V691.246H680.156V683.392ZM678.392 683.028H683.348V684.568H678.392V683.028ZM677.79 686.276H684.16V687.816H677.79V686.276ZM671.448 687.452H677.734V688.95H671.448V687.452ZM680.52 677.89L681.92 678.31C681.066 680.536 679.638 682.51 677.86 683.616C677.622 683.224 677.132 682.65 676.796 682.356C678.42 681.474 679.82 679.71 680.52 677.89ZM681.472 678.968C682.158 680.27 683.502 681.684 684.734 682.426C684.412 682.692 683.936 683.21 683.698 683.574C682.438 682.664 681.122 680.984 680.324 679.388L681.472 678.968ZM691.79 678.114H693.498V689.664C693.498 690.49 693.288 690.826 692.756 691.064C692.21 691.274 691.454 691.302 690.264 691.302C690.18 690.91 689.914 690.322 689.704 689.986C690.376 690.014 691.202 690 691.44 690C691.706 689.986 691.79 689.902 691.79 689.664V678.114ZM686.54 679.024H698.86V680.354H686.54V679.024ZM689.578 681.978V682.65H695.766V681.978H689.578ZM687.982 680.914H697.488V683.714H687.982V680.914ZM687.632 684.33H697.726V689.804H696.018V685.478H687.632V684.33ZM686.218 686.066H699.182V687.34H686.218V686.066ZM687.52 687.998H696.928V689.216H687.52V687.998Z" fill="#202529"/>
<path d="M677.5 535V557" stroke="#A9B6C0"/>
<path d="M302 797C302 772.147 322.147 752 347 752C371.853 752 392 772.147 392 797C392 821.853 371.853 842 347 842C322.147 842 302 821.853 302 797Z" fill="#F8F9FA"/>
<path d="M351.816 798.562C352.554 798.436 353.31 798.478 354.029 798.683C354.749 798.889 355.413 799.253 355.973 799.749L356.004 799.777L356.032 799.752C356.566 799.283 357.194 798.933 357.875 798.726C358.555 798.519 359.271 798.46 359.976 798.552L360.181 798.582C361.07 798.735 361.9 799.126 362.585 799.713C363.269 800.3 363.783 801.061 364.07 801.916C364.357 802.771 364.408 803.687 364.217 804.568C364.026 805.45 363.6 806.263 362.984 806.922L362.834 807.076L362.794 807.11L356.586 813.259C356.443 813.401 356.253 813.486 356.052 813.499C355.851 813.511 355.652 813.45 355.492 813.328L355.414 813.259L349.169 807.074C348.508 806.431 348.038 805.616 347.81 804.722C347.583 803.827 347.608 802.888 347.882 802.006C348.156 801.125 348.668 800.337 349.363 799.729C350.057 799.121 350.906 798.717 351.816 798.562Z" fill="black"/>
<path d="M351.816 798.562C352.554 798.436 353.31 798.478 354.029 798.683C354.749 798.889 355.413 799.253 355.973 799.749L356.004 799.777L356.032 799.752C356.566 799.283 357.194 798.933 357.875 798.726C358.555 798.519 359.271 798.46 359.976 798.552L360.181 798.582C361.07 798.735 361.9 799.126 362.585 799.713C363.269 800.3 363.783 801.061 364.07 801.916C364.357 802.771 364.408 803.687 364.217 804.568C364.026 805.45 363.6 806.263 362.984 806.922L362.834 807.076L362.794 807.11L356.586 813.259C356.443 813.401 356.253 813.486 356.052 813.499C355.851 813.511 355.652 813.45 355.492 813.328L355.414 813.259L349.169 807.074C348.508 806.431 348.038 805.616 347.81 804.722C347.583 803.827 347.608 802.888 347.882 802.006C348.156 801.125 348.668 800.337 349.363 799.729C350.057 799.121 350.906 798.717 351.816 798.562Z" fill="url(#paint14_linear_1806_4089)"/>
<path d="M344 793C348.418 793 352 789.418 352 785C352 780.582 348.418 777 344 777C339.582 777 336 780.582 336 785C336 789.418 339.582 793 344 793Z" fill="url(#paint15_linear_1806_4089)"/>
<path d="M343.75 793C345.872 793 347.907 792.157 349.407 790.657C350.907 789.157 351.75 787.122 351.75 785C351.75 782.878 350.907 780.843 349.407 779.343C347.907 777.843 345.872 777 343.75 777C341.628 777 339.593 777.843 338.093 779.343C336.593 780.843 335.75 782.878 335.75 785C335.75 787.122 336.593 789.157 338.093 790.657C339.593 792.157 341.628 793 343.75 793Z" stroke="black" stroke-width="1.5" stroke-linecap="round" stroke-linejoin="round"/>
<path d="M363.75 803.56C363.75 804.763 363.274 805.918 362.426 806.772C360.474 808.74 358.58 810.792 356.554 812.688C356.328 812.894 356.031 813.006 355.724 813C355.418 812.994 355.126 812.87 354.908 812.654L349.072 806.774C348.223 805.919 347.747 804.764 347.747 803.56C347.747 802.355 348.223 801.2 349.072 800.346C349.496 799.919 349.999 799.58 350.554 799.349C351.109 799.118 351.704 798.999 352.305 798.999C352.906 798.999 353.502 799.118 354.056 799.349C354.611 799.58 355.115 799.919 355.538 800.346L355.75 800.56L355.962 800.346C356.598 799.705 357.41 799.267 358.295 799.088C359.181 798.909 360.099 798.998 360.934 799.342C361.768 799.687 362.482 800.272 362.983 801.023C363.485 801.774 363.752 802.657 363.75 803.56Z" stroke="black" stroke-width="1.5" stroke-linejoin="round"/>
<path d="M329.75 809V807C329.75 804.638 330.347 802.314 331.486 800.245C332.625 798.176 334.269 796.428 336.265 795.166C338.262 793.903 340.545 793.166 342.903 793.023C345.26 792.88 347.616 793.336 349.75 794.348" stroke="black" stroke-width="1.5" stroke-linecap="round" stroke-linejoin="round"/>
<path d="M331.684 856.878H338.796V858.32H331.684V856.878ZM332.804 861.498H337.76V862.856H332.804V861.498ZM332.804 863.78H337.76V865.18H332.804V863.78ZM334.414 855.128H335.884V868.162H334.414V855.128ZM331.88 859.174H337.424V860.602H333.364V868.246H331.88V859.174ZM336.948 859.174H338.488V866.622C338.488 867.28 338.404 867.7 338.026 867.966C337.634 868.204 337.144 868.246 336.472 868.246C336.43 867.812 336.276 867.154 336.094 866.748C336.388 866.762 336.696 866.762 336.808 866.762C336.92 866.762 336.948 866.72 336.948 866.58V859.174ZM336.164 855.814L337.074 855.058C337.62 855.408 338.292 855.954 338.614 856.332L337.662 857.172C337.354 856.794 336.71 856.206 336.164 855.814ZM325.888 856.458H331.432V857.9H325.888V856.458ZM325.678 864.578H331.614V866.034H325.678V864.578ZM327.946 855.128H329.444V859.202H327.946V855.128ZM328.142 859.23H329.248V863.122H329.444V868.26H327.946V863.122H328.142V859.23ZM327.344 861.736V862.576H330.088V861.736H327.344ZM327.344 859.818V860.63H330.088V859.818H327.344ZM326.154 858.656H331.306V863.738H326.154V858.656ZM340.644 864.284H353.342V865.558H340.644V864.284ZM344.382 856.262H353.258V857.396H344.382V856.262ZM348.764 863.766H350.388V866.65C350.388 867.406 350.248 867.784 349.674 868.008C349.114 868.232 348.372 868.246 347.322 868.246C347.252 867.812 347.014 867.21 346.804 866.804C347.49 866.832 348.274 866.818 348.498 866.818C348.694 866.818 348.764 866.776 348.764 866.608V863.766ZM343.08 866.16L344.228 865.236C344.886 865.684 345.712 866.37 346.118 866.846L344.886 867.868C344.536 867.392 343.738 866.65 343.08 866.16ZM345.936 855.352L347.266 855.016C347.546 855.408 347.854 855.968 347.98 856.346L346.566 856.738C346.468 856.36 346.188 855.786 345.936 855.352ZM346.706 859.72V860.154H350.738V859.72H346.706ZM346.706 860.868V861.33H350.738V860.868H346.706ZM346.706 858.586V859.006H350.738V858.586H346.706ZM345.32 857.844H352.194V862.058H345.32V857.844ZM348.05 856.724L349.716 856.836C349.492 857.368 349.268 857.816 349.086 858.166L347.756 857.998C347.868 857.592 348.008 857.074 348.05 856.724ZM350.234 855.072L351.816 855.324C351.48 855.884 351.144 856.36 350.878 856.71L349.548 856.444C349.786 856.038 350.08 855.464 350.234 855.072ZM341.652 855.45L343.052 855.17C343.332 855.59 343.612 856.178 343.766 856.556L342.338 856.92C342.198 856.528 341.904 855.898 341.652 855.45ZM340.994 856.948H343.864V858.25H340.994V856.948ZM343.962 860.896C344.634 862.338 346.02 862.478 348.316 862.478C349.856 862.478 352.138 862.408 353.706 862.24C353.496 862.562 353.3 863.234 353.23 863.654C351.802 863.724 349.954 863.78 348.316 863.78C345.432 863.78 343.948 863.458 343.066 861.316L343.962 860.896ZM343.5 859.258H344.06L344.298 859.216L344.844 859.636C344.228 861.694 342.954 863.192 341.498 864.004C341.344 863.682 340.924 863.08 340.658 862.856C341.96 862.212 343.052 860.994 343.5 859.482V859.258ZM341.344 860.784V859.58L341.946 859.258H343.976L343.962 860.56H342.198C341.876 860.56 341.456 860.658 341.344 860.784ZM341.344 860.77C341.26 860.448 340.994 859.804 340.854 859.538C341.05 859.482 341.288 859.398 341.54 859.16C341.904 858.838 342.996 857.606 343.402 857.046V856.99L343.808 856.836L344.718 857.298C344.13 858.026 343.08 859.244 342.352 859.944C342.352 859.944 341.344 860.434 341.344 860.77ZM356.828 855.604H359.684V857.116H356.828V855.604ZM355.862 855.604H357.36V860.686C357.36 862.912 357.234 866.174 356.422 868.26C356.128 868.022 355.442 867.644 355.064 867.518C355.82 865.572 355.862 862.758 355.862 860.7V855.604ZM358.774 855.604H360.286V866.398C360.286 867.112 360.174 867.574 359.754 867.84C359.348 868.106 358.802 868.148 357.962 868.148C357.92 867.728 357.752 867 357.556 866.58C357.99 866.594 358.424 866.594 358.578 866.594C358.718 866.58 358.774 866.524 358.774 866.356V855.604ZM362.218 855.618H366.152V857.172H362.218V855.618ZM360.762 861.19H366.502V862.758H360.762V861.19ZM366.18 861.19H366.502L366.796 861.134L367.874 861.526C366.894 865.278 364.43 867.224 361.098 868.176C360.93 867.756 360.538 867.084 360.23 866.734C363.17 866.062 365.438 864.284 366.18 861.442V861.19ZM362.526 862.534C363.492 864.62 365.508 866.16 368.28 866.776C367.902 867.126 367.426 867.798 367.188 868.232C364.262 867.42 362.274 865.6 361.07 862.982L362.526 862.534ZM361.98 855.618H363.506V857.172C363.506 858.516 363.114 860.056 361.252 860.994C361.056 860.686 360.468 860.07 360.174 859.846C361.784 859.09 361.98 858.068 361.98 857.13V855.618ZM365.158 855.618H366.726V858.698C366.726 859.104 366.754 859.258 366.922 859.258C367.062 859.258 367.342 859.258 367.468 859.258C367.664 859.258 367.986 859.216 368.168 859.16C368.196 859.566 368.238 860.126 368.28 860.49C368.084 860.574 367.776 860.588 367.496 860.588C367.3 860.588 366.95 860.588 366.768 860.588C365.424 860.588 365.158 860.028 365.158 858.684V855.618ZM357.08 862.702C357.738 862.492 358.648 862.142 359.628 861.764L359.866 862.884C359.11 863.36 358.382 863.822 357.696 864.256L357.08 862.702ZM356.772 859.3L357.752 858.572C358.284 859.076 358.928 859.734 359.236 860.168L358.228 861.008C357.92 860.56 357.29 859.818 356.772 859.3Z" fill="#202529"/>
<path d="M440 797C440 772.147 460.147 752 485 752C509.853 752 530 772.147 530 797C530 821.853 509.853 842 485 842C460.147 842 440 821.853 440 797Z" fill="#F8F9FA"/>
<mask id="mask0_1806_4089" style="mask-type:luminance" maskUnits="userSpaceOnUse" x="461" y="773" width="48" height="48">
<path d="M509 773H461V821H509V773Z" fill="white"/>
</mask>
<g mask="url(#mask0_1806_4089)">
<path d="M466 800H478V803C478 805.209 476.209 807 474 807H470C467.791 807 466 805.209 466 803V800Z" fill="#D9D9D9"/>
<path d="M466 800H478V803C478 805.209 476.209 807 474 807H470C467.791 807 466 805.209 466 803V800Z" fill="url(#paint16_linear_1806_4089)"/>
<path d="M492 799H504V802C504 804.209 502.209 806 500 806H496C493.791 806 492 804.209 492 802V799Z" fill="#D9D9D9"/>
<path d="M492 799H504V802C504 804.209 502.209 806 500 806H496C493.791 806 492 804.209 492 802V799Z" fill="url(#paint17_linear_1806_4089)"/>
<path d="M485 783V817M485 817H479M485 817H491M503 799L498 789L493 799M477 799L472 789L467 799" stroke="black" stroke-width="1.5" stroke-linecap="round" stroke-linejoin="round"/>
<path d="M469 789H471.096C473.624 789 476.076 787.942 478.048 786C482.112 782 487.888 782 491.952 786C493.924 787.942 496.376 789 498.904 789H501M498 807C500.71 807 503.068 805.332 504.294 802.87C504.956 801.54 505.286 800.876 504.684 799.938C504.08 799 503.08 799 501.08 799H494.916C492.918 799 491.918 799 491.316 799.938C490.712 800.876 491.042 801.54 491.704 802.87C492.932 805.332 495.29 807 498 807ZM472 807C474.71 807 477.068 805.332 478.294 802.87C478.956 801.54 479.286 800.876 478.684 799.938C478.08 799 477.08 799 475.08 799H468.918C466.92 799 465.92 799 465.318 799.938C464.714 800.876 465.044 801.54 465.706 802.87C466.932 805.332 469.29 807 472 807Z" stroke="black" stroke-width="1.5" stroke-linecap="round" stroke-linejoin="round"/>
<path d="M488 780C488 780.796 487.684 781.559 487.121 782.121C486.559 782.684 485.796 783 485 783C484.204 783 483.441 782.684 482.879 782.121C482.316 781.559 482 780.796 482 780C482 779.204 482.316 778.441 482.879 777.879C483.441 777.316 484.204 777 485 777C485.796 777 486.559 777.316 487.121 777.879C487.684 778.441 488 779.204 488 780Z" stroke="black" stroke-width="1.5" stroke-linecap="round" stroke-linejoin="round"/>
<path d="M485 782C486.105 782 487 781.105 487 780C487 778.895 486.105 778 485 778C483.895 778 483 778.895 483 780C483 781.105 483.895 782 485 782Z" fill="#D9D9D9"/>
<path d="M485 782C486.105 782 487 781.105 487 780C487 778.895 486.105 778 485 778C483.895 778 483 778.895 483 780C483 781.105 483.895 782 485 782Z" fill="url(#paint18_linear_1806_4089)"/>
</g>
<path d="M466.814 860.196V861.96H473.688V860.196H466.814ZM465.414 859.16H475.186V862.982H465.414V859.16ZM467.822 857.578H472.764V858.67H467.822V857.578ZM469.544 859.51H470.902V862.464H469.544V859.51ZM467.304 860.504L468.466 860.182C468.718 860.658 468.942 861.274 469.026 861.694L467.794 862.058C467.738 861.638 467.542 860.98 467.304 860.504ZM471.938 860.126L473.324 860.462C473.03 861.064 472.736 861.652 472.512 862.044L471.364 861.736C471.574 861.274 471.826 860.588 471.938 860.126ZM466.184 863.444H474.472V868.204H472.75V864.536H467.836V868.26H466.184V863.444ZM467.136 865.096H473.464V866.202H467.136V865.096ZM467.136 866.776H473.464V867.868H467.136V866.776ZM470.006 854.988L471.49 855.534C469.936 857.508 467.262 858.894 464.532 859.72C464.364 859.384 463.93 858.712 463.65 858.418C466.24 857.788 468.732 856.612 470.006 854.988ZM471.112 855.632C472.358 856.836 474.78 857.844 477.118 858.32C476.768 858.614 476.292 859.216 476.054 859.594C473.702 858.992 471.308 857.704 469.866 856.136L471.112 855.632ZM478.742 855.744H483.334V857.158H478.742V855.744ZM484.342 862.954H490.04V864.354H484.342V862.954ZM478.546 860.028H483.754V861.498H478.546V860.028ZM480.828 860.63H482.424V866.454C482.424 867.21 482.298 867.658 481.808 867.924C481.332 868.176 480.702 868.204 479.82 868.204C479.778 867.756 479.554 867.056 479.344 866.608C479.862 866.636 480.436 866.636 480.604 866.636C480.772 866.622 480.828 866.58 480.828 866.426V860.63ZM489.494 862.954H491.188C491.188 862.954 491.174 863.374 491.146 863.598C490.908 866.02 490.67 867.112 490.264 867.546C489.956 867.882 489.648 867.994 489.242 868.05C488.892 868.092 488.304 868.106 487.66 868.078C487.632 867.616 487.464 866.958 487.212 866.538C487.716 866.58 488.178 866.594 488.402 866.594C488.612 866.594 488.738 866.58 488.864 866.44C489.116 866.202 489.326 865.32 489.494 863.178V862.954ZM486.526 861.708H488.192C487.968 864.578 487.38 866.958 484.062 868.274C483.88 867.868 483.446 867.28 483.096 866.972C485.994 865.908 486.33 863.99 486.526 861.708ZM479.064 858.67L480.114 857.592C481.248 857.998 482.788 858.726 483.586 859.286L482.452 860.49C481.738 859.93 480.226 859.132 479.064 858.67ZM483.348 860.028H483.572L483.796 859.958L484.804 860.294C484.58 861.568 484.216 863.01 483.838 863.962L482.718 863.43C482.97 862.618 483.222 861.316 483.348 860.266V860.028ZM488.962 857.214L490.712 857.48C489.76 860.084 487.674 861.428 484.93 862.212C484.734 861.834 484.216 861.148 483.88 860.812C486.456 860.294 488.318 859.216 488.962 857.214ZM486.162 855.1L487.73 855.534C487.03 857.046 485.896 858.502 484.846 859.412C484.524 859.146 483.866 858.684 483.474 858.474C484.566 857.676 485.602 856.402 486.162 855.1ZM486.358 857.578C487.324 859.174 489.284 860.336 491.734 860.798C491.37 861.134 490.894 861.792 490.67 862.226C488.08 861.568 486.134 860.112 484.958 858.026L486.358 857.578ZM480.674 860.532L481.752 860.952C481.22 862.814 480.282 864.928 479.092 866.006C478.938 865.53 478.574 864.83 478.308 864.382C479.33 863.514 480.24 861.932 480.674 860.532ZM486.12 856.528H491.356V857.914H485.448L486.12 856.528ZM482.928 855.744H483.292L483.544 855.688L484.622 856.36C483.992 857.382 482.886 858.502 481.878 859.202C481.584 858.95 481.108 858.6 480.786 858.404C481.654 857.788 482.55 856.752 482.928 856.038V855.744ZM494.828 855.604H497.684V857.116H494.828V855.604ZM493.862 855.604H495.36V860.686C495.36 862.912 495.234 866.174 494.422 868.26C494.128 868.022 493.442 867.644 493.064 867.518C493.82 865.572 493.862 862.758 493.862 860.7V855.604ZM496.774 855.604H498.286V866.398C498.286 867.112 498.174 867.574 497.754 867.84C497.348 868.106 496.802 868.148 495.962 868.148C495.92 867.728 495.752 867 495.556 866.58C495.99 866.594 496.424 866.594 496.578 866.594C496.718 866.58 496.774 866.524 496.774 866.356V855.604ZM500.218 855.618H504.152V857.172H500.218V855.618ZM498.762 861.19H504.502V862.758H498.762V861.19ZM504.18 861.19H504.502L504.796 861.134L505.874 861.526C504.894 865.278 502.43 867.224 499.098 868.176C498.93 867.756 498.538 867.084 498.23 866.734C501.17 866.062 503.438 864.284 504.18 861.442V861.19ZM500.526 862.534C501.492 864.62 503.508 866.16 506.28 866.776C505.902 867.126 505.426 867.798 505.188 868.232C502.262 867.42 500.274 865.6 499.07 862.982L500.526 862.534ZM499.98 855.618H501.506V857.172C501.506 858.516 501.114 860.056 499.252 860.994C499.056 860.686 498.468 860.07 498.174 859.846C499.784 859.09 499.98 858.068 499.98 857.13V855.618ZM503.158 855.618H504.726V858.698C504.726 859.104 504.754 859.258 504.922 859.258C505.062 859.258 505.342 859.258 505.468 859.258C505.664 859.258 505.986 859.216 506.168 859.16C506.196 859.566 506.238 860.126 506.28 860.49C506.084 860.574 505.776 860.588 505.496 860.588C505.3 860.588 504.95 860.588 504.768 860.588C503.424 860.588 503.158 860.028 503.158 858.684V855.618ZM495.08 862.702C495.738 862.492 496.648 862.142 497.628 861.764L497.866 862.884C497.11 863.36 496.382 863.822 495.696 864.256L495.08 862.702ZM494.772 859.3L495.752 858.572C496.284 859.076 496.928 859.734 497.236 860.168L496.228 861.008C495.92 860.56 495.29 859.818 494.772 859.3Z" fill="#202529"/>
<path d="M584 797C584 772.147 604.147 752 629 752C653.853 752 674 772.147 674 797C674 821.853 653.853 842 629 842C604.147 842 584 821.853 584 797Z" fill="#F8F9FA"/>
<path d="M633 781C633 780.448 632.552 780 632 780C631.448 780 631 780.448 631 781V812C631 812.552 631.448 813 632 813C632.552 813 633 812.552 633 812V781Z" fill="#D9D9D9"/>
<path d="M633 781C633 780.448 632.552 780 632 780C631.448 780 631 780.448 631 781V812C631 812.552 631.448 813 632 813C632.552 813 633 812.552 633 812V781Z" fill="url(#paint19_linear_1806_4089)"/>
<path d="M610 794C610 791.791 611.791 790 614 790H618.8V805H614C611.791 805 610 803.209 610 801V794Z" fill="#D9D9D9"/>
<path d="M610 794C610 791.791 611.791 790 614 790H618.8V805H614C611.791 805 610 803.209 610 801V794Z" fill="url(#paint20_linear_1806_4089)"/>
<path d="M643.228 784.272C644.899 785.943 646.225 787.928 647.13 790.111C648.035 792.295 648.5 794.636 648.5 797C648.5 799.364 648.035 801.704 647.13 803.888C646.225 806.072 644.899 808.056 643.228 809.728M637.926 789.576C639.895 791.545 641.001 794.215 641.001 797C641.001 799.784 639.895 802.455 637.926 804.424M618.5 789.5L627.94 780.06C628.15 779.85 628.417 779.708 628.708 779.65C628.999 779.592 629.3 779.622 629.574 779.735C629.848 779.849 630.082 780.041 630.247 780.287C630.412 780.534 630.5 780.823 630.5 781.12V812.88C630.5 813.176 630.412 813.466 630.247 813.712C630.082 813.959 629.848 814.151 629.574 814.264C629.3 814.378 628.999 814.407 628.708 814.35C628.417 814.292 628.15 814.149 627.94 813.94L618.5 804.5H614.02C612.26 804.5 610.612 803.486 610.144 801.792C609.715 800.231 609.498 798.619 609.5 797C609.5 795.34 609.724 793.734 610.144 792.208C610.612 790.512 612.26 789.5 614.02 789.5H618.5Z" stroke="black" stroke-width="1.5" stroke-linecap="round" stroke-linejoin="round"/>
<path d="M607.608 862.226C608.756 861.974 610.464 861.512 612.102 861.064L612.326 862.576C610.842 863.024 609.232 863.486 607.972 863.836L607.608 862.226ZM607.762 857.704H612.34V859.244H607.762V857.704ZM609.33 855.128H610.954V866.342C610.954 867.154 610.814 867.602 610.366 867.868C609.918 868.148 609.302 868.204 608.378 868.204C608.35 867.756 608.14 867.042 607.93 866.566C608.42 866.594 608.924 866.594 609.092 866.58C609.26 866.58 609.33 866.538 609.33 866.342V855.128ZM613.81 860.322H620.348V861.792H613.81V860.322ZM613.838 863.066H620.32V864.536H613.838V863.066ZM613.922 865.866H620.824V867.406H613.922V865.866ZM614.328 855.198L615.91 855.618C615.112 857.956 613.824 860.336 612.466 861.82C612.214 861.512 611.626 860.868 611.276 860.574C612.55 859.314 613.684 857.27 614.328 855.198ZM614.958 857.536H620.516V859.062H614.958V868.274H613.348V858.852L614.636 857.536H614.958ZM616.694 858.334H618.262V866.692H616.694V858.334ZM616.274 855.8L617.73 855.226C618.108 855.828 618.5 856.626 618.668 857.172L617.156 857.83C617.016 857.284 616.638 856.43 616.274 855.8ZM624.576 856.122H635.398V857.536H624.576V856.122ZM625.612 858.208H634.922V859.132H625.612V858.208ZM623.582 856.122H625.192V860.378C625.192 862.674 624.996 866.034 623.722 868.176C623.428 867.924 622.714 867.504 622.308 867.35C623.498 865.362 623.582 862.464 623.582 860.378V856.122ZM629.476 862.142H631.03V865.6H629.476V862.142ZM627.432 864.368V864.984H632.99V864.368H627.432ZM627.432 862.87V863.458H632.99V862.87H627.432ZM625.92 861.904H634.586V865.95H625.92V861.904ZM630.918 866.804L631.576 865.726C632.92 866.188 634.446 866.776 635.37 867.168L634.586 868.33C633.704 867.91 632.248 867.294 630.918 866.804ZM628.524 865.726L629.742 866.804C628.524 867.322 626.9 867.938 625.752 868.33C625.542 868.008 625.164 867.504 624.87 867.196C625.99 866.832 627.614 866.202 628.524 865.726ZM628.552 855.366L630.288 855.016C630.498 855.52 630.722 856.206 630.834 856.64L629.014 857.074C628.944 856.612 628.734 855.898 628.552 855.366ZM627.25 857.676H628.846V859.622H631.506V857.676H633.2V860.322H627.25V857.676ZM625.458 860.63H635.37V861.568H625.458V860.63ZM638.828 855.604H641.684V857.116H638.828V855.604ZM637.862 855.604H639.36V860.686C639.36 862.912 639.234 866.174 638.422 868.26C638.128 868.022 637.442 867.644 637.064 867.518C637.82 865.572 637.862 862.758 637.862 860.7V855.604ZM640.774 855.604H642.286V866.398C642.286 867.112 642.174 867.574 641.754 867.84C641.348 868.106 640.802 868.148 639.962 868.148C639.92 867.728 639.752 867 639.556 866.58C639.99 866.594 640.424 866.594 640.578 866.594C640.718 866.58 640.774 866.524 640.774 866.356V855.604ZM644.218 855.618H648.152V857.172H644.218V855.618ZM642.762 861.19H648.502V862.758H642.762V861.19ZM648.18 861.19H648.502L648.796 861.134L649.874 861.526C648.894 865.278 646.43 867.224 643.098 868.176C642.93 867.756 642.538 867.084 642.23 866.734C645.17 866.062 647.438 864.284 648.18 861.442V861.19ZM644.526 862.534C645.492 864.62 647.508 866.16 650.28 866.776C649.902 867.126 649.426 867.798 649.188 868.232C646.262 867.42 644.274 865.6 643.07 862.982L644.526 862.534ZM643.98 855.618H645.506V857.172C645.506 858.516 645.114 860.056 643.252 860.994C643.056 860.686 642.468 860.07 642.174 859.846C643.784 859.09 643.98 858.068 643.98 857.13V855.618ZM647.158 855.618H648.726V858.698C648.726 859.104 648.754 859.258 648.922 859.258C649.062 859.258 649.342 859.258 649.468 859.258C649.664 859.258 649.986 859.216 650.168 859.16C650.196 859.566 650.238 860.126 650.28 860.49C650.084 860.574 649.776 860.588 649.496 860.588C649.3 860.588 648.95 860.588 648.768 860.588C647.424 860.588 647.158 860.028 647.158 858.684V855.618ZM639.08 862.702C639.738 862.492 640.648 862.142 641.628 861.764L641.866 862.884C641.11 863.36 640.382 863.822 639.696 864.256L639.08 862.702ZM638.772 859.3L639.752 858.572C640.284 859.076 640.928 859.734 641.236 860.168L640.228 861.008C639.92 860.56 639.29 859.818 638.772 859.3Z" fill="#202529"/>
<path d="M728 797C728 772.147 748.147 752 773 752C797.853 752 818 772.147 818 797C818 821.853 797.853 842 773 842C748.147 842 728 821.853 728 797Z" fill="#F8F9FA"/>
<path d="M773 811C774.105 811 775 810.105 775 809C775 807.895 774.105 807 773 807C771.895 807 771 807.895 771 809C771 810.105 771.895 811 773 811Z" fill="#D9D9D9"/>
<path d="M773 811C774.105 811 775 810.105 775 809C775 807.895 774.105 807 773 807C771.895 807 771 807.895 771 809C771 810.105 771.895 811 773 811Z" fill="url(#paint21_linear_1806_4089)"/>
<path d="M773 795C774.105 795 775 794.105 775 793C775 791.895 774.105 791 773 791C771.895 791 771 791.895 771 793C771 794.105 771.895 795 773 795Z" fill="#D9D9D9"/>
<path d="M773 795C774.105 795 775 794.105 775 793C775 791.895 774.105 791 773 791C771.895 791 771 791.895 771 793C771 794.105 771.895 795 773 795Z" fill="url(#paint22_linear_1806_4089)"/>
<path d="M765 781C765 778.791 766.791 777 769 777H777C779.209 777 781 778.791 781 781V785H765V781Z" fill="#D9D9D9"/>
<path d="M765 781C765 778.791 766.791 777 769 777H777C779.209 777 781 778.791 781 781V785H765V781Z" fill="url(#paint23_linear_1806_4089)"/>
<path d="M781 785C781 781.228 781 779.344 779.828 778.172C778.656 777 776.772 777 773 777C769.228 777 767.344 777 766.172 778.172C765 779.344 765 781.228 765 785M753 801C753 793.458 753 789.686 755.344 787.344C757.686 785 761.458 785 769 785H777C784.542 785 788.314 785 790.656 787.344C793 789.686 793 793.458 793 801C793 808.542 793 812.314 790.656 814.656C788.314 817 784.542 817 777 817H769C761.458 817 757.686 817 755.344 814.656C753 812.314 753 808.542 753 801Z" stroke="black" stroke-width="1.5"/>
<path d="M773 807.666C775.21 807.666 777 806.174 777 804.334C777 802.494 775.21 801 773 801C770.79 801 769 799.508 769 797.666C769 795.826 770.79 794.334 773 794.334M773 807.666C770.79 807.666 769 806.174 769 804.334M773 807.666V809M773 794.334V793M773 794.334C775.21 794.334 777 795.826 777 797.666" stroke="black" stroke-width="1.5" stroke-linecap="round"/>
<path d="M756.662 859.398H763.718V860.714H756.662V859.398ZM756.662 861.442H763.718V862.758H756.662V861.442ZM757.488 866.468H762.892V867.798H757.488V866.468ZM755.682 857.298H764.74V858.656H755.682V857.298ZM756.452 863.542H763.9V868.19H762.416V864.872H757.866V868.232H756.452V863.542ZM758.846 855.618L760.26 855.072C760.652 855.66 761.072 856.43 761.282 856.948L759.812 857.592C759.63 857.06 759.196 856.234 758.846 855.618ZM754.576 855.17L756.074 855.632C755.248 857.984 753.904 860.476 752.476 862.072C752.336 861.694 751.902 860.826 751.622 860.434C752.798 859.146 753.918 857.158 754.576 855.17ZM753.512 859.048L755.038 857.522V857.536V868.302H753.512V859.048ZM768.94 856.052H777.536V857.648H768.94V856.052ZM768.94 859.272H777.564V860.84H768.94V859.272ZM768.912 862.576H777.62V864.158H768.912V862.576ZM767.974 856.052H769.64V861.092C769.64 863.318 769.36 866.468 767.638 868.344C767.372 868.022 766.686 867.462 766.322 867.252C767.848 865.558 767.974 863.052 767.974 861.078V856.052ZM776.948 856.052H778.614V866.286C778.614 867.182 778.418 867.63 777.858 867.896C777.27 868.162 776.43 868.19 775.156 868.176C775.086 867.728 774.834 867 774.61 866.566C775.408 866.622 776.332 866.608 776.584 866.608C776.85 866.594 776.948 866.51 776.948 866.272V856.052ZM772.286 856.682H773.994V868.092H772.286V856.682ZM789.226 855.772H792.894V857.284H790.696V868.19H789.226V855.772ZM792.544 855.772H792.852L793.09 855.716L794.252 856.43C793.79 857.788 793.202 859.412 792.67 860.616C793.79 861.876 794 862.996 794 863.92C794 864.928 793.79 865.614 793.272 865.978C793.006 866.16 792.698 866.258 792.334 866.314C792.026 866.356 791.634 866.356 791.242 866.342C791.228 865.922 791.088 865.236 790.85 864.788C791.158 864.816 791.424 864.816 791.634 864.816C791.816 864.816 791.998 864.774 792.152 864.676C792.39 864.536 792.474 864.186 792.474 863.724C792.474 862.954 792.18 861.932 791.102 860.812C791.634 859.44 792.25 857.326 792.544 856.332V855.772ZM781.638 856.654H788.414V858.152H781.638V856.654ZM781.288 860.42H788.722V861.946H781.288V860.42ZM782.366 858.446L783.794 858.096C784.172 858.754 784.494 859.608 784.62 860.182L783.122 860.588C783.01 860.014 782.688 859.118 782.366 858.446ZM786.272 858.054L787.924 858.404C787.532 859.342 787.112 860.35 786.748 861.022L785.334 860.672C785.684 859.958 786.076 858.852 786.272 858.054ZM782.8 866.146H787.322V867.616H782.8V866.146ZM781.918 862.954H788.19V868.162H786.524V864.452H783.5V868.232H781.918V862.954ZM783.836 855.422L785.362 855.002C785.656 855.604 785.978 856.402 786.118 856.906L784.48 857.396C784.382 856.878 784.102 856.052 783.836 855.422Z" fill="#202529"/>
</g>
<defs>
<linearGradient id="paint0_linear_1806_4089" x1="528" y1="69" x2="528" y2="85" gradientUnits="userSpaceOnUse">
<stop stop-color="#FFCA7B"/>
<stop offset="1" stop-color="#FFEAA2"/>
</linearGradient>
<linearGradient id="paint1_linear_1806_4089" x1="528" y1="108" x2="528" y2="116" gradientUnits="userSpaceOnUse">
<stop stop-color="#98BFFF"/>
<stop offset="1" stop-color="#C2E9FB"/>
</linearGradient>
<linearGradient id="paint2_linear_1806_4089" x1="455" y1="248" x2="455" y2="262" gradientUnits="userSpaceOnUse">
<stop stop-color="#FFCA7B"/>
<stop offset="1" stop-color="#FFEAA2"/>
</linearGradient>
<linearGradient id="paint3_linear_1806_4089" x1="467" y1="271" x2="467" y2="283" gradientUnits="userSpaceOnUse">
<stop stop-color="#98BFFF"/>
<stop offset="1" stop-color="#C2E9FB"/>
</linearGradient>
<linearGradient id="paint4_linear_1806_4089" x1="576.748" y1="266" x2="617.248" y2="266" gradientUnits="userSpaceOnUse">
<stop stop-color="#F6C170"/>
<stop offset="1" stop-color="#FFEAA2"/>
</linearGradient>
<linearGradient id="paint5_linear_1806_4089" x1="576.748" y1="266" x2="617.248" y2="266" gradientUnits="userSpaceOnUse">
<stop stop-color="#F6C170"/>
<stop offset="1" stop-color="#FFEAA2"/>
</linearGradient>
<linearGradient id="paint6_linear_1806_4089" x1="576.748" y1="266" x2="617.248" y2="266" gradientUnits="userSpaceOnUse">
<stop stop-color="#98BFFF"/>
<stop offset="1" stop-color="#C2E9FB"/>
</linearGradient>
<linearGradient id="paint7_linear_1806_4089" x1="522" y1="427" x2="522" y2="443" gradientUnits="userSpaceOnUse">
<stop stop-color="#98BFFF"/>
<stop offset="1" stop-color="#C2E9FB"/>
</linearGradient>
<linearGradient id="paint8_linear_1806_4089" x1="542" y1="425" x2="542" y2="437" gradientUnits="userSpaceOnUse">
<stop stop-color="#98BFFF"/>
<stop offset="1" stop-color="#C2E9FB"/>
</linearGradient>
<linearGradient id="paint9_linear_1806_4089" x1="542" y1="425" x2="542" y2="437" gradientUnits="userSpaceOnUse">
<stop stop-color="#FFCA7B"/>
<stop offset="1" stop-color="#FFEAA2"/>
</linearGradient>
<linearGradient id="paint10_linear_1806_4089" x1="674.173" y1="439.615" x2="683.418" y2="448.807" gradientUnits="userSpaceOnUse">
<stop stop-color="#98BFFF"/>
<stop offset="1" stop-color="#C2E9FB"/>
</linearGradient>
<linearGradient id="paint11_linear_1806_4089" x1="678.5" y1="458" x2="678.5" y2="463" gradientUnits="userSpaceOnUse">
<stop stop-color="#FFCA7B"/>
<stop offset="1" stop-color="#FFEAA2"/>
</linearGradient>
<linearGradient id="paint12_linear_1806_4089" x1="678" y1="635" x2="678" y2="640" gradientUnits="userSpaceOnUse">
<stop stop-color="#98BFFF"/>
<stop offset="1" stop-color="#C2E9FB"/>
</linearGradient>
<linearGradient id="paint13_linear_1806_4089" x1="678" y1="606.167" x2="678" y2="617.833" gradientUnits="userSpaceOnUse">
<stop stop-color="#FFCA7B"/>
<stop offset="1" stop-color="#FFEAA2"/>
</linearGradient>
<linearGradient id="paint14_linear_1806_4089" x1="355.993" y1="798.491" x2="355.993" y2="813.5" gradientUnits="userSpaceOnUse">
<stop stop-color="#FFCA7B"/>
<stop offset="1" stop-color="#FFEAA2"/>
</linearGradient>
<linearGradient id="paint15_linear_1806_4089" x1="344" y1="777" x2="344" y2="793" gradientUnits="userSpaceOnUse">
<stop stop-color="#98BFFF"/>
<stop offset="1" stop-color="#C2E9FB"/>
</linearGradient>
<linearGradient id="paint16_linear_1806_4089" x1="472" y1="800" x2="472" y2="807" gradientUnits="userSpaceOnUse">
<stop stop-color="#98BFFF"/>
<stop offset="1" stop-color="#C2E9FB"/>
</linearGradient>
<linearGradient id="paint17_linear_1806_4089" x1="498" y1="799" x2="498" y2="806" gradientUnits="userSpaceOnUse">
<stop stop-color="#98BFFF"/>
<stop offset="1" stop-color="#C2E9FB"/>
</linearGradient>
<linearGradient id="paint18_linear_1806_4089" x1="485" y1="778" x2="485" y2="782" gradientUnits="userSpaceOnUse">
<stop stop-color="#FFCA7B"/>
<stop offset="1" stop-color="#FFEAA2"/>
</linearGradient>
<linearGradient id="paint19_linear_1806_4089" x1="632" y1="780" x2="632" y2="813" gradientUnits="userSpaceOnUse">
<stop stop-color="#FFCA7B"/>
<stop offset="1" stop-color="#FFEAA2"/>
</linearGradient>
<linearGradient id="paint20_linear_1806_4089" x1="614.4" y1="790" x2="614.4" y2="805" gradientUnits="userSpaceOnUse">
<stop stop-color="#98BFFF"/>
<stop offset="1" stop-color="#C2E9FB"/>
</linearGradient>
<linearGradient id="paint21_linear_1806_4089" x1="773" y1="807" x2="773" y2="811" gradientUnits="userSpaceOnUse">
<stop stop-color="#FFCA7B"/>
<stop offset="1" stop-color="#FFEAA2"/>
</linearGradient>
<linearGradient id="paint22_linear_1806_4089" x1="773" y1="791" x2="773" y2="795" gradientUnits="userSpaceOnUse">
<stop stop-color="#FFCA7B"/>
<stop offset="1" stop-color="#FFEAA2"/>
</linearGradient>
<linearGradient id="paint23_linear_1806_4089" x1="773" y1="777" x2="773" y2="785" gradientUnits="userSpaceOnUse">
<stop stop-color="#98BFFF"/>
<stop offset="1" stop-color="#C2E9FB"/>
</linearGradient>
<clipPath id="clip0_1806_4089">
<rect width="700" height="923" fill="white" transform="translate(210)"/>
</clipPath>
</defs>
</svg>
