<svg width="61" height="60" viewBox="0 0 61 60" fill="none" xmlns="http://www.w3.org/2000/svg">
<path d="M0.5 30C0.5 13.4315 13.9315 0 30.5 0C47.0685 0 60.5 13.4315 60.5 30C60.5 46.5685 47.0685 60 30.5 60C13.9315 60 0.5 46.5685 0.5 30Z" fill="#F8F9FA"/>
<path d="M43.3543 37.875C43.3543 38.9461 43.0231 40.0067 42.3795 40.9963C41.736 41.9858 40.7927 42.885 39.6036 43.6423C38.4145 44.3997 37.0028 45.0005 35.4492 45.4104C33.8956 45.8203 32.2304 46.0312 30.5487 46.0312C28.8671 46.0312 27.2019 45.8203 25.6482 45.4104C24.0946 45.0005 22.6829 44.3997 21.4938 43.6423C20.3047 42.885 19.3615 41.9858 18.7179 40.9963C18.0744 40.0067 17.7432 38.9461 17.7432 37.875L43.3543 37.875Z" fill="url(#paint0_linear_1878_2055)"/>
<path fill-rule="evenodd" clip-rule="evenodd" d="M30.5488 16.5469C22.5796 16.5469 16.1193 23.0737 16.1193 31.125C16.1193 39.1765 22.5794 45.7031 30.5488 45.7031C38.5182 45.7031 44.9782 39.1765 44.9782 31.125C44.9782 23.0735 38.5182 16.5469 30.5488 16.5469ZM15.2842 31.125C15.2842 22.6077 22.1184 15.7031 30.5488 15.7031C38.9794 15.7031 45.8134 22.6075 45.8134 31.125C45.8134 39.6425 38.9794 46.5469 30.5488 46.5469C22.1181 46.5469 15.2842 39.6425 15.2842 31.125ZM30.5488 26.2031C30.7794 26.2031 30.9663 26.392 30.9663 26.625V32.2031H36.4876C36.7182 32.2031 36.9052 32.392 36.9052 32.625C36.9052 32.858 36.7182 33.0469 36.4876 33.0469H30.5488C30.3182 33.0469 30.1312 32.858 30.1312 32.625V26.625C30.1312 26.392 30.3182 26.2031 30.5488 26.2031Z" fill="#202529"/>
<path d="M44.4678 18.4688C44.4678 19.0901 43.9692 19.5938 43.3543 19.5938C42.7393 19.5938 42.2407 19.0901 42.2407 18.4688C42.2407 17.8474 42.7393 17.3438 43.3543 17.3438C43.9692 17.3438 44.4678 17.8474 44.4678 18.4688Z" fill="#D9D9D9"/>
<path d="M44.4678 18.4688C44.4678 19.0901 43.9692 19.5938 43.3543 19.5938C42.7393 19.5938 42.2407 19.0901 42.2407 18.4688C42.2407 17.8474 42.7393 17.3438 43.3543 17.3438C43.9692 17.3438 44.4678 17.8474 44.4678 18.4688Z" fill="url(#paint1_linear_1878_2055)"/>
<path d="M44.4678 18.4688C44.4678 19.0901 43.9692 19.5938 43.3543 19.5938C42.7393 19.5938 42.2407 19.0901 42.2407 18.4688C42.2407 17.8474 42.7393 17.3438 43.3543 17.3438C43.9692 17.3438 44.4678 17.8474 44.4678 18.4688Z" fill="url(#paint2_linear_1878_2055)"/>
<path d="M38.3434 14.8125C38.3434 15.5892 37.7202 16.2188 36.9515 16.2188C36.1827 16.2188 35.5596 15.5892 35.5596 14.8125C35.5596 14.0358 36.1827 13.4062 36.9515 13.4062C37.7202 13.4062 38.3434 14.0358 38.3434 14.8125Z" fill="#D9D9D9"/>
<path d="M38.3434 14.8125C38.3434 15.5892 37.7202 16.2188 36.9515 16.2188C36.1827 16.2188 35.5596 15.5892 35.5596 14.8125C35.5596 14.0358 36.1827 13.4062 36.9515 13.4062C37.7202 13.4062 38.3434 14.0358 38.3434 14.8125Z" fill="url(#paint3_linear_1878_2055)"/>
<path d="M38.3434 14.8125C38.3434 15.5892 37.7202 16.2188 36.9515 16.2188C36.1827 16.2188 35.5596 15.5892 35.5596 14.8125C35.5596 14.0358 36.1827 13.4062 36.9515 13.4062C37.7202 13.4062 38.3434 14.0358 38.3434 14.8125Z" fill="url(#paint4_linear_1878_2055)"/>
<path d="M41.1272 19.3125C41.1272 20.7105 40.0055 21.8438 38.6218 21.8438C37.2381 21.8438 36.1163 20.7105 36.1163 19.3125C36.1163 17.9145 37.2381 16.7812 38.6218 16.7812C40.0055 16.7812 41.1272 17.9145 41.1272 19.3125Z" fill="#D9D9D9"/>
<path d="M41.1272 19.3125C41.1272 20.7105 40.0055 21.8438 38.6218 21.8438C37.2381 21.8438 36.1163 20.7105 36.1163 19.3125C36.1163 17.9145 37.2381 16.7812 38.6218 16.7812C40.0055 16.7812 41.1272 17.9145 41.1272 19.3125Z" fill="url(#paint5_linear_1878_2055)"/>
<path d="M41.1272 19.3125C41.1272 20.7105 40.0055 21.8438 38.6218 21.8438C37.2381 21.8438 36.1163 20.7105 36.1163 19.3125C36.1163 17.9145 37.2381 16.7812 38.6218 16.7812C40.0055 16.7812 41.1272 17.9145 41.1272 19.3125Z" fill="url(#paint6_linear_1878_2055)"/>
<path d="M41.1272 19.3125C41.1272 20.7105 40.0055 21.8438 38.6218 21.8438C37.2381 21.8438 36.1163 20.7105 36.1163 19.3125C36.1163 17.9145 37.2381 16.7812 38.6218 16.7812C40.0055 16.7812 41.1272 17.9145 41.1272 19.3125Z" fill="url(#paint7_linear_1878_2055)"/>
<defs>
<linearGradient id="paint0_linear_1878_2055" x1="30.5487" y1="29.7188" x2="30.5487" y2="46.0312" gradientUnits="userSpaceOnUse">
<stop stop-color="#98BFFF"/>
<stop offset="1" stop-color="#C2E9FB"/>
</linearGradient>
<linearGradient id="paint1_linear_1878_2055" x1="40.0137" y1="13.4062" x2="40.0137" y2="21.8438" gradientUnits="userSpaceOnUse">
<stop stop-color="#FFCA7B"/>
<stop offset="1" stop-color="#FFEAA2"/>
</linearGradient>
<linearGradient id="paint2_linear_1878_2055" x1="40.0137" y1="13.4062" x2="40.0137" y2="21.8438" gradientUnits="userSpaceOnUse">
<stop stop-color="#98BFFF"/>
<stop offset="1" stop-color="#C2E9FB"/>
</linearGradient>
<linearGradient id="paint3_linear_1878_2055" x1="40.0137" y1="13.4062" x2="40.0137" y2="21.8438" gradientUnits="userSpaceOnUse">
<stop stop-color="#FFCA7B"/>
<stop offset="1" stop-color="#FFEAA2"/>
</linearGradient>
<linearGradient id="paint4_linear_1878_2055" x1="40.0137" y1="13.4062" x2="40.0137" y2="21.8438" gradientUnits="userSpaceOnUse">
<stop stop-color="#98BFFF"/>
<stop offset="1" stop-color="#C2E9FB"/>
</linearGradient>
<linearGradient id="paint5_linear_1878_2055" x1="38.6218" y1="16.7813" x2="38.6218" y2="21.8438" gradientUnits="userSpaceOnUse">
<stop stop-color="#FFCA7B"/>
<stop offset="1" stop-color="#FFEAA2"/>
</linearGradient>
<linearGradient id="paint6_linear_1878_2055" x1="38.6218" y1="16.7813" x2="38.6218" y2="21.8438" gradientUnits="userSpaceOnUse">
<stop stop-color="#98BFFF"/>
<stop offset="1" stop-color="#C2E9FB"/>
</linearGradient>
<linearGradient id="paint7_linear_1878_2055" x1="38.6218" y1="16.7813" x2="38.6218" y2="21.8438" gradientUnits="userSpaceOnUse">
<stop stop-color="#FFCA7B"/>
<stop offset="1" stop-color="#FFEAA2"/>
</linearGradient>
</defs>
</svg>
