<svg width="64" height="64" viewBox="0 0 64 64" fill="none" xmlns="http://www.w3.org/2000/svg">
<path d="M23.2762 42.0133C23.8758 42.439 24.5925 42.6686 25.3278 42.6705C26.0632 42.6724 26.7811 42.4465 27.3829 42.024C27.9215 41.64 28.3455 41.1146 28.6042 40.5053L30.2522 35.48C30.6552 34.2687 31.3351 33.1681 32.2377 32.2655C33.1403 31.3628 34.241 30.683 35.4522 30.28L40.2935 28.7026C40.9883 28.4576 41.5899 28.0031 42.0154 27.4018C42.441 26.8005 42.6695 26.082 42.6695 25.3453C42.6695 24.6086 42.441 23.8901 42.0154 23.2888C41.5899 22.6875 40.9883 22.233 40.2935 21.988L35.3602 20.3973C34.1529 19.9931 33.0557 19.3147 32.1546 18.4153C31.2536 17.5158 30.5732 16.4199 30.1669 15.2133L28.5949 10.3746C28.3504 9.67961 27.8956 9.07798 27.2935 8.65329C26.6893 8.23497 25.9718 8.01086 25.2369 8.01086C24.5019 8.01086 23.7845 8.23497 23.1802 8.65329C22.5675 9.08715 22.1071 9.70295 21.8642 10.4133L20.2735 15.3026C19.8694 16.4785 19.204 17.5474 18.3274 18.4291C17.4508 19.3109 16.3857 19.9824 15.2122 20.3933L10.3762 21.964C9.67777 22.21 9.07344 22.6677 8.64737 23.2733C8.2213 23.879 7.99468 24.6024 7.99909 25.3429C8.00349 26.0834 8.23868 26.804 8.67193 27.4046C9.10517 28.0051 9.71489 28.4556 10.4162 28.6933L15.1989 30.2466C16.4105 30.6534 17.5111 31.3361 18.414 32.2408C19.3168 33.1455 19.9972 34.2475 20.4015 35.46L21.9749 40.2906C22.2189 40.9853 22.6735 41.588 23.2749 42.0133M43.8322 54.1893C44.2703 54.4998 44.7939 54.667 45.3309 54.668L45.3375 54.672C45.881 54.6708 46.4104 54.4994 46.8514 54.1818C47.2924 53.8642 47.6228 53.4164 47.7962 52.9013L48.5549 50.568C48.7104 50.1023 48.9718 49.6791 49.3186 49.3315C49.6655 48.984 50.0882 48.7217 50.5535 48.5653L52.9402 47.7893C53.3182 47.6556 53.6601 47.4361 53.939 47.148C54.2179 46.8599 54.4263 46.5111 54.5477 46.129C54.6691 45.7468 54.7003 45.3418 54.6389 44.9455C54.5774 44.5493 54.425 44.1727 54.1935 43.8453C53.8642 43.3841 53.3939 43.0425 52.8535 42.872L50.5109 42.1133C50.0455 41.9573 49.6227 41.6955 49.2757 41.3484C48.9287 41.0014 48.6669 40.5786 48.5109 40.1133L47.7349 37.728C47.5559 37.2178 47.2218 36.7763 46.7794 36.4654C46.3371 36.1545 45.8086 35.9898 45.2679 35.9942C44.7272 35.9986 44.2015 36.1719 43.7642 36.49C43.327 36.8081 43.0002 37.2549 42.8295 37.768L42.0669 40.1106C41.9154 40.5691 41.6613 40.9869 41.324 41.3324C40.9867 41.6778 40.5749 41.9417 40.1202 42.104L37.7335 42.88C37.2236 43.0588 36.7824 43.3925 36.4715 43.8346C36.1607 44.2766 35.9959 44.8048 36.0002 45.3451C36.0044 45.8855 36.1776 46.411 36.4953 46.848C36.8131 47.2851 37.2595 47.6119 37.7722 47.7826L40.1082 48.5426C40.5749 48.6985 40.9987 48.9612 41.3459 49.3098C41.6931 49.6584 41.9542 50.0833 42.1082 50.5506L42.8842 52.9346C43.0629 53.4413 43.3949 53.88 43.8322 54.1893Z" fill="url(#paint0_linear_1774_3143)"/>
<defs>
<linearGradient id="paint0_linear_1774_3143" x1="31.3343" y1="8.01086" x2="31.3343" y2="54.672" gradientUnits="userSpaceOnUse">
<stop stop-color="#FFCA7B"/>
<stop offset="1" stop-color="#FFEAA2"/>
</linearGradient>
</defs>
</svg>
