<svg width="48" height="48" viewBox="0 0 48 48" fill="none" xmlns="http://www.w3.org/2000/svg">
<path d="M22.4579 36.5018C22.9076 36.8211 23.4451 36.9933 23.9966 36.9947C24.5481 36.9961 25.0865 36.8267 25.5379 36.5098C25.9419 36.2218 26.2599 35.8278 26.4539 35.3708L27.6899 31.6018C27.9922 30.6934 28.502 29.8679 29.179 29.1909C29.856 28.514 30.6815 28.0041 31.5899 27.7018L35.2209 26.5188C35.7419 26.3351 36.1931 25.9942 36.5123 25.5432C36.8315 25.0922 37.0029 24.5533 37.0029 24.0008C37.0029 23.4483 36.8315 22.9094 36.5123 22.4584C36.1931 22.0074 35.7419 21.6666 35.2209 21.4828L31.5209 20.2898C30.6154 19.9867 29.7925 19.4779 29.1167 18.8033C28.4409 18.1287 27.9306 17.3067 27.6259 16.4018L26.4469 12.7728C26.2635 12.2516 25.9224 11.8003 25.4709 11.4818C25.0177 11.1681 24.4796 11 23.9284 11C23.3772 11 22.8391 11.1681 22.3859 11.4818C21.9264 11.8072 21.5811 12.2691 21.3989 12.8018L20.2059 16.4688C19.9028 17.3507 19.4038 18.1524 18.7463 18.8137C18.0888 19.475 17.29 19.9786 16.4099 20.2868L12.7829 21.4648C12.2591 21.6493 11.8058 21.9926 11.4863 22.4468C11.1667 22.9011 10.9967 23.4436 11 23.999C11.0033 24.5544 11.1797 25.0949 11.5047 25.5453C11.8296 25.9957 12.2869 26.3335 12.8129 26.5118L16.3999 27.6768C17.3086 27.9819 18.1341 28.4939 18.8112 29.1724C19.4884 29.8509 19.9986 30.6775 20.3019 31.5868L21.4819 35.2098C21.6649 35.7308 22.0059 36.1828 22.4569 36.5018" fill="url(#paint0_linear_1652_7114)"/>
<defs>
<linearGradient id="paint0_linear_1652_7114" x1="28.5014" y1="11" x2="28.5014" y2="45.9958" gradientUnits="userSpaceOnUse">
<stop stop-color="#FFCA7B"/>
<stop offset="1" stop-color="#FFEAA2"/>
</linearGradient>
</defs>
</svg>
