<svg width="56" height="12" viewBox="0 0 56 12" fill="none" xmlns="http://www.w3.org/2000/svg">
<path fill-rule="evenodd" clip-rule="evenodd" d="M38.5148 7.03464C38.6317 6.92208 38.9191 6.80667 39.3157 6.82282C39.7116 6.83894 39.9944 6.9774 40.1062 7.10169C40.9224 8.009 42.1266 8.89829 43.6484 8.89829C44.0626 8.89829 44.3984 8.56251 44.3984 8.14829C44.3984 7.73408 44.0626 7.39829 43.6484 7.39829C42.7379 7.39829 41.9073 6.86097 41.2214 6.09849C40.7452 5.56916 40.01 5.34985 39.3767 5.32406C38.744 5.2983 37.9908 5.45685 37.4744 5.95412C36.8426 6.56242 36.1376 7.09225 35.6569 7.41279C34.8435 7.32579 34.101 6.81894 33.4779 6.12627C33.0017 5.59693 32.2665 5.37762 31.6332 5.35183C31.0005 5.32607 30.2473 5.48463 29.7309 5.98189C29.117 6.573 28.4339 7.09001 27.9547 7.41288C27.141 7.32614 26.3982 6.81918 25.7748 6.12627C25.2986 5.59693 24.5635 5.37762 23.9301 5.35183C23.2974 5.32607 22.5442 5.48463 22.0278 5.98189C21.4138 6.57313 20.7305 7.09024 20.2513 7.41309C19.4369 7.32696 18.6933 6.81974 18.0695 6.12627C17.5933 5.59693 16.8581 5.37762 16.2248 5.35183C15.5921 5.32607 14.8389 5.48463 14.3225 5.98189C13.6176 6.66066 12.8214 7.24172 12.3474 7.54332C11.998 7.7657 11.895 8.22927 12.1173 8.57872C12.3397 8.92818 12.8033 9.03119 13.1528 8.80881C13.6961 8.46308 14.5742 7.82184 15.3629 7.06241C15.4798 6.94985 15.7672 6.83445 16.1638 6.85059C16.5597 6.86671 16.8425 7.00517 16.9543 7.12947C17.757 8.0217 18.9348 8.89651 20.4209 8.92533C20.4379 8.92613 20.455 8.92636 20.4721 8.92599L20.4965 8.92607C20.7139 8.92607 20.9097 8.83355 21.0467 8.68573C21.5914 8.32218 22.3653 7.73923 23.0682 7.06241C23.1851 6.94985 23.4726 6.83445 23.8691 6.85059C24.2651 6.86671 24.5479 7.00517 24.6597 7.12947C25.4616 8.02091 26.6381 8.89497 28.1223 8.92526C28.1401 8.92613 28.1579 8.92637 28.1757 8.92598L28.2018 8.92607C28.4212 8.92607 28.6186 8.83189 28.7557 8.68176C29.3 8.31794 30.0709 7.73678 30.7713 7.06241C30.8882 6.94985 31.1756 6.83445 31.5722 6.85059C31.9681 6.86671 32.2509 7.00517 32.3627 7.12947C33.1789 8.03677 34.3831 8.92607 35.9049 8.92607C36.1253 8.92607 36.3235 8.831 36.4607 8.67962C37.0068 8.31781 37.7978 7.72507 38.5148 7.03464Z" fill="#202529"/>
</svg>
