<svg width="250" height="194" viewBox="0 0 250 194" fill="none" xmlns="http://www.w3.org/2000/svg">
<path d="M93.845 184.575C93.7976 184.622 93.7896 184.658 93.8051 184.687C93.7749 184.748 93.7799 184.808 93.8354 184.864C97.2203 188.249 100.605 191.634 103.99 195.019C101.3 195.019 98.6104 195.019 95.9205 195.019C92.4016 191.5 88.8827 187.981 85.3637 184.462C88.7953 181.031 92.2265 177.599 95.658 174.168C98.4676 174.168 101.278 174.168 104.088 174.168C104.134 174.168 104.209 174.151 104.295 174.125C100.811 177.608 97.3283 181.092 93.845 184.575ZM84.8438 174.125C84.7569 174.151 84.6825 174.168 84.6363 174.168C81.8267 174.168 79.0167 174.168 76.2067 174.168C72.7751 177.599 69.3439 181.031 65.9124 184.462C69.4313 187.981 72.9502 191.5 76.4692 195.019C79.1591 195.019 81.849 195.019 84.5389 195.019C81.1539 191.634 77.769 188.249 74.384 184.864C74.3286 184.808 74.3235 184.748 74.3538 184.687C74.3382 184.659 74.3462 184.623 74.3937 184.575C77.8773 181.092 81.3606 177.608 84.8438 174.125ZM216.054 175.224C216.05 175.24 216.045 175.256 216.045 175.272C216.045 181.154 216.045 187.036 216.045 192.918C193.386 192.918 170.726 192.918 148.067 192.918C142.47 192.918 136.874 192.918 131.277 192.918C128.478 192.918 125.68 192.918 122.882 192.918C121.482 192.918 120.084 192.918 118.685 192.918C117.662 192.918 116.443 193.106 115.47 192.747C112.9 191.797 110.616 189.234 108.686 187.386C107.354 186.11 106.057 184.793 104.801 183.441C108.522 180.702 112.243 177.963 115.964 175.224C116.266 175.224 116.568 175.224 116.871 175.224C117.447 175.224 118.024 175.224 118.6 175.224C118.798 175.224 118.995 175.224 119.192 175.224C120.588 175.224 121.983 175.224 123.379 175.224C137.884 175.224 152.39 175.224 166.896 175.224C179.75 175.224 192.606 175.224 205.46 175.224C205.511 175.228 205.566 175.228 205.625 175.224C209.101 175.224 212.577 175.224 216.054 175.224ZM141.061 180.228C145.261 180.228 149.461 180.228 153.661 180.228C154.369 180.228 154.583 179.299 153.758 179.299C149.559 179.299 145.359 179.299 141.159 179.299C140.45 179.299 140.237 180.228 141.061 180.228ZM136.511 179.993C136.745 179.993 137.89 179.533 137.31 179.533C131.291 179.533 125.271 179.533 119.252 179.533C119.018 179.533 117.873 179.993 118.453 179.993C124.472 179.993 130.492 179.993 136.511 179.993ZM173.928 184.378C155.869 184.378 137.81 184.378 119.752 184.378C119.072 184.378 118.805 185.227 119.632 185.227C137.691 185.227 155.75 185.227 173.809 185.227C174.489 185.228 174.755 184.378 173.928 184.378ZM121.113 111.488C123.886 115.637 126.313 120.027 128.402 124.558C133.31 135.198 136.964 147.093 135.848 158.931C135.842 158.996 135.818 159.055 135.784 159.109C139.943 159.109 144.102 159.109 148.261 159.109C148.217 146.25 145.676 132.986 140.012 121.407C138.569 118.455 137.256 115.256 135.075 112.749C132.995 110.359 130.461 109.024 127.503 108.022C124.851 107.124 122.157 106.337 119.442 105.648C118.295 105.357 117.143 105.061 115.98 104.837C115.847 104.811 115.713 104.785 115.578 104.759C117.832 106.512 119.563 109.169 121.113 111.488ZM147.288 139.009C147.397 138.993 147.494 138.996 147.563 139.027C155.401 142.669 163.55 147.641 168.773 154.73C169.142 153.752 169.804 152.757 170.156 152.173C171.285 150.297 172.608 148.248 174.329 146.851C175.746 145.7 177.587 144.77 179.517 144.262C179.697 144.115 180.013 143.973 180.206 143.975C180.422 143.976 180.639 143.979 180.856 143.982C181.568 143.872 182.282 143.826 182.982 143.851C180.695 141.055 177.583 138.759 174.796 136.542C170.172 132.864 165.397 129.374 160.53 126.025C155.345 122.456 150.064 119.001 144.597 115.876C143.602 115.308 142.594 114.731 141.572 114.167C141.196 113.962 140.83 113.763 140.477 113.572C138.725 112.634 136.933 111.754 135.092 111.044C137.056 112.909 138.422 115.363 139.612 117.763C143.013 124.627 145.718 131.494 147.288 139.009ZM115.182 104.398L115.161 104.393C115.151 104.405 115.146 104.42 115.134 104.433C115.14 104.437 115.148 104.439 115.154 104.443C115.166 104.431 115.172 104.412 115.182 104.398ZM177.165 145.663C178.609 145.133 179.955 144.806 181.067 144.604C180.68 144.591 180.293 144.583 179.905 144.579C178.951 144.802 178.029 145.177 177.165 145.663ZM78.9944 158.751C88.4845 158.739 97.9746 158.708 107.465 158.67C105.959 156.86 105.959 153.948 106.125 151.742C106.311 149.279 106.657 146.449 107.883 144.236C107.713 144.207 107.544 144.178 107.374 144.149L106.57 144.222C106.497 144.594 105.337 144.826 105.361 144.356C105.371 144.175 105.378 143.992 105.387 143.81C102.721 143.365 100.048 142.955 97.3682 142.614C95.0109 142.313 92.5683 142.312 90.2488 141.791C88.6731 141.438 87.1221 140.969 85.5615 140.562C85.3024 140.606 85.0525 140.568 84.9895 140.415C83.2257 139.976 81.4446 139.643 79.5975 139.672C79.0188 139.68 80.1615 139.211 80.3955 139.208C82.0128 139.182 83.5612 139.435 85.0912 139.788C85.7207 137.049 86.6257 134.398 86.9793 131.588C87.6114 126.56 87.0566 121.679 84.9816 117.036C84.7951 116.619 85.9924 116.249 86.1982 116.71C88.1859 121.158 88.8852 126.011 88.2779 130.846C87.8802 134.009 86.8916 136.97 86.2192 140.064C87.6509 140.433 89.0767 140.854 90.5378 141.182C93.1109 141.76 95.7626 141.822 98.3748 142.165C100.727 142.475 103.073 142.827 105.415 143.207C105.713 136.118 105.325 128.835 103.619 121.946C102.906 119.067 101.906 116.035 100.442 113.325C99.5146 111.862 98.6176 110.577 97.8604 109.546C96.1897 107.63 94.1243 106.115 91.5524 105.293C82.568 109.982 70.627 110.592 67.7359 121.993C66.8409 125.522 64.6739 128.867 63.2372 132.198C60.9706 137.453 58.7599 142.998 58.0371 148.714C57.6671 151.642 57.5075 155.316 59.3957 157.82C60.2877 159.002 60.95 158.716 62.485 158.729C67.9874 158.775 73.4912 158.759 78.9944 158.751Z" fill="url(#paint0_linear_1098_4839)"/>
<path d="M118.262 84.5577C119.008 84.5573 119.75 84.5489 120.49 84.4842C119.362 82.9916 119.216 81.1093 118.663 79.3437C118.559 79.0099 119.77 78.6646 119.88 79.0174C120.463 80.88 120.56 82.9177 121.941 84.4182C122.183 84.682 121.404 84.8953 121.272 84.918C120.109 85.1213 118.938 85.141 117.761 85.1423C116.944 85.1427 117.877 84.5581 118.262 84.5577ZM110.472 76.9386C110.472 77.9885 110.472 79.0384 110.472 80.0883C110.472 80.6368 111.693 80.3912 111.693 79.9523C111.693 78.9024 111.693 77.8524 111.693 76.8025C111.693 76.254 110.472 76.4997 110.472 76.9386ZM121.811 76.9386C121.811 77.9885 121.811 79.0384 121.811 80.0883C121.811 80.6368 123.032 80.3912 123.032 79.9523C123.032 78.9024 123.032 77.8524 123.032 76.8025C123.032 76.254 121.811 76.4997 121.811 76.9386ZM109.071 73.8967C110.103 72.5772 111.949 72.19 113.46 72.8678C113.962 73.0929 114.87 72.371 114.164 72.0539C112.13 71.1421 109.432 71.7834 108.054 73.5448C107.578 74.1533 108.733 74.3285 109.071 73.8967ZM119.433 73.5658C119.71 73.5486 120.038 73.4612 120.246 73.2668C121.031 72.5297 121.861 72.8678 122.443 73.6741C122.671 73.9912 123.777 73.5099 123.66 73.3478C122.522 71.7721 120.43 72.1232 119.137 73.3352C118.928 73.5313 119.32 73.5725 119.433 73.5658ZM217.261 192.863C217.261 192.91 217.244 192.955 217.214 192.995C217.317 193.151 216.693 193.491 216.401 193.491C192.335 193.491 168.269 193.491 144.203 193.491C138.046 193.491 131.891 193.491 125.734 193.491C122.738 193.491 119.741 193.491 116.744 193.491C115.686 193.491 114.932 193.506 113.983 193.032C109.971 191.032 106.556 187.015 103.547 183.763C103.518 183.732 103.509 183.697 103.516 183.663C103.506 183.621 103.541 183.566 103.642 183.491C107.534 180.626 111.427 177.76 115.319 174.895C116.267 174.197 118.215 174.651 119.33 174.651C120.47 174.651 121.61 174.651 122.75 174.651C150.246 174.651 177.741 174.651 205.238 174.651C205.238 171.62 205.238 168.59 205.238 165.56C202.817 165.56 200.397 165.56 197.977 165.56C145.361 165.56 92.7459 165.56 40.1303 165.56C40.1303 174.721 40.1303 183.881 40.1303 193.041C40.1303 193.444 38.9137 193.643 38.9137 193.368C38.9137 184.099 38.9137 174.829 38.9137 165.56C36.1595 165.56 33.4053 165.56 30.6512 165.56C30.4345 165.578 30.2598 165.541 30.2598 165.437C30.2598 163.478 30.2598 161.518 30.2598 159.559C30.2598 159.267 30.899 159.083 31.2505 159.108C36.228 159.108 41.2055 159.108 46.1829 159.108C50.4011 159.108 54.6197 159.108 58.8379 159.108C57.5129 158.306 56.8208 155.028 56.7061 153.954C56.358 150.69 56.9325 147.368 57.7716 144.219C59.5216 137.649 62.3665 131.462 65.2551 125.331C66.2764 123.164 66.7355 120.78 67.8278 118.663C69.4094 115.598 71.8188 113.201 74.8585 111.571C79.9402 108.847 85.8399 107.782 90.8707 105.083C90.4083 104.873 91.3722 104.385 91.7195 104.479C91.7682 104.492 91.8153 104.508 91.8635 104.522C93.278 103.677 94.6118 102.679 95.8226 101.447C95.8764 101.392 95.9788 101.345 96.0994 101.307C96.2308 98.6132 96.3169 95.9128 96.3182 93.2154C96.319 91.5619 96.3728 89.8527 96.1115 88.2144C95.8402 86.511 94.406 85.9213 93.0227 85.1843C90.2908 83.7287 88.8662 80.3605 90.8052 77.5958C91.0396 77.2619 91.2966 76.9722 91.5687 76.7109C89.122 72.8149 90.6418 65.3772 94.9331 63.3168C94.9323 63.303 94.9289 63.2904 94.9293 63.2757C95.0658 60.2737 97.1283 58.6115 100.027 58.2931C101.889 58.089 103.768 58.294 105.629 58.0844C107.916 57.8266 109.669 56.7796 111.709 55.8233C114.176 54.6671 117.326 53.4463 120.062 54.4361C122.922 55.4709 124.434 58.0672 125.55 60.7483C125.578 60.8138 125.578 60.8768 125.56 60.9352C125.732 60.8965 125.907 60.8991 126.039 60.9721C130.611 63.5004 133.532 75.252 127.639 77.7441C127.66 79.5134 127.633 81.2811 127.482 83.0437C127.212 86.1813 126.787 90.9446 124.272 93.241C122.583 94.7835 120.473 95.1875 118.273 95.4895C117.119 95.6474 115.609 95.7247 114.676 96.5151C113.584 97.4419 113.521 98.898 113.582 100.228C114.342 101.352 114.767 102.556 114.878 103.777C115.862 103.643 117.145 104.135 117.964 104.326C120.752 104.976 123.524 105.726 126.253 106.592C128.78 107.394 131.25 108.215 133.424 109.695C137.773 110.901 141.862 113.233 145.745 115.469C151.203 118.611 156.497 122.039 161.678 125.617C166.765 129.131 171.78 132.768 176.59 136.653C179.384 138.909 182.478 141.223 184.661 144.112C184.675 144.131 184.652 144.162 184.605 144.199C187.409 144.513 190.166 145.245 192.449 146.928C194.354 148.332 195.74 150.1 196.954 152.112C197.785 153.487 199.416 155.479 199.392 157.189C199.378 158.189 198.743 158.772 197.855 159.108C202.884 159.108 207.914 159.108 212.944 159.108C213.156 159.093 213.325 159.13 213.325 159.232C213.325 161.192 213.325 163.151 213.325 165.111C213.325 165.406 212.669 165.592 212.321 165.56C210.365 165.56 208.41 165.56 206.455 165.56C206.455 168.59 206.455 171.62 206.455 174.651C209.939 174.651 213.423 174.651 216.906 174.651C217.234 174.651 217.276 174.744 217.186 174.855C217.232 174.875 217.262 174.905 217.262 174.946C217.261 180.919 217.261 186.891 217.261 192.863ZM216.053 175.224C212.577 175.224 209.1 175.224 205.624 175.224C205.565 175.228 205.51 175.228 205.459 175.224C192.605 175.224 179.749 175.224 166.895 175.224C152.389 175.224 137.883 175.224 123.378 175.224C121.982 175.224 120.587 175.224 119.191 175.224C118.994 175.224 118.797 175.224 118.599 175.224C118.023 175.224 117.446 175.224 116.87 175.224C116.567 175.224 116.266 175.224 115.963 175.224C112.242 177.963 108.521 180.702 104.8 183.441C106.056 184.793 107.353 186.109 108.685 187.386C110.615 189.234 112.899 191.797 115.469 192.747C116.442 193.106 117.661 192.918 118.684 192.918C120.083 192.918 121.482 192.918 122.881 192.918C125.679 192.918 128.477 192.918 131.276 192.918C136.872 192.918 142.469 192.918 148.066 192.918C170.725 192.918 193.385 192.918 216.044 192.918C216.044 187.036 216.044 181.154 216.044 175.272C216.044 175.256 216.049 175.24 216.053 175.224ZM181.066 144.604C180.679 144.591 180.292 144.582 179.904 144.579C178.951 144.802 178.028 145.177 177.165 145.663C175.786 146.437 174.559 147.496 173.607 148.697C172.499 150.096 171.464 151.598 170.674 153.202C170.592 153.368 170.49 153.561 170.384 153.769C170.489 153.784 170.582 153.821 170.648 153.887C174.49 157.703 179.907 157.205 184.699 155.73C185.503 155.483 187.685 155.017 187.751 153.899C187.829 152.579 186.806 152.009 185.628 151.911C184.056 151.779 182.512 152 180.944 152.037C180.112 152.056 180.404 151.23 181.071 151.215C183.33 151.162 186.201 150.436 188.21 151.809C189.728 152.846 188.902 154.453 187.763 155.305C189 156.121 190.217 156.983 191.219 158.082C191.732 158.645 192.074 158.885 192.873 158.896C192.939 158.897 193.015 158.9 193.1 158.904C193.06 155.571 189.758 152.405 187.363 150.507C186.813 150.071 187.878 149.469 188.301 149.805C190.961 151.913 194.428 155.284 194.332 158.968C195.815 159.032 197.754 159.006 198.061 158.138C198.406 157.164 197.801 156.053 197.348 155.211C195.568 151.911 193.531 148.398 190.08 146.61C187.262 145.148 184.187 144.706 181.066 144.604ZM115.578 104.759C117.832 106.512 119.563 109.169 121.112 111.488C123.886 115.637 126.312 120.026 128.402 124.557C133.309 135.197 136.963 147.092 135.847 158.93C135.841 158.995 135.818 159.055 135.783 159.108C139.942 159.108 144.102 159.108 148.261 159.108C148.217 146.249 145.675 132.986 140.012 121.406C138.568 118.454 137.255 115.255 135.074 112.749C132.995 110.358 130.461 109.024 127.503 108.022C124.85 107.123 122.156 106.337 119.442 105.648C118.294 105.357 117.143 105.061 115.98 104.836C115.846 104.81 115.712 104.784 115.578 104.759ZM149.491 159.108C163.214 159.108 176.937 159.108 190.66 159.108C190.596 159.062 190.533 159.013 190.476 158.954C189.324 157.766 188.112 156.774 186.753 155.849C181.408 158.125 174.482 158.865 169.932 154.782C169.742 155.317 169.654 155.859 169.857 156.292C169.962 156.515 168.817 156.893 168.64 156.618C163.754 149.063 155.505 143.79 147.477 139.948C148.728 146.264 149.473 152.668 149.491 159.108ZM140.476 113.572C138.724 112.634 136.932 111.754 135.091 111.044C137.055 112.909 138.421 115.363 139.611 117.763C143.013 124.627 145.717 131.494 147.287 139.009C147.396 138.993 147.494 138.995 147.563 139.027C155.4 142.669 163.549 147.641 168.773 154.73C169.142 153.752 169.803 152.757 170.155 152.172C171.285 150.296 172.607 148.248 174.328 146.851C175.746 145.699 177.587 144.77 179.516 144.262C179.696 144.115 180.012 143.973 180.206 143.975C180.421 143.976 180.638 143.979 180.855 143.982C181.568 143.872 182.281 143.826 182.981 143.851C180.694 141.055 177.582 138.759 174.795 136.542C170.171 132.864 165.396 129.374 160.53 126.025C155.344 122.456 150.064 119.001 144.597 115.876C143.602 115.307 142.593 114.731 141.571 114.167C141.195 113.962 140.83 113.763 140.476 113.572ZM115.16 104.393C115.15 104.405 115.145 104.42 115.133 104.433C115.14 104.437 115.147 104.439 115.153 104.443C115.165 104.431 115.171 104.412 115.181 104.398C115.233 104.327 115.27 104.237 115.26 104.11C115.269 104.217 115.226 104.31 115.16 104.393ZM112.908 108.869C115.163 115.412 117.276 121.971 118.605 128.789C119.61 133.943 120.424 139.137 121.245 144.322C121.248 144.341 121.246 144.359 121.245 144.377C123.171 143.881 125.076 143.31 126.955 142.693C127.115 142.64 127.489 142.601 127.605 142.772C128.868 144.637 125.911 146.319 124.031 147.298C125.841 147.326 127.724 147.45 129.388 148.118C130.049 148.383 133.238 150.069 132.37 151.205C132.04 151.635 131.518 151.784 130.97 151.813C131.964 152.497 133.097 153.541 132.324 154.229C132.022 154.499 131.629 154.626 131.205 154.673C131.428 154.8 131.641 154.94 131.828 155.104C132.934 156.079 132.901 156.932 132.121 157.334C132.144 157.347 132.168 157.358 132.191 157.37C133.1 157.885 133.97 158.471 132.659 159.052C132.61 159.074 132.555 159.088 132.505 159.108C133.209 159.108 133.913 159.108 134.617 159.108C134.614 159.08 134.611 159.051 134.614 159.019C135.719 147.307 132.105 135.395 127.186 124.884C125.046 120.312 122.619 115.841 119.761 111.675C118.342 109.606 116.805 107.234 114.812 105.607C114.657 106.582 114.314 107.549 113.785 108.478C113.704 108.618 113.24 108.839 112.908 108.869ZM108.985 159.108C113.242 159.108 117.498 159.108 121.754 159.108C121.85 159.071 121.945 159.048 122.028 159.048C124.872 159.05 127.754 159.116 130.585 158.809C130.781 158.788 132.065 158.486 132.149 158.562C131.376 157.864 130.184 157.447 129.193 157.225C127.055 156.746 124.888 156.664 122.705 156.657C121.882 156.654 122.721 155.963 123.178 155.964C125.72 155.972 128.755 155.917 131.22 156.907C132.061 156.889 130.931 155.751 130.695 155.573C129.942 155.002 128.907 154.674 128.003 154.448C126.229 154.004 124.427 153.77 122.597 153.751C122.272 153.747 122.213 153.642 122.285 153.516C122.261 153.367 122.401 153.19 122.756 153.112C125.216 152.579 127.848 153.591 130.281 153.892C131.074 153.991 131.746 154.193 130.851 153.173C130.217 152.45 129.436 151.91 128.522 151.599C128.1 151.456 127.671 151.345 127.239 151.253C127.105 151.225 126.971 151.198 126.836 151.173C126.248 151.066 125.654 150.997 125.057 150.953C124.612 150.94 124.178 150.965 123.763 151.055C123.406 151.131 123.184 151.025 123.133 150.878C122.922 150.876 122.71 150.874 122.498 150.873C121.675 150.871 122.514 150.179 122.971 150.18C125.054 150.186 127.391 150.192 129.383 150.964C129.94 151.053 130.498 151.116 131.06 151.116C131.647 151.117 130.605 150.026 130.177 149.69C129.437 149.108 128.593 148.698 127.675 148.476C125.938 148.057 124.174 147.986 122.394 147.981C122.109 147.98 122.026 147.896 122.055 147.787C121.966 147.701 121.991 147.581 122.248 147.437C123.344 146.825 127.254 145.166 126.605 143.506C120.598 145.446 114.339 146.866 108.007 146.944C107.655 148.334 107.479 149.797 107.379 151.116C107.195 153.554 107.047 156.985 109.126 158.731C109.265 158.848 109.17 158.993 108.985 159.108ZM59.3944 157.819C60.2864 159.001 60.9487 158.715 62.4837 158.728C67.987 158.774 73.4903 158.759 78.9936 158.751C88.4836 158.739 97.9737 158.708 107.464 158.67C105.959 156.86 105.958 153.948 106.124 151.742C106.311 149.279 106.657 146.449 107.882 144.236C107.712 144.206 107.543 144.178 107.373 144.149C107.11 144.104 106.847 144.06 106.584 144.015C106.581 144.075 106.578 144.136 106.575 144.196C106.575 144.205 106.57 144.213 106.569 144.222C106.496 144.594 105.336 144.826 105.361 144.357C105.37 144.175 105.377 143.993 105.386 143.81C102.72 143.366 100.047 142.956 97.3673 142.614C95.01 142.313 92.5674 142.312 90.2479 141.792C88.6722 141.438 87.1212 140.969 85.5606 140.562C85.3015 140.606 85.0516 140.568 84.9886 140.416C83.2248 139.976 81.4437 139.644 79.5966 139.672C79.0179 139.681 80.1607 139.211 80.3946 139.208C82.0119 139.183 83.5603 139.436 85.0903 139.788C85.7198 137.049 86.6248 134.398 86.9785 131.588C87.6105 126.56 87.0557 121.68 84.9807 117.037C84.7942 116.619 85.9915 116.249 86.1973 116.71C88.185 121.158 88.8843 126.012 88.277 130.847C87.8793 134.01 86.8907 136.971 86.2183 140.065C87.65 140.433 89.0758 140.854 90.5369 141.182C93.11 141.76 95.7617 141.823 98.3739 142.166C100.726 142.475 103.072 142.828 105.414 143.207C105.712 136.119 105.324 128.835 103.618 121.946C102.905 119.067 101.905 116.035 100.441 113.325C99.7057 111.963 98.8523 110.684 97.8595 109.546C96.1888 107.63 94.1234 106.115 91.5515 105.294C82.5671 109.982 70.6261 110.593 67.735 121.994C66.84 125.523 64.673 128.867 63.2363 132.198C60.9697 137.454 58.759 142.999 58.0362 148.715C57.6658 151.641 57.5062 155.315 59.3944 157.819ZM112.679 101.057C110.978 102.838 112.318 105.007 113.279 107.129C113.964 105.096 113.789 102.981 112.679 101.057ZM119.842 55.3903C120.543 55.8048 121.188 56.2819 121.755 56.7527C121.203 56.1765 120.571 55.7007 119.842 55.3903ZM93.53 65.3306C94.1133 64.6469 94.6711 64.1181 95.0835 63.7607C94.4682 64.1265 93.9542 64.6801 93.53 65.3306ZM97.2051 87.2627C97.8288 89.8039 97.5726 92.7097 97.5218 95.2972C97.5037 96.2215 97.479 97.1463 97.45 98.0706C101.421 98.1794 106.175 99.5842 109.623 101.555C110.122 101.84 110.5 102.155 110.786 102.493C110.972 101.784 111.449 101.104 112.36 100.456C112.36 100.451 112.358 100.446 112.358 100.441C112.242 98.1546 112.852 96.2631 115.07 95.3471C117.266 94.44 119.844 94.8696 121.983 93.7844C125.65 91.924 126.102 86.0897 126.299 82.4675C126.526 78.2686 126.24 74.076 126.218 69.8768C125.85 68.3964 124.943 67.3502 123.979 66.2579C122.974 66.3692 122.529 67.236 120.24 67.5665C115.928 68.8021 109.878 68.0386 106.014 67.0823C108.515 70.7873 105.221 77.1473 102.541 80.1215C102.338 80.3466 101.61 80.539 101.445 80.1833C100.815 78.8289 100.386 77.4165 99.3886 76.2691C99.3726 76.2507 99.363 76.2322 99.3541 76.2133C99.2907 76.22 99.2298 76.2187 99.1752 76.2057C98.5499 76.0583 97.8448 75.9239 97.1207 75.85C95.5425 76.0436 93.8538 76.4674 92.9853 76.703C93.0185 76.8512 92.7199 77.02 92.4129 77.1053C92.2482 77.2834 92.0928 77.4753 91.9589 77.6987C91.2747 78.8389 90.9186 80.3349 91.3365 81.6431C91.9517 83.5665 93.4015 84.152 95.0251 85.0553C95.8936 85.5391 96.9494 86.2212 97.2051 87.2627ZM107.788 101.838C104.526 100.462 100.99 99.1328 97.4181 98.9475C97.3891 99.7551 97.3593 100.563 97.3194 101.37C97.3185 101.391 97.3122 101.409 97.3076 101.429C98.8808 101.739 100.822 103.204 101.894 103.799C104.523 105.257 107.106 106.834 109.795 108.184C110.023 107.124 110.316 106.055 110.376 104.988C110.476 103.215 109.291 102.472 107.788 101.838ZM92.5628 104.739C99.5671 107.105 103.034 114.348 104.717 121.145C106.51 128.385 106.946 135.96 106.612 143.401C107.266 143.509 107.92 143.621 108.574 143.734C108.944 143.674 109.311 143.757 109.131 144.063C108.739 144.727 108.441 145.474 108.202 146.253C108.262 146.236 108.321 146.225 108.375 146.224C112.306 146.185 116.21 145.592 120.038 144.676C120.035 144.667 120.03 144.659 120.028 144.649C119.207 139.465 118.422 134.262 117.388 129.115C115.906 121.736 113.588 114.665 111.128 107.575C111.03 108.029 110.932 108.488 110.858 108.948C110.847 109.015 110.817 109.077 110.774 109.132C110.603 109.378 110.19 109.561 109.893 109.419C109.877 109.411 109.86 109.402 109.843 109.393C109.806 109.381 109.774 109.364 109.744 109.343C107.338 108.177 105.033 106.8 102.704 105.49C101.387 104.749 100.071 103.998 98.7238 103.313C98.3294 103.112 96.941 102.173 96.4988 102.29C96.3177 102.337 96.1678 102.323 96.0532 102.272C94.9827 103.217 93.8067 104.024 92.5628 104.739ZM206.063 164.988C206.128 164.983 206.188 164.983 206.242 164.988C208.197 164.988 210.152 164.988 212.107 164.988C212.107 163.219 212.107 161.45 212.107 159.681C207.397 159.681 202.687 159.681 197.977 159.681C196.621 159.681 195.264 159.681 193.908 159.681C193.7 159.754 193.462 159.759 193.296 159.681C178.622 159.681 163.947 159.681 149.273 159.681C148.997 159.858 148.541 159.888 148.353 159.681C141.212 159.681 134.071 159.681 126.93 159.681C125.138 159.732 123.347 159.742 121.555 159.741C121.407 159.741 121.314 159.718 121.262 159.681C91.334 159.681 61.4052 159.681 31.4768 159.681C31.4768 161.45 31.4768 163.219 31.4768 164.988C34.231 164.988 36.9852 164.988 39.7393 164.988C39.8044 164.983 39.8641 164.983 39.9182 164.988C42.0068 164.988 44.0949 164.988 46.1834 164.988C99.4759 164.988 152.769 164.988 206.063 164.988ZM109.097 85.91C109.204 85.7705 109.38 85.695 109.561 85.6731C109.809 85.6114 110.068 85.6483 110.17 85.844V85.8445C110.195 85.8739 110.212 85.9079 110.224 85.9444C111.172 87.7129 112.49 88.6545 114.524 88.4222C114.56 88.4155 114.596 88.4117 114.632 88.4101C114.657 88.4067 114.682 88.4054 114.707 88.4017C115.031 88.3542 115.185 88.4642 115.213 88.6205C115.331 88.7603 115.326 88.9514 115.062 89.1421C113.482 90.2848 111.522 93.7643 109.147 92.3548C107.106 91.1441 107.916 87.4534 109.097 85.91ZM109.9 91.5183C110.994 92.1675 112.365 90.4885 113.412 89.3424C111.828 89.2815 110.554 88.5726 109.613 87.2782C109.047 88.6851 108.744 90.8325 109.9 91.5183ZM137.31 179.533C131.29 179.533 125.271 179.533 119.251 179.533C119.018 179.533 117.873 179.993 118.452 179.993C124.472 179.993 130.492 179.993 136.511 179.993C136.744 179.993 137.889 179.533 137.31 179.533ZM141.061 180.228C145.261 180.228 149.46 180.228 153.66 180.228C154.369 180.228 154.582 179.299 153.758 179.299C149.558 179.299 145.359 179.299 141.159 179.299C140.45 179.299 140.237 180.228 141.061 180.228ZM173.927 184.378C155.869 184.378 137.81 184.378 119.751 184.378C119.071 184.378 118.805 185.227 119.632 185.227C137.691 185.227 155.749 185.227 173.808 185.227C174.488 185.228 174.755 184.378 173.927 184.378ZM157.666 89.2844C153.474 80.5323 154.085 70.167 160.03 62.3484C165.1 55.6801 173.122 51.354 181.615 52.1301C186.799 52.1666 192.208 53.0637 196.607 55.9812C201.061 58.9349 203.682 63.119 205.944 67.8479C210.703 77.7991 206.823 92.2662 198.4 99.1714C185.661 109.616 164.654 103.878 157.666 89.2844ZM188.314 91.8433C188.623 90.2747 188.891 88.6902 189.117 87.0981C184.037 87.6869 178.838 87.7041 173.727 87.1145C174.122 90.0698 174.751 92.9873 175.739 95.7663C176.424 97.6935 177.227 99.6728 178.474 101.316C178.96 101.956 179.839 102.991 180.815 103.558C181.567 103.626 182.322 103.659 183.076 103.663C186.649 101.592 187.601 95.4685 188.314 91.8433ZM181.088 87.0321C183.766 87.1119 186.477 87.0242 189.167 86.7411C189.693 82.9299 189.958 79.0716 189.812 75.2423C189.749 73.5885 189.617 71.9069 189.418 70.2245C188.301 70.0821 187.183 69.9713 186.07 69.8919C181.922 69.595 177.658 69.5933 173.473 70.0809C173.184 72.7901 173.07 75.5195 173.118 78.2317C173.166 80.9283 173.308 83.6791 173.639 86.4051C176.113 86.7411 178.602 86.9582 181.088 87.0321ZM206.388 81.4285C203.508 84.5077 197.24 85.7319 194.061 86.3442C192.826 86.5824 191.578 86.7848 190.322 86.9532C189.799 91.1029 189.047 95.4034 187.38 99.1701C186.672 100.769 185.642 102.638 184.11 103.65C190.236 103.442 196.189 101.076 200.213 96.0649C203.599 91.8475 205.734 86.7138 206.388 81.4285ZM206.595 77.4497C205.839 75.454 202.927 74.0383 201.285 73.3256C197.913 71.8615 194.282 70.9376 190.618 70.3904C191.152 75.0684 191.151 79.736 190.618 84.4531C190.539 85.1616 190.455 85.8793 190.366 86.6012C193.142 86.2464 195.889 85.6786 198.547 84.8559C201.369 83.9823 205.839 82.4435 206.577 79.1241C206.601 78.5655 206.606 78.0074 206.595 77.4497ZM184.121 53.088C185.168 53.7646 186.002 54.8019 186.637 55.9144C188.669 59.4758 189.615 63.6415 190.253 67.656C190.367 68.3674 190.466 69.0788 190.554 69.7898C190.744 69.8167 190.935 69.8432 191.123 69.8713C195.506 70.5315 200.149 71.5079 204.053 73.7124C204.81 74.1395 205.72 74.6951 206.475 75.3754C206.18 72.3218 205.363 69.3148 203.971 66.5023C201.9 62.3169 198.947 58.4645 194.818 56.1353C191.497 54.2623 187.858 53.387 184.121 53.088ZM175.048 61.5093C174.344 64.1307 173.851 66.8139 173.536 69.519C178.834 68.863 184.291 68.9952 189.349 69.6281C188.915 66.2575 188.18 62.8977 187.029 59.7752C186.141 57.3675 184.677 53.807 181.947 52.9751C181.692 52.9683 181.436 52.9637 181.18 52.962C180.644 52.9129 180.112 52.8869 179.585 52.8793C177.128 53.9137 175.505 59.805 175.048 61.5093ZM156.164 76.2637C157.172 75.0323 158.702 74.0928 159.987 73.4385C163.754 71.5201 167.977 70.3224 172.34 69.6802C172.492 68.3897 172.679 67.1037 172.92 65.8274C173.46 62.9632 174.884 55.2937 178.411 52.8948C166.334 53.4059 156.864 64.4864 156.164 76.2637ZM165.162 84.7647C167.537 85.3653 169.951 85.8508 172.383 86.2233C172.271 85.2233 172.181 84.2251 172.11 83.2335C171.802 78.9183 171.805 74.5477 172.272 70.235C170.278 70.5143 168.307 70.9091 166.38 71.4441C163.388 72.2752 156.498 74.2289 156.3 78.3173C156.103 82.3583 162.237 84.0264 165.162 84.7647ZM156.714 82.8119C158.906 92.1062 165.794 99.4885 174.919 102.375C176.178 102.773 177.47 103.08 178.777 103.296C177.601 102.359 176.7 100.961 176.038 99.6628C174.041 95.7415 173.017 91.3515 172.471 86.9624C169.293 86.5324 166.155 85.8667 163.113 84.9516C161.361 84.4245 158.323 83.5359 156.527 81.9278C156.584 82.2226 156.645 82.5175 156.714 82.8119ZM105.607 195.039C105.896 195.328 104.825 195.757 104.503 195.523C101.5 195.523 98.4978 195.523 95.4959 195.523C95.2309 195.609 94.9335 195.628 94.8071 195.502C91.2613 191.956 87.7151 188.409 84.1688 184.863C84.1134 184.808 84.1084 184.747 84.1386 184.687C84.1231 184.658 84.1311 184.622 84.1785 184.574C87.6479 181.106 91.1168 177.636 94.5858 174.167C94.5799 174.167 94.574 174.167 94.5682 174.167C93.9668 174.167 95.0956 173.663 95.3552 173.663C98.5285 173.663 101.701 173.663 104.875 173.663C105.02 173.663 105.062 173.693 105.043 173.738C105.413 173.678 105.785 173.707 105.598 173.894C102.075 177.417 98.5528 180.939 95.0297 184.462C98.5554 187.988 102.081 191.514 105.607 195.039ZM103.989 195.018C100.604 191.633 97.2194 188.248 93.8345 184.863C93.779 184.808 93.774 184.747 93.8042 184.687C93.7887 184.658 93.7967 184.622 93.8441 184.574C97.3274 181.091 100.811 177.608 104.294 174.124C104.207 174.151 104.133 174.167 104.087 174.167C101.277 174.167 98.4672 174.167 95.6571 174.167C92.2256 177.598 88.7944 181.03 85.3628 184.462C88.8818 187.98 92.4007 191.499 95.9196 195.018C98.6095 195.018 101.3 195.018 103.989 195.018ZM86.1557 195.039C86.4447 195.328 85.3737 195.757 85.0512 195.523C82.0488 195.523 79.0465 195.523 76.0445 195.523C75.7795 195.609 75.4822 195.628 75.3558 195.502C71.81 191.956 68.2637 188.409 64.7175 184.863C64.6621 184.808 64.657 184.747 64.6873 184.687C64.6717 184.658 64.6797 184.622 64.7272 184.574C68.1965 181.106 71.6655 177.636 75.1344 174.167C75.1286 174.167 75.1227 174.167 75.1168 174.167C74.5154 174.167 75.6443 173.663 75.9038 173.663C79.0771 173.663 82.25 173.663 85.4233 173.663C85.5686 173.663 85.611 173.693 85.5913 173.738C85.9613 173.678 86.3334 173.707 86.1465 173.894C82.6238 177.417 79.1015 180.939 75.5784 184.462C79.104 187.988 82.6301 191.514 86.1557 195.039ZM84.5384 195.018C81.1535 191.633 77.7685 188.248 74.3835 184.863C74.3281 184.808 74.3231 184.747 74.3533 184.687C74.3378 184.658 74.3457 184.622 74.3932 184.574C77.8764 181.091 81.3601 177.608 84.8433 174.124C84.7564 174.151 84.6821 174.167 84.6359 174.167C81.8263 174.167 79.0162 174.167 76.2062 174.167C72.7746 177.598 69.3435 181.03 65.9119 184.462C69.4308 187.98 72.9498 191.499 76.4687 195.018C79.1586 195.018 81.8485 195.018 84.5384 195.018ZM196.463 158.718C196.649 159.029 197.787 158.571 197.679 158.392C195.862 155.35 194.099 152.314 191.764 149.631C191.559 149.396 190.419 149.822 190.618 150.051C192.93 152.705 194.666 155.709 196.463 158.718ZM96.9607 82.8026C97.3059 81.8232 97.4076 80.5583 96.8759 79.6201C96.2468 78.5105 94.9113 78.8725 94.0978 79.5617C93.4678 80.0955 94.4548 80.4273 94.8894 80.059C95.031 79.9388 95.1708 79.8225 95.3375 79.7394C95.3938 79.7116 95.3359 79.7003 95.4178 79.741C95.6718 79.867 95.7878 80.1933 95.868 80.4428C96.0947 81.1467 96.0502 82.0047 95.8058 82.6976C95.5807 83.336 96.7961 83.2688 96.9607 82.8026Z" fill="#3C4B91"/>
<defs>
<linearGradient id="paint0_linear_1098_4839" x1="136.929" y1="104.393" x2="136.929" y2="195.019" gradientUnits="userSpaceOnUse">
<stop stop-color="#FFBD55"/>
<stop offset="1" stop-color="#FFF2C5"/>
</linearGradient>
</defs>
</svg>
