<svg width="500" height="396" viewBox="0 0 500 396" fill="none" xmlns="http://www.w3.org/2000/svg">
<path d="M187.688 369.15C187.593 369.245 187.577 369.317 187.608 369.374C187.548 369.495 187.558 369.616 187.669 369.728C194.439 376.498 201.209 383.268 207.979 390.037C202.599 390.037 197.219 390.037 191.839 390.037C184.801 383 177.763 375.962 170.725 368.924C177.589 362.062 184.451 355.198 191.314 348.335C196.933 348.335 202.553 348.335 208.173 348.335C208.266 348.335 208.415 348.302 208.588 348.25C201.621 355.217 194.655 362.183 187.688 369.15ZM169.686 348.25C169.512 348.302 169.363 348.335 169.271 348.335C163.652 348.335 158.031 348.335 152.411 348.335C145.548 355.198 138.686 362.062 131.823 368.924C138.861 375.962 145.899 383 152.936 390.037C158.316 390.037 163.696 390.037 169.076 390.037C162.306 383.268 155.536 376.498 148.766 369.728C148.655 369.616 148.645 369.495 148.706 369.374C148.675 369.318 148.69 369.246 148.785 369.15C155.753 362.183 162.719 355.217 169.686 348.25ZM432.106 350.448C432.098 350.48 432.088 350.512 432.088 350.544C432.088 362.308 432.088 374.073 432.088 385.837C386.769 385.837 341.45 385.837 296.131 385.837C284.938 385.837 273.745 385.837 262.551 385.837C256.955 385.837 251.358 385.837 245.762 385.837C242.963 385.837 240.165 385.837 237.367 385.837C235.321 385.837 232.884 386.212 230.937 385.493C225.797 383.593 221.229 378.468 217.37 374.772C214.706 372.22 212.111 369.586 209.6 366.882C217.042 361.405 224.483 355.926 231.925 350.448C232.53 350.448 233.134 350.448 233.74 350.448C234.893 350.448 236.045 350.448 237.198 350.448C237.593 350.448 237.987 350.448 238.383 350.448C241.174 350.448 243.965 350.448 246.755 350.448C275.767 350.448 304.778 350.448 333.79 350.448C359.499 350.448 385.209 350.448 410.918 350.448C411.019 350.456 411.129 350.457 411.248 350.448C418.2 350.448 425.153 350.448 432.106 350.448ZM282.121 360.456C290.52 360.456 298.92 360.456 307.319 360.456C308.737 360.456 309.164 358.598 307.515 358.598C299.115 358.598 290.716 358.598 282.317 358.598C280.899 358.598 280.473 360.456 282.121 360.456ZM273.021 359.987C273.487 359.987 275.778 359.066 274.619 359.066C262.58 359.066 250.54 359.066 238.501 359.066C238.035 359.066 235.744 359.987 236.904 359.987C248.942 359.987 260.981 359.987 273.021 359.987ZM347.854 368.757C311.736 368.757 275.619 368.757 239.502 368.757C238.142 368.757 237.608 370.454 239.263 370.454C275.38 370.454 311.498 370.454 347.615 370.454C348.975 370.455 349.509 368.757 347.854 368.757ZM242.224 222.977C247.771 231.274 252.623 240.053 256.803 249.116C266.617 270.395 273.926 294.185 271.694 317.861C271.681 317.992 271.634 318.11 271.565 318.217C279.883 318.217 288.202 318.217 296.52 318.217C296.433 292.499 291.349 265.972 280.023 242.813C277.135 236.91 274.509 230.512 270.148 225.498C265.988 220.717 260.921 218.049 255.004 216.045C249.699 214.247 244.312 212.674 238.882 211.296C236.588 210.714 234.285 210.123 231.959 209.674C231.692 209.622 231.424 209.569 231.155 209.518C235.663 213.023 239.124 218.338 242.224 222.977ZM294.574 278.018C294.791 277.987 294.986 277.991 295.124 278.055C310.799 285.338 327.097 295.281 337.544 309.46C338.283 307.505 339.606 305.513 340.31 304.345C342.569 300.593 345.214 296.497 348.655 293.702C351.491 291.399 355.172 289.54 359.032 288.524C359.391 288.231 360.024 287.947 360.411 287.949C360.841 287.952 361.275 287.958 361.71 287.964C363.134 287.744 364.561 287.651 365.961 287.702C361.388 282.109 355.163 277.519 349.589 273.085C340.341 265.729 330.791 258.748 321.058 252.049C310.687 244.912 300.127 238.002 289.192 231.752C287.203 230.615 285.185 229.462 283.141 228.334C282.391 227.925 281.659 227.527 280.952 227.144C277.448 225.269 273.864 223.508 270.182 222.088C274.11 225.818 276.843 230.727 279.221 235.526C286.024 249.254 291.433 262.989 294.574 278.018ZM230.362 208.797L230.319 208.787C230.299 208.811 230.289 208.84 230.266 208.866C230.279 208.874 230.294 208.878 230.306 208.887C230.329 208.862 230.341 208.824 230.362 208.797ZM354.327 291.326C357.217 290.266 359.908 289.612 362.131 289.208C361.358 289.182 360.583 289.166 359.808 289.159C357.9 289.605 356.056 290.355 354.327 291.326ZM157.987 317.503C176.967 317.478 195.947 317.417 214.927 317.341C211.917 313.72 211.916 307.895 212.249 303.485C212.621 298.558 213.313 292.898 215.763 288.472C215.425 288.413 215.085 288.356 214.747 288.298L213.137 288.444C212.992 289.187 210.671 289.651 210.721 288.713C210.74 288.349 210.755 287.985 210.771 287.619C205.439 286.731 200.093 285.911 194.734 285.227C190.02 284.626 185.135 284.624 180.496 283.583C177.344 282.875 174.242 281.938 171.121 281.123C170.603 281.211 170.103 281.136 169.977 280.831C166.449 279.951 162.887 279.286 159.193 279.343C158.036 279.361 160.321 278.422 160.789 278.415C164.024 278.365 167.12 278.87 170.18 279.576C171.439 274.097 173.25 268.795 173.957 263.175C175.221 253.12 174.111 243.359 169.961 234.072C169.588 233.237 171.983 232.497 172.394 233.42C176.37 242.315 177.768 252.023 176.554 261.693C175.758 268.018 173.781 273.941 172.436 280.129C175.3 280.866 178.151 281.708 181.074 282.364C186.22 283.52 191.523 283.645 196.748 284.331C201.451 284.949 206.144 285.655 210.828 286.413C211.423 272.237 210.649 257.67 207.236 243.891C205.81 238.134 203.809 232.07 200.882 226.65C199.027 223.723 197.233 221.154 195.719 219.091C192.377 215.26 188.247 212.23 183.103 210.587C165.134 219.964 141.252 221.185 135.47 243.987C133.68 251.045 129.346 257.733 126.472 264.396C121.939 274.907 117.518 285.996 116.072 297.429C115.332 303.283 115.013 310.632 118.789 315.64C120.573 318.003 121.898 317.431 124.968 317.457C135.973 317.55 146.98 317.518 157.987 317.503Z" fill="url(#paint0_linear_1098_4830)"/>
<path d="M236.525 169.115C238.016 169.115 239.501 169.098 240.981 168.968C238.725 165.983 238.432 162.219 237.326 158.687C237.117 158.02 239.539 157.329 239.76 158.035C240.926 161.76 241.119 165.835 243.881 168.836C244.367 169.364 242.808 169.791 242.545 169.836C240.219 170.243 237.876 170.282 235.521 170.285C233.888 170.285 235.754 169.116 236.525 169.115ZM220.943 153.877C220.943 155.977 220.943 158.077 220.943 160.177C220.943 161.274 223.386 160.782 223.386 159.905C223.386 157.805 223.386 155.705 223.386 153.605C223.386 152.508 220.943 152.999 220.943 153.877ZM243.622 153.877C243.622 155.977 243.622 158.077 243.622 160.177C243.622 161.274 246.064 160.782 246.064 159.905C246.064 157.805 246.064 155.705 246.064 153.605C246.064 152.508 243.622 152.999 243.622 153.877ZM218.141 147.793C220.206 145.154 223.897 144.38 226.919 145.736C227.925 146.186 229.741 144.742 228.329 144.108C224.261 142.284 218.864 143.567 216.109 147.09C215.155 148.307 217.466 148.657 218.141 147.793ZM238.867 147.132C239.42 147.097 240.076 146.922 240.491 146.534C242.062 145.059 243.722 145.736 244.886 147.348C245.343 147.982 247.553 147.02 247.319 146.696C245.044 143.544 240.859 144.246 238.275 146.67C237.856 147.063 238.639 147.145 238.867 147.132ZM434.523 385.727C434.523 385.82 434.487 385.909 434.428 385.991C434.633 386.302 433.385 386.982 432.801 386.982C384.669 386.982 336.538 386.982 288.406 386.982C276.093 386.982 263.781 386.982 251.468 386.982C245.475 386.982 239.482 386.982 233.489 386.982C231.371 386.982 229.864 387.011 227.967 386.065C219.942 382.063 213.112 374.03 207.094 367.526C207.035 367.463 207.019 367.394 207.031 367.325C207.013 367.242 207.082 367.131 207.284 366.983C215.069 361.252 222.853 355.521 230.638 349.789C232.534 348.394 236.43 349.301 238.661 349.301C240.941 349.301 243.22 349.301 245.5 349.301C300.491 349.301 355.482 349.301 410.475 349.301C410.475 343.241 410.475 337.181 410.475 331.121C405.634 331.121 400.795 331.121 395.954 331.121C290.723 331.121 185.492 331.121 80.2607 331.121C80.2607 349.442 80.2607 367.762 80.2607 386.083C80.2607 386.888 77.8273 387.287 77.8273 386.736C77.8273 368.197 77.8273 349.658 77.8273 331.121C72.319 331.121 66.8107 331.121 61.3024 331.121C60.8689 331.155 60.5195 331.083 60.5195 330.875C60.5195 326.955 60.5195 323.036 60.5195 319.117C60.5195 318.533 61.7979 318.165 62.501 318.217C72.4559 318.217 82.4109 318.217 92.3659 318.217C100.802 318.217 109.239 318.217 117.676 318.217C115.026 316.612 113.642 310.057 113.412 307.907C112.716 301.38 113.865 294.737 115.543 288.438C119.043 275.297 124.733 262.925 130.51 250.662C132.553 246.328 133.471 241.56 135.656 237.326C138.819 231.195 143.638 226.402 149.717 223.143C159.88 217.694 171.68 215.565 181.741 210.166C180.817 209.746 182.744 208.77 183.439 208.958C183.536 208.984 183.631 209.016 183.727 209.044C186.556 207.354 189.224 205.358 191.645 202.894C191.753 202.784 191.958 202.689 192.199 202.615C192.462 197.226 192.634 191.826 192.636 186.431C192.638 183.124 192.746 179.705 192.223 176.429C191.68 173.022 188.812 171.843 186.045 170.369C180.582 167.457 177.732 160.721 181.61 155.192C182.079 154.524 182.593 153.944 183.137 153.422C178.244 145.63 181.284 130.754 189.866 126.634C189.865 126.606 189.858 126.581 189.859 126.551C190.132 120.547 194.257 117.223 200.055 116.586C203.777 116.178 207.537 116.588 211.258 116.169C215.833 115.653 219.339 113.559 223.419 111.647C228.351 109.334 234.653 106.893 240.124 108.872C245.845 110.942 248.868 116.134 251.1 121.497C251.155 121.628 251.156 121.754 251.12 121.87C251.464 121.793 251.814 121.798 252.077 121.944C261.223 127.001 267.064 150.504 255.277 155.488C255.32 159.027 255.267 162.562 254.963 166.087C254.423 172.363 253.574 181.889 248.544 186.482C245.165 189.567 240.946 190.375 236.545 190.979C234.238 191.295 231.217 191.449 229.353 193.03C227.167 194.884 227.043 197.796 227.165 200.455C228.683 202.705 229.533 205.112 229.757 207.554C231.724 207.286 234.291 208.27 235.928 208.651C241.505 209.952 247.048 211.452 252.506 213.184C257.56 214.787 262.501 216.429 266.848 219.391C275.546 221.802 283.724 226.467 291.491 230.938C302.406 237.221 312.995 244.078 323.356 251.234C333.53 258.262 343.559 265.536 353.181 273.307C358.767 277.819 364.955 282.445 369.322 288.225C369.35 288.262 369.304 288.324 369.21 288.397C374.819 289.025 380.331 290.49 384.897 293.857C388.708 296.665 391.48 300.2 393.909 304.224C395.569 306.975 398.833 310.958 398.785 314.378C398.757 316.379 397.486 317.545 395.71 318.217C405.769 318.217 415.828 318.217 425.887 318.217C426.311 318.186 426.65 318.259 426.65 318.464C426.65 322.384 426.65 326.303 426.65 330.222C426.65 330.812 425.339 331.184 424.641 331.121C420.731 331.121 416.821 331.121 412.91 331.121C412.91 337.181 412.91 343.241 412.91 349.301C419.877 349.301 426.845 349.301 433.813 349.301C434.469 349.301 434.551 349.488 434.372 349.709C434.465 349.751 434.524 349.809 434.524 349.892C434.523 361.837 434.523 373.783 434.523 385.727ZM432.107 350.448C425.154 350.448 418.201 350.448 411.249 350.448C411.129 350.457 411.02 350.456 410.918 350.448C385.21 350.448 359.499 350.448 333.79 350.448C304.779 350.448 275.767 350.448 246.755 350.448C243.964 350.448 241.173 350.448 238.383 350.448C237.988 350.448 237.593 350.448 237.199 350.448C236.045 350.448 234.893 350.448 233.74 350.448C233.135 350.448 232.531 350.448 231.925 350.448C224.484 355.926 217.043 361.405 209.601 366.882C212.111 369.586 214.707 372.219 217.37 374.771C221.23 378.467 225.797 383.593 230.938 385.493C232.884 386.212 235.321 385.837 237.367 385.837C240.166 385.837 242.964 385.837 245.762 385.837C251.358 385.837 256.955 385.837 262.551 385.837C273.744 385.837 284.937 385.837 296.131 385.837C341.45 385.837 386.769 385.837 432.088 385.837C432.088 374.073 432.088 362.308 432.088 350.544C432.088 350.512 432.098 350.48 432.107 350.448ZM362.132 289.208C361.359 289.182 360.584 289.165 359.809 289.158C357.901 289.604 356.057 290.354 354.329 291.325C351.572 292.874 349.117 294.991 347.215 297.394C344.998 300.192 342.929 303.196 341.347 306.405C341.183 306.736 340.979 307.122 340.767 307.538C340.977 307.568 341.164 307.643 341.296 307.774C348.98 315.406 359.813 314.41 369.398 311.46C371.006 310.965 375.371 310.034 375.502 307.799C375.659 305.157 373.613 304.018 371.256 303.822C368.113 303.559 365.025 304 361.888 304.074C360.225 304.112 360.808 302.461 362.141 302.43C366.659 302.324 372.402 300.873 376.42 303.618C379.455 305.691 377.804 308.905 375.527 310.609C378 312.242 380.434 313.966 382.439 316.165C383.464 317.29 384.147 317.77 385.745 317.792C385.877 317.794 386.029 317.8 386.199 317.808C386.119 311.142 379.516 304.81 374.726 301.015C373.626 300.143 375.755 298.938 376.602 299.61C381.921 303.827 388.856 310.569 388.663 317.936C391.631 318.064 395.507 318.012 396.122 316.276C396.812 314.328 395.603 312.105 394.695 310.421C391.135 303.822 387.062 296.796 380.161 293.219C374.525 290.296 368.375 289.412 362.132 289.208ZM231.156 209.517C235.664 213.023 239.125 218.338 242.225 222.976C247.772 231.273 252.624 240.053 256.804 249.115C266.618 270.395 273.927 294.184 271.695 317.86C271.682 317.991 271.635 318.109 271.566 318.217C279.884 318.217 288.203 318.217 296.521 318.217C296.434 292.498 291.35 265.971 280.024 242.813C277.136 236.909 274.51 230.511 270.149 225.497C265.989 220.716 260.922 218.048 255.005 216.044C249.7 214.246 244.313 212.673 238.883 211.296C236.589 210.713 234.286 210.122 231.96 209.673C231.693 209.621 231.424 209.569 231.156 209.517ZM298.982 318.217C326.428 318.217 353.874 318.217 381.32 318.217C381.192 318.123 381.066 318.026 380.951 317.908C378.647 315.531 376.225 313.548 373.505 311.699C362.816 316.25 348.964 317.729 339.864 309.564C339.485 310.634 339.308 311.718 339.713 312.583C339.923 313.031 337.634 313.786 337.28 313.236C327.508 298.127 311.009 287.58 294.954 279.896C297.457 292.527 298.947 305.337 298.982 318.217ZM280.952 227.144C277.449 225.269 273.865 223.508 270.182 222.088C274.111 225.818 276.843 230.727 279.222 235.526C286.026 249.254 291.434 262.989 294.575 278.018C294.792 277.987 294.987 277.991 295.125 278.055C310.8 285.338 327.098 295.281 337.545 309.46C338.284 307.505 339.607 305.513 340.311 304.345C342.57 300.593 345.215 296.497 348.656 293.702C351.492 291.399 355.173 289.54 359.033 288.524C359.392 288.231 360.025 287.947 360.412 287.949C360.842 287.952 361.276 287.958 361.711 287.964C363.135 287.744 364.562 287.651 365.962 287.702C361.389 282.109 355.164 277.519 349.59 273.085C340.342 265.729 330.792 258.748 321.059 252.049C310.688 244.912 300.128 238.002 289.193 231.752C287.204 230.615 285.186 229.462 283.142 228.334C282.391 227.924 281.659 227.527 280.952 227.144ZM230.319 208.787C230.299 208.811 230.289 208.84 230.267 208.866C230.279 208.874 230.294 208.878 230.306 208.887C230.33 208.862 230.341 208.824 230.361 208.797C230.466 208.653 230.54 208.475 230.519 208.22C230.539 208.434 230.451 208.62 230.319 208.787ZM225.816 217.737C230.326 230.823 234.551 243.941 237.209 257.578C239.219 267.886 240.848 278.273 242.49 288.645C242.496 288.683 242.491 288.718 242.49 288.754C246.341 287.763 250.152 286.621 253.91 285.385C254.229 285.28 254.978 285.201 255.21 285.545C257.736 289.274 251.822 292.638 248.062 294.597C251.683 294.651 255.447 294.9 258.776 296.235C260.098 296.765 266.476 300.138 264.739 302.41C264.081 303.27 263.037 303.568 261.94 303.626C263.929 304.994 266.194 307.082 264.649 308.458C264.044 308.997 263.259 309.251 262.409 309.345C262.856 309.6 263.281 309.879 263.656 310.209C265.867 312.157 265.803 313.865 264.243 314.669C264.288 314.694 264.336 314.716 264.382 314.741C266.201 315.77 267.94 316.942 265.318 318.103C265.219 318.148 265.111 318.175 265.01 318.217C266.418 318.217 267.826 318.217 269.234 318.217C269.227 318.16 269.222 318.102 269.229 318.038C271.437 294.613 264.21 270.79 254.372 249.768C250.092 240.624 245.238 231.682 239.523 223.35C236.684 219.211 233.61 214.467 229.624 211.215C229.313 213.164 228.628 215.099 227.57 216.955C227.407 217.236 226.481 217.678 225.816 217.737ZM217.971 318.217C226.483 318.217 234.996 318.217 243.508 318.217C243.7 318.142 243.89 318.096 244.056 318.096C249.744 318.1 255.508 318.232 261.17 317.619C261.561 317.577 264.13 316.973 264.298 317.125C262.753 315.728 260.367 314.894 258.386 314.449C254.11 313.492 249.777 313.327 245.41 313.314C243.764 313.308 245.442 311.925 246.356 311.928C251.44 311.945 257.509 311.835 262.44 313.814C264.123 313.778 261.862 311.503 261.391 311.145C259.884 310.004 257.813 309.349 256.007 308.896C252.458 308.007 248.854 307.54 245.195 307.501C244.545 307.495 244.425 307.283 244.569 307.031C244.521 306.734 244.802 306.379 245.511 306.225C250.432 305.158 255.697 307.181 260.562 307.785C262.148 307.981 263.491 308.386 261.701 306.346C260.435 304.9 258.872 303.819 257.045 303.198C256.2 302.911 255.342 302.69 254.479 302.506C254.21 302.45 253.941 302.396 253.671 302.345C252.496 302.132 251.308 301.993 250.113 301.907C249.225 301.88 248.356 301.93 247.526 302.109C246.812 302.263 246.367 302.05 246.267 301.756C245.843 301.751 245.419 301.748 244.996 301.746C243.35 301.741 245.028 300.358 245.942 300.36C250.108 300.373 254.783 300.385 258.766 301.928C259.879 302.106 260.997 302.232 262.12 302.233C263.295 302.233 261.209 300.052 260.354 299.38C258.873 298.217 257.186 297.395 255.35 296.952C251.877 296.114 248.347 295.972 244.788 295.962C244.219 295.96 244.052 295.792 244.11 295.573C243.932 295.403 243.983 295.163 244.497 294.875C246.688 293.649 254.508 290.332 253.21 287.012C241.197 290.892 228.678 293.731 216.014 293.888C215.31 296.669 214.958 299.594 214.759 302.232C214.391 307.108 214.094 313.971 218.251 317.462C218.53 317.697 218.34 317.986 217.971 318.217ZM118.789 315.638C120.573 318.002 121.897 317.43 124.967 317.456C135.974 317.549 146.981 317.518 157.987 317.503C176.967 317.477 195.947 317.417 214.928 317.341C211.917 313.72 211.916 307.895 212.249 303.485C212.621 298.558 213.313 292.898 215.763 288.472C215.425 288.413 215.085 288.356 214.747 288.298C214.22 288.209 213.694 288.119 213.167 288.029C213.161 288.15 213.157 288.271 213.15 288.392C213.149 288.41 213.141 288.426 213.138 288.445C212.992 289.188 210.672 289.652 210.721 288.714C210.74 288.35 210.755 287.985 210.772 287.62C205.44 286.731 200.093 285.912 194.735 285.228C190.02 284.627 185.135 284.625 180.496 283.583C177.344 282.876 174.242 281.939 171.121 281.124C170.603 281.212 170.103 281.137 169.977 280.832C166.45 279.952 162.887 279.287 159.193 279.344C158.036 279.362 160.321 278.423 160.789 278.416C164.024 278.366 167.121 278.871 170.181 279.577C171.44 274.098 173.25 268.796 173.957 263.176C175.221 253.12 174.111 243.359 169.961 234.073C169.588 233.238 171.983 232.498 172.395 233.42C176.37 242.316 177.769 252.023 176.554 261.694C175.759 268.019 173.781 273.942 172.437 280.129C175.3 280.867 178.152 281.709 181.074 282.365C186.22 283.52 191.523 283.645 196.748 284.332C201.452 284.95 206.144 285.655 210.829 286.414C211.423 272.237 210.649 257.67 207.236 243.892C205.81 238.135 203.809 232.071 200.882 226.65C199.411 223.927 197.705 221.368 195.719 219.092C192.378 215.261 188.247 212.23 183.103 210.587C165.134 219.965 141.252 221.186 135.47 243.988C133.68 251.046 129.346 257.734 126.473 264.397C121.939 274.908 117.518 285.997 116.072 297.43C115.332 303.282 115.012 310.63 118.789 315.638ZM225.357 202.114C221.956 205.675 224.636 210.014 226.558 214.257C227.927 210.193 227.577 205.962 225.357 202.114ZM239.684 110.781C241.086 111.61 242.375 112.564 243.509 113.505C242.405 112.353 241.141 111.401 239.684 110.781ZM187.06 130.661C188.227 129.294 189.342 128.236 190.167 127.521C188.936 128.253 187.908 129.36 187.06 130.661ZM194.41 174.525C195.658 179.608 195.145 185.419 195.044 190.594C195.007 192.443 194.958 194.293 194.9 196.141C202.842 196.359 212.351 199.168 219.247 203.11C220.244 203.681 221 204.31 221.572 204.987C221.944 203.569 222.898 202.208 224.72 200.911C224.72 200.901 224.715 200.893 224.715 200.882C224.484 196.309 225.704 192.526 230.14 190.694C234.533 188.88 239.688 189.739 243.965 187.569C251.3 183.848 252.205 172.179 252.597 164.935C253.052 156.537 252.48 148.152 252.435 139.754C251.701 136.793 249.887 134.7 247.958 132.516C245.948 132.738 245.058 134.472 240.48 135.133C231.856 137.604 219.756 136.077 212.028 134.165C217.029 141.575 210.442 154.295 205.083 160.243C204.676 160.693 203.22 161.078 202.89 160.367C201.63 157.658 200.771 154.833 198.777 152.538C198.745 152.501 198.726 152.464 198.708 152.427C198.581 152.44 198.46 152.437 198.35 152.411C197.1 152.117 195.69 151.848 194.241 151.7C191.085 152.087 187.708 152.935 185.971 153.406C186.037 153.702 185.44 154.04 184.826 154.211C184.496 154.567 184.186 154.951 183.918 155.397C182.549 157.678 181.837 160.67 182.673 163.286C183.903 167.133 186.803 168.304 190.05 170.111C191.787 171.078 193.899 172.442 194.41 174.525ZM215.577 203.676C209.051 200.925 201.981 198.266 194.836 197.895C194.778 199.51 194.719 201.125 194.639 202.74C194.637 202.781 194.624 202.819 194.615 202.857C197.762 203.478 201.643 206.408 203.788 207.598C209.046 210.514 214.211 213.667 219.589 216.368C220.047 214.249 220.632 212.109 220.752 209.975C220.952 206.43 218.581 204.943 215.577 203.676ZM185.126 209.478C199.134 214.209 206.068 228.697 209.434 242.29C213.02 256.769 213.893 271.921 213.223 286.801C214.533 287.019 215.841 287.242 217.148 287.468C217.887 287.349 218.622 287.514 218.262 288.126C217.478 289.455 216.881 290.947 216.404 292.506C216.524 292.472 216.641 292.45 216.749 292.449C224.613 292.37 232.419 291.183 240.075 289.352C240.07 289.334 240.059 289.318 240.057 289.298C238.415 278.929 236.843 268.524 234.776 258.231C231.813 243.473 227.176 229.33 222.256 215.15C222.059 216.058 221.865 216.976 221.715 217.897C221.693 218.031 221.634 218.154 221.547 218.264C221.206 218.756 220.38 219.123 219.787 218.838C219.753 218.821 219.72 218.804 219.687 218.787C219.612 218.763 219.547 218.727 219.488 218.687C214.676 216.354 210.067 213.599 205.408 210.981C202.774 209.499 200.143 207.995 197.448 206.625C196.659 206.225 193.882 204.347 192.998 204.579C192.635 204.674 192.336 204.646 192.106 204.545C189.965 206.435 187.613 208.048 185.126 209.478ZM412.125 329.976C412.256 329.966 412.376 329.966 412.483 329.976C416.393 329.976 420.304 329.976 424.214 329.976C424.214 326.437 424.214 322.9 424.214 319.361C414.794 319.361 405.374 319.361 395.953 319.361C393.241 319.361 390.528 319.361 387.816 319.361C387.401 319.508 386.923 319.519 386.592 319.361C357.244 319.361 327.895 319.361 298.546 319.361C297.994 319.716 297.082 319.776 296.705 319.361C282.423 319.361 268.141 319.361 253.86 319.361C250.276 319.464 246.695 319.484 243.111 319.482C242.814 319.482 242.629 319.435 242.525 319.361C182.668 319.361 122.81 319.361 62.9537 319.361C62.9537 322.899 62.9537 326.438 62.9537 329.976C68.462 329.976 73.9703 329.976 79.4787 329.976C79.6089 329.966 79.7281 329.966 79.8365 329.976C84.0135 329.976 88.1897 329.976 92.3667 329.976C198.952 329.976 305.539 329.976 412.125 329.976ZM218.195 171.82C218.408 171.541 218.759 171.39 219.122 171.346C219.618 171.223 220.136 171.297 220.339 171.688V171.689C220.391 171.748 220.425 171.816 220.448 171.889C222.344 175.426 224.979 177.309 229.049 176.844C229.12 176.831 229.191 176.823 229.264 176.82C229.315 176.813 229.364 176.811 229.415 176.803C230.062 176.708 230.369 176.928 230.425 177.241C230.663 177.521 230.651 177.903 230.124 178.284C226.963 180.57 223.044 187.529 218.294 184.71C214.211 182.288 215.832 174.907 218.195 171.82ZM219.801 183.037C221.989 184.335 224.73 180.977 226.824 178.685C223.655 178.563 221.108 177.145 219.226 174.556C218.094 177.37 217.488 181.665 219.801 183.037ZM274.62 359.066C262.581 359.066 250.541 359.066 238.502 359.066C238.036 359.066 235.745 359.987 236.905 359.987C248.943 359.987 260.983 359.987 273.022 359.987C273.488 359.987 275.779 359.066 274.62 359.066ZM282.122 360.456C290.521 360.456 298.921 360.456 307.32 360.456C308.738 360.456 309.165 358.598 307.516 358.598C299.116 358.598 290.717 358.598 282.318 358.598C280.9 358.598 280.474 360.456 282.122 360.456ZM347.855 368.757C311.737 368.757 275.62 368.757 239.503 368.757C238.143 368.757 237.609 370.454 239.264 370.454C275.381 370.454 311.499 370.454 347.616 370.454C348.976 370.455 349.51 368.757 347.855 368.757ZM315.332 178.569C306.949 161.065 308.17 140.334 320.06 124.697C330.2 111.36 346.245 102.708 363.23 104.26C373.597 104.333 384.416 106.127 393.214 111.962C402.123 117.87 407.365 126.238 411.888 135.696C421.407 155.598 413.646 184.532 396.8 198.343C371.321 219.232 329.308 207.755 315.332 178.569ZM376.629 183.687C377.246 180.549 377.781 177.38 378.235 174.196C368.074 175.374 357.675 175.408 347.453 174.229C348.244 180.14 349.501 185.975 351.478 191.533C352.848 195.387 354.453 199.346 356.948 202.632C357.921 203.912 359.677 205.981 361.629 207.116C363.134 207.251 364.644 207.318 366.151 207.327C373.298 203.184 375.202 190.937 376.629 183.687ZM362.176 174.064C367.532 174.224 372.953 174.048 378.333 173.482C379.385 165.86 379.916 158.143 379.625 150.485C379.499 147.177 379.234 143.814 378.837 140.449C376.602 140.164 374.365 139.943 372.139 139.784C363.845 139.19 355.315 139.187 346.947 140.162C346.367 145.58 346.141 151.039 346.236 156.463C346.332 161.857 346.617 167.358 347.277 172.81C352.225 173.482 357.203 173.916 362.176 174.064ZM412.776 162.857C407.016 169.015 394.479 171.464 388.122 172.688C385.651 173.165 383.156 173.57 380.645 173.906C379.597 182.206 378.094 190.807 374.759 198.34C373.344 201.539 371.283 205.276 368.219 207.299C380.472 206.883 392.378 202.152 400.425 192.13C407.198 183.695 411.469 173.428 412.776 162.857ZM413.19 154.899C411.679 150.908 405.854 148.077 402.569 146.651C395.826 143.723 388.564 141.875 381.237 140.781C382.303 150.137 382.303 159.472 381.237 168.906C381.077 170.323 380.909 171.759 380.731 173.202C386.284 172.493 391.778 171.357 397.094 169.712C402.737 167.965 411.679 164.887 413.154 158.248C413.201 157.131 413.212 156.015 413.19 154.899ZM368.242 106.176C370.335 107.529 372.004 109.604 373.274 111.829C377.338 118.952 379.23 127.283 380.507 135.312C380.734 136.735 380.933 138.158 381.109 139.58C381.489 139.633 381.869 139.686 382.246 139.743C391.012 141.063 400.298 143.016 408.106 147.425C409.619 148.279 411.439 149.39 412.95 150.751C412.36 144.644 410.727 138.63 407.943 133.005C403.799 124.634 397.894 116.929 389.637 112.271C382.994 108.525 375.717 106.774 368.242 106.176ZM350.096 123.019C348.689 128.261 347.703 133.628 347.073 139.038C357.668 137.726 368.582 137.99 378.698 139.256C377.831 132.515 376.36 125.795 374.058 119.55C372.281 114.735 369.354 107.614 363.894 105.95C363.384 105.937 362.872 105.927 362.36 105.924C361.288 105.826 360.225 105.774 359.171 105.759C354.257 107.827 351.01 119.61 350.096 123.019ZM312.329 152.527C314.344 150.065 317.404 148.186 319.974 146.877C327.508 143.04 335.955 140.645 344.68 139.36C344.983 136.779 345.359 134.207 345.839 131.655C346.919 125.926 349.767 110.587 356.821 105.79C332.669 106.812 313.728 128.973 312.329 152.527ZM330.324 169.529C335.074 170.731 339.902 171.702 344.766 172.447C344.542 170.447 344.362 168.45 344.22 166.467C343.603 157.837 343.611 149.095 344.545 140.47C340.556 141.029 336.613 141.818 332.76 142.888C326.776 144.55 312.996 148.458 312.599 156.635C312.205 164.717 324.474 168.053 330.324 169.529ZM313.428 165.624C317.813 184.212 331.589 198.977 349.837 204.75C352.355 205.546 354.94 206.159 357.555 206.592C355.202 204.718 353.399 201.923 352.076 199.326C348.083 191.483 346.033 182.703 344.943 173.925C338.585 173.065 332.311 171.733 326.226 169.903C322.722 168.849 316.647 167.072 313.054 163.856C313.168 164.445 313.29 165.035 313.428 165.624ZM211.214 390.079C211.792 390.656 209.65 391.515 209.005 391.045C203 391.045 196.996 391.045 190.992 391.045C190.462 391.218 189.867 391.256 189.614 391.003C182.523 383.912 175.43 376.818 168.338 369.727C168.227 369.615 168.217 369.494 168.277 369.373C168.246 369.317 168.262 369.245 168.357 369.149C175.296 362.211 182.234 355.272 189.172 348.334C189.16 348.334 189.148 348.334 189.136 348.334C187.934 348.334 190.191 347.326 190.71 347.326C197.057 347.326 203.403 347.326 209.749 347.326C210.04 347.326 210.125 347.385 210.085 347.475C210.825 347.357 211.569 347.415 211.196 347.788C204.15 354.833 197.106 361.878 190.059 368.923C197.111 375.975 204.162 383.027 211.214 390.079ZM207.979 390.037C201.209 383.267 194.439 376.497 187.669 369.727C187.558 369.615 187.548 369.494 187.608 369.373C187.577 369.317 187.593 369.245 187.688 369.149C194.655 362.182 201.622 355.216 208.589 348.249C208.415 348.302 208.266 348.334 208.174 348.334C202.554 348.334 196.934 348.334 191.314 348.334C184.451 355.197 177.589 362.061 170.726 368.923C177.764 375.961 184.801 382.999 191.839 390.037C197.219 390.037 202.6 390.037 207.979 390.037ZM172.311 390.079C172.889 390.656 170.747 391.515 170.102 391.045C164.098 391.045 158.093 391.045 152.089 391.045C151.559 391.218 150.964 391.256 150.712 391.003C143.62 383.912 136.527 376.818 129.435 369.727C129.324 369.615 129.314 369.494 129.375 369.373C129.343 369.317 129.359 369.245 129.454 369.149C136.393 362.211 143.331 355.272 150.269 348.334C150.257 348.334 150.245 348.334 150.234 348.334C149.031 348.334 151.289 347.326 151.808 347.326C158.154 347.326 164.5 347.326 170.847 347.326C171.137 347.326 171.222 347.385 171.183 347.475C171.923 347.357 172.667 347.415 172.293 347.788C165.248 354.833 158.203 361.878 151.157 368.923C158.208 375.975 165.26 383.027 172.311 390.079ZM169.077 390.037C162.307 383.267 155.537 376.497 148.767 369.727C148.656 369.615 148.646 369.494 148.707 369.373C148.676 369.317 148.691 369.245 148.786 369.149C155.753 362.182 162.72 355.216 169.687 348.249C169.513 348.302 169.364 348.334 169.272 348.334C163.653 348.334 158.032 348.334 152.412 348.334C145.549 355.197 138.687 362.061 131.824 368.923C138.862 375.961 145.9 382.999 152.937 390.037C158.317 390.037 163.697 390.037 169.077 390.037ZM392.925 317.436C393.297 318.059 395.574 317.142 395.359 316.784C391.724 310.7 388.199 304.627 383.528 299.262C383.118 298.791 380.838 299.643 381.237 300.102C385.86 305.41 389.331 311.419 392.925 317.436ZM193.921 165.605C194.612 163.646 194.815 161.117 193.752 159.24C192.494 157.021 189.823 157.745 188.196 159.123C186.936 160.191 188.91 160.855 189.779 160.118C190.062 159.878 190.342 159.645 190.675 159.479C190.788 159.423 190.672 159.401 190.836 159.482C191.344 159.734 191.576 160.387 191.736 160.886C192.189 162.293 192.1 164.009 191.612 165.395C191.161 166.672 193.592 166.538 193.921 165.605Z" fill="#3C4B91"/>
<defs>
<linearGradient id="paint0_linear_1098_4830" x1="273.857" y1="208.787" x2="273.857" y2="390.037" gradientUnits="userSpaceOnUse">
<stop stop-color="#FFBD55"/>
<stop offset="1" stop-color="#FFF2C5"/>
</linearGradient>
</defs>
</svg>
