<svg width="500" height="396" viewBox="0 0 500 396" fill="none" xmlns="http://www.w3.org/2000/svg">
<path d="M387.762 277.044C387.569 277.08 387.378 277.162 387.199 277.311C386.972 277.502 386.762 277.698 386.561 277.9C387.162 277.031 387.867 276.239 388.633 275.482C388.761 275.702 388.88 275.923 388.99 276.151C388.47 276.161 387.921 276.493 387.762 277.044ZM367.921 241.911C369.173 242.239 370.46 242.51 371.756 242.743C370.452 242.446 369.17 242.168 367.921 241.911ZM384.146 281.542C384.077 281.561 384.007 281.58 383.937 281.595C383.957 281.665 383.979 281.738 383.996 281.808C384.027 281.765 384.053 281.72 384.084 281.679C384.104 281.631 384.125 281.586 384.146 281.542ZM392.938 279.56C392.952 279.544 392.967 279.528 392.981 279.511C392.983 279.457 392.985 279.401 392.984 279.347C392.975 278.979 393.06 278.757 393.142 278.631C393.03 278.695 392.845 278.776 392.546 278.861C392.498 278.874 392.455 278.878 392.41 278.885C392.439 279.095 392.464 279.305 392.485 279.517C392.637 279.508 392.79 279.514 392.938 279.56ZM396.986 282.079C396.918 282.485 396.848 282.892 396.77 283.296C396.856 283.328 396.941 283.37 397.027 283.427C397.327 283.627 397.591 283.84 397.835 284.062C397.608 283.404 397.327 282.745 396.986 282.079ZM439.847 385.804C440.032 386.839 440.218 387.873 440.412 388.906V386.221L439.847 385.804ZM282.584 260.369C282.481 260.452 282.29 260.526 282.066 260.585C284.987 264.755 287.698 269.063 290.236 273.478C290.282 273.557 290.136 273.683 289.903 273.814C290.481 273.751 290.98 273.872 290.85 274.258C288.063 282.64 282.424 289.547 277.937 297.043C278.187 307.91 284.152 319.296 289.542 328.411C293.986 335.926 300.26 346.176 308.566 351.011C305.112 346.294 303.561 339.475 302.35 334.356C299.84 323.745 298.446 312.852 297.627 301.988C296.917 292.573 296.631 283.399 298.146 274.035C299.624 264.908 301.749 255.816 304.572 246.997C304.45 246.967 304.415 246.912 304.534 246.823C304.576 246.791 304.617 246.754 304.658 246.721C304.804 246.272 304.941 245.819 305.091 245.372C305.281 244.795 306.186 244.532 306.822 244.67C310.059 241.008 312.287 235.553 311.988 230.621L311.271 231.15C309.412 233.092 307.587 235.065 305.776 237.05C305.671 237.2 305.602 237.299 305.602 237.299L305.521 237.331C298.212 245.355 291.084 253.543 282.584 260.369ZM313.996 228.354C314.185 229.21 314.285 230.075 314.323 230.945C314.788 229.419 314.782 228.421 313.996 228.354ZM359.876 303.773C359.845 303.743 359.822 303.709 359.806 303.669C356.274 294.727 351.433 286.268 345.725 278.54C345.472 278.197 346.208 277.777 346.92 277.603C346.33 277.505 345.94 277.146 346.474 276.555C350.839 271.71 356.246 267.371 362.285 264.689C363.194 264.287 364.117 263.92 365.051 263.595C361.662 255.855 359.142 247.835 356.3 239.9C356.007 239.082 355.705 238.268 355.405 237.453L346.332 232.815C337.105 254.968 331.131 278.628 325.49 301.869C321.545 318.122 317.748 334.476 314.733 350.938C329.379 335 340.624 314.544 359.876 303.773ZM271.483 248.524C267.945 249.63 263.815 251.414 259.639 254.304C260.534 253.73 261.454 253.174 262.414 252.647C265.326 251.049 268.373 249.722 271.483 248.524ZM228.888 362.168C230.194 362.185 231.336 361.911 232.32 361.409C231.165 361.711 229.835 361.957 228.506 362.156C228.562 362.156 228.618 362.156 228.675 362.156C228.757 362.155 228.823 362.162 228.888 362.168ZM355.125 318.165L355.523 313.491C355.287 314.314 355.129 315.16 355.088 316.041C355.055 316.755 355.077 317.463 355.125 318.165ZM436.938 383.662C431.662 352.351 430.175 320.146 420.767 289.743C416.589 276.245 410.484 261.692 398.705 253.063C396.535 251.473 394.266 250.197 391.922 249.138C391.239 248.84 390.549 248.547 389.85 248.263C384.908 246.327 379.656 245.238 374.256 244.256C369.655 243.419 364.088 242.785 359.757 240.423C359.539 240.389 359.325 240.355 359.111 240.322C361.377 246.715 363.473 253.15 366.011 259.441C366.578 260.846 367.159 262.245 367.778 263.633C367.847 263.786 367.768 263.944 367.608 264.089C367.491 264.353 367.233 264.604 366.772 264.743C365.495 265.127 364.243 265.606 363.017 266.161C357.469 268.669 352.491 272.769 348.492 277.206C348.334 277.38 348.09 277.498 347.822 277.566C347.902 277.592 347.97 277.629 348.011 277.686C353.679 285.36 358.511 293.724 362.061 302.588L365.764 299.886C371.286 295.788 376.142 291.633 375.511 283.151C375.485 282.807 375.831 282.521 376.27 282.342C376.312 282.262 376.357 282.188 376.402 282.115L376.128 281.514L377.17 281.037C378.201 279.872 379.552 279.162 381.351 278.581C381.715 278.464 382.457 278.335 382.697 278.737C382.892 279.066 383.062 279.392 383.219 279.72C384.316 277.348 386.088 275.501 388.077 273.714C388.493 273.342 389.741 272.871 390.188 273.453C390.947 274.443 391.493 275.502 391.871 276.61C391.889 276.605 391.903 276.595 391.921 276.592C391.957 276.58 391.985 276.573 392.019 276.561C395.41 273.802 397.816 275.105 397.36 279.419C397.303 279.976 397.223 280.531 397.143 281.087C397.785 280.754 398.904 280.468 399.13 280.87C403.749 289.069 399.113 296.67 393.984 303.445C394.295 303.386 394.573 303.386 394.728 303.498C398.132 305.952 392.479 312.837 391.063 314.988C388.816 318.401 385.146 322.83 383.879 327.29C384.167 327.367 384.404 327.538 384.505 327.833C384.537 327.926 384.575 328.017 384.609 328.11C385.178 328.134 385.552 328.33 385.004 328.767C384.969 328.795 384.934 328.82 384.898 328.85C386.546 332.761 389.754 336.206 392.518 339.287C396.95 344.227 401.659 348.908 406.395 353.552C414.317 361.322 423.627 368.906 429.802 378.224C429.86 378.311 429.892 378.398 429.913 378.485C430.148 379.448 428.156 380.183 427.578 379.31C421.023 369.423 411.051 361.44 402.673 353.167C398.042 348.593 393.383 344.003 389.142 339.062C387.128 336.714 384.965 334.23 383.422 331.468C383.061 332 381.098 332.344 381.048 331.924C381.037 331.829 381.039 331.733 381.03 331.64C380.96 331.686 380.89 331.733 380.819 331.779C374.722 335.7 368.134 337.974 360.817 339.141C367.529 356.376 374.67 373.572 380.433 391.146C380.751 392.114 378.325 392.795 378 391.799C372.158 373.983 364.899 356.556 358.108 339.086C357.815 338.334 359.318 337.736 360.118 338.041C360.42 337.997 360.724 337.954 361.024 337.907V336.922C354.715 328.405 349.285 317.579 355.95 308.48L356.041 307.41C339.184 319.307 328.559 339.036 314.275 353.561C314.362 354.255 312.784 354.975 312.078 354.496C311.986 354.434 311.9 354.358 311.809 354.292C301.208 351.297 293.536 339.736 288.197 330.889C282.355 321.212 275.694 309.146 275.494 297.518C275.494 297.507 275.498 297.499 275.499 297.486C275.485 297.402 275.51 297.302 275.582 297.181C280.016 289.738 285.653 282.9 288.419 274.583C288.459 274.466 288.55 274.358 288.669 274.265C288.267 274.342 287.916 274.33 287.803 274.135C285.134 269.495 282.282 264.963 279.187 260.595C279.072 260.434 280.382 259.784 281.149 259.777C288.896 253.471 295.501 246.024 302.185 238.647L297.32 240.56C295.326 241.426 293.296 242.217 291.239 242.952L281.634 246.729C281.634 246.729 280.878 246.721 279.572 246.849C274.644 248.499 269.779 250.284 265.222 252.72C257.79 256.695 251.172 262.128 246.932 269.521C244.521 273.722 242.865 278.201 241.755 282.822C240.943 287.686 240.345 293.283 239.904 298.917C239.904 315.279 239.904 331.642 239.904 348.005C239.904 348.238 239.763 348.441 239.55 348.596C240.631 356.073 236.119 363.82 227.893 363.606C227.845 363.613 227.797 363.62 227.752 363.62C225.889 363.62 224.026 363.62 222.164 363.62C217.922 373.658 215.04 384.608 212.858 395.249C212.845 395.307 212.814 395.365 212.775 395.421H271.8C271.743 380.45 270.73 364.336 263.872 350.737C260.4 343.852 257.532 337.303 257.453 329.441C257.386 322.754 258.156 316.112 257.852 309.419C257.81 308.496 260.251 308.008 260.286 308.766C260.607 315.832 259.521 322.894 259.923 329.942C260.355 337.482 263.128 343.382 266.306 350.085C272.941 364.09 274.192 379.801 274.234 395.094C274.234 395.211 274.196 395.321 274.129 395.421H439.127C438.608 392.908 438.125 390.385 437.668 387.855C437.418 386.456 437.174 385.06 436.938 383.662Z" fill="url(#paint0_linear_1098_4798)"/>
<path d="M291.011 198.195C279.803 198.327 287.604 178.514 289.033 173.022C289.252 172.178 291.706 171.814 291.469 172.724C290.304 177.195 282.893 196.893 291.951 196.785C293.595 196.769 291.934 198.184 291.011 198.195ZM317.933 192.423C316.734 197.432 314.464 202.593 309.472 204.761C304.9 206.747 300.605 203.825 297.739 200.439C297.584 200.256 297.602 200.07 297.72 199.896C297.639 199.892 297.559 199.895 297.477 199.89C296.208 199.813 298.431 198.746 299.025 198.782C304.828 199.13 310.868 195.928 314.985 192.002C315.438 191.571 317.698 191.341 317.24 191.866C317.687 191.878 318.022 192.045 317.933 192.423ZM315.265 193.598C311.049 196.975 305.713 199.425 300.333 199.854C302.886 202.733 306.967 205.797 310.513 202.462C313.06 200.068 314.39 196.912 315.265 193.598ZM308.727 165.816C308.727 167.251 308.727 168.687 308.727 170.124C308.727 170.833 311.159 170.387 311.159 169.472C311.159 168.036 311.159 166.599 311.159 165.164C311.16 164.453 308.727 164.901 308.727 165.816ZM285.213 165.163C285.213 164.452 282.779 164.9 282.779 165.816C282.779 167.251 282.779 168.687 282.779 170.124C282.779 170.833 285.213 170.386 285.213 169.471C285.213 168.036 285.213 166.599 285.213 165.163ZM306.154 159.364C308.591 158.484 311.089 158.889 313.534 159.487C314.486 159.719 316.42 158.31 314.968 157.955C311.601 157.131 308.425 156.883 305.116 158.077C304.709 158.226 304.156 158.792 304.515 159.238C304.906 159.719 305.669 159.54 306.154 159.364ZM287.689 159.349C288.023 158.879 287.406 158.664 287.037 158.664C284.986 158.664 282.934 158.664 280.883 158.664C280.337 158.664 279.611 158.849 279.274 159.32C278.939 159.79 279.556 160.005 279.925 160.005C281.976 160.005 284.028 160.005 286.08 160.005C286.625 160.006 287.351 159.821 287.689 159.349ZM352.597 158.423C345.683 161.293 344.287 169.279 344.207 176.018C344.12 183.308 345.813 194.164 352.493 198.526C353.084 198.913 355.152 197.927 354.784 197.686C349.255 194.077 347.592 185.974 346.883 179.891C346.148 173.585 346.309 161.98 353.449 159.016C355.045 158.354 353.533 158.035 352.597 158.423ZM441.63 395.09C441.777 395.802 439.333 396.399 439.197 395.742C439.174 395.634 439.153 395.524 439.131 395.416C438.612 392.901 438.129 390.378 437.672 387.849C437.42 386.455 437.176 385.059 436.94 383.66C431.664 352.351 430.177 320.145 420.769 289.743C416.591 276.243 410.486 261.692 398.707 253.063C396.537 251.473 394.268 250.195 391.924 249.137C391.239 248.828 390.549 248.535 389.852 248.262C384.909 246.326 379.658 245.237 374.258 244.255C369.657 243.418 364.09 242.784 359.759 240.422C359.495 240.279 359.242 240.123 358.988 239.965C359.03 240.085 359.072 240.202 359.113 240.322C361.378 246.714 363.475 253.148 366.013 259.441C366.579 260.846 367.161 262.245 367.78 263.631C367.849 263.785 367.77 263.942 367.61 264.087C367.492 264.351 367.234 264.602 366.773 264.741C365.497 265.127 364.244 265.606 363.019 266.16C357.471 268.666 352.493 272.768 348.494 277.203C348.336 277.379 348.091 277.496 347.824 277.565C347.904 277.591 347.971 277.627 348.012 277.683C353.681 285.359 358.513 293.721 362.063 302.586C362.068 302.601 362.075 302.612 362.08 302.627C363.307 301.687 364.552 300.786 365.766 299.885C371.289 295.787 376.145 291.632 375.514 283.149C375.488 282.804 375.834 282.519 376.272 282.34C376.315 282.261 376.36 282.187 376.405 282.113C376.64 281.717 376.891 281.354 377.173 281.035C378.204 279.87 379.556 279.16 381.355 278.579C381.718 278.461 382.461 278.333 382.7 278.735C382.895 279.062 383.066 279.39 383.223 279.718C384.32 277.345 386.091 275.499 388.081 273.713C388.497 273.341 389.744 272.869 390.192 273.451C390.95 274.441 391.497 275.5 391.875 276.608C391.883 276.629 391.89 276.652 391.896 276.672C391.927 276.641 391.954 276.611 391.995 276.579C392.004 276.57 392.013 276.565 392.022 276.559C395.413 273.8 397.818 275.103 397.363 279.417C397.305 279.974 397.225 280.529 397.146 281.083C397.788 280.751 398.907 280.467 399.133 280.868C403.752 289.068 399.115 296.668 393.987 303.443C394.297 303.384 394.575 303.384 394.731 303.496C398.135 305.95 392.481 312.834 391.065 314.986C388.818 318.399 385.149 322.828 383.881 327.287C384.169 327.366 384.406 327.537 384.508 327.832C384.54 327.925 384.578 328.016 384.611 328.109C385.181 328.133 385.554 328.329 385.007 328.766C384.971 328.794 384.936 328.819 384.901 328.849C386.549 332.76 389.757 336.205 392.521 339.286C396.952 344.226 401.662 348.907 406.398 353.551C414.32 361.321 423.63 368.905 429.805 378.223C429.863 378.31 429.895 378.397 429.916 378.482C430.151 379.447 428.159 380.182 427.581 379.309C421.026 369.422 411.053 361.438 402.676 353.166C398.044 348.592 393.386 344.002 389.144 339.061C387.13 336.713 384.967 334.229 383.424 331.467C383.063 331.999 381.101 332.343 381.051 331.923C381.04 331.828 381.041 331.732 381.033 331.639C380.962 331.685 380.893 331.732 380.821 331.778C374.724 335.699 368.137 337.973 360.82 339.14C367.532 356.375 374.672 373.571 380.436 391.145C380.753 392.113 378.328 392.794 378.003 391.798C372.161 373.982 364.902 356.555 358.11 339.085C357.818 338.333 359.321 337.735 360.12 338.04C360.423 337.996 360.727 337.953 361.027 337.906C361.254 337.87 361.478 337.829 361.704 337.791C361.673 337.766 361.643 337.743 361.619 337.712C361.42 337.449 361.224 337.187 361.027 336.921C354.718 328.404 349.288 317.578 355.952 308.479C356.55 307.661 357.235 306.858 358.036 306.072C358.053 306.055 358.069 306.041 358.087 306.024C357.395 306.472 356.715 306.935 356.044 307.407C339.187 319.304 328.562 339.034 314.279 353.559C314.365 354.253 312.788 354.972 312.082 354.494C311.989 354.432 311.903 354.354 311.813 354.289C301.212 351.294 293.54 339.734 288.2 330.887C282.359 321.209 275.697 309.144 275.497 297.517C275.497 297.505 275.501 297.496 275.502 297.484C275.489 297.4 275.513 297.298 275.585 297.179C280.019 289.734 285.656 282.897 288.423 274.581C288.462 274.463 288.553 274.356 288.672 274.261C288.27 274.338 287.919 274.327 287.806 274.132C285.138 269.493 282.286 264.961 279.19 260.591C279.075 260.432 280.386 259.781 281.152 259.774C288.899 253.468 295.505 246.022 302.189 238.644C302.455 238.349 302.725 238.056 302.993 237.759C301.151 238.791 299.258 239.718 297.324 240.558C295.33 241.423 293.3 242.214 291.243 242.949C287.393 244.326 283.466 245.544 279.576 246.846C274.648 248.496 269.782 250.282 265.226 252.718C257.794 256.691 251.176 262.127 246.935 269.519C244.524 273.719 242.869 278.197 241.758 282.82C240.693 287.256 240.135 291.828 239.907 296.417C239.907 297.249 239.907 298.08 239.907 298.916C239.907 315.278 239.907 331.641 239.907 348.004C239.907 348.237 239.766 348.44 239.554 348.595C240.635 356.072 236.122 363.819 227.896 363.605C227.848 363.612 227.8 363.619 227.755 363.619C225.893 363.619 224.03 363.619 222.168 363.619C217.925 373.657 215.043 384.607 212.861 395.248C212.849 395.306 212.818 395.364 212.779 395.42C212.33 396.058 210.283 396.347 210.438 395.592C212.644 384.83 215.563 373.749 219.886 363.619C196.393 363.619 172.9 363.619 149.407 363.619C149.407 365.578 149.407 367.536 149.407 369.495C149.407 369.499 149.412 369.504 149.412 369.507C149.435 370.598 149.269 371.803 148.573 372.668C153.534 372.668 158.494 372.668 163.454 372.668C163.794 372.668 163.985 372.729 164.077 372.821C165.549 372.797 167.957 372.92 168.312 374.424C168.474 374.472 168.579 374.557 168.579 374.689C168.579 380.656 168.579 386.621 168.579 392.588C168.579 392.686 168.543 392.778 168.489 392.865C168.641 393.626 168.125 394.381 167.49 394.817C166.22 395.686 164.657 396.02 163.133 395.988C162.985 395.985 162.719 395.957 162.555 395.867C144.058 395.867 125.561 395.867 107.065 395.867C106.894 395.889 106.723 395.908 106.554 395.911C105.265 395.937 101.899 395.306 102.499 393.376C102.437 393.291 102.4 393.187 102.4 393.058C102.4 387.093 102.4 381.127 102.4 375.16C102.4 374.979 102.516 374.815 102.691 374.678C103.271 372.604 106.764 372.478 108.442 372.538C108.597 372.543 108.753 372.591 108.887 372.666C114.371 372.666 119.854 372.666 125.338 372.666C124.897 371.647 124.871 370.305 124.908 369.289C124.908 369.277 124.913 369.268 124.914 369.256C124.914 367.414 124.914 365.569 124.914 363.727C106.382 363.727 87.8496 363.727 69.318 363.727C69.0787 363.727 68.8897 363.689 68.7385 363.629C61.2748 363.357 57.6748 355.707 58.755 348.866C58.5215 348.754 58.3652 348.56 58.3652 348.259C58.3652 312.975 58.3652 277.691 58.3652 242.408C58.3652 242.067 58.6651 241.794 59.054 241.629C59.3211 238.434 60.5508 235.483 63.4393 233.738C65.9356 232.231 68.8082 231.732 71.6808 231.835C71.8975 231.624 72.2125 231.475 72.6106 231.475C123.896 231.475 175.181 231.475 226.466 231.475C226.923 231.475 227.218 231.624 227.38 231.834C233.805 231.482 238.867 234.727 239.249 241.464C239.622 241.535 239.907 241.747 239.907 242.15C239.907 255.368 239.907 268.585 239.907 281.802C243.023 270.675 249.206 260.977 259.644 254.306C260.54 253.731 261.459 253.175 262.419 252.649C265.331 251.049 268.379 249.723 271.489 248.525C280.18 245.182 289.389 242.896 297.737 238.937C296.65 238.829 294.874 238.658 292.805 238.481C280.241 239.532 266.182 236.685 258.503 227.862C251.261 219.543 251.534 207.907 255.35 198.07C259.495 187.391 266.838 177.281 265.472 165.295C265.455 165.14 265.539 164.998 265.683 164.872C258.238 143.888 270.251 118.062 291.79 112.322C291.526 112.285 291.405 112.183 291.601 111.994C303.728 100.445 322.715 103.173 335.599 112.097C336.531 112.743 337.457 113.415 338.373 114.113C354.57 113.504 361.761 128.159 364.713 143.196C365.182 144.254 365.638 145.278 366.043 146.191C366.474 146.132 366.886 146.212 367.072 146.511C370.114 151.438 373.283 156.285 376.396 161.166C378.549 164.543 380.706 167.943 382.783 171.395L383.885 172.872L384.422 174.162C387.058 178.69 389.512 183.317 391.584 188.115C395.027 196.085 398.065 205.214 396.646 214.022C395.161 223.228 389.774 229.959 382.202 233.753C382.2 233.756 382.195 233.76 382.191 233.763C381.71 234.239 380.322 234.766 378.575 235.279C377.081 235.805 375.529 236.24 373.917 236.564C373.101 236.727 372.271 236.864 371.433 236.992C369.062 237.484 367.247 237.806 367.247 237.806C367.247 237.806 366.701 237.697 365.798 237.514C363.44 237.591 361.069 237.49 358.743 237.156C361.066 239.558 364.344 240.97 367.927 241.908C369.178 242.235 370.465 242.506 371.761 242.741C376.083 243.526 380.5 243.918 383.965 244.748C390.908 246.41 397.406 248.971 402.873 253.677C413.66 262.964 419.553 276.689 423.502 290.061C432.693 321.199 434.193 353.933 439.853 385.801C440.038 386.834 440.224 387.87 440.418 388.901C440.799 390.972 441.202 393.034 441.63 395.09ZM124.91 330.588C124.91 325.232 124.91 319.876 124.91 314.519C124.869 313.396 124.832 311.847 125.523 310.879C125.861 310.406 126.311 310.079 126.819 309.86C127.148 309.529 127.847 309.182 128.283 309.182C134.248 309.182 140.214 309.182 146.179 309.182C146.466 309.182 146.642 309.222 146.742 309.286C147.301 309.277 147.842 309.413 148.261 309.794C149.209 310.655 149.428 311.989 149.403 313.207C149.403 319.153 149.403 325.098 149.403 331.043C149.405 331.043 149.409 331.043 149.41 331.043C157.096 331.043 164.781 331.043 172.466 331.043C172.74 330.982 173.022 330.957 173.296 330.967C174.351 331.005 175.055 329.489 175.285 328.636C175.561 327.609 175.585 326.609 175.334 325.574C175.294 325.41 175.401 325.25 175.586 325.109C175.586 310.987 175.586 296.866 175.586 282.745C175.433 282.717 175.336 282.659 175.334 282.569C175.283 280.382 174.01 278.868 171.946 278.738C171.72 278.836 171.491 278.902 171.297 278.902C150.568 278.902 129.839 278.902 109.11 278.902C108.818 279.022 108.489 279.069 108.206 279.046C107.492 278.987 106.553 278.979 106.002 279.532C105.291 280.246 105.116 281.16 105.094 282.139C105.089 282.332 104.989 282.507 104.834 282.647C104.834 296.704 104.834 310.762 104.834 324.82C104.997 324.857 105.094 324.93 105.066 325.045C104.62 326.883 105.194 329.828 107.037 330.764C107.227 330.656 107.46 330.587 107.73 330.587C113.459 330.588 119.184 330.588 124.91 330.588ZM127.271 310.547C127.45 310.533 127.58 310.515 127.689 310.494C127.545 310.52 127.403 310.536 127.271 310.547ZM127.707 310.489C127.797 310.472 127.865 310.456 127.914 310.439C127.912 310.439 127.91 310.439 127.908 310.439C127.842 310.456 127.775 310.478 127.707 310.489ZM146.043 374.031C145.773 374.177 145.479 374.277 145.229 374.277C139.263 374.277 133.297 374.277 127.331 374.277C126.9 374.277 126.697 374.177 126.643 374.031C120.571 374.031 114.5 374.031 108.428 374.031C108.146 374.136 107.835 374.179 107.558 374.169C106.899 374.144 105.127 373.948 105.063 374.902C105.052 375.076 104.965 375.229 104.836 375.361C104.836 381.021 104.836 386.683 104.836 392.344C105.005 392.373 105.115 392.446 105.036 392.597C104.127 394.346 107.032 394.939 108.129 394.918C108.22 394.917 108.279 394.935 108.339 394.953C126.686 394.953 145.034 394.953 163.38 394.953C163.641 394.872 163.91 394.825 164.137 394.83C164.715 394.842 165.416 394.886 165.816 394.384C166.125 393.995 166.149 393.569 165.922 393.134C165.853 393.003 165.951 392.85 166.142 392.708C166.142 386.978 166.142 381.246 166.142 375.513C166.012 375.482 165.928 375.426 165.922 375.339C165.84 374.107 164.331 373.876 163.18 373.854C162.944 373.961 162.703 374.032 162.501 374.032C157.015 374.031 151.529 374.031 146.043 374.031ZM146.461 372.664C146.481 372.628 146.507 372.597 146.525 372.559C146.86 371.865 146.966 371.136 146.971 370.375C146.971 370.374 146.97 370.374 146.97 370.374C146.97 351.536 146.97 332.699 146.97 313.863C146.988 312.972 146.906 311.99 146.429 311.209C146.269 310.948 146.054 310.693 145.787 310.533C145.768 310.521 145.744 310.518 145.723 310.509C145.348 310.62 144.941 310.671 144.599 310.555C144.509 310.524 144.457 310.484 144.421 310.44C138.94 310.44 133.458 310.44 127.976 310.44C127.921 310.493 127.833 310.596 127.748 310.799C127.638 311.065 127.542 311.338 127.486 311.622C127.339 312.368 127.317 313.113 127.344 313.871C127.344 319.532 127.344 325.193 127.344 330.857C127.681 331.165 127.654 331.679 127.344 332.048C127.344 344.242 127.344 356.436 127.344 368.63C127.344 368.689 127.334 368.748 127.316 368.802C127.344 368.879 127.363 368.963 127.359 369.062C127.33 369.85 127.337 370.673 127.559 371.437C127.648 371.744 127.831 372.494 128.236 372.521C128.399 372.532 128.567 372.584 128.707 372.668C134.624 372.664 140.542 372.664 146.461 372.664ZM232.321 361.408C236.713 359.169 237.975 352.484 236.844 347.826C236.762 347.49 237.048 347.193 237.449 346.995C237.449 332.193 237.449 317.39 237.449 302.588C237.378 302.501 237.336 302.395 237.336 302.258C237.332 300.688 237.372 299.125 237.449 297.576C237.449 279.328 237.449 261.082 237.449 242.834C237.104 242.838 236.848 242.763 236.844 242.59C236.707 236.58 232.903 233.018 227.269 232.934C227.053 233.181 226.712 233.359 226.273 233.359C174.988 233.359 123.703 233.359 72.4183 233.359C71.9277 233.359 71.6228 233.19 71.4691 232.955C71.3305 232.987 71.2096 233.006 71.1231 232.998C65.1763 232.504 61.5545 236.087 61.4209 241.965C61.4151 242.221 61.158 242.432 60.8153 242.585C60.8153 277.334 60.8153 312.083 60.8153 346.834C61.2202 346.861 61.5091 347.03 61.4235 347.383C59.983 353.318 62.4305 361.335 69.0501 362.135C69.2021 362.081 69.371 362.047 69.5574 362.047C88.0084 362.047 106.459 362.047 124.909 362.047C124.909 352.195 124.909 342.344 124.909 332.492C119.122 332.492 113.335 332.492 107.548 332.492C107.003 332.492 106.686 332.282 106.552 332.004C103.629 331.673 102.108 328.941 102.558 326.04C102.459 325.947 102.396 325.823 102.396 325.658C102.396 311.238 102.396 296.818 102.396 282.399C102.396 282.222 102.506 282.062 102.675 281.926C102.997 278.688 105.968 277.157 109.085 277.418C109.227 277.43 109.373 277.472 109.502 277.539C130.416 277.539 151.331 277.539 172.246 277.539C172.569 277.539 172.76 277.592 172.857 277.678C173.968 277.644 175.16 277.793 176.079 278.425C177.194 279.189 177.667 280.357 177.75 281.657C177.913 281.705 178.019 281.79 178.019 281.921C178.019 296.341 178.019 310.759 178.019 325.179C178.019 325.305 177.964 325.42 177.879 325.525C178.445 329.287 175.607 332.251 171.756 332.11C171.63 332.105 171.534 332.078 171.465 332.035C164.11 332.035 156.757 332.035 149.403 332.035C149.403 342.091 149.403 352.147 149.403 362.202C149.511 362.174 149.618 362.156 149.717 362.156C175.98 362.156 202.244 362.156 228.508 362.156C228.564 362.156 228.62 362.156 228.677 362.156C228.758 362.156 228.824 362.162 228.89 362.169C230.196 362.184 231.337 361.91 232.321 361.408ZM341.729 162.89C341.081 163.55 340.521 164.198 340.122 164.683C340.225 164.74 340.327 164.799 340.43 164.856C340.825 164.162 341.259 163.506 341.729 162.89ZM337.106 126.293C332.674 121.054 327.054 116.381 320.781 113.603C323.032 114.75 326.193 116.657 330.253 119.817C332.776 121.783 335.087 124.051 337.106 126.293ZM314.736 111.594C313.951 111.421 313.161 111.277 312.365 111.17L314.736 111.594ZM314.324 230.945C314.574 236.688 311.685 242.576 307.215 246.228C304.138 255.627 301.775 265.438 300.398 275.219C300.393 275.254 300.39 275.287 300.385 275.321C310.224 275.321 320.065 275.321 329.905 275.321C333.985 260.302 338.662 245.416 344.744 231.174C334.82 222.586 338.297 207.93 342.815 197.407C343.003 196.969 343.69 196.715 344.277 196.714C343.314 195.892 342.447 194.941 341.68 193.881C341.673 193.887 341.669 193.892 341.663 193.897C335.099 198.542 328.517 203.993 320.367 205.288C320.308 205.389 320.168 205.475 320.104 205.514C319.636 205.798 318.935 206.027 318.383 205.975C318.213 205.959 318.043 205.946 317.873 205.941C317.836 205.94 317.671 205.945 317.583 205.946C317.564 205.964 317.544 205.981 317.525 205.999C317.505 206.024 317.468 206.071 317.459 206.086C317.183 206.521 317.211 207.054 317.524 207.518C317.633 207.679 317.832 207.864 318.059 207.982C318.109 207.938 318.158 207.894 318.203 207.845C318.623 207.406 318.934 206.871 319.208 206.332C319.418 205.917 320.241 205.755 320.639 205.683C320.744 205.665 321.799 205.51 321.606 205.891C320.871 207.338 319.777 208.501 318.146 208.88C317.094 209.123 315.839 209.228 315.137 208.241C314.683 207.602 314.763 206.791 315.301 206.23C315.805 205.704 316.585 205.41 317.273 205.233C317.763 205.108 318.259 205.032 318.759 205.001C318.947 204.726 319.47 204.412 319.995 204.346C327.579 203.406 333.739 197.972 339.768 193.705C340.023 193.524 340.794 193.386 341.342 193.394C336.381 186.047 335.89 174.099 339.808 166.045C339.349 166.219 338.829 166.284 338.528 166.119C329.389 161.097 320.573 155.343 312.305 148.988C305.716 143.923 298.911 138.465 293.891 131.73C293.363 133.896 292.446 136.022 291.321 138.068C290.811 139.72 289.399 141.674 287.882 143.427C286.928 144.754 285.959 146.023 285.043 147.212C282.154 150.962 279.096 154.612 275.798 158.01C275.644 158.168 275.316 158.294 274.95 158.375C274.025 166.404 273.313 174.458 273.664 182.514C274.136 193.37 276.674 208.249 287.062 214.314C294.535 218.677 307.375 215.758 312.347 224.137C313.144 225.482 313.678 226.902 313.998 228.356C314.186 229.209 314.286 230.074 314.324 230.945ZM317.398 205.957C317.407 205.955 317.408 205.954 317.415 205.952H317.413C317.408 205.954 317.406 205.955 317.398 205.957ZM354.134 131.769C354.441 132.337 354.733 132.907 355.012 133.481C354.75 132.855 354.457 132.282 354.134 131.769ZM361.704 196.935C361.021 197.516 360.277 198.022 359.478 198.451L361.025 198.107C361.025 198.107 361.273 197.694 361.704 196.935ZM346.181 198.073C345.836 197.869 345.499 197.654 345.175 197.421C345.163 197.478 345.148 197.539 345.121 197.603C345.096 197.662 345.07 197.723 345.046 197.782L346.181 198.073ZM323.324 301.123C325.272 293.173 327.258 285.176 329.395 277.208C319.649 277.208 309.904 277.208 300.159 277.208C299.18 285.574 299.441 293.81 300.133 302.237C300.973 312.482 302.203 322.791 304.573 332.807C305.953 338.637 307.599 347.062 312.232 351.668C315.321 334.711 319.224 317.855 323.324 301.123ZM293.908 111.829C295.941 111.424 298.052 111.19 300.232 111.157C300.482 111.152 300.674 111.189 300.826 111.247C313.498 107.554 327.079 112.151 336.112 121.724C345.845 132.038 350.74 143.766 349.423 157.849C350.599 157.608 351.856 157.521 353.201 157.622C354.401 157.712 352.113 158.622 351.614 158.585C350.805 158.524 350.051 158.581 349.341 158.73C349.326 158.867 349.321 158.999 349.304 159.135C349.235 159.713 347.225 160.16 346.933 159.69C341.37 163.115 339.747 173.495 339.938 178.982C340.208 186.721 343.274 197.401 352.302 198.763C363.955 200.521 366.614 185.491 365.935 176.886C365.474 171.03 363.357 162.027 357.776 158.664C357.518 158.645 357.34 158.57 357.343 158.429C357.343 158.425 357.343 158.421 357.343 158.418C355.941 157.67 354.334 157.268 352.49 157.344C350.883 157.41 352.933 156.427 353.555 156.401C354.807 156.349 355.96 156.48 357.031 156.749C357.057 156.392 357.154 154.954 357.212 152.902C356.262 139.192 350.509 127.443 339.727 118.058C338.878 117.317 337.986 116.589 337.061 115.875C336.772 115.81 336.602 115.659 336.53 115.471C324.319 106.252 306.395 100.036 293.908 111.829ZM308.566 351.011C305.112 346.294 303.561 339.475 302.35 334.356C299.84 323.745 298.446 312.854 297.628 301.989C296.917 292.573 296.631 283.399 298.146 274.037C299.624 264.908 301.749 255.816 304.572 246.998C304.45 246.969 304.416 246.913 304.534 246.824C304.576 246.792 304.617 246.755 304.658 246.722C304.804 246.274 304.942 245.821 305.091 245.372C305.281 244.796 306.186 244.532 306.822 244.671C310.059 241.009 312.287 235.554 311.988 230.622L311.271 231.15C309.412 233.092 307.587 235.065 305.776 237.051C305.69 237.143 305.606 237.238 305.521 237.332C298.212 245.356 291.084 253.543 282.584 260.371C282.48 260.453 282.289 260.527 282.065 260.586C284.987 264.756 287.697 269.064 290.236 273.479C290.281 273.558 290.136 273.684 289.902 273.815C290.48 273.753 290.979 273.874 290.85 274.259C288.062 282.642 282.423 289.549 277.936 297.044C278.187 307.912 284.151 319.298 289.541 328.413C293.986 335.928 300.26 346.177 308.566 351.011ZM364.584 302.591C360.898 305.275 356.838 308.914 355.524 313.491C355.288 314.314 355.13 315.159 355.089 316.041C355.056 316.758 355.078 317.463 355.126 318.165C355.595 325.111 359.772 331.363 363.881 336.776C364.043 336.991 363.958 337.213 363.749 337.403C370.063 336.093 375.718 333.779 381.036 329.968C381.492 325.269 385.259 320.57 387.666 316.928C388.968 314.954 394.978 307.685 392.932 304.819C391.672 306.447 390.418 308.024 389.298 309.549C388.875 310.127 386.743 310.196 386.899 309.985C392.387 302.514 401.158 293.739 397.838 284.062C397.611 283.406 397.33 282.745 396.989 282.081C396.92 282.486 396.851 282.895 396.773 283.298C395.957 287.549 394.638 291.72 393.403 295.845C393.168 296.63 390.733 296.979 390.975 296.173C392.018 292.692 393.075 289.21 393.882 285.664C394.324 283.719 394.777 281.738 394.934 279.743C395.004 278.848 395.385 275.728 393.928 276.92C393.591 277.198 392.592 277.33 392.064 277.211C392.219 277.759 392.332 278.32 392.411 278.889C392.44 279.099 392.465 279.309 392.486 279.521C393.093 286.118 389.151 293.754 386.478 299.082C386.104 299.829 383.66 300.078 384.202 298.995C387.261 292.899 392.35 283.086 388.991 276.153C388.881 275.926 388.763 275.705 388.634 275.485C387.868 276.243 387.164 277.034 386.562 277.901C385.95 278.786 385.446 279.747 385.1 280.843C385 281.161 384.597 281.406 384.146 281.543C384.077 281.563 384.007 281.581 383.938 281.596C383.957 281.667 383.979 281.739 383.996 281.81C385.817 288.764 380.369 295.59 376.17 301.006C375.763 301.531 373.364 301.826 373.938 301.085C378.541 295.148 384.601 287.593 380.585 279.971C379.203 280.68 378.678 281.699 378.09 283.234C378.067 283.293 378.024 283.349 377.973 283.403C378.284 293.027 371.812 297.327 364.584 302.591ZM365.051 263.595C361.662 255.855 359.142 247.835 356.3 239.9C356.007 239.082 355.706 238.268 355.405 237.452C355.278 237.106 355.152 236.759 355.022 236.413C351.963 235.61 349.057 234.344 346.462 232.511C346.419 232.613 346.375 232.713 346.333 232.814C337.105 254.968 331.132 278.626 325.491 301.869C321.546 318.122 317.749 334.476 314.734 350.938C329.381 334.997 340.627 314.542 359.878 303.772C359.848 303.743 359.825 303.709 359.809 303.669C356.277 294.727 351.435 286.268 345.728 278.54C345.474 278.197 346.211 277.777 346.922 277.603C346.333 277.505 345.943 277.145 346.476 276.555C350.841 271.71 356.25 267.371 362.288 264.689C363.194 264.287 364.117 263.92 365.051 263.595ZM105.115 162.554C100.618 151.464 101.92 138.761 108.309 128.64C125.178 101.914 165.202 99.2875 192.481 109.207C206.247 114.213 224.803 125.39 226.134 141.698C227.327 156.313 218.68 172.504 204.455 177.469C207.652 181.646 211.983 186.466 217.477 187.077C217.519 187.07 217.56 187.066 217.6 187.06C218.02 187.005 218.279 187.043 218.415 187.139C218.675 187.144 218.934 187.156 219.199 187.141C220.824 187.054 218.923 188.24 218.187 188.278C217.946 188.292 217.713 188.282 217.475 188.282C217.4 188.301 217.324 188.319 217.246 188.329C208.966 189.446 200.133 189.573 193.399 184.182C184.608 189.239 173.534 190.037 163.625 189.781C151.743 189.474 139.509 187.814 128.298 183.709C118.003 179.94 109.344 172.985 105.115 162.554ZM105.235 153.766C106.801 162.993 112.101 172.085 119.997 177.347C126.38 181.602 134.23 183.827 141.671 185.358C150.671 187.211 159.946 188.245 169.143 187.919C177.025 187.637 185.656 186.788 192.536 182.579C193.096 182.204 194.173 181.951 194.558 182.31C199.772 187.149 206.424 187.985 213.123 187.531C208.634 185.938 205.038 182.094 202.132 178.29C201.973 178.082 202.145 177.853 202.452 177.66C201.957 177.257 202.074 176.363 203.078 176.052C218.367 171.317 228.758 149.69 221.775 134.902C214.822 120.18 196.515 111.308 181.382 108.135C165.51 104.805 147.683 105.102 132.42 111.06C115.72 117.579 102.068 135.111 105.235 153.766ZM137.097 137.994C136.677 137.508 137.226 136.606 138.218 136.606C150.898 136.606 163.578 136.606 176.257 136.606C176.909 134.843 177.546 133.076 178.135 131.291C179.732 126.448 187.348 127.582 191.456 127.808C193.107 127.899 191.723 129.561 190.593 129.499C188.364 129.377 186.094 129.324 183.872 129.543C181.917 129.735 181.108 129.594 180.45 131.522C179.683 133.771 178.888 136.009 178.041 138.227C174.675 147.055 170.758 155.711 167.921 164.733C167.887 164.84 167.825 164.936 167.749 165.026C167.92 165.028 168.111 165.081 168.255 165.177C168.764 165.021 169.326 164.999 169.599 165.248C170.762 166.309 171.298 168.129 170.423 169.544C169.441 171.134 167.09 171.834 165.345 171.246C163.846 170.742 162.676 169.177 163.378 167.569C163.832 166.529 164.638 165.853 165.597 165.458C165.454 165.346 165.388 165.179 165.463 164.943C165.971 163.327 166.519 161.726 167.086 160.131C167.027 160.138 166.967 160.145 166.904 160.145C159.177 160.145 151.451 160.145 143.724 160.145C144.01 161.599 144.299 163.054 144.57 164.511C144.614 164.746 144.533 164.958 144.383 165.138C144.855 165.019 145.347 165.019 145.596 165.246C146.759 166.307 147.296 168.127 146.42 169.543C145.438 171.133 143.087 171.833 141.342 171.244C139.843 170.74 138.674 169.175 139.375 167.568C139.917 166.326 140.958 165.601 142.169 165.26C142.157 165.229 142.142 165.2 142.135 165.164C141.429 161.378 140.666 157.607 139.897 153.836C139.529 153.621 139.5 153.223 139.705 152.886C138.738 148.146 137.766 143.409 136.88 138.654C136.836 138.403 136.928 138.181 137.097 137.994ZM144.389 168.656C144.465 167.747 144.086 166.95 143.458 166.327C143.224 166.387 142.985 166.424 142.767 166.431C142.044 166.456 141.583 167.498 141.635 168.124C141.707 168.981 142.314 169.98 143.284 170.009C143.937 170.027 144.324 169.453 144.389 168.656ZM168.391 168.656C168.467 167.747 168.088 166.95 167.46 166.327C167.226 166.387 166.987 166.424 166.769 166.431C166.045 166.456 165.584 167.498 165.637 168.124C165.709 168.981 166.316 169.98 167.286 170.009C167.94 170.027 168.325 169.453 168.391 168.656ZM169.392 153.991C160.427 153.991 151.462 153.991 142.496 153.991C142.798 155.478 143.099 156.964 143.395 158.453C151.31 158.453 159.227 158.453 167.142 158.453C167.353 158.453 167.529 158.481 167.672 158.53C168.231 157.011 168.803 155.497 169.392 153.991ZM172.341 146.605C161.894 146.605 151.447 146.605 141.001 146.605C141.384 148.504 141.768 150.402 142.154 152.297C151.453 152.297 160.753 152.297 170.052 152.297C170.805 150.398 171.574 148.502 172.341 146.605ZM139.373 138.298C139.793 140.539 140.231 142.777 140.678 145.012C140.836 144.952 141.014 144.913 141.211 144.913C151.815 144.913 162.42 144.913 173.025 144.913C173.911 142.716 174.778 140.512 175.621 138.298C163.537 138.298 151.455 138.298 139.373 138.298ZM259.925 329.937C259.522 322.889 260.608 315.827 260.288 308.762C260.253 308.006 257.811 308.493 257.854 309.414C258.158 316.108 257.388 322.748 257.455 329.435C257.534 337.298 260.401 343.847 263.874 350.732C270.731 364.329 271.745 380.445 271.801 395.416C271.801 395.524 271.803 395.634 271.804 395.742C271.806 396.384 273.667 396.115 274.132 395.416C274.199 395.316 274.237 395.206 274.237 395.087C274.194 379.796 272.944 364.083 266.309 350.078C263.13 343.378 260.356 337.477 259.925 329.937Z" fill="#3C4B91"/>
<defs>
<linearGradient id="paint0_linear_1098_4798" x1="326.593" y1="228.354" x2="326.593" y2="395.421" gradientUnits="userSpaceOnUse">
<stop stop-color="#FFBD55"/>
<stop offset="1" stop-color="#FFF2C5"/>
</linearGradient>
</defs>
</svg>
