<svg width="250" height="196" viewBox="0 0 250 196" fill="none" xmlns="http://www.w3.org/2000/svg">
<path d="M193.882 138.522C193.786 138.54 193.69 138.581 193.6 138.655C193.487 138.751 193.382 138.849 193.282 138.95C193.582 138.515 193.935 138.12 194.318 137.741C194.382 137.851 194.441 137.961 194.496 138.076C194.236 138.081 193.962 138.246 193.882 138.522ZM183.962 120.955C184.587 121.119 185.231 121.255 185.879 121.372C185.227 121.223 184.586 121.084 183.962 120.955ZM192.074 140.771C192.039 140.781 192.005 140.79 191.97 140.797C191.979 140.833 191.99 140.869 191.999 140.904C192.015 140.883 192.028 140.86 192.043 140.839C192.053 140.815 192.063 140.793 192.074 140.771ZM196.47 139.78C196.477 139.772 196.484 139.764 196.491 139.755C196.492 139.729 196.494 139.7 196.493 139.673C196.489 139.49 196.531 139.378 196.572 139.316C196.516 139.348 196.423 139.388 196.274 139.43C196.25 139.437 196.229 139.439 196.206 139.443C196.221 139.547 196.233 139.652 196.243 139.758C196.319 139.754 196.396 139.757 196.47 139.78ZM198.494 141.039C198.46 141.242 198.425 141.446 198.386 141.648C198.429 141.664 198.471 141.685 198.514 141.713C198.664 141.813 198.796 141.92 198.919 142.031C198.805 141.702 198.664 141.372 198.494 141.039ZM219.925 192.902C220.017 193.42 220.11 193.937 220.207 194.453V193.11L219.925 192.902ZM141.293 130.185C141.242 130.226 141.146 130.263 141.034 130.292C142.495 132.377 143.85 134.531 145.119 136.739C145.142 136.778 145.069 136.841 144.952 136.907C145.241 136.876 145.491 136.936 145.426 137.129C144.032 141.32 141.213 144.774 138.97 148.521C139.095 153.955 142.077 159.648 144.772 164.206C146.994 167.963 150.131 173.088 154.284 175.505C152.557 173.147 151.782 169.737 151.176 167.178C149.921 161.873 149.224 156.426 148.814 150.994C148.46 146.286 148.316 141.699 149.074 137.018C149.813 132.454 150.876 127.908 152.287 123.498C152.226 123.484 152.209 123.456 152.268 123.411C152.289 123.395 152.309 123.377 152.33 123.361C152.403 123.136 152.472 122.91 152.546 122.686C152.642 122.398 153.094 122.266 153.412 122.335C155.03 120.504 156.145 117.777 155.995 115.311L155.636 115.575C154.707 116.546 153.794 117.532 152.889 118.525C152.836 118.6 152.802 118.649 152.802 118.649L152.761 118.665C149.107 122.677 145.543 126.772 141.293 130.185ZM156.999 114.177C157.093 114.605 157.143 115.038 157.163 115.472C157.395 114.709 157.392 114.21 156.999 114.177ZM179.939 151.886C179.924 151.872 179.912 151.854 179.904 151.835C178.138 147.364 175.717 143.134 172.864 139.27C172.737 139.099 173.105 138.889 173.461 138.802C173.166 138.752 172.971 138.573 173.238 138.278C175.42 135.855 178.124 133.686 181.144 132.345C181.598 132.143 182.059 131.96 182.527 131.797C180.832 127.927 179.572 123.917 178.151 119.95C178.004 119.541 177.854 119.134 177.703 118.726L173.167 116.408C168.553 127.484 165.567 139.314 162.746 150.935C160.773 159.061 158.875 167.238 157.368 175.469C164.691 167.5 170.313 157.272 179.939 151.886ZM135.742 124.262C133.974 124.815 131.909 125.707 129.82 127.152C130.268 126.865 130.728 126.587 131.208 126.323C132.664 125.524 134.188 124.861 135.742 124.262ZM114.445 181.084C115.098 181.093 115.669 180.955 116.161 180.705C115.583 180.855 114.919 180.978 114.254 181.078C114.282 181.078 114.31 181.078 114.339 181.078C114.379 181.077 114.413 181.081 114.445 181.084ZM177.563 159.082L177.763 156.746C177.645 157.157 177.566 157.58 177.545 158.02C177.529 158.378 177.54 158.731 177.563 159.082ZM218.47 191.831C215.832 176.176 215.089 160.073 210.385 144.871C208.296 138.123 205.243 130.846 199.354 126.531C198.268 125.736 197.134 125.098 195.962 124.569C195.62 124.42 195.275 124.273 194.926 124.132C192.455 123.164 189.829 122.619 187.129 122.128C184.829 121.709 182.045 121.392 179.88 120.212C179.77 120.194 179.663 120.178 179.557 120.161C180.689 123.357 181.738 126.575 183.007 129.721C183.29 130.423 183.58 131.122 183.89 131.816C183.924 131.893 183.885 131.972 183.805 132.044C183.746 132.176 183.617 132.302 183.387 132.371C182.748 132.563 182.122 132.803 181.51 133.08C178.736 134.334 176.246 136.384 174.247 138.603C174.168 138.69 174.046 138.749 173.912 138.783C173.952 138.796 173.986 138.815 174.006 138.843C176.841 142.68 179.256 146.862 181.032 151.294L182.883 149.943C185.644 147.894 188.072 145.816 187.757 141.576C187.744 141.403 187.917 141.261 188.136 141.171C188.157 141.131 188.179 141.094 188.202 141.057L188.065 140.757L188.586 140.518C189.101 139.936 189.777 139.581 190.677 139.29C190.858 139.232 191.23 139.167 191.349 139.369C191.447 139.533 191.532 139.696 191.611 139.86C192.159 138.674 193.045 137.75 194.04 136.857C194.248 136.671 194.871 136.436 195.095 136.727C195.474 137.221 195.748 137.751 195.937 138.305C195.946 138.302 195.952 138.297 195.961 138.296C195.98 138.29 195.993 138.286 196.011 138.28C197.706 136.901 198.909 137.552 198.681 139.709C198.652 139.988 198.612 140.265 198.572 140.543C198.894 140.377 199.453 140.234 199.566 140.435C201.876 144.535 199.557 148.335 196.993 151.722C197.148 151.693 197.287 151.693 197.365 151.749C199.067 152.976 196.24 156.419 195.532 157.494C194.409 159.2 192.574 161.415 191.94 163.645C192.084 163.684 192.203 163.769 192.254 163.916C192.27 163.963 192.288 164.008 192.305 164.055C192.59 164.067 192.777 164.165 192.503 164.384C192.485 164.398 192.468 164.41 192.45 164.425C193.274 166.38 194.878 168.103 196.26 169.643C198.476 172.113 200.831 174.454 203.198 176.776C207.16 180.661 211.815 184.453 214.902 189.112C214.931 189.156 214.947 189.199 214.958 189.243C215.075 189.724 214.079 190.091 213.79 189.655C210.513 184.711 205.526 180.72 201.338 176.583C199.022 174.297 196.693 172.002 194.572 169.531C193.565 168.357 192.483 167.115 191.712 165.734C191.531 166 190.55 166.172 190.525 165.962C190.52 165.914 190.52 165.867 190.516 165.82C190.481 165.843 190.446 165.867 190.41 165.89C187.362 167.85 184.068 168.987 180.41 169.57C183.766 178.188 187.336 186.786 190.218 195.573C190.376 196.057 189.163 196.398 189.001 195.899C186.08 186.991 182.451 178.278 179.055 169.543C178.909 169.167 179.66 168.868 180.06 169.021C180.211 168.998 180.363 168.977 180.513 168.953V168.461C177.359 164.202 174.643 158.79 177.976 154.24L178.021 153.705C169.593 159.654 164.28 169.518 157.139 176.78C157.182 177.127 156.393 177.488 156.04 177.248C155.994 177.217 155.951 177.179 155.906 177.146C150.605 175.649 146.769 169.868 144.099 165.445C141.179 160.606 137.848 154.573 137.748 148.759C137.748 148.753 137.75 148.749 137.75 148.743C137.744 148.701 137.756 148.651 137.792 148.59C140.009 144.869 142.827 141.45 144.211 137.291C144.23 137.233 144.276 137.179 144.335 137.132C144.134 137.171 143.959 137.165 143.902 137.068C142.568 134.747 141.142 132.482 139.594 130.297C139.537 130.217 140.192 129.892 140.575 129.889C144.449 126.735 147.751 123.012 151.094 119.323L148.661 120.28C147.664 120.713 146.649 121.108 145.621 121.476L140.818 123.364C140.818 123.364 140.44 123.361 139.787 123.424C137.323 124.249 134.89 125.142 132.612 126.36C128.896 128.347 125.587 131.064 123.467 134.76C122.261 136.861 121.434 139.1 120.878 141.411C120.472 143.843 120.173 146.642 119.953 149.458C119.953 157.639 119.953 165.821 119.953 174.003C119.953 174.119 119.882 174.22 119.776 174.298C120.317 178.036 118.06 181.91 113.947 181.803C113.923 181.807 113.899 181.81 113.877 181.81C112.946 181.81 112.014 181.81 111.083 181.81C108.962 186.829 107.521 192.304 106.43 197.624C106.424 197.654 106.408 197.683 106.389 197.71H135.901C135.873 190.225 135.366 182.168 131.937 175.368C130.201 171.926 128.767 168.651 128.728 164.72C128.694 161.377 129.079 158.056 128.927 154.709C128.906 154.248 130.127 154.004 130.144 154.383C130.305 157.916 129.761 161.447 129.962 164.971C130.178 168.741 131.565 171.691 133.154 175.043C136.472 182.045 137.097 189.901 137.118 197.547C137.118 197.605 137.099 197.66 137.065 197.71H219.565C219.305 196.454 219.064 195.192 218.835 193.927C218.71 193.228 218.588 192.53 218.47 191.831Z" fill="url(#paint0_linear_1098_4803)"/>
<path d="M145.504 99.0973C139.9 99.1636 143.801 89.2569 144.515 86.5108C144.625 86.0891 145.852 85.9069 145.733 86.3621C145.151 88.5976 141.445 98.4467 145.974 98.3926C146.797 98.3846 145.966 99.0918 145.504 99.0973ZM158.965 96.2116C158.366 98.7159 157.231 101.297 154.735 102.381C152.449 103.373 150.302 101.913 148.868 100.219C148.791 100.128 148.8 100.035 148.859 99.9481C148.818 99.946 148.779 99.9473 148.737 99.9448C148.103 99.9065 149.214 99.3732 149.511 99.3912C152.413 99.5651 155.433 97.9638 157.492 96.0012C157.718 95.7854 158.848 95.6707 158.619 95.9328C158.843 95.9391 159.01 96.0227 158.965 96.2116ZM157.631 96.7988C155.524 98.4875 152.856 99.7125 150.166 99.9271C151.442 101.366 153.483 102.898 155.255 101.231C156.529 100.034 157.194 98.456 157.631 96.7988ZM154.362 82.9078C154.362 83.6256 154.362 84.3437 154.362 85.0619C154.362 85.4167 155.579 85.1933 155.579 84.736C155.579 84.0182 155.579 83.2997 155.579 82.582C155.579 82.2267 154.362 82.4505 154.362 82.9078ZM142.605 82.5815C142.605 82.2262 141.389 82.4501 141.389 82.9078C141.389 83.6256 141.389 84.3433 141.389 85.0619C141.389 85.4167 142.605 85.1929 142.605 84.7356C142.605 84.0178 142.605 83.2997 142.605 82.5815ZM153.076 79.6821C154.294 79.2419 155.543 79.4444 156.766 79.7434C157.242 79.8593 158.209 79.155 157.483 78.9773C155.8 78.5654 154.212 78.4415 152.557 79.0387C152.353 79.113 152.077 79.3961 152.257 79.6191C152.452 79.8597 152.833 79.7698 153.076 79.6821ZM143.843 79.6745C144.011 79.4397 143.702 79.3322 143.518 79.3322C142.492 79.3322 141.466 79.3322 140.44 79.3322C140.167 79.3322 139.805 79.4246 139.636 79.6602C139.469 79.895 139.777 80.0025 139.962 80.0025C140.987 80.0025 142.013 80.0025 143.039 80.0025C143.311 80.0029 143.675 79.9105 143.843 79.6745ZM176.297 79.2117C172.841 80.6463 172.142 84.6394 172.102 88.0088C172.059 91.6541 172.905 97.0822 176.245 99.2631C176.541 99.4563 177.575 98.9637 177.391 98.8432C174.626 97.0386 173.795 92.9871 173.44 89.9457C173.073 86.7926 173.154 80.9898 176.724 79.5078C177.522 79.1768 176.765 79.0177 176.297 79.2117ZM220.814 197.545C220.888 197.901 219.666 198.2 219.598 197.871C219.586 197.817 219.575 197.762 219.564 197.708C219.305 196.45 219.063 195.189 218.835 193.925C218.709 193.228 218.587 192.53 218.469 191.83C215.831 176.176 215.088 160.072 210.383 144.871C208.295 138.122 205.242 130.846 199.353 126.531C198.267 125.736 197.133 125.098 195.961 124.568C195.619 124.414 195.273 124.268 194.925 124.131C192.454 123.163 189.828 122.619 187.128 122.128C184.827 121.709 182.044 121.392 179.879 120.211C179.747 120.139 179.62 120.062 179.493 119.982C179.514 120.042 179.535 120.101 179.556 120.161C180.688 123.357 181.736 126.574 183.006 129.721C183.289 130.423 183.579 131.122 183.889 131.815C183.923 131.893 183.884 131.971 183.804 132.043C183.745 132.175 183.616 132.301 183.386 132.371C182.747 132.563 182.121 132.803 181.508 133.08C178.735 134.333 176.245 136.384 174.246 138.602C174.167 138.689 174.045 138.748 173.911 138.782C173.951 138.795 173.985 138.813 174.005 138.842C176.84 142.68 179.255 146.86 181.031 151.293C181.033 151.3 181.036 151.306 181.039 151.313C181.652 150.843 182.275 150.393 182.882 149.943C185.643 147.894 188.071 145.816 187.756 141.574C187.743 141.402 187.916 141.259 188.135 141.17C188.157 141.13 188.179 141.093 188.202 141.056C188.319 140.859 188.445 140.677 188.586 140.518C189.101 139.935 189.777 139.58 190.676 139.29C190.858 139.23 191.229 139.167 191.349 139.368C191.447 139.531 191.532 139.695 191.61 139.859C192.159 138.672 193.045 137.75 194.04 136.856C194.247 136.67 194.871 136.435 195.095 136.726C195.474 137.22 195.748 137.75 195.937 138.304C195.941 138.314 195.944 138.326 195.947 138.336C195.963 138.32 195.976 138.306 195.997 138.289C196.001 138.285 196.005 138.283 196.01 138.28C197.705 136.9 198.908 137.551 198.681 139.708C198.652 139.987 198.612 140.264 198.572 140.542C198.893 140.376 199.452 140.233 199.565 140.434C201.875 144.534 199.557 148.334 196.992 151.722C197.148 151.692 197.287 151.692 197.364 151.748C199.067 152.975 196.24 156.417 195.532 157.493C194.408 159.2 192.573 161.414 191.94 163.644C192.084 163.683 192.202 163.768 192.253 163.916C192.269 163.962 192.288 164.008 192.305 164.054C192.589 164.067 192.776 164.164 192.502 164.383C192.485 164.397 192.467 164.41 192.449 164.424C193.273 166.38 194.877 168.102 196.259 169.643C198.475 172.113 200.83 174.454 203.198 176.776C207.159 180.66 211.814 184.452 214.902 189.111C214.93 189.155 214.946 189.198 214.957 189.241C215.075 189.723 214.078 190.091 213.789 189.654C210.512 184.711 205.526 180.719 201.337 176.583C199.021 174.296 196.692 172.001 194.571 169.53C193.564 168.357 192.483 167.115 191.711 165.733C191.531 165.999 190.55 166.171 190.524 165.961C190.519 165.914 190.52 165.866 190.516 165.82C190.48 165.843 190.445 165.866 190.41 165.889C187.361 167.85 184.067 168.987 180.409 169.57C183.765 178.188 187.335 186.785 190.217 195.573C190.376 196.057 189.163 196.397 189 195.899C186.079 186.991 182.45 178.278 179.054 169.543C178.908 169.167 179.659 168.868 180.059 169.02C180.21 168.998 180.362 168.976 180.512 168.953C180.626 168.935 180.738 168.914 180.851 168.895C180.836 168.883 180.821 168.871 180.808 168.856C180.709 168.724 180.611 168.593 180.512 168.461C177.358 164.202 174.643 158.789 177.975 154.239C178.274 153.831 178.617 153.429 179.017 153.036C179.026 153.028 179.034 153.021 179.042 153.012C178.697 153.236 178.357 153.467 178.021 153.703C169.593 159.652 164.28 169.517 157.138 176.779C157.182 177.126 156.393 177.486 156.04 177.247C155.994 177.216 155.951 177.177 155.905 177.144C150.605 175.647 146.769 169.867 144.099 165.444C141.178 160.604 137.848 154.572 137.748 148.758C137.748 148.752 137.75 148.748 137.75 148.742C137.743 148.7 137.756 148.649 137.792 148.589C140.009 144.867 142.827 141.448 144.211 137.291C144.23 137.231 144.276 137.178 144.335 137.131C144.134 137.169 143.959 137.163 143.902 137.066C142.568 134.746 141.142 132.481 139.594 130.296C139.537 130.216 140.192 129.89 140.575 129.887C144.449 126.734 147.751 123.011 151.093 119.322C151.227 119.174 151.361 119.028 151.495 118.88C150.575 119.396 149.628 119.859 148.661 120.279C147.664 120.711 146.649 121.107 145.62 121.475C143.696 122.163 141.732 122.772 139.787 123.423C137.323 124.248 134.89 125.141 132.612 126.359C128.896 128.346 125.587 131.063 123.467 134.759C122.261 136.859 121.433 139.099 120.878 141.41C120.345 143.628 120.066 145.914 119.953 148.209C119.953 148.624 119.953 149.04 119.953 149.458C119.953 157.639 119.953 165.82 119.953 174.002C119.953 174.119 119.882 174.22 119.776 174.297C120.316 178.036 118.06 181.909 113.947 181.803C113.923 181.806 113.899 181.809 113.877 181.809C112.945 181.809 112.014 181.809 111.083 181.809C108.962 186.829 107.521 192.304 106.43 197.624C106.423 197.653 106.408 197.682 106.388 197.71C106.164 198.029 105.141 198.174 105.218 197.796C106.321 192.415 107.781 186.874 109.942 181.809C98.1957 181.809 86.4491 181.809 74.7026 181.809C74.7026 182.789 74.7026 183.768 74.7026 184.748C74.7026 184.749 74.7051 184.752 74.7051 184.753C74.7164 185.299 74.6333 185.902 74.2855 186.334C76.7659 186.334 79.2458 186.334 81.7262 186.334C81.8958 186.334 81.9916 186.364 82.0374 186.411C82.7736 186.398 83.9776 186.46 84.1553 187.212C84.2359 187.236 84.2884 187.278 84.2884 187.345C84.2884 190.328 84.2884 193.31 84.2884 196.294C84.2884 196.343 84.2707 196.389 84.2435 196.432C84.3195 196.813 84.0616 197.19 83.7441 197.408C83.1091 197.843 82.3276 198.01 81.5657 197.994C81.4914 197.993 81.3587 197.979 81.2764 197.933C72.0282 197.933 62.7796 197.933 53.5315 197.933C53.4462 197.945 53.3606 197.954 53.2761 197.956C52.6315 197.969 50.9487 197.653 51.2485 196.688C51.2175 196.645 51.199 196.594 51.199 196.529C51.199 193.546 51.199 190.563 51.199 187.58C51.199 187.49 51.2569 187.408 51.3447 187.339C51.6345 186.302 53.3811 186.239 54.2198 186.269C54.2975 186.272 54.3756 186.296 54.4424 186.333C57.1844 186.333 59.9259 186.333 62.6679 186.333C62.4474 185.824 62.4344 185.152 62.4529 184.644C62.4529 184.638 62.4554 184.634 62.4558 184.628C62.4558 183.707 62.4558 182.785 62.4558 181.864C53.19 181.864 43.9238 181.864 34.658 181.864C34.5384 181.864 34.4439 181.845 34.3683 181.814C30.6364 181.678 28.8364 177.853 29.3765 174.433C29.2598 174.377 29.1816 174.28 29.1816 174.129C29.1816 156.487 29.1816 138.845 29.1816 121.204C29.1816 121.034 29.3316 120.897 29.526 120.814C29.6596 119.217 30.2744 117.741 31.7187 116.869C32.9668 116.115 34.4031 115.866 35.8394 115.917C35.9478 115.812 36.1053 115.738 36.3043 115.738C61.9468 115.738 87.5894 115.738 113.232 115.738C113.461 115.738 113.608 115.812 113.689 115.917C116.902 115.741 119.433 117.363 119.623 120.732C119.81 120.767 119.953 120.874 119.953 121.075C119.953 127.684 119.953 134.292 119.953 140.901C121.51 135.337 124.602 130.489 129.821 127.153C130.269 126.866 130.729 126.588 131.209 126.324C132.665 125.525 134.188 124.862 135.743 124.263C140.089 122.591 144.693 121.448 148.868 119.468C148.324 119.415 147.436 119.329 146.401 119.24C140.12 119.766 133.09 118.342 129.25 113.931C125.629 109.772 125.766 103.953 127.674 99.0351C129.746 93.6956 133.418 88.6404 132.735 82.6475C132.726 82.5698 132.768 82.4988 132.841 82.4358C129.118 71.9441 135.124 59.0309 145.894 56.1612C145.762 56.1423 145.701 56.0915 145.8 55.997C151.863 50.2224 161.357 51.5865 167.799 56.0487C168.265 56.3716 168.728 56.7076 169.186 57.0566C177.284 56.7521 180.879 64.0793 182.356 71.5981C182.59 72.1272 182.818 72.6392 183.021 73.0957C183.236 73.0659 183.442 73.1058 183.535 73.2557C185.056 75.7192 186.64 78.1425 188.197 80.5829C189.274 82.2716 190.352 83.9716 191.39 85.6973L191.942 86.436L192.21 87.0811C193.528 89.3451 194.755 91.6583 195.791 94.0576C197.513 98.0427 199.032 102.607 198.322 107.011C197.579 111.614 194.886 114.979 191.1 116.876C191.099 116.878 191.096 116.88 191.095 116.882C190.854 117.119 190.16 117.383 189.286 117.639C188.54 117.902 187.763 118.12 186.958 118.282C186.55 118.363 186.134 118.432 185.716 118.496C184.53 118.742 183.623 118.903 183.623 118.903C183.623 118.903 183.35 118.848 182.898 118.757C181.719 118.796 180.533 118.745 179.37 118.578C180.532 119.779 182.171 120.485 183.962 120.954C184.588 121.118 185.231 121.253 185.879 121.37C188.041 121.763 190.249 121.959 191.982 122.374C195.453 123.205 198.702 124.486 201.436 126.838C206.829 131.482 209.776 138.345 211.75 145.031C216.346 160.6 217.095 176.966 219.926 192.9C220.018 193.417 220.111 193.935 220.208 194.451C220.398 195.486 220.6 196.517 220.814 197.545ZM62.4542 165.294C62.4542 162.616 62.4542 159.938 62.4542 157.26C62.4336 156.698 62.4151 155.923 62.7607 155.44C62.9296 155.203 63.1547 155.039 63.4083 154.93C63.573 154.764 63.9224 154.591 64.1403 154.591C67.123 154.591 70.106 154.591 73.0886 154.591C73.2318 154.591 73.32 154.611 73.37 154.643C73.6493 154.639 73.9202 154.707 74.1297 154.897C74.6035 155.327 74.7131 155.994 74.7005 156.604C74.7005 159.576 74.7005 162.549 74.7005 165.521C74.7013 165.521 74.7034 165.521 74.7043 165.521C78.547 165.521 82.3893 165.521 86.232 165.521C86.3689 165.491 86.51 165.479 86.6469 165.484C87.1744 165.502 87.5264 164.744 87.6414 164.318C87.7796 163.805 87.7914 163.304 87.6658 162.787C87.646 162.705 87.6994 162.625 87.7918 162.555C87.7918 155.494 87.7918 148.433 87.7918 141.372C87.7158 141.358 87.667 141.329 87.6658 141.284C87.6406 140.191 87.0039 139.434 85.972 139.369C85.8591 139.418 85.7444 139.451 85.6474 139.451C75.283 139.451 64.9185 139.451 54.5541 139.451C54.408 139.511 54.2438 139.534 54.1018 139.523C53.7452 139.494 53.2753 139.49 52.9998 139.766C52.6445 140.123 52.5572 140.58 52.5458 141.069C52.5437 141.166 52.4933 141.253 52.416 141.324C52.416 148.352 52.416 155.381 52.416 162.41C52.4975 162.429 52.5462 162.465 52.532 162.522C52.309 163.442 52.5962 164.914 53.5176 165.382C53.6125 165.328 53.7289 165.293 53.8641 165.293C56.7283 165.294 59.5912 165.294 62.4542 165.294ZM63.6347 155.273C63.7242 155.267 63.7888 155.258 63.8434 155.247C63.7716 155.26 63.7006 155.268 63.6347 155.273ZM63.8527 155.244C63.8976 155.236 63.9316 155.228 63.956 155.219C63.9551 155.219 63.9539 155.219 63.953 155.219C63.9199 155.228 63.8867 155.239 63.8527 155.244ZM73.0206 187.015C72.8854 187.088 72.7384 187.138 72.6137 187.138C69.6306 187.138 66.6476 187.138 63.6645 187.138C63.4491 187.138 63.3474 187.088 63.3206 187.015C60.2846 187.015 57.2491 187.015 54.2131 187.015C54.072 187.068 53.9166 187.089 53.778 187.084C53.4488 187.072 52.5626 186.974 52.5307 187.451C52.5248 187.538 52.4816 187.614 52.4169 187.681C52.4169 190.51 52.4169 193.341 52.4169 196.172C52.5017 196.187 52.5567 196.223 52.5173 196.298C52.0624 197.173 53.5151 197.47 54.0636 197.459C54.1089 197.458 54.1388 197.468 54.1686 197.476C63.342 197.476 72.5158 197.476 81.6892 197.476C81.8194 197.436 81.9538 197.413 82.0676 197.415C82.3565 197.421 82.7068 197.443 82.9071 197.192C83.0617 196.998 83.0734 196.784 82.96 196.567C82.9256 196.502 82.9747 196.425 83.0701 196.354C83.0701 193.489 83.0701 190.623 83.0701 187.757C83.005 187.741 82.963 187.713 82.96 187.67C82.9189 187.054 82.1646 186.938 81.5888 186.927C81.4712 186.981 81.3507 187.016 81.2495 187.016C78.5067 187.015 75.7634 187.015 73.0206 187.015ZM73.2293 186.332C73.2394 186.314 73.2524 186.299 73.2617 186.28C73.4292 185.933 73.4821 185.568 73.4847 185.188C73.4847 185.187 73.4842 185.187 73.4842 185.187C73.4842 175.768 73.4842 166.35 73.4842 156.932C73.4931 156.486 73.4519 155.995 73.2134 155.605C73.1336 155.474 73.0261 155.346 72.8925 155.267C72.8829 155.261 72.8711 155.259 72.8606 155.254C72.6729 155.31 72.4696 155.335 72.2987 155.277C72.2533 155.262 72.2277 155.242 72.2096 155.22C69.4689 155.22 66.7278 155.22 63.9871 155.22C63.9593 155.246 63.9157 155.298 63.8732 155.4C63.8178 155.532 63.7699 155.669 63.7418 155.811C63.6683 156.184 63.6574 156.556 63.6712 156.936C63.6712 159.766 63.6712 162.597 63.6712 165.429C63.8396 165.583 63.8258 165.84 63.6712 166.024C63.6712 172.121 63.6712 178.218 63.6712 184.315C63.6712 184.344 63.6662 184.374 63.657 184.401C63.6708 184.44 63.6805 184.481 63.6784 184.531C63.6641 184.925 63.6675 185.336 63.7783 185.719C63.8228 185.872 63.9144 186.247 64.1168 186.261C64.1983 186.266 64.2823 186.292 64.3524 186.334C67.3111 186.332 70.2702 186.332 73.2293 186.332ZM116.159 180.704C118.355 179.584 118.986 176.242 118.421 173.913C118.38 173.745 118.523 173.597 118.723 173.497C118.723 166.096 118.723 158.695 118.723 151.294C118.688 151.25 118.667 151.197 118.667 151.129C118.665 150.344 118.685 149.562 118.723 148.788C118.723 139.664 118.723 130.541 118.723 121.417C118.551 121.419 118.423 121.382 118.421 121.295C118.353 118.29 116.451 116.509 113.633 116.467C113.525 116.59 113.355 116.679 113.136 116.679C87.4932 116.679 61.8507 116.679 36.2082 116.679C35.9629 116.679 35.8104 116.595 35.7336 116.477C35.6643 116.494 35.6038 116.503 35.5606 116.499C32.5872 116.252 30.7763 118.043 30.7095 120.982C30.7066 121.11 30.578 121.216 30.4067 121.292C30.4067 138.667 30.4067 156.041 30.4067 173.417C30.6091 173.431 30.7536 173.515 30.7107 173.691C29.9905 176.659 31.2143 180.668 34.5241 181.067C34.6001 181.04 34.6845 181.023 34.7777 181.023C44.0032 181.023 53.2287 181.023 62.4537 181.023C62.4537 176.097 62.4537 171.172 62.4537 166.246C59.5602 166.246 56.6666 166.246 53.773 166.246C53.5004 166.246 53.3421 166.141 53.2749 166.002C51.8134 165.837 51.0528 164.471 51.2779 163.02C51.2284 162.973 51.1969 162.912 51.1969 162.829C51.1969 155.619 51.1969 148.409 51.1969 141.2C51.1969 141.111 51.2519 141.031 51.3363 140.963C51.4976 139.344 52.983 138.579 54.5415 138.709C54.6125 138.715 54.6856 138.736 54.7498 138.769C65.2071 138.769 75.6647 138.769 86.122 138.769C86.2837 138.769 86.379 138.796 86.4273 138.839C86.9829 138.822 87.5788 138.897 88.0387 139.212C88.596 139.595 88.8325 140.179 88.874 140.828C88.9555 140.852 89.0084 140.895 89.0084 140.96C89.0084 148.17 89.0084 155.38 89.0084 162.59C89.0084 162.653 88.9811 162.71 88.9383 162.763C89.2218 164.644 87.8027 166.126 85.8771 166.055C85.8141 166.053 85.7658 166.039 85.7314 166.017C82.0542 166.017 78.3773 166.017 74.7005 166.017C74.7005 171.046 74.7005 176.074 74.7005 181.101C74.7547 181.087 74.808 181.078 74.8575 181.078C87.9892 181.078 101.121 181.078 114.253 181.078C114.281 181.078 114.309 181.078 114.338 181.078C114.378 181.078 114.411 181.081 114.444 181.085C115.097 181.092 115.668 180.955 116.159 180.704ZM170.863 81.4451C170.54 81.7752 170.26 82.099 170.06 82.3413C170.112 82.3699 170.163 82.3997 170.214 82.4278C170.412 82.0809 170.629 81.7529 170.863 81.4451ZM168.552 63.1466C166.336 60.5268 163.526 58.1905 160.389 56.8013C161.515 57.375 163.096 58.3283 165.125 59.9086C166.387 60.8914 167.543 62.0257 168.552 63.1466ZM157.367 55.7971C156.975 55.7106 156.579 55.6384 156.182 55.585L157.367 55.7971ZM157.161 115.472C157.286 118.344 155.842 121.288 153.606 123.114C152.068 127.814 150.887 132.719 150.198 137.61C150.196 137.627 150.194 137.643 150.191 137.661C155.111 137.661 160.032 137.661 164.952 137.661C166.991 130.151 169.33 122.708 172.371 115.587C167.409 111.293 169.147 103.965 171.406 98.7033C171.501 98.4845 171.844 98.3577 172.138 98.3569C171.656 97.9461 171.223 97.4707 170.839 96.9403C170.835 96.9437 170.834 96.9458 170.83 96.9487C167.549 99.2711 164.258 101.997 160.182 102.644C160.153 102.695 160.083 102.738 160.051 102.757C159.817 102.899 159.466 103.013 159.19 102.987C159.106 102.979 159.021 102.973 158.935 102.971C158.917 102.97 158.834 102.973 158.791 102.973C158.781 102.982 158.771 102.99 158.762 103C158.752 103.012 158.733 103.035 158.728 103.043C158.591 103.26 158.605 103.527 158.761 103.759C158.815 103.84 158.915 103.932 159.029 103.991C159.054 103.969 159.078 103.947 159.101 103.923C159.311 103.703 159.466 103.436 159.603 103.166C159.708 102.958 160.119 102.877 160.318 102.842C160.371 102.832 160.898 102.755 160.802 102.945C160.434 103.669 159.888 104.25 159.072 104.44C158.546 104.561 157.918 104.614 157.568 104.121C157.34 103.801 157.381 103.396 157.65 103.115C157.902 102.852 158.292 102.705 158.636 102.617C158.88 102.554 159.129 102.516 159.379 102.501C159.473 102.363 159.734 102.206 159.997 102.173C163.789 101.703 166.868 98.986 169.883 96.8525C170.011 96.7622 170.396 96.6929 170.67 96.6971C168.19 93.0237 167.944 87.0496 169.903 83.0225C169.673 83.1094 169.413 83.1422 169.263 83.0595C164.694 80.5485 160.285 77.6717 156.152 74.4938C152.857 71.9613 149.455 69.2324 146.945 65.8651C146.68 66.9482 146.222 68.0111 145.659 69.0341C145.404 69.8598 144.699 70.8371 143.94 71.7136C143.463 72.3771 142.979 73.0113 142.521 73.6059C141.076 75.4811 139.547 77.3059 137.898 79.0051C137.821 79.084 137.657 79.147 137.474 79.1873C137.011 83.2018 136.656 87.2289 136.831 91.2568C137.067 96.685 138.336 104.125 143.53 107.157C147.267 109.339 153.687 107.879 156.173 112.068C156.571 112.741 156.838 113.451 156.998 114.178C157.092 114.605 157.142 115.037 157.161 115.472ZM158.698 102.979C158.702 102.977 158.703 102.977 158.707 102.976H158.705C158.703 102.977 158.702 102.977 158.698 102.979ZM177.066 65.8844C177.219 66.1683 177.365 66.4534 177.505 66.7407C177.374 66.4274 177.227 66.141 177.066 65.8844ZM180.851 98.4673C180.51 98.7579 180.138 99.0112 179.738 99.2254L180.511 99.0536C180.511 99.0536 180.636 98.847 180.851 98.4673ZM173.089 99.0364C172.917 98.9343 172.748 98.8272 172.587 98.7105C172.581 98.739 172.573 98.7693 172.56 98.8016C172.547 98.831 172.534 98.8617 172.522 98.8911L173.089 99.0364ZM161.661 150.562C162.635 146.587 163.628 142.588 164.697 138.604C159.824 138.604 154.951 138.604 150.078 138.604C149.589 142.787 149.72 146.905 150.065 151.118C150.486 156.241 151.101 161.396 152.286 166.404C152.976 169.319 153.798 173.531 156.115 175.834C157.66 167.355 159.611 158.927 161.661 150.562ZM146.953 55.9143C147.97 55.7119 149.025 55.5951 150.115 55.5787C150.24 55.5762 150.336 55.5943 150.412 55.6233C156.748 53.7771 163.539 56.0756 168.055 60.862C172.921 66.0188 175.369 71.8832 174.71 78.9244C175.298 78.8039 175.927 78.7606 176.599 78.811C177.2 78.856 176.056 79.3112 175.806 79.2923C175.402 79.2621 175.025 79.2906 174.67 79.365C174.662 79.4334 174.66 79.4994 174.651 79.5674C174.616 79.8563 173.611 80.0798 173.466 79.845C170.684 81.5576 169.872 86.7476 169.968 89.4909C170.103 93.3605 171.636 98.7004 176.15 99.3816C181.976 100.261 183.306 92.7456 182.967 88.443C182.736 85.515 181.677 81.0134 178.887 79.3322C178.758 79.3226 178.669 79.2852 178.671 79.2146C178.671 79.2125 178.671 79.2104 178.671 79.2088C177.97 78.835 177.166 78.6338 176.244 78.672C175.441 78.7048 176.465 78.2134 176.777 78.2004C177.402 78.1744 177.979 78.2399 178.514 78.3747C178.527 78.1958 178.576 77.4772 178.605 76.4512C178.13 69.5961 175.253 63.7215 169.863 59.0288C169.438 58.6584 168.992 58.2947 168.53 57.9377C168.385 57.905 168.3 57.8294 168.264 57.7357C162.159 53.1261 153.197 50.0179 146.953 55.9143ZM154.282 175.505C152.555 173.147 151.78 169.737 151.174 167.178C149.919 161.873 149.222 156.427 148.813 150.995C148.458 146.286 148.314 141.699 149.072 137.018C149.811 132.454 150.874 127.908 152.285 123.499C152.224 123.484 152.207 123.456 152.266 123.412C152.287 123.396 152.308 123.377 152.328 123.361C152.401 123.137 152.47 122.91 152.544 122.686C152.64 122.398 153.092 122.266 153.41 122.335C155.029 120.504 156.143 117.777 155.993 115.311L155.635 115.575C154.705 116.546 153.793 117.533 152.887 118.525C152.844 118.572 152.802 118.619 152.759 118.666C149.105 122.678 145.541 126.772 141.291 130.186C141.239 130.227 141.143 130.264 141.032 130.293C142.492 132.378 143.848 134.532 145.117 136.74C145.139 136.779 145.067 136.842 144.95 136.908C145.239 136.876 145.488 136.937 145.424 137.13C144.03 141.321 141.211 144.774 138.967 148.522C139.092 153.956 142.075 159.649 144.769 164.206C146.992 167.964 150.129 173.088 154.282 175.505ZM182.291 151.296C180.448 152.638 178.418 154.457 177.761 156.746C177.643 157.157 177.564 157.58 177.544 158.02C177.527 158.379 177.538 158.731 177.562 159.082C177.796 162.556 179.885 165.681 181.939 168.388C182.02 168.496 181.978 168.606 181.873 168.701C185.03 168.047 187.858 166.89 190.517 164.984C190.745 162.634 192.628 160.285 193.832 158.464C194.483 157.477 197.488 153.842 196.465 152.409C195.835 153.223 195.208 154.012 194.648 154.774C194.436 155.063 193.37 155.098 193.449 154.993C196.193 151.257 200.578 146.87 198.918 142.031C198.804 141.703 198.664 141.373 198.493 141.04C198.459 141.243 198.424 141.447 198.385 141.649C197.978 143.774 197.318 145.86 196.7 147.923C196.583 148.315 195.366 148.489 195.486 148.087C196.008 146.346 196.537 144.605 196.94 142.832C197.161 141.859 197.387 140.869 197.466 139.872C197.501 139.424 197.692 137.864 196.963 138.46C196.794 138.599 196.295 138.665 196.031 138.605C196.108 138.879 196.165 139.16 196.204 139.445C196.219 139.55 196.232 139.655 196.242 139.76C196.545 143.059 194.575 146.877 193.238 149.541C193.051 149.914 191.829 150.039 192.1 149.497C193.63 146.449 196.174 141.543 194.494 138.076C194.44 137.963 194.381 137.852 194.316 137.742C193.933 138.121 193.581 138.517 193.28 138.951C192.974 139.393 192.722 139.873 192.549 140.421C192.499 140.581 192.297 140.703 192.072 140.772C192.038 140.781 192.003 140.791 191.968 140.798C191.977 140.833 191.988 140.87 191.997 140.905C192.908 144.382 190.183 147.795 188.084 150.503C187.881 150.765 186.681 150.913 186.968 150.542C189.269 147.574 192.3 143.796 190.292 139.986C189.6 140.34 189.338 140.849 189.044 141.617C189.033 141.646 189.011 141.675 188.986 141.702C189.141 146.514 185.905 148.663 182.291 151.296ZM182.525 131.797C180.83 127.927 179.57 123.917 178.149 119.95C178.003 119.541 177.852 119.134 177.701 118.726C177.638 118.553 177.575 118.379 177.51 118.206C175.98 117.805 174.528 117.172 173.23 116.256C173.209 116.306 173.186 116.356 173.165 116.407C168.552 127.484 165.565 139.313 162.745 150.935C160.772 159.061 158.874 167.238 157.366 175.469C164.689 167.499 170.312 157.271 179.938 151.886C179.923 151.872 179.911 151.854 179.903 151.835C178.137 147.364 175.717 143.134 172.863 139.27C172.736 139.099 173.104 138.889 173.46 138.802C173.165 138.752 172.97 138.573 173.237 138.278C175.42 135.855 178.124 133.686 181.143 132.345C181.596 132.143 182.057 131.96 182.525 131.797ZM52.5563 81.2771C50.3082 75.7318 50.9592 69.3806 54.1535 64.32C62.5881 50.957 82.6001 49.6437 96.2395 54.6036C103.123 57.1066 112.401 62.6951 113.066 70.8488C113.662 78.1563 109.339 86.2521 102.227 88.7345C103.825 90.823 105.991 93.2328 108.738 93.5385C108.758 93.5352 108.779 93.5331 108.799 93.5301C109.009 93.5024 109.138 93.5217 109.206 93.5696C109.337 93.5721 109.466 93.578 109.599 93.5705C110.411 93.5268 109.461 94.1202 109.093 94.1391C108.972 94.1458 108.855 94.1408 108.737 94.1408C108.699 94.1504 108.661 94.1593 108.622 94.1647C104.482 94.7229 100.065 94.7867 96.6985 92.0909C92.3031 94.6195 86.7658 95.0185 81.8114 94.8904C75.8705 94.7371 69.7537 93.9069 64.1479 91.8545C59.0003 89.9701 54.6709 86.4927 52.5563 81.2771ZM52.6164 76.883C53.3996 81.4963 56.0496 86.0425 59.9973 88.6736C63.1891 90.8008 67.1141 91.9133 70.8347 92.6789C75.3346 93.6053 79.9719 94.1227 84.5706 93.9594C88.5116 93.8187 92.8268 93.3941 96.2672 91.2896C96.5469 91.1019 97.0853 90.9755 97.2781 91.1548C99.8852 93.5747 103.211 93.9925 106.561 93.7653C104.316 92.9691 102.518 91.0469 101.065 89.1452C100.986 89.0411 101.072 88.9264 101.225 88.8298C100.978 88.6287 101.036 88.1814 101.538 88.026C109.183 85.6586 114.378 74.8448 110.886 67.4509C107.41 60.09 98.2566 55.6539 90.69 54.0677C82.7542 52.4025 73.8404 52.5512 66.2091 55.53C57.8589 58.7894 51.0331 67.5554 52.6164 76.883ZM68.5475 68.9972C68.3375 68.754 68.6122 68.303 69.1082 68.303C75.448 68.303 81.7879 68.303 88.1273 68.303C88.4536 67.4215 88.772 66.5378 89.0664 65.6454C89.8652 63.2239 93.673 63.7912 95.7271 63.9042C96.5523 63.9496 95.8607 64.7807 95.2954 64.7496C94.1812 64.6883 93.046 64.6618 91.9348 64.7715C90.9575 64.8676 90.5531 64.7971 90.2238 65.7609C89.8404 66.8856 89.4431 68.0044 89.0198 69.1135C87.3365 73.5274 85.3778 77.8556 83.9596 82.3665C83.9428 82.4198 83.9117 82.4681 83.8735 82.5131C83.9591 82.5139 84.0545 82.5404 84.1263 82.5883C84.3812 82.5106 84.6622 82.4996 84.7987 82.624C85.3799 83.1544 85.6483 84.0644 85.2106 84.7721C84.7193 85.5671 83.5442 85.9169 82.6715 85.623C81.9219 85.371 81.3373 84.5886 81.6879 83.7847C81.9151 83.2644 82.3179 82.9263 82.7975 82.7289C82.7261 82.6731 82.6929 82.5895 82.7303 82.4715C82.9844 81.6635 83.2586 80.863 83.5421 80.0655C83.5123 80.0688 83.4825 80.0726 83.451 80.0726C79.5877 80.0726 75.7244 80.0726 71.8611 80.0726C72.0039 80.7996 72.1483 81.527 72.284 82.2556C72.3058 82.3732 72.2655 82.4791 72.1907 82.5689C72.4268 82.5093 72.6724 82.5093 72.7972 82.6231C73.3784 83.1535 73.6468 84.0636 73.2092 84.7713C72.7178 85.5663 71.5427 85.9165 70.67 85.6221C69.9204 85.3701 69.3358 84.5877 69.6865 83.7839C69.9578 83.1628 70.4781 82.8003 71.0833 82.6298C71.0774 82.6143 71.0698 82.6 71.0665 82.582C70.7137 80.6891 70.332 78.8035 69.9477 76.9178C69.7637 76.8103 69.749 76.6117 69.8515 76.4428C69.3681 74.0729 68.8822 71.7043 68.4392 69.3269C68.4169 69.2017 68.4631 69.0904 68.5475 68.9972ZM72.1937 84.3278C72.2315 83.8734 72.0421 83.4752 71.7279 83.1636C71.6112 83.1934 71.4915 83.2119 71.3823 83.2157C71.0211 83.2279 70.7906 83.749 70.8166 84.0619C70.8527 84.4907 71.1559 84.9901 71.641 85.0043C71.9677 85.0136 72.1609 84.7267 72.1937 84.3278ZM84.1947 84.3278C84.2325 83.8734 84.0431 83.4752 83.729 83.1636C83.6122 83.1934 83.4925 83.2119 83.3834 83.2157C83.0218 83.2279 82.7912 83.749 82.8177 84.0619C82.8534 84.4907 83.157 84.9901 83.6421 85.0043C83.9688 85.0136 84.1616 84.7267 84.1947 84.3278ZM84.6949 76.9955C80.2126 76.9955 75.7298 76.9955 71.2471 76.9955C71.3983 77.7389 71.5486 78.4818 71.6964 79.2264C75.6542 79.2264 79.6124 79.2264 83.5698 79.2264C83.6757 79.2264 83.7634 79.2407 83.8348 79.265C84.1145 78.5057 84.4005 77.7485 84.6949 76.9955ZM86.1694 73.3027C80.9459 73.3027 75.7227 73.3027 70.4995 73.3027C70.691 74.2519 70.883 75.201 71.0761 76.1484C75.7256 76.1484 80.3755 76.1484 85.025 76.1484C85.4017 75.1989 85.786 74.251 86.1694 73.3027ZM69.6856 69.1488C69.8956 70.2693 70.1144 71.3885 70.3383 72.506C70.4172 72.4758 70.5058 72.4565 70.6045 72.4565C75.9066 72.4565 81.2092 72.4565 86.5113 72.4565C86.9544 71.3578 87.3882 70.2558 87.8094 69.1488C81.7677 69.1488 75.7265 69.1488 69.6856 69.1488ZM129.961 164.969C129.76 161.445 130.303 157.914 130.143 154.381C130.126 154.003 128.905 154.246 128.926 154.707C129.078 158.054 128.693 161.374 128.727 164.718C128.766 168.649 130.199 171.923 131.936 175.366C135.365 182.165 135.872 190.222 135.9 197.708C135.9 197.762 135.901 197.817 135.901 197.871C135.902 198.192 136.832 198.057 137.065 197.708C137.099 197.658 137.118 197.603 137.118 197.544C137.096 189.898 136.471 182.042 133.154 175.039C131.564 171.689 130.177 168.738 129.961 164.969Z" fill="#3C4B91"/>
<defs>
<linearGradient id="paint0_linear_1098_4803" x1="163.298" y1="114.177" x2="163.298" y2="197.71" gradientUnits="userSpaceOnUse">
<stop stop-color="#FFBD55"/>
<stop offset="1" stop-color="#FFF2C5"/>
</linearGradient>
</defs>
</svg>
